<svg xmlns="http://www.w3.org/2000/svg" viewBox="0 0 1080 1080"><style>.st1{opacity:.6;fill:#fff}.st2{opacity:.3}.st2,.st3{fill:#fff}.st4{fill:#0be0da}.st5{fill:#0bddd7}.st6{fill:#0eddd3}.st9{opacity:.5;fill:#fff}</style><g id="bg"><linearGradient id="SVGID_1_" gradientUnits="userSpaceOnUse" x1="540" y1="1080" x2="540" y2="0"><stop offset="0" stop-color="#0abfbc"/><stop offset="1" stop-color="#fc354c"/></linearGradient><path d="M1040 1080H40c-22.091 0-40-17.909-40-40V40C0 17.909 17.909 0 40 0h1000c22.091 0 40 17.909 40 40v1000c0 22.091-17.909 40-40 40z" fill="url(#SVGID_1_)"/></g><g id="bars"><path class="st1" d="M34 823.178l6.167 10.655 6.168-10.655V157.972H34v337.93z"/><path class="st2" d="M50.892 463.527l6.167 10.656 6.167-10.656V157.972H50.892zM67.784 333.654l6.167 10.655 6.167-10.655V157.972H67.784zM84.676 473.518l6.167 10.655 6.167-10.655V157.972H84.676zM101.568 603.392l6.167 10.655 6.167-10.655v-445.42h-12.334zM118.46 683.305l6.167 10.656 6.167-10.656V157.972H118.46zM135.351 273.71l6.168 10.655 6.167-10.655V157.972h-12.335zM152.243 773.217l4.936 10.655 7.399-10.655V157.972h-12.335zM169.135 263.72l6.168 10.655 6.167-10.655V157.972h-12.335zM186.027 863.128l6.167 10.655 6.168-10.655V157.972h-12.335zM202.92 242.034l6.166 10.655 6.168-10.655v-84.062h-12.335zM219.811 811.472l6.167 10.655 6.167-10.655v-653.5h-12.334zM236.703 781.501l6.167 10.655 6.167-10.655v-623.53h-12.334z"/><path class="st1" d="M253.595 911.373l6.167 10.655 6.167-10.655V157.972h-12.334z"/><path class="st2" d="M270.487 761.52l6.167 10.656 6.167-10.655V157.97h-12.334zM287.379 291.984l6.167 10.656 6.167-10.656V157.972H287.38zM304.27 591.689l6.168 10.655 6.167-10.655V157.972H304.27zM321.162 381.896l6.168 10.655 6.167-10.655V157.972h-12.335zM338.054 601.678l6.168 10.656 6.167-10.656V157.972h-12.335zM354.946 471.807l6.167 10.655 6.168-10.655V157.972h-12.335zM422.514 200.368l6.693 10.656 6.693-10.656v-42.396h-13.386z"/><path class="st1" d="M371.838 809.766l6.167 10.656 6.168-10.656V157.972h-12.335zM388.73 689.885l6.167 10.655 6.167-10.655V157.972H388.73z"/><path class="st2" d="M405.622 589.984l6.167 10.655 6.167-10.655V157.972h-12.334zM440.457 639.934l6.168 10.656 6.167-10.656V157.972h-12.335zM457.35 430.141l6.166 10.656 6.168-10.656v-272.17h-12.335zM474.241 659.914l6.167 10.656 6.168-10.656V157.972H474.24zM491.133 659.914l6.167 10.656 6.167-10.656V157.972h-12.334zM508.025 490.082l6.167 10.655 6.167-10.655v-332.11h-12.334zM524.917 709.865l6.167 10.656 6.167-10.656V157.972h-12.334zM541.809 608.259l6.167 10.655 6.167-10.655V157.972H541.81zM558.7 856.027l6.168 10.655 6.167-10.655V157.972h-12.334zM575.593 718.15l6.167 10.656 6.167-10.656V157.972h-12.334zM592.484 478.387l6.168 10.655 6.167-10.655V157.972h-12.335zM609.376 728.14l6.168 10.656 6.167-10.655V157.97h-12.335zM626.268 498.367l6.167 10.655 6.168-10.655V157.972h-12.335zM643.16 198.663l6.675 10.655 6.674-10.655v-40.691H643.16zM661.066 808.062l6.168 10.655 6.167-10.655v-650.09h-12.335zM677.958 638.23l6.168 10.654 6.167-10.655V157.972h-12.335zM694.85 628.239l6.167 10.655 6.168-10.655V157.972H694.85zM829.985 196.958l6.656 10.655 6.656-10.655v-38.986h-13.312zM711.742 246.909l6.167 10.655 6.168-10.655v-88.937h-12.335z"/><path class="st1" d="M728.634 856.307l6.167 10.655 6.168-10.655V157.972h-12.335z"/><path class="st2" d="M745.526 326.83l6.167 10.655 6.167-10.655V157.972h-12.334zM762.418 546.613l6.167 10.655 6.167-10.655V157.972h-12.334zM779.31 346.81l6.167 10.655 6.167-10.655V157.972H779.31zM796.202 596.563l6.167 10.656 6.167-10.656V157.972h-12.334z"/><path class="st1" d="M813.094 852.49l6.167 10.656 6.167-10.655V157.97h-12.334z"/><path class="st2" d="M847.855 476.682l6.167 10.655 6.167-10.655v-318.71h-12.334zM864.746 706.455l6.168 10.655 6.167-10.655V157.972h-12.335zM881.638 694.76l6.168 10.655 6.167-10.655V157.972h-12.335zM898.53 325.125l6.167 10.655 6.168-10.655V157.972H898.53z"/><path class="st1" d="M915.422 774.681l6.167 10.655 6.168-10.655v-616.71h-12.335z"/><path class="st2" d="M932.314 614.839l6.167 10.655 6.168-10.655V157.972h-12.335zM949.206 624.829l6.167 10.655 6.167-10.655V157.972h-12.334zM966.098 484.967l6.167 10.655 6.167-10.655V157.972h-12.334zM982.99 554.898l6.167 10.655 6.167-10.655V157.972H982.99z"/><path class="st1" d="M999.882 694.76l6.167 10.655 6.167-10.655V157.972h-12.334z"/><path class="st2" d="M1016.774 544.908l6.167 10.655 6.167-10.655V157.972h-12.334zM1033.665 554.898l6.168 10.655 6.167-10.655V157.972h-12.335z"/></g><g id="labels"><path class="st3" d="M49.025 863.48c-.57 0-1.086-.308-1.385-1.008l-1.168-2.968h-8.284l-1.195 2.94c-.272.7-.788 1.007-1.358 1.007-.76 0-1.602-.672-1.602-1.596 0-.196.026-.42.108-.644l6.627-16.604c.354-.84.87-1.26 1.549-1.26.679 0 1.222.42 1.548 1.26l6.627 16.632c.108.225.163.449.163.672 0 .897-.842 1.568-1.63 1.568zm-6.708-14.336l-2.853 7.168h5.704l-2.851-7.168zM54.836 863.451c-1.494 0-2.743-1.288-2.743-2.8v-15.568c0-1.035.788-1.567 1.575-1.567.761 0 1.522.532 1.522 1.567v15.204c.787.168 1.194.868 1.194 1.568 0 .812-.543 1.596-1.548 1.596zM65.348 863.927c-1.575 0-2.825-.476-3.911-1.232a1.474 1.474 0 01-1.331.784c-.76 0-1.575-.56-1.575-1.624v-16.772c0-1.035.788-1.567 1.548-1.567.788 0 1.548.532 1.548 1.567v4.145c1.032-.756 2.254-1.12 3.721-1.12 4.373 0 6.817 3.667 6.817 7.896 0 4.256-2.444 7.923-6.817 7.923zm0-12.627c-2.145 0-3.72 1.651-3.72 4.704 0 3.079 1.575 4.731 3.72 4.731 2.146 0 3.72-1.652 3.72-4.731 0-3.053-1.574-4.704-3.72-4.704zM88.243 863.451c-1.086 0-1.983-.532-2.634-1.344-1.114 1.12-2.662 1.82-4.564 1.82-4.426 0-6.817-3.751-6.817-7.923 0-4.145 2.39-7.897 6.817-7.897 1.576 0 2.88.476 3.911 1.26a1.61 1.61 0 011.359-.784c.869 0 1.548.673 1.548 1.597v9.492c0 .308.135.42.407.42.896 0 1.602.756 1.602 1.68s-.733 1.68-1.63 1.68zM81.045 851.3c-2.118 0-3.72 1.651-3.72 4.704 0 3.079 1.602 4.731 3.72 4.731 2.146 0 3.721-1.652 3.721-4.731 0-3.053-1.575-4.704-3.72-4.704zM102.393 863.451c-.76 0-1.548-.532-1.548-1.596v-7.364c0-1.792-1.358-3.191-3.097-3.191s-3.095 1.4-3.095 3.191v7.309c0 1.119-.761 1.68-1.55 1.68-.759 0-1.547-.561-1.547-1.68v-11.62c0-1.036.815-1.597 1.603-1.597.434 0 .869.196 1.195.56 1.005-.7 2.173-1.036 3.394-1.036 3.369 0 6.193 2.884 6.193 6.384v7.364c0 1.064-.76 1.596-1.548 1.596zM108.558 846.68c-1.276 0-2.309-1.065-2.309-2.38 0-1.317 1.033-2.38 2.309-2.38s2.336 1.063 2.336 2.38c0 1.315-1.06 2.38-2.336 2.38zm0 16.771c-.706 0-1.548-.532-1.548-1.596V850.18c0-1.065.842-1.597 1.548-1.597s1.549.532 1.549 1.597v11.675c0 1.064-.843 1.596-1.549 1.596zM126.811 863.451c-1.087 0-1.983-.532-2.635-1.344-1.114 1.12-2.662 1.82-4.563 1.82-4.427 0-6.818-3.751-6.818-7.923 0-4.145 2.391-7.897 6.818-7.897 1.575 0 2.879.476 3.91 1.26a1.61 1.61 0 011.36-.784c.868 0 1.547.673 1.547 1.597v9.492c0 .308.136.42.407.42.897 0 1.603.756 1.603 1.68s-.734 1.68-1.629 1.68zm-7.198-12.151c-2.118 0-3.721 1.651-3.721 4.704 0 3.079 1.603 4.731 3.72 4.731 2.146 0 3.722-1.652 3.722-4.731 0-3.053-1.576-4.704-3.721-4.704z"/><path class="st4" d="M48.028 883.773c.3-.054.437.069.41.37v2.173c0 .301-.137.438-.41.41H34.616c-.302.028-.438-.109-.41-.41v-2.173c-.028-.301.108-.424.41-.37h13.412v-.04.04zM55.598 884.43c.027.3.15.355.37.164.874-1.176 2.529-1.873 4.962-2.092 2.434.055 4.361.916 5.783 2.584s2.147 3.787 2.174 6.357c-.027 2.516-.78 4.662-2.256 6.44-1.449 1.777-3.431 2.707-5.947 2.789-2.516-.082-4.498-.998-5.947-2.748s-2.188-3.951-2.215-6.604v-12.879c.027-2.46.766-4.511 2.215-6.152 1.449-1.668 3.459-2.53 6.029-2.584 2.078.027 3.842.629 5.291 1.805 1.45 1.203 2.324 2.816 2.625 4.84.055.246-.082.369-.41.369h-2.42c-.273 0-.41-.164-.41-.492a5.373 5.373 0 00-1.436-2.543c-.71-.684-1.804-1.04-3.281-1.067-1.613.027-2.871.574-3.773 1.64-.903 1.095-1.354 2.49-1.354 4.184v5.989zm0 7.095c0 1.805.438 3.282 1.313 4.43.875 1.176 2.132 1.791 3.773 1.846 1.64-.055 2.898-.67 3.773-1.846.848-1.176 1.286-2.68 1.313-4.512-.027-1.804-.451-3.267-1.272-4.388-.847-1.121-2.091-1.696-3.732-1.723-3.418.219-5.14 2.283-5.168 6.193v-.04.04zM74.898 884.43c.027.3.15.355.369.164.875-1.176 2.53-1.873 4.963-2.092 2.433.055 4.361.916 5.783 2.584s2.147 3.787 2.174 6.357c-.027 2.516-.78 4.662-2.256 6.44-1.45 1.777-3.432 2.707-5.947 2.789-2.516-.082-4.498-.998-5.947-2.748s-2.188-3.951-2.215-6.604v-12.879c.027-2.46.765-4.511 2.215-6.152 1.449-1.668 3.459-2.53 6.029-2.584 2.078.027 3.842.629 5.29 1.805 1.45 1.203 2.325 2.816 2.626 4.84.055.246-.082.369-.41.369h-2.42c-.274 0-.41-.164-.41-.492a5.373 5.373 0 00-1.436-2.543c-.71-.684-1.805-1.04-3.281-1.067-1.613.027-2.871.574-3.774 1.64-.902 1.095-1.353 2.49-1.353 4.184v5.989zm0 7.095c0 1.805.437 3.282 1.312 4.43.875 1.176 2.133 1.791 3.774 1.846 1.64-.055 2.898-.67 3.773-1.846.848-1.176 1.285-2.68 1.313-4.512-.028-1.804-.451-3.267-1.272-4.388-.847-1.121-2.092-1.696-3.732-1.723-3.418.219-5.14 2.283-5.168 6.193v-.04.04zM95.506 878.024c-2.13 0-3.87-1.934-3.87-4.31s1.74-4.286 3.87-4.286c2.106 0 3.845 1.91 3.845 4.286s-1.74 4.31-3.845 4.31zm0-6.514c-.784 0-1.763.784-1.763 2.204 0 1.42.98 2.204 1.763 2.204.783 0 1.763-.783 1.763-2.204 0-1.42-.98-2.204-1.763-2.204zm10.212-1.2l-4.506 16.212c-.123.54-.539.784-.955.784-.563 0-1.102-.392-1.102-1.029 0-.073 0-.195.024-.294l4.531-16.237a1 1 0 01.98-.759c.515 0 1.077.367 1.077.98 0 .122-.024.22-.049.343zm3.478 16.555c-2.106 0-3.845-1.934-3.845-4.31 0-2.35 1.74-4.285 3.845-4.285 2.13 0 3.87 1.934 3.87 4.285 0 2.376-1.74 4.31-3.87 4.31zm0-6.514c-.76 0-1.739.784-1.739 2.204 0 1.445.98 2.228 1.739 2.228.784 0 1.763-.783 1.763-2.228 0-1.42-.98-2.204-1.763-2.204z"/><g><path class="st3" d="M416.032 701.016c-6.056 0-7.958-5.207-7.958-10.444 0-5.488 2.12-10.471 7.904-10.471 2.471 0 4.59.895 6.03 3.051.217.308.326.617.326.924 0 .868-.788 1.596-1.63 1.596-.49 0-.896-.224-1.195-.672-.679-1.008-1.711-1.708-3.53-1.708-4.102 0-4.808 3.977-4.808 7.28 0 3.445.787 7.252 4.807 7.252 2.608 0 4.156-1.624 4.645-4.844h-1.603c-1.032 0-1.602-.84-1.602-1.595 0-.813.543-1.624 1.548-1.624h3.368c.896 0 1.493.56 1.493 1.456v.223c0 5.068-2.281 9.576-7.795 9.576zM438.386 694.688h-8.8c.462 2.044 1.792 3.136 3.557 3.136.978 0 1.793-.28 2.417-.895.354-.336.708-.505 1.087-.505.87 0 1.711.757 1.711 1.624 0 1.513-3.123 2.968-5.215 2.968-4.426 0-6.817-3.724-6.817-7.923 0-4.145 2.39-7.897 6.817-7.897 3.776 0 6.79 2.94 6.79 7.897 0 .811-.542 1.595-1.547 1.595zm-5.243-6.3c-1.874 0-3.069 1.205-3.53 3.108h7.09c-.463-2.044-1.794-3.107-3.56-3.107zM447.81 688.389c-1.739 0-3.096 1.4-3.096 3.191v7.364c0 1.064-.76 1.596-1.549 1.596-.76 0-1.548-.532-1.548-1.596V687.27c0-1.092.787-1.597 1.548-1.597.462 0 .924.196 1.25.56 1.005-.7 2.173-1.036 3.395-1.036 1.032 0 1.547.784 1.547 1.596 0 .784-.515 1.597-1.547 1.597zM468.125 700.54c-.787 0-1.548-.532-1.548-1.596v-8.204c0-1.315-1.032-2.351-2.308-2.351-1.25 0-2.283 1.036-2.283 2.351v8.204c0 1.064-.787 1.596-1.548 1.596-.787 0-1.547-.532-1.547-1.596v-8.204c0-1.315-1.033-2.351-2.282-2.351-1.277 0-2.308 1.036-2.308 2.351v8.204c0 1.064-.761 1.596-1.55 1.596-.759 0-1.547-.532-1.547-1.596V687.27c0-.869.679-1.597 1.548-1.597.38 0 .706.112 1.005.337a5.337 5.337 0 012.852-.813c1.493 0 2.825.616 3.83 1.653a5.188 5.188 0 013.83-1.653c2.987 0 5.404 2.492 5.404 5.544v8.204c0 1.064-.787 1.596-1.548 1.596zM485.588 700.54c-1.086 0-1.983-.532-2.634-1.344-1.114 1.12-2.662 1.82-4.563 1.82-4.427 0-6.818-3.751-6.818-7.923 0-4.145 2.39-7.897 6.818-7.897 1.575 0 2.878.476 3.91 1.26a1.61 1.61 0 011.36-.784c.868 0 1.547.673 1.547 1.597v9.492c0 .307.136.42.407.42.897 0 1.603.756 1.603 1.68s-.734 1.679-1.63 1.679zm-7.197-12.151c-2.119 0-3.721 1.651-3.721 4.704 0 3.079 1.602 4.731 3.72 4.731 2.146 0 3.721-1.652 3.721-4.731 0-3.053-1.575-4.704-3.72-4.704zM500.282 700.54c-.76 0-1.548-.532-1.548-1.596v-7.364c0-1.792-1.358-3.191-3.096-3.191s-3.096 1.4-3.096 3.191v7.309c0 1.119-.76 1.68-1.549 1.68-.76 0-1.548-.561-1.548-1.68v-11.62c0-1.037.815-1.597 1.603-1.597.434 0 .869.196 1.195.56 1.005-.7 2.173-1.036 3.395-1.036 3.368 0 6.192 2.884 6.192 6.384v7.364c0 1.064-.76 1.596-1.548 1.596zM516.17 687.94l-7.305 16.408c-.57 1.232-1.765 2.072-3.07 2.072h-.57c-1.032 0-1.547-.812-1.547-1.596 0-.812.515-1.596 1.548-1.596h.542c.083 0 .19-.028.272-.196l2.01-4.536-4.916-10.527a1.49 1.49 0 01-.163-.729c0-.924.815-1.595 1.602-1.595.544 0 1.032.28 1.331.923l3.803 8.176 3.667-8.147c.299-.672.814-.925 1.331-.925.814 0 1.629.644 1.629 1.513 0 .223-.054.503-.163.755z"/><path class="st5" d="M403.54 720.862c.302-.054.438.069.411.37v2.173c0 .301-.137.438-.41.41h-13.412c-.301.028-.438-.109-.41-.41v-2.174c-.028-.3.109-.423.41-.369h13.412v-.04.04zM411.111 730.214c.219 2.953 1.86 4.498 4.922 4.635 1.422 0 2.584-.465 3.486-1.395.875-.93 1.327-2.228 1.354-3.896v-3.733c0-1.476-.396-2.68-1.19-3.61-.82-.956-1.968-1.448-3.445-1.476-1.777.055-3.13.52-4.06 1.395-.137.191-.315.26-.534.205h-2.01c-.3.055-.423-.068-.368-.37v-14.068c-.055-.3.068-.423.369-.369h12.797c.3-.054.423.069.369.37v2.091c.054.301-.069.438-.37.41h-10.007c-.274-.054-.397.069-.37.37v8.12c0 .247.124.301.37.165 1.094-.602 2.447-.916 4.06-.944 2.215.028 3.993.725 5.332 2.092 1.368 1.367 2.065 3.24 2.092 5.62v3.732c-.055 2.46-.834 4.416-2.338 5.865s-3.39 2.201-5.66 2.256c-2.297-.055-4.129-.78-5.496-2.174-1.395-1.395-2.146-3.2-2.256-5.414-.055-.274.069-.397.37-.37h2.132c.3-.027.451.137.451.493v-.041.04zM435.046 734.849c1.558-.055 2.803-.616 3.732-1.682s1.395-2.406 1.395-4.02c-.028-1.996-.574-3.554-1.64-4.675-1.095-1.094-2.516-1.64-4.266-1.64h-.493c-.273.026-.396-.11-.369-.411v-1.969c-.027-.3.096-.424.37-.369h.245c1.668-.027 3.008-.56 4.02-1.6 1.012-1.011 1.531-2.406 1.559-4.183-.164-2.899-1.586-4.43-4.266-4.594-1.121 0-2.092.37-2.912 1.107s-1.326 1.819-1.518 3.24c0 .384-.136.548-.41.493h-2.215c-.328.055-.45-.082-.369-.41.192-2.106.97-3.842 2.338-5.21 1.395-1.394 3.104-2.105 5.127-2.132 2.105.027 3.842.738 5.209 2.133s2.078 3.185 2.133 5.373c-.055 1.86-.52 3.336-1.395 4.43-.847 1.093-1.804 1.886-2.87 2.378-.22.137-.206.288.04.452 1.094.464 2.147 1.271 3.158 2.42 1.04 1.175 1.586 2.898 1.641 5.167-.055 2.352-.848 4.362-2.379 6.03-1.559 1.64-3.527 2.502-5.906 2.584-2.16-.028-3.992-.739-5.496-2.133-1.532-1.422-2.366-3.404-2.502-5.947-.055-.164.068-.274.369-.328h2.215c.3-.055.45.109.45.492.247 3.199 1.915 4.867 5.005 5.004v-.041.04zM449.34 715.113c-2.13 0-3.87-1.934-3.87-4.31s1.74-4.286 3.87-4.286c2.106 0 3.845 1.91 3.845 4.286s-1.739 4.31-3.844 4.31zm0-6.514c-.783 0-1.763.784-1.763 2.204 0 1.42.98 2.204 1.764 2.204.783 0 1.762-.783 1.762-2.204 0-1.42-.979-2.204-1.762-2.204zm10.213-1.2l-4.506 16.212c-.123.54-.54.784-.955.784-.564 0-1.103-.392-1.103-1.029 0-.073 0-.195.025-.294l4.53-16.237a1 1 0 01.98-.759c.515 0 1.077.367 1.077.98 0 .122-.024.22-.048.342zm3.477 16.555c-2.105 0-3.845-1.934-3.845-4.31 0-2.351 1.74-4.286 3.845-4.286 2.131 0 3.87 1.935 3.87 4.286 0 2.376-1.739 4.31-3.87 4.31zm0-6.515c-.759 0-1.738.785-1.738 2.205 0 1.445.98 2.228 1.738 2.228.784 0 1.764-.783 1.764-2.228 0-1.42-.98-2.205-1.764-2.205z"/></g><g><path class="st3" d="M381.806 849.496c-6.057 0-7.958-5.208-7.958-10.443 0-5.489 2.12-10.473 7.904-10.473 2.471 0 4.59.897 6.03 3.053.216.307.326.615.326.924 0 .868-.788 1.595-1.63 1.595-.49 0-.897-.223-1.195-.672-.68-1.007-1.711-1.708-3.53-1.708-4.102 0-4.808 3.976-4.808 7.28 0 3.444.787 7.253 4.807 7.253 2.608 0 4.156-1.624 4.645-4.845h-1.603c-1.032 0-1.602-.84-1.602-1.596 0-.811.543-1.624 1.548-1.624h3.368c.896 0 1.493.56 1.493 1.456v.224c0 5.068-2.281 9.576-7.795 9.576zM403.073 843.168h-8.8c.462 2.044 1.792 3.137 3.558 3.137.977 0 1.792-.28 2.417-.897.353-.336.707-.504 1.086-.504.87 0 1.711.756 1.711 1.624 0 1.512-3.123 2.968-5.214 2.968-4.427 0-6.818-3.724-6.818-7.924 0-4.143 2.39-7.895 6.818-7.895 3.775 0 6.79 2.94 6.79 7.895 0 .813-.543 1.596-1.548 1.596zm-5.242-6.3c-1.875 0-3.07 1.204-3.53 3.109h7.088c-.462-2.044-1.793-3.109-3.558-3.109zM412.497 849.496c-4.374 0-6.818-3.668-6.818-7.924 0-4.227 2.444-7.895 6.818-7.895s6.817 3.668 6.817 7.895c0 4.256-2.444 7.924-6.817 7.924zm0-12.628c-2.119 0-3.721 1.652-3.721 4.704 0 3.08 1.602 4.733 3.72 4.733 2.146 0 3.721-1.653 3.721-4.733 0-3.051-1.575-4.704-3.72-4.704zM427.652 836.868c-1.738 0-3.096 1.4-3.096 3.193v7.363c0 1.064-.76 1.596-1.549 1.596-.76 0-1.548-.532-1.548-1.596v-11.676c0-1.092.788-1.596 1.548-1.596.462 0 .924.197 1.25.56 1.005-.7 2.173-1.035 3.395-1.035 1.032 0 1.548.783 1.548 1.595 0 .785-.516 1.596-1.548 1.596zM437.783 855.404c-1.955 0-5.867-.643-5.867-2.603 0-.868.706-1.68 1.548-1.68.57 0 .354.195 1.494.644.598.223 1.494.448 2.825.448 2.634 0 3.721-1.093 3.721-3.612v-.561c-1.06.672-2.282.98-3.721.98-4.291 0-6.818-3.135-6.818-7.448 0-4.227 2.445-7.895 6.818-7.895 1.575 0 2.825.475 3.91 1.231.272-.504.789-.756 1.332-.756.76 0 1.575.533 1.575 1.596v12.853c0 4.452-2.58 6.803-6.817 6.803zm0-18.536c-2.119 0-3.721 1.652-3.721 4.704 0 2.828 1.385 4.256 3.72 4.256 2.364 0 3.722-1.428 3.722-4.256 0-3.051-1.576-4.704-3.721-4.704zM448.918 832.248c-1.276 0-2.308-1.063-2.308-2.38 0-1.315 1.032-2.38 2.308-2.38s2.336 1.065 2.336 2.38c0 1.317-1.06 2.38-2.336 2.38zm0 16.773c-.706 0-1.547-.533-1.547-1.597v-11.676c0-1.063.841-1.596 1.547-1.596s1.55.533 1.55 1.596v11.676c0 1.064-.844 1.597-1.55 1.597zM466.627 849.02c-1.087 0-1.983-.532-2.634-1.343-1.115 1.119-2.662 1.82-4.564 1.82-4.427 0-6.817-3.753-6.817-7.925 0-4.143 2.39-7.895 6.817-7.895 1.575 0 2.879.475 3.911 1.26.326-.533.87-.785 1.359-.785.869 0 1.548.672 1.548 1.596v9.492c0 .308.135.42.407.42.896 0 1.602.756 1.602 1.68 0 .925-.733 1.68-1.629 1.68zm-7.198-12.152c-2.118 0-3.72 1.652-3.72 4.704 0 3.08 1.602 4.733 3.72 4.733 2.146 0 3.722-1.653 3.722-4.733 0-3.051-1.576-4.704-3.722-4.704z"/><path class="st5" d="M370.155 869.343c.3-.055.437.068.41.369v2.174c0 .3-.137.437-.41.41h-13.412c-.301.027-.438-.11-.41-.41v-2.174c-.028-.3.109-.424.41-.37h13.412v-.04.04zM377.725 869.999c.027.3.15.355.37.164.874-1.176 2.528-1.873 4.962-2.092 2.434.055 4.361.916 5.783 2.584s2.147 3.787 2.174 6.358c-.027 2.515-.78 4.662-2.256 6.44-1.449 1.776-3.431 2.706-5.947 2.788-2.516-.082-4.498-.998-5.947-2.748s-2.188-3.951-2.215-6.603v-12.88c.027-2.46.765-4.511 2.215-6.152 1.449-1.668 3.459-2.529 6.029-2.584 2.078.028 3.842.63 5.291 1.805 1.45 1.203 2.324 2.816 2.625 4.84.055.246-.082.37-.41.37h-2.42c-.273 0-.41-.165-.41-.493a5.373 5.373 0 00-1.436-2.543c-.71-.684-1.804-1.04-3.281-1.067-1.613.028-2.871.575-3.773 1.641-.903 1.094-1.354 2.488-1.354 4.184v5.988zm0 7.096c0 1.804.438 3.281 1.313 4.43.875 1.175 2.132 1.79 3.773 1.845 1.64-.055 2.898-.67 3.773-1.846.848-1.175 1.286-2.68 1.313-4.511-.027-1.805-.451-3.268-1.272-4.389-.847-1.121-2.091-1.695-3.732-1.723-3.418.22-5.14 2.284-5.168 6.194v-.041.04zM397.025 878.694c.219 2.953 1.86 4.498 4.922 4.635 1.422 0 2.584-.465 3.486-1.394.875-.93 1.326-2.229 1.354-3.897v-3.732c0-1.477-.397-2.68-1.19-3.61-.82-.957-1.969-1.449-3.445-1.476-1.778.054-3.131.52-4.06 1.394-.137.192-.315.26-.534.205h-2.01c-.3.055-.424-.068-.369-.369v-14.068c-.055-.3.069-.424.37-.37h12.796c.3-.054.424.07.37.37v2.092c.054.3-.07.437-.37.41h-10.008c-.273-.055-.396.068-.369.369v8.121c0 .246.123.3.37.164 1.093-.601 2.447-.916 4.06-.943 2.215.027 3.992.724 5.332 2.092 1.367 1.367 2.064 3.24 2.092 5.619v3.732c-.055 2.461-.834 4.416-2.338 5.865s-3.39 2.202-5.66 2.256c-2.297-.054-4.13-.78-5.496-2.174-1.395-1.394-2.147-3.199-2.256-5.414-.055-.273.068-.396.369-.369h2.133c.3-.027.45.137.45.492v-.04.04zM415.955 863.594c-2.131 0-3.87-1.935-3.87-4.31s1.739-4.287 3.87-4.287c2.105 0 3.844 1.91 3.844 4.286s-1.739 4.31-3.844 4.31zm0-6.515c-.785 0-1.764.784-1.764 2.204 0 1.421.98 2.204 1.764 2.204.783 0 1.762-.783 1.762-2.204 0-1.42-.98-2.204-1.762-2.204zm10.211-1.2l-4.505 16.213c-.123.539-.54.783-.955.783-.564 0-1.103-.392-1.103-1.028 0-.074 0-.196.024-.294l4.532-16.238a1 1 0 01.98-.758c.514 0 1.076.367 1.076.98 0 .121-.024.22-.049.342zm3.478 16.556c-2.105 0-3.845-1.935-3.845-4.311 0-2.35 1.74-4.285 3.845-4.285 2.13 0 3.87 1.934 3.87 4.285 0 2.376-1.74 4.31-3.87 4.31zm0-6.515c-.759 0-1.738.784-1.738 2.204 0 1.445.98 2.229 1.738 2.229.784 0 1.764-.784 1.764-2.229 0-1.42-.98-2.204-1.764-2.204z"/></g><g><path class="st3" d="M268.234 936.383c-.407 0-.924-.196-1.222-.672-.652-1.036-1.657-1.708-3.503-1.708-3.124 0-4.808 2.268-4.808 7.28 0 4.985 1.684 7.252 4.808 7.252 1.846 0 2.851-.7 3.53-1.68.354-.532.788-.755 1.223-.755.814 0 1.602.755 1.602 1.651 0 .28-.082.588-.299.924-1.33 1.904-3.232 3.052-6.056 3.052-5.84 0-7.905-4.984-7.905-10.444 0-5.488 2.065-10.471 7.905-10.471 2.77 0 4.725 1.12 6.029 3.051.19.28.354.616.354.952 0 .869-.816 1.568-1.658 1.568zM277.767 939.1c-1.739 0-3.096 1.399-3.096 3.191v7.364c0 1.064-.76 1.596-1.549 1.596-.76 0-1.548-.532-1.548-1.596V937.98c0-1.091.788-1.596 1.548-1.596.462 0 .924.196 1.25.56 1.005-.7 2.173-1.036 3.395-1.036 1.032 0 1.548.784 1.548 1.596 0 .784-.516 1.597-1.548 1.597zM286.268 951.727c-4.374 0-6.818-3.667-6.818-7.923 0-4.229 2.444-7.897 6.818-7.897s6.817 3.668 6.817 7.897c0 4.256-2.444 7.923-6.817 7.923zm0-12.627c-2.119 0-3.721 1.651-3.721 4.704 0 3.079 1.602 4.731 3.72 4.731 2.146 0 3.722-1.652 3.722-4.731 0-3.053-1.576-4.704-3.721-4.704zM308.62 951.251c-1.086 0-1.982-.532-2.634-1.344-1.114 1.12-2.662 1.82-4.563 1.82-4.427 0-6.818-3.751-6.818-7.923 0-4.145 2.391-7.897 6.818-7.897 1.575 0 2.879.476 3.91 1.26a1.61 1.61 0 011.36-.784c.868 0 1.547.673 1.547 1.597v9.492c0 .307.136.42.407.42.897 0 1.603.755 1.603 1.68s-.733 1.679-1.63 1.679zm-7.197-12.151c-2.118 0-3.72 1.651-3.72 4.704 0 3.079 1.602 4.731 3.72 4.731 2.145 0 3.72-1.652 3.72-4.731 0-3.053-1.575-4.704-3.72-4.704zM315.6 939.575h-.95v8.065c0 .223.162.42.38.42h.543c.87 0 1.548.671 1.548 1.595s-.679 1.596-1.548 1.596h-.055c-2.878 0-3.964-1.792-3.964-4.088v-7.588h-.028c-1.032 0-1.548-.868-1.548-1.596 0-.728.516-1.596 1.548-1.596h.028v-3.5c0-1.035.841-1.568 1.548-1.568s1.547.533 1.547 1.568v3.5h.952c1.032 0 1.547.868 1.547 1.596 0 .896-.651 1.596-1.547 1.596zM320.108 934.48c-1.276 0-2.308-1.065-2.308-2.38 0-1.317 1.032-2.38 2.308-2.38s2.336 1.063 2.336 2.38c0 1.315-1.06 2.38-2.336 2.38zm0 16.771c-.706 0-1.548-.532-1.548-1.596V937.98c0-1.065.842-1.597 1.548-1.597s1.55.532 1.55 1.596v11.676c0 1.064-.844 1.596-1.55 1.596zM337.817 951.251c-1.087 0-1.983-.532-2.634-1.344-1.115 1.12-2.663 1.82-4.564 1.82-4.427 0-6.817-3.751-6.817-7.923 0-4.145 2.39-7.897 6.817-7.897 1.575 0 2.879.476 3.911 1.26a1.61 1.61 0 011.359-.784c.869 0 1.547.673 1.547 1.597v9.492c0 .307.136.42.408.42.896 0 1.602.755 1.602 1.68s-.733 1.679-1.629 1.679zM330.62 939.1c-2.118 0-3.72 1.651-3.72 4.704 0 3.079 1.602 4.731 3.72 4.731 2.146 0 3.722-1.652 3.722-4.731 0-3.053-1.576-4.704-3.722-4.704z"/><path class="st4" d="M271.231 971.573c.301-.054.438.069.41.37v2.173c0 .301-.136.438-.41.41H257.82c-.3.028-.437-.109-.41-.41v-2.174c-.027-.3.11-.423.41-.369h13.412v-.04.04zM291.311 962.14c-2.488 4.183-4.32 8.298-5.496 12.345s-1.859 8.34-2.05 12.88c.054.355-.082.505-.41.45h-2.338c-.301-.027-.424-.177-.37-.45.192-4.294.957-8.641 2.297-13.044a54.224 54.224 0 015.62-12.633c.246-.382.232-.574-.042-.574H275.89c-.301.055-.424-.082-.37-.41v-2.174c-.054-.3.069-.424.37-.369h15.216c.301-.055.424.068.37.37v3.034l-.165.575v-.041.04zM298.101 980.925c.22 2.953 1.86 4.498 4.922 4.635 1.422 0 2.584-.465 3.487-1.395.875-.93 1.326-2.228 1.353-3.896v-3.733c0-1.476-.396-2.68-1.19-3.61-.82-.956-1.968-1.448-3.445-1.476-1.777.055-3.13.52-4.06 1.395-.137.191-.315.26-.533.205h-2.01c-.3.055-.424-.069-.37-.37v-14.068c-.054-.3.07-.424.37-.369h12.797c.3-.055.424.069.369.37v2.091c.055.3-.068.438-.37.41h-10.007c-.273-.054-.396.069-.37.37v8.12c0 .247.124.301.37.165 1.094-.602 2.447-.916 4.06-.944 2.215.028 3.993.725 5.333 2.092 1.367 1.367 2.064 3.24 2.091 5.62v3.732c-.054 2.46-.834 4.416-2.338 5.865s-3.39 2.201-5.66 2.256c-2.297-.055-4.129-.78-5.496-2.174-1.394-1.395-2.146-3.2-2.256-5.414-.054-.274.069-.397.37-.37h2.132c.301-.027.452.137.452.493v-.041.04zM317.031 965.824c-2.13 0-3.87-1.934-3.87-4.31s1.74-4.286 3.87-4.286c2.106 0 3.845 1.91 3.845 4.286s-1.74 4.31-3.845 4.31zm0-6.514c-.784 0-1.763.784-1.763 2.204 0 1.42.979 2.204 1.763 2.204.783 0 1.763-.783 1.763-2.204 0-1.42-.98-2.204-1.763-2.204zm10.212-1.2l-4.506 16.212c-.123.54-.539.783-.955.783-.563 0-1.102-.391-1.102-1.028 0-.073 0-.195.024-.294l4.531-16.237a1 1 0 01.98-.759c.514 0 1.077.367 1.077.98 0 .122-.024.22-.049.342zm3.478 16.555c-2.106 0-3.845-1.935-3.845-4.31 0-2.351 1.74-4.286 3.845-4.286 2.13 0 3.87 1.935 3.87 4.285 0 2.376-1.74 4.311-3.87 4.311zm0-6.515c-.76 0-1.739.785-1.739 2.204 0 1.446.98 2.229 1.739 2.229.784 0 1.763-.783 1.763-2.229 0-1.42-.98-2.204-1.763-2.204z"/></g><g><path class="st3" d="M607.154 897.173c-.517 0-.978-.252-1.304-.784l-7.66-12.18v11.368c0 1.064-.76 1.596-1.548 1.596-.76 0-1.548-.532-1.548-1.596v-16.772c0-.98.816-1.568 1.575-1.568.544 0 .979.197 1.304.756l7.66 12.18v-11.368c0-1.035.76-1.568 1.548-1.568.76 0 1.548.533 1.548 1.568v16.772c0 .98-.815 1.596-1.575 1.596zM623.477 891.321h-8.8c.461 2.044 1.792 3.136 3.558 3.136.977 0 1.793-.28 2.417-.895.353-.336.706-.505 1.087-.505.869 0 1.71.756 1.71 1.624 0 1.512-3.123 2.967-5.214 2.967-4.428 0-6.818-3.723-6.818-7.922 0-4.145 2.39-7.897 6.818-7.897 3.775 0 6.79 2.94 6.79 7.897 0 .811-.543 1.595-1.548 1.595zm-5.242-6.3c-1.874 0-3.07 1.205-3.531 3.108h7.088c-.46-2.044-1.792-3.108-3.557-3.108zM631.461 885.497h-.95v8.065c0 .223.162.42.38.42h.543c.87 0 1.548.671 1.548 1.595s-.679 1.596-1.548 1.596h-.055c-2.879 0-3.965-1.792-3.965-4.088v-7.588h-.027c-1.032 0-1.549-.868-1.549-1.596 0-.728.517-1.596 1.55-1.596h.026v-3.5c0-1.035.842-1.568 1.548-1.568s1.548.533 1.548 1.568v3.5h.951c1.032 0 1.548.868 1.548 1.596 0 .896-.652 1.596-1.548 1.596zM645.801 897.173c-.76 0-1.548-.532-1.548-1.596v-7.364c0-1.792-1.358-3.192-3.096-3.192s-3.096 1.4-3.096 3.192v7.308c0 1.12-.76 1.68-1.549 1.68-.76 0-1.548-.56-1.548-1.68v-16.716c0-1.035.788-1.568 1.548-1.568.788 0 1.549.533 1.549 1.568v3.864a6.118 6.118 0 013.096-.84c3.368 0 6.193 2.884 6.193 6.384v7.364c0 1.064-.76 1.596-1.549 1.596zM661.853 891.321h-8.8c.461 2.044 1.792 3.136 3.558 3.136.977 0 1.793-.28 2.417-.895.353-.336.706-.505 1.087-.505.869 0 1.71.756 1.71 1.624 0 1.512-3.123 2.967-5.214 2.967-4.428 0-6.818-3.723-6.818-7.922 0-4.145 2.39-7.897 6.818-7.897 3.775 0 6.79 2.94 6.79 7.897 0 .811-.543 1.595-1.548 1.595zm-5.242-6.3c-1.874 0-3.07 1.205-3.531 3.108h7.088c-.46-2.044-1.792-3.108-3.557-3.108zM671.82 885.021c-1.739 0-3.096 1.4-3.096 3.192v7.364c0 1.064-.76 1.596-1.549 1.596-.76 0-1.548-.532-1.548-1.596v-11.676c0-1.091.788-1.596 1.548-1.596.462 0 .924.196 1.25.56 1.005-.7 2.173-1.036 3.395-1.036 1.032 0 1.549.784 1.549 1.596 0 .784-.517 1.596-1.55 1.596zM677.251 897.173c-1.493 0-2.743-1.288-2.743-2.8v-15.568c0-1.035.788-1.568 1.575-1.568.761 0 1.522.533 1.522 1.568v15.204c.787.168 1.195.868 1.195 1.568 0 .812-.544 1.596-1.549 1.596zM694.335 897.173c-1.086 0-1.982-.532-2.634-1.344-1.114 1.12-2.662 1.82-4.563 1.82-4.428 0-6.817-3.752-6.817-7.923 0-4.145 2.39-7.897 6.817-7.897 1.575 0 2.879.476 3.911 1.26a1.61 1.61 0 011.359-.784c.869 0 1.547.673 1.547 1.596v9.493c0 .307.136.42.408.42.896 0 1.602.755 1.602 1.68s-.733 1.679-1.63 1.679zm-7.197-12.152c-2.118 0-3.72 1.652-3.72 4.705 0 3.079 1.602 4.731 3.72 4.731 2.146 0 3.72-1.652 3.72-4.731 0-3.053-1.574-4.705-3.72-4.705zM708.486 897.173c-.761 0-1.548-.532-1.548-1.596v-7.364c0-1.792-1.358-3.192-3.097-3.192s-3.096 1.4-3.096 3.192v7.308c0 1.12-.76 1.68-1.548 1.68-.761 0-1.548-.56-1.548-1.68v-11.62c0-1.036.814-1.596 1.602-1.596.435 0 .87.196 1.195.56 1.005-.7 2.173-1.036 3.395-1.036 3.368 0 6.193 2.884 6.193 6.384v7.364c0 1.064-.761 1.596-1.548 1.596zM724.537 897.173c-.543 0-1.059-.252-1.331-.756-1.222.784-2.39 1.231-3.912 1.231-4.372 0-6.817-3.667-6.817-7.922 0-4.229 2.445-7.897 6.817-7.897 1.467 0 2.69.364 3.722 1.12v-4.144c0-1.035.76-1.568 1.548-1.568s1.548.533 1.548 1.568v16.772c0 1.064-.815 1.596-1.575 1.596zm-5.243-12.152c-2.118 0-3.72 1.652-3.72 4.705 0 3.079 1.602 4.731 3.72 4.731 2.147 0 3.722-1.652 3.722-4.731 0-3.053-1.575-4.705-3.722-4.705zM733.961 897.648c-1.385 0-3.694-.391-5.187-2.015-.299-.308-.354-.728-.408-1.036 0-.867.76-1.624 1.602-1.624.381 0 .788.14 1.142.56.515.616 1.683.924 2.851.924 2.254 0 2.526-.756 2.526-1.484 0-3.024-7.713-.672-7.713-6.72 0-3.388 2.906-4.424 5.514-4.424 1.602 0 4.997.729 4.997 2.548 0 .84-.734 1.624-1.576 1.624-.298 0-.597-.056-.896-.28-.625-.476-1.548-.7-2.525-.7-2.228 0-2.418.728-2.418 1.232 0 2.688 7.713.588 7.713 6.72 0 3.416-2.688 4.675-5.622 4.675z"/><path class="st5" d="M675.95 917.495c.3-.055.436.068.41.37v2.173c0 .3-.138.438-.41.41h-13.412c-.302.028-.438-.11-.41-.41v-2.174c-.028-.3.108-.424.41-.369h13.412v-.04.04zM683.519 918.151c.027.301.15.356.37.164.874-1.175 2.528-1.873 4.962-2.091 2.434.054 4.361.916 5.783 2.584s2.147 3.787 2.174 6.357c-.027 2.516-.78 4.662-2.256 6.44-1.449 1.777-3.431 2.707-5.947 2.789-2.516-.082-4.498-.999-5.947-2.749s-2.188-3.95-2.215-6.603v-12.879c.027-2.46.765-4.512 2.215-6.152 1.449-1.668 3.459-2.53 6.029-2.584 2.078.027 3.842.629 5.291 1.804 1.45 1.204 2.324 2.817 2.625 4.84.055.246-.082.37-.41.37h-2.42c-.274 0-.41-.165-.41-.493a5.373 5.373 0 00-1.436-2.543c-.71-.683-1.805-1.039-3.281-1.066-1.613.027-2.871.574-3.774 1.64-.902 1.094-1.353 2.489-1.353 4.184v5.988zm0 7.096c0 1.805.437 3.281 1.312 4.43.875 1.176 2.133 1.79 3.774 1.845 1.64-.054 2.898-.67 3.773-1.845.848-1.176 1.286-2.68 1.313-4.512-.027-1.805-.451-3.268-1.272-4.389-.847-1.12-2.091-1.695-3.732-1.722-3.418.218-5.14 2.283-5.168 6.193v-.04.04zM712.869 919.669c0-.273-.123-.314-.37-.123-.876 1.148-2.557 1.818-5.044 2.01-2.435-.055-4.348-.903-5.743-2.543s-2.106-3.76-2.132-6.358c.026-2.515.751-4.648 2.173-6.398 1.45-1.75 3.431-2.666 5.948-2.748 2.543.054 4.538.957 5.988 2.707 1.42 1.722 2.146 3.91 2.174 6.562v12.838c-.028 2.434-.753 4.47-2.174 6.112-1.422 1.613-3.445 2.46-6.07 2.543-2.079-.028-3.842-.63-5.291-1.805-1.422-1.149-2.27-2.735-2.543-4.758-.056-.246.067-.37.369-.37h2.338c.272 0 .423.165.45.493a5.078 5.078 0 001.395 2.543c.739.684 1.846 1.04 3.323 1.066 1.667-.027 2.953-.574 3.855-1.64.902-1.094 1.354-2.488 1.354-4.184v-5.947zm0-7.096c0-1.804-.438-3.295-1.313-4.47-.902-1.176-2.188-1.778-3.855-1.805-1.641.027-2.899.629-3.774 1.805-.876 1.203-1.327 2.72-1.353 4.552.026 1.86.465 3.35 1.312 4.471s2.092 1.695 3.733 1.723c3.471-.22 5.222-2.31 5.25-6.276v-.04.04zM721.748 911.746c-2.13 0-3.869-1.934-3.869-4.31s1.739-4.287 3.87-4.287c2.106 0 3.844 1.91 3.844 4.287s-1.738 4.31-3.845 4.31zm0-6.515c-.784 0-1.763.785-1.763 2.205s.98 2.204 1.763 2.204c.784 0 1.764-.784 1.764-2.204 0-1.42-.98-2.205-1.764-2.205zm10.212-1.2l-4.505 16.213c-.123.54-.54.783-.956.783-.563 0-1.101-.391-1.101-1.028 0-.073 0-.195.024-.294l4.53-16.237c.148-.514.564-.759.98-.759.515 0 1.078.367 1.078.98 0 .122-.024.22-.05.342zm3.479 16.556c-2.107 0-3.846-1.935-3.846-4.31 0-2.351 1.74-4.286 3.846-4.286 2.13 0 3.869 1.935 3.869 4.285 0 2.376-1.74 4.31-3.87 4.31zm0-6.515c-.76 0-1.74.784-1.74 2.204 0 1.446.98 2.229 1.74 2.229.783 0 1.763-.783 1.763-2.229 0-1.42-.98-2.204-1.763-2.204z"/></g><g><path class="st3" d="M823.714 888.549h-5.052v7.028c0 .896-.68 1.596-1.549 1.596s-1.548-.7-1.548-1.596v-16.772c0-.84.706-1.568 1.548-1.568h6.573c3.07 0 5.514 2.52 5.514 5.628 0 3.164-2.444 5.684-5.486 5.684zm0-8.148h-5.052v4.956h5.024c1.332 0 2.417-1.091 2.417-2.463 0-1.4-1.058-2.493-2.39-2.493zM836.994 897.648c-4.373 0-6.817-3.667-6.817-7.922 0-4.229 2.444-7.897 6.817-7.897s6.817 3.668 6.817 7.897c0 4.255-2.444 7.922-6.817 7.922zm0-12.627c-2.118 0-3.72 1.652-3.72 4.705 0 3.079 1.602 4.731 3.72 4.731 2.146 0 3.72-1.652 3.72-4.731 0-3.053-1.574-4.705-3.72-4.705zM849.081 897.173c-1.494 0-2.743-1.288-2.743-2.8v-15.568c0-1.035.788-1.568 1.575-1.568.76 0 1.522.533 1.522 1.568v15.204c.787.168 1.194.868 1.194 1.568 0 .812-.543 1.596-1.548 1.596zM866.164 897.173c-1.086 0-1.982-.532-2.634-1.344-1.114 1.12-2.662 1.82-4.563 1.82-4.427 0-6.818-3.752-6.818-7.923 0-4.145 2.391-7.897 6.818-7.897 1.575 0 2.879.476 3.91 1.26a1.61 1.61 0 011.36-.784c.868 0 1.547.673 1.547 1.596v9.493c0 .307.136.42.407.42.897 0 1.603.755 1.603 1.68s-.734 1.679-1.63 1.679zm-7.197-12.152c-2.118 0-3.721 1.652-3.721 4.705 0 3.079 1.603 4.731 3.72 4.731 2.146 0 3.721-1.652 3.721-4.731 0-3.053-1.575-4.705-3.72-4.705zM880.314 897.173c-.76 0-1.547-.532-1.547-1.596v-7.364c0-1.792-1.359-3.192-3.097-3.192s-3.096 1.4-3.096 3.192v7.308c0 1.12-.76 1.68-1.549 1.68-.76 0-1.548-.56-1.548-1.68v-11.62c0-1.036.815-1.596 1.603-1.596.435 0 .87.196 1.195.56 1.005-.7 2.173-1.036 3.395-1.036 3.368 0 6.192 2.884 6.192 6.384v7.364c0 1.064-.76 1.596-1.548 1.596zM896.366 897.173c-.543 0-1.06-.252-1.33-.756-1.223.784-2.39 1.231-3.912 1.231-4.373 0-6.817-3.667-6.817-7.922 0-4.229 2.444-7.897 6.817-7.897 1.467 0 2.69.364 3.722 1.12v-4.144c0-1.035.76-1.568 1.547-1.568.788 0 1.548.533 1.548 1.568v16.772c0 1.064-.814 1.596-1.575 1.596zm-5.242-12.152c-2.118 0-3.72 1.652-3.72 4.705 0 3.079 1.602 4.731 3.72 4.731 2.145 0 3.722-1.652 3.722-4.731 0-3.053-1.577-4.705-3.722-4.705z"/><path class="st6" d="M830.73 917.495c.301-.055.438.068.41.37v2.173c0 .3-.136.438-.41.41h-13.412c-.3.028-.437-.11-.41-.41v-2.174c-.027-.3.11-.424.41-.369h13.412v-.04.04zM838.3 918.151c.028.301.151.356.37.164.875-1.175 2.53-1.873 4.963-2.091 2.433.054 4.361.916 5.783 2.584s2.146 3.787 2.174 6.357c-.028 2.516-.78 4.662-2.256 6.44-1.45 1.777-3.432 2.707-5.947 2.789-2.516-.082-4.498-.999-5.948-2.749s-2.187-3.95-2.214-6.603v-12.879c.027-2.46.765-4.512 2.214-6.152 1.45-1.668 3.46-2.53 6.03-2.584 2.078.027 3.841.629 5.29 1.804 1.45 1.204 2.325 2.817 2.626 4.84.054.246-.082.37-.41.37h-2.42c-.274 0-.41-.165-.41-.493a5.373 5.373 0 00-1.436-2.543c-.711-.683-1.805-1.039-3.281-1.066-1.614.027-2.871.574-3.774 1.64-.902 1.094-1.353 2.489-1.353 4.184v5.988zm0 7.096c0 1.805.438 3.281 1.313 4.43.875 1.176 2.133 1.79 3.774 1.845 1.64-.054 2.898-.67 3.773-1.845.848-1.176 1.285-2.68 1.313-4.512-.028-1.805-.452-3.268-1.272-4.389-.848-1.12-2.092-1.695-3.732-1.722-3.418.218-5.14 2.283-5.168 6.193v-.04.04zM867.977 905.847c1.422 1.476 2.16 3.35 2.215 5.619-.164 3.39-1.34 5.633-3.527 6.726-.137.11-.123.246.041.41 2.707 1.56 4.047 3.965 4.02 7.22-.055 2.515-.834 4.538-2.338 6.07-1.532 1.53-3.46 2.324-5.784 2.379-2.324-.055-4.238-.848-5.742-2.38s-2.283-3.554-2.338-6.07c-.027-3.254 1.313-5.66 4.02-7.218.164-.165.178-.301.04-.41-2.187-1.094-3.362-3.337-3.526-6.727.054-2.27.793-4.143 2.214-5.62 1.395-1.503 3.172-2.283 5.332-2.337 2.188.054 3.979.834 5.373 2.338zm-5.373 25.675c1.559-.027 2.803-.56 3.733-1.6.93-1.01 1.394-2.364 1.394-4.06 0-1.832-.45-3.295-1.353-4.388-.902-1.121-2.16-1.696-3.774-1.723-1.586.027-2.83.602-3.732 1.723-.902 1.093-1.354 2.556-1.354 4.388 0 1.696.465 3.05 1.395 4.06.93 1.04 2.16 1.573 3.691 1.6v-.04.04zm4.594-20.015c0-1.45-.41-2.68-1.23-3.692-.793-1.011-1.914-1.53-3.364-1.558-1.449.027-2.57.547-3.363 1.558s-1.19 2.243-1.19 3.692c.083 3.445 1.6 5.264 4.553 5.455 2.98-.191 4.512-2.01 4.594-5.455zM876.53 911.746c-2.13 0-3.87-1.934-3.87-4.31s1.74-4.287 3.87-4.287c2.106 0 3.845 1.91 3.845 4.287s-1.74 4.31-3.845 4.31zm0-6.515c-.784 0-1.763.785-1.763 2.205s.979 2.204 1.763 2.204c.783 0 1.763-.784 1.763-2.204 0-1.42-.98-2.205-1.763-2.205zm10.212-1.2l-4.506 16.213c-.123.54-.539.783-.955.783-.563 0-1.102-.391-1.102-1.028 0-.073 0-.195.024-.294l4.531-16.237a1 1 0 01.98-.759c.514 0 1.077.367 1.077.98 0 .122-.024.22-.049.342zm3.478 16.556c-2.106 0-3.845-1.935-3.845-4.31 0-2.351 1.74-4.286 3.845-4.286 2.13 0 3.87 1.935 3.87 4.285 0 2.376-1.74 4.31-3.87 4.31zm0-6.515c-.76 0-1.739.784-1.739 2.204 0 1.446.98 2.229 1.739 2.229.784 0 1.763-.783 1.763-2.229 0-1.42-.98-2.204-1.763-2.204z"/></g><g><path class="st3" d="M952.528 720.033h-3.72v15.176c0 1.064-.815 1.597-1.549 1.597-.706 0-1.549-.533-1.549-1.597v-15.176h-3.72c-1.005 0-1.548-.84-1.548-1.596 0-.727.543-1.568 1.548-1.568h10.538c1.032 0 1.549.841 1.549 1.568 0 .756-.517 1.596-1.55 1.596zM966.542 736.806c-.76 0-1.547-.533-1.547-1.597v-7.363c0-1.792-1.359-3.193-3.097-3.193s-3.096 1.4-3.096 3.193v7.307c0 1.12-.76 1.681-1.549 1.681-.76 0-1.547-.56-1.547-1.68v-16.716c0-1.037.788-1.569 1.547-1.569.788 0 1.55.532 1.55 1.568v3.865a6.115 6.115 0 013.095-.84c3.368 0 6.192 2.884 6.192 6.384v7.363c0 1.064-.76 1.597-1.548 1.597zM984.55 736.806c-1.086 0-1.982-.533-2.634-1.344-1.114 1.119-2.662 1.82-4.563 1.82-4.427 0-6.817-3.753-6.817-7.925 0-4.143 2.39-7.895 6.817-7.895 1.575 0 2.879.476 3.911 1.26.326-.533.87-.784 1.358-.784.87 0 1.548.671 1.548 1.595v9.492c0 .308.136.42.408.42.896 0 1.602.756 1.602 1.68 0 .925-.733 1.68-1.63 1.68zm-7.197-12.153c-2.118 0-3.72 1.653-3.72 4.704 0 3.08 1.602 4.733 3.72 4.733 2.145 0 3.72-1.652 3.72-4.733 0-3.051-1.575-4.704-3.72-4.704zM989.412 720.033c-1.277 0-2.309-1.063-2.309-2.38 0-1.315 1.032-2.38 2.309-2.38s2.335 1.065 2.335 2.38c0 1.317-1.06 2.38-2.335 2.38zm0 16.773c-.706 0-1.548-.533-1.548-1.597v-11.676c0-1.063.842-1.596 1.548-1.596s1.548.533 1.548 1.596v11.676c0 1.064-.842 1.597-1.548 1.597zM996.853 736.806c-1.494 0-2.743-1.288-2.743-2.8v-15.568c0-1.037.788-1.569 1.575-1.569.76 0 1.521.532 1.521 1.568v15.205c.788.168 1.195.868 1.195 1.567 0 .812-.543 1.597-1.548 1.597zM1013.937 736.806c-1.087 0-1.983-.533-2.635-1.344-1.114 1.119-2.662 1.82-4.563 1.82-4.427 0-6.818-3.753-6.818-7.925 0-4.143 2.39-7.895 6.818-7.895 1.575 0 2.879.476 3.91 1.26.327-.533.87-.784 1.36-.784.868 0 1.547.671 1.547 1.595v9.492c0 .308.136.42.407.42.897 0 1.603.756 1.603 1.68 0 .925-.734 1.68-1.63 1.68zm-7.198-12.153c-2.118 0-3.721 1.653-3.721 4.704 0 3.08 1.603 4.733 3.72 4.733 2.146 0 3.722-1.652 3.722-4.733 0-3.051-1.576-4.704-3.721-4.704zM1028.087 736.806c-.76 0-1.548-.533-1.548-1.597v-7.363c0-1.792-1.358-3.193-3.096-3.193s-3.096 1.4-3.096 3.193v7.307c0 1.12-.76 1.681-1.549 1.681-.76 0-1.548-.56-1.548-1.68v-11.62c0-1.037.815-1.597 1.603-1.597.435 0 .87.197 1.195.56 1.005-.7 2.173-1.035 3.395-1.035 3.368 0 6.192 2.884 6.192 6.384v7.363c0 1.064-.76 1.597-1.548 1.597zM1044.139 736.806c-.543 0-1.06-.252-1.331-.756-1.222.784-2.39 1.231-3.911 1.231-4.373 0-6.818-3.668-6.818-7.924 0-4.227 2.445-7.895 6.818-7.895 1.467 0 2.69.363 3.722 1.12v-4.144c0-1.037.76-1.569 1.547-1.569.788 0 1.548.532 1.548 1.569v16.771c0 1.064-.814 1.597-1.575 1.597zm-5.242-12.153c-2.118 0-3.72 1.653-3.72 4.704 0 3.08 1.602 4.733 3.72 4.733 2.145 0 3.722-1.652 3.722-4.733 0-3.051-1.577-4.704-3.722-4.704z"/><path class="st5" d="M957.318 757.128c.3-.055.437.068.41.37v2.173c0 .3-.137.437-.41.41h-13.412c-.301.027-.438-.11-.41-.41v-2.174c-.028-.3.109-.424.41-.37h13.412v-.04.04zM964.888 766.48c.219 2.953 1.86 4.498 4.922 4.634 1.422 0 2.584-.465 3.486-1.394.875-.93 1.326-2.229 1.354-3.897v-3.732c0-1.477-.397-2.68-1.19-3.61-.82-.957-1.968-1.449-3.445-1.476-1.777.055-3.13.52-4.06 1.394-.137.192-.315.26-.534.206h-2.01c-.3.054-.423-.069-.369-.37v-14.068c-.054-.3.069-.424.37-.37h12.796c.301-.054.424.07.37.37v2.092c.054.3-.069.437-.37.41h-10.007c-.274-.055-.397.068-.37.37v8.12c0 .246.124.301.37.164 1.093-.601 2.447-.916 4.06-.943 2.215.027 3.992.725 5.332 2.092 1.367 1.367 2.065 3.24 2.092 5.619v3.732c-.055 2.461-.834 4.416-2.338 5.865s-3.39 2.202-5.66 2.256c-2.297-.054-4.129-.779-5.496-2.173-1.395-1.395-2.147-3.2-2.256-5.415-.055-.273.068-.396.37-.369h2.132c.3-.027.451.137.451.492v-.04.04zM994.032 763.28c-.028.301.095.438.369.41h2.502c.3-.054.424.069.369.37v2.01c.055.3-.068.437-.37.41h-2.501c-.274-.055-.397.068-.37.369v5.906c.055.355-.068.506-.368.451h-2.092c-.274.055-.397-.096-.37-.451v-5.906c.055-.301-.068-.424-.369-.37h-9.515c-.274.028-.397-.109-.37-.41v-2.584l.165-.697 8.736-18.744c.082-.219.274-.328.574-.328h3.24c.301-.028.424.11.37.41v19.154-.04.04zm-10.295 0c-.164.301-.082.438.246.41h6.85c.3.028.423-.109.369-.41v-15.34c-.055-.328-.164-.355-.329-.082l-7.136 15.422zM1003.118 751.379c-2.131 0-3.87-1.935-3.87-4.31s1.739-4.287 3.87-4.287c2.105 0 3.844 1.91 3.844 4.286s-1.739 4.31-3.844 4.31zm0-6.515c-.785 0-1.764.784-1.764 2.204 0 1.421.98 2.204 1.764 2.204.783 0 1.762-.783 1.762-2.204 0-1.42-.98-2.204-1.762-2.204zm10.212-1.2l-4.506 16.213c-.123.539-.54.783-.955.783-.564 0-1.103-.391-1.103-1.028 0-.073 0-.195.024-.294l4.532-16.237a1 1 0 01.98-.76c.514 0 1.076.368 1.076.98 0 .122-.024.221-.048.343zm3.477 16.556c-2.105 0-3.845-1.935-3.845-4.31 0-2.351 1.74-4.286 3.845-4.286 2.13 0 3.87 1.935 3.87 4.285 0 2.376-1.74 4.31-3.87 4.31zm0-6.515c-.759 0-1.738.784-1.738 2.204 0 1.445.98 2.229 1.738 2.229.784 0 1.764-.784 1.764-2.229 0-1.42-.98-2.204-1.764-2.204z"/></g><g><path class="st3" d="M922.206 814.623c-1.983 0-4.59-.755-6.166-2.21-.38-.337-.542-.758-.542-1.15 0-.84.76-1.623 1.602-1.623.435 0 .598.112 1.086.475.733.59 2.173 1.317 4.02 1.317 2.933 0 3.884-.98 3.884-2.688 0-5.013-10.185-2.128-10.185-9.688 0-3.416 2.743-5.348 6.383-5.348 1.982 0 6.328 1.063 6.328 3.248 0 .84-.761 1.596-1.576 1.596-.38 0-.706-.168-1.06-.448-1.085-.896-2.335-1.205-3.692-1.205-2.69 0-3.287 1.149-3.287 2.157 0 4.396 10.185 1.82 10.185 9.688 0 4.48-3.477 5.88-6.98 5.88zM933.857 814.147c-1.494 0-2.743-1.288-2.743-2.8V795.78c0-1.035.788-1.567 1.575-1.567.76 0 1.521.532 1.521 1.567v15.204c.787.168 1.195.869 1.195 1.569 0 .811-.543 1.595-1.548 1.595zM943.744 814.623c-4.373 0-6.818-3.667-6.818-7.923 0-4.228 2.445-7.896 6.818-7.896s6.817 3.668 6.817 7.896c0 4.256-2.444 7.923-6.817 7.923zm0-12.627c-2.119 0-3.721 1.651-3.721 4.704 0 3.08 1.602 4.732 3.72 4.732 2.146 0 3.722-1.653 3.722-4.732 0-3.053-1.576-4.704-3.721-4.704zM964.114 801.464l-4.564 11.395c-.352.869-.842 1.288-1.52 1.288-.706 0-1.223-.42-1.548-1.288l-4.591-11.395c-.081-.224-.136-.448-.136-.616 0-.924.816-1.569 1.63-1.569.543 0 1.113.28 1.385.98l3.26 8.12 3.205-8.12c.299-.7.869-.98 1.412-.98.788 0 1.602.645 1.602 1.569 0 .168-.027.392-.135.616zM979.46 814.147c-1.087 0-1.984-.532-2.635-1.343-1.115 1.12-2.662 1.82-4.564 1.82-4.427 0-6.817-3.752-6.817-7.924 0-4.144 2.39-7.896 6.817-7.896 1.575 0 2.88.475 3.911 1.26a1.61 1.61 0 011.359-.785c.869 0 1.548.673 1.548 1.597v9.492c0 .308.135.42.407.42.896 0 1.602.756 1.602 1.68s-.733 1.68-1.629 1.68zm-7.199-12.15c-2.118 0-3.72 1.65-3.72 4.703 0 3.08 1.602 4.732 3.72 4.732 2.146 0 3.722-1.653 3.722-4.732 0-3.053-1.576-4.704-3.722-4.704zM992.468 814.147c-.434 0-.924-.223-1.276-.727l-3.45-5.572-1.873 1.931v2.773c0 1.063-.843 1.595-1.55 1.595s-1.547-.532-1.547-1.595v-16.773c0-1.035.842-1.567 1.548-1.567s1.549.532 1.549 1.567v9.492l5.35-5.515c.353-.364.734-.477 1.086-.477.842 0 1.575.757 1.575 1.624 0 .393-.108.757-.462 1.12l-3.421 3.529 3.802 6.132c.19.336.272.616.272.896 0 .867-.788 1.567-1.603 1.567zM997.547 797.376c-1.276 0-2.308-1.064-2.308-2.38 0-1.316 1.032-2.38 2.308-2.38s2.336 1.064 2.336 2.38c0 1.316-1.06 2.38-2.336 2.38zm0 16.771c-.706 0-1.548-.532-1.548-1.595v-11.676c0-1.064.842-1.597 1.548-1.597s1.55.533 1.55 1.597v11.676c0 1.063-.844 1.595-1.55 1.595zM1015.8 814.147c-1.088 0-1.984-.532-2.636-1.343-1.114 1.12-2.662 1.82-4.563 1.82-4.427 0-6.817-3.752-6.817-7.924 0-4.144 2.39-7.896 6.817-7.896 1.575 0 2.879.475 3.911 1.26a1.61 1.61 0 011.359-.785c.869 0 1.547.673 1.547 1.597v9.492c0 .308.136.42.408.42.896 0 1.602.756 1.602 1.68s-.733 1.68-1.629 1.68zm-7.199-12.15c-2.118 0-3.72 1.65-3.72 4.703 0 3.08 1.602 4.732 3.72 4.732 2.146 0 3.722-1.653 3.722-4.732 0-3.053-1.576-4.704-3.722-4.704z"/><path class="st5" d="M930.54 834.47c.3-.055.437.068.41.369v2.174c0 .3-.137.437-.41.41h-13.413c-.3.027-.437-.11-.41-.41v-2.174c-.027-.3.11-.424.41-.37h13.412v-.04.04zM938.11 835.126c.027.3.15.355.369.164.875-1.176 2.53-1.873 4.963-2.092 2.433.055 4.361.916 5.783 2.584s2.147 3.787 2.174 6.358c-.027 2.515-.78 4.662-2.256 6.44-1.45 1.776-3.432 2.706-5.947 2.788-2.516-.082-4.498-.998-5.948-2.748s-2.187-3.951-2.214-6.603v-12.88c.027-2.46.765-4.511 2.214-6.152 1.45-1.668 3.46-2.529 6.03-2.584 2.078.028 3.842.63 5.29 1.805 1.45 1.203 2.325 2.816 2.626 4.84.054.246-.082.369-.41.369h-2.42c-.274 0-.41-.164-.41-.492a5.373 5.373 0 00-1.436-2.543c-.711-.684-1.805-1.04-3.281-1.067-1.614.028-2.871.575-3.774 1.641-.902 1.094-1.353 2.488-1.353 4.184v5.988zm0 7.096c0 1.804.437 3.28 1.312 4.43.875 1.175 2.133 1.79 3.774 1.845 1.64-.055 2.898-.67 3.773-1.846.848-1.175 1.285-2.68 1.313-4.511-.028-1.805-.451-3.268-1.272-4.389-.847-1.121-2.092-1.695-3.732-1.723-3.418.22-5.14 2.284-5.168 6.194v-.041.04zM957.738 847.185c-.028.273.095.396.369.369h11.976c.301-.055.424.068.37.369v2.215c.054.3-.069.437-.37.41h-15.052c-.301.027-.424-.11-.37-.41v-2.256c.137-3.692 1.204-6.494 3.2-8.408s3.978-3.637 5.947-5.168c1.996-1.504 3.076-3.473 3.24-5.907-.027-1.476-.437-2.68-1.23-3.609-.793-.957-1.9-1.45-3.322-1.477-1.559.028-2.762.547-3.61 1.56s-1.299 2.241-1.353 3.69c.027.383-.123.547-.452.493h-2.214c-.301.054-.424-.069-.37-.37.11-2.242.89-4.17 2.338-5.783 1.422-1.613 3.323-2.447 5.702-2.502 2.214.028 4.033.78 5.455 2.256 1.422 1.45 2.16 3.323 2.214 5.62-.164 2.98-1.23 5.29-3.199 6.931l-5.947 4.963c-1.996 1.64-3.104 3.978-3.322 7.014v-.041.04zM976.338 828.72c-2.13 0-3.87-1.934-3.87-4.31s1.74-4.286 3.87-4.286c2.106 0 3.845 1.91 3.845 4.286s-1.74 4.31-3.845 4.31zm0-6.514c-.784 0-1.763.784-1.763 2.204 0 1.421.98 2.204 1.763 2.204.784 0 1.763-.783 1.763-2.204 0-1.42-.98-2.204-1.763-2.204zm10.212-1.2l-4.506 16.213c-.123.539-.539.783-.955.783-.563 0-1.102-.392-1.102-1.028 0-.074 0-.196.024-.294l4.531-16.238a1 1 0 01.98-.758c.515 0 1.077.367 1.077.98 0 .121-.024.22-.049.342zm3.478 16.556c-2.106 0-3.845-1.935-3.845-4.311 0-2.35 1.74-4.285 3.845-4.285 2.13 0 3.87 1.934 3.87 4.285 0 2.376-1.74 4.31-3.87 4.31zm0-6.515c-.759 0-1.739.784-1.739 2.204 0 1.445.98 2.229 1.739 2.229.784 0 1.763-.784 1.763-2.229 0-1.42-.98-2.204-1.763-2.204z"/></g></g><g id="credits"><g opacity=".5"><path class="st3" d="M42.328 1046.045c-3.568 0-5.47-1.969-5.503-2.002 0 .935-.701 1.401-1.468 1.401-.7 0-1.401-.466-1.401-1.401v-20.88c0-.968.701-1.434 1.401-1.434.767 0 1.468.466 1.468 1.4v6.238c1.334-1.368 3.168-2.169 5.503-2.169 5.371 0 8.373 4.404 8.373 9.406 0 5.038-3.002 9.44-8.373 9.44zm0-16.01c-3.335 0-5.503 2.6-5.503 6.57 0 4.002 2.168 6.604 5.503 6.604 3.336 0 5.504-2.602 5.504-6.605 0-3.968-2.168-6.57-5.504-6.57zM67.883 1038.072H55.542c.467 3.136 2.468 5.137 5.403 5.137 1.501 0 3.002-.533 3.969-1.734.3-.333.634-.534 1.034-.534.735 0 1.501.667 1.501 1.468 0 .4-.1.7-.8 1.4-1.5 1.468-3.569 2.236-5.704 2.236-5.37 0-8.372-4.437-8.372-9.44 0-4.97 3.002-9.407 8.372-9.407 5.437 0 8.34 4.437 8.34 9.406 0 .735-.535 1.468-1.402 1.468zm-6.938-8.038c-3.136 0-4.97 2.301-5.403 5.17h10.807c-.467-3.202-2.468-5.17-5.404-5.17zM87.999 1045.478c-1.834 0-2.668-1.301-2.969-1.902-1.334 1.468-3.268 2.469-5.87 2.469-5.437 0-8.372-4.47-8.372-9.44s3.002-9.407 8.372-9.407c2.335 0 4.203.834 5.504 2.202v-.133c0-.368.133-1.501 1.4-1.501.7 0 1.468.367 1.468 1.401v12.875c0 .434.3.6.467.6.934 0 1.434.668 1.434 1.434 0 .701-.5 1.402-1.434 1.402zm-8.839-15.444c-3.336 0-5.504 2.602-5.504 6.57 0 4.003 2.168 6.605 5.504 6.605 3.37 0 5.504-2.602 5.504-6.605 0-3.968-2.135-6.57-5.504-6.57zM104.714 1045.51c-.633 0-1.267-.366-1.4-1.1-1.335 1.034-2.97 1.668-4.804 1.668-4.136 0-7.605-3.435-7.605-7.605v-9.24c0-.933.7-1.434 1.4-1.434.768 0 1.468.5 1.468 1.401v9.273c0 2.601 2.168 4.77 4.737 4.77 2.602 0 4.77-2.169 4.77-4.77v-9.24c0-1.034.667-1.467 1.4-1.467.768 0 1.435.5 1.435 1.434v14.91c0 .934-.667 1.4-1.401 1.4zM115.158 1045.478h-.567c-3.17 0-4.37-1.668-4.37-4.404v-10.473h-1c-.801 0-1.435-.634-1.435-1.4 0-.802.634-1.435 1.401-1.435h1v-4.637c0-.934.702-1.4 1.435-1.4.734 0 1.401.466 1.401 1.4v4.637h2.135c.934 0 1.4.767 1.4 1.401 0 .8-.533 1.434-1.4 1.434h-2.135v10.774c0 .934.333 1.268 1.268 1.268h.833c.868 0 1.435.633 1.435 1.4 0 .8-.534 1.435-1.4 1.435zM119.762 1025.063c-1.334 0-2.402-1.067-2.402-2.4s1.068-2.402 2.402-2.402c1.335 0 2.402 1.067 2.402 2.401s-1.067 2.401-2.402 2.401zm0 20.415c-.734 0-1.467-.5-1.467-1.402V1029.2c0-.934.733-1.434 1.467-1.434.7 0 1.401.5 1.401 1.434v14.876c0 .935-.7 1.402-1.401 1.402zM130.138 1030.6h-1.501v13.443c0 .935-.702 1.401-1.468 1.401-.701 0-1.402-.466-1.402-1.401v-13.442H124.4c-.9 0-1.401-.667-1.401-1.4 0-.768.5-1.435 1.401-1.435h1.367v-2.269c0-2.135 1.769-3.768 3.836-3.768.968 0 1.468.667 1.468 1.433 0 .701-.5 1.401-1.468 1.401-.566 0-.966.434-.966.9v2.303h1.5c.967 0 1.468.667 1.468 1.434 0 .734-.5 1.4-1.467 1.4zM146.782 1045.51c-.633 0-1.266-.366-1.4-1.1-1.334 1.034-2.969 1.668-4.804 1.668-4.136 0-7.604-3.435-7.604-7.605v-9.24c0-.933.7-1.434 1.4-1.434.768 0 1.468.5 1.468 1.401v9.273c0 2.601 2.168 4.77 4.736 4.77 2.603 0 4.77-2.169 4.77-4.77v-9.24c0-1.034.668-1.467 1.4-1.467.769 0 1.436.5 1.436 1.434v14.91c0 .934-.667 1.4-1.402 1.4zM154.725 1045.544c-1.802 0-3.336-1.534-3.336-3.402v-18.98c0-.967.7-1.433 1.434-1.433s1.435.466 1.435 1.4v19.013c0 .4.3.567.467.567.933 0 1.434.667 1.434 1.435 0 .733-.5 1.4-1.434 1.4zM170.094 1045.478v-1.264c1.885-.237 2.046-.438 2.046-3.157v-6.69c0-2.8-1.248-4.017-3.065-4.017-1.237 0-2.345.59-3.47 1.493v9.475c0 2.528.187 2.659 2.06 2.896v1.264h-8.968v-1.264c2.254-.33 2.491-.41 2.491-3v-8.21c0-2.446-.302-2.566-2.184-2.922v-1.184c2.173-.292 4.629-.806 6.653-1.533a97.26 97.26 0 00-.052 2.95c.792-.555 1.638-1.15 2.591-1.746 1.16-.713 2.01-1.086 3.16-1.086 3.194 0 5.2 2.338 5.2 6.309v7.501c0 2.539.238 2.657 2.278 2.92v1.265h-8.74zM194.004 1041.775c-2.458 3.427-5.488 4.178-7.014 4.178-5.141 0-8.124-3.935-8.124-8.594 0-2.745 1.183-5.395 2.832-7.061 1.741-1.81 3.945-2.815 6.082-2.815 3.73 0 6.396 3.126 6.37 6.347-.013.715-.08 1.277-.612 1.41-.767.184-6.17.49-10.318.648.061 4.587 2.716 6.74 5.555 6.74 1.573 0 3.104-.597 4.543-1.866l.686 1.013zm-7.071-12.709c-1.667 0-3.167 1.807-3.516 4.963 1.832-.025 3.587-.05 5.486-.118.61-.026.848-.146.848-.792.04-2.022-1.037-4.053-2.818-4.053zM221.218 1029.209c-1.944.343-2.248.624-3.106 2.765-1.329 3.462-3.101 8.53-4.933 13.94h-1.512c-1.507-3.879-3.156-7.792-4.65-11.46-1.492 3.67-3.068 7.5-4.55 11.46h-1.471c-1.53-4.817-3.163-9.646-4.685-14.193-.686-1.986-.94-2.275-2.855-2.512v-1.25h9.397v1.25c-2.325.345-2.535.672-2.057 2.133a478.245 478.245 0 002.52 8.214c1.506-3.68 2.988-7.62 4.326-11.424h1.457c1.388 3.759 2.986 7.702 4.573 11.568.742-2.107 2.061-5.964 2.556-8.108.413-1.674-.007-2.078-2.753-2.383v-1.25h7.743v1.25zM230.628 1032.956c-.92-2.606-2.155-3.984-4.211-3.984-1.206 0-2.225.861-2.225 2.265 0 1.497 1.046 2.264 3.161 3.216 3.279 1.496 5.29 2.787 5.29 5.736 0 3.851-3.61 5.764-6.945 5.764-2.06 0-4.088-.737-4.92-1.161a91.484 91.484 0 01-.662-4.892l1.252-.223c.79 2.509 2.331 4.749 4.976 4.749 1.505 0 2.437-.952 2.437-2.281 0-1.423-.76-2.333-3.092-3.467-2.669-1.295-5.107-2.64-5.107-5.776 0-3.046 2.533-5.419 6.565-5.419 1.819 0 3.243.397 4.113.568.118 1.027.447 3.549.619 4.577l-1.251.328z"/></g><g opacity=".75"><path class="st3" d="M875.44 1046.357c-1.2 0-3.22-.42-3.921-1.58-.08-.119-.08-.218-.08-.298 0-.32.28-.602.58-.602.12 0 .32.102.44.281.72.88 2 1.06 2.98 1.06 1.941 0 2.922-.64 2.922-1.94 0-3.022-6.562-1.42-6.562-5.423 0-2.02 2.02-2.798 3.841-2.798 1.04 0 2.64.359 3.44 1.16.12.119.18.26.18.379 0 .3-.3.6-.62.6-.12 0-.26-.04-.38-.16-.62-.6-1.74-.84-2.62-.84-1.76 0-2.701.68-2.701 1.66 0 2.8 6.561 1.32 6.561 5.421 0 2.282-2 3.08-4.06 3.08zM886.16 1046.318c-3.22 0-5.02-2.64-5.02-5.662 0-3 1.8-5.64 5.02-5.64 3.22 0 5.021 2.64 5.021 5.64 0 3.022-1.8 5.662-5.02 5.662zm0-10.162c-2.36 0-3.88 1.9-3.88 4.5 0 2.602 1.52 4.522 3.88 4.522 2.38 0 3.88-1.92 3.88-4.522 0-2.6-1.5-4.5-3.88-4.5zM901.94 1045.979c-.28 0-.58-.202-.58-.561v-.64c-.84.98-2.06 1.54-3.42 1.54-2.48 0-4.56-2.08-4.56-4.56v-5.842c0-.36.3-.56.58-.56.26 0 .559.2.559.56v5.842c0 1.9 1.52 3.42 3.42 3.42s3.422-1.52 3.422-3.42v-5.842c0-.36.3-.56.58-.56.26 0 .56.2.56.56v9.502c0 .36-.3.56-.56.56zM909.9 1036.336c-1.881 0-3.421 1.52-3.421 3.42v5.662c0 .36-.3.56-.56.56-.28 0-.58-.2-.58-.56v-9.502c0-.36.3-.56.58-.56.26 0 .56.2.56.56v.82c.9-.98 2.08-1.54 3.42-1.54.36 0 .58.3.58.56 0 .28-.22.58-.58.58zM920.08 1044.797c-.88.98-2.101 1.521-3.58 1.521-3.221 0-5.022-2.64-5.022-5.662 0-3 1.8-5.64 5.021-5.64 1.48 0 2.7.54 3.58 1.52.12.12.16.26.16.38 0 .3-.28.6-.58.6-.139 0-.28-.059-.42-.2-.66-.74-1.58-1.16-2.74-1.16-2.36 0-3.88 1.9-3.88 4.5 0 2.602 1.52 4.522 3.88 4.522 1.16 0 2.08-.44 2.74-1.16.14-.141.281-.2.42-.2.3 0 .58.26.58.58a.57.57 0 01-.16.399zM931.66 1041.236h-8.301c.18 2.282 1.66 3.942 3.84 3.942 1.08 0 2.361-.48 2.941-1.381.14-.219.3-.28.48-.28.3 0 .62.24.62.542 0 .18 0 .218-.38.658-.92 1.082-2.26 1.601-3.66 1.601-3.221 0-5.022-2.64-5.022-5.662 0-3 1.8-5.64 5.022-5.64 3.22 0 5.02 2.66 5.02 5.64 0 .301-.28.58-.56.58zm-4.46-5.08c-2.402 0-3.661 1.84-3.841 3.942h7.701c-.18-2.282-1.66-3.942-3.86-3.942zM935.638 1039.416c-.64 0-1.16-.5-1.16-1.139 0-.64.52-1.14 1.16-1.14.62 0 1.12.5 1.12 1.14 0 .639-.5 1.139-1.12 1.139zm0 6.563c-.64 0-1.16-.5-1.16-1.141s.52-1.14 1.16-1.14c.62 0 1.12.5 1.12 1.14s-.5 1.14-1.12 1.14zM958.72 1032.455l-3.52 13.104c-.08.279-.3.42-.56.42-.24 0-.48-.141-.54-.42l-3-11.084-2.981 11.084c-.061.279-.301.42-.54.42-.261 0-.48-.141-.561-.42l-3.52-13.104c-.021-.06-.021-.12-.021-.18 0-.34.28-.58.58-.58.26 0 .46.14.52.44l3.002 11.082 2.98-11.082c.08-.28.3-.4.54-.4.26 0 .48.12.56.4l2.981 11.082 3-11.082c.08-.3.28-.44.52-.44.3 0 .58.24.58.58 0 .06 0 .12-.02.18zM965.239 1046.318c-3.221 0-5.022-2.64-5.022-5.662 0-3 1.801-5.64 5.022-5.64 3.22 0 5.02 2.64 5.02 5.64 0 3.022-1.8 5.662-5.02 5.662zm0-10.162c-2.362 0-3.881 1.9-3.881 4.5 0 2.602 1.52 4.522 3.88 4.522 2.38 0 3.88-1.92 3.88-4.522 0-2.6-1.5-4.5-3.88-4.5zM977.199 1036.336c-1.881 0-3.421 1.52-3.421 3.42v5.662c0 .36-.301.56-.56.56-.281 0-.58-.2-.58-.56v-9.502c0-.36.299-.56.58-.56.259 0 .56.2.56.56v.82c.9-.98 2.08-1.54 3.42-1.54.36 0 .58.3.58.56 0 .28-.22.58-.58.58zM981.217 1046.098c-1.08 0-1.98-1-1.98-2.12v-11.683c0-.36.3-.56.58-.56.26 0 .56.2.56.56v11.684c0 1.279 1.42.539 1.42 1.439 0 .34-.24.68-.58.68zM992.64 1045.979c-.281 0-.582-.202-.582-.561v-1c-.84 1.18-2.14 1.9-3.88 1.9-3.22 0-5.021-2.64-5.021-5.662 0-3 1.8-5.64 5.021-5.64 1.74 0 3.04.72 3.88 1.88v-4.601c0-.36.3-.56.581-.56.26 0 .56.2.56.56v13.123c0 .36-.3.56-.56.56zm-4.462-9.823c-2.361 0-3.88 1.9-3.88 4.5 0 2.602 1.519 4.522 3.88 4.522 2.38 0 3.88-1.92 3.88-4.522 0-2.6-1.5-4.5-3.88-4.5zM1007.318 1045.979h-5.802c-.3 0-.58-.282-.58-.561v-13.123c0-.34.18-.56.52-.56h5.421c1.98 0 3.601 1.64 3.601 3.56 0 1.182-.52 2.201-1.42 2.861a4.06 4.06 0 012.38 3.721 4.098 4.098 0 01-4.12 4.102zm-.44-13.124h-4.801v4.92h4.8c1.62 0 2.461-1.44 2.461-2.44 0-1.38-1.12-2.48-2.46-2.48zm.44 6.061h-5.241v5.922h5.24c1.64 0 2.981-1.32 2.981-2.961s-1.34-2.961-2.98-2.961zM1024.258 1045.979h-.02c-.66 0-1.6-.362-1.98-1.561-.84 1.18-2.14 1.9-3.88 1.9-3.261 0-5.022-2.681-5.022-5.662 0-3.02 1.8-5.64 5.021-5.64 1.74 0 3.04.72 3.88 1.88v-.98c0-.32.261-.56.581-.56.28 0 .56.2.56.56v8.063c0 1.279 1.44.478 1.44 1.439 0 .26-.18.56-.58.56zm-5.88-9.823c-2.362 0-3.881 1.9-3.881 4.5 0 2.602 1.52 4.522 3.88 4.522 2.38 0 3.88-1.92 3.88-4.522 0-2.6-1.5-4.5-3.88-4.5zM1035.217 1045.979c-.28 0-.58-.202-.58-.561v-5.842c0-1.9-1.52-3.42-3.42-3.42-1.88 0-3.42 1.52-3.42 3.42v5.842c0 .36-.302.56-.561.56-.28 0-.58-.2-.58-.56v-9.502c0-.36.3-.56.58-.56.26 0 .56.2.56.56v.64c.9-.98 2.08-1.54 3.421-1.54 2.48 0 4.56 2.06 4.56 4.56v5.842c0 .36-.3.56-.56.56zM1045.917 1036.336l-3.44 3.441 3.4 5.32c.06.08.12.202.12.321 0 .28-.3.541-.6.541-.18 0-.36-.08-.48-.262l-3.28-5.1-2.06 2.08v2.741c0 .36-.301.56-.561.56-.28 0-.58-.2-.58-.56v-13.123c0-.36.3-.56.58-.56.26 0 .56.2.56.56v8.762l5.521-5.522c.14-.139.28-.18.421-.18.32 0 .58.26.58.561 0 .14-.04.28-.18.42z"/></g></g><g id="title"><path class="st3" d="M61.059 80c-1.32 0-2.64-.9-2.64-2.52V59.661h-19.8v17.82c0 1.62-1.38 2.52-2.52 2.52-1.32 0-2.64-.9-2.64-2.52V39.801c0-1.68 1.32-2.52 2.64-2.52 1.14 0 2.52.84 2.52 2.52v14.76h19.8v-14.7c0-1.74 1.38-2.58 2.52-2.58 1.32 0 2.64.84 2.64 2.58V77.42c0 1.68-1.38 2.58-2.52 2.58zM81.579 81.02c-9.66 0-15.06-7.92-15.06-16.979 0-9 5.4-16.92 15.06-16.92s15.06 7.92 15.06 16.92c0 9.06-5.4 16.98-15.06 16.98zm0-28.798c-6 0-9.9 4.68-9.9 11.819 0 7.2 3.9 11.88 9.9 11.88 6.06 0 9.9-4.68 9.9-11.88 0-7.14-3.84-11.82-9.9-11.82zM138.937 80c-1.26 0-2.52-.9-2.52-2.52V58.582c0-3.48-2.88-6.36-6.3-6.36-3.54 0-6.36 2.88-6.36 6.3V77.42c0 1.68-1.2 2.58-2.58 2.58-1.32 0-2.52-.9-2.52-2.52V58.582c0-3.48-2.88-6.36-6.359-6.36-3.48 0-6.36 2.88-6.36 6.3V77.42c0 1.68-1.26 2.58-2.64 2.58-1.26 0-2.52-.9-2.52-2.52V50.662c0-1.74 1.32-2.58 2.64-2.58.84 0 1.68.36 2.16 1.14 1.86-1.32 4.2-2.1 6.66-2.1 3.6 0 6.84 1.62 8.94 4.26 2.1-2.64 5.28-4.26 8.88-4.26 6.359 0 11.52 5.1 11.52 11.4V77.42c0 1.68-1.261 2.58-2.641 2.58zM149.318 43.282c-2.4 0-4.32-1.92-4.32-4.32 0-2.4 1.92-4.32 4.32-4.32s4.32 1.92 4.32 4.32c0 2.4-1.92 4.32-4.32 4.32zm0 36.718c-1.32 0-2.64-.9-2.64-2.52V50.722c0-1.68 1.32-2.58 2.64-2.58 1.26 0 2.52.9 2.52 2.58V77.48c0 1.68-1.26 2.52-2.52 2.52zM182.017 76.46c-2.64 2.94-6.3 4.56-10.74 4.56-9.66 0-15.06-7.92-15.06-16.979 0-9 5.4-16.92 15.06-16.92 4.44 0 8.1 1.62 10.74 4.56.48.54.72 1.14.72 1.74 0 1.32-1.32 2.58-2.7 2.58-.54 0-1.2-.24-1.86-.84-1.68-1.86-3.9-2.94-6.9-2.94-6 0-9.9 4.68-9.9 11.82 0 7.2 3.9 11.88 9.9 11.88 3 0 5.28-1.14 6.9-2.94.54-.66 1.26-.9 1.86-.9 1.38 0 2.7 1.2 2.7 2.64 0 .54-.24 1.2-.72 1.74zM188.976 43.282c-2.4 0-4.32-1.92-4.32-4.32 0-2.4 1.92-4.32 4.32-4.32s4.32 1.92 4.32 4.32c0 2.4-1.92 4.32-4.32 4.32zm0 36.718c-1.32 0-2.64-.9-2.64-2.52V50.722c0-1.68 1.32-2.58 2.64-2.58 1.26 0 2.52.9 2.52 2.58V77.48c0 1.68-1.26 2.52-2.52 2.52zM223.414 79.94c-1.32 0-2.58-.84-2.58-2.52 0 0-3.54 3.6-9.9 3.6-9.66 0-15.06-7.92-15.06-16.979 0-9 5.4-16.92 15.06-16.92 4.2 0 7.56 1.441 9.9 3.9V39.862c0-1.74 1.26-2.58 2.58-2.58s2.58.84 2.58 2.52V77.42c0 1.68-1.26 2.52-2.58 2.52zm-12.48-27.718c-5.999 0-9.899 4.68-9.899 11.819 0 7.2 3.9 11.88 9.9 11.88 6.06 0 9.899-4.68 9.899-11.88 0-7.14-3.84-11.82-9.9-11.82zM257.674 66.681h-22.2c.84 5.64 4.44 9.24 9.72 9.24 2.7 0 5.4-.96 7.14-3.12.54-.6 1.14-.96 1.86-.96 1.32 0 2.7 1.2 2.7 2.64 0 .72-.18 1.26-1.44 2.52-2.7 2.64-6.42 4.02-10.26 4.02-9.66 0-15.06-7.98-15.06-16.98 0-8.94 5.4-16.92 15.06-16.92 9.78 0 15 7.98 15 16.92 0 1.32-.96 2.64-2.52 2.64zm-12.48-14.46c-5.64 0-8.94 4.14-9.72 9.3h19.44c-.84-5.76-4.44-9.3-9.72-9.3zM274.894 81.02c-3.3 0-8.82-1.02-11.64-4.5-.36-.54-.54-1.08-.54-1.56 0-1.5 1.44-2.7 2.7-2.7.72 0 1.26.36 1.86 1.02 1.86 2.04 4.92 2.64 7.62 2.64 5.4 0 7.14-1.86 7.14-4.56 0-7.679-18.3-2.94-18.3-15.298 0-6.54 6.12-8.94 11.82-8.94 3.24 0 10.86 1.62 10.86 4.98 0 1.32-1.08 2.7-2.52 2.7-.54 0-1.38-.3-1.98-.78-1.62-1.38-3.96-1.8-6.36-1.8-4.98 0-6.72 1.86-6.72 3.84 0 7.14 18.36 2.52 18.36 15.299 0 7.08-5.94 9.66-12.3 9.66zM331.052 80c-.9 0-1.8-.48-2.28-1.56l-3.18-7.799h-19.979l-3.24 7.8c-.48 1.08-1.38 1.56-2.22 1.56-1.32 0-2.7-1.02-2.7-2.52 0-.36.06-.72.24-1.02l15.42-37.499c.72-1.56 1.68-1.86 2.46-1.86.54 0 1.86.3 2.46 1.86l15.48 37.498c.119.3.179.66.179 1.02 0 1.5-1.26 2.52-2.64 2.52zm-15.48-33.598l-7.86 19.079h15.72l-7.86-19.08zM349.412 52.222c-4.62 0-8.52 3.9-8.52 8.58V77.42c0 1.68-1.26 2.58-2.64 2.58-1.26 0-2.52-.9-2.52-2.52V50.722c0-1.68 1.38-2.58 2.52-2.58 1.2 0 2.34.66 2.58 2.04 2.34-1.92 5.52-3.06 8.58-3.06 1.74 0 2.64 1.2 2.64 2.58 0 1.32-.9 2.52-2.64 2.52zM378.511 66.681h-22.2c.841 5.64 4.44 9.24 9.72 9.24 2.7 0 5.4-.96 7.14-3.12.54-.6 1.14-.96 1.86-.96 1.32 0 2.7 1.2 2.7 2.64 0 .72-.18 1.26-1.44 2.52-2.7 2.64-6.42 4.02-10.26 4.02-9.659 0-15.058-7.98-15.058-16.98 0-8.94 5.399-16.92 15.059-16.92 9.78 0 15 7.98 15 16.92 0 1.32-.96 2.64-2.52 2.64zm-12.48-14.46c-5.639 0-8.939 4.14-9.72 9.3h19.44c-.84-5.76-4.44-9.3-9.72-9.3zM421.41 42.382h-22.439v12.12h15.72c1.5 0 2.58 1.2 2.58 2.58s-1.02 2.58-2.58 2.58h-15.72V77.48c0 1.38-1.2 2.52-2.52 2.52-1.44 0-2.64-1.14-2.64-2.52V39.862c0-1.44 1.2-2.58 2.64-2.58h24.96c1.56 0 2.52 1.14 2.52 2.52 0 1.26-.9 2.58-2.52 2.58zM451.886 80c-3.3 0-4.8-2.34-5.34-3.42-2.4 2.64-5.88 4.44-10.56 4.44-9.779 0-15.06-8.039-15.06-16.979s5.4-16.92 15.06-16.92c4.2 0 7.56 1.5 9.9 3.96v-.24c0-.66.24-2.7 2.52-2.7 1.26 0 2.64.66 2.64 2.52v23.16c0 .78.54 1.08.84 1.08 1.68 0 2.58 1.2 2.58 2.58 0 1.26-.9 2.52-2.58 2.52zm-15.9-27.778c-6 0-9.9 4.68-9.9 11.819 0 7.2 3.9 11.88 9.9 11.88 6.06 0 9.9-4.68 9.9-11.88 0-7.14-3.84-11.82-9.9-11.82zM462.686 80.12c-3.24 0-6-2.76-6-6.12V39.862c0-1.74 1.26-2.58 2.58-2.58s2.58.84 2.58 2.52V74c0 .72.54 1.02.84 1.02 1.68 0 2.58 1.2 2.58 2.58 0 1.32-.9 2.52-2.58 2.52zM474.565 80.12c-3.24 0-6-2.76-6-6.12V39.862c0-1.74 1.26-2.58 2.58-2.58s2.58.84 2.58 2.52V74c0 .72.54 1.02.84 1.02 1.68 0 2.58 1.2 2.58 2.58 0 1.32-.9 2.52-2.58 2.52zM483.564 43.282c-2.4 0-4.32-1.92-4.32-4.32 0-2.4 1.92-4.32 4.32-4.32s4.32 1.92 4.32 4.32c0 2.4-1.92 4.32-4.32 4.32zm0 36.718c-1.32 0-2.64-.9-2.64-2.52V50.722c0-1.68 1.32-2.58 2.64-2.58 1.26 0 2.52.9 2.52 2.58V77.48c0 1.68-1.26 2.52-2.52 2.52zM515.423 80c-1.32 0-2.52-.9-2.52-2.52V60.801c0-4.68-3.9-8.58-8.58-8.58-4.62 0-8.52 3.9-8.52 8.58v16.62c0 1.68-1.26 2.64-2.64 2.64-1.26 0-2.519-.9-2.519-2.58V50.66c0-1.74 1.26-2.52 2.52-2.52 1.2 0 2.28.66 2.58 1.98 2.34-1.86 5.28-3 8.58-3 7.439 0 13.679 6.18 13.679 13.68v16.62c0 1.68-1.2 2.58-2.58 2.58zM536.664 93.68c-3.66 0-12.72-1.32-12.72-4.92 0-1.38 1.26-2.7 2.58-2.7 1.38 0 .18.18 3.36 1.38 1.44.54 3.6 1.14 6.78 1.14 6.66 0 9.9-3.18 9.9-9.48v-2.7c-2.34 2.22-5.7 3.6-9.9 3.6-9.48 0-15.06-6.72-15.06-15.959 0-9 5.4-16.92 15.06-16.92 4.2 0 7.44 1.26 9.9 3.84v-.24c0-1.68 1.38-2.58 2.58-2.58 1.26 0 2.579.9 2.579 2.58v28.38c0 9.54-5.7 14.58-15.059 14.58zm0-41.458c-6 0-9.9 4.68-9.9 11.819 0 6.84 3.6 10.86 9.9 10.86 6.299 0 9.9-4.02 9.9-10.86 0-7.14-3.84-11.82-9.9-11.82zM597.923 80c-.9 0-1.8-.48-2.28-1.56l-3.18-7.799h-19.98l-3.239 7.8c-.48 1.08-1.38 1.56-2.22 1.56-1.32 0-2.7-1.02-2.7-2.52 0-.36.06-.72.24-1.02l15.42-37.499c.72-1.56 1.679-1.86 2.46-1.86.54 0 1.86.3 2.46 1.86l15.479 37.498c.12.3.18.66.18 1.02 0 1.5-1.26 2.52-2.64 2.52zm-15.48-33.598l-7.86 19.079h15.72l-7.86-19.08zM616.283 52.222c-4.62 0-8.52 3.9-8.52 8.58V77.42c0 1.68-1.26 2.58-2.64 2.58-1.26 0-2.52-.9-2.52-2.52V50.722c0-1.68 1.38-2.58 2.52-2.58 1.2 0 2.34.66 2.58 2.04 2.34-1.92 5.52-3.06 8.58-3.06 1.74 0 2.64 1.2 2.64 2.58 0 1.32-.9 2.52-2.64 2.52zM633.083 81.02c-9.66 0-15.06-7.92-15.06-16.979 0-9 5.4-16.92 15.06-16.92s15.059 7.92 15.059 16.92c0 9.06-5.4 16.98-15.06 16.98zm0-28.798c-6 0-9.9 4.68-9.9 11.819 0 7.2 3.9 11.88 9.9 11.88 6.06 0 9.9-4.68 9.9-11.88 0-7.14-3.84-11.82-9.9-11.82zM675.38 80.06c-1.139 0-2.28-.66-2.519-1.98-2.4 1.86-5.34 3-8.64 3-7.44 0-13.68-6.18-13.68-13.68V50.783c0-1.68 1.26-2.58 2.52-2.58 1.38 0 2.64.9 2.64 2.52V67.4c0 4.68 3.9 8.58 8.52 8.58 4.68 0 8.58-3.9 8.58-8.58V50.78c0-1.86 1.2-2.64 2.52-2.64 1.38 0 2.58.9 2.58 2.58v26.82c0 1.68-1.2 2.52-2.52 2.52zM707.002 80c-1.32 0-2.52-.9-2.52-2.52V60.801c0-4.68-3.9-8.58-8.58-8.58-4.62 0-8.52 3.9-8.52 8.58v16.62c0 1.68-1.26 2.64-2.64 2.64-1.26 0-2.52-.9-2.52-2.58V50.66c0-1.74 1.26-2.52 2.52-2.52 1.2 0 2.28.66 2.58 1.98 2.34-1.86 5.28-3 8.58-3 7.44 0 13.679 6.18 13.679 13.68v16.62c0 1.68-1.2 2.58-2.58 2.58zM740.722 79.94c-1.32 0-2.58-.84-2.58-2.52 0 0-3.54 3.6-9.9 3.6-9.66 0-15.06-7.92-15.06-16.979 0-9 5.4-16.92 15.06-16.92 4.2 0 7.56 1.441 9.9 3.9V39.862c0-1.74 1.26-2.58 2.58-2.58 1.319 0 2.579.84 2.579 2.52V77.42c0 1.68-1.26 2.52-2.58 2.52zm-12.48-27.718c-6 0-9.9 4.68-9.9 11.819 0 7.2 3.9 11.88 9.9 11.88 6.06 0 9.9-4.68 9.9-11.88 0-7.14-3.84-11.82-9.9-11.82zM769.462 80h-1.02c-5.7 0-7.86-3-7.86-7.92V53.243h-1.8c-1.44 0-2.58-1.14-2.58-2.52 0-1.44 1.14-2.58 2.52-2.58h1.8v-8.34c0-1.68 1.26-2.52 2.58-2.52s2.52.84 2.52 2.52v8.34h3.84c1.68 0 2.52 1.38 2.52 2.52 0 1.44-.96 2.58-2.52 2.58h-3.84V72.62c0 1.68.6 2.28 2.28 2.28h1.5c1.56 0 2.58 1.14 2.58 2.52 0 1.44-.96 2.58-2.52 2.58zM799.16 80c-1.32 0-2.52-.9-2.52-2.52V60.801c0-4.68-3.899-8.58-8.579-8.58-4.62 0-8.52 3.9-8.52 8.58v16.62c0 1.68-1.26 2.64-2.64 2.64-1.26 0-2.52-.9-2.52-2.58V39.861c0-1.74 1.26-2.58 2.52-2.58 1.38 0 2.64.84 2.64 2.52v10.38c2.22-2.1 5.22-3.06 8.52-3.06 7.44 0 13.68 6.18 13.68 13.68V77.42c0 1.68-1.2 2.58-2.58 2.58zM832.88 66.681h-22.198c.84 5.64 4.439 9.24 9.72 9.24 2.699 0 5.399-.96 7.139-3.12.54-.6 1.14-.96 1.86-.96 1.32 0 2.7 1.2 2.7 2.64 0 .72-.18 1.26-1.44 2.52-2.7 2.64-6.42 4.02-10.26 4.02-9.66 0-15.06-7.98-15.06-16.98 0-8.94 5.4-16.92 15.06-16.92 9.78 0 15 7.98 15 16.92 0 1.32-.96 2.64-2.52 2.64zm-12.479-14.46c-5.64 0-8.94 4.14-9.72 9.3h19.44c-.84-5.76-4.44-9.3-9.72-9.3zM891.379 40.462l-9.9 37.438c-.3 1.44-1.08 2.1-2.46 2.1-1.26 0-2.16-.66-2.58-2.1l-8.1-28.738L860.3 77.9c-.42 1.44-1.259 2.1-2.519 2.1-1.32 0-2.16-.66-2.52-2.1l-9.9-37.438c-.06-.24-.12-.54-.12-.84 0-1.5 1.38-2.34 2.7-2.34 1.02 0 2.04.6 2.4 1.86l7.56 28.62 7.92-28.38c.42-1.44 1.26-2.1 2.52-2.1 1.32 0 2.16.66 2.58 2.1l7.919 28.38 7.56-28.62c.36-1.32 1.56-1.98 2.46-1.98 1.32 0 2.64.96 2.64 2.46 0 .3-.06.6-.12.84zM904.16 81.02c-9.66 0-15.06-7.92-15.06-16.979 0-9 5.4-16.92 15.06-16.92s15.059 7.92 15.059 16.92c0 9.06-5.4 16.98-15.059 16.98zm0-28.798c-6 0-9.9 4.68-9.9 11.819 0 7.2 3.9 11.88 9.9 11.88 6.06 0 9.9-4.68 9.9-11.88 0-7.14-3.84-11.82-9.9-11.82zM935.84 52.222c-4.62 0-8.52 3.9-8.52 8.58V77.42c0 1.68-1.26 2.58-2.64 2.58-1.26 0-2.52-.9-2.52-2.52V50.722c0-1.68 1.38-2.58 2.52-2.58 1.2 0 2.34.66 2.58 2.04 2.34-1.92 5.52-3.06 8.58-3.06 1.739 0 2.64 1.2 2.64 2.58 0 1.32-.901 2.52-2.64 2.52zM946.999 80.12c-3.24 0-6-2.76-6-6.12V39.862c0-1.74 1.26-2.58 2.58-2.58s2.58.84 2.58 2.52V74c0 .72.54 1.02.84 1.02 1.68 0 2.58 1.2 2.58 2.58 0 1.32-.9 2.52-2.58 2.52zM978.197 79.94c-1.32 0-2.58-.84-2.58-2.52 0 0-3.54 3.6-9.9 3.6-9.66 0-15.059-7.92-15.059-16.979 0-9 5.4-16.92 15.06-16.92 4.199 0 7.56 1.441 9.9 3.9V39.862c0-1.74 1.259-2.58 2.58-2.58 1.319 0 2.578.84 2.578 2.52V77.42c0 1.68-1.26 2.52-2.579 2.52zm-12.48-27.718c-6 0-9.9 4.68-9.9 11.819 0 7.2 3.9 11.88 9.9 11.88 6.06 0 9.9-4.68 9.9-11.88 0-7.14-3.84-11.82-9.9-11.82z"/><g><path class="st3" d="M39.547 114.285c-3.306 0-6.003-3.002-6.003-6.688s2.697-6.648 6.003-6.648c3.267 0 5.965 2.963 5.965 6.648s-2.698 6.688-5.965 6.688zm0-10.107c-1.216 0-2.736 1.216-2.736 3.42 0 2.203 1.52 3.42 2.736 3.42s2.735-1.217 2.735-3.42c0-2.204-1.52-3.42-2.735-3.42zm15.844-1.862l-6.992 25.152c-.19.836-.836 1.216-1.481 1.216-.874 0-1.71-.607-1.71-1.596 0-.113 0-.303.038-.456l7.028-25.19c.229-.797.874-1.178 1.52-1.178.799 0 1.673.57 1.673 1.52 0 .19-.038.342-.076.532zM60.785 128c-3.267 0-5.965-3.001-5.965-6.687 0-3.646 2.698-6.648 5.965-6.648 3.306 0 6.004 3.002 6.004 6.648 0 3.686-2.698 6.687-6.004 6.687zm0-10.106c-1.178 0-2.697 1.216-2.697 3.419 0 2.242 1.52 3.458 2.697 3.458 1.216 0 2.736-1.216 2.736-3.458 0-2.203-1.52-3.419-2.736-3.419zM95.67 127.962c-.836 0-1.634-.532-1.634-1.595 0 0-2.242 2.279-6.27 2.279-6.117 0-9.536-5.015-9.536-10.752 0-5.7 3.42-10.715 9.537-10.715 2.66 0 4.787.912 6.27 2.47v-7.066c0-1.103.797-1.634 1.633-1.634s1.634.531 1.634 1.595v23.823c0 1.063-.798 1.595-1.634 1.595zm-7.903-17.553c-3.8 0-6.269 2.964-6.269 7.485 0 4.56 2.469 7.522 6.269 7.522 3.837 0 6.27-2.962 6.27-7.522 0-4.521-2.433-7.485-6.27-7.485zM118.508 119.566h-14.059c.532 3.571 2.812 5.85 6.155 5.85 1.71 0 3.42-.607 4.522-1.975.342-.38.722-.607 1.178-.607.836 0 1.71.76 1.71 1.671 0 .456-.115.798-.913 1.596-1.71 1.672-4.065 2.545-6.497 2.545-6.117 0-9.536-5.053-9.536-10.752 0-5.661 3.42-10.715 9.536-10.715 6.194 0 9.5 5.054 9.5 10.715 0 .836-.609 1.672-1.596 1.672zm-7.904-9.157c-3.57 0-5.66 2.622-6.155 5.89h12.31c-.532-3.648-2.81-5.89-6.155-5.89zM138.913 125.76c-1.672 1.86-3.99 2.886-6.8 2.886-6.118 0-9.537-5.015-9.537-10.752 0-5.7 3.419-10.715 9.536-10.715 2.812 0 5.13 1.027 6.801 2.888.305.342.456.722.456 1.102 0 .835-.836 1.634-1.71 1.634-.342 0-.76-.152-1.178-.532-1.063-1.178-2.47-1.862-4.369-1.862-3.8 0-6.268 2.964-6.268 7.485 0 4.56 2.468 7.523 6.268 7.523 1.9 0 3.344-.722 4.37-1.862.341-.418.797-.57 1.177-.57.874 0 1.71.76 1.71 1.672 0 .342-.151.76-.456 1.102zM151.378 110.409c-2.926 0-5.396 2.47-5.396 5.433v10.525c0 1.063-.797 1.633-1.67 1.633-.798 0-1.597-.57-1.597-1.595v-16.946a1.61 1.61 0 011.596-1.633c.76 0 1.482.418 1.634 1.292 1.482-1.216 3.495-1.939 5.433-1.939 1.101 0 1.672.76 1.672 1.634 0 .836-.57 1.596-1.672 1.596zM170.18 119.566H156.12c.532 3.571 2.812 5.85 6.155 5.85 1.71 0 3.42-.607 4.522-1.975.342-.38.721-.607 1.178-.607.835 0 1.71.76 1.71 1.671 0 .456-.115.798-.913 1.596-1.71 1.672-4.065 2.545-6.497 2.545-6.117 0-9.536-5.053-9.536-10.752 0-5.661 3.42-10.715 9.536-10.715 6.194 0 9.5 5.054 9.5 10.715 0 .836-.61 1.672-1.596 1.672zm-7.904-9.157c-3.571 0-5.66 2.622-6.155 5.89h12.31c-.532-3.648-2.81-5.89-6.155-5.89zM193.853 128c-2.09 0-3.039-1.481-3.38-2.166-1.52 1.672-3.724 2.812-6.688 2.812-6.193 0-9.536-5.09-9.536-10.752s3.419-10.715 9.536-10.715c2.66 0 4.787.95 6.27 2.508v-.151c0-.418.151-1.71 1.595-1.71.798 0 1.672.418 1.672 1.595v14.666c0 .494.342.684.531.684 1.065 0 1.634.76 1.634 1.634 0 .798-.57 1.595-1.634 1.595zm-10.068-17.591c-3.8 0-6.268 2.964-6.268 7.485 0 4.56 2.468 7.522 6.268 7.522 3.838 0 6.27-2.962 6.27-7.522 0-4.521-2.432-7.485-6.27-7.485zM204.61 128.646c-2.09 0-5.586-.646-7.372-2.85-.227-.341-.342-.683-.342-.987 0-.95.913-1.71 1.71-1.71.456 0 .798.229 1.178.646 1.178 1.292 3.115 1.672 4.825 1.672 3.42 0 4.522-1.178 4.522-2.887 0-4.863-11.59-1.863-11.59-9.69 0-4.14 3.877-5.66 7.486-5.66 2.052 0 6.877 1.026 6.877 3.154 0 .835-.683 1.709-1.595 1.709-.342 0-.875-.19-1.254-.494-1.027-.874-2.508-1.14-4.028-1.14-3.153 0-4.256 1.177-4.256 2.431 0 4.522 11.627 1.596 11.627 9.69 0 4.482-3.761 6.116-7.789 6.116zM232.121 119.566h-14.059c.533 3.571 2.812 5.85 6.156 5.85 1.71 0 3.42-.607 4.521-1.975.342-.38.722-.607 1.178-.607.836 0 1.71.76 1.71 1.671 0 .456-.114.798-.912 1.596-1.71 1.672-4.066 2.545-6.497 2.545-6.117 0-9.536-5.053-9.536-10.752 0-5.661 3.419-10.715 9.536-10.715 6.193 0 9.499 5.054 9.499 10.715 0 .836-.609 1.672-1.596 1.672zm-7.903-9.157c-3.572 0-5.661 2.622-6.156 5.89h12.311c-.532-3.648-2.812-5.89-6.155-5.89z"/><path class="st9" d="M248.117 128c-.588 0-1.176-.448-1.176-1.175v-15.008l-2.24 2.183a1.084 1.084 0 01-.784.336c-.672 0-1.26-.616-1.26-1.231 0-.309.112-.589.364-.84l4.172-4.032c.336-.309.7-.448 1.036-.448.785 0 1.12.784 1.12 1.427v17.584c0 .756-.587 1.204-1.232 1.204zM258.03 128.476c-2.325 0-4.005-1.008-5.153-2.771-.195-.252-.28-.477-.28-.729 0-.643.616-1.147 1.26-1.147.336 0 .728.14.98.532.728 1.12 1.708 1.735 3.192 1.735 2.688 0 3.892-2.407 4.004-7.727-.924.895-2.38 1.595-4.004 1.595-3.332 0-5.992-2.912-5.992-6.187 0-3.305 2.66-6.216 5.992-6.216 5.908 0 6.384 6.048 6.384 10.443 0 5.237-1.148 10.472-6.384 10.472zm0-18.508c-1.905 0-3.613 1.708-3.613 3.809 0 2.071 1.708 3.78 3.612 3.78 1.96 0 3.584-1.652 3.668-3.864-.336-2.156-1.484-3.725-3.668-3.725zM272.252 128.476c-2.324 0-4.004-1.008-5.152-2.771-.196-.252-.28-.477-.28-.729 0-.643.615-1.147 1.26-1.147.336 0 .728.14.98.532.728 1.12 1.708 1.735 3.192 1.735 2.687 0 3.891-2.407 4.004-7.727-.924.895-2.38 1.595-4.004 1.595-3.332 0-5.992-2.912-5.992-6.187 0-3.305 2.66-6.216 5.992-6.216 5.908 0 6.384 6.048 6.384 10.443 0 5.237-1.149 10.472-6.384 10.472zm0-18.508c-1.904 0-3.612 1.708-3.612 3.809 0 2.071 1.708 3.78 3.612 3.78 1.96 0 3.584-1.652 3.668-3.864-.336-2.156-1.485-3.725-3.668-3.725zM287.063 128.28c-1.876 0-4.003-1.007-5.04-2.66a1.241 1.241 0 01-.196-.671c0-.645.56-1.149 1.204-1.149.532 0 .729.197 1.149.756.7.868 1.792 1.345 2.883 1.345 1.932 0 3.892-1.765 3.892-4.284 0-2.548-1.96-4.313-3.892-4.313-1.484 0-2.492.756-2.967 1.569-.225.42-.617.643-1.092.643-.729 0-1.204-.475-1.204-1.4v-8.875c0-.645.56-1.176 1.204-1.176h8.512c.811 0 1.231.56 1.231 1.204 0 .588-.392 1.176-1.176 1.176h-7.391v5.235c.672-.475 1.736-.756 2.883-.756 3.445 0 6.273 2.912 6.273 6.693 0 3.723-2.828 6.664-6.273 6.664zM304.704 120.077h-8.008c-.784 0-1.204-.56-1.204-1.176 0-.645.42-1.204 1.204-1.204h8.008c.756 0 1.176.56 1.176 1.204 0 .615-.42 1.176-1.176 1.176zM317.331 128h-8.567c-.813 0-1.288-.475-1.288-1.064 0-.252.083-.504.251-.756l7.644-11.619c.336-.532.532-1.177.532-1.68 0-1.652-1.231-2.913-2.884-2.913-1.484 0-2.744 1.261-3.22 2.157-.224.42-.587.587-.951.587-.645 0-1.233-.503-1.233-1.147 0-.868 1.988-4.004 5.404-4.004 2.913 0 5.264 2.38 5.264 5.264 0 1.12-.391 2.212-.952 3.023l-6.411 9.773h6.411c.812 0 1.232.56 1.232 1.204 0 .588-.42 1.175-1.232 1.175zM326.039 128.476c-5.991 0-5.991-7.111-5.991-11.2 0-3.947.616-9.715 5.964-9.715s6.02 5.628 6.02 9.716c0 4.256-.112 11.2-5.993 11.2zm3.584-11.2c0-2.463-.056-7.308-3.584-7.308-3.527 0-3.584 4.845-3.584 7.309v1.567c0 2.912.393 7.252 3.557 7.252 3.22 0 3.611-4.34 3.611-7.252v-1.567zM339.507 128c-.588 0-1.176-.448-1.176-1.175v-15.008l-2.24 2.183a1.084 1.084 0 01-.784.336c-.672 0-1.26-.616-1.26-1.231 0-.309.112-.589.364-.84l4.172-4.032c.336-.309.7-.448 1.036-.448.784 0 1.12.784 1.12 1.427v17.584c0 .756-.588 1.204-1.232 1.204zM349.446 128.28c-1.876 0-4.004-1.007-5.04-2.66a1.241 1.241 0 01-.196-.671c0-.645.56-1.149 1.204-1.149.532 0 .729.197 1.148.756.7.868 1.792 1.345 2.884 1.345 1.932 0 3.892-1.765 3.892-4.284 0-2.548-1.96-4.313-3.892-4.313-1.484 0-2.492.756-2.968 1.569-.224.42-.616.643-1.091.643-.729 0-1.204-.475-1.204-1.4v-8.875c0-.645.56-1.176 1.204-1.176h8.511c.812 0 1.232.56 1.232 1.204 0 .588-.392 1.176-1.176 1.176h-7.392v5.235c.672-.475 1.737-.756 2.884-.756 3.445 0 6.273 2.912 6.273 6.693 0 3.723-2.828 6.664-6.273 6.664z"/></g></g></svg>