<?xml version="1.0" encoding="ISO8859-1"?>
<svg xmlns="http://www.w3.org/2000/svg" xmlns:xlink="http://www.w3.org/1999/xlink" width="1440px" height="1440px" viewBox="0 0 1440 1440" version="1.1">
  <metadata xmlns:gridsvg="http://www.stat.auckland.ac.nz/~paul/R/gridSVG/">
    <gridsvg:generator name="gridSVG" version="1.7-2" time="2021-10-02 12:52:45"/>
    <gridsvg:argument name="name" value="assets/treemap.svg"/>
    <gridsvg:argument name="exportCoords" value="none"/>
    <gridsvg:argument name="exportMappings" value="none"/>
    <gridsvg:argument name="exportJS" value="none"/>
    <gridsvg:argument name="res" value="96"/>
    <gridsvg:argument name="prefix" value=""/>
    <gridsvg:argument name="addClasses" value="TRUE"/>
    <gridsvg:argument name="indent" value="TRUE"/>
    <gridsvg:argument name="htmlWrapper" value="FALSE"/>
    <gridsvg:argument name="usePaths" value="vpPaths"/>
    <gridsvg:argument name="uniqueNames" value="TRUE"/>
    <gridsvg:separator name="id.sep" value="."/>
    <gridsvg:separator name="gPath.sep" value="::"/>
    <gridsvg:separator name="vpPath.sep" value="::"/>
  </metadata>
  <g transform="translate(0, 1440) scale(1, -1)">
    <g id="gridSVG" fill="rgb(255,255,255)" stroke="rgb(0,0,0)" stroke-dasharray="none" stroke-width="1" font-size="16" font-family="Helvetica, Arial, FreeSans, Liberation Sans, Nimbus Sans L, sans-serif" opacity="1" stroke-linecap="round" stroke-linejoin="round" stroke-miterlimit="10" stroke-opacity="1" fill-opacity="1" font-weight="normal" font-style="normal">
      <g id="GRID.VP.900.1" class="viewport">
        <g id="GRID.VP.900::GRID.VP.901.1" class="viewport">
          <g id="GRID.VP.900::GRID.VP.901::GRID.VP.902.1" class="viewport">
            <g id="Americas.1" class="polygon grob gDesc">
              <polygon id="Americas.1.1" points="140.96,488.66 161.97,509.22 181.1,529.29 198.4,548.96 213.9,568.35 227.63,587.57 239.63,606.74 249.95,626 258.61,645.47 265.67,665.29 271.18,685.6 275.16,706.54 277.67,728.24 278.74,750.84 278.43,774.45 276.75,799.22 274.63,818.64 282.53,823.32 303.74,836.91 323.63,851.23 342.31,866.39 359.86,882.49 376.41,899.63 392.04,917.91 406.87,937.43 420.99,958.28 424.58,963.97 449.69,963.3 479.08,963.28 507.51,964.16 535.12,965.96 562.07,968.71 588.49,972.44 614.55,977.19 640.39,982.98 666.18,989.85 692.06,997.83 718.19,1006.95 744.71,1017.24 771.76,1028.72 799.47,1041.43 818.36,1050.58 818.72,1050.42 843.08,1040.54 867.7,1031.96 892.72,1024.62 909.07,1020.55 909.39,1019.89 923.29,992.54 937.33,966.75 951.62,942.44 966.24,919.5 981.29,897.83 996.88,877.32 1013.11,857.87 1030.09,839.36 1047.93,821.67 1066.74,804.7 1086.63,788.33 1107.7,772.45 1130.06,756.95 1153.8,741.74 1179.03,726.7 1183.61,724.08 1179.13,705.4 1174.84,682.51 1172.15,660.4 1171.08,638.96 1171.64,618.04 1173.86,597.5 1177.75,577.22 1183.34,557.06 1190.64,536.86 1199.68,516.51 1210.48,495.88 1223.05,474.83 1237.42,453.26 1253.59,431.05 1271.59,408.09 1280.6,397.29 1267.12,372.78 1219.29,306.95 1163.59,247.63 1100.88,195.76 1032.18,152.15 958.54,117.5 881.15,92.36 801.22,77.11 720,72 638.78,77.11 558.85,92.36 481.46,117.5 407.82,152.15 339.12,195.76 276.41,247.63 220.71,306.95 172.88,372.78 133.67,444.1 122.7,471.8" stroke="none" stroke-width="none" fill="rgb(199,167,108)" stroke-opacity="0" fill-opacity="1"/>
            </g>
            <g id="Asia.1" class="polygon grob gDesc">
              <polygon id="Asia.1.1" points="1271.59,408.09 1253.59,431.05 1237.42,453.26 1223.05,474.83 1210.48,495.88 1199.68,516.51 1190.64,536.86 1183.34,557.06 1177.75,577.22 1173.86,597.5 1171.64,618.04 1171.08,638.96 1172.15,660.4 1174.84,682.51 1179.13,705.4 1183.61,724.08 1186.62,725.36 1206.34,733.42 1226.08,740.78 1246.02,747.54 1266.4,753.77 1287.41,759.54 1309.25,764.92 1332.12,769.98 1356.19,774.79 1364.74,776.33 1366.72,760.69 1366.72,679.31 1356.52,598.58 1336.28,519.76 1306.33,444.1 1280.6,397.29" stroke="none" stroke-width="none" fill="rgb(158,180,105)" stroke-opacity="0" fill-opacity="1"/>
            </g>
            <g id="Canada.1" class="polygon grob gDesc">
              <polygon id="Canada.1.1" points="115.27,872.08 136.4,865.02 156.62,858.27 176.14,851.74 195.18,845.36 213.97,839.06 232.76,832.74 251.79,826.34 271.29,819.77 274.63,818.64 276.75,799.22 278.43,774.45 278.74,750.84 277.67,728.24 275.16,706.54 271.18,685.6 265.67,665.29 258.61,645.47 249.95,626 239.63,606.74 227.63,587.57 213.9,568.35 198.4,548.96 181.1,529.29 161.97,509.22 140.96,488.66 122.7,471.8 103.72,519.76 83.48,598.58 73.28,679.31 73.28,760.69 83.48,841.42 93.23,879.42" stroke="none" stroke-width="none" fill="rgb(102,188,139)" stroke-opacity="0" fill-opacity="1"/>
            </g>
            <g id="China.1" class="polygon grob gDesc">
              <polygon id="China.1.1" points="794.06,1341.87 792.14,1316.53 790.76,1292.49 789.94,1269.58 789.7,1247.6 790.06,1226.35 791.03,1205.62 792.64,1185.17 794.91,1164.79 797.86,1144.25 801.52,1123.31 805.9,1101.77 811.02,1079.42 816.9,1056.07 818.36,1050.58 799.47,1041.43 771.76,1028.72 744.71,1017.24 718.19,1006.95 692.06,997.83 666.18,989.85 640.39,982.98 614.55,977.19 588.49,972.44 562.07,968.71 535.12,965.96 507.51,964.16 479.08,963.28 449.69,963.3 424.58,963.97 420.17,974.14 410.85,994.63 401.32,1014.25 391.46,1033.16 381.17,1051.56 370.34,1069.65 358.85,1087.61 346.59,1105.65 333.45,1123.94 319.34,1142.66 304.16,1161.97 287.83,1182.02 278.02,1193.7 339.12,1244.24 407.82,1287.85 481.46,1322.5 558.85,1347.64 638.78,1362.89 720,1368 796.01,1363.22" stroke="none" stroke-width="none" fill="rgb(56,189,181)" stroke-opacity="0" fill-opacity="1"/>
            </g>
            <g id="Europe.1" class="polygon grob gDesc">
              <polygon id="Europe.1.1" points="1356.19,774.79 1332.12,769.98 1309.25,764.92 1287.41,759.54 1266.4,753.77 1246.02,747.54 1226.08,740.78 1206.34,733.42 1186.62,725.36 1183.61,724.08 1179.03,726.7 1153.8,741.74 1130.06,756.95 1107.7,772.45 1086.63,788.33 1066.74,804.7 1047.93,821.67 1030.09,839.36 1013.11,857.87 996.88,877.32 981.29,897.83 966.24,919.5 951.62,942.44 937.33,966.75 923.29,992.54 909.39,1019.89 909.07,1020.55 928.3,1034.48 946.5,1048.18 963.65,1061.66 979.92,1075.09 995.46,1088.6 1010.44,1102.36 1025.04,1116.53 1039.42,1131.27 1053.75,1146.75 1068.2,1163.1 1082.92,1180.48 1098.04,1199.02 1113.7,1218.84 1120.66,1227.89 1163.59,1192.37 1219.29,1133.05 1267.12,1067.22 1306.33,995.9 1336.28,920.24 1356.52,841.42 1364.74,776.33" stroke="none" stroke-width="none" fill="rgb(101,181,214)" stroke-opacity="0" fill-opacity="1"/>
            </g>
            <g id="Oceania.1" class="polygon grob gDesc">
              <polygon id="Oceania.1.1" points="287.83,1182.02 304.16,1161.97 319.34,1142.66 333.45,1123.94 346.59,1105.65 358.85,1087.61 370.34,1069.65 381.17,1051.56 391.46,1033.16 401.32,1014.25 410.85,994.63 420.17,974.14 424.58,963.97 420.99,958.28 406.87,937.43 392.04,917.91 376.41,899.63 359.86,882.49 342.31,866.39 323.63,851.23 303.74,836.91 282.53,823.32 274.63,818.64 271.29,819.77 251.79,826.34 232.76,832.74 213.97,839.06 195.18,845.36 176.14,851.74 156.62,858.27 136.4,865.02 115.27,872.08 93.23,879.42 103.72,920.24 133.67,995.9 172.88,1067.22 220.71,1133.05 276.41,1192.37 278.02,1193.7" stroke="none" stroke-width="none" fill="rgb(168,165,226)" stroke-opacity="0" fill-opacity="1"/>
            </g>
            <g id="Saudi Arabia.1" class="polygon grob gDesc">
              <polygon id="Saudi Arabia.1.1" points="1113.7,1218.84 1098.04,1199.02 1082.92,1180.48 1068.2,1163.1 1053.75,1146.75 1039.42,1131.27 1025.04,1116.53 1010.44,1102.36 995.46,1088.6 979.92,1075.09 963.65,1061.66 946.5,1048.18 928.3,1034.48 909.07,1020.55 892.72,1024.62 867.7,1031.96 843.08,1040.54 818.72,1050.42 818.36,1050.58 816.9,1056.07 811.02,1079.42 805.9,1101.77 801.52,1123.31 797.86,1144.25 794.91,1164.79 792.64,1185.17 791.03,1205.62 790.06,1226.35 789.7,1247.6 789.94,1269.58 790.76,1292.49 792.14,1316.53 794.06,1341.87 796.01,1363.22 801.22,1362.89 881.15,1347.64 958.54,1322.5 1032.18,1287.85 1100.88,1244.24 1120.66,1227.89" stroke="none" stroke-width="none" fill="rgb(212,151,211)" stroke-opacity="0" fill-opacity="1"/>
            </g>
            <g id="Americas.2" class="polygon grob gDesc">
              <polygon id="Americas.2.1" points="140.96,488.66 161.97,509.22 181.1,529.29 198.4,548.96 213.9,568.35 227.63,587.57 239.63,606.74 249.95,626 258.61,645.47 265.67,665.29 271.18,685.6 275.16,706.54 277.67,728.24 278.74,750.84 278.43,774.45 276.75,799.22 274.63,818.64 282.53,823.32 303.74,836.91 323.63,851.23 342.31,866.39 359.86,882.49 376.41,899.63 392.04,917.91 406.87,937.43 420.99,958.28 424.58,963.97 449.69,963.3 479.08,963.28 507.51,964.16 535.12,965.96 562.07,968.71 588.49,972.44 614.55,977.19 640.39,982.98 666.18,989.85 692.06,997.83 718.19,1006.95 744.71,1017.24 771.76,1028.72 799.47,1041.43 818.36,1050.58 818.72,1050.42 843.08,1040.54 867.7,1031.96 892.72,1024.62 909.07,1020.55 909.39,1019.89 923.29,992.54 937.33,966.75 951.62,942.44 966.24,919.5 981.29,897.83 996.88,877.32 1013.11,857.87 1030.09,839.36 1047.93,821.67 1066.74,804.7 1086.63,788.33 1107.7,772.45 1130.06,756.95 1153.8,741.74 1179.03,726.7 1183.61,724.08 1179.13,705.4 1174.84,682.51 1172.15,660.4 1171.08,638.96 1171.64,618.04 1173.86,597.5 1177.75,577.22 1183.34,557.06 1190.64,536.86 1199.68,516.51 1210.48,495.88 1223.05,474.83 1237.42,453.26 1253.59,431.05 1271.59,408.09 1280.6,397.29 1267.12,372.78 1219.29,306.95 1163.59,247.63 1100.88,195.76 1032.18,152.15 958.54,117.5 881.15,92.36 801.22,77.11 720,72 638.78,77.11 558.85,92.36 481.46,117.5 407.82,152.15 339.12,195.76 276.41,247.63 220.71,306.95 172.88,372.78 133.67,444.1 122.7,471.8" stroke="rgb(230,230,230)" stroke-width="6" fill="none" stroke-opacity="1" fill-opacity="0"/>
            </g>
            <g id="Asia.2" class="polygon grob gDesc">
              <polygon id="Asia.2.1" points="1271.59,408.09 1253.59,431.05 1237.42,453.26 1223.05,474.83 1210.48,495.88 1199.68,516.51 1190.64,536.86 1183.34,557.06 1177.75,577.22 1173.86,597.5 1171.64,618.04 1171.08,638.96 1172.15,660.4 1174.84,682.51 1179.13,705.4 1183.61,724.08 1186.62,725.36 1206.34,733.42 1226.08,740.78 1246.02,747.54 1266.4,753.77 1287.41,759.54 1309.25,764.92 1332.12,769.98 1356.19,774.79 1364.74,776.33 1366.72,760.69 1366.72,679.31 1356.52,598.58 1336.28,519.76 1306.33,444.1 1280.6,397.29" stroke="rgb(230,230,230)" stroke-width="6" fill="none" stroke-opacity="1" fill-opacity="0"/>
            </g>
            <g id="Canada.2" class="polygon grob gDesc">
              <polygon id="Canada.2.1" points="115.27,872.08 136.4,865.02 156.62,858.27 176.14,851.74 195.18,845.36 213.97,839.06 232.76,832.74 251.79,826.34 271.29,819.77 274.63,818.64 276.75,799.22 278.43,774.45 278.74,750.84 277.67,728.24 275.16,706.54 271.18,685.6 265.67,665.29 258.61,645.47 249.95,626 239.63,606.74 227.63,587.57 213.9,568.35 198.4,548.96 181.1,529.29 161.97,509.22 140.96,488.66 122.7,471.8 103.72,519.76 83.48,598.58 73.28,679.31 73.28,760.69 83.48,841.42 93.23,879.42" stroke="rgb(230,230,230)" stroke-width="6" fill="none" stroke-opacity="1" fill-opacity="0"/>
            </g>
            <g id="China.2" class="polygon grob gDesc">
              <polygon id="China.2.1" points="794.06,1341.87 792.14,1316.53 790.76,1292.49 789.94,1269.58 789.7,1247.6 790.06,1226.35 791.03,1205.62 792.64,1185.17 794.91,1164.79 797.86,1144.25 801.52,1123.31 805.9,1101.77 811.02,1079.42 816.9,1056.07 818.36,1050.58 799.47,1041.43 771.76,1028.72 744.71,1017.24 718.19,1006.95 692.06,997.83 666.18,989.85 640.39,982.98 614.55,977.19 588.49,972.44 562.07,968.71 535.12,965.96 507.51,964.16 479.08,963.28 449.69,963.3 424.58,963.97 420.17,974.14 410.85,994.63 401.32,1014.25 391.46,1033.16 381.17,1051.56 370.34,1069.65 358.85,1087.61 346.59,1105.65 333.45,1123.94 319.34,1142.66 304.16,1161.97 287.83,1182.02 278.02,1193.7 339.12,1244.24 407.82,1287.85 481.46,1322.5 558.85,1347.64 638.78,1362.89 720,1368 796.01,1363.22" stroke="rgb(230,230,230)" stroke-width="6" fill="none" stroke-opacity="1" fill-opacity="0"/>
            </g>
            <g id="Europe.2" class="polygon grob gDesc">
              <polygon id="Europe.2.1" points="1356.19,774.79 1332.12,769.98 1309.25,764.92 1287.41,759.54 1266.4,753.77 1246.02,747.54 1226.08,740.78 1206.34,733.42 1186.62,725.36 1183.61,724.08 1179.03,726.7 1153.8,741.74 1130.06,756.95 1107.7,772.45 1086.63,788.33 1066.74,804.7 1047.93,821.67 1030.09,839.36 1013.11,857.87 996.88,877.32 981.29,897.83 966.24,919.5 951.62,942.44 937.33,966.75 923.29,992.54 909.39,1019.89 909.07,1020.55 928.3,1034.48 946.5,1048.18 963.65,1061.66 979.92,1075.09 995.46,1088.6 1010.44,1102.36 1025.04,1116.53 1039.42,1131.27 1053.75,1146.75 1068.2,1163.1 1082.92,1180.48 1098.04,1199.02 1113.7,1218.84 1120.66,1227.89 1163.59,1192.37 1219.29,1133.05 1267.12,1067.22 1306.33,995.9 1336.28,920.24 1356.52,841.42 1364.74,776.33" stroke="rgb(230,230,230)" stroke-width="6" fill="none" stroke-opacity="1" fill-opacity="0"/>
            </g>
            <g id="Oceania.2" class="polygon grob gDesc">
              <polygon id="Oceania.2.1" points="287.83,1182.02 304.16,1161.97 319.34,1142.66 333.45,1123.94 346.59,1105.65 358.85,1087.61 370.34,1069.65 381.17,1051.56 391.46,1033.16 401.32,1014.25 410.85,994.63 420.17,974.14 424.58,963.97 420.99,958.28 406.87,937.43 392.04,917.91 376.41,899.63 359.86,882.49 342.31,866.39 323.63,851.23 303.74,836.91 282.53,823.32 274.63,818.64 271.29,819.77 251.79,826.34 232.76,832.74 213.97,839.06 195.18,845.36 176.14,851.74 156.62,858.27 136.4,865.02 115.27,872.08 93.23,879.42 103.72,920.24 133.67,995.9 172.88,1067.22 220.71,1133.05 276.41,1192.37 278.02,1193.7" stroke="rgb(230,230,230)" stroke-width="6" fill="none" stroke-opacity="1" fill-opacity="0"/>
            </g>
            <g id="Saudi Arabia.2" class="polygon grob gDesc">
              <polygon id="Saudi Arabia.2.1" points="1113.7,1218.84 1098.04,1199.02 1082.92,1180.48 1068.2,1163.1 1053.75,1146.75 1039.42,1131.27 1025.04,1116.53 1010.44,1102.36 995.46,1088.6 979.92,1075.09 963.65,1061.66 946.5,1048.18 928.3,1034.48 909.07,1020.55 892.72,1024.62 867.7,1031.96 843.08,1040.54 818.72,1050.42 818.36,1050.58 816.9,1056.07 811.02,1079.42 805.9,1101.77 801.52,1123.31 797.86,1144.25 794.91,1164.79 792.64,1185.17 791.03,1205.62 790.06,1226.35 789.7,1247.6 789.94,1269.58 790.76,1292.49 792.14,1316.53 794.06,1341.87 796.01,1363.22 801.22,1362.89 881.15,1347.64 958.54,1322.5 1032.18,1287.85 1100.88,1244.24 1120.66,1227.89" stroke="rgb(230,230,230)" stroke-width="6" fill="none" stroke-opacity="1" fill-opacity="0"/>
            </g>
            <g id="Basic Materials.1" class="polygon grob gDesc">
              <polygon id="Basic Materials.1.1" points="1114.13,770.17 1124.87,780.26 1135.32,788.88 1145.74,796.17 1156.4,802.28 1167.58,807.35 1179.59,811.52 1180.88,811.9 1186.64,807.06 1195.45,798.66 1203.18,789.84 1210.05,780.34 1216.27,769.87 1222.05,758.18 1227.58,745.04 1228.8,741.71 1226.08,740.78 1206.34,733.42 1186.62,725.36 1183.61,724.08 1179.03,726.7 1153.8,741.74 1130.06,756.95 1112.87,768.87" stroke="rgb(230,230,230)" stroke-width="3" fill="none" stroke-opacity="1" fill-opacity="0"/>
            </g>
            <g id="Basic Materials.2" class="polygon grob gDesc">
              <polygon id="Basic Materials.2.1" points="287.83,1182.02 304.16,1161.97 319.34,1142.66 333.45,1123.94 346.59,1105.65 358.85,1087.61 370.34,1069.65 381.17,1051.56 391.46,1033.16 401.32,1014.25 410.85,994.63 420.17,974.14 424.58,963.97 420.99,958.28 406.87,937.43 392.04,917.91 376.41,899.63 359.86,882.49 342.31,866.39 323.63,851.23 303.74,836.91 282.53,823.32 274.63,818.64 271.29,819.77 251.79,826.34 232.76,832.74 213.97,839.06 195.18,845.36 176.14,851.74 156.62,858.27 136.4,865.02 115.27,872.08 93.23,879.42 103.72,920.24 133.67,995.9 172.88,1067.22 220.71,1133.05 276.41,1192.37 278.02,1193.7" stroke="rgb(230,230,230)" stroke-width="3" fill="none" stroke-opacity="1" fill-opacity="0"/>
            </g>
            <g id="Consumer Discretionary.1" class="polygon grob gDesc">
              <polygon id="Consumer Discretionary.1.1" points="327.94,219.29 342.43,240.72 355.84,261.3 368.25,281.19 379.75,300.55 390.41,319.58 400.34,338.46 409.62,357.4 418.35,376.6 426.63,396.26 434.55,416.58 438.05,426.09 448.92,427.98 475.33,432.34 500.79,436.22 525.48,439.61 549.6,442.55 573.35,445.04 596.92,447.1 620.52,448.74 644.36,449.99 668.64,450.86 693.57,451.36 719.32,451.5 746.08,451.32 766.26,450.97 769.1,444.23 778.34,422.99 787.68,402.53 797.2,382.68 807.01,363.22 817.21,343.97 827.92,324.73 839.22,305.29 851.21,285.47 856.24,277.39 848.07,260.03 840.75,242.26 834.6,224.65 829.57,206.98 825.6,189.05 822.65,170.63 820.66,151.51 819.58,131.49 819.35,110.36 819.93,87.96 820.34,80.76 801.22,77.11 720,72 638.78,77.11 558.85,92.36 481.46,117.5 407.82,152.15 339.12,195.76 321.63,210.23" stroke="rgb(230,230,230)" stroke-width="3" fill="none" stroke-opacity="1" fill-opacity="0"/>
            </g>
            <g id="Consumer Discretionary.2" class="polygon grob gDesc">
              <polygon id="Consumer Discretionary.2.1" points="1197.44,554.47 1212.99,558.61 1227.63,562.23 1241.65,565.4 1255.39,568.17 1269.18,570.61 1281.73,572.55 1290.27,567.3 1301.04,560.96 1311.96,554.88 1323.36,548.84 1335.57,542.68 1341.44,539.83 1336.28,519.76 1306.33,444.1 1280.6,397.29 1271.59,408.09 1253.59,431.05 1237.42,453.26 1223.05,474.83 1210.48,495.88 1199.68,516.51 1190.64,536.86 1185.49,551.11" stroke="rgb(230,230,230)" stroke-width="3" fill="none" stroke-opacity="1" fill-opacity="0"/>
            </g>
            <g id="Consumer Discretionary.3" class="polygon grob gDesc">
              <polygon id="Consumer Discretionary.3.1" points="419.39,1283.88 429.26,1267.41 438.04,1251.64 445.8,1236.38 452.63,1221.36 458.64,1206.33 463.92,1191.03 468.56,1175.2 472.67,1158.57 476.33,1140.91 477.63,1133.85 467.48,1128.33 453.89,1120.84 440.94,1113.59 428.36,1106.41 415.83,1099.12 403.06,1091.56 389.76,1083.56 375.67,1074.97 369.41,1071.11 358.85,1087.61 346.59,1105.65 333.45,1123.94 319.34,1142.66 304.16,1161.97 287.83,1182.02 278.02,1193.7 339.12,1244.24 407.82,1287.85 414.79,1291.12" stroke="rgb(230,230,230)" stroke-width="3" fill="none" stroke-opacity="1" fill-opacity="0"/>
            </g>
            <g id="Consumer Discretionary.4" class="polygon grob gDesc">
              <polygon id="Consumer Discretionary.4.1" points="1227.58,745.04 1222.05,758.18 1216.27,769.87 1210.05,780.34 1203.18,789.84 1195.45,798.66 1186.64,807.06 1180.88,811.9 1184.29,825.04 1188.42,840.49 1192.52,855.26 1196.68,869.68 1200.99,884.04 1205.54,898.69 1210.43,913.91 1215.73,930.01 1217.22,934.44 1230.27,935.46 1244.23,937.06 1257.74,939.21 1271.13,941.97 1284.76,945.4 1298.94,949.57 1313.97,954.51 1321.63,957.25 1336.28,920.24 1356.52,841.42 1364.74,776.33 1356.19,774.79 1332.12,769.98 1309.25,764.92 1287.41,759.54 1266.4,753.77 1246.02,747.54 1228.8,741.71" stroke="rgb(230,230,230)" stroke-width="3" fill="none" stroke-opacity="1" fill-opacity="0"/>
            </g>
            <g id="Consumer Staples.1" class="polygon grob gDesc">
              <polygon id="Consumer Staples.1.1" points="819.93,87.96 819.35,110.36 819.58,131.49 820.66,151.51 822.65,170.63 825.6,189.05 829.57,206.98 834.6,224.65 840.75,242.26 848.07,260.03 856.24,277.39 874.44,277.76 892.72,277.54 910.39,276.67 927.72,275.11 944.97,272.83 962.41,269.81 980.28,266.02 998.17,261.61 998.33,261.26 1005.5,246.37 1012.64,231.83 1019.91,217.34 1027.42,202.63 1035.32,187.43 1043.73,171.49 1048.52,162.53 1032.18,152.15 958.54,117.5 881.15,92.36 820.34,80.76" stroke="rgb(230,230,230)" stroke-width="3" fill="none" stroke-opacity="1" fill-opacity="0"/>
            </g>
            <g id="Consumer Staples.2" class="polygon grob gDesc">
              <polygon id="Consumer Staples.2.1" points="375.67,1074.97 389.76,1083.56 403.06,1091.56 415.83,1099.12 428.36,1106.41 440.94,1113.59 453.89,1120.84 467.48,1128.33 477.63,1133.85 480.53,1132.49 496.25,1124.63 511.37,1116.25 512.06,1115.84 518.03,1102.82 524.34,1087.49 529.65,1072.47 534.05,1057.51 537.59,1042.32 540.36,1026.63 542.42,1010.17 543.84,992.7 544.69,973.98 544.8,966.94 535.12,965.96 507.51,964.16 479.08,963.28 449.69,963.3 424.58,963.97 420.17,974.14 410.85,994.63 401.32,1014.25 391.46,1033.16 381.17,1051.56 370.34,1069.65 369.41,1071.11" stroke="rgb(230,230,230)" stroke-width="3" fill="none" stroke-opacity="1" fill-opacity="0"/>
            </g>
            <g id="Consumer Staples.3" class="polygon grob gDesc">
              <polygon id="Consumer Staples.3.1" points="1047.66,1122.7 1055.14,1106.67 1062.15,1091.82 1068.8,1077.89 1075.24,1064.62 1081.61,1051.7 1088.07,1038.83 1094.77,1025.68 1101.85,1011.97 1102.81,1010.13 1096.16,1003.52 1084.52,992.2 1073.43,981.76 1062.64,972.01 1051.92,962.73 1040.98,953.7 1029.57,944.69 1017.43,935.49 1004.32,925.9 990.04,915.74 975.76,905.8 966.24,919.5 951.62,942.44 937.33,966.75 923.29,992.54 909.39,1019.89 909.07,1020.55 928.3,1034.48 946.5,1048.18 963.65,1061.66 979.92,1075.09 995.46,1088.6 1010.44,1102.36 1025.04,1116.53 1039.42,1131.27 1042.27,1134.35" stroke="rgb(230,230,230)" stroke-width="3" fill="none" stroke-opacity="1" fill-opacity="0"/>
            </g>
            <g id="Energy.1" class="polygon grob gDesc">
              <polygon id="Energy.1.1" points="1043.73,171.49 1035.32,187.43 1027.42,202.63 1019.91,217.34 1012.64,231.83 1005.5,246.37 998.33,261.26 998.17,261.61 1006.88,274.68 1017.26,289.11 1027.72,302.31 1038.42,314.47 1049.57,325.76 1061.36,336.37 1074,346.5 1087.68,356.33 1102.57,366.04 1112.66,372.16 1117.76,369.1 1130.92,361.3 1143.88,353.81 1156.91,346.47 1170.31,339.09 1184.36,331.54 1199.32,323.65 1215.42,315.29 1222.66,311.58 1219.29,306.95 1163.59,247.63 1100.88,195.76 1048.52,162.53" stroke="rgb(230,230,230)" stroke-width="3" fill="none" stroke-opacity="1" fill-opacity="0"/>
            </g>
            <g id="Energy.2" class="polygon grob gDesc">
              <polygon id="Energy.2.1" points="1335.57,542.68 1323.36,548.84 1311.96,554.88 1301.04,560.96 1290.27,567.3 1281.73,572.55 1282.9,577.69 1286.21,590.74 1289.76,602.38 1293.72,612.92 1298.25,622.7 1303.56,632.08 1309.82,641.44 1317.21,651.11 1325.89,661.4 1335.12,671.63 1341.49,671.58 1354.32,671.63 1365.78,671.83 1356.52,598.58 1341.44,539.83" stroke="rgb(230,230,230)" stroke-width="3" fill="none" stroke-opacity="1" fill-opacity="0"/>
            </g>
            <g id="Energy.3" class="polygon grob gDesc">
              <polygon id="Energy.3.1" points="1113.7,1218.84 1098.04,1199.02 1082.92,1180.48 1068.2,1163.1 1053.75,1146.75 1039.42,1131.27 1025.04,1116.53 1010.44,1102.36 995.46,1088.6 979.92,1075.09 963.65,1061.66 946.5,1048.18 928.3,1034.48 909.07,1020.55 892.72,1024.62 867.7,1031.96 843.08,1040.54 818.72,1050.42 818.36,1050.58 816.9,1056.07 811.02,1079.42 805.9,1101.77 801.52,1123.31 797.86,1144.25 794.91,1164.79 792.64,1185.17 791.03,1205.62 790.06,1226.35 789.7,1247.6 789.94,1269.58 790.76,1292.49 792.14,1316.53 794.06,1341.87 796.01,1363.22 801.22,1362.89 881.15,1347.64 958.54,1322.5 1032.18,1287.85 1100.88,1244.24 1120.66,1227.89" stroke="rgb(230,230,230)" stroke-width="3" fill="none" stroke-opacity="1" fill-opacity="0"/>
            </g>
            <g id="Financials.1" class="polygon grob gDesc">
              <polygon id="Financials.1.1" points="245.72,602.93 268.03,589.28 288.87,575.73 308.33,562.17 326.55,548.48 343.65,534.52 359.77,520.16 375.04,505.25 389.6,489.66 403.61,473.23 417.19,455.83 430.48,437.32 438.05,426.09 434.55,416.58 426.63,396.26 418.35,376.6 409.62,357.4 400.34,338.46 390.41,319.58 379.75,300.55 368.25,281.19 355.84,261.3 342.43,240.72 327.94,219.29 321.63,210.23 276.41,247.63 220.71,306.95 172.88,372.78 133.67,444.1 122.7,471.8 140.96,488.66 161.97,509.22 181.1,529.29 198.4,548.96 213.9,568.35 227.63,587.57 239.5,606.54" stroke="rgb(230,230,230)" stroke-width="3" fill="none" stroke-opacity="1" fill-opacity="0"/>
            </g>
            <g id="Financials.2" class="polygon grob gDesc">
              <polygon id="Financials.2.1" points="115.27,872.08 136.4,865.02 156.62,858.27 176.14,851.74 195.18,845.36 213.97,839.06 232.76,832.74 251.79,826.34 271.29,819.77 274.63,818.64 276.75,799.22 278.43,774.45 278.74,750.84 277.67,728.24 275.16,706.54 271.18,685.6 265.67,665.29 258.61,645.47 249.95,626 239.63,606.74 227.63,587.57 213.9,568.35 198.4,548.96 181.1,529.29 161.97,509.22 140.96,488.66 122.7,471.8 103.72,519.76 83.48,598.58 73.28,679.31 73.28,760.69 83.48,841.42 93.23,879.42" stroke="rgb(230,230,230)" stroke-width="3" fill="none" stroke-opacity="1" fill-opacity="0"/>
            </g>
            <g id="Financials.3" class="polygon grob gDesc">
              <polygon id="Financials.3.1" points="544.69,973.98 543.84,992.7 542.42,1010.17 540.36,1026.63 537.59,1042.32 534.05,1057.51 529.65,1072.47 524.34,1087.49 518.03,1102.82 512.06,1115.84 520.2,1119.8 539.55,1129.22 557.45,1137.9 574.06,1145.94 589.59,1153.43 604.3,1160.49 618.44,1167.24 632.29,1173.82 646.17,1180.38 660.35,1187.04 675.13,1193.94 690.76,1201.22 707.5,1208.97 725.56,1217.32 745.11,1226.33 766.31,1236.09 789.28,1246.65 789.71,1246.85 790.06,1226.35 791.03,1205.62 792.64,1185.17 794.91,1164.79 797.86,1144.25 801.52,1123.31 805.9,1101.77 811.02,1079.42 816.9,1056.07 818.36,1050.58 799.47,1041.43 771.76,1028.72 744.71,1017.24 718.19,1006.95 692.06,997.83 666.18,989.85 640.39,982.98 614.55,977.19 588.49,972.44 562.07,968.71 544.8,966.94" stroke="rgb(230,230,230)" stroke-width="3" fill="none" stroke-opacity="1" fill-opacity="0"/>
            </g>
            <g id="Health Care.1" class="polygon grob gDesc">
              <polygon id="Health Care.1.1" points="769.1,444.23 766.26,450.97 777.14,469.97 789.59,490.38 802.44,510.01 815.79,529.04 829.76,547.62 844.48,565.9 860.04,584.05 876.57,602.21 893.04,619.4 896.02,617.8 915.4,607.5 933.76,598.02 951.31,589.25 968.26,581.11 984.84,573.51 1001.31,566.32 1017.91,559.46 1034.9,552.8 1052.52,546.26 1071.01,539.71 1090.59,533.08 1111.45,526.28 1128.49,520.89 1126.15,513.33 1120.86,494.7 1116.6,477.01 1113.36,460.05 1111.13,443.55 1109.89,427.27 1109.63,410.95 1110.35,394.32 1112.02,377.13 1112.66,372.16 1102.57,366.04 1087.68,356.33 1074,346.5 1061.36,336.37 1049.57,325.76 1038.42,314.47 1027.72,302.31 1017.26,289.11 1006.88,274.68 998.17,261.61 980.28,266.02 962.41,269.81 944.97,272.83 927.72,275.11 910.39,276.67 892.72,277.54 874.44,277.76 856.24,277.39 851.21,285.47 839.22,305.29 827.92,324.73 817.21,343.97 807.01,363.22 797.2,382.68 787.68,402.53 778.34,422.99" stroke="rgb(230,230,230)" stroke-width="3" fill="none" stroke-opacity="1" fill-opacity="0"/>
            </g>
            <g id="Health Care.2" class="polygon grob gDesc">
              <polygon id="Health Care.2.1" points="990.04,915.74 1004.32,925.9 1017.43,935.49 1029.57,944.69 1040.98,953.7 1051.92,962.73 1062.64,972.01 1073.43,981.76 1084.52,992.2 1096.16,1003.52 1102.81,1010.13 1116.72,1006.65 1132.13,1003.13 1147.6,999.93 1163.45,997 1174.66,995.12 1181.02,983.88 1188.79,971.35 1196.95,959.49 1205.67,948.05 1215.16,936.76 1217.22,934.44 1215.73,930.01 1210.43,913.91 1205.54,898.69 1200.99,884.04 1196.68,869.68 1192.52,855.26 1188.42,840.49 1184.29,825.04 1180.88,811.9 1179.59,811.52 1167.58,807.35 1156.4,802.28 1145.74,796.17 1135.32,788.88 1124.87,780.26 1114.13,770.17 1112.87,768.87 1107.7,772.45 1086.63,788.33 1066.74,804.7 1047.93,821.67 1030.09,839.36 1013.11,857.87 996.88,877.32 981.29,897.83 975.76,905.8" stroke="rgb(230,230,230)" stroke-width="3" fill="none" stroke-opacity="1" fill-opacity="0"/>
            </g>
            <g id="Industrials.1" class="polygon grob gDesc">
              <polygon id="Industrials.1.1" points="1178.89,547.15 1161.35,538.58 1144.52,529.81 1128.49,520.89 1111.45,526.28 1090.59,533.08 1071.01,539.71 1052.52,546.26 1034.9,552.8 1017.91,559.46 1001.31,566.32 984.84,573.51 968.26,581.11 951.31,589.25 933.76,598.02 915.4,607.5 896.02,617.8 893.04,619.4 892.87,632.13 893.25,655.38 894.54,678.37 896.76,701.29 899.93,724.33 904.05,747.67 908.52,768.75 910.7,770.35 923.74,770.3 940.17,770.88 955.08,772.27 968.68,774.57 981.21,777.89 992.93,782.33 1004.09,788.02 1014.97,795.07 1025.81,803.6 1036.86,813.71 1046.25,823.35 1047.93,821.67 1066.74,804.7 1086.63,788.33 1107.7,772.45 1130.06,756.95 1153.8,741.74 1179.03,726.7 1183.61,724.08 1179.13,705.4 1174.84,682.51 1172.15,660.4 1171.08,638.96 1171.64,618.04 1173.86,597.5 1177.75,577.22 1183.34,557.06 1185.78,550.32" stroke="rgb(230,230,230)" stroke-width="3" fill="none" stroke-opacity="1" fill-opacity="0"/>
            </g>
            <g id="Industrials.2" class="polygon grob gDesc">
              <polygon id="Industrials.2.1" points="1313.97,954.51 1298.94,949.57 1284.76,945.4 1271.13,941.97 1257.74,939.21 1244.23,937.06 1230.27,935.46 1217.22,934.44 1215.16,936.76 1205.67,948.05 1196.95,959.49 1188.79,971.35 1181.02,983.88 1174.66,995.12 1180.47,1002.71 1189.27,1013.78 1197.88,1024.02 1206.53,1033.71 1215.5,1043.11 1225.02,1052.51 1235.34,1062.17 1246.69,1072.32 1256.96,1081.2 1267.12,1067.22 1306.33,995.9 1321.63,957.25" stroke="rgb(230,230,230)" stroke-width="3" fill="none" stroke-opacity="1" fill-opacity="0"/>
            </g>
            <g id="Oil &amp; Gas.1" class="polygon grob gDesc">
              <polygon id="Oil &amp; Gas.1.1" points="1215.42,315.29 1199.32,323.65 1184.36,331.54 1170.31,339.09 1156.91,346.47 1143.88,353.81 1130.92,361.3 1117.76,369.1 1112.66,372.16 1112.02,377.13 1110.35,394.32 1109.63,410.95 1109.89,427.27 1111.13,443.55 1113.36,460.05 1116.6,477.01 1120.86,494.7 1126.15,513.33 1128.49,520.89 1144.52,529.81 1161.35,538.58 1178.89,547.15 1185.78,550.32 1190.64,536.86 1199.68,516.51 1210.48,495.88 1223.05,474.83 1237.42,453.26 1253.59,431.05 1271.59,408.09 1280.6,397.29 1267.12,372.78 1222.66,311.58" stroke="rgb(230,230,230)" stroke-width="3" fill="none" stroke-opacity="1" fill-opacity="0"/>
            </g>
            <g id="Oil &amp; Gas.2" class="polygon grob gDesc">
              <polygon id="Oil &amp; Gas.2.1" points="1165.89,1171.73 1155.23,1163.92 1145.28,1157.45 1135.71,1152.17 1126.16,1147.97 1116.27,1144.69 1105.63,1142.18 1093.9,1140.3 1080.76,1138.93 1065.94,1137.98 1049.23,1137.36 1044.96,1137.26 1053.75,1146.75 1068.2,1163.1 1082.92,1180.48 1098.04,1199.02 1113.7,1218.84 1120.66,1227.89 1163.59,1192.37 1175.68,1179.5" stroke="rgb(230,230,230)" stroke-width="3" fill="none" stroke-opacity="1" fill-opacity="0"/>
            </g>
            <g id="Technology.1" class="polygon grob gDesc">
              <polygon id="Technology.1.1" points="720.06,997.58 727.7,974.63 735.65,953.34 744.01,933.6 752.88,915.25 762.38,898.17 772.62,882.2 783.75,867.19 795.87,852.97 809.12,839.39 823.62,826.28 839.49,813.5 856.84,800.91 875.79,788.37 896.43,775.76 908.52,768.75 904.05,747.67 899.93,724.33 896.76,701.29 894.54,678.37 893.25,655.38 892.87,632.13 893.04,619.4 876.57,602.21 860.04,584.05 844.48,565.9 829.76,547.62 815.79,529.04 802.44,510.01 789.59,490.38 777.14,469.97 766.26,450.97 746.08,451.32 719.32,451.5 693.57,451.36 668.64,450.86 644.36,449.99 620.52,448.74 596.92,447.1 573.35,445.04 549.6,442.55 525.48,439.61 500.79,436.22 475.33,432.34 448.92,427.98 438.05,426.09 430.48,437.32 417.19,455.83 403.61,473.23 389.6,489.66 375.04,505.25 359.77,520.16 343.65,534.52 326.55,548.48 308.33,562.17 288.87,575.73 268.03,589.28 245.72,602.93 239.5,606.54 239.63,606.74 249.95,626 258.61,645.47 265.67,665.29 271.18,685.6 275.16,706.54 277.67,728.24 278.74,750.84 278.43,774.45 276.75,799.22 274.63,818.64 282.53,823.32 303.74,836.91 323.63,851.23 342.31,866.39 359.86,882.49 376.41,899.63 392.04,917.91 406.87,937.43 420.99,958.28 424.58,963.97 449.69,963.3 479.08,963.28 507.51,964.16 535.12,965.96 562.07,968.71 588.49,972.44 614.55,977.19 640.39,982.98 666.18,989.85 692.06,997.83 717.34,1006.66" stroke="rgb(230,230,230)" stroke-width="3" fill="none" stroke-opacity="1" fill-opacity="0"/>
            </g>
            <g id="Technology.2" class="polygon grob gDesc">
              <polygon id="Technology.2.1" points="1276.13,746.45 1282.12,733.72 1288.2,722.42 1294.55,712.27 1301.4,703.02 1309,694.36 1317.57,686 1327.34,677.67 1335.12,671.63 1325.89,661.4 1317.21,651.11 1309.82,641.44 1303.56,632.08 1298.25,622.7 1293.72,612.92 1289.76,602.38 1286.21,590.74 1282.9,577.69 1281.73,572.55 1269.18,570.61 1255.39,568.17 1241.65,565.4 1227.63,562.23 1212.99,558.61 1197.44,554.47 1185.49,551.11 1183.34,557.06 1177.75,577.22 1173.86,597.5 1171.64,618.04 1171.08,638.96 1172.15,660.4 1174.84,682.51 1179.13,705.4 1183.61,724.08 1186.62,725.36 1206.34,733.42 1226.08,740.78 1246.02,747.54 1266.4,753.77 1272.33,755.4" stroke="rgb(230,230,230)" stroke-width="3" fill="none" stroke-opacity="1" fill-opacity="0"/>
            </g>
            <g id="Technology.3" class="polygon grob gDesc">
              <polygon id="Technology.3.1" points="734.32,1359.75 732.99,1345.63 733.08,1332.76 734.65,1320.94 737.78,1309.95 742.56,1299.57 749.07,1289.58 757.39,1279.75 767.59,1269.9 779.75,1259.84 789.75,1252.46 789.7,1247.6 789.71,1246.85 789.28,1246.65 766.31,1236.09 745.11,1226.33 725.56,1217.32 707.5,1208.97 690.76,1201.22 675.13,1193.94 660.35,1187.04 646.17,1180.38 632.29,1173.82 618.44,1167.24 604.3,1160.49 589.59,1153.43 574.06,1145.94 557.45,1137.9 539.55,1129.22 520.2,1119.8 512.06,1115.84 511.37,1116.25 496.25,1124.63 480.53,1132.49 477.63,1133.85 476.33,1140.91 472.67,1158.57 468.56,1175.2 463.92,1191.03 458.64,1206.33 452.63,1221.36 445.8,1236.38 438.04,1251.64 429.26,1267.41 419.39,1283.88 414.79,1291.12 481.46,1322.5 558.85,1347.64 638.78,1362.89 720,1368 735.56,1367.02" stroke="rgb(230,230,230)" stroke-width="3" fill="none" stroke-opacity="1" fill-opacity="0"/>
            </g>
            <g id="Technology.4" class="polygon grob gDesc">
              <polygon id="Technology.4.1" points="1246.69,1072.32 1235.34,1062.17 1225.02,1052.51 1215.5,1043.11 1206.53,1033.71 1197.88,1024.02 1189.27,1013.78 1180.47,1002.71 1174.66,995.12 1163.45,997 1147.6,999.93 1132.13,1003.13 1116.72,1006.65 1102.81,1010.13 1101.85,1011.97 1094.77,1025.68 1088.07,1038.83 1081.61,1051.7 1075.24,1064.62 1068.8,1077.89 1062.15,1091.82 1055.14,1106.67 1047.66,1122.7 1042.27,1134.35 1044.96,1137.26 1049.23,1137.36 1065.94,1137.98 1080.76,1138.93 1093.9,1140.3 1105.63,1142.18 1116.27,1144.69 1126.16,1147.97 1135.71,1152.17 1145.28,1157.45 1155.23,1163.92 1165.89,1171.73 1175.68,1179.5 1219.29,1133.05 1256.96,1081.2" stroke="rgb(230,230,230)" stroke-width="3" fill="none" stroke-opacity="1" fill-opacity="0"/>
            </g>
            <g id="Telecommunication.1" class="polygon grob gDesc">
              <polygon id="Telecommunication.1.1" points="988.8,878.09 976.06,870.16 964.86,862.03 955.03,853.5 946.38,844.36 938.72,834.37 931.86,823.31 925.61,810.96 919.8,797.13 914.27,781.62 910.7,770.35 908.52,768.75 896.43,775.76 875.79,788.37 856.84,800.91 839.49,813.5 823.62,826.28 809.12,839.39 795.87,852.97 783.75,867.19 772.62,882.2 762.38,898.17 752.88,915.25 744.01,933.6 735.65,953.34 727.7,974.63 720.06,997.58 717.34,1006.66 718.19,1006.95 744.71,1017.24 771.76,1028.72 799.47,1041.43 818.36,1050.58 818.72,1050.42 843.08,1040.54 867.7,1031.96 892.72,1024.62 909.07,1020.55 909.39,1019.89 923.29,992.54 937.33,966.75 951.62,942.44 966.24,919.5 981.29,897.83 994.09,880.99" stroke="rgb(230,230,230)" stroke-width="3" fill="none" stroke-opacity="1" fill-opacity="0"/>
            </g>
            <g id="Telecommunication.2" class="polygon grob gDesc">
              <polygon id="Telecommunication.2.1" points="1354.32,671.63 1341.49,671.58 1335.12,671.63 1327.34,677.67 1317.57,686 1309,694.36 1301.4,703.02 1294.55,712.27 1288.2,722.42 1282.12,733.72 1276.13,746.45 1272.33,755.4 1287.41,759.54 1309.25,764.92 1332.12,769.98 1356.19,774.79 1364.74,776.33 1366.72,760.69 1366.72,679.31 1365.78,671.83" stroke="rgb(230,230,230)" stroke-width="3" fill="none" stroke-opacity="1" fill-opacity="0"/>
            </g>
            <g id="Telecommunication.3" class="polygon grob gDesc">
              <polygon id="Telecommunication.3.1" points="779.75,1259.84 767.59,1269.9 757.39,1279.75 749.07,1289.58 742.56,1299.57 737.78,1309.95 734.65,1320.94 733.08,1332.76 732.99,1345.63 734.32,1359.75 735.56,1367.02 796.01,1363.22 794.06,1341.87 792.14,1316.53 790.76,1292.49 789.94,1269.58 789.75,1252.46" stroke="rgb(230,230,230)" stroke-width="3" fill="none" stroke-opacity="1" fill-opacity="0"/>
            </g>
            <g id="Utilities.1" class="polygon grob gDesc">
              <polygon id="Utilities.1.1" points="931.86,823.31 938.72,834.37 946.38,844.36 955.03,853.5 964.86,862.03 976.06,870.16 988.8,878.09 994.09,880.99 996.88,877.32 1013.11,857.87 1030.09,839.36 1046.25,823.35 1036.86,813.71 1025.81,803.6 1014.97,795.07 1004.09,788.02 992.93,782.33 981.21,777.89 968.68,774.57 955.08,772.27 940.17,770.88 923.74,770.3 910.7,770.35 914.27,781.62 919.8,797.13 925.61,810.96" stroke="rgb(230,230,230)" stroke-width="3" fill="none" stroke-opacity="1" fill-opacity="0"/>
            </g>
            <g id="GRID.text.3291.1" class="text grob gDesc">
              <g id="GRID.text.3291.1.1" transform="translate(977.02, 818.24)" stroke-width="0.1">
                <g id="GRID.text.3291.1.1.scale" transform="scale(1, -1)">
                  <text x="0" y="0" id="GRID.text.3291.1.1.text" text-anchor="middle" stroke="rgb(255,255,255)" fill="rgb(255,255,255)" stroke-opacity="1" fill-opacity="1" font-size="6.29">
                    <tspan id="GRID.text.3291.1.1.tspan.1" dy="2.16" x="0">Utilities</tspan>
                  </text>
                </g>
              </g>
            </g>
            <g id="GRID.text.3292.1" class="text grob gDesc">
              <g id="GRID.text.3292.1.1" transform="translate(765.58, 1320.24)" stroke-width="0.1">
                <g id="GRID.text.3292.1.1.scale" transform="scale(1, -1)">
                  <text x="0" y="0" id="GRID.text.3292.1.1.text" text-anchor="middle" stroke="rgb(255,255,255)" fill="rgb(255,255,255)" stroke-opacity="1" fill-opacity="1" font-size="2.6">
                    <tspan id="GRID.text.3292.1.1.tspan.1" dy="0.89" x="0">Telecommunication</tspan>
                  </text>
                </g>
              </g>
            </g>
            <g id="GRID.text.3293.1" class="text grob gDesc">
              <g id="GRID.text.3293.1.1" transform="translate(1330.19, 726.24)" stroke-width="0.1">
                <g id="GRID.text.3293.1.1.scale" transform="scale(1, -1)">
                  <text x="0" y="0" id="GRID.text.3293.1.1.text" text-anchor="middle" stroke="rgb(255,255,255)" fill="rgb(255,255,255)" stroke-opacity="1" fill-opacity="1" font-size="3.01">
                    <tspan id="GRID.text.3293.1.1.tspan.1" dy="1.04" x="0">Telecommunication</tspan>
                  </text>
                </g>
              </g>
            </g>
            <g id="GRID.text.3294.1" class="text grob gDesc">
              <g id="GRID.text.3294.1.1" transform="translate(854.03, 923.07)" stroke-width="0.1">
                <g id="GRID.text.3294.1.1.scale" transform="scale(1, -1)">
                  <text x="0" y="0" id="GRID.text.3294.1.1.text" text-anchor="middle" stroke="rgb(255,255,255)" fill="rgb(255,255,255)" stroke-opacity="1" fill-opacity="1" font-size="7.55">
                    <tspan id="GRID.text.3294.1.1.tspan.1" dy="2.6" x="0">Telecommunication</tspan>
                  </text>
                </g>
              </g>
            </g>
            <g id="GRID.text.3295.1" class="text grob gDesc">
              <g id="GRID.text.3295.1.1" transform="translate(1150.12, 1085.77)" stroke-width="0.1">
                <g id="GRID.text.3295.1.1.scale" transform="scale(1, -1)">
                  <text x="0" y="0" id="GRID.text.3295.1.1.text" text-anchor="middle" stroke="rgb(255,255,255)" fill="rgb(255,255,255)" stroke-opacity="1" fill-opacity="1" font-size="9.32">
                    <tspan id="GRID.text.3295.1.1.tspan.1" dy="3.2" x="0">Technology</tspan>
                  </text>
                </g>
              </g>
            </g>
            <g id="GRID.text.3296.1" class="text grob gDesc">
              <g id="GRID.text.3296.1.1" transform="translate(593.18, 1256.4)" stroke-width="0.1">
                <g id="GRID.text.3296.1.1.scale" transform="scale(1, -1)">
                  <text x="0" y="0" id="GRID.text.3296.1.1.text" text-anchor="middle" stroke="rgb(255,255,255)" fill="rgb(255,255,255)" stroke-opacity="1" fill-opacity="1" font-size="14.59">
                    <tspan id="GRID.text.3296.1.1.tspan.1" dy="5.02" x="0">Technology</tspan>
                  </text>
                </g>
              </g>
            </g>
            <g id="GRID.text.3297.1" class="text grob gDesc">
              <g id="GRID.text.3297.1.1" transform="translate(1239.34, 652.95)" stroke-width="0.1">
                <g id="GRID.text.3297.1.1.scale" transform="scale(1, -1)">
                  <text x="0" y="0" id="GRID.text.3297.1.1.text" text-anchor="middle" stroke="rgb(255,255,255)" fill="rgb(255,255,255)" stroke-opacity="1" fill-opacity="1" font-size="9.21">
                    <tspan id="GRID.text.3297.1.1.tspan.1" dy="3.17" x="0">Technology</tspan>
                  </text>
                </g>
              </g>
            </g>
            <g id="GRID.text.3298.1" class="text grob gDesc">
              <g id="GRID.text.3298.1.1" transform="translate(576.85, 702.69)" stroke-width="0.1">
                <g id="GRID.text.3298.1.1.scale" transform="scale(1, -1)">
                  <text x="0" y="0" id="GRID.text.3298.1.1.text" text-anchor="middle" stroke="rgb(255,255,255)" fill="rgb(255,255,255)" stroke-opacity="1" fill-opacity="1" font-size="32.14">
                    <tspan id="GRID.text.3298.1.1.tspan.1" dy="11.05" x="0">Technology</tspan>
                  </text>
                </g>
              </g>
            </g>
            <g id="GRID.text.3299.1" class="text grob gDesc">
              <g id="GRID.text.3299.1.1" transform="translate(1115.41, 1175.89)" stroke-width="0.1">
                <g id="GRID.text.3299.1.1.scale" transform="scale(1, -1)">
                  <text x="0" y="0" id="GRID.text.3299.1.1.text" text-anchor="middle" stroke="rgb(255,255,255)" fill="rgb(255,255,255)" stroke-opacity="1" fill-opacity="1" font-size="5.11">
                    <tspan id="GRID.text.3299.1.1.tspan.1" dy="1.76" x="0">Oil &amp; Gas</tspan>
                  </text>
                </g>
              </g>
            </g>
            <g id="GRID.text.3300.1" class="text grob gDesc">
              <g id="GRID.text.3300.1.1" transform="translate(1183.88, 423.88)" stroke-width="0.1">
                <g id="GRID.text.3300.1.1.scale" transform="scale(1, -1)">
                  <text x="0" y="0" id="GRID.text.3300.1.1.text" text-anchor="middle" stroke="rgb(255,255,255)" fill="rgb(255,255,255)" stroke-opacity="1" fill-opacity="1" font-size="10.78">
                    <tspan id="GRID.text.3300.1.1.tspan.1" dy="3.71" x="0">Oil &amp; Gas</tspan>
                  </text>
                </g>
              </g>
            </g>
            <g id="GRID.text.3301.1" class="text grob gDesc">
              <g id="GRID.text.3301.1.1" transform="translate(1247.37, 996.02)" stroke-width="0.1">
                <g id="GRID.text.3301.1.1.scale" transform="scale(1, -1)">
                  <text x="0" y="0" id="GRID.text.3301.1.1.text" text-anchor="middle" stroke="rgb(255,255,255)" fill="rgb(255,255,255)" stroke-opacity="1" fill-opacity="1" font-size="6.3">
                    <tspan id="GRID.text.3301.1.1.tspan.1" dy="2.17" x="0">Industrials</tspan>
                  </text>
                </g>
              </g>
            </g>
            <g id="GRID.text.3302.1" class="text grob gDesc">
              <g id="GRID.text.3302.1.1" transform="translate(1044.04, 666.93)" stroke-width="0.1">
                <g id="GRID.text.3302.1.1.scale" transform="scale(1, -1)">
                  <text x="0" y="0" id="GRID.text.3302.1.1.text" text-anchor="middle" stroke="rgb(255,255,255)" fill="rgb(255,255,255)" stroke-opacity="1" fill-opacity="1" font-size="13.85">
                    <tspan id="GRID.text.3302.1.1.tspan.1" dy="4.76" x="0">Industrials</tspan>
                  </text>
                </g>
              </g>
            </g>
            <g id="GRID.text.3303.1" class="text grob gDesc">
              <g id="GRID.text.3303.1.1" transform="translate(1108.7, 895.55)" stroke-width="0.1">
                <g id="GRID.text.3303.1.1.scale" transform="scale(1, -1)">
                  <text x="0" y="0" id="GRID.text.3303.1.1.text" text-anchor="middle" stroke="rgb(255,255,255)" fill="rgb(255,255,255)" stroke-opacity="1" fill-opacity="1" font-size="10.44">
                    <tspan id="GRID.text.3303.1.1.tspan.1" dy="3.59" x="0">Health Care</tspan>
                  </text>
                </g>
              </g>
            </g>
            <g id="GRID.text.3304.1" class="text grob gDesc">
              <g id="GRID.text.3304.1.1" transform="translate(945.44, 434.82)" stroke-width="0.1">
                <g id="GRID.text.3304.1.1.scale" transform="scale(1, -1)">
                  <text x="0" y="0" id="GRID.text.3304.1.1.text" text-anchor="middle" stroke="rgb(255,255,255)" fill="rgb(255,255,255)" stroke-opacity="1" fill-opacity="1" font-size="16.42">
                    <tspan id="GRID.text.3304.1.1.tspan.1" dy="5.65" x="0">Health Care</tspan>
                  </text>
                </g>
              </g>
            </g>
            <g id="GRID.text.3305.1" class="text grob gDesc">
              <g id="GRID.text.3305.1.1" transform="translate(670.39, 1093.4)" stroke-width="0.1">
                <g id="GRID.text.3305.1.1.scale" transform="scale(1, -1)">
                  <text x="0" y="0" id="GRID.text.3305.1.1.text" text-anchor="middle" stroke="rgb(255,255,255)" fill="rgb(255,255,255)" stroke-opacity="1" fill-opacity="1" font-size="14.06">
                    <tspan id="GRID.text.3305.1.1.tspan.1" dy="4.84" x="0">Financials</tspan>
                  </text>
                </g>
              </g>
            </g>
            <g id="GRID.text.3306.1" class="text grob gDesc">
              <g id="GRID.text.3306.1.1" transform="translate(165.83, 697.11)" stroke-width="0.1">
                <g id="GRID.text.3306.1.1.scale" transform="scale(1, -1)">
                  <text x="0" y="0" id="GRID.text.3306.1.1.text" text-anchor="middle" stroke="rgb(255,255,255)" fill="rgb(255,255,255)" stroke-opacity="1" fill-opacity="1" font-size="14.96">
                    <tspan id="GRID.text.3306.1.1.tspan.1" dy="5.15" x="0">Financials</tspan>
                  </text>
                </g>
              </g>
            </g>
            <g id="GRID.text.3307.1" class="text grob gDesc">
              <g id="GRID.text.3307.1.1" transform="translate(284.37, 416.55)" stroke-width="0.1">
                <g id="GRID.text.3307.1.1.scale" transform="scale(1, -1)">
                  <text x="0" y="0" id="GRID.text.3307.1.1.text" text-anchor="middle" stroke="rgb(255,255,255)" fill="rgb(255,255,255)" stroke-opacity="1" fill-opacity="1" font-size="16.2">
                    <tspan id="GRID.text.3307.1.1.tspan.1" dy="5.57" x="0">Financials</tspan>
                  </text>
                </g>
              </g>
            </g>
            <g id="GRID.text.3308.1" class="text grob gDesc">
              <g id="GRID.text.3308.1.1" transform="translate(920.6, 1197.42)" stroke-width="0.1">
                <g id="GRID.text.3308.1.1.scale" transform="scale(1, -1)">
                  <text x="0" y="0" id="GRID.text.3308.1.1.text" text-anchor="middle" stroke="rgb(255,255,255)" fill="rgb(255,255,255)" stroke-opacity="1" fill-opacity="1" font-size="27.86">
                    <tspan id="GRID.text.3308.1.1.tspan.1" dy="9.58" x="0">Energy</tspan>
                  </text>
                </g>
              </g>
            </g>
            <g id="GRID.text.3309.1" class="text grob gDesc">
              <g id="GRID.text.3309.1.1" transform="translate(1327.72, 607.56)" stroke-width="0.1">
                <g id="GRID.text.3309.1.1.scale" transform="scale(1, -1)">
                  <text x="0" y="0" id="GRID.text.3309.1.1.text" text-anchor="middle" stroke="rgb(255,255,255)" fill="rgb(255,255,255)" stroke-opacity="1" fill-opacity="1" font-size="8.5">
                    <tspan id="GRID.text.3309.1.1.tspan.1" dy="2.92" x="0">Energy</tspan>
                  </text>
                </g>
              </g>
            </g>
            <g id="GRID.text.3310.1" class="text grob gDesc">
              <g id="GRID.text.3310.1.1" transform="translate(1098.56, 274.45)" stroke-width="0.1">
                <g id="GRID.text.3310.1.1.scale" transform="scale(1, -1)">
                  <text x="0" y="0" id="GRID.text.3310.1.1.text" text-anchor="middle" stroke="rgb(255,255,255)" fill="rgb(255,255,255)" stroke-opacity="1" fill-opacity="1" font-size="16.09">
                    <tspan id="GRID.text.3310.1.1.tspan.1" dy="5.54" x="0">Energy</tspan>
                  </text>
                </g>
              </g>
            </g>
            <g id="GRID.text.3311.1" class="text grob gDesc">
              <g id="GRID.text.3311.1.1" transform="translate(1007.76, 1014.98)" stroke-width="0.1">
                <g id="GRID.text.3311.1.1.scale" transform="scale(1, -1)">
                  <text x="0" y="0" id="GRID.text.3311.1.1.text" text-anchor="middle" stroke="rgb(255,255,255)" fill="rgb(255,255,255)" stroke-opacity="1" fill-opacity="1" font-size="5.8">
                    <tspan id="GRID.text.3311.1.1.tspan.1" dy="1.99" x="0">Consumer Staples</tspan>
                  </text>
                </g>
              </g>
            </g>
            <g id="GRID.text.3312.1" class="text grob gDesc">
              <g id="GRID.text.3312.1.1" transform="translate(466.73, 1039.78)" stroke-width="0.1">
                <g id="GRID.text.3312.1.1.scale" transform="scale(1, -1)">
                  <text x="0" y="0" id="GRID.text.3312.1.1.text" text-anchor="middle" stroke="rgb(255,255,255)" fill="rgb(255,255,255)" stroke-opacity="1" fill-opacity="1" font-size="5.58">
                    <tspan id="GRID.text.3312.1.1.tspan.1" dy="1.92" x="0">Consumer Staples</tspan>
                  </text>
                </g>
              </g>
            </g>
            <g id="GRID.text.3313.1" class="text grob gDesc">
              <g id="GRID.text.3313.1.1" transform="translate(917.69, 184.72)" stroke-width="0.1">
                <g id="GRID.text.3313.1.1.scale" transform="scale(1, -1)">
                  <text x="0" y="0" id="GRID.text.3313.1.1.text" text-anchor="middle" stroke="rgb(255,255,255)" fill="rgb(255,255,255)" stroke-opacity="1" fill-opacity="1" font-size="6.88">
                    <tspan id="GRID.text.3313.1.1.tspan.1" dy="2.37" x="0">Consumer Staples</tspan>
                  </text>
                </g>
              </g>
            </g>
            <g id="GRID.text.3314.1" class="text grob gDesc">
              <g id="GRID.text.3314.1.1" transform="translate(1274.61, 846.76)" stroke-width="0.1">
                <g id="GRID.text.3314.1.1.scale" transform="scale(1, -1)">
                  <text x="0" y="0" id="GRID.text.3314.1.1.text" text-anchor="middle" stroke="rgb(255,255,255)" fill="rgb(255,255,255)" stroke-opacity="1" fill-opacity="1" font-size="4.66">
                    <tspan id="GRID.text.3314.1.1.tspan.1" dy="1.6" x="0">Consumer Discretionary</tspan>
                  </text>
                </g>
              </g>
            </g>
            <g id="GRID.text.3315.1" class="text grob gDesc">
              <g id="GRID.text.3315.1.1" transform="translate(386.31, 1179.41)" stroke-width="0.1">
                <g id="GRID.text.3315.1.1.scale" transform="scale(1, -1)">
                  <text x="0" y="0" id="GRID.text.3315.1.1.text" text-anchor="middle" stroke="rgb(255,255,255)" fill="rgb(255,255,255)" stroke-opacity="1" fill-opacity="1" font-size="4.39">
                    <tspan id="GRID.text.3315.1.1.tspan.1" dy="1.51" x="0">Consumer Discretionary</tspan>
                  </text>
                </g>
              </g>
            </g>
            <g id="GRID.text.3316.1" class="text grob gDesc">
              <g id="GRID.text.3316.1.1" transform="translate(1267.75, 502.82)" stroke-width="0.1">
                <g id="GRID.text.3316.1.1.scale" transform="scale(1, -1)">
                  <text x="0" y="0" id="GRID.text.3316.1.1.text" text-anchor="middle" stroke="rgb(255,255,255)" fill="rgb(255,255,255)" stroke-opacity="1" fill-opacity="1" font-size="3.46">
                    <tspan id="GRID.text.3316.1.1.tspan.1" dy="1.19" x="0">Consumer Discretionary</tspan>
                  </text>
                </g>
              </g>
            </g>
            <g id="GRID.text.3317.1" class="text grob gDesc">
              <g id="GRID.text.3317.1.1" transform="translate(611.45, 262.08)" stroke-width="0.1">
                <g id="GRID.text.3317.1.1.scale" transform="scale(1, -1)">
                  <text x="0" y="0" id="GRID.text.3317.1.1.text" text-anchor="middle" stroke="rgb(255,255,255)" fill="rgb(255,255,255)" stroke-opacity="1" fill-opacity="1" font-size="10.92">
                    <tspan id="GRID.text.3317.1.1.tspan.1" dy="3.76" x="0">Consumer Discretionary</tspan>
                  </text>
                </g>
              </g>
            </g>
            <g id="GRID.text.3318.1" class="text grob gDesc">
              <g id="GRID.text.3318.1.1" transform="translate(261.88, 982.72)" stroke-width="0.1">
                <g id="GRID.text.3318.1.1.scale" transform="scale(1, -1)">
                  <text x="0" y="0" id="GRID.text.3318.1.1.text" text-anchor="middle" stroke="rgb(255,255,255)" fill="rgb(255,255,255)" stroke-opacity="1" fill-opacity="1" font-size="11.05">
                    <tspan id="GRID.text.3318.1.1.tspan.1" dy="3.8" x="0">Basic Materials</tspan>
                  </text>
                </g>
              </g>
            </g>
            <g id="GRID.text.3319.1" class="text grob gDesc">
              <g id="GRID.text.3319.1.1" transform="translate(1174.46, 766.96)" stroke-width="0.1">
                <g id="GRID.text.3319.1.1.scale" transform="scale(1, -1)">
                  <text x="0" y="0" id="GRID.text.3319.1.1.text" text-anchor="middle" stroke="rgb(255,255,255)" fill="rgb(255,255,255)" stroke-opacity="1" fill-opacity="1" font-size="3.11">
                    <tspan id="GRID.text.3319.1.1.tspan.1" dy="1.07" x="0">Basic Materials</tspan>
                  </text>
                </g>
              </g>
            </g>
          </g>
        </g>
      </g>
    </g>
  </g>
</svg>