<svg id="Layer_1" data-name="Layer 1" xmlns="http://www.w3.org/2000/svg" viewBox="0 0 985.98 839.91"><defs><style>.cls-1,.cls-2{fill:#585856;}.cls-2{fill-rule:evenodd;}.cls-3{fill:#cebfd1;}.cls-4{fill:#ba98ba;}.cls-5{fill:#8a2578;}.cls-6{fill:#010101;}</style></defs><path class="cls-1" d="M961.71,460.81c4.69,5.49,9.24,11.17,15.66,14.78,2.89,1.64,6.08,2.83,9.91,4.57a26.54,26.54,0,0,0-10.28-18c-3.52-2.84-8.52-4.15-11.34-7.45a134.68,134.68,0,0,1-14.2-20.42c-4.89-8.67-8.83-17.8-13.12-26.82-3.07-6.5-6.22-13-8.92-19.62-3.19-7.81-6.14-15.74-8.84-23.72q-5.07-15-9.49-30.14c-1.92-6.53-3.32-13.23-5-19.85-1.59-6.25-2.5-12.81-5-18.67a299.66,299.66,0,0,0-14.94-30,184.39,184.39,0,0,0-14.72-21.42c-7-9-14-18.1-21.81-26.39a279.27,279.27,0,0,0-27.9-26.38c-9.2-7.42-19.51-13.53-29.59-19.75a138.37,138.37,0,0,0-19.54-10,300.38,300.38,0,0,0-29.12-10.39c-13.63-4-27.33-8.25-41.87-4.58-8,2-16.23,3.47-24.29,5.32-9.06,2.07-18.06,4.39-27.15,6.39-2.36.51-5.2.82-7.27-.06-7.84-3.29-15.4-7.39-23.24-10.77-13.46-5.77-27.64-6-41.9-4.52-8.77.89-17.5,2.37-26.28,3.13A111.42,111.42,0,0,0,519.73,154c-4.35,1.76-8.24,5.17-13.58,4.52a73.69,73.69,0,0,0-10,0c-6,.14-11.71-.74-16.87-3.86-9.46-5.68-18.8-11.54-28.29-17.19a79.9,79.9,0,0,0-34.55-10.94c-8.74-.77-17.77-1.24-26.1,2.7-8.94,4.27-17.75,8.81-26.5,13.49-5.34,2.9-10.54,6.11-15.57,9.52-7.18,4.86-14.11,10.09-21.24,15-4.09,2.84-8.53,5.13-12.42,8.21a46.82,46.82,0,0,1-16.11,8.12c-5.85,1.73-11.56,3.93-17.69,6-3.13-3.72-7.17-4-10.81-8.69-1.22-1.59-2.34-7.9-2.26-9.77.26-7.22.35-14.54,1.76-21.59a119.68,119.68,0,0,0,.74-43.83c-2.15-12.9-8-24.65-12.75-36.78-5.71-14.52-15.17-26.11-26-36.7A105.38,105.38,0,0,0,195.4,9c-6.85-2.64-14.32-3.24-20.65-7.87-3.87-2.81-7.11.06-7.22,5.09s.83,10.19-2,15c-.74,1.25-1.08,3.75,1.65,4.55,2.95.86,5.82,2,8.78,2.9,10.45,3.23,18.34,5.28,28,15.57,3.88,4.13,6.05,10.08,9,14.94C219.73,70,223.81,80,225.34,92.49c1.48,12,1.81,25.51-2.17,37-3.86,11.11-8,16.78-10.14,30.17-1.55,9.74-2.84,19.6,0,29.2,2.7,9.14,4.94,21,10.34,28.86,8.43,12.3,19,23,34.06,25.44,4.32.71,8.38,2.84,12.59,4.35C262,251,237,246,229.83,243c-12.11-5-20.48-7.45-20.48-7.45-.82,7.88,17.05,20.47,30.73,20.39-20.8.13-60.77.48-77.1-14.6a13.14,13.14,0,0,0-.57,5.79c1.48,8.21,7.24,13.18,13.55,17.81,9.49,7,20.79,9.06,31.84,10.85,16.36,2.61,53,1.08,68.92-4a30.15,30.15,0,0,1,7.93-1.7,72.8,72.8,0,0,1,11.13.68c3.35.4,7.16-.57,9,1.9.2,2.59-.12,4.35.51,5.63,1.19,2.36,3.35,1.51,5.26.77a8.68,8.68,0,0,1,1.47-.26c9.32-1.76,19-1.9,27.41-7.52,3.41-2.31,6.85-.57,9.49,2.52,4.29,5,9.15,9.12,15.54,11.25,3.4,1.14,6.75,2.5,10.06,3.95,4.8,2.13,9.54,4.43,14.28,6.64-.68,1.57-1.11,2.47-1.48,3.38-4.2,10.06-7.86,20.4-15.76,28.41a19.69,19.69,0,0,0-2.76,3.46c-2,3.21-1.27,8.38,1.46,10.23,2.35,1.59,4.88.2,7.89-3.58s6.48-7.41,9.86-11c2.63-2.79,5.54-5.38,8.15-8.19,2.92-3.18,5.7-6.53,8.12-9.32,14,7.9,26.73,15,39.43,22.28q17,9.7,33.81,19.74a4.62,4.62,0,0,1,2,3.43c-1.28,14.57-3.3,29.12-4,43.72-.91,17.27-1.16,34.57.91,51.87,1.34,10.85,1.45,21.87,1.79,32.83.28,9.26.06,18.52.17,27.79.17,11,1.2,22.18.57,33.17-.85,14.54-2.92,29-4.54,43.49a22.8,22.8,0,0,1-1.51,6.11c-3.26,7.78-9.71,13-15.31,18.89-.63.68-1.85.82-2.39,1.5-1.7,2.07-3.23,4.23-4.74,6.42s-4,4.55-4.52,7.1c-1.47,7.76-1.39,9.43,6.16,10.91,1.82.34,3.5,1.3,5.29,1.79,3.18.88,6.36,2,9.6,2.3,4.92.4,9.89.15,14.86.15,11.9,0,23.77.1,35.65-.06,4.17-.06,8.46-.06,11.86-3.35a5.93,5.93,0,0,1,3.79-1.37c9.59.06,19.2.11,28.77.46,15,.59,29.85,1.44,44.77,2a6.4,6.4,0,0,0,4.17-1.79c5.23-4.91,6-11.64,2.56-19.31-1.28-2.82-3.1-5.6-3.58-8.56-1.42-9.06-2.59-18.2-3.26-27.35-.4-5.43.62-11,.45-16.41-.32-10.2-1.39-20.37-1.42-30.57,0-9.17.94-18.35,1.51-27.55,1-17.36,2.27-34.71,6.33-51.73,1.31-5.48,3.49-10.54,7.52-14.63,6.14,3.07,12.19,5.94,18.13,9,8.29,4.37,16.9,8.32,26.13,9.17,13.89,1.28,27.92,1.19,41.87,1.68,1.76.08,3.49.06,5.26.14,7,.25,13.94.93,20.88.68,10.67-.43,21.33-1.59,32-2.27a3.45,3.45,0,0,1,2.81,1.59,130.69,130.69,0,0,1,3.83,13.18,58.81,58.81,0,0,0,16.51,29c8.09,8,16.84,15.42,24.25,24a108.19,108.19,0,0,1,14.94,22.61c3.84,7.73,6.06,16.3,8.5,24.63,1.48,5.14,2.13,10.73-.71,15.68A163.09,163.09,0,0,1,824.63,608c-2.64,3.46-6.36,6.08-9.29,9.31a87.14,87.14,0,0,0-9,11.22c-2.64,4.15-.68,8.49,3.89,10.2a13.11,13.11,0,0,1,1.5.74c-.54,3.38-1.1,6.56-1.55,9.77-.32,2.24.17,3.81,3,4,10.17.8,20.31,2.16,30.47,2.59,8.47.37,17-.15,25.46-.52,6.45-.31,12.93-.93,19.37-1.61,6.73-.72,11.3-5.08,11.56-11.91a35,35,0,0,0-1.73-11.16c-2.85-9.2-1.53-18.29-.22-27.44,2.41-17.41,3.26-34.83-.38-52.15-1.59-7.53-3.94-14.91-5.94-22.33-3-11.13-5.84-22.32-9.09-33.4-2.21-7.5-3.49-14.94-1.41-22.67,1.1-4.18,2.35-8.32,3.29-12.55,2.84-12.73,6.59-25.34,6.54-38.49-.15-27.27-.55-54.51-.86-81.75v-5.8c4.18,2,6.64,4.34,7.87,8.07,1.9,5.76,3.72,11.59,6,17.21,5.27,13,11.16,25.73,16.18,38.8a153.6,153.6,0,0,0,20.2,37.19c6.62,8.86,14.09,17,21.27,25.47M552,584.8c3.69,7.39.6,12.82-3.84,18.33-3.83,4.83-7.44,9.88-11.19,14.8-1.19,1.53-2.45,3-4.46,5.39-1.5-6-2.92-10.76-3.92-15.68-1.65-8.2-2.56-16.27,1.42-24.34,3.32-6.76,2.16-14.26,1.25-21.39a101.61,101.61,0,0,1,1.88-36.38c1.67-7.11,3.44-14.21,5.14-21.28a6.51,6.51,0,0,1,.73-.06c1.31,10.31,2.56,20.62,3.93,30.93,1.64,12.31,3.26,24.6,5.22,36.85A45.19,45.19,0,0,0,552,584.8" transform="translate(-1.3)"/><path class="cls-2" d="M315,265.87s-1.84,1.93,7.37-4.48S325,245.1,325,245.1c-5.57-8.27-6.54-14.94-18-8.11-24.81,14.79-76.5,19.31-69.9,19,61.83-3.07,80.31-29.67,83.49-11.66,1.9,10.81,5.15,16.87-11.25,19.86-12.13,2.22,5.66,1.69,5.66,1.69" transform="translate(-1.3)"/><path class="cls-2" d="M267.93,169.15s.46,1.73-10.9,5.15c-10.83,3.27-12.83,4.26-12.83,4.26s17.39-1.33,23.73-4.26Z" transform="translate(-1.3)"/><path class="cls-2" d="M268.9,152.5s.21,1.47-10.42,3.56c-10.84,2.13-12.09,2.54-12.09,2.54s15.92.59,22-1.41Z" transform="translate(-1.3)"/><path class="cls-2" d="M271.64,134.52s.23,1.53-10.42,3.58c-11,2.1-12.09,2.56-12.09,2.56s15.93.55,22-1.46Z" transform="translate(-1.3)"/><path class="cls-2" d="M272.05,183.08s-1.19,3.79-8.77,8c-12.64,7-14.37,8.1-14.37,8.1s19.6-5.34,26-14a7.85,7.85,0,0,1-1.53-1,7.48,7.48,0,0,0-1.36-1.09" transform="translate(-1.3)"/><path class="cls-2" d="M272.16,116.38s.23,1.11-8.58,3.6l-10,2.85S267,122.4,272,120.36Z" transform="translate(-1.3)"/><path class="cls-2" d="M268.77,96.23s.26,1-7.24,3.59l-8.55,3s11.64-1.12,15.86-3.16Z" transform="translate(-1.3)"/><path class="cls-2" d="M252.63,56.9s.81,1.32-6,5.39-7.44,5.19-7.44,5.19,10.93-4.18,14.45-7.27Z" transform="translate(-1.3)"/><path class="cls-2" d="M261.31,76.21s.75,1.37-6.28,5.09-7.69,4.8-7.69,4.8,11.12-3.62,14.79-6.53Z" transform="translate(-1.3)"/><path class="cls-3" d="M565.1,295.19a3.36,3.36,0,0,1,1.08,2.66c0,2.4-1.45,3.6-4.33,3.6h-3.67v5.69a4.61,4.61,0,0,1-1.26,3.46,5,5,0,0,1-6.55,0,4.61,4.61,0,0,1-1.26-3.46v-5.69H530.25a4,4,0,0,1-3-1.11,3.85,3.85,0,0,1-1.08-2.78,5.56,5.56,0,0,1,1.16-3.31l22.24-32a4.79,4.79,0,0,1,1.8-1.55,5,5,0,0,1,2.23-.54,4.72,4.72,0,0,1,3.24,1.22,4.38,4.38,0,0,1,1.37,3.46v29.37h3.67A4.87,4.87,0,0,1,565.1,295.19Zm-16-.94V274.89l-13.39,19.36Z" transform="translate(-1.3)"/><path class="cls-3" d="M601.35,281a14.52,14.52,0,0,1,5.65,5.72,17.29,17.29,0,0,1,2,8.43,16.86,16.86,0,0,1-2.27,8.78,15.47,15.47,0,0,1-6.41,5.94A20.56,20.56,0,0,1,590.8,312a26.8,26.8,0,0,1-8.75-1.48,22.91,22.91,0,0,1-7.31-4,4.37,4.37,0,0,1-1.65-3.38,4.15,4.15,0,0,1,.9-2.7,2.67,2.67,0,0,1,2.12-1.12,3.71,3.71,0,0,1,1.37.26,8,8,0,0,1,1.51.82,27.06,27.06,0,0,0,5.62,3.1,15.69,15.69,0,0,0,5.83,1.08q4.75,0,7.27-2.38a8.85,8.85,0,0,0,2.52-6.77,9,9,0,0,0-2.55-6.73,9.7,9.7,0,0,0-7-2.48,14.62,14.62,0,0,0-5,.79,16,16,0,0,0-4.5,2.66,4.88,4.88,0,0,1-2.81.94,3.64,3.64,0,0,1-2.44-.86,2.88,2.88,0,0,1-1-2.31V265a4.29,4.29,0,0,1,1.15-3.17,4.38,4.38,0,0,1,3.24-1.15h24c2.89,0,4.32,1.2,4.32,3.6s-1.43,3.6-4.32,3.6H584v13.68a15.2,15.2,0,0,1,9-2.59A16.77,16.77,0,0,1,601.35,281Z" transform="translate(-1.3)"/><path class="cls-3" d="M649.66,289.68a14,14,0,0,1-2.41,18.4q-4.83,3.89-13,3.89a28.28,28.28,0,0,1-9-1.45,21.48,21.48,0,0,1-7.34-4,4.38,4.38,0,0,1-1.66-3.38,4.15,4.15,0,0,1,.9-2.7,2.69,2.69,0,0,1,2.13-1.12,3.13,3.13,0,0,1,1.29.26,16.67,16.67,0,0,1,1.59.82,30.39,30.39,0,0,0,5.76,3.1,16.09,16.09,0,0,0,6,1.08q4.75,0,7.06-1.91t2.3-5.79a6.66,6.66,0,0,0-2.41-5.66q-2.41-1.83-7.45-1.83h-4.1a3.08,3.08,0,0,1-2.56-1.12,4.13,4.13,0,0,1,0-5.15,3.14,3.14,0,0,1,2.56-1.08h2.88q9.86,0,9.86-7.41a6.79,6.79,0,0,0-2.09-5.33,8.3,8.3,0,0,0-5.76-1.87q-5.25,0-11.23,4.17a17.33,17.33,0,0,1-1.58.83,3.21,3.21,0,0,1-1.3.25,2.66,2.66,0,0,1-2.12-1.11,4.19,4.19,0,0,1-.9-2.7,4,4,0,0,1,.39-1.84,6,6,0,0,1,1.26-1.55,23.07,23.07,0,0,1,7.24-4,25.67,25.67,0,0,1,8.6-1.48q7.49,0,11.92,3.67a12.1,12.1,0,0,1,4.43,9.79,13.16,13.16,0,0,1-2.2,7.31,12.09,12.09,0,0,1-5.94,4.57A12.14,12.14,0,0,1,649.66,289.68Z" transform="translate(-1.3)"/><path class="cls-3" d="M670,302.82a8,8,0,0,1,1.51,5.26,16.51,16.51,0,0,1-4.75,11.81,2.85,2.85,0,0,1-2,.93,2.69,2.69,0,0,1-1.87-.72,2.25,2.25,0,0,1-.79-1.73,2.43,2.43,0,0,1,.72-1.65,11,11,0,0,0,2.8-5.19,5.22,5.22,0,0,1-3.41-1.62,4.86,4.86,0,0,1-1.34-3.49,5.39,5.39,0,0,1,1.48-3.85,5.24,5.24,0,0,1,7.67.25Z" transform="translate(-1.3)"/><path class="cls-3" d="M712.15,289.68a12.85,12.85,0,0,1,2.41,8,12.71,12.71,0,0,1-4.82,10.44q-4.83,3.89-13,3.89a28.28,28.28,0,0,1-9-1.45,21.52,21.52,0,0,1-7.35-4,4.37,4.37,0,0,1-1.65-3.38,4.15,4.15,0,0,1,.9-2.7,2.68,2.68,0,0,1,2.12-1.12,3.21,3.21,0,0,1,1.3.26,16.75,16.75,0,0,1,1.58.82,31,31,0,0,0,5.76,3.1,16.18,16.18,0,0,0,6,1.08q4.75,0,7-1.91t2.31-5.79a6.69,6.69,0,0,0-2.41-5.66q-2.41-1.83-7.46-1.83h-4.1a3.06,3.06,0,0,1-2.55-1.12,4.1,4.1,0,0,1,0-5.15,3.12,3.12,0,0,1,2.55-1.08h2.88q9.87,0,9.86-7.41a6.79,6.79,0,0,0-2.08-5.33,8.34,8.34,0,0,0-5.76-1.87q-5.26,0-11.24,4.17a17.33,17.33,0,0,1-1.58.83,3.17,3.17,0,0,1-1.3.25,2.67,2.67,0,0,1-2.12-1.11,4.19,4.19,0,0,1-.9-2.7,3.88,3.88,0,0,1,.4-1.84,5.8,5.8,0,0,1,1.26-1.55,22.91,22.91,0,0,1,7.23-4A25.73,25.73,0,0,1,697,260q7.49,0,11.91,3.67a12.1,12.1,0,0,1,4.43,9.79,13.16,13.16,0,0,1-2.19,7.31,12.08,12.08,0,0,1-5.95,4.57A12.1,12.1,0,0,1,712.15,289.68Z" transform="translate(-1.3)"/><path class="cls-3" d="M754.92,266.5q5.22,6.51,5.22,18.61a38.36,38.36,0,0,1-2.45,14.36,20.35,20.35,0,0,1-7,9.33A18.12,18.12,0,0,1,739.91,312a24.54,24.54,0,0,1-8.25-1.48,21.24,21.24,0,0,1-7-4,5.33,5.33,0,0,1-1.33-1.54,4,4,0,0,1-.39-1.84,4.19,4.19,0,0,1,.9-2.7,2.67,2.67,0,0,1,2.12-1.12,3.71,3.71,0,0,1,1.37.26,10.57,10.57,0,0,1,1.58.82q6,4.19,10.66,4.18a9.33,9.33,0,0,0,8.28-4.86q3-4.86,3.17-13.64a12.5,12.5,0,0,1-5,5.15,14.61,14.61,0,0,1-7.42,1.9,15.71,15.71,0,0,1-8.06-2.05,14.36,14.36,0,0,1-5.51-5.76,17.67,17.67,0,0,1-2-8.46,17.31,17.31,0,0,1,2.2-8.75,15.71,15.71,0,0,1,6-6,17.6,17.6,0,0,1,8.75-2.16Q749.7,260,754.92,266.5Zm-7.85,16.77a9.13,9.13,0,0,0,2.49-6.66,9.25,9.25,0,0,0-2.49-6.73,8.68,8.68,0,0,0-6.51-2.56,8.26,8.26,0,0,0-6.34,2.56,9.52,9.52,0,0,0-2.38,6.73,9.38,9.38,0,0,0,2.38,6.7,8.3,8.3,0,0,0,6.34,2.52A8.65,8.65,0,0,0,747.07,283.27Z" transform="translate(-1.3)"/><path class="cls-3" d="M804.56,307.57q0,3.82-4.32,3.82H772.88a3.89,3.89,0,0,1-3-1.12,3.81,3.81,0,0,1-1.08-2.77,5.48,5.48,0,0,1,1.66-3.89L786.92,286a27.84,27.84,0,0,0,4.43-6.08,12.06,12.06,0,0,0,1.41-5.51,6.7,6.7,0,0,0-2-5.18,7.84,7.84,0,0,0-5.54-1.8,15.29,15.29,0,0,0-5.73,1.11,29.46,29.46,0,0,0-5.58,3.06,8.87,8.87,0,0,1-1.44.83,3.42,3.42,0,0,1-1.44.32,2.63,2.63,0,0,1-2.12-1.15,4.29,4.29,0,0,1-.9-2.73,4,4,0,0,1,.4-1.87,4.7,4.7,0,0,1,1.26-1.52,24.81,24.81,0,0,1,7.41-4,25.57,25.57,0,0,1,8.5-1.48q7.41,0,11.84,3.74a12.55,12.55,0,0,1,4.43,10.09,18.74,18.74,0,0,1-1.87,8.24,36.5,36.5,0,0,1-6.34,8.6L781.23,303.9h19C803.12,303.9,804.56,305.13,804.56,307.57Z" transform="translate(-1.3)"/><path class="cls-4" d="M124.57,484.94c0,1.63-.92,2.44-2.76,2.44H104.29a2.4,2.4,0,0,1-2.58-2.49,3.47,3.47,0,0,1,1.06-2.48l10.51-11.3a18,18,0,0,0,2.83-3.9,7.7,7.7,0,0,0,.9-3.52,4.29,4.29,0,0,0-1.24-3.32,5,5,0,0,0-3.55-1.15,9.7,9.7,0,0,0-3.67.71,18.64,18.64,0,0,0-3.57,2,5.85,5.85,0,0,1-.92.53,2.23,2.23,0,0,1-.92.21,1.68,1.68,0,0,1-1.36-.74,2.73,2.73,0,0,1-.58-1.75,2.65,2.65,0,0,1,.25-1.2,3.1,3.1,0,0,1,.81-1,16,16,0,0,1,4.75-2.56,16.43,16.43,0,0,1,5.44-.94,11.35,11.35,0,0,1,7.58,2.4,8,8,0,0,1,2.84,6.45,12,12,0,0,1-1.2,5.28,23.44,23.44,0,0,1-4.06,5.51l-8,8.48h12.17C123.65,482.59,124.57,483.37,124.57,484.94Z" transform="translate(-1.3)"/><path class="cls-4" d="M132.5,483.53q-3-4.26-3-12.42t3-12.38a11.23,11.23,0,0,1,17.61,0q3,4.27,3,12.38t-3,12.4a11.2,11.2,0,0,1-17.61,0Zm13.37-3.27q1.42-2.88,1.43-9.15T145.87,462a5.08,5.08,0,0,0-9.13,0q-1.43,2.86-1.43,9.13t1.43,9.15a5.06,5.06,0,0,0,9.13,0Z" transform="translate(-1.3)"/><path class="cls-4" d="M163.48,481.9a5.08,5.08,0,0,1,1,3.36,10.55,10.55,0,0,1-3,7.56,1.81,1.81,0,0,1-1.29.6,1.68,1.68,0,0,1-1.2-.46,1.43,1.43,0,0,1-.51-1.1,1.57,1.57,0,0,1,.46-1.07,7.12,7.12,0,0,0,1.8-3.31,3.44,3.44,0,0,1-2.19-1,3.13,3.13,0,0,1-.85-2.24,3.42,3.42,0,0,1,.94-2.46,3.36,3.36,0,0,1,4.91.16Z" transform="translate(-1.3)"/><path class="cls-4" d="M193.26,477a2.14,2.14,0,0,1,.69,1.71c0,1.53-.92,2.3-2.76,2.3h-2.35v3.64a3,3,0,0,1-.81,2.22,3.22,3.22,0,0,1-4.2,0,3,3,0,0,1-.8-2.22V481H171a2.6,2.6,0,0,1-1.94-.71,2.47,2.47,0,0,1-.69-1.78,3.57,3.57,0,0,1,.74-2.12l14.24-20.47a3.2,3.2,0,0,1,2.59-1.33,3,3,0,0,1,2.07.78,2.83,2.83,0,0,1,.88,2.21v18.81h2.35A3.08,3.08,0,0,1,193.26,477Zm-10.23-.6V464l-8.58,12.4Z" transform="translate(-1.3)"/><path class="cls-4" d="M200.59,483.53q-3-4.26-3-12.42t3-12.38a11.23,11.23,0,0,1,17.61,0q3,4.27,3,12.38t-3,12.4a11.2,11.2,0,0,1-17.61,0ZM214,480.26q1.42-2.88,1.43-9.15T214,462a5.08,5.08,0,0,0-9.13,0q-1.43,2.86-1.43,9.13t1.43,9.15a5.06,5.06,0,0,0,9.13,0Z" transform="translate(-1.3)"/><path class="cls-4" d="M245,467.91a9.17,9.17,0,0,1,3.62,3.66,11,11,0,0,1,1.29,5.39,10.78,10.78,0,0,1-1.45,5.63,9.88,9.88,0,0,1-4.11,3.8,13.12,13.12,0,0,1-6.1,1.36,17.12,17.12,0,0,1-5.61-.94,14.66,14.66,0,0,1-4.67-2.56,2.81,2.81,0,0,1-1.07-2.17,2.72,2.72,0,0,1,.58-1.73,1.73,1.73,0,0,1,1.36-.71,2.37,2.37,0,0,1,.88.16,5,5,0,0,1,1,.53,17.52,17.52,0,0,0,3.6,2A10.09,10.09,0,0,0,238,483a6.52,6.52,0,0,0,4.66-1.52,5.64,5.64,0,0,0,1.61-4.33,5.74,5.74,0,0,0-1.63-4.31,6.18,6.18,0,0,0-4.5-1.59,9.34,9.34,0,0,0-3.2.51,9.73,9.73,0,0,0-2.88,1.7,3.18,3.18,0,0,1-1.8.6,2.33,2.33,0,0,1-1.57-.55,1.85,1.85,0,0,1-.64-1.48V457.65a2.75,2.75,0,0,1,.73-2,2.84,2.84,0,0,1,2.08-.74h15.35c1.84,0,2.77.77,2.77,2.31s-.93,2.3-2.77,2.3H233.88v8.76a9.75,9.75,0,0,1,5.76-1.66A10.69,10.69,0,0,1,245,467.91Z" transform="translate(-1.3)"/><path class="cls-5" d="M425.65,685.61a12.58,12.58,0,0,1-4.85-.9,9.81,9.81,0,0,1-3.55-2.38,13.18,13.18,0,0,1-2.32-3.53,17.78,17.78,0,0,1-1.34-4.17,23.7,23.7,0,0,1-.41-4.43,20.65,20.65,0,0,1,.69-5.32A18.14,18.14,0,0,1,416,660a10.55,10.55,0,0,1,3.92-3.75,11.49,11.49,0,0,1,5.78-1.42,11.37,11.37,0,0,1,6.64,1.85,10,10,0,0,1,3.75,4.49l-4.6,2.08a8.93,8.93,0,0,0-2.49-2.68,5.88,5.88,0,0,0-3.3-.85,6.11,6.11,0,0,0-3.42,1A6.4,6.4,0,0,0,420,663.2a14.2,14.2,0,0,0-1.15,3.36,18.19,18.19,0,0,0-.36,3.64,14.22,14.22,0,0,0,1.85,7.32,5.88,5.88,0,0,0,5.34,3.15q3.41,0,5.7-3.83l4.73,1.79Q433,685.61,425.65,685.61Z" transform="translate(-1.3)"/><path class="cls-5" d="M451,685.61a9.2,9.2,0,0,1-7.27-3q-2.69-3-2.68-8.34t2.68-8.36a10.25,10.25,0,0,1,14.57,0q2.7,3,2.7,8.36t-2.68,8.34A9.25,9.25,0,0,1,451,685.61Zm0-4.77a4.42,4.42,0,0,0,3.69-1.74,7.84,7.84,0,0,0,1.34-4.86,8,8,0,0,0-1.34-4.89,4.38,4.38,0,0,0-3.69-1.79,4.3,4.3,0,0,0-3.61,1.81,7.91,7.91,0,0,0-1.36,4.87,7.74,7.74,0,0,0,1.34,4.83A4.3,4.3,0,0,0,451,680.84Z" transform="translate(-1.3)"/><path class="cls-5" d="M480.42,685.1V683a6.84,6.84,0,0,1-5.7,2.6,7.62,7.62,0,0,1-5.58-2.15c-1.44-1.43-2.17-3.7-2.17-6.79V663.35h5v12.43q0,5.06,4.09,5.06,4.38,0,4.38-5V663.35h5V685.1Z" transform="translate(-1.3)"/><path class="cls-5" d="M506.08,685.1V672.63q0-5.07-4-5.07-4.43,0-4.43,5V685.1h-5V663.35h5v2a7.09,7.09,0,0,1,5.75-2.55,7.54,7.54,0,0,1,5.55,2.13q2.14,2.13,2.15,6.76V685.1Z" transform="translate(-1.3)"/><path class="cls-5" d="M524.21,685.61q-5.07,0-5.07-5.58V667.69h-3.23v-4.34h3.23v-6.6l5-2.38v9h5v4.34h-5v11.36c0,1.39.61,2.09,1.83,2.09a7,7,0,0,0,3.41-1l-.6,4.47A9.77,9.77,0,0,1,524.21,685.61Z" transform="translate(-1.3)"/><path class="cls-5" d="M535.1,685.1V663.35h5v2.26a4.58,4.58,0,0,1,4.47-2.77,6,6,0,0,1,4,1.49l-.72,4.55a6.3,6.3,0,0,0-3.71-1.15,4,4,0,0,0-2.89,1.19,5.56,5.56,0,0,0-1.19,4V685.1Z" transform="translate(-1.3)"/><path class="cls-5" d="M558,659.5a2.8,2.8,0,0,1-2.08.87,3,3,0,0,1-3-3,2.79,2.79,0,0,1,.87-2.08,2.89,2.89,0,0,1,2.11-.85,2.9,2.9,0,0,1,2.93,2.93A2.89,2.89,0,0,1,558,659.5Zm-4.59,25.6V663.35h5V685.1Z" transform="translate(-1.3)"/><path class="cls-5" d="M574.59,685.61a9.32,9.32,0,0,1-7.34-3.05q-2.7-3-2.7-8.36t2.72-8.32a10.3,10.3,0,0,1,14.15-.44q2.66,2.59,2.66,7.61a24.94,24.94,0,0,1-.17,3.07H569.48a5.34,5.34,0,0,0,1.6,3.7,4.93,4.93,0,0,0,3.51,1.4,5.48,5.48,0,0,0,4.6-2.25l3.15,3.23A9.59,9.59,0,0,1,574.59,685.61ZM569.53,672h9.61a5.19,5.19,0,0,0-1.44-3.55,4.35,4.35,0,0,0-3.11-1.22,5.24,5.24,0,0,0-3.51,1.17A4.93,4.93,0,0,0,569.53,672Z" transform="translate(-1.3)"/><path class="cls-5" d="M596.8,685.61a12,12,0,0,1-4.95-1,8.06,8.06,0,0,1-3.51-2.72l3.4-2.89a7,7,0,0,0,5.06,2.3q3.54,0,3.54-2.13a1.82,1.82,0,0,0-.62-1.32,4.77,4.77,0,0,0-1.32-.92c-.47-.21-1.23-.53-2.28-.95a15.31,15.31,0,0,1-5.47-2.83,5.54,5.54,0,0,1-1.72-4.24,5.17,5.17,0,0,1,2.19-4.44,9.17,9.17,0,0,1,5.56-1.6,9.66,9.66,0,0,1,7.78,3.36L601,669a6.14,6.14,0,0,0-4.34-1.83c-2,0-2.94.6-2.94,1.79a1.83,1.83,0,0,0,1.08,1.53,17,17,0,0,0,3.18,1.32,15.38,15.38,0,0,1,5.34,2.81,5.75,5.75,0,0,1,1.8,4.51,5.64,5.64,0,0,1-2.25,4.79A10,10,0,0,1,596.8,685.61Z" transform="translate(-1.3)"/><path class="cls-5" d="M634.93,685.1v-1.75a7.64,7.64,0,0,1-5.79,2.26,8.35,8.35,0,0,1-5.68-1.9,6.67,6.67,0,0,1-2.19-5.34,6.24,6.24,0,0,1,2.49-5.36,9.89,9.89,0,0,1,6-1.83,10.36,10.36,0,0,1,5.15,1.15v-1.15a3.89,3.89,0,0,0-1-3,4.73,4.73,0,0,0-3.21-.94,11,11,0,0,0-6.47,2l-1.53-4a14.83,14.83,0,0,1,8.51-2.38,14.17,14.17,0,0,1,3,.28,9,9,0,0,1,2.68,1.08,5.32,5.32,0,0,1,2.15,2.55,10.9,10.9,0,0,1,.76,4.35v14Zm-4.85-3.88a6.46,6.46,0,0,0,4.85-2.08v-2.81a9.9,9.9,0,0,0-4.34-.89,6.36,6.36,0,0,0-3.23.72,2.38,2.38,0,0,0-1.24,2.21,2.48,2.48,0,0,0,1,2.09A4.86,4.86,0,0,0,630.08,681.22Z" transform="translate(-1.3)"/><path class="cls-5" d="M652.72,685.61q-5.07,0-5.07-5.58V667.69h-3.23v-4.34h3.23v-6.6l5-2.38v9h5v4.34h-5v11.36c0,1.39.61,2.09,1.83,2.09a7,7,0,0,0,3.41-1l-.6,4.47A9.74,9.74,0,0,1,652.72,685.61Z" transform="translate(-1.3)"/><path class="cls-5" d="M684.8,685.61a5.92,5.92,0,0,1-4.93-2.26v8l-5,2.3v-30.3h5V665a6.08,6.08,0,0,1,5-2.17,7.92,7.92,0,0,1,6.53,3q2.4,3,2.4,8.4c0,3.52-.82,6.3-2.47,8.32A8,8,0,0,1,684.8,685.61Zm-.72-4.77a4.07,4.07,0,0,0,3.49-1.7,8.3,8.3,0,0,0,1.23-4.9,8.57,8.57,0,0,0-1.23-4.85,4,4,0,0,0-3.49-1.83,4.77,4.77,0,0,0-4.21,2.13v9A4.84,4.84,0,0,0,684.08,680.84Z" transform="translate(-1.3)"/><path class="cls-5" d="M708.89,685.61a9.32,9.32,0,0,1-7.34-3.05q-2.7-3-2.7-8.36c0-3.52.9-6.29,2.72-8.32a10.3,10.3,0,0,1,14.15-.44q2.65,2.59,2.66,7.61a24.94,24.94,0,0,1-.17,3.07H703.78a5.34,5.34,0,0,0,1.6,3.7,4.93,4.93,0,0,0,3.51,1.4,5.48,5.48,0,0,0,4.6-2.25l3.14,3.23A9.57,9.57,0,0,1,708.89,685.61ZM703.83,672h9.61a5.19,5.19,0,0,0-1.44-3.55,4.35,4.35,0,0,0-3.11-1.22,5.24,5.24,0,0,0-3.51,1.17A4.93,4.93,0,0,0,703.83,672Z" transform="translate(-1.3)"/><path class="cls-5" d="M736.46,685.1v-1.75a7.61,7.61,0,0,1-5.78,2.26,8.33,8.33,0,0,1-5.68-1.9,6.65,6.65,0,0,1-2.2-5.34,6.24,6.24,0,0,1,2.49-5.36,9.89,9.89,0,0,1,6-1.83,10.33,10.33,0,0,1,5.15,1.15v-1.15a3.85,3.85,0,0,0-1-3,4.7,4.7,0,0,0-3.21-.94,11,11,0,0,0-6.47,2l-1.53-4a14.83,14.83,0,0,1,8.51-2.38,14.17,14.17,0,0,1,3,.28,9,9,0,0,1,2.68,1.08,5.32,5.32,0,0,1,2.15,2.55,10.9,10.9,0,0,1,.76,4.35v14Zm-4.85-3.88a6.46,6.46,0,0,0,4.85-2.08v-2.81a9.87,9.87,0,0,0-4.34-.89,6.36,6.36,0,0,0-3.23.72,2.39,2.39,0,0,0-1.23,2.21,2.48,2.48,0,0,0,1,2.09A4.82,4.82,0,0,0,731.61,681.22Z" transform="translate(-1.3)"/><path class="cls-5" d="M756.76,685.61a8.86,8.86,0,0,1-7.08-3q-2.62-3-2.62-8.34t2.62-8.36a8.84,8.84,0,0,1,7.08-3q6.74,0,8.64,6l-4.72,1.57a3.8,3.8,0,0,0-3.75-2.8,4.1,4.1,0,0,0-3.53,1.78,8.21,8.21,0,0,0-1.28,4.85,8.1,8.1,0,0,0,1.26,4.79,3.94,3.94,0,0,0,3.38,1.77,3.86,3.86,0,0,0,4-3.15l4.77,1.45Q763.62,685.61,756.76,685.61Z" transform="translate(-1.3)"/><path class="cls-5" d="M780,685.61a9.32,9.32,0,0,1-7.34-3.05q-2.7-3-2.7-8.36t2.73-8.32a10.29,10.29,0,0,1,14.14-.44c1.78,1.73,2.66,4.27,2.66,7.61a23.11,23.11,0,0,1-.17,3.07H774.85a5.29,5.29,0,0,0,1.59,3.7,4.93,4.93,0,0,0,3.51,1.4,5.46,5.46,0,0,0,4.6-2.25l3.15,3.23A9.57,9.57,0,0,1,780,685.61ZM774.89,672h9.62a5.24,5.24,0,0,0-1.45-3.55,4.35,4.35,0,0,0-3.11-1.22,5.26,5.26,0,0,0-3.51,1.17A4.93,4.93,0,0,0,774.89,672Z" transform="translate(-1.3)"/><path class="cls-5" d="M42.94,643.46a12.58,12.58,0,0,1-4.85-.9,9.81,9.81,0,0,1-3.55-2.38,13.18,13.18,0,0,1-2.32-3.53,17.78,17.78,0,0,1-1.34-4.17,23.7,23.7,0,0,1-.41-4.43,20.65,20.65,0,0,1,.69-5.32,18.14,18.14,0,0,1,2.08-4.91,10.55,10.55,0,0,1,3.92-3.75,11.49,11.49,0,0,1,5.78-1.42,11.37,11.37,0,0,1,6.64,1.85A10,10,0,0,1,53.33,619l-4.6,2.08a8.93,8.93,0,0,0-2.49-2.68,5.94,5.94,0,0,0-3.3-.85,6.11,6.11,0,0,0-3.42,1,6.4,6.4,0,0,0-2.26,2.55,14.2,14.2,0,0,0-1.15,3.36,18.19,18.19,0,0,0-.36,3.64,14.22,14.22,0,0,0,1.85,7.32,5.88,5.88,0,0,0,5.34,3.15q3.41,0,5.71-3.83l4.72,1.79Q50.27,643.45,42.94,643.46Z" transform="translate(-1.3)"/><path class="cls-5" d="M68.3,643.46a9.24,9.24,0,0,1-7.27-3q-2.69-3-2.68-8.35T61,623.73a9.19,9.19,0,0,1,7.27-3,9.26,9.26,0,0,1,7.3,3c1.8,2,2.71,4.82,2.71,8.36s-.9,6.33-2.69,8.35A9.28,9.28,0,0,1,68.3,643.46Zm0-4.77A4.42,4.42,0,0,0,72,637a7.84,7.84,0,0,0,1.34-4.86A8,8,0,0,0,72,627.2a4.38,4.38,0,0,0-3.69-1.79,4.32,4.32,0,0,0-3.61,1.81,7.91,7.91,0,0,0-1.36,4.87,7.74,7.74,0,0,0,1.34,4.83A4.3,4.3,0,0,0,68.3,638.69Z" transform="translate(-1.3)"/><path class="cls-5" d="M97.71,643v-2.09a6.84,6.84,0,0,1-5.7,2.6,7.62,7.62,0,0,1-5.58-2.15c-1.44-1.43-2.17-3.7-2.17-6.79V621.2h5v12.43q0,5.05,4.09,5.06,4.38,0,4.38-5V621.2h5V643Z" transform="translate(-1.3)"/><path class="cls-5" d="M123.33,643V630.48q0-5.07-4-5.07-4.43,0-4.42,5V643h-5V621.2h5v2a7.09,7.09,0,0,1,5.74-2.55,7.58,7.58,0,0,1,5.56,2.13q2.15,2.13,2.15,6.76V643Z" transform="translate(-1.3)"/><path class="cls-5" d="M141.5,643.46q-5.07,0-5.07-5.58V625.54H133.2V621.2h3.23v-6.6l5-2.38v9h5v4.34h-5V636.9c0,1.39.61,2.09,1.83,2.09a7,7,0,0,0,3.41-1l-.6,4.47A9.77,9.77,0,0,1,141.5,643.46Z" transform="translate(-1.3)"/><path class="cls-5" d="M152.39,643V621.2h5v2.26a4.58,4.58,0,0,1,4.47-2.77,6,6,0,0,1,4,1.49l-.72,4.55a6.3,6.3,0,0,0-3.71-1.15,3.92,3.92,0,0,0-2.89,1.2,5.53,5.53,0,0,0-1.19,4V643Z" transform="translate(-1.3)"/><path class="cls-5" d="M175.2,617.35a2.81,2.81,0,0,1-2.09.87,3,3,0,0,1-3-3,2.8,2.8,0,0,1,.87-2.08,2.88,2.88,0,0,1,2.1-.85,2.9,2.9,0,0,1,2.94,2.93A2.89,2.89,0,0,1,175.2,617.35ZM170.6,643V621.2h5V643Z" transform="translate(-1.3)"/><path class="cls-5" d="M191.84,643.46a9.32,9.32,0,0,1-7.34-3.05q-2.72-3-2.71-8.36c0-3.51.91-6.29,2.73-8.32a10.3,10.3,0,0,1,14.15-.44q2.66,2.6,2.66,7.61a24.94,24.94,0,0,1-.17,3.07H186.73a5.34,5.34,0,0,0,1.6,3.7,4.88,4.88,0,0,0,3.51,1.4,5.44,5.44,0,0,0,4.59-2.25l3.15,3.23A9.57,9.57,0,0,1,191.84,643.46Zm-5.07-13.62h9.62a5.19,5.19,0,0,0-1.45-3.55,4.33,4.33,0,0,0-3.1-1.22,5.24,5.24,0,0,0-3.51,1.17A4.93,4.93,0,0,0,186.77,629.84Z" transform="translate(-1.3)"/><path class="cls-5" d="M214.05,643.46a12.2,12.2,0,0,1-5-1,8.27,8.27,0,0,1-3.51-2.73l3.41-2.89a7,7,0,0,0,5.06,2.3c2.35,0,3.53-.71,3.53-2.13a1.81,1.81,0,0,0-.61-1.32,5.09,5.09,0,0,0-1.32-.92c-.47-.21-1.23-.53-2.28-1A15.22,15.22,0,0,1,207.9,631a5.51,5.51,0,0,1-1.72-4.24,5.17,5.17,0,0,1,2.19-4.44,9.14,9.14,0,0,1,5.55-1.6,9.68,9.68,0,0,1,7.79,3.36l-3.45,2.81a6.1,6.1,0,0,0-4.34-1.83c-1.95,0-2.93.6-2.93,1.79a1.83,1.83,0,0,0,1.08,1.53,16.18,16.18,0,0,0,3.17,1.32,15.2,15.2,0,0,1,5.34,2.81,5.72,5.72,0,0,1,1.81,4.51,5.63,5.63,0,0,1-2.25,4.79A10,10,0,0,1,214.05,643.46Z" transform="translate(-1.3)"/><path class="cls-5" d="M244.09,643l-6-21.75H243l2.81,12c.14.66.31,1.51.51,2.56.14-.77.32-1.62.55-2.56l3.19-12h4.56l3.15,12c.22.94.41,1.79.55,2.56.2-1,.37-1.9.51-2.56l2.85-12h4.89l-6,21.75h-4.43L253,631.2c-.43-1.67-.65-2.66-.68-3-.12.57-.34,1.56-.68,3L248.48,643Z" transform="translate(-1.3)"/><path class="cls-5" d="M276.77,617.35a2.79,2.79,0,0,1-2.08.87,3,3,0,0,1-3-3,2.8,2.8,0,0,1,.87-2.08,2.91,2.91,0,0,1,2.11-.85,2.92,2.92,0,0,1,2.94,2.93A2.9,2.9,0,0,1,276.77,617.35ZM272.18,643V621.2h5V643Z" transform="translate(-1.3)"/><path class="cls-5" d="M290.6,643.46q-5.06,0-5.06-5.58V625.54h-3.23V621.2h3.23v-6.6l5-2.38v9h5v4.34h-5V636.9c0,1.39.61,2.09,1.83,2.09a6.93,6.93,0,0,0,3.4-1l-.59,4.47A9.79,9.79,0,0,1,290.6,643.46Z" transform="translate(-1.3)"/><path class="cls-5" d="M301.29,643V614.52l5-2.3v11a7.11,7.11,0,0,1,5.75-2.55,7.54,7.54,0,0,1,5.55,2.13c1.44,1.42,2.15,3.67,2.15,6.76V643h-5V630.39c0-3.32-1.34-5-4-5-2.95,0-4.43,1.64-4.43,4.9V643Z" transform="translate(-1.3)"/><path class="cls-5" d="M70.94,659.8a2.79,2.79,0,0,1-2.08.87,3,3,0,0,1-3-3,2.82,2.82,0,0,1,.87-2.09,3,3,0,0,1,2.11-.85,2.9,2.9,0,0,1,2.93,2.94A2.92,2.92,0,0,1,70.94,659.8Zm-4.59,25.59V663.65h5v21.74Z" transform="translate(-1.3)"/><path class="cls-5" d="M92.05,685.39V672.92q0-5.05-4-5.06-4.42,0-4.43,5v12.55h-5V663.65h5v2a7.11,7.11,0,0,1,5.75-2.55,7.57,7.57,0,0,1,5.55,2.12Q97,667.39,97,672v13.36Z" transform="translate(-1.3)"/><path class="cls-5" d="M111,685.9a12.2,12.2,0,0,1-5-1,8.13,8.13,0,0,1-3.51-2.72l3.4-2.9a7,7,0,0,0,5.07,2.3c2.35,0,3.53-.71,3.53-2.13a1.78,1.78,0,0,0-.62-1.31,4.57,4.57,0,0,0-1.32-.92c-.46-.21-1.22-.53-2.27-1a14.91,14.91,0,0,1-5.47-2.83,5.47,5.47,0,0,1-1.72-4.23,5.2,5.2,0,0,1,2.19-4.45,9.21,9.21,0,0,1,5.55-1.59,9.68,9.68,0,0,1,7.79,3.36l-3.45,2.81a6.1,6.1,0,0,0-4.34-1.83c-2,0-2.94.59-2.94,1.78a1.84,1.84,0,0,0,1.09,1.54,17.52,17.52,0,0,0,3.17,1.32,15.55,15.55,0,0,1,5.34,2.8,5.74,5.74,0,0,1,1.81,4.51,5.6,5.6,0,0,1-2.26,4.79A10,10,0,0,1,111,685.9Z" transform="translate(-1.3)"/><path class="cls-5" d="M138.77,685.39v-2.08a6.84,6.84,0,0,1-5.7,2.59,7.54,7.54,0,0,1-5.57-2.15q-2.18-2.14-2.17-6.78V663.65h5v12.42q0,5.07,4.08,5.07,4.38,0,4.38-5V663.65h5v21.74Z" transform="translate(-1.3)"/><path class="cls-5" d="M150.94,685.39V663.65h5v2.25a4.58,4.58,0,0,1,4.47-2.76,6,6,0,0,1,4,1.49l-.72,4.55A6.2,6.2,0,0,0,160,668a4,4,0,0,0-2.9,1.19,5.56,5.56,0,0,0-1.19,4v12.17Z" transform="translate(-1.3)"/><path class="cls-5" d="M176.73,693.9l-2.64-4q4.47-.3,6.2-1.38a3.69,3.69,0,0,0,1.72-3.34V684a6.37,6.37,0,0,1-4.94,1.95,8.09,8.09,0,0,1-6.49-2.95c-1.66-2-2.49-4.79-2.49-8.45s.83-6.29,2.49-8.32a8,8,0,0,1,6.53-3A6.62,6.62,0,0,1,182,665v-1.32h5v19.57c0,3.61-.78,6.22-2.32,7.83S180.48,693.62,176.73,693.9Zm1.19-12.76A4.6,4.6,0,0,0,182,679v-9a4.73,4.73,0,0,0-4.09-2.13,4.19,4.19,0,0,0-3.59,1.7,10.07,10.07,0,0,0,0,9.79A4.14,4.14,0,0,0,177.92,681.14Z" transform="translate(-1.3)"/><path class="cls-5" d="M203.16,685.9a9.3,9.3,0,0,1-7.34-3q-2.72-3-2.71-8.36t2.73-8.32a10.32,10.32,0,0,1,14.15-.45q2.65,2.6,2.66,7.62a24.89,24.89,0,0,1-.17,3.06H198.05a5.35,5.35,0,0,0,1.6,3.71,4.93,4.93,0,0,0,3.51,1.4,5.43,5.43,0,0,0,4.59-2.26l3.15,3.24A9.56,9.56,0,0,1,203.16,685.9Zm-5.07-13.61h9.62a5.24,5.24,0,0,0-1.45-3.56,4.32,4.32,0,0,0-3.1-1.21,5.24,5.24,0,0,0-3.51,1.17A4.93,4.93,0,0,0,198.09,672.29Z" transform="translate(-1.3)"/><path class="cls-5" d="M232.05,685.39V672.92q0-5.05-4-5.06-4.42,0-4.43,5v12.55h-5V663.65h5v2a7.11,7.11,0,0,1,5.75-2.55,7.57,7.57,0,0,1,5.55,2.12Q237,667.39,237,672v13.36Z" transform="translate(-1.3)"/><path class="cls-5" d="M252.69,685.9a8.89,8.89,0,0,1-7.09-3q-2.61-3-2.61-8.34t2.61-8.36a8.87,8.87,0,0,1,7.09-3q6.72,0,8.64,6l-4.73,1.57a3.79,3.79,0,0,0-3.74-2.81,4.11,4.11,0,0,0-3.53,1.79,8.21,8.21,0,0,0-1.28,4.85,8.1,8.1,0,0,0,1.26,4.79,3.92,3.92,0,0,0,3.38,1.76,3.88,3.88,0,0,0,4-3.14l4.76,1.44Q259.54,685.9,252.69,685.9Z" transform="translate(-1.3)"/><path class="cls-5" d="M269.8,693.65l3.36-8.6L265,663.65h5L275.07,677a13.62,13.62,0,0,1,.64,2,14,14,0,0,1,.6-2l5.1-13.36h5l-11.49,30Z" transform="translate(-1.3)"/><path class="cls-1" d="M108.57,574.53c1.24-1.46,2.53-2.87,3.67-4.4a26.18,26.18,0,0,0,3.48-6.41c.87-2.25,1.88-4.45,2.8-6.69.39-1,.7-2,1-3a2.3,2.3,0,0,1,1.36-1.39v1c-.06,4.7-.12,9.39-.15,14.1a30.06,30.06,0,0,0,1.13,6.64c.16.72.37,1.44.57,2.16a7.14,7.14,0,0,1-.25,3.91c-.56,1.91-1,3.84-1.57,5.76-.34,1.28-.75,2.55-1,3.85a26.16,26.16,0,0,0-.07,9,10.5,10.5,0,0,1,0,4.73,5.81,5.81,0,0,0-.3,1.93,2.07,2.07,0,0,0,2,2c1.11.12,2.23.22,3.34.28,1.47.06,2.93.15,4.39.08,1.75-.07,3.51-.3,5.26-.44.48,0,.56-.31.51-.7-.08-.55-.17-1.1-.26-1.68l.25-.13a1.14,1.14,0,0,0,.67-1.76,15.88,15.88,0,0,0-1.55-1.94c-.51-.55-1.15-1-1.61-1.6a28.13,28.13,0,0,1-1.84-2.84,3.38,3.38,0,0,1-.12-2.7,25.67,25.67,0,0,1,1.46-4.25,18.45,18.45,0,0,1,2.58-3.9c1.28-1.48,2.78-2.77,4.18-4.14a10.22,10.22,0,0,0,2.85-5,19.67,19.67,0,0,1,.66-2.27.59.59,0,0,1,.48-.28c1.84.12,3.68.32,5.52.39,1.2.05,2.41-.07,3.6-.11.31,0,.61,0,.91,0,2.41-.08,4.83-.06,7.22-.29a12,12,0,0,0,4.51-1.58c1-.53,2.07-1,3.12-1.56a5.13,5.13,0,0,1,1.3,2.53,51.41,51.41,0,0,1,1.09,8.92c.1,1.59.27,3.17.27,4.75,0,1.76-.2,3.51-.25,5.27,0,.94.15,1.9.08,2.83-.12,1.58-.32,3.16-.56,4.72a6.48,6.48,0,0,1-.62,1.47,2.72,2.72,0,0,0,.44,3.34,1.17,1.17,0,0,0,.72.31c2.57-.1,5.14-.25,7.72-.35,1.65-.06,3.31-.07,5-.08a1.1,1.1,0,0,1,.66.23,2.71,2.71,0,0,0,2,.58c2.05,0,4.1,0,6.15,0,.86,0,1.71,0,2.56,0a9.78,9.78,0,0,0,1.66-.4c.31-.08.6-.25.91-.31,1.3-.25,1.32-.54,1.06-1.88a3.71,3.71,0,0,0-.78-1.22c-.26-.38-.52-.76-.81-1.11-.1-.12-.31-.14-.41-.26a11.44,11.44,0,0,1-2.65-3.26,4.14,4.14,0,0,1-.26-1c-.28-2.5-.63-5-.78-7.5-.11-1.9.07-3.82.1-5.72,0-1.6,0-3.2,0-4.8.06-1.89.08-3.79.31-5.66a52.36,52.36,0,0,0,.15-8.94c-.12-2.52-.47-5-.69-7.55a.76.76,0,0,1,.35-.58q2.9-1.74,5.83-3.41c2.19-1.25,4.39-2.48,6.8-3.84.42.48.89,1.06,1.4,1.6s.95.94,1.41,1.42,1.17,1.23,1.69,1.9,1,.89,1.37.61a1.4,1.4,0,0,0,.25-1.76,3.51,3.51,0,0,0-.48-.6,14.57,14.57,0,0,1-2.72-4.9c-.06-.15-.14-.31-.25-.58.82-.38,1.64-.78,2.46-1.15.57-.24,1.15-.48,1.74-.68a6.11,6.11,0,0,0,2.68-1.94c.45-.53,1-.83,1.64-.43,1.44,1,3.11,1,4.72,1.29a1.84,1.84,0,0,1,.25.05c.33.13.71.27.91-.13a3.1,3.1,0,0,0,.09-1c.31-.43,1-.26,1.54-.33a13.75,13.75,0,0,1,1.92-.12,5.1,5.1,0,0,1,1.37.3,36,36,0,0,0,11.89.68,12.28,12.28,0,0,0,5.49-1.87,5,5,0,0,0,2.33-3.07,2.26,2.26,0,0,0-.09-1c-2.82,2.6-9.71,2.54-13.3,2.52,2.36,0,5.44-2.16,5.3-3.52,0,0-1.45.43-3.53,1.28-1.23.51-5.54,1.39-6.93.77A13.27,13.27,0,0,1,230,537c2.59-.41,4.42-2.26,5.87-4.39.93-1.36,1.32-3.4,1.78-5a11.28,11.28,0,0,0,0-5c-.36-2.31-1.08-3.28-1.75-5.2a14.75,14.75,0,0,1-.37-6.38,13.74,13.74,0,0,1,2.12-5.75,15.43,15.43,0,0,1,1.56-2.57,9.2,9.2,0,0,1,4.83-2.69c.51-.16,1-.35,1.51-.5a.5.5,0,0,0,.29-.78,5,5,0,0,1-.34-2.59c0-.87-.58-1.36-1.24-.88-1.1.8-2.38.9-3.56,1.36a18,18,0,0,0-6.24,4,18.48,18.48,0,0,0-4.48,6.33,32,32,0,0,0-2.2,6.35,20.68,20.68,0,0,0,.13,7.56,23,23,0,0,1,.3,3.72,4.09,4.09,0,0,1-.39,1.68c-.62.81-1.32.86-1.86,1.5-1.06-.37-2-.74-3.05-1a8.1,8.1,0,0,1-2.78-1.4c-.67-.53-1.43-.93-2.14-1.42-1.23-.85-2.43-1.75-3.66-2.59-.87-.59-1.77-1.14-2.69-1.64q-2.27-1.21-4.57-2.33a8.54,8.54,0,0,0-4.5-.46,13.85,13.85,0,0,0-6,1.88c-1.64,1-3.25,2-4.88,3a5.17,5.17,0,0,1-2.91.66,12.34,12.34,0,0,0-1.72,0c-.92.11-1.59-.48-2.34-.78a19.15,19.15,0,0,0-5.47-1.35c-1.51-.13-3-.39-4.54-.54a14.22,14.22,0,0,0-7.22.78c-1.35.58-2.66,1.29-4,1.85a2.12,2.12,0,0,1-1.25,0c-1.57-.34-3.12-.74-4.68-1.1-1.4-.31-2.81-.57-4.19-.91-2.51-.64-4.87.1-7.22.78a51.09,51.09,0,0,0-5,1.8,23.25,23.25,0,0,0-3.37,1.72,50.3,50.3,0,0,0-5.1,3.41,48.1,48.1,0,0,0-4.81,4.55,58.56,58.56,0,0,0-3.76,4.55,31.8,31.8,0,0,0-2.54,3.69A51.88,51.88,0,0,0,119,546a21.5,21.5,0,0,0-.87,3.22c-.29,1.14-.52,2.3-.86,3.43-.51,1.74-1,3.47-1.64,5.19-.46,1.38-1,2.75-1.52,4.09-.46,1.15-1,2.27-1.54,3.39-.74,1.55-1.42,3.13-2.26,4.62a23.16,23.16,0,0,1-2.45,3.53c-.48.56-1.35.79-2,1.28a4.57,4.57,0,0,0-1.78,3.1c.66-.31,1.21-.51,1.71-.8a10.52,10.52,0,0,0,2.7-2.54m70.66,21.38a8.08,8.08,0,0,0,.67-2.21c.33-2.11.61-4.24.9-6.36.23-1.78.45-3.55.68-5.33h.12c.29,1.22.6,2.44.89,3.67a17.67,17.67,0,0,1,.32,6.28,6.32,6.32,0,0,0,.21,3.68,6.21,6.21,0,0,1,.25,4.2c-.17.85-.42,1.68-.67,2.7-.35-.41-.57-.66-.77-.93-.65-.84-1.27-1.71-1.93-2.55s-1.3-1.88-.67-3.16" transform="translate(-1.3)"/><path class="cls-2" d="M169.6,540.91s.32.33-1.27-.78a2,2,0,0,1-.46-2.8c1-1.43,1.13-2.58,3.11-1.41,4.28,2.56,13.19,3.34,12.05,3.28-10.66-.53-13.85-5.12-14.39-2-.33,1.87-.89,2.91,1.93,3.43,2.09.38-1,.29-1,.29" transform="translate(-1.3)"/><path class="cls-2" d="M173.26,524.23s-.08.29,1.88.89a20,20,0,0,1,2.21.73,18.36,18.36,0,0,1-4.09-.73Z" transform="translate(-1.3)"/><path class="cls-2" d="M173.36,521.35s0,.26,1.8.62,2.09.43,2.09.43a16.27,16.27,0,0,1-3.79-.24Z" transform="translate(-1.3)"/><path class="cls-2" d="M173.37,518.25s0,.27,1.79.62,2.09.44,2.09.44a16.54,16.54,0,0,1-3.8-.25Z" transform="translate(-1.3)"/><path class="cls-2" d="M173.56,526.63s.21.65,1.51,1.37c2.18,1.21,2.48,1.4,2.48,1.4s-3.38-.92-4.49-2.41a1.74,1.74,0,0,0,.27-.17,1.11,1.11,0,0,1,.23-.19" transform="translate(-1.3)"/><path class="cls-2" d="M173.7,515.12s0,.2,1.48.63l1.73.49a14.21,14.21,0,0,1-3.18-.43Z" transform="translate(-1.3)"/><path class="cls-2" d="M174,511.65s0,.16,1.25.62l1.47.52a12.27,12.27,0,0,1-2.73-.54Z" transform="translate(-1.3)"/><path class="cls-2" d="M174.23,504.87s-.14.22,1,.92,1.28.9,1.28.9a12.4,12.4,0,0,1-2.49-1.25Z" transform="translate(-1.3)"/><path class="cls-2" d="M174.17,508.2s-.13.23,1.09.87a4.93,4.93,0,0,1,1.32.83,12.13,12.13,0,0,1-2.55-1.12Z" transform="translate(-1.3)"/><path class="cls-6" d="M22.76,751.61H20.13L8,732.74l-1-1.69v20.56H4.39v-25.2H7l12.06,19.08c.39.62.75,1.21,1.07,1.76V726.41h2.6Z" transform="translate(-1.3)"/><path class="cls-6" d="M42.28,751.61v-1.77a5.46,5.46,0,0,1-2.06,1.71,6.4,6.4,0,0,1-2.65.49c-2.45,0-4.22-.67-5.33-2s-1.65-3.52-1.65-6.55V733.21h2.6v11.23a5.81,5.81,0,0,0,1.19,4,4.09,4.09,0,0,0,3.19,1.3q4.71,0,4.71-5.26v-11.3h2.6v18.4Z" transform="translate(-1.3)"/><path class="cls-6" d="M74.54,751.61V740.34c0-3.53-1.38-5.29-4.12-5.29a3.79,3.79,0,0,0-3.21,1.53A6,6,0,0,0,66,740.34v11.27h-2.6V740.34q0-5.3-4.12-5.29a4,4,0,0,0-3.25,1.38,5.58,5.58,0,0,0-1.13,3.62v11.56h-2.6v-18.4h2.6V735a6.54,6.54,0,0,1,5.16-2.23,6.07,6.07,0,0,1,2.93.76,5.49,5.49,0,0,1,2.19,2.05,6.23,6.23,0,0,1,2.25-2,6.4,6.4,0,0,1,9.66,5.8v12.24Z" transform="translate(-1.3)"/><path class="cls-6" d="M92.28,752A7.65,7.65,0,0,1,88.36,751c-.36-.24-.81-.58-1.36-1v1.66H84.41V726.87L87,725.61V735a7,7,0,0,1,2.31-1.62,6.63,6.63,0,0,1,2.74-.61,7,7,0,0,1,5.72,2.55,10.77,10.77,0,0,1,2.11,7.06c0,3.1-.66,5.48-2,7.15A6.81,6.81,0,0,1,92.28,752Zm-.41-2.27a4.52,4.52,0,0,0,4-1.94,9.53,9.53,0,0,0,1.33-5.44,9.37,9.37,0,0,0-1.33-5.45,4.55,4.55,0,0,0-4-1.89,5.12,5.12,0,0,0-2.92.88,6.61,6.61,0,0,0-2,1.92v9A6.06,6.06,0,0,0,89.12,749,5.31,5.31,0,0,0,91.87,749.77Z" transform="translate(-1.3)"/><path class="cls-6" d="M113,752a7.31,7.31,0,0,1-6-2.81,10.54,10.54,0,0,1-2.26-6.84,10.29,10.29,0,0,1,2.26-7.06,7.61,7.61,0,0,1,6-2.55,7.07,7.07,0,0,1,5.38,2.25q2.11,2.25,2.11,6.64c0,.65,0,1.24-.07,1.76H107.45a8.36,8.36,0,0,0,1.79,4.58,4.8,4.8,0,0,0,3.82,1.69,7.2,7.2,0,0,0,4.27-1.44l1.41,1.69A9,9,0,0,1,113,752Zm-5.57-10.87h10.43c0-2.24-.53-3.81-1.5-4.74a4.77,4.77,0,0,0-3.36-1.38,5.22,5.22,0,0,0-3.9,1.54A6.82,6.82,0,0,0,107.38,741.17Z" transform="translate(-1.3)"/><path class="cls-6" d="M126.42,751.61v-18.4H129v2.59a4.94,4.94,0,0,1,4.78-3,4.51,4.51,0,0,1,2.68.76l-.41,2.44a4.77,4.77,0,0,0-2.45-.68,4.39,4.39,0,0,0-3.17,1.42A6.07,6.07,0,0,0,129,741.2v10.41Z" transform="translate(-1.3)"/><path class="cls-6" d="M158.15,752a7.46,7.46,0,0,1-5.92-2.54,12.38,12.38,0,0,1,0-14.15,8.11,8.11,0,0,1,11.82,0,12.37,12.37,0,0,1,0,14.14A7.4,7.4,0,0,1,158.15,752Zm0-2.27a4.64,4.64,0,0,0,4-2,11.08,11.08,0,0,0,0-10.82,4.64,4.64,0,0,0-4-1.94,4.7,4.7,0,0,0-4,1.89,11.36,11.36,0,0,0,0,10.89A4.66,4.66,0,0,0,158.15,749.77Z" transform="translate(-1.3)"/><path class="cls-6" d="M175.85,735.48v16.13h-2.59V735.48h-3v-2.27h3v-3.13a3.94,3.94,0,0,1,1.13-3.1,4.06,4.06,0,0,1,2.8-1,6.85,6.85,0,0,1,3.23.87V729a5.84,5.84,0,0,0-2.71-.73,2.42,2.42,0,0,0-1,.19,1,1,0,0,0-.57.54,2.07,2.07,0,0,0-.21.64,7.58,7.58,0,0,0,0,.79v2.74h4.57v2.27Z" transform="translate(-1.3)"/><path class="cls-6" d="M211.85,751.61l-2.37-6.52H199.35l-2.27,6.52h-2.71l9-25.2h2l9.09,25.2Zm-3.15-8.75-3.56-10.08a22.38,22.38,0,0,1-.75-2.27l-.29.94c-.18.64-.31,1.09-.41,1.33l-3.56,10.08Z" transform="translate(-1.3)"/><path class="cls-6" d="M224.92,735.48v16.13h-2.6V735.48h-3v-2.27h3v-3.13a3.94,3.94,0,0,1,1.13-3.1,4.06,4.06,0,0,1,2.8-1,6.82,6.82,0,0,1,3.23.87V729a5.84,5.84,0,0,0-2.71-.73,2.42,2.42,0,0,0-1,.19,1,1,0,0,0-.57.54,2.38,2.38,0,0,0-.21.64c0,.19,0,.46,0,.79v2.74h4.56v2.27Z" transform="translate(-1.3)"/><path class="cls-6" d="M234.53,751.61v-18.4h2.6v2.59a4.94,4.94,0,0,1,4.78-3,4.51,4.51,0,0,1,2.68.76l-.41,2.44a4.79,4.79,0,0,0-2.45-.68,4.38,4.38,0,0,0-3.17,1.42,6.07,6.07,0,0,0-1.43,4.48v10.41Z" transform="translate(-1.3)"/><path class="cls-6" d="M252,729a1.83,1.83,0,0,1-2.45,0,1.59,1.59,0,0,1-.48-1.19,1.68,1.68,0,0,1,.5-1.22,1.62,1.62,0,0,1,1.21-.5,1.6,1.6,0,0,1,1.22.5,1.71,1.71,0,0,1,.48,1.22A1.59,1.59,0,0,1,252,729Zm-2.52,22.65v-18.4h2.6v18.4Z" transform="translate(-1.3)"/><path class="cls-6" d="M265.74,752a6.62,6.62,0,0,1-5.47-2.54,13.24,13.24,0,0,1,.05-14.17,7,7,0,0,1,5.72-2.55,6.81,6.81,0,0,1,3.71,1,6.09,6.09,0,0,1,2.37,2.84l-2.37.9a3.8,3.8,0,0,0-3.82-2.48q-5,0-5,7.38t4.9,7.34a4.45,4.45,0,0,0,2.62-.76,4.22,4.22,0,0,0,1.58-2l2.33.87a5.77,5.77,0,0,1-2.44,3.07A7.63,7.63,0,0,1,265.74,752Z" transform="translate(-1.3)"/><path class="cls-6" d="M289.05,751.61v-1.8a8.37,8.37,0,0,1-5.57,2.23,6.72,6.72,0,0,1-4.71-1.6,6,6,0,0,1-1.75-4.63,5.41,5.41,0,0,1,2-4.54,7.75,7.75,0,0,1,4.92-1.54,11,11,0,0,1,5.12,1.29v-1.55q0-4.5-4.16-4.5a10.26,10.26,0,0,0-5.64,2l-.74-2.16a12.52,12.52,0,0,1,6.64-2,8.22,8.22,0,0,1,2.15.27,6.74,6.74,0,0,1,2,.93,4.75,4.75,0,0,1,1.58,2,7.83,7.83,0,0,1,.59,3.19v12.46Zm-5.31-1.77a6.9,6.9,0,0,0,5.31-2.84v-3.57a8.9,8.9,0,0,0-4.86-1.51,5.59,5.59,0,0,0-3.4,1,3.37,3.37,0,0,0-1.35,2.9,3.9,3.9,0,0,0,1.13,2.94A4.36,4.36,0,0,0,283.74,749.84Z" transform="translate(-1.3)"/><path class="cls-6" d="M309.83,751.61V740.37a5.8,5.8,0,0,0-1.19-4,4.2,4.2,0,0,0-3.23-1.27q-4.67,0-4.67,5.25v11.31h-2.6v-18.4h2.6v2a5.64,5.64,0,0,1,4.9-2.45,6.2,6.2,0,0,1,5.14,2.05c1.1,1.37,1.65,3.56,1.65,6.59v10.19Z" transform="translate(-1.3)"/><path class="cls-6" d="M336.66,752a7.3,7.3,0,0,1-6-2.81,10.54,10.54,0,0,1-2.27-6.84,10.29,10.29,0,0,1,2.27-7.06,7.6,7.6,0,0,1,6-2.55,7.08,7.08,0,0,1,5.39,2.25q2.11,2.25,2.11,6.64c0,.65,0,1.24-.07,1.76H331.17A8.36,8.36,0,0,0,333,748a4.81,4.81,0,0,0,3.82,1.69,7.18,7.18,0,0,0,4.27-1.44l1.41,1.69A9,9,0,0,1,336.66,752Zm-5.56-10.87h10.43c0-2.24-.53-3.81-1.51-4.74a4.75,4.75,0,0,0-3.36-1.38,5.21,5.21,0,0,0-3.89,1.54A6.72,6.72,0,0,0,331.1,741.17Z" transform="translate(-1.3)"/><path class="cls-6" d="M350.32,751.61V726.84l2.6-1.23v26Z" transform="translate(-1.3)"/><path class="cls-6" d="M367.5,752a7.3,7.3,0,0,1-6-2.81,10.54,10.54,0,0,1-2.26-6.84,10.29,10.29,0,0,1,2.26-7.06,7.6,7.6,0,0,1,6-2.55,7.08,7.08,0,0,1,5.39,2.25q2.12,2.25,2.11,6.64c0,.65,0,1.24-.07,1.76H362a8.36,8.36,0,0,0,1.78,4.58,4.82,4.82,0,0,0,3.83,1.69,7.17,7.17,0,0,0,4.26-1.44l1.41,1.69A9,9,0,0,1,367.5,752Zm-5.56-10.87h10.43c0-2.24-.53-3.81-1.51-4.74a4.74,4.74,0,0,0-3.36-1.38,5.21,5.21,0,0,0-3.89,1.54A6.77,6.77,0,0,0,361.94,741.17Z" transform="translate(-1.3)"/><path class="cls-6" d="M388.77,752a6.65,6.65,0,0,1-5.2-2.31v7.92L381,758.91v-25.7h2.59v1.66a7.7,7.7,0,0,1,5.2-2.09,7,7,0,0,1,5.73,2.61,10.84,10.84,0,0,1,2.1,7,10.6,10.6,0,0,1-2.17,7.09A7.06,7.06,0,0,1,388.77,752Zm-.3-2.27a4.7,4.7,0,0,0,4-1.91,9.07,9.07,0,0,0,1.41-5.47,8.85,8.85,0,0,0-1.45-5.36,4.64,4.64,0,0,0-4-2,5.56,5.56,0,0,0-2.82.75,5.79,5.79,0,0,0-2.08,2.09v9C385.08,748.82,386.72,749.77,388.47,749.77Z" transform="translate(-1.3)"/><path class="cls-6" d="M402.72,751.61V726.8l2.6-1.19v9.65a5.6,5.6,0,0,1,4.9-2.48q3.5,0,5.14,2.05c1.1,1.37,1.65,3.56,1.65,6.59v10.19h-2.59V740.37a5.85,5.85,0,0,0-1.19-4,4.2,4.2,0,0,0-3.23-1.27q-4.68,0-4.68,5.25v11.31Z" transform="translate(-1.3)"/><path class="cls-6" d="M435.2,751.61v-1.8a8.35,8.35,0,0,1-5.57,2.23,6.72,6.72,0,0,1-4.71-1.6,6,6,0,0,1-1.75-4.63,5.44,5.44,0,0,1,2-4.54,7.75,7.75,0,0,1,4.92-1.54A11,11,0,0,1,435.2,741v-1.55q0-4.5-4.16-4.5a10.26,10.26,0,0,0-5.64,2l-.74-2.16a12.54,12.54,0,0,1,6.64-2,8.17,8.17,0,0,1,2.15.27,6.74,6.74,0,0,1,2,.93,4.67,4.67,0,0,1,1.58,2,7.83,7.83,0,0,1,.59,3.19v12.46Zm-5.31-1.77A6.88,6.88,0,0,0,435.2,747v-3.57a8.9,8.9,0,0,0-4.86-1.51,5.61,5.61,0,0,0-3.4,1,3.37,3.37,0,0,0-1.35,2.9,3.9,3.9,0,0,0,1.13,2.94A4.36,4.36,0,0,0,429.89,749.84Z" transform="translate(-1.3)"/><path class="cls-6" d="M456,751.61V740.37a5.85,5.85,0,0,0-1.18-4,4.21,4.21,0,0,0-3.23-1.27q-4.68,0-4.68,5.25v11.31h-2.6v-18.4h2.6v2a5.65,5.65,0,0,1,4.9-2.45,6.2,6.2,0,0,1,5.14,2.05c1.1,1.37,1.65,3.56,1.65,6.59v10.19Z" transform="translate(-1.3)"/><path class="cls-6" d="M470.6,752c-2.49,0-3.74-1.41-3.74-4.21V735.48h-3.23v-2.27h3.23v-6.34l2.59-1.26v7.6h4.83v2.27h-4.83v11.27a4.68,4.68,0,0,0,.41,2.16,1.69,1.69,0,0,0,1.64.75,5.42,5.42,0,0,0,2.85-1.08l-.29,2.63A7.45,7.45,0,0,1,470.6,752Z" transform="translate(-1.3)"/><path class="cls-6" d="M485.64,752a8.43,8.43,0,0,1-6.54-3.21l1.82-1.54a6.45,6.45,0,0,0,4.94,2.52,4.65,4.65,0,0,0,2.67-.71,2.23,2.23,0,0,0,1-2,2.84,2.84,0,0,0-.37-1.42,3.67,3.67,0,0,0-1.17-1.15,10.54,10.54,0,0,0-1.43-.81q-.63-.28-1.74-.72c-.89-.36-1.63-.69-2.19-1a13.64,13.64,0,0,1-1.75-1.08,4.33,4.33,0,0,1-1.32-1.53,4.62,4.62,0,0,1-.42-2,4.09,4.09,0,0,1,1.7-3.39,7.14,7.14,0,0,1,4.42-1.29,7.74,7.74,0,0,1,6.16,2.81l-1.71,1.4a6.36,6.36,0,0,0-4.52-2,4.73,4.73,0,0,0-2.62.65,2.08,2.08,0,0,0-.72,2.77,3,3,0,0,0,.59.77,4.88,4.88,0,0,0,1,.69q.71.38,1.11.54L486,741c.74.29,1.32.52,1.74.7a14.87,14.87,0,0,1,1.58.83,6,6,0,0,1,1.45,1.12,5.46,5.46,0,0,1,.89,1.44,4.76,4.76,0,0,1,.39,2,4.44,4.44,0,0,1-1.73,3.67A7.29,7.29,0,0,1,485.64,752Z" transform="translate(-1.3)"/><path class="cls-6" d="M512.58,756.29q-4.53-5.76-4.53-14.91,0-9.68,4.94-15.41h2.48a23.5,23.5,0,0,0-3.21,6,25.19,25.19,0,0,0-1.65,9.39,25.48,25.48,0,0,0,4.46,14.91Z" transform="translate(-1.3)"/><path class="cls-6" d="M522.52,735a2.58,2.58,0,0,1-1.87-.77,3,3,0,0,1-.8-2.25,6.72,6.72,0,0,1,.93-3.53,7.09,7.09,0,0,1,2.45-2.45l.71.18a5.87,5.87,0,0,0-1.27,1.7,5.32,5.32,0,0,0-.59,2.52A3,3,0,0,1,524,731a2,2,0,0,1,.76,1.6,2.36,2.36,0,0,1-.65,1.73A2.19,2.19,0,0,1,522.52,735Zm7.28,0a2.57,2.57,0,0,1-1.87-.77,3,3,0,0,1-.8-2.25,6.72,6.72,0,0,1,.93-3.53A7,7,0,0,1,530.5,726l.71.18a5.69,5.69,0,0,0-1.26,1.7,5.21,5.21,0,0,0-.6,2.52,2.93,2.93,0,0,1,1.95.63,2,2,0,0,1,.76,1.6,2.32,2.32,0,0,1-.65,1.73A2.19,2.19,0,0,1,529.8,735Z" transform="translate(-1.3)"/><path class="cls-6" d="M544.57,752a7,7,0,0,1-5.73-2.61,12.88,12.88,0,0,1,0-14.1,7,7,0,0,1,5.73-2.55,8,8,0,0,1,5,1.73v-7.64l2.6-1.26v26h-2.6V750A7,7,0,0,1,544.57,752Zm.3-2.27a5.14,5.14,0,0,0,2.71-.76,5.7,5.7,0,0,0,2-2.12v-9.18a5.34,5.34,0,0,0-4.75-2.66,4.69,4.69,0,0,0-4,1.9,9.06,9.06,0,0,0-1.41,5.44,8.91,8.91,0,0,0,1.48,5.27A4.59,4.59,0,0,0,544.87,749.77Z" transform="translate(-1.3)"/><path class="cls-6" d="M566.58,752a7.31,7.31,0,0,1-6-2.81,10.54,10.54,0,0,1-2.26-6.84,10.29,10.29,0,0,1,2.26-7.06,7.61,7.61,0,0,1,6-2.55A7.06,7.06,0,0,1,572,735q2.12,2.25,2.12,6.64c0,.65,0,1.24-.08,1.76H561.09a8.28,8.28,0,0,0,1.78,4.58,4.8,4.8,0,0,0,3.82,1.69,7.2,7.2,0,0,0,4.27-1.44l1.41,1.69A9,9,0,0,1,566.58,752ZM561,741.17h10.43c0-2.24-.53-3.81-1.5-4.74a4.77,4.77,0,0,0-3.36-1.38,5.24,5.24,0,0,0-3.9,1.54A6.82,6.82,0,0,0,561,741.17Z" transform="translate(-1.3)"/><path class="cls-6" d="M583.47,735.48v16.13h-2.6V735.48h-3v-2.27h3v-3.13A3.94,3.94,0,0,1,582,727a4.06,4.06,0,0,1,2.8-1,6.85,6.85,0,0,1,3.23.87V729a5.84,5.84,0,0,0-2.71-.73,2.42,2.42,0,0,0-1,.19,1,1,0,0,0-.57.54,2.38,2.38,0,0,0-.21.64c0,.19,0,.46,0,.79v2.74H588v2.27ZM594.86,729a1.83,1.83,0,0,1-2.45,0,1.59,1.59,0,0,1-.48-1.19,1.64,1.64,0,0,1,.5-1.22,1.73,1.73,0,0,1,2.43,0,1.71,1.71,0,0,1,.48,1.22A1.59,1.59,0,0,1,594.86,729Zm-2.52,22.65v-18.4h2.59v18.4Z" transform="translate(-1.3)"/><path class="cls-6" d="M614.12,751.61V740.37a5.85,5.85,0,0,0-1.19-4,4.2,4.2,0,0,0-3.23-1.27q-4.66,0-4.67,5.25v11.31h-2.6v-18.4H605v2a5.64,5.64,0,0,1,4.9-2.45,6.2,6.2,0,0,1,5.14,2.05c1.1,1.37,1.65,3.56,1.65,6.59v10.19Z" transform="translate(-1.3)"/><path class="cls-6" d="M626.55,729a1.69,1.69,0,0,1-1.22.47,1.71,1.71,0,0,1-1.23-.47,1.59,1.59,0,0,1-.48-1.19,1.68,1.68,0,0,1,.5-1.22,1.64,1.64,0,0,1,1.21-.5,1.6,1.6,0,0,1,1.22.5,1.67,1.67,0,0,1,.49,1.22A1.56,1.56,0,0,1,626.55,729ZM624,751.61v-18.4h2.6v18.4Z" transform="translate(-1.3)"/><path class="cls-6" d="M638.88,752c-2.5,0-3.75-1.41-3.75-4.21V735.48H631.9v-2.27h3.23v-6.34l2.6-1.26v7.6h4.82v2.27h-4.82v11.27a4.7,4.7,0,0,0,.4,2.16,1.69,1.69,0,0,0,1.64.75,5.42,5.42,0,0,0,2.85-1.08l-.29,2.63A7.44,7.44,0,0,1,638.88,752Z" transform="translate(-1.3)"/><path class="cls-6" d="M655.5,752a7.3,7.3,0,0,1-6-2.81,10.54,10.54,0,0,1-2.27-6.84,10.29,10.29,0,0,1,2.27-7.06,7.6,7.6,0,0,1,6-2.55,7.06,7.06,0,0,1,5.38,2.25q2.11,2.25,2.12,6.64c0,.65,0,1.24-.08,1.76H650a8.36,8.36,0,0,0,1.78,4.58,4.81,4.81,0,0,0,3.82,1.69,7.18,7.18,0,0,0,4.27-1.44l1.41,1.69A9,9,0,0,1,655.5,752Zm-5.56-10.87h10.42c0-2.24-.52-3.81-1.5-4.74a4.77,4.77,0,0,0-3.36-1.38,5.25,5.25,0,0,0-3.9,1.54A6.77,6.77,0,0,0,649.94,741.17Z" transform="translate(-1.3)"/><path class="cls-6" d="M668.34,734.79a5.51,5.51,0,0,0,1.26-1.69,5.21,5.21,0,0,0,.6-2.52,3,3,0,0,1-2-.63,2,2,0,0,1-.76-1.6,2.35,2.35,0,0,1,.65-1.73,2.19,2.19,0,0,1,1.61-.65,2.6,2.6,0,0,1,1.88.78,3,3,0,0,1,.8,2.25,6.72,6.72,0,0,1-.93,3.53,7,7,0,0,1-2.45,2.44Zm7.28,0a5.84,5.84,0,0,0,1.26-1.69,5.32,5.32,0,0,0,.59-2.52,3,3,0,0,1-2-.63,2,2,0,0,1-.76-1.6,2.35,2.35,0,0,1,.65-1.73A2.22,2.22,0,0,1,677,726a2.59,2.59,0,0,1,1.87.78,3,3,0,0,1,.8,2.25,6.72,6.72,0,0,1-.93,3.53,6.9,6.9,0,0,1-2.45,2.44Z" transform="translate(-1.3)"/><path class="cls-6" d="M706.35,751.61v-1.8a8.37,8.37,0,0,1-5.57,2.23,6.72,6.72,0,0,1-4.71-1.6,6,6,0,0,1-1.75-4.63,5.41,5.41,0,0,1,2-4.54,7.75,7.75,0,0,1,4.92-1.54,11,11,0,0,1,5.12,1.29v-1.55q0-4.5-4.16-4.5a10.26,10.26,0,0,0-5.64,2l-.74-2.16a12.52,12.52,0,0,1,6.64-2,8.22,8.22,0,0,1,2.15.27,6.74,6.74,0,0,1,2,.93,4.75,4.75,0,0,1,1.58,2,7.83,7.83,0,0,1,.59,3.19v12.46ZM701,749.84a6.9,6.9,0,0,0,5.31-2.84v-3.57a8.9,8.9,0,0,0-4.87-1.51,5.58,5.58,0,0,0-3.39,1,3.38,3.38,0,0,0-1.36,2.9,3.9,3.9,0,0,0,1.14,2.94A4.36,4.36,0,0,0,701,749.84Z" transform="translate(-1.3)"/><path class="cls-6" d="M727.13,751.61V740.37a5.85,5.85,0,0,0-1.19-4,4.2,4.2,0,0,0-3.23-1.27q-4.66,0-4.67,5.25v11.31h-2.6v-18.4H718v2a5.64,5.64,0,0,1,4.9-2.45,6.2,6.2,0,0,1,5.14,2.05c1.1,1.37,1.65,3.56,1.65,6.59v10.19Z" transform="translate(-1.3)"/><path class="cls-6" d="M743.53,752a7,7,0,0,1-5.73-2.61,12.88,12.88,0,0,1,0-14.1,7,7,0,0,1,5.73-2.55,8,8,0,0,1,5.05,1.73v-7.64l2.6-1.26v26h-2.6V750A7,7,0,0,1,743.53,752Zm.3-2.27a5.12,5.12,0,0,0,2.71-.76,5.7,5.7,0,0,0,2-2.12v-9.18a5.34,5.34,0,0,0-4.75-2.66,4.69,4.69,0,0,0-4,1.9,9.06,9.06,0,0,0-1.41,5.44,8.91,8.91,0,0,0,1.49,5.27A4.58,4.58,0,0,0,743.83,749.77Z" transform="translate(-1.3)"/><path class="cls-6" d="M769.55,735a2.57,2.57,0,0,1-1.87-.77,3,3,0,0,1-.8-2.25,6.72,6.72,0,0,1,.93-3.53,6.93,6.93,0,0,1,2.45-2.45l.7.18a5.86,5.86,0,0,0-1.26,1.7,5.21,5.21,0,0,0-.6,2.52,2.93,2.93,0,0,1,1.95.63,2,2,0,0,1,.76,1.6,2.32,2.32,0,0,1-.65,1.73A2.19,2.19,0,0,1,769.55,735Zm7.27,0a2.58,2.58,0,0,1-1.87-.77,3,3,0,0,1-.8-2.25,6.72,6.72,0,0,1,.93-3.53,7,7,0,0,1,2.45-2.45l.7.18a6,6,0,0,0-1.26,1.7,5.32,5.32,0,0,0-.59,2.52,3,3,0,0,1,2,.63,2,2,0,0,1,.76,1.6,2.36,2.36,0,0,1-.65,1.73A2.19,2.19,0,0,1,776.82,735Z" transform="translate(-1.3)"/><path class="cls-6" d="M792.86,752a6.62,6.62,0,0,1-5.2-2.31v7.92l-2.6,1.26v-25.7h2.6v1.66a7.68,7.68,0,0,1,5.2-2.09,7,7,0,0,1,5.73,2.61,10.84,10.84,0,0,1,2.1,7,10.65,10.65,0,0,1-2.17,7.09A7.07,7.07,0,0,1,792.86,752Zm-.3-2.27a4.7,4.7,0,0,0,4-1.91,9.07,9.07,0,0,0,1.41-5.47,8.85,8.85,0,0,0-1.45-5.36,4.65,4.65,0,0,0-4-2,5.54,5.54,0,0,0-2.82.75,5.71,5.71,0,0,0-2.08,2.09v9Q789.93,749.77,792.56,749.77Z" transform="translate(-1.3)"/><path class="cls-6" d="M806.81,751.61v-18.4h2.6v2.59a4.94,4.94,0,0,1,4.79-3,4.5,4.5,0,0,1,2.67.76l-.41,2.44a4.77,4.77,0,0,0-2.45-.68,4.39,4.39,0,0,0-3.17,1.42,6.12,6.12,0,0,0-1.43,4.48v10.41Z" transform="translate(-1.3)"/><path class="cls-6" d="M828.52,752a7.48,7.48,0,0,1-5.92-2.54,12.43,12.43,0,0,1,0-14.15,8.11,8.11,0,0,1,11.82,0,12.37,12.37,0,0,1,0,14.14A7.4,7.4,0,0,1,828.52,752Zm0-2.27a4.64,4.64,0,0,0,4-2,9,9,0,0,0,1.43-5.42,9.14,9.14,0,0,0-1.39-5.4,5.19,5.19,0,0,0-8,0,11.29,11.29,0,0,0,0,10.89A4.64,4.64,0,0,0,828.52,749.77Z" transform="translate(-1.3)"/><path class="cls-6" d="M850.68,752a7.15,7.15,0,0,1-2.32-.36,7,7,0,0,1-1.6-.72c-.36-.24-.81-.58-1.35-1v1.66h-2.6V726.87l2.6-1.26V735a6.91,6.91,0,0,1,2.3-1.62,6.68,6.68,0,0,1,2.75-.61,7,7,0,0,1,5.71,2.55,10.77,10.77,0,0,1,2.12,7.06q0,4.65-2,7.15A6.78,6.78,0,0,1,850.68,752Zm-.41-2.27a4.51,4.51,0,0,0,4-1.94,9.53,9.53,0,0,0,1.34-5.44,9.37,9.37,0,0,0-1.34-5.45,4.54,4.54,0,0,0-4-1.89,5.11,5.11,0,0,0-2.91.88,6.38,6.38,0,0,0-2,1.92v9a6,6,0,0,0,2.11,2.09A5.34,5.34,0,0,0,850.27,749.77Z" transform="translate(-1.3)"/><path class="cls-6" d="M875.32,751.61v-1.8a8.34,8.34,0,0,1-5.56,2.23,6.75,6.75,0,0,1-4.72-1.6,6,6,0,0,1-1.74-4.63,5.43,5.43,0,0,1,2-4.54,7.79,7.79,0,0,1,4.92-1.54,11,11,0,0,1,5.12,1.29v-1.55q0-4.5-4.15-4.5a10.26,10.26,0,0,0-5.65,2l-.74-2.16a12.55,12.55,0,0,1,6.65-2,8.28,8.28,0,0,1,2.15.27,6.58,6.58,0,0,1,2,.93,4.67,4.67,0,0,1,1.58,2,7.67,7.67,0,0,1,.59,3.19v12.46Zm-5.3-1.77a6.86,6.86,0,0,0,5.3-2.84v-3.57a8.9,8.9,0,0,0-4.86-1.51,5.63,5.63,0,0,0-3.4,1,3.37,3.37,0,0,0-1.35,2.9,3.93,3.93,0,0,0,1.13,2.94A4.38,4.38,0,0,0,870,749.84Z" transform="translate(-1.3)"/><path class="cls-6" d="M892.28,752a7.57,7.57,0,0,1-3.91-1.08c-.36-.24-.81-.58-1.36-1v1.66h-2.6V726.87l2.6-1.26V735a7,7,0,0,1,2.3-1.62,6.71,6.71,0,0,1,2.75-.61,7,7,0,0,1,5.72,2.55,10.77,10.77,0,0,1,2.11,7.06q0,4.65-2,7.15A6.81,6.81,0,0,1,892.28,752Zm-.41-2.27a4.53,4.53,0,0,0,4-1.94,9.53,9.53,0,0,0,1.33-5.44,9.37,9.37,0,0,0-1.33-5.45,4.56,4.56,0,0,0-4-1.89,5.11,5.11,0,0,0-2.91.88,6.38,6.38,0,0,0-2,1.92v9a6.06,6.06,0,0,0,2.12,2.09A5.28,5.28,0,0,0,891.87,749.77Z" transform="translate(-1.3)"/><path class="cls-6" d="M906.2,751.61V726.84l2.6-1.23v26Z" transform="translate(-1.3)"/><path class="cls-6" d="M923.38,752a7.3,7.3,0,0,1-6-2.81,10.54,10.54,0,0,1-2.26-6.84,10.29,10.29,0,0,1,2.26-7.06,7.6,7.6,0,0,1,6-2.55,7.08,7.08,0,0,1,5.39,2.25q2.12,2.25,2.11,6.64c0,.65,0,1.24-.07,1.76H917.89a8.36,8.36,0,0,0,1.78,4.58,4.82,4.82,0,0,0,3.83,1.69,7.17,7.17,0,0,0,4.26-1.44l1.41,1.69A9,9,0,0,1,923.38,752Zm-5.56-10.87h10.43c0-2.24-.53-3.81-1.51-4.74a4.74,4.74,0,0,0-3.36-1.38,5.21,5.21,0,0,0-3.89,1.54A6.77,6.77,0,0,0,917.82,741.17Z" transform="translate(-1.3)"/><path class="cls-6" d="M936.23,734.79a5.84,5.84,0,0,0,1.26-1.69,5.32,5.32,0,0,0,.59-2.52,3,3,0,0,1-2-.63,2,2,0,0,1-.76-1.6,2.35,2.35,0,0,1,.65-1.73,2.2,2.2,0,0,1,1.62-.65,2.59,2.59,0,0,1,1.87.78,3,3,0,0,1,.8,2.25,6.72,6.72,0,0,1-.93,3.53,7,7,0,0,1-2.45,2.44Zm7.27,0a5.67,5.67,0,0,0,1.26-1.69,5.21,5.21,0,0,0,.59-2.52,2.92,2.92,0,0,1-1.94-.63,2,2,0,0,1-.76-1.6,2.31,2.31,0,0,1,.65-1.73,2.19,2.19,0,0,1,1.61-.65,2.58,2.58,0,0,1,1.87.78,3,3,0,0,1,.8,2.25,6.72,6.72,0,0,1-.93,3.53A6.82,6.82,0,0,1,944.2,735Z" transform="translate(-1.3)"/><path class="cls-6" d="M11.81,792a6.64,6.64,0,0,1-5.2-2.31v7.92L4,798.91v-25.7H6.61v1.65a7.73,7.73,0,0,1,5.2-2.08,7,7,0,0,1,5.73,2.61,10.84,10.84,0,0,1,2.1,7,10.6,10.6,0,0,1-2.17,7.09A7.1,7.1,0,0,1,11.81,792Zm-.3-2.27a4.7,4.7,0,0,0,4-1.91,9.1,9.1,0,0,0,1.41-5.47A8.89,8.89,0,0,0,15.48,777a4.65,4.65,0,0,0-4-2,5.57,5.57,0,0,0-2.82.76,5.64,5.64,0,0,0-2.08,2.09v9Q8.87,789.77,11.51,789.77Z" transform="translate(-1.3)"/><path class="cls-6" d="M32.59,792a7.46,7.46,0,0,1-5.92-2.54,12.38,12.38,0,0,1,0-14.15,7.41,7.41,0,0,1,5.9-2.57,7.44,7.44,0,0,1,5.92,2.53,12.38,12.38,0,0,1,0,14.15A7.4,7.4,0,0,1,32.59,792Zm0-2.27a4.67,4.67,0,0,0,4-2,11.08,11.08,0,0,0,0-10.82,4.65,4.65,0,0,0-4-2,4.7,4.7,0,0,0-4,1.89,11.36,11.36,0,0,0,0,10.89A4.65,4.65,0,0,0,32.59,789.77Z" transform="translate(-1.3)"/><path class="cls-6" d="M54.67,792a6.62,6.62,0,0,1-5.19-2.31v7.92l-2.6,1.26v-25.7h2.6v1.65a7.69,7.69,0,0,1,5.19-2.08,7,7,0,0,1,5.74,2.61,10.83,10.83,0,0,1,2.09,7,10.6,10.6,0,0,1-2.17,7.09A7.07,7.07,0,0,1,54.67,792Zm-.29-2.27a4.71,4.71,0,0,0,4-1.91,9.1,9.1,0,0,0,1.41-5.47A9,9,0,0,0,58.35,777a4.66,4.66,0,0,0-4-2,5.52,5.52,0,0,0-2.82.76,5.64,5.64,0,0,0-2.08,2.09v9Q51.75,789.77,54.38,789.77Z" transform="translate(-1.3)"/><path class="cls-6" d="M80.13,791.6v-1.76a5.46,5.46,0,0,1-2.06,1.71,6.56,6.56,0,0,1-2.65.49c-2.45,0-4.22-.68-5.33-2s-1.65-3.53-1.65-6.55V773.21H71v11.23a5.83,5.83,0,0,0,1.19,4,4.09,4.09,0,0,0,3.19,1.3q4.71,0,4.71-5.26v-11.3h2.6V791.6Z" transform="translate(-1.3)"/><path class="cls-6" d="M90.38,791.6V766.84l2.6-1.23v26Z" transform="translate(-1.3)"/><path class="cls-6" d="M111.53,791.6v-1.8A8.31,8.31,0,0,1,106,792a6.68,6.68,0,0,1-4.71-1.61,6,6,0,0,1-1.74-4.62,5.42,5.42,0,0,1,2-4.54,7.8,7.8,0,0,1,4.92-1.55,11,11,0,0,1,5.12,1.3v-1.55c0-3-1.38-4.5-4.16-4.5a10.26,10.26,0,0,0-5.64,2l-.74-2.16a12.54,12.54,0,0,1,6.64-2,8.3,8.3,0,0,1,2.16.27,6.58,6.58,0,0,1,2,.93,4.67,4.67,0,0,1,1.58,2,7.67,7.67,0,0,1,.59,3.19V791.6Zm-5.31-1.76a6.87,6.87,0,0,0,5.31-2.84v-3.57a8.81,8.81,0,0,0-4.86-1.51,5.63,5.63,0,0,0-3.4,1,3.37,3.37,0,0,0-1.35,2.9,3.91,3.91,0,0,0,1.13,2.93A4.38,4.38,0,0,0,106.22,789.84Z" transform="translate(-1.3)"/><path class="cls-6" d="M125.38,792q-3.75,0-3.75-4.22V775.48H118.4v-2.27h3.23v-6.34l2.59-1.26v7.6h4.83v2.27h-4.83v11.26a4.63,4.63,0,0,0,.41,2.16,1.68,1.68,0,0,0,1.64.76,5.42,5.42,0,0,0,2.85-1.08l-.29,2.63A7.44,7.44,0,0,1,125.38,792Z" transform="translate(-1.3)"/><path class="cls-6" d="M137.62,769a1.83,1.83,0,0,1-2.45,0,1.59,1.59,0,0,1-.48-1.19,1.67,1.67,0,0,1,.5-1.22,1.63,1.63,0,0,1,1.21-.51,1.61,1.61,0,0,1,1.22.51,1.69,1.69,0,0,1,.48,1.22A1.59,1.59,0,0,1,137.62,769ZM135.1,791.6V773.21h2.6V791.6Z" transform="translate(-1.3)"/><path class="cls-6" d="M152,792a7.46,7.46,0,0,1-5.92-2.54,12.38,12.38,0,0,1,0-14.15,8.12,8.12,0,0,1,11.82,0,12.38,12.38,0,0,1,0,14.15A7.4,7.4,0,0,1,152,792Zm0-2.27a4.67,4.67,0,0,0,4-2,11.08,11.08,0,0,0,0-10.82,4.65,4.65,0,0,0-4-2,4.7,4.7,0,0,0-4,1.89,11.36,11.36,0,0,0,0,10.89A4.65,4.65,0,0,0,152,789.77Z" transform="translate(-1.3)"/><path class="cls-6" d="M178,791.6V780.37a5.82,5.82,0,0,0-1.19-4,4.2,4.2,0,0,0-3.23-1.28c-3.11,0-4.67,1.76-4.67,5.26v11.3h-2.6V773.21h2.6v2a5.66,5.66,0,0,1,4.9-2.44,6.2,6.2,0,0,1,5.14,2.05c1.1,1.37,1.65,3.56,1.65,6.59V791.6Z" transform="translate(-1.3)"/><path class="cls-6" d="M204.83,792a7.3,7.3,0,0,1-6-2.81,10.54,10.54,0,0,1-2.27-6.84,10.29,10.29,0,0,1,2.27-7.06,7.6,7.6,0,0,1,6-2.55,7.08,7.08,0,0,1,5.39,2.25q2.11,2.25,2.11,6.64c0,.65,0,1.23-.07,1.76H199.34a8.32,8.32,0,0,0,1.78,4.57,4.79,4.79,0,0,0,3.82,1.7,7.18,7.18,0,0,0,4.27-1.44l1.41,1.69A9,9,0,0,1,204.83,792Zm-5.56-10.88H209.7q0-3.35-1.51-4.73a4.77,4.77,0,0,0-3.36-1.39,5.22,5.22,0,0,0-3.89,1.55A6.7,6.7,0,0,0,199.27,781.16Z" transform="translate(-1.3)"/><path class="cls-6" d="M223.65,792a8.4,8.4,0,0,1-6.53-3.21l1.82-1.55a6.43,6.43,0,0,0,4.93,2.52,4.65,4.65,0,0,0,2.67-.7,2.22,2.22,0,0,0,1-2,2.71,2.71,0,0,0-.37-1.42,3.39,3.39,0,0,0-1.17-1.15,10,10,0,0,0-1.43-.81q-.63-.3-1.74-.72c-.89-.36-1.62-.69-2.19-1a11.16,11.16,0,0,1-1.74-1.08,4,4,0,0,1-1.32-1.53,4.41,4.41,0,0,1-.43-2,4.06,4.06,0,0,1,1.71-3.39,7.14,7.14,0,0,1,4.42-1.29,7.77,7.77,0,0,1,6.16,2.8L227.77,777a6.37,6.37,0,0,0-4.53-2,4.59,4.59,0,0,0-2.61.65,2,2,0,0,0-1,1.76,2.08,2.08,0,0,0,.26,1,2.78,2.78,0,0,0,.6.77,5.16,5.16,0,0,0,1,.69c.47.25.85.43,1.12.54L224,781c.75.29,1.33.52,1.75.7a15.9,15.9,0,0,1,1.58.83,6,6,0,0,1,1.44,1.11,5.53,5.53,0,0,1,.89,1.44,4.84,4.84,0,0,1,.39,2,4.44,4.44,0,0,1-1.72,3.67A7.32,7.32,0,0,1,223.65,792Z" transform="translate(-1.3)"/><path class="cls-6" d="M241,792q-3.75,0-3.75-4.22V775.48H234v-2.27h3.23v-6.34l2.6-1.26v7.6h4.83v2.27h-4.83v11.26a4.63,4.63,0,0,0,.41,2.16,1.67,1.67,0,0,0,1.63.76,5.42,5.42,0,0,0,2.86-1.08l-.3,2.63A7.38,7.38,0,0,1,241,792Z" transform="translate(-1.3)"/><path class="cls-6" d="M253.23,769a1.83,1.83,0,0,1-2.45,0,1.59,1.59,0,0,1-.48-1.19,1.63,1.63,0,0,1,.5-1.22,1.7,1.7,0,0,1,2.43,0,1.69,1.69,0,0,1,.48,1.22A1.59,1.59,0,0,1,253.23,769ZM250.7,791.6V773.21h2.6V791.6Z" transform="translate(-1.3)"/><path class="cls-6" d="M283,791.6V780.34q0-5.3-4.12-5.3a3.82,3.82,0,0,0-3.21,1.53,6,6,0,0,0-1.17,3.77V791.6H271.9V780.34c0-3.53-1.38-5.3-4.12-5.3a4,4,0,0,0-3.25,1.39,5.5,5.5,0,0,0-1.13,3.62V791.6h-2.6V773.21h2.6V775a6.54,6.54,0,0,1,5.16-2.23,6.17,6.17,0,0,1,2.93.75,5.63,5.63,0,0,1,2.19,2.05,6.35,6.35,0,0,1,2.24-2,6.44,6.44,0,0,1,3.18-.79,6.24,6.24,0,0,1,6.49,6.58V791.6Z" transform="translate(-1.3)"/><path class="cls-6" d="M303.78,791.6v-1.8a8.33,8.33,0,0,1-5.57,2.24,6.68,6.68,0,0,1-4.71-1.61,5.93,5.93,0,0,1-1.75-4.62,5.4,5.4,0,0,1,2-4.54,7.75,7.75,0,0,1,4.91-1.55,11,11,0,0,1,5.13,1.3v-1.55q0-4.5-4.16-4.5a10.26,10.26,0,0,0-5.64,2l-.74-2.16a12.52,12.52,0,0,1,6.64-2,8.22,8.22,0,0,1,2.15.27,6.74,6.74,0,0,1,2,.93,4.75,4.75,0,0,1,1.58,2,7.83,7.83,0,0,1,.59,3.19V791.6Zm-5.31-1.76a6.9,6.9,0,0,0,5.31-2.84v-3.57a8.82,8.82,0,0,0-4.87-1.51,5.58,5.58,0,0,0-3.39,1,3.38,3.38,0,0,0-1.36,2.9,3.88,3.88,0,0,0,1.14,2.93A4.36,4.36,0,0,0,298.47,789.84Z" transform="translate(-1.3)"/><path class="cls-6" d="M317.62,792q-3.75,0-3.75-4.22V775.48h-3.23v-2.27h3.23v-6.34l2.6-1.26v7.6h4.82v2.27h-4.82v11.26a4.5,4.5,0,0,0,.41,2.16,1.66,1.66,0,0,0,1.63.76,5.42,5.42,0,0,0,2.86-1.08l-.3,2.63A7.38,7.38,0,0,1,317.62,792Z" transform="translate(-1.3)"/><path class="cls-6" d="M334.25,792a7.31,7.31,0,0,1-6-2.81,10.54,10.54,0,0,1-2.26-6.84,10.29,10.29,0,0,1,2.26-7.06,7.61,7.61,0,0,1,6-2.55,7.07,7.07,0,0,1,5.38,2.25q2.12,2.25,2.11,6.64c0,.65,0,1.23-.07,1.76H328.75a8.33,8.33,0,0,0,1.79,4.57,4.76,4.76,0,0,0,3.82,1.7,7.2,7.2,0,0,0,4.27-1.44L340,790A9.06,9.06,0,0,1,334.25,792Zm-5.57-10.88h10.43q0-3.35-1.5-4.73a4.78,4.78,0,0,0-3.36-1.39,5.23,5.23,0,0,0-3.9,1.55A6.79,6.79,0,0,0,328.68,781.16Z" transform="translate(-1.3)"/><path class="cls-6" d="M353.06,792a8.41,8.41,0,0,1-6.53-3.21l1.82-1.55a6.44,6.44,0,0,0,4.94,2.52,4.67,4.67,0,0,0,2.67-.7,2.24,2.24,0,0,0,1-2,2.81,2.81,0,0,0-.37-1.42,3.57,3.57,0,0,0-1.17-1.15,11.18,11.18,0,0,0-1.43-.81c-.42-.2-1-.44-1.75-.72s-1.62-.69-2.19-1a11.16,11.16,0,0,1-1.74-1.08,4.16,4.16,0,0,1-1.32-1.53,4.55,4.55,0,0,1-.43-2,4.06,4.06,0,0,1,1.71-3.39,7.14,7.14,0,0,1,4.42-1.29,7.76,7.76,0,0,1,6.16,2.8L357.18,777a6.37,6.37,0,0,0-4.53-2,4.61,4.61,0,0,0-2.61.65,2,2,0,0,0-1,1.76,2.07,2.07,0,0,0,.25,1,3.21,3.21,0,0,0,.6.77,5.29,5.29,0,0,0,1,.69q.71.38,1.11.54l1.34.52c.74.29,1.32.52,1.74.7a14.87,14.87,0,0,1,1.58.83,6.28,6.28,0,0,1,1.45,1.11,5.81,5.81,0,0,1,.89,1.44,4.84,4.84,0,0,1,.39,2,4.45,4.45,0,0,1-1.73,3.67A7.3,7.3,0,0,1,353.06,792Z" transform="translate(-1.3)"/><path class="cls-6" d="M364.75,796.28a27.3,27.3,0,0,0,2.81-24.3,23.72,23.72,0,0,0-3.21-6h2.48q4.94,5.73,4.94,15.41,0,9.15-4.53,14.9Z" transform="translate(-1.3)"/><path class="cls-6" d="M391.59,769a1.71,1.71,0,0,1-1.23.47,1.69,1.69,0,0,1-1.22-.47,1.56,1.56,0,0,1-.49-1.19,1.67,1.67,0,0,1,.5-1.22,1.65,1.65,0,0,1,1.21-.51,1.63,1.63,0,0,1,1.23.51,1.69,1.69,0,0,1,.48,1.22A1.59,1.59,0,0,1,391.59,769Zm-2.53,22.64V773.21h2.6V791.6Z" transform="translate(-1.3)"/><path class="cls-6" d="M410.85,791.6V780.37a5.82,5.82,0,0,0-1.19-4,4.2,4.2,0,0,0-3.23-1.28c-3.12,0-4.67,1.76-4.67,5.26v11.3h-2.6V773.21h2.6v2a5.65,5.65,0,0,1,4.89-2.44q3.5,0,5.14,2.05c1.11,1.37,1.66,3.56,1.66,6.59V791.6Z" transform="translate(-1.3)"/><path class="cls-6" d="M433.49,791.6V771h-4.42v-1.44c2.84,0,4.63-1,5.34-3.14h1.67v25.2Z" transform="translate(-1.3)"/><path class="cls-6" d="M447,791.6V771h-4.42v-1.44c2.84,0,4.63-1,5.34-3.14h1.67v25.2Z" transform="translate(-1.3)"/><path class="cls-6" d="M474,792a6.65,6.65,0,0,1-5.48-2.54,11.07,11.07,0,0,1-2-7.08,10.93,10.93,0,0,1,2.08-7.09,7,7,0,0,1,5.71-2.55,6.86,6.86,0,0,1,3.72,1,6.11,6.11,0,0,1,2.37,2.85l-2.37.9a3.82,3.82,0,0,0-3.83-2.49q-5,0-5,7.38t4.9,7.35a4.42,4.42,0,0,0,2.61-.76,4.2,4.2,0,0,0,1.58-2l2.34.86a5.73,5.73,0,0,1-2.45,3.08A7.6,7.6,0,0,1,474,792Z" transform="translate(-1.3)"/><path class="cls-6" d="M493.2,792a7.46,7.46,0,0,1-5.92-2.54,12.38,12.38,0,0,1,0-14.15,8.12,8.12,0,0,1,11.82,0,12.38,12.38,0,0,1,0,14.15A7.4,7.4,0,0,1,493.2,792Zm0-2.27a4.67,4.67,0,0,0,4-2,11.08,11.08,0,0,0,0-10.82,5.18,5.18,0,0,0-8.05-.06,11.29,11.29,0,0,0,0,10.89A4.62,4.62,0,0,0,493.2,789.77Z" transform="translate(-1.3)"/><path class="cls-6" d="M519,791.6v-1.76a5.46,5.46,0,0,1-2.06,1.71,6.56,6.56,0,0,1-2.65.49c-2.45,0-4.22-.68-5.32-2s-1.66-3.53-1.66-6.55V773.21h2.6v11.23a5.83,5.83,0,0,0,1.19,4,4.09,4.09,0,0,0,3.19,1.3q4.71,0,4.71-5.26v-11.3h2.6V791.6Z" transform="translate(-1.3)"/><path class="cls-6" d="M540.74,791.6V780.37a5.82,5.82,0,0,0-1.18-4,4.22,4.22,0,0,0-3.23-1.28c-3.12,0-4.68,1.76-4.68,5.26v11.3h-2.6V773.21h2.6v2a5.67,5.67,0,0,1,4.9-2.44,6.2,6.2,0,0,1,5.14,2.05c1.1,1.37,1.65,3.56,1.65,6.59V791.6Z" transform="translate(-1.3)"/><path class="cls-6" d="M555.37,792q-3.75,0-3.75-4.22V775.48h-3.23v-2.27h3.23v-6.34l2.6-1.26v7.6H559v2.27h-4.82v11.26a4.64,4.64,0,0,0,.4,2.16,1.69,1.69,0,0,0,1.64.76,5.42,5.42,0,0,0,2.85-1.08l-.29,2.63A7.44,7.44,0,0,1,555.37,792Z" transform="translate(-1.3)"/><path class="cls-6" d="M565.05,791.6V773.21h2.6v2.59a4.93,4.93,0,0,1,4.79-3,4.57,4.57,0,0,1,2.67.75L574.7,776a4.67,4.67,0,0,0-2.45-.68,4.39,4.39,0,0,0-3.17,1.42,6.12,6.12,0,0,0-1.43,4.48v10.4Z" transform="translate(-1.3)"/><path class="cls-6" d="M582.5,769a1.71,1.71,0,0,1-1.23.47,1.67,1.67,0,0,1-1.22-.47,1.56,1.56,0,0,1-.49-1.19,1.67,1.67,0,0,1,.5-1.22,1.65,1.65,0,0,1,1.21-.51,1.63,1.63,0,0,1,1.23.51,1.69,1.69,0,0,1,.48,1.22A1.59,1.59,0,0,1,582.5,769ZM580,791.6V773.21h2.6V791.6Z" transform="translate(-1.3)"/><path class="cls-6" d="M597,792a7.31,7.31,0,0,1-6-2.81,10.54,10.54,0,0,1-2.26-6.84,10.29,10.29,0,0,1,2.26-7.06,7.61,7.61,0,0,1,6-2.55,7.07,7.07,0,0,1,5.38,2.25q2.11,2.25,2.11,6.64c0,.65,0,1.23-.07,1.76H591.51A8.33,8.33,0,0,0,593.3,788a4.76,4.76,0,0,0,3.82,1.7,7.2,7.2,0,0,0,4.27-1.44L602.8,790A9.06,9.06,0,0,1,597,792Zm-5.57-10.88h10.43q0-3.35-1.5-4.73A4.78,4.78,0,0,0,597,775a5.23,5.23,0,0,0-3.9,1.55A6.79,6.79,0,0,0,591.44,781.16Z" transform="translate(-1.3)"/><path class="cls-6" d="M615.82,792a8.41,8.41,0,0,1-6.53-3.21l1.82-1.55a6.44,6.44,0,0,0,4.94,2.52,4.69,4.69,0,0,0,2.67-.7,2.24,2.24,0,0,0,1-2,2.81,2.81,0,0,0-.37-1.42,3.57,3.57,0,0,0-1.17-1.15,11.18,11.18,0,0,0-1.43-.81c-.42-.2-1-.44-1.75-.72s-1.62-.69-2.19-1a11.16,11.16,0,0,1-1.74-1.08,4.16,4.16,0,0,1-1.32-1.53,4.55,4.55,0,0,1-.43-2,4.06,4.06,0,0,1,1.71-3.39,7.14,7.14,0,0,1,4.42-1.29,7.76,7.76,0,0,1,6.16,2.8L619.94,777a6.37,6.37,0,0,0-4.53-2,4.61,4.61,0,0,0-2.61.65,2,2,0,0,0-1,1.76,2.08,2.08,0,0,0,.26,1,3.21,3.21,0,0,0,.6.77,5.29,5.29,0,0,0,1,.69q.7.38,1.11.54l1.34.52c.74.29,1.32.52,1.74.7a14.87,14.87,0,0,1,1.58.83,6.28,6.28,0,0,1,1.45,1.11,5.81,5.81,0,0,1,.89,1.44,4.84,4.84,0,0,1,.39,2,4.45,4.45,0,0,1-1.73,3.67A7.3,7.3,0,0,1,615.82,792Z" transform="translate(-1.3)"/><path class="cls-6" d="M641.25,791.6l-4.68-18.39h2.6l3.11,13.25.45,2,.3-1.1c.12-.46.21-.77.26-.91l4-13.25H649l4,13.25c.07.26.19.64.33,1.15s.25.85.3,1c.05-.26.13-.64.24-1.13s.19-.85.24-1.06l3-13.25h2.6l-4.68,18.39h-2.34l-3.78-11.12c0-.07-.14-.41-.34-1s-.36-1.09-.48-1.47c-.12.36-.38,1.17-.78,2.44l-3.71,11.16Z" transform="translate(-1.3)"/><path class="cls-6" d="M667.86,769a1.71,1.71,0,0,1-1.23.47,1.69,1.69,0,0,1-1.22-.47,1.56,1.56,0,0,1-.49-1.19,1.67,1.67,0,0,1,.5-1.22,1.65,1.65,0,0,1,1.21-.51,1.63,1.63,0,0,1,1.23.51,1.69,1.69,0,0,1,.48,1.22A1.59,1.59,0,0,1,667.86,769Zm-2.53,22.64V773.21h2.6V791.6Z" transform="translate(-1.3)"/><path class="cls-6" d="M680.18,792q-3.75,0-3.75-4.22V775.48H673.2v-2.27h3.23v-6.34l2.6-1.26v7.6h4.82v2.27H679v11.26a4.5,4.5,0,0,0,.41,2.16,1.66,1.66,0,0,0,1.63.76,5.45,5.45,0,0,0,2.86-1.08l-.3,2.63A7.44,7.44,0,0,1,680.18,792Z" transform="translate(-1.3)"/><path class="cls-6" d="M689.86,791.6V766.8l2.6-1.19v9.65a5.57,5.57,0,0,1,4.9-2.48q3.5,0,5.14,2.05c1.1,1.37,1.65,3.56,1.65,6.59V791.6h-2.6V780.37a5.82,5.82,0,0,0-1.18-4,4.22,4.22,0,0,0-3.23-1.28c-3.12,0-4.68,1.76-4.68,5.26v11.3Z" transform="translate(-1.3)"/><path class="cls-6" d="M724,769a1.83,1.83,0,0,1-2.45,0,1.6,1.6,0,0,1-.49-1.19,1.64,1.64,0,0,1,.51-1.22,1.7,1.7,0,0,1,2.43,0,1.69,1.69,0,0,1,.48,1.22A1.59,1.59,0,0,1,724,769Zm-2.53,22.64V773.21h2.6V791.6Z" transform="translate(-1.3)"/><path class="cls-6" d="M743.27,791.6V780.37a5.82,5.82,0,0,0-1.19-4,4.2,4.2,0,0,0-3.23-1.28c-3.12,0-4.67,1.76-4.67,5.26v11.3h-2.6V773.21h2.6v2a5.65,5.65,0,0,1,4.89-2.44,6.23,6.23,0,0,1,5.15,2.05c1.1,1.37,1.65,3.56,1.65,6.59V791.6Z" transform="translate(-1.3)"/><path class="cls-6" d="M758.49,792a8.43,8.43,0,0,1-6.54-3.21l1.82-1.55a6.45,6.45,0,0,0,4.94,2.52,4.65,4.65,0,0,0,2.67-.7,2.24,2.24,0,0,0,1-2,2.71,2.71,0,0,0-.37-1.42,3.57,3.57,0,0,0-1.17-1.15,10.54,10.54,0,0,0-1.43-.81q-.63-.3-1.74-.72c-.89-.36-1.62-.69-2.19-1a11.71,11.71,0,0,1-1.75-1.08,4.16,4.16,0,0,1-1.32-1.53,4.54,4.54,0,0,1-.42-2,4.08,4.08,0,0,1,1.7-3.39,7.16,7.16,0,0,1,4.42-1.29,7.76,7.76,0,0,1,6.16,2.8L762.6,777a6.36,6.36,0,0,0-4.52-2,4.64,4.64,0,0,0-2.62.65,2,2,0,0,0-1,1.76,2,2,0,0,0,.26,1,3,3,0,0,0,.59.77,5.29,5.29,0,0,0,1,.69q.71.38,1.11.54l1.34.52c.74.29,1.32.52,1.74.7a14.87,14.87,0,0,1,1.58.83,6.07,6.07,0,0,1,1.45,1.11,5.81,5.81,0,0,1,.89,1.44,4.84,4.84,0,0,1,.39,2,4.45,4.45,0,0,1-1.73,3.67A7.29,7.29,0,0,1,758.49,792Z" transform="translate(-1.3)"/><path class="cls-6" d="M782.57,791.6v-1.76a5.46,5.46,0,0,1-2.06,1.71,6.56,6.56,0,0,1-2.65.49c-2.45,0-4.23-.68-5.33-2s-1.65-3.53-1.65-6.55V773.21h2.6v11.23a5.83,5.83,0,0,0,1.19,4,4.09,4.09,0,0,0,3.19,1.3q4.71,0,4.71-5.26v-11.3h2.6V791.6Z" transform="translate(-1.3)"/><path class="cls-6" d="M792.63,791.6V773.21h2.6v2.59a4.93,4.93,0,0,1,4.79-3,4.57,4.57,0,0,1,2.67.75l-.41,2.45a4.67,4.67,0,0,0-2.45-.68,4.39,4.39,0,0,0-3.17,1.42,6.07,6.07,0,0,0-1.43,4.48v10.4Z" transform="translate(-1.3)"/><path class="cls-6" d="M812.86,799.27l-1.19-2c2.84-.14,4.8-.65,5.88-1.51a4.2,4.2,0,0,0,1.62-3.46v-2.8A5.92,5.92,0,0,1,814,792a7.07,7.07,0,0,1-5.51-2.54q-2.25-2.54-2.25-7.11a10.52,10.52,0,0,1,2.19-7,7.14,7.14,0,0,1,5.72-2.57,6.4,6.4,0,0,1,5,2.16v-1.73h2.59v18.11Q821.76,798.91,812.86,799.27Zm1.7-9.5a4.64,4.64,0,0,0,2.54-.85,6,6,0,0,0,2.07-2.21v-8.86a5.45,5.45,0,0,0-2.1-2.05,5.28,5.28,0,0,0-2.51-.76,5,5,0,0,0-4.21,1.89,9,9,0,0,0-1.43,5.46,8.45,8.45,0,0,0,1.58,5.42A5,5,0,0,0,814.56,789.77Z" transform="translate(-1.3)"/><path class="cls-6" d="M836.13,792a7.31,7.31,0,0,1-6-2.81,10.54,10.54,0,0,1-2.26-6.84,10.29,10.29,0,0,1,2.26-7.06,7.61,7.61,0,0,1,6-2.55,7.07,7.07,0,0,1,5.38,2.25q2.12,2.25,2.11,6.64c0,.65,0,1.23-.07,1.76H830.63a8.33,8.33,0,0,0,1.79,4.57,4.76,4.76,0,0,0,3.82,1.7,7.2,7.2,0,0,0,4.27-1.44l1.41,1.69A9.06,9.06,0,0,1,836.13,792Zm-5.57-10.88H841q0-3.35-1.5-4.73a4.78,4.78,0,0,0-3.36-1.39,5.23,5.23,0,0,0-3.9,1.55A6.79,6.79,0,0,0,830.56,781.16Z" transform="translate(-1.3)"/><path class="cls-6" d="M861.29,791.6V780.37a5.82,5.82,0,0,0-1.19-4,4.2,4.2,0,0,0-3.23-1.28c-3.11,0-4.67,1.76-4.67,5.26v11.3h-2.6V773.21h2.6v2a5.66,5.66,0,0,1,4.9-2.44,6.22,6.22,0,0,1,5.14,2.05c1.1,1.37,1.65,3.56,1.65,6.59V791.6Z" transform="translate(-1.3)"/><path class="cls-6" d="M877.36,792a6.65,6.65,0,0,1-5.48-2.54,11.13,11.13,0,0,1-2-7.08,10.93,10.93,0,0,1,2.08-7.09,7,7,0,0,1,5.72-2.55,6.82,6.82,0,0,1,3.71,1,6.11,6.11,0,0,1,2.37,2.85l-2.37.9a3.82,3.82,0,0,0-3.83-2.49q-5,0-5,7.38t4.9,7.35a4.47,4.47,0,0,0,2.62-.76,4.18,4.18,0,0,0,1.57-2l2.34.86a5.73,5.73,0,0,1-2.45,3.08A7.6,7.6,0,0,1,877.36,792Z" transform="translate(-1.3)"/><path class="cls-6" d="M892,798.59l2.82-7.56-6.94-17.82h2.63l4.79,13.07c.08.24.19.57.34,1s.24.72.29.87l.67-1.87,4.86-13.07h2.79l-9.69,25.38Z" transform="translate(-1.3)"/><path class="cls-6" d="M930.77,791.6v-1.8A8.33,8.33,0,0,1,925.2,792a6.72,6.72,0,0,1-4.72-1.61,6,6,0,0,1-1.74-4.62,5.4,5.4,0,0,1,2-4.54,7.75,7.75,0,0,1,4.91-1.55,11,11,0,0,1,5.13,1.3v-1.55q0-4.5-4.16-4.5a10.26,10.26,0,0,0-5.64,2l-.75-2.16a12.58,12.58,0,0,1,6.65-2,8.28,8.28,0,0,1,2.15.27,6.74,6.74,0,0,1,2,.93,4.66,4.66,0,0,1,1.57,2,7.66,7.66,0,0,1,.6,3.19V791.6Zm-5.31-1.76a6.9,6.9,0,0,0,5.31-2.84v-3.57a8.82,8.82,0,0,0-4.87-1.51,5.58,5.58,0,0,0-3.39,1,3.36,3.36,0,0,0-1.36,2.9,3.91,3.91,0,0,0,1.13,2.93A4.4,4.4,0,0,0,925.46,789.84Z" transform="translate(-1.3)"/><path class="cls-6" d="M951.55,791.6V780.37a5.82,5.82,0,0,0-1.19-4,4.2,4.2,0,0,0-3.23-1.28c-3.12,0-4.67,1.76-4.67,5.26v11.3h-2.6V773.21h2.6v2a5.65,5.65,0,0,1,4.89-2.44q3.49,0,5.14,2.05c1.11,1.37,1.66,3.56,1.66,6.59V791.6Z" transform="translate(-1.3)"/><path class="cls-6" d="M968,792a7,7,0,0,1-5.73-2.61,12.88,12.88,0,0,1,0-14.1,7,7,0,0,1,5.73-2.55,8,8,0,0,1,5,1.72v-7.63l2.6-1.26v26H973V790A7,7,0,0,1,968,792Zm.3-2.27A5.14,5.14,0,0,0,971,789a5.7,5.7,0,0,0,2-2.12v-9.18a5.35,5.35,0,0,0-4.75-2.67,4.7,4.7,0,0,0-4,1.91,9,9,0,0,0-1.41,5.44,8.91,8.91,0,0,0,1.48,5.27A4.6,4.6,0,0,0,968.25,789.77Z" transform="translate(-1.3)"/><path class="cls-6" d="M13.92,832.6v-6.8H1.3v-1.34L15,807.4h1.56v16.24h3.93v2.16H16.52v6.8Zm0-9V811.76L4.68,823.64Z" transform="translate(-1.3)"/><path class="cls-6" d="M33.55,833A8.88,8.88,0,0,1,28,831.47a9.57,9.57,0,0,1-3.06-4.34l2.41-1a7.89,7.89,0,0,0,2.45,3.43,6.09,6.09,0,0,0,3.75,1.1,7.19,7.19,0,0,0,4.36-1.26,4.26,4.26,0,0,0,1.73-3.67A4.78,4.78,0,0,0,38.13,822a6.15,6.15,0,0,0-4.28-1.37H32.1v-2.31h1.38a5.4,5.4,0,0,0,3.71-1.24,4.22,4.22,0,0,0,1.41-3.33,4.09,4.09,0,0,0-1.41-3.24,5,5,0,0,0-3.38-1.22,5.92,5.92,0,0,0-5.75,3.89l-2.41-.9a8.83,8.83,0,0,1,3-3.8A8.25,8.25,0,0,1,33.7,807a8.28,8.28,0,0,1,5.44,1.78,5.76,5.76,0,0,1,2.17,4.66,6.27,6.27,0,0,1-.89,3.21,6,6,0,0,1-2.42,2.3,6.62,6.62,0,0,1,3.21,2.56,7.43,7.43,0,0,1,1.17,4.21,6.49,6.49,0,0,1-2.61,5.24A9.65,9.65,0,0,1,33.55,833Z" transform="translate(-1.3)"/><path class="cls-6" d="M65.47,833A6.64,6.64,0,0,1,60,830.5a11.09,11.09,0,0,1-2-7.08,10.91,10.91,0,0,1,2.08-7.09,6.94,6.94,0,0,1,5.71-2.56,6.86,6.86,0,0,1,3.72,1,6.09,6.09,0,0,1,2.37,2.84l-2.37.9A3.82,3.82,0,0,0,65.65,816q-5,0-5,7.38t4.9,7.34a4.51,4.51,0,0,0,2.61-.75,4.25,4.25,0,0,0,1.58-2l2.34.86a5.77,5.77,0,0,1-2.45,3.08A7.62,7.62,0,0,1,65.47,833Z" transform="translate(-1.3)"/><path class="cls-6" d="M84.69,833a7.46,7.46,0,0,1-5.92-2.53,12.38,12.38,0,0,1,0-14.15,8.1,8.1,0,0,1,11.82,0,12.38,12.38,0,0,1,0,14.15A7.42,7.42,0,0,1,84.69,833Zm0-2.27a4.64,4.64,0,0,0,4-2,9,9,0,0,0,1.43-5.42,9.14,9.14,0,0,0-1.39-5.4,5.2,5.2,0,0,0-8.06-.05,11.36,11.36,0,0,0,0,10.89A4.64,4.64,0,0,0,84.69,830.76Z" transform="translate(-1.3)"/><path class="cls-6" d="M110.48,832.6v-1.76a5.71,5.71,0,0,1-2,1.71,6.62,6.62,0,0,1-2.66.48q-3.67,0-5.32-2c-1.11-1.35-1.66-3.53-1.66-6.56V814.2h2.6v11.24a5.84,5.84,0,0,0,1.19,4,4.13,4.13,0,0,0,3.19,1.29q4.71,0,4.71-5.25V814.2h2.6v18.4Z" transform="translate(-1.3)"/><path class="cls-6" d="M132.23,832.6V821.37a5.82,5.82,0,0,0-1.18-4,4.22,4.22,0,0,0-3.23-1.28q-4.68,0-4.68,5.26v11.3h-2.6V814.2h2.6v2a5.68,5.68,0,0,1,4.9-2.45,6.21,6.21,0,0,1,5.14,2.06c1.1,1.36,1.65,3.56,1.65,6.58V832.6Z" transform="translate(-1.3)"/><path class="cls-6" d="M146.86,833q-3.75,0-3.75-4.21V816.47h-3.23V814.2h3.23v-6.33l2.6-1.26v7.59h4.82v2.27h-4.82v11.27a4.64,4.64,0,0,0,.4,2.16,1.69,1.69,0,0,0,1.64.76,5.39,5.39,0,0,0,2.85-1.08l-.29,2.62A7.32,7.32,0,0,1,146.86,833Z" transform="translate(-1.3)"/><path class="cls-6" d="M156.54,832.6V814.2h2.6v2.6a4.94,4.94,0,0,1,4.79-3,4.5,4.5,0,0,1,2.67.76l-.41,2.45a4.68,4.68,0,0,0-2.45-.69,4.43,4.43,0,0,0-3.17,1.42,6.14,6.14,0,0,0-1.43,4.49v10.4Z" transform="translate(-1.3)"/><path class="cls-6" d="M174,810a1.85,1.85,0,0,1-2.44,0,1.56,1.56,0,0,1-.49-1.19,1.71,1.71,0,0,1,.5-1.23,1.68,1.68,0,0,1,1.21-.5,1.64,1.64,0,0,1,1.22.5,1.7,1.7,0,0,1,.49,1.23A1.56,1.56,0,0,1,174,810Zm-2.52,22.64V814.2h2.6v18.4Z" transform="translate(-1.3)"/><path class="cls-6" d="M188.5,833a7.28,7.28,0,0,1-6-2.81,10.54,10.54,0,0,1-2.26-6.84,10.24,10.24,0,0,1,2.26-7,7.58,7.58,0,0,1,6-2.56,7.07,7.07,0,0,1,5.38,2.25c1.41,1.5,2.11,3.72,2.11,6.64,0,.65,0,1.24-.07,1.77H183a8.36,8.36,0,0,0,1.79,4.57,4.75,4.75,0,0,0,3.82,1.69,7.2,7.2,0,0,0,4.27-1.44l1.41,1.7A9.05,9.05,0,0,1,188.5,833Zm-5.57-10.87h10.43q0-3.35-1.5-4.73A4.74,4.74,0,0,0,188.5,816a5.23,5.23,0,0,0-3.9,1.55A6.73,6.73,0,0,0,182.93,822.16Z" transform="translate(-1.3)"/><path class="cls-6" d="M207.31,833a8.43,8.43,0,0,1-6.53-3.2l1.82-1.55a6.44,6.44,0,0,0,4.94,2.52,4.67,4.67,0,0,0,2.67-.7,2.24,2.24,0,0,0,1-2,2.85,2.85,0,0,0-.37-1.43,3.67,3.67,0,0,0-1.17-1.15,12.54,12.54,0,0,0-1.43-.81c-.42-.19-1-.43-1.75-.72s-1.62-.68-2.19-1A12.9,12.9,0,0,1,202.6,822a4.16,4.16,0,0,1-1.32-1.53,4.59,4.59,0,0,1-.43-2,4,4,0,0,1,1.71-3.38,7.08,7.08,0,0,1,4.42-1.3,7.77,7.77,0,0,1,6.16,2.81l-1.71,1.4a6.37,6.37,0,0,0-4.53-2,4.69,4.69,0,0,0-2.61.65,2,2,0,0,0-1,1.77,2,2,0,0,0,.25,1,3.09,3.09,0,0,0,.6.78,5.33,5.33,0,0,0,1,.68q.7.38,1.11.54l1.34.53c.74.28,1.32.52,1.74.7a14.51,14.51,0,0,1,1.58.82,6.58,6.58,0,0,1,1.45,1.12,5.46,5.46,0,0,1,.89,1.44,4.8,4.8,0,0,1,.39,2,4.44,4.44,0,0,1-1.73,3.67A7.24,7.24,0,0,1,207.31,833Z" transform="translate(-1.3)"/><path class="cls-6" d="M240.83,832.6v-1.8a8.32,8.32,0,0,1-5.57,2.23,6.67,6.67,0,0,1-4.71-1.6,6,6,0,0,1-1.75-4.63,5.38,5.38,0,0,1,2-4.53,7.75,7.75,0,0,1,4.91-1.55,10.92,10.92,0,0,1,5.13,1.3v-1.55q0-4.5-4.16-4.5a10.26,10.26,0,0,0-5.64,2l-.74-2.16a12.53,12.53,0,0,1,6.64-2,8.22,8.22,0,0,1,2.15.27,6.78,6.78,0,0,1,2,.94,4.63,4.63,0,0,1,1.58,2,7.78,7.78,0,0,1,.59,3.18V832.6Zm-5.31-1.76a6.88,6.88,0,0,0,5.31-2.85v-3.56a8.82,8.82,0,0,0-4.87-1.51,5.58,5.58,0,0,0-3.39,1,3.36,3.36,0,0,0-1.36,2.89,3.89,3.89,0,0,0,1.14,2.94A4.36,4.36,0,0,0,235.52,830.84Z" transform="translate(-1.3)"/><path class="cls-6" d="M254.67,833q-3.75,0-3.75-4.21V816.47h-3.23V814.2h3.23v-6.33l2.6-1.26v7.59h4.82v2.27h-4.82v11.27a4.5,4.5,0,0,0,.41,2.16,1.66,1.66,0,0,0,1.63.76,5.42,5.42,0,0,0,2.86-1.08l-.3,2.62A7.26,7.26,0,0,1,254.67,833Z" transform="translate(-1.3)"/><path class="cls-6" d="M282.17,833a6.66,6.66,0,0,1-5.2-2.3v7.92l-2.59,1.26V814.2H277v1.66a7.74,7.74,0,0,1,5.2-2.09,7,7,0,0,1,5.73,2.61,10.86,10.86,0,0,1,2.1,7,10.63,10.63,0,0,1-2.17,7.1A7.09,7.09,0,0,1,282.17,833Zm-.3-2.27a4.69,4.69,0,0,0,4-1.9,9.13,9.13,0,0,0,1.41-5.48,8.87,8.87,0,0,0-1.45-5.36,4.64,4.64,0,0,0-4-2,5.48,5.48,0,0,0-2.82.76,5.76,5.76,0,0,0-2.08,2.08v9C278.48,829.82,280.12,830.76,281.87,830.76Z" transform="translate(-1.3)"/><path class="cls-6" d="M303.06,833a7.27,7.27,0,0,1-6-2.81,10.54,10.54,0,0,1-2.27-6.84,10.25,10.25,0,0,1,2.27-7,7.57,7.57,0,0,1,6-2.56,7.08,7.08,0,0,1,5.39,2.25c1.41,1.5,2.11,3.72,2.11,6.64,0,.65,0,1.24-.07,1.77H297.57a8.36,8.36,0,0,0,1.78,4.57,4.79,4.79,0,0,0,3.83,1.69,7.17,7.17,0,0,0,4.26-1.44l1.41,1.7A9,9,0,0,1,303.06,833Zm-5.56-10.87h10.43q0-3.35-1.51-4.73a4.72,4.72,0,0,0-3.36-1.39,5.22,5.22,0,0,0-3.89,1.55A6.73,6.73,0,0,0,297.5,822.16Z" transform="translate(-1.3)"/><path class="cls-6" d="M327.45,832.6v-1.8a8.32,8.32,0,0,1-5.57,2.23,6.67,6.67,0,0,1-4.71-1.6,6,6,0,0,1-1.75-4.63,5.38,5.38,0,0,1,2-4.53,7.76,7.76,0,0,1,4.92-1.55,10.91,10.91,0,0,1,5.12,1.3v-1.55q0-4.5-4.16-4.5a10.26,10.26,0,0,0-5.64,2l-.74-2.16a12.53,12.53,0,0,1,6.64-2,8.22,8.22,0,0,1,2.15.27,6.78,6.78,0,0,1,2,.94,4.63,4.63,0,0,1,1.58,2,7.78,7.78,0,0,1,.59,3.18V832.6Zm-5.31-1.76a6.88,6.88,0,0,0,5.31-2.85v-3.56a8.81,8.81,0,0,0-4.86-1.51,5.59,5.59,0,0,0-3.4,1,3.36,3.36,0,0,0-1.35,2.89,3.88,3.88,0,0,0,1.13,2.94A4.36,4.36,0,0,0,322.14,830.84Z" transform="translate(-1.3)"/><path class="cls-6" d="M342.74,833a6.64,6.64,0,0,1-5.48-2.53,11.09,11.09,0,0,1-2-7.08,10.91,10.91,0,0,1,2.08-7.09,6.94,6.94,0,0,1,5.71-2.56,6.86,6.86,0,0,1,3.72,1,6.09,6.09,0,0,1,2.37,2.84l-2.37.9a3.82,3.82,0,0,0-3.83-2.48q-5,0-5,7.38t4.9,7.34a4.54,4.54,0,0,0,2.62-.75,4.29,4.29,0,0,0,1.57-2l2.34.86a5.77,5.77,0,0,1-2.45,3.08A7.59,7.59,0,0,1,342.74,833Z" transform="translate(-1.3)"/><path class="cls-6" d="M362.07,833a7.27,7.27,0,0,1-6-2.81,10.54,10.54,0,0,1-2.27-6.84,10.25,10.25,0,0,1,2.27-7,7.57,7.57,0,0,1,6-2.56,7.08,7.08,0,0,1,5.39,2.25c1.41,1.5,2.11,3.72,2.11,6.64,0,.65,0,1.24-.07,1.77H356.58a8.36,8.36,0,0,0,1.78,4.57,4.79,4.79,0,0,0,3.83,1.69,7.17,7.17,0,0,0,4.26-1.44l1.41,1.7A9,9,0,0,1,362.07,833Zm-5.56-10.87h10.43q0-3.35-1.51-4.73a4.72,4.72,0,0,0-3.36-1.39,5.22,5.22,0,0,0-3.89,1.55A6.68,6.68,0,0,0,356.51,822.16Z" transform="translate(-1.3)"/></svg>