<?xml version="1.0" encoding="utf-8"?>
<!-- Generator: Adobe Illustrator 25.0.1, SVG Export Plug-In . SVG Version: 6.00 Build 0)  -->
<svg version="1.1" id="Layer_1" xmlns="http://www.w3.org/2000/svg" xmlns:xlink="http://www.w3.org/1999/xlink" x="0px" y="0px"
	 viewBox="0 0 987.5 846.2" style="enable-background:new 0 0 987.5 846.2;" xml:space="preserve">
<style type="text/css">
	.st0{fill:#585856;}
	.st1{fill-rule:evenodd;clip-rule:evenodd;fill:#585856;}
	.st2{fill:#CEBFD1;}
	.st3{font-family:'Nunito-Bold';}
	.st4{font-size:72px;}
	.st5{letter-spacing:1;}
	.st6{fill:#BA98BA;}
	.st7{font-size:46.1007px;}
	.st8{fill:#8A2578;}
	.st9{font-family:'Overpass-Bold';}
	.st10{font-size:42.5545px;}
	.st11{fill:#010101;}
	.st12{font-family:'Overpass-Light';}
	.st13{font-size:36px;}
</style>
<g>
	<path class="st0" d="M961.7,460.8c4.7,5.5,9.2,11.2,15.7,14.8c2.9,1.6,6.1,2.8,9.9,4.6c-1.1-8.2-5-13.7-10.3-18
		c-3.5-2.8-8.5-4.1-11.3-7.4c-5.3-6.3-10.1-13.2-14.2-20.4c-4.9-8.7-8.8-17.8-13.1-26.8c-3.1-6.5-6.2-13-8.9-19.6
		c-3.2-7.8-6.1-15.7-8.8-23.7c-3.4-10-6.5-20-9.5-30.1c-1.9-6.5-3.3-13.2-5-19.9c-1.6-6.2-2.5-12.8-5-18.7
		c-4.4-10.3-9.4-20.3-14.9-30c-4.3-7.5-9.4-14.6-14.7-21.4c-7-9-14-18.1-21.8-26.4c-8.7-9.3-17.9-18.4-27.9-26.4
		c-9.2-7.4-19.5-13.5-29.6-19.7c-6.2-3.8-12.8-7.2-19.5-10c-9.5-3.9-19.3-7.5-29.1-10.4c-13.6-4-27.3-8.2-41.9-4.6
		c-8,2-16.2,3.5-24.3,5.3c-9.1,2.1-18.1,4.4-27.2,6.4c-2.4,0.5-5.2,0.8-7.3-0.1c-7.8-3.3-15.4-7.4-23.2-10.8
		c-13.5-5.8-27.6-6-41.9-4.5c-8.8,0.9-17.5,2.4-26.3,3.1c-11,1-21.5,3.8-31.7,7.8c-4.4,1.8-8.2,5.2-13.6,4.5c-3.3-0.4-6.6-0.1-10,0
		c-6,0.1-11.7-0.7-16.9-3.9c-9.5-5.7-18.8-11.5-28.3-17.2c-10.6-6.4-22.3-9.9-34.5-10.9c-8.7-0.8-17.8-1.2-26.1,2.7
		c-8.9,4.3-17.8,8.8-26.5,13.5c-5.3,2.9-10.5,6.1-15.6,9.5c-7.2,4.9-14.1,10.1-21.2,15c-4.1,2.8-8.5,5.1-12.4,8.2
		c-4.9,3.9-10.2,6.4-16.1,8.1c-5.9,1.7-11.6,3.9-17.7,6c-3.1-3.7-7.2-4-10.8-8.7c-1.2-1.6-2.3-7.9-2.3-9.8
		c0.3-7.2,0.3-14.5,1.8-21.6c2.9-14.6,3.2-29.3,0.7-43.8c-2.2-12.9-8-24.6-12.7-36.8c-5.7-14.5-15.2-26.1-26-36.7
		c-10.3-10.1-22.5-18-36.2-23.3c-6.9-2.6-14.3-3.2-20.7-7.9c-3.9-2.8-7.1,0.1-7.2,5.1c-0.1,5.1,0.8,10.2-2,15
		c-0.7,1.3-1.1,3.8,1.7,4.5c3,0.9,5.8,2,8.8,2.9c10.5,3.2,18.3,5.3,28,15.6c3.9,4.1,6,10.1,9,14.9c6.7,10.8,10.8,20.8,12.3,33.3
		c1.5,12,1.8,25.5-2.2,37c-3.9,11.1-8,16.8-10.1,30.2c-1.5,9.7-2.8,19.6,0,29.2c2.7,9.1,4.9,21,10.3,28.9c8.4,12.3,19,23,34.1,25.4
		c4.3,0.7,8.4,2.8,12.6,4.3c-8.1,3.6-33-1.5-40.2-4.5c-12.1-5-20.5-7.4-20.5-7.4c-0.8,7.9,17.1,20.5,30.7,20.4
		c-20.8,0.1-60.8,0.5-77.1-14.6c-0.6,2.3-0.9,4.1-0.6,5.8c1.5,8.2,7.2,13.2,13.5,17.8c9.5,7,20.8,9.1,31.8,10.8
		c16.4,2.6,53,1.1,68.9-4c2.6-0.8,5.3-1.6,7.9-1.7c3.7-0.1,7.4,0.3,11.1,0.7c3.4,0.4,7.2-0.6,9,1.9c0.2,2.6-0.1,4.4,0.5,5.6
		c1.2,2.4,3.4,1.5,5.3,0.8c0.5-0.2,1-0.2,1.5-0.3c9.3-1.8,19-1.9,27.4-7.5c3.4-2.3,6.9-0.6,9.5,2.5c4.3,5,9.1,9.1,15.5,11.2
		c3.4,1.1,6.8,2.5,10.1,3.9c4.8,2.1,9.5,4.4,14.3,6.6c-0.7,1.6-1.1,2.5-1.5,3.4c-4.2,10.1-7.9,20.4-15.8,28.4c-1,1-2,2.2-2.8,3.5
		c-2,3.2-1.3,8.4,1.5,10.2c2.4,1.6,4.9,0.2,7.9-3.6c3.1-3.9,6.5-7.4,9.9-11c2.6-2.8,5.5-5.4,8.2-8.2c2.9-3.2,5.7-6.5,8.1-9.3
		c14,7.9,26.7,15,39.4,22.3c11.3,6.5,22.6,13.1,33.8,19.7c1,0.6,2.1,2.3,2,3.4c-1.3,14.6-3.3,29.1-4,43.7
		c-0.9,17.3-1.2,34.6,0.9,51.9c1.3,10.9,1.4,21.9,1.8,32.8c0.3,9.3,0.1,18.5,0.2,27.8c0.2,11,1.2,22.2,0.6,33.2
		c-0.9,14.5-2.9,29-4.5,43.5c-0.2,2.1-0.7,4.2-1.5,6.1c-3.3,7.8-9.7,13-15.3,18.9c-0.6,0.7-1.8,0.8-2.4,1.5
		c-1.7,2.1-3.2,4.2-4.7,6.4c-1.6,2.3-4,4.5-4.5,7.1c-1.5,7.8-1.4,9.4,6.2,10.9c1.8,0.3,3.5,1.3,5.3,1.8c3.2,0.9,6.4,2,9.6,2.3
		c4.9,0.4,9.9,0.1,14.9,0.1c11.9,0,23.8,0.1,35.7-0.1c4.2-0.1,8.5-0.1,11.9-3.4c0.9-0.9,2.5-1.4,3.8-1.4c9.6,0.1,19.2,0.1,28.8,0.5
		c14.9,0.6,29.8,1.4,44.8,2c1.4,0.1,3.1-0.8,4.2-1.8c5.2-4.9,6-11.6,2.6-19.3c-1.3-2.8-3.1-5.6-3.6-8.6c-1.4-9.1-2.6-18.2-3.3-27.4
		c-0.4-5.4,0.6-11,0.5-16.4c-0.3-10.2-1.4-20.4-1.4-30.6c0-9.2,0.9-18.3,1.5-27.6c1-17.4,2.3-34.7,6.3-51.7
		c1.3-5.5,3.5-10.5,7.5-14.6c6.1,3.1,12.2,5.9,18.1,9c8.3,4.4,16.9,8.3,26.1,9.2c13.9,1.3,27.9,1.2,41.9,1.7
		c1.8,0.1,3.5,0.1,5.3,0.1c7,0.3,13.9,0.9,20.9,0.7c10.7-0.4,21.3-1.6,32-2.3c0.9-0.1,2.5,0.8,2.8,1.6c1.5,4.3,2.8,8.7,3.8,13.2
		c2.6,11.3,8.3,20.9,16.5,29c8.1,8,16.8,15.4,24.3,24c5.9,6.8,11,14.6,14.9,22.6c3.8,7.7,6.1,16.3,8.5,24.6
		c1.5,5.1,2.1,10.7-0.7,15.7c-3.3,5.7-6.8,11.2-10.7,16.5c-2.6,3.5-6.4,6.1-9.3,9.3c-3.2,3.5-6.4,7.2-9,11.2
		c-2.6,4.1-0.7,8.5,3.9,10.2c0.5,0.2,1.1,0.5,1.5,0.7c-0.5,3.4-1.1,6.6-1.6,9.8c-0.3,2.2,0.2,3.8,3,4c10.2,0.8,20.3,2.2,30.5,2.6
		c8.5,0.4,17-0.1,25.5-0.5c6.5-0.3,12.9-0.9,19.4-1.6c6.7-0.7,11.3-5.1,11.6-11.9c0.1-3.7-0.7-7.6-1.7-11.2
		c-2.8-9.2-1.5-18.3-0.2-27.4c2.4-17.4,3.3-34.8-0.4-52.1c-1.6-7.5-3.9-14.9-5.9-22.3c-3-11.1-5.8-22.3-9.1-33.4
		c-2.2-7.5-3.5-14.9-1.4-22.7c1.1-4.2,2.4-8.3,3.3-12.6c2.8-12.7,6.6-25.3,6.5-38.5c-0.1-27.3-0.5-54.5-0.9-81.8v-5.8
		c4.2,2,6.6,4.3,7.9,8.1c1.9,5.8,3.7,11.6,6,17.2c5.3,13,11.2,25.7,16.2,38.8c5.1,13.3,11.7,25.8,20.2,37.2
		C947.1,444.2,954.5,452.4,961.7,460.8 M552,584.8c3.7,7.4,0.6,12.8-3.8,18.3c-3.8,4.8-7.4,9.9-11.2,14.8c-1.2,1.5-2.4,3-4.5,5.4
		c-1.5-6-2.9-10.8-3.9-15.7c-1.6-8.2-2.6-16.3,1.4-24.3c3.3-6.8,2.2-14.3,1.3-21.4c-1.6-12.3-0.9-24.4,1.9-36.4
		c1.7-7.1,3.4-14.2,5.1-21.3c0.3,0,0.5-0.1,0.7-0.1c1.3,10.3,2.6,20.6,3.9,30.9c1.6,12.3,3.3,24.6,5.2,36.8
		C548.9,576.3,550,580.9,552,584.8"/>
	<path class="st1" d="M315,265.9c0,0-1.8,1.9,7.4-4.5c9.2-6.4,2.6-16.3,2.6-16.3c-5.6-8.3-6.5-14.9-18-8.1
		c-24.8,14.8-76.5,19.3-69.9,19c61.8-3.1,80.3-29.7,83.5-11.7c1.9,10.8,5.2,16.9-11.2,19.9C297.2,266.4,315,265.9,315,265.9"/>
	<path class="st1" d="M267.9,169.1c0,0,0.5,1.7-10.9,5.2c-10.8,3.3-12.8,4.3-12.8,4.3s17.4-1.3,23.7-4.3V169.1z"/>
	<path class="st1" d="M268.9,152.5c0,0,0.2,1.5-10.4,3.6c-10.8,2.1-12.1,2.5-12.1,2.5s15.9,0.6,22-1.4L268.9,152.5z"/>
	<path class="st1" d="M271.6,134.5c0,0,0.2,1.5-10.4,3.6c-10.9,2.1-12.1,2.6-12.1,2.6s15.9,0.5,22-1.5L271.6,134.5z"/>
	<path class="st1" d="M272,183.1c0,0-1.2,3.8-8.8,8c-12.6,7-14.4,8.1-14.4,8.1s19.6-5.3,26-14c0,0-1.2-0.6-1.5-1
		C273,183.6,272,183.1,272,183.1"/>
	<path class="st1" d="M272.2,116.4c0,0,0.2,1.1-8.6,3.6l-10,2.8c0,0,13.5-0.4,18.5-2.5L272.2,116.4z"/>
	<path class="st1" d="M268.8,96.2c0,0,0.3,0.9-7.2,3.6l-8.5,3c0,0,11.6-1.1,15.9-3.2L268.8,96.2z"/>
	<path class="st1" d="M252.6,56.9c0,0,0.8,1.3-6,5.4c-6.8,4.1-7.4,5.2-7.4,5.2s10.9-4.2,14.4-7.3L252.6,56.9z"/>
	<path class="st1" d="M261.3,76.2c0,0,0.7,1.4-6.3,5.1c-7,3.7-7.7,4.8-7.7,4.8s11.1-3.6,14.8-6.5L261.3,76.2z"/>
	<text transform="matrix(1 0 0 1 524.0549 311.3891)"><tspan x="0" y="0" class="st2 st3 st4 st5">45</tspan><tspan x="89.3" y="0" class="st2 st3 st4">3,</tspan><tspan x="151.8" y="0" class="st2 st3 st4 st5">39</tspan><tspan x="240.3" y="0" class="st2 st3 st4">2</tspan></text>
	<text transform="matrix(1 0 0 1 98.8488 487.3837)"><tspan x="0" y="0" class="st6 st3 st7">2</tspan><tspan x="28.6" y="0" class="st6 st3 st7">0</tspan><tspan x="56.5" y="0" class="st6 st3 st7">,</tspan><tspan x="68.1" y="0" class="st6 st3 st7">4</tspan><tspan x="96.7" y="0" class="st6 st3 st7">0</tspan><tspan x="125.3" y="0" class="st6 st3 st7">5</tspan></text>
	<text transform="matrix(1 0 0 1 410.6311 685.0956)"><tspan x="0" y="0" class="st8 st9 st10">Cou</tspan><tspan x="78.8" y="0" class="st8 st9 st10">n</tspan><tspan x="104" y="0" class="st8 st9 st10">tri</tspan><tspan x="151.8" y="0" class="st8 st9 st10">e</tspan><tspan x="176" y="0" class="st8 st9 st10">s</tspan><tspan x="197.5" y="0" class="st8 st9 st10"> </tspan><tspan x="208.7" y="0" class="st8 st9 st10">a</tspan><tspan x="232.5" y="0" class="st8 st9 st10">t </tspan><tspan x="261.1" y="0" class="st8 st9 st10">p</tspan><tspan x="286.1" y="0" class="st8 st9 st10">e</tspan><tspan x="310.3" y="0" class="st8 st9 st10">a</tspan><tspan x="334.3" y="0" class="st8 st9 st10">c</tspan><tspan x="357.2" y="0" class="st8 st9 st10">e</tspan></text>
	<text transform="matrix(1 0 0 1 27.9211 642.9462)"><tspan x="0" y="0" class="st8 st9 st10">Co</tspan><tspan x="53.4" y="0" class="st8 st9 st10">u</tspan><tspan x="78.8" y="0" class="st8 st9 st10">n</tspan><tspan x="104" y="0" class="st8 st9 st10">t</tspan><tspan x="121.3" y="0" class="st8 st9 st10">r</tspan><tspan x="139.4" y="0" class="st8 st9 st10">i</tspan><tspan x="151.7" y="0" class="st8 st9 st10">e</tspan><tspan x="176" y="0" class="st8 st9 st10">s w</tspan><tspan x="241" y="0" class="st8 st9 st10">it</tspan><tspan x="270.2" y="0" class="st8 st9 st10">h</tspan></text>
	<text transform="matrix(1 0 0 1 63.1132 685.3925)"><tspan x="0" y="0" class="st8 st9 st10">ins</tspan><tspan x="59.2" y="0" class="st8 st9 st10">u</tspan><tspan x="84.6" y="0" class="st8 st9 st10">r</tspan><tspan x="102.9" y="0" class="st8 st9 st10">g</tspan><tspan x="127.9" y="0" class="st8 st9 st10">en</tspan><tspan x="177.7" y="0" class="st8 st9 st10">c</tspan><tspan x="200.8" y="0" class="st8 st9 st10">y</tspan></text>
	<path class="st0" d="M108.6,574.5c1.2-1.5,2.5-2.9,3.7-4.4c1.5-2,2.6-4.1,3.5-6.4c0.9-2.3,1.9-4.5,2.8-6.7c0.4-1,0.7-2,1-3
		c0.2-0.6,0.6-1,1.4-1.4v1c-0.1,4.7-0.1,9.4-0.1,14.1c0,2.3,0.6,4.4,1.1,6.6c0.2,0.7,0.4,1.4,0.6,2.2c0.4,1.3,0.1,2.6-0.2,3.9
		c-0.6,1.9-1,3.8-1.6,5.8c-0.3,1.3-0.8,2.6-1,3.9c-0.6,3-0.5,6-0.1,9c0.2,1.6,0.5,3.1,0,4.7c-0.2,0.6-0.3,1.3-0.3,1.9
		c0,1.2,0.8,1.9,2,2.1c1.1,0.1,2.2,0.2,3.3,0.3c1.5,0.1,2.9,0.2,4.4,0.1c1.8-0.1,3.5-0.3,5.3-0.4c0.5,0,0.6-0.3,0.5-0.7
		c-0.1-0.6-0.2-1.1-0.3-1.7c0.1,0,0.2-0.1,0.3-0.1c0.8-0.3,1.1-1,0.7-1.8c-0.4-0.7-1-1.3-1.6-1.9c-0.5-0.6-1.1-1-1.6-1.6
		c-0.7-0.9-1.3-1.9-1.8-2.8c-0.5-0.9-0.4-1.8-0.1-2.7c0.4-1.4,0.8-2.9,1.5-4.2c0.7-1.4,1.6-2.7,2.6-3.9c1.3-1.5,2.8-2.8,4.2-4.1
		c1.4-1.4,2.4-3.1,2.8-5c0.2-0.8,0.4-1.5,0.7-2.3c0-0.1,0.3-0.3,0.5-0.3c1.8,0.1,3.7,0.3,5.5,0.4c1.2,0,2.4-0.1,3.6-0.1
		c0.3,0,0.6,0,0.9,0c2.4-0.1,4.8-0.1,7.2-0.3c1.6-0.1,3.1-0.8,4.5-1.6c1-0.5,2.1-1,3.1-1.6c0.7,0.7,1.1,1.6,1.3,2.5
		c0.7,2.9,0.9,5.9,1.1,8.9c0.1,1.6,0.3,3.2,0.3,4.8c0,1.8-0.2,3.5-0.2,5.3c0,0.9,0.1,1.9,0.1,2.8c-0.1,1.6-0.3,3.2-0.6,4.7
		c-0.1,0.5-0.4,1-0.6,1.5c-0.6,1.3-0.5,2.5,0.4,3.3c0.2,0.2,0.5,0.3,0.7,0.3c2.6-0.1,5.1-0.2,7.7-0.3c1.7-0.1,3.3-0.1,5-0.1
		c0.2,0,0.5,0.1,0.7,0.2c0.6,0.6,1.3,0.6,2,0.6c2,0,4.1,0,6.1,0c0.9,0,1.7,0,2.6,0c0.6,0,1.1-0.2,1.7-0.4c0.3-0.1,0.6-0.3,0.9-0.3
		c1.3-0.3,1.3-0.5,1.1-1.9c-0.1-0.4-0.5-0.8-0.8-1.2c-0.3-0.4-0.5-0.8-0.8-1.1c-0.1-0.1-0.3-0.1-0.4-0.3c-1-1-2.1-1.9-2.6-3.3
		c-0.1-0.3-0.2-0.7-0.3-1.1c-0.3-2.5-0.6-5-0.8-7.5c-0.1-1.9,0.1-3.8,0.1-5.7c0-1.6,0-3.2,0-4.8c0.1-1.9,0.1-3.8,0.3-5.7
		c0.4-3,0.3-6,0.2-8.9c-0.1-2.5-0.5-5-0.7-7.5c0-0.2,0.2-0.5,0.4-0.6c1.9-1.2,3.9-2.3,5.8-3.4c2.2-1.3,4.4-2.5,6.8-3.8
		c0.4,0.5,0.9,1.1,1.4,1.6c0.5,0.5,1,0.9,1.4,1.4c0.6,0.6,1.2,1.2,1.7,1.9c0.5,0.7,1,0.9,1.4,0.6c0.5-0.3,0.6-1.2,0.3-1.8
		c-0.1-0.2-0.3-0.4-0.5-0.6c-1.4-1.4-2-3.2-2.7-4.9c-0.1-0.2-0.1-0.3-0.3-0.6c0.8-0.4,1.6-0.8,2.5-1.1c0.6-0.2,1.1-0.5,1.7-0.7
		c1.1-0.4,1.9-1.1,2.7-1.9c0.5-0.5,1-0.8,1.6-0.4c1.4,1,3.1,1,4.7,1.3c0.1,0,0.2,0,0.3,0c0.3,0.1,0.7,0.3,0.9-0.1
		c0.1-0.2,0.1-0.5,0.1-1c0.3-0.4,1-0.3,1.5-0.3c0.6-0.1,1.3-0.1,1.9-0.1c0.5,0,0.9,0.2,1.4,0.3c2.7,0.9,9.1,1.1,11.9,0.7
		c1.9-0.3,3.9-0.7,5.5-1.9c1.1-0.8,2.1-1.7,2.3-3.1c0.1-0.3,0-0.6-0.1-1c-2.8,2.6-9.7,2.5-13.3,2.5c2.4,0,5.4-2.2,5.3-3.5
		c0,0-1.4,0.4-3.5,1.3c-1.2,0.5-5.5,1.4-6.9,0.8c0.7-0.3,1.4-0.6,2.2-0.8c2.6-0.4,4.4-2.3,5.9-4.4c0.9-1.4,1.3-3.4,1.8-5
		c0.5-1.7,0.3-3.4,0-5c-0.4-2.3-1.1-3.3-1.7-5.2c-0.7-2-0.6-4.3-0.4-6.4c0.3-2.2,1-3.9,2.1-5.8c0.5-0.8,0.9-1.9,1.6-2.6
		c1.7-1.8,3-2.1,4.8-2.7c0.5-0.2,1-0.4,1.5-0.5c0.5-0.1,0.4-0.6,0.3-0.8c-0.5-0.8-0.3-1.7-0.3-2.6c0-0.9-0.6-1.4-1.2-0.9
		c-1.1,0.8-2.4,0.9-3.6,1.4c-2.4,0.9-4.5,2.3-6.2,4c-1.9,1.8-3.5,3.8-4.5,6.3c-0.8,2.1-1.8,4.1-2.2,6.3c-0.4,2.5-0.4,5,0.1,7.6
		c0.2,1.2,0.3,2.5,0.3,3.7c0,0.3-0.2,1.4-0.4,1.7c-0.6,0.8-1.3,0.9-1.9,1.5c-1.1-0.4-2-0.7-3-1c-1-0.3-1.9-0.7-2.8-1.4
		c-0.7-0.5-1.4-0.9-2.1-1.4c-1.2-0.9-2.4-1.8-3.7-2.6c-0.9-0.6-1.8-1.1-2.7-1.6c-1.5-0.8-3-1.6-4.6-2.3c-1.4-0.7-3-0.6-4.5-0.5
		c-2.1,0.2-4.1,0.8-6,1.9c-1.6,1-3.2,2-4.9,3c-0.9,0.5-1.9,0.7-2.9,0.7c-0.6,0-1.2-0.1-1.7,0c-0.9,0.1-1.6-0.5-2.3-0.8
		c-1.8-0.7-3.6-1.2-5.5-1.4c-1.5-0.1-3-0.4-4.5-0.5c-2.5-0.2-4.9-0.2-7.2,0.8c-1.4,0.6-2.7,1.3-4,1.9c-0.4,0.2-0.8,0.1-1.3,0
		c-1.6-0.3-3.1-0.7-4.7-1.1c-1.4-0.3-2.8-0.6-4.2-0.9c-2.5-0.6-4.9,0.1-7.2,0.8c-1.7,0.5-3.4,1.1-5,1.8c-1.2,0.5-2.3,1.1-3.4,1.7
		c-1.7,1.1-3.5,2.1-5.1,3.4c-1.7,1.4-3.3,3-4.8,4.6c-1.4,1.4-2.6,3-3.8,4.5c-0.9,1.2-1.8,2.4-2.5,3.7c-1,1.7-1.8,3.4-2.6,5.2
		c-0.4,1-0.6,2.1-0.9,3.2c-0.3,1.1-0.5,2.3-0.9,3.4c-0.5,1.7-1.1,3.5-1.6,5.2c-0.5,1.4-1,2.7-1.5,4.1c-0.5,1.1-1,2.3-1.5,3.4
		c-0.7,1.6-1.4,3.1-2.3,4.6c-0.7,1.2-1.5,2.4-2.5,3.5c-0.5,0.6-1.3,0.8-2,1.3c-0.9,0.7-1.6,1.7-1.8,3.1c0.7-0.3,1.2-0.5,1.7-0.8
		C107,576.5,107.8,575.5,108.6,574.5 M179.2,595.9c0.3-0.7,0.5-1.5,0.7-2.2c0.3-2.1,0.6-4.2,0.9-6.4c0.2-1.8,0.5-3.6,0.7-5.3
		c0,0,0.1,0,0.1,0c0.3,1.2,0.6,2.4,0.9,3.7c0.5,2.1,0.6,4.2,0.3,6.3c-0.2,1.2-0.4,2.5,0.2,3.7c0.7,1.4,0.5,2.8,0.2,4.2
		c-0.2,0.8-0.4,1.7-0.7,2.7c-0.3-0.4-0.6-0.7-0.8-0.9c-0.6-0.8-1.3-1.7-1.9-2.6C179.1,598.1,178.6,597.2,179.2,595.9"/>
	<path class="st1" d="M169.6,540.9c0,0,0.3,0.3-1.3-0.8c-1.6-1.1-0.5-2.8-0.5-2.8c1-1.4,1.1-2.6,3.1-1.4c4.3,2.6,13.2,3.3,12.1,3.3
		c-10.7-0.5-13.9-5.1-14.4-2c-0.3,1.9-0.9,2.9,1.9,3.4C172.7,541,169.6,540.9,169.6,540.9"/>
	<path class="st1" d="M173.3,524.2c0,0-0.1,0.3,1.9,0.9c1.9,0.6,2.2,0.7,2.2,0.7s-3-0.2-4.1-0.7V524.2z"/>
	<path class="st1" d="M173.4,521.4c0,0,0,0.3,1.8,0.6c1.9,0.4,2.1,0.4,2.1,0.4s-2.7,0.1-3.8-0.2L173.4,521.4z"/>
	<path class="st1" d="M173.4,518.3c0,0,0,0.3,1.8,0.6c1.9,0.4,2.1,0.4,2.1,0.4s-2.7,0.1-3.8-0.3L173.4,518.3z"/>
	<path class="st1" d="M173.6,526.6c0,0,0.2,0.7,1.5,1.4c2.2,1.2,2.5,1.4,2.5,1.4s-3.4-0.9-4.5-2.4c0,0,0.2-0.1,0.3-0.2
		C173.4,526.7,173.6,526.6,173.6,526.6"/>
	<path class="st1" d="M173.7,515.1c0,0,0,0.2,1.5,0.6l1.7,0.5c0,0-2.3-0.1-3.2-0.4L173.7,515.1z"/>
	<path class="st1" d="M173.9,511.6c0,0,0,0.2,1.2,0.6l1.5,0.5c0,0-2-0.2-2.7-0.5L173.9,511.6z"/>
	<path class="st1" d="M174.2,504.9c0,0-0.1,0.2,1,0.9c1.2,0.7,1.3,0.9,1.3,0.9s-1.9-0.7-2.5-1.3L174.2,504.9z"/>
	<path class="st1" d="M174.2,508.2c0,0-0.1,0.2,1.1,0.9c1.2,0.6,1.3,0.8,1.3,0.8s-1.9-0.6-2.6-1.1L174.2,508.2z"/>
	<text transform="matrix(1.0309 0 0 1 0.4946 751.6064)"><tspan x="0" y="0" class="st11 st12 st13">Num</tspan><tspan x="78.2" y="0" class="st11 st12 st13">b</tspan><tspan x="99.1" y="0" class="st11 st12 st13">e</tspan><tspan x="118.9" y="0" class="st11 st12 st13">r</tspan><tspan x="133.3" y="0" class="st11 st12 st13 st5"> </tspan><tspan x="143.1" y="0" class="st11 st12 st13">of</tspan><tspan x="176.2" y="0" class="st11 st12 st13 st5"> </tspan><tspan x="185.9" y="0" class="st11 st12 st13 st5">A</tspan><tspan x="211.1" y="0" class="st11 st12 st13">f</tspan><tspan x="223.8" y="0" class="st11 st12 st13">r</tspan><tspan x="238.2" y="0" class="st11 st12 st13">i</tspan><tspan x="248" y="0" class="st11 st12 st13">ca</tspan><tspan x="285.5" y="0" class="st11 st12 st13">n</tspan><tspan x="306.4" y="0" class="st11 st12 st13 st5"> </tspan><tspan x="316.1" y="0" class="st11 st12 st13">ele</tspan><tspan x="365.8" y="0" class="st11 st12 st13">p</tspan><tspan x="386.9" y="0" class="st11 st12 st13">h</tspan><tspan x="407.8" y="0" class="st11 st12 st13">a</tspan><tspan x="427.2" y="0" class="st11 st12 st13">n</tspan><tspan x="448.2" y="0" class="st11 st12 st13">ts</tspan><tspan x="479.6" y="0" class="st11 st12 st13 st5"> </tspan><tspan x="489.3" y="0" class="st11 st12 st13">(</tspan><tspan x="502.2" y="0" class="st11 st12 st13">“</tspan><tspan x="518.2" y="0" class="st11 st12 st13">d</tspan><tspan x="539.1" y="0" class="st11 st12 st13">efini</tspan><tspan x="611.4" y="0" class="st11 st12 st13">t</tspan><tspan x="625.4" y="0" class="st11 st12 st13">e”</tspan><tspan x="661.1" y="0" class="st11 st12 st13 st5"> </tspan><tspan x="670.9" y="0" class="st11 st12 st13">a</tspan><tspan x="690.3" y="0" class="st11 st12 st13">n</tspan><tspan x="711.2" y="0" class="st11 st12 st13">d</tspan><tspan x="732.1" y="0" class="st11 st12 st13 st5"> </tspan><tspan x="741.8" y="0" class="st11 st12 st13">“</tspan><tspan x="757.8" y="0" class="st11 st12 st13">pr</tspan><tspan x="793.3" y="0" class="st11 st12 st13">o</tspan><tspan x="813.8" y="0" class="st11 st12 st13">bab</tspan><tspan x="875.1" y="0" class="st11 st12 st13">le</tspan><tspan x="905" y="0" class="st11 st12 st13">” </tspan></text>
	<text transform="matrix(1.0309 0 0 1 0.6747 791.6035)"><tspan x="0" y="0" class="st11 st12 st13">p</tspan><tspan x="21.1" y="0" class="st11 st12 st13">o</tspan><tspan x="41.6" y="0" class="st11 st12 st13">p</tspan><tspan x="62.7" y="0" class="st11 st12 st13">ul</tspan><tspan x="93.7" y="0" class="st11 st12 st13">at</tspan><tspan x="127.1" y="0" class="st11 st12 st13">ion</tspan><tspan x="178.3" y="0" class="st11 st12 st13 st5"> </tspan><tspan x="188.1" y="0" class="st11 st12 st13">e</tspan><tspan x="207.9" y="0" class="st11 st12 st13">st</tspan><tspan x="239.3" y="0" class="st11 st12 st13">im</tspan><tspan x="280.2" y="0" class="st11 st12 st13">at</tspan><tspan x="313.6" y="0" class="st11 st12 st13">e</tspan><tspan x="333.4" y="0" class="st11 st12 st13">s)</tspan><tspan x="363.7" y="0" class="st11 st12 st13 st5"> </tspan><tspan x="373.5" y="0" class="st11 st12 st13">in</tspan><tspan x="404.2" y="0" class="st11 st12 st13 st5"> </tspan><tspan x="413.9" y="0" class="st11 st12 st13">11</tspan><tspan x="440.1" y="0" class="st11 st12 st13 st5"> </tspan><tspan x="449.9" y="0" class="st11 st12 st13">c</tspan><tspan x="467.9" y="0" class="st11 st12 st13">oun</tspan><tspan x="530.2" y="0" class="st11 st12 st13">tr</tspan><tspan x="558.6" y="0" class="st11 st12 st13">ie</tspan><tspan x="588.3" y="0" class="st11 st12 st13">s</tspan><tspan x="605.7" y="0" class="st11 st12 st13 st5"> </tspan><tspan x="615.4" y="0" class="st11 st12 st13">w</tspan><tspan x="641.4" y="0" class="st11 st12 st13">i</tspan><tspan x="651.3" y="0" class="st11 st12 st13">t</tspan><tspan x="665.3" y="0" class="st11 st12 st13">h</tspan><tspan x="686.2" y="0" class="st11 st12 st13 st5"> </tspan><tspan x="695.9" y="0" class="st11 st12 st13">in</tspan><tspan x="726.7" y="0" class="st11 st12 st13">s</tspan><tspan x="744" y="0" class="st11 st12 st13">u</tspan><tspan x="765" y="0" class="st11 st12 st13">rg</tspan><tspan x="800.4" y="0" class="st11 st12 st13">en</tspan><tspan x="841.1" y="0" class="st11 st12 st13">cy</tspan><tspan x="878.6" y="0" class="st11 st12 st13 st5"> </tspan><tspan x="888.4" y="0" class="st11 st12 st13">a</tspan><tspan x="907.8" y="0" class="st11 st12 st13">n</tspan><tspan x="928.7" y="0" class="st11 st12 st13">d </tspan></text>
	<text transform="matrix(1.0309 0 0 1 -6.103516e-05 832.6006)"><tspan x="0" y="0" class="st11 st12 st13">43</tspan><tspan x="44.5" y="0" class="st11 st12 st13 st5"> </tspan><tspan x="54.3" y="0" class="st11 st12 st13">c</tspan><tspan x="72.3" y="0" class="st11 st12 st13">oun</tspan><tspan x="134.6" y="0" class="st11 st12 st13">tr</tspan><tspan x="163" y="0" class="st11 st12 st13">ie</tspan><tspan x="192.7" y="0" class="st11 st12 st13">s</tspan><tspan x="210.1" y="0" class="st11 st12 st13 st5"> </tspan><tspan x="219.8" y="0" class="st11 st12 st13">at</tspan><tspan x="253.2" y="0" class="st11 st12 st13 st5"> </tspan><tspan x="262.9" y="0" class="st11 st12 st13">p</tspan><tspan x="284" y="0" class="st11 st12 st13">e</tspan><tspan x="303.8" y="0" class="st11 st12 st13">ac</tspan><tspan x="341.2" y="0" class="st11 st12 st13">e</tspan></text>
</g>
</svg>
