<?xml version="1.0" encoding="utf-8"?>
<!-- Generator: Adobe Illustrator 25.2.1, SVG Export Plug-In . SVG Version: 6.00 Build 0)  -->
<svg version="1.1" xmlns="http://www.w3.org/2000/svg" xmlns:xlink="http://www.w3.org/1999/xlink" x="0px" y="0px"
	 viewBox="0 0 384.3 561.3" style="enable-background:new 0 0 384.3 561.3;" xml:space="preserve">
<style type="text/css">
	.st0{display:none;}
	.st1{display:inline;}
	.st2{fill:#FFFFFF;}
	.st3{fill:none;stroke:#D1D3D4;stroke-width:2;stroke-linecap:round;stroke-linejoin:round;}
	.st4{font-family:'MyriadPro-Cond';}
	.st5{font-size:10.4403px;}
	.st6{fill:#FFFFFF;stroke:#414042;}
	.st7{font-size:14px;}
	.st8{fill:none;stroke:#414042;}
	.st9{fill:none;stroke:#C76956;stroke-width:1.0465;}
	.st10{fill:none;stroke:#A3B6CE;stroke-width:1.0465;}
	.st11{fill:#58595B;}
	.st12{fill:none;stroke:#478561;stroke-width:1.0465;stroke-linecap:round;}
	.st13{fill:none;stroke:#C76956;stroke-width:1.0465;stroke-linecap:round;stroke-linejoin:round;stroke-miterlimit:10;}
	.st14{fill:#FFFFFF;stroke:#000000;stroke-width:1.3507;stroke-linejoin:round;}
	.st15{fill:url(#SVGID_1_);stroke:#000000;stroke-width:0.4503;}
	.st16{stroke:#000000;stroke-width:0.4503;}
	.st17{fill:url(#SVGID_2_);stroke:#000000;stroke-width:0.4503;stroke-linejoin:round;}
	.st18{fill:url(#SVGID_3_);stroke:#000000;stroke-width:0.4503;}
	.st19{fill:#414042;stroke:#000000;stroke-width:0.4503;stroke-linejoin:round;}
	.st20{fill:url(#SVGID_4_);stroke:#000000;stroke-width:0.4503;}
	.st21{fill:url(#SVGID_5_);stroke:#000000;stroke-width:0.4503;stroke-linejoin:round;}
	.st22{fill:#EAC78E;stroke:#000000;stroke-width:0.4503;}
	.st23{fill:url(#SVGID_6_);stroke:#000000;stroke-width:0.4503;}
	.st24{fill:#DEDFE3;stroke:#000000;stroke-width:0.4503;}
	.st25{fill:url(#SVGID_7_);stroke:#000000;stroke-width:0.4503;}
	.st26{fill:url(#SVGID_8_);stroke:#000000;stroke-width:0.4503;stroke-linejoin:round;}
	.st27{fill:#F2DEC6;stroke:#000000;stroke-width:0.4503;}
	.st28{fill:url(#SVGID_9_);stroke:#000000;stroke-width:0.4503;stroke-linejoin:round;}
	.st29{fill:url(#SVGID_10_);stroke:#000000;stroke-width:0.4503;}
	.st30{fill:url(#SVGID_11_);stroke:#000000;stroke-width:0.4503;}
	.st31{fill:url(#SVGID_12_);stroke:#000000;stroke-width:0.4503;}
	.st32{fill:url(#SVGID_13_);stroke:#000000;stroke-width:0.4503;}
	.st33{fill:none;stroke:#000000;stroke-width:0.4503;}
	.st34{fill:#DEDFE3;stroke:#000000;stroke-width:1.3507;stroke-linejoin:round;}
	.st35{fill:url(#SVGID_14_);stroke:#000000;stroke-width:0.4503;stroke-linejoin:round;}
	.st36{fill:url(#SVGID_15_);stroke:#000000;stroke-width:0.4503;}
	.st37{fill:url(#SVGID_16_);stroke:#000000;stroke-width:0.4503;}
	.st38{fill:url(#SVGID_17_);stroke:#000000;stroke-width:0.4503;}
	.st39{fill:#DEDFE3;stroke:#000000;stroke-width:0.4503;stroke-linejoin:round;}
	.st40{fill:#6C5634;stroke:#000000;stroke-width:0.4503;}
	.st41{fill:url(#SVGID_18_);stroke:#000000;stroke-width:0.4503;}
	.st42{fill:url(#SVGID_19_);stroke:#000000;stroke-width:0.4503;}
	.st43{stroke:#000000;stroke-width:0.4503;stroke-linejoin:round;}
	.st44{fill:#D1D4DA;stroke:#000000;stroke-width:0.4503;stroke-linejoin:round;}
	.st45{fill:url(#SVGID_20_);stroke:#000000;stroke-width:0.4503;}
	.st46{fill:url(#SVGID_21_);stroke:#000000;stroke-width:0.4503;}
	.st47{fill:url(#SVGID_22_);stroke:#000000;stroke-width:0.4503;}
	.st48{fill:url(#SVGID_23_);stroke:#000000;stroke-width:0.4503;}
	.st49{fill:url(#SVGID_24_);stroke:#000000;stroke-width:0.4503;}
</style>
<g id="base_layer">
</g>
<g id="Layer_3">
</g>
<g id="new_arrows">
</g>
<g id="duelers">
	<g class="st0">
		
			<image style="display:inline;overflow:visible;opacity:0.5;" width="74" height="150" xlink:href="7C3E109F.png"  transform="matrix(1 0 0 1 257.8321 402.7813)">
		</image>
		<g class="st1">
			<path class="st2" d="M320.4,528.3l-2.5-4.9l-0.5-7c0.4-0.6,0.5-1,0.5-1l-0.8-7.6c0,0.4-0.1,0.9-0.3,1.3l-0.3-5.2
				c0,0-0.1-2.4-0.3-5.3c0.8-1,1.1-1.7,1.1-1.7l0.2-15.9l-0.6-2.2c0-0.2-0.1-0.4-0.2-0.7l0.4-1.7l-1-3.8c0.3-0.5,0.5-1.1,0.7-2.1
				c0.2-1,1.7-5.1,2.2-9.6c0.4-4.4,1.3-9,1.3-12c0-2.9-1.1-6.3-1.6-7.7c-0.6-1.3-1.3-1.7-1.3-1.7s-1.8-1.6-6.6-1.2L310,437
				c0,0-0.4-0.9-1.6-1c0.1-1.3-0.2-2.8-0.4-3.5c0.1-0.1,0.2-0.2,0.2-0.3c0.5-1.1,0.4-2.6,0.4-2.6l0.1-1.5c0.3-0.2,0.6-0.3,0.9-0.5
				c1.1-0.8,1.7-1.8,1.8-2.8c0.2-1.5-0.6-3.1-2.6-4.3l-0.1-2.9c0.1-0.4,0.1-0.8,0-1.1l0,0h0c-0.3-0.8-1-1.5-2.1-2.1
				c-2.5-1.3-6-1.2-7.9,0.1c-0.7,0.5-1.1,1.1-1.1,1.7c-0.1,0.4-0.4,1.9-0.7,3.4c-0.4,0.2-0.8,0.4-1.1,0.6c-1.1,0.8-1.7,1.8-1.8,2.8
				c-0.2,1.5,0.6,3,2.5,4.3c0.1,4.6,2.8,10,3.4,10.1c0.2,0,1.9-0.6,2.4-0.9c-0.2,0.5-0.1,2-0.1,2.8c-1.1,0.8-1.9,1.5-1.9,1.5
				l-1.8,2.5c-0.1,0.1-0.2,0.1-0.3,0.2c-2.8,2-4.5,3.9-5.6,5.1c-0.4,0.4-0.9,1.9-0.9,1.9l-0.9,9.7l-1.6,2.4c0,0-0.5,1.2-0.4,1.7
				c0.1,0.5-0.4,0.7-0.8,1.5c-0.3,0.5-0.1,1.3,0,1.7l0,0c-0.2-0.6-0.7-1.5-0.9-1.5c-0.3-0.1-0.6,0.1-0.7,0.1l-0.5-0.4
				c-1.1-1.2-3.9-4.4-4.4-4.4c0,0,0,0,0,0c-0.3-0.5-0.5-1.3-0.8-1.1c-0.3,0.1-0.3,0.4-0.3,0.6l-1-0.9l-0.9-1.7l-0.1-0.1l0.3-2l0.1-3
				l0.1-0.8c0,0-0.1-0.3-0.3-0.3c-0.2,0-0.4,0.1-0.4,0.1s-0.5,0.2-0.6,0.8c0,0.1,0,0.2-0.1,0.3c-0.2-0.4-0.9-1.3-1.5-1.9
				c-0.1-0.1-0.1-0.1-0.2-0.1c0,0,0-0.1,0-0.1l1.1-0.6l-0.5-0.6l-1.2,0.3l-5.2-6.7c-0.3-0.4-1-0.5-1.4-0.2c-0.4,0.3-0.5,1-0.2,1.4
				l5.6,7.2c0,0,1,1.5,0.2,2.8c-0.1-0.3-0.2-0.6-0.4-0.9c-0.5-1.2,1-1.7-0.5-2.4c-0.6-0.2-2.4,4.2-1,6.9c0.4,0.8,4.2,3.3,4.2,3.3
				s0.6,0.8,1.5,2c0,0.2,0.1,0.4,0.1,0.5c0,0.3-0.8,0.2-0.5,0.7c0.2,0.4,0.7,0.2,1.1,0.6c-0.2,1.4,0,2.5,0,2.5s7.3,6.5,8.8,7.2
				c1.5,0.8,2.7-0.6,2.7-0.6s2.8-2.1,4-4.5c1.3-2.3,6.3-13.3,6.3-13.3l-5.1,11.3c0,0,1.2,1,1.2,4c0,3-4.2,11.4-3.9,12.1
				c0.1,1.5-1.9,14-0.9,15.3c0.3,0.4,1,1.2,1.8,2l0.3,7.7l0.5,5.6c0,0,0.6,2.1,0.8,4.7c-0.7-0.3-1-0.5-1-0.5l1.1,7.2
				c0,0,0.3,0.3,1,0.6c0.3,1.3,0.6,3.1,0.4,4.5c-0.1,0.9-3,0.8-3.4,0.7c-2.6-0.6-4.7-1-5.3-0.7c-1.4,0.7-2.3,2.9-1.9,4.3
				c0.1,0.5,0.9,1.2,1.5,1.5c2.6,1.1,12.2,4.9,13.6,4.7c1.8-0.3,4.5-1.8,5.1-2.6c0.2-0.2,0.1-0.7,0-1.2l-2.3-5.4l0.2-6.7
				c0.2-0.2,0.3-0.4,0.3-0.6c2.7,2.5,8.2,6,10.7,7.2c0.7,0.3,1.8,0.3,2.2,0.1c1.3-0.9,3.6-2.5,3.6-3.1
				C320.8,529.3,320.7,528.9,320.4,528.3z M307.6,520.6c-0.5,0.1-1.9,0.3-3.2,1l0-4.6c0,0.3-0.1,0.6-0.3,1c0-3.1-0.1-8.4-0.1-8.4
				l0.9-4.6c0.5-0.1,1-0.2,1.4-0.3l0.9,3.7l0.7,2c-0.4-0.2-0.6-0.3-0.6-0.3l1.7,7.1c0,0,0.5,0.5,1.5,0.9c0.6,1.3,1.4,3.4,1.5,4.7
				C310.4,521.8,307.9,520.5,307.6,520.6z M317.1,507.8c0-0.4-0.1-0.7-0.1-0.7L317.1,507.8z M304.5,516.2l0,0.8
				C304.5,516.5,304.5,516.2,304.5,516.2z"/>
			<path class="st3" d="M320.4,528.3l-2.5-4.9l-0.5-7c0.4-0.6,0.5-1,0.5-1l-0.8-7.6c0,0.4-0.1,0.9-0.3,1.3l-0.3-5.2
				c0,0-0.1-2.4-0.3-5.3c0.8-1,1.1-1.7,1.1-1.7l0.2-15.9l-0.6-2.2c0-0.2-0.1-0.4-0.2-0.7l0.4-1.7l-1-3.8c0.3-0.5,0.5-1.1,0.7-2.1
				c0.2-1,1.7-5.1,2.2-9.6c0.4-4.4,1.3-9,1.3-12c0-2.9-1.1-6.3-1.6-7.7c-0.6-1.3-1.3-1.7-1.3-1.7s-1.8-1.6-6.6-1.2L310,437
				c0,0-0.4-0.9-1.6-1c0.1-1.3-0.2-2.8-0.4-3.5c0.1-0.1,0.2-0.2,0.2-0.3c0.5-1.1,0.4-2.6,0.4-2.6l0.1-1.5c0.3-0.2,0.6-0.3,0.9-0.5
				c1.1-0.8,1.7-1.8,1.8-2.8c0.2-1.5-0.6-3.1-2.6-4.3l-0.1-2.9c0.1-0.4,0.1-0.8,0-1.1l0,0h0c-0.3-0.8-1-1.5-2.1-2.1
				c-2.5-1.3-6-1.2-7.9,0.1c-0.7,0.5-1.1,1.1-1.1,1.7c-0.1,0.4-0.4,1.9-0.7,3.4c-0.4,0.2-0.8,0.4-1.1,0.6c-1.1,0.8-1.7,1.8-1.8,2.8
				c-0.2,1.5,0.6,3,2.5,4.3c0.1,4.6,2.8,10,3.4,10.1c0.2,0,1.9-0.6,2.4-0.9c-0.2,0.5-0.1,2-0.1,2.8c-1.1,0.8-1.9,1.5-1.9,1.5
				l-1.8,2.5c-0.1,0.1-0.2,0.1-0.3,0.2c-2.8,2-4.5,3.9-5.6,5.1c-0.4,0.4-0.9,1.9-0.9,1.9l-0.9,9.7l-1.6,2.4c0,0-0.5,1.2-0.4,1.7
				c0.1,0.5-0.4,0.7-0.8,1.5c-0.3,0.5-0.1,1.3,0,1.7l0,0c-0.2-0.6-0.7-1.5-0.9-1.5c-0.3-0.1-0.6,0.1-0.7,0.1l-0.5-0.4
				c-1.1-1.2-3.9-4.4-4.4-4.4c0,0,0,0,0,0c-0.3-0.5-0.5-1.3-0.8-1.1c-0.3,0.1-0.3,0.4-0.3,0.6l-1-0.9l-0.9-1.7l-0.1-0.1l0.3-2l0.1-3
				l0.1-0.8c0,0-0.1-0.3-0.3-0.3c-0.2,0-0.4,0.1-0.4,0.1s-0.5,0.2-0.6,0.8c0,0.1,0,0.2-0.1,0.3c-0.2-0.4-0.9-1.3-1.5-1.9
				c-0.1-0.1-0.1-0.1-0.2-0.1c0,0,0-0.1,0-0.1l1.1-0.6l-0.5-0.6l-1.2,0.3l-5.2-6.7c-0.3-0.4-1-0.5-1.4-0.2c-0.4,0.3-0.5,1-0.2,1.4
				l5.6,7.2c0,0,1,1.5,0.2,2.8c-0.1-0.3-0.2-0.6-0.4-0.9c-0.5-1.2,1-1.7-0.5-2.4c-0.6-0.2-2.4,4.2-1,6.9c0.4,0.8,4.2,3.3,4.2,3.3
				s0.6,0.8,1.5,2c0,0.2,0.1,0.4,0.1,0.5c0,0.3-0.8,0.2-0.5,0.7c0.2,0.4,0.7,0.2,1.1,0.6c-0.2,1.4,0,2.5,0,2.5s7.3,6.5,8.8,7.2
				c1.5,0.8,2.7-0.6,2.7-0.6s2.8-2.1,4-4.5c1.3-2.3,6.3-13.3,6.3-13.3l-5.1,11.3c0,0,1.2,1,1.2,4c0,3-4.2,11.4-3.9,12.1
				c0.1,1.5-1.9,14-0.9,15.3c0.3,0.4,1,1.2,1.8,2l0.3,7.7l0.5,5.6c0,0,0.6,2.1,0.8,4.7c-0.7-0.3-1-0.5-1-0.5l1.1,7.2
				c0,0,0.3,0.3,1,0.6c0.3,1.3,0.6,3.1,0.4,4.5c-0.1,0.9-3,0.8-3.4,0.7c-2.6-0.6-4.7-1-5.3-0.7c-1.4,0.7-2.3,2.9-1.9,4.3
				c0.1,0.5,0.9,1.2,1.5,1.5c2.6,1.1,12.2,4.9,13.6,4.7c1.8-0.3,4.5-1.8,5.1-2.6c0.2-0.2,0.1-0.7,0-1.2l-2.3-5.4l0.2-6.7
				c0.2-0.2,0.3-0.4,0.3-0.6c2.7,2.5,8.2,6,10.7,7.2c0.7,0.3,1.8,0.3,2.2,0.1c1.3-0.9,3.6-2.5,3.6-3.1
				C320.8,529.3,320.7,528.9,320.4,528.3z M307.6,520.6c-0.5,0.1-1.9,0.3-3.2,1l0-4.6c0,0.3-0.1,0.6-0.3,1c0-3.1-0.1-8.4-0.1-8.4
				l0.9-4.6c0.5-0.1,1-0.2,1.4-0.3l0.9,3.7l0.7,2c-0.4-0.2-0.6-0.3-0.6-0.3l1.7,7.1c0,0,0.5,0.5,1.5,0.9c0.6,1.3,1.4,3.4,1.5,4.7
				C310.4,521.8,307.9,520.5,307.6,520.6z M317.1,507.8c0-0.4-0.1-0.7-0.1-0.7L317.1,507.8z M304.5,516.2l0,0.8
				C304.5,516.5,304.5,516.2,304.5,516.2z"/>
		</g>
	</g>
	<g class="st0">
		
			<image style="display:inline;overflow:visible;opacity:0.5;" width="69" height="145" xlink:href="7C3E109D.png"  transform="matrix(1 0 0 1 103.8316 405.7813)">
		</image>
		<g class="st1">
			<path class="st2" d="M161.4,446.2l-8.2-2.3c-0.5-0.1-1.4,0.1-2.1,0.5c0,0-5.6,3.1-8.9,5c-0.2-0.8-0.3-1.5-0.4-1.9
				c-0.5-2.3-1.7-3.7-4.9-6.7c-0.8-0.7-1.7-1.6-2.8-2.4c0.8,0.2,1.7,1.2,1.7,1.2s-1.8-2.6-2.9-2.5c0,0-0.1,0-0.2,0
				c-1.1-1.1-1.7-0.6-1.9-1.7c-0.1-0.3-0.4-1.4-0.2-1.4c0.2,0,0.9,0.1,1,0.1c0.7,0,1.9-2.3,2.2-2.8c0.2-0.5,2.5-4.8,2.3-9.5l0.2,0.1
				l1.9-1.9c0,0-1.5-0.9-2-1.1c-0.4-0.2-1.5-1-1.5-1l-2.4-1.9l-1.3-0.4c0,0-2,0.4-2.5,0.6c-0.5,0.2-2.4,0.9-2.9,0.9
				c-0.5,0-1.5,0.5-1.5,0.5l-0.8,2.5l-0.2,3.1l0.2,2.5l0.4,2.1c0,0,0,0,0,0.1c0.1,0.5,0.1,0.9,0.2,1.2c0.1,0.1,0.3,1,0.2,1.3
				c-0.1,1.2-0.1,2.8-0.8,3.9c-0.1,0-0.2,0-0.4,0c0.3-0.4,0.7-0.7,0.6-0.7c-1,0.2-1.4,0.6-1.4,0.7c-1.9-0.1-3.7,0.2-4.5,0.9
				c-4.3,3.7-4.2,11.1-4.2,11.1s0.3,0.5,0.7,1.2c0.1,1.5,0.3,3.1,0.5,4.2c0.4,2.2,2.9,8.9,4.1,12c0.1,3.7-0.5,4.3-0.5,4.3
				s0.1,0.4,0.4,1l-0.3,1.3c-0.5,1.7-0.9,3.8-1,5.3c-0.2,3.1,0.9,7,1.1,9.6c0.2,2.6,0,14.1,0,14.1l-1.7,10.8c0,0-0.9,8.7-1.4,10.1
				c-0.3,0.8-0.7,1.8-1.1,2.5c-0.1,0.3-0.1,0.6-0.1,0.9c-0.1,0.2-0.2,0.4-0.2,0.6c0,0,0,0,0,0.1c-0.1,0.2-0.1,0.3-0.2,0.5
				c0,0,0,0.1,0,0.1c0,0.1-0.1,0.3-0.1,0.4c0,0,0,0,0,0c0,0.1,0,0.2-0.1,0.3c0,0.1,0,0.2,0.1,0.4c0,0.2-0.1,0.3-0.1,0.4
				c0,0.3,0.4,2.4,3.3,3c0.4,0.1,1.4,0.3,2.1,0c0.2-0.1,0.4-0.2,0.7-0.3c0.1,0,0.2-0.1,0.3-0.1c0.2-0.1,0.3-0.2,0.5-0.3
				c0.1-0.1,0.2-0.1,0.3-0.2c0.2-0.1,0.3-0.2,0.5-0.3c0.1-0.1,0.3-0.2,0.4-0.2c0.1-0.1,0.3-0.2,0.4-0.2c0.2-0.1,0.3-0.2,0.5-0.3
				c0.1-0.1,0.2-0.1,0.3-0.2c3.1-1.9,6.6-4.3,7.7-5.7c0.1,3,0.1,6.1-0.1,7.5c-0.2,1.2-0.8,2.5-1.3,3.4c-0.3,0.4-0.3,1,0,1.5l0,0
				c-0.1,0.2-0.2,0.5-0.3,0.7c0,0,0,0,0,0c-0.1,0.2-0.2,0.5-0.3,0.7c0,0,0,0,0,0c-0.1,0.2-0.1,0.4-0.2,0.6c0,0,0,0,0,0
				c0,0.2,0,0.3,0,0.4c0,0.1,0,0.1,0,0.2c-0.1,0.2-0.1,0.4,0,0.6c0.2,0.8,0.2,2.2,3.4,3.1c0.4,0.1,1.9,0.2,2.5,0
				c3-0.9,9.5-4.1,11.5-5.2c0.5-0.3,1.2-1.1,1.3-1.6c0.1-0.3,0.1-0.6,0-1c0.2-1.4-0.8-3.3-2.1-3.8c-0.1,0-0.2-0.1-0.3-0.1
				c0,0-0.1,0-0.1,0c-0.1,0-0.3,0-0.4,0c0,0,0,0,0,0c-0.2,0-0.3,0-0.5,0c0,0-0.1,0-0.1,0c-0.2,0-0.4,0-0.6,0.1c0,0,0,0,0,0
				c-0.2,0-0.4,0.1-0.7,0.1c0,0-0.1,0-0.2,0c-0.2,0-0.5,0.1-0.8,0.1c0,0,0,0,0,0c-0.3,0.1-0.6,0.1-0.8,0.2c0,0-0.1,0-0.1,0
				c-0.3,0.1-0.6,0.1-0.9,0.2c-0.2-1.4,0.7-19.1,0.7-19.1l0.4-5.8c0,0,0.6-19.8,0.2-23c-0.2-2.1-1-4.7-1.5-6.1
				c0.1-0.1,0.2-0.1,0.2-0.2c0,0,0,0,0,0c0-0.1,0.1-0.1,0.1-0.1l0-4.7c0.1,0.2,0.2,0.3,0.2,0.3c1.8,3.5,5,1.2,5.7,0.4
				c2.1-3.1,7-14,7-14s2.1-0.7,3.5-1.3c0.7-0.3,1.6-1.9,1.6-2.7c0-1.4,0.1-3.4-0.2-3.6l3.7-2.1C161.7,446.8,161.9,446.4,161.4,446.2
				z M130.4,515.2c0,0.7,0.1,2.2,0.2,3.9l0,0c-1.3-1.5-3.5-1.8-4.1-2c0,0-0.1,0-0.2,0c0,0-0.1,0-0.1,0c-0.1,0-0.2,0-0.4,0.1
				c0,0,0,0-0.1,0c-0.4,0.1-0.8,0.3-1.3,0.4l0.3-5.7l2.3-8.4l1.8-8.5l-1-3.8l-0.2-0.7l3.9,14.3C131.5,504.8,130.2,512.8,130.4,515.2
				z M118.8,468.9C118.8,468.9,118.8,468.9,118.8,468.9C118.8,468.9,118.8,468.9,118.8,468.9C118.8,468.9,118.8,468.9,118.8,468.9
				C118.8,468.8,118.8,468.8,118.8,468.9L118.8,468.9z M144.7,461.7c-0.1,0.2-0.2,0.4-0.3,0.6c-0.2,0.5-0.2,0.8-0.3,0.9
				c0-0.2-0.4-3-0.4-3.2c0.3-0.1,0.6-0.2,0.6-0.2s-0.7-3.7-1.4-7.1l4.7,1.3c0.5,0.1,1.4-0.1,2.1-0.5l0.5-0.3c-0.1,1-0.3,2.6-0.3,2.6
				S144.8,461.5,144.7,461.7z M155.6,450.3c-0.5,0.6-0.8,1.6-1.1,1.8c-0.3,0.2-1.3,0.2-2.2,0.3c-0.1,0-0.1-0.1,0-0.2L155.6,450.3
				C155.6,450.2,155.6,450.3,155.6,450.3z"/>
			<path class="st3" d="M161.4,446.2l-8.2-2.3c-0.5-0.1-1.4,0.1-2.1,0.5c0,0-5.6,3.1-8.9,5c-0.2-0.8-0.3-1.5-0.4-1.9
				c-0.5-2.3-1.7-3.7-4.9-6.7c-0.8-0.7-1.7-1.6-2.8-2.4c0.8,0.2,1.7,1.2,1.7,1.2s-1.8-2.6-2.9-2.5c0,0-0.1,0-0.2,0
				c-1.1-1.1-1.7-0.6-1.9-1.7c-0.1-0.3-0.4-1.4-0.2-1.4c0.2,0,0.9,0.1,1,0.1c0.7,0,1.9-2.3,2.2-2.8c0.2-0.5,2.5-4.8,2.3-9.5l0.2,0.1
				l1.9-1.9c0,0-1.5-0.9-2-1.1c-0.4-0.2-1.5-1-1.5-1l-2.4-1.9l-1.3-0.4c0,0-2,0.4-2.5,0.6c-0.5,0.2-2.4,0.9-2.9,0.9
				c-0.5,0-1.5,0.5-1.5,0.5l-0.8,2.5l-0.2,3.1l0.2,2.5l0.4,2.1c0,0,0,0,0,0.1c0.1,0.5,0.1,0.9,0.2,1.2c0.1,0.1,0.3,1,0.2,1.3
				c-0.1,1.2-0.1,2.8-0.8,3.9c-0.1,0-0.2,0-0.4,0c0.3-0.4,0.7-0.7,0.6-0.7c-1,0.2-1.4,0.6-1.4,0.7c-1.9-0.1-3.7,0.2-4.5,0.9
				c-4.3,3.7-4.2,11.1-4.2,11.1s0.3,0.5,0.7,1.2c0.1,1.5,0.3,3.1,0.5,4.2c0.4,2.2,2.9,8.9,4.1,12c0.1,3.7-0.5,4.3-0.5,4.3
				s0.1,0.4,0.4,1l-0.3,1.3c-0.5,1.7-0.9,3.8-1,5.3c-0.2,3.1,0.9,7,1.1,9.6c0.2,2.6,0,14.1,0,14.1l-1.7,10.8c0,0-0.9,8.7-1.4,10.1
				c-0.3,0.8-0.7,1.8-1.1,2.5c-0.1,0.3-0.1,0.6-0.1,0.9c-0.1,0.2-0.2,0.4-0.2,0.6c0,0,0,0,0,0.1c-0.1,0.2-0.1,0.3-0.2,0.5
				c0,0,0,0.1,0,0.1c0,0.1-0.1,0.3-0.1,0.4c0,0,0,0,0,0c0,0.1,0,0.2-0.1,0.3c0,0.1,0,0.2,0.1,0.4c0,0.2-0.1,0.3-0.1,0.4
				c0,0.3,0.4,2.4,3.3,3c0.4,0.1,1.4,0.3,2.1,0c0.2-0.1,0.4-0.2,0.7-0.3c0.1,0,0.2-0.1,0.3-0.1c0.2-0.1,0.3-0.2,0.5-0.3
				c0.1-0.1,0.2-0.1,0.3-0.2c0.2-0.1,0.3-0.2,0.5-0.3c0.1-0.1,0.3-0.2,0.4-0.2c0.1-0.1,0.3-0.2,0.4-0.2c0.2-0.1,0.3-0.2,0.5-0.3
				c0.1-0.1,0.2-0.1,0.3-0.2c3.1-1.9,6.6-4.3,7.7-5.7c0.1,3,0.1,6.1-0.1,7.5c-0.2,1.2-0.8,2.5-1.3,3.4c-0.3,0.4-0.3,1,0,1.5l0,0
				c-0.1,0.2-0.2,0.5-0.3,0.7c0,0,0,0,0,0c-0.1,0.2-0.2,0.5-0.3,0.7c0,0,0,0,0,0c-0.1,0.2-0.1,0.4-0.2,0.6c0,0,0,0,0,0
				c0,0.2,0,0.3,0,0.4c0,0.1,0,0.1,0,0.2c-0.1,0.2-0.1,0.4,0,0.6c0.2,0.8,0.2,2.2,3.4,3.1c0.4,0.1,1.9,0.2,2.5,0
				c3-0.9,9.5-4.1,11.5-5.2c0.5-0.3,1.2-1.1,1.3-1.6c0.1-0.3,0.1-0.6,0-1c0.2-1.4-0.8-3.3-2.1-3.8c-0.1,0-0.2-0.1-0.3-0.1
				c0,0-0.1,0-0.1,0c-0.1,0-0.3,0-0.4,0c0,0,0,0,0,0c-0.2,0-0.3,0-0.5,0c0,0-0.1,0-0.1,0c-0.2,0-0.4,0-0.6,0.1c0,0,0,0,0,0
				c-0.2,0-0.4,0.1-0.7,0.1c0,0-0.1,0-0.2,0c-0.2,0-0.5,0.1-0.8,0.1c0,0,0,0,0,0c-0.3,0.1-0.6,0.1-0.8,0.2c0,0-0.1,0-0.1,0
				c-0.3,0.1-0.6,0.1-0.9,0.2c-0.2-1.4,0.7-19.1,0.7-19.1l0.4-5.8c0,0,0.6-19.8,0.2-23c-0.2-2.1-1-4.7-1.5-6.1
				c0.1-0.1,0.2-0.1,0.2-0.2c0,0,0,0,0,0c0-0.1,0.1-0.1,0.1-0.1l0-4.7c0.1,0.2,0.2,0.3,0.2,0.3c1.8,3.5,5,1.2,5.7,0.4
				c2.1-3.1,7-14,7-14s2.1-0.7,3.5-1.3c0.7-0.3,1.6-1.9,1.6-2.7c0-1.4,0.1-3.4-0.2-3.6l3.7-2.1C161.7,446.8,161.9,446.4,161.4,446.2
				z M130.4,515.2c0,0.7,0.1,2.2,0.2,3.9l0,0c-1.3-1.5-3.5-1.8-4.1-2c0,0-0.1,0-0.2,0c0,0-0.1,0-0.1,0c-0.1,0-0.2,0-0.4,0.1
				c0,0,0,0-0.1,0c-0.4,0.1-0.8,0.3-1.3,0.4l0.3-5.7l2.3-8.4l1.8-8.5l-1-3.8l-0.2-0.7l3.9,14.3C131.5,504.8,130.2,512.8,130.4,515.2
				z M118.8,468.9C118.8,468.9,118.8,468.9,118.8,468.9C118.8,468.9,118.8,468.9,118.8,468.9C118.8,468.9,118.8,468.9,118.8,468.9
				C118.8,468.8,118.8,468.8,118.8,468.9L118.8,468.9z M144.7,461.7c-0.1,0.2-0.2,0.4-0.3,0.6c-0.2,0.5-0.2,0.8-0.3,0.9
				c0-0.2-0.4-3-0.4-3.2c0.3-0.1,0.6-0.2,0.6-0.2s-0.7-3.7-1.4-7.1l4.7,1.3c0.5,0.1,1.4-0.1,2.1-0.5l0.5-0.3c-0.1,1-0.3,2.6-0.3,2.6
				S144.8,461.5,144.7,461.7z M155.6,450.3c-0.5,0.6-0.8,1.6-1.1,1.8c-0.3,0.2-1.3,0.2-2.2,0.3c-0.1,0-0.1-0.1,0-0.2L155.6,450.3
				C155.6,450.2,155.6,450.3,155.6,450.3z"/>
		</g>
	</g>
	<g>
		<text transform="matrix(1 0 0 1 57.1659 390.5439)" class="st4 st5">I see where</text>
		<text transform="matrix(1 0 0 1 57.2908 400.2497)" class="st4 st5">this is heading...</text>
		<g>
			<g>
				<path class="st6" d="M152.5,250.8H37.6c-8.5,0-15.4,8.7-15.4,19.4v68.4c0,10.7,6.9,19.4,15.4,19.4h91c-1,2.2-1.6,4.8-1.6,7.5
					c0,1.5,0.2,3,0.5,4.4c-4.8,0.2-8.7,5.2-8.7,11.4c0,6.3,4.1,11.4,9,11.4c5,0,9-5.1,9-11.4c0-0.4,0-0.9-0.1-1.3
					c0.6,0.1,1.2,0.2,1.8,0.2c6.4,0,11.6-6.6,11.6-14.7c0-2.8-0.4-4.8-1.7-7.5h3.9c8.5,0,15.4-8.7,15.4-19.4v-68.4
					C167.8,259.5,160.9,250.8,152.5,250.8z"/>
				<path class="st6" d="M126.6,398.6c0,2.5-1.7,4.5-3.8,4.5c-2.1,0-3.8-2-3.8-4.5c0-2.5,1.7-4.5,3.8-4.5
					C124.8,394.1,126.6,396.1,126.6,398.6z"/>
				<path class="st6" d="M127,408.3c0,1.6-1.1,2.9-2.5,2.9c-1.4,0-2.5-1.3-2.5-2.9c0-1.6,1.1-2.9,2.5-2.9
					C125.9,405.4,127,406.7,127,408.3z"/>
			</g>
		</g>
		<text transform="matrix(1 0 0 1 41.4014 265.3965)" class="st4 st7">Success to the Successful</text>
		<g>
			<rect x="0.5" y="123.9" class="st2" width="185.6" height="108.4"/>
			<rect x="0.5" y="123.9" class="st8" width="185.6" height="108.4"/>
		</g>
		<text transform="matrix(1 0 0 1 58.481 139.3672)" class="st4 st7">Limits to Growth</text>
		<g>
			<polyline class="st9" points="26.7,210.7 46.1,207.5 60.8,203.9 72.2,199.4 89.1,187.5 105.3,176.3 117,163 127.9,161.1 
				139.5,162.8 150.5,168.3 			"/>
			<polyline class="st10" points="26.9,208.9 61.2,207.7 75.4,207.1 102.1,204.5 119.7,200.5 132,197.8 149.7,192 			"/>
			<path class="st11" d="M152.7,213.6l-2.5-2.3l0,0c-0.1-0.1-0.2-0.2-0.4-0.2c-0.3,0-0.6,0.3-0.6,0.6v1.4H27v-58.7h1.4
				c0.3,0,0.6-0.3,0.6-0.6c0-0.2-0.1-0.3-0.2-0.4l-2.2-2.5c-0.1-0.1-0.3-0.2-0.4-0.2c-0.2,0-0.3,0.1-0.4,0.2l-2.3,2.5v0
				c-0.1,0.1-0.2,0.2-0.2,0.4c0,0.3,0.3,0.6,0.6,0.6h1.4v60.5l124,0v1.4c0,0.3,0.3,0.6,0.6,0.6c0.2,0,0.3-0.1,0.4-0.2l2.5-2.2
				c0.1-0.1,0.2-0.3,0.2-0.4C152.9,213.8,152.8,213.7,152.7,213.6z"/>
		</g>
		<g>
			<rect x="0.5" y="0.5" class="st2" width="185.6" height="108.4"/>
			<rect x="0.5" y="0.5" class="st8" width="185.6" height="108.4"/>
		</g>
		<text transform="matrix(1 0 0 1 46.2593 15.1338)" class="st4 st7">Accidental Adversaries</text>
		<g>
			<polyline class="st9" points="28.1,52 36.3,52 44.6,57.5 53.6,57.4 62.2,63.2 71,63.4 79.7,68.8 88.7,68.8 97.9,74.7 105.8,74.7 
				114.9,80.2 123.8,80.5 132.2,85.7 141.6,86.3 149.9,91.5 			"/>
			<polyline class="st10" points="28.1,40.2 35.9,46.2 44.3,45.8 53.9,52.2 62.4,51.8 71,57.8 79.6,57.5 88.7,63.4 97.4,63.3 
				106.6,69.4 114.6,69 123.8,75 132.4,74.9 141.6,80.5 149.9,80.7 			"/>
			<path class="st11" d="M154.9,92.2l-2.5-2.3l0,0c-0.1-0.1-0.2-0.2-0.4-0.2c-0.3,0-0.6,0.3-0.6,0.6v1.4H29.2V33h1.4
				c0.3,0,0.6-0.3,0.6-0.6c0-0.2-0.1-0.3-0.2-0.4l-2.2-2.5c-0.1-0.1-0.3-0.2-0.4-0.2c-0.2,0-0.3,0.1-0.4,0.2L25.6,32v0
				c-0.1,0.1-0.2,0.2-0.2,0.4c0,0.3,0.3,0.6,0.6,0.6h1.4v60.5l124,0v1.4c0,0.3,0.3,0.6,0.6,0.6c0.2,0,0.3-0.1,0.4-0.2l2.5-2.2
				c0.1-0.1,0.2-0.3,0.2-0.4C155.1,92.4,155,92.3,154.9,92.2z"/>
		</g>
		<g>
			<g>
				<polyline class="st10" points="33.4,305.8 50.2,304.5 64.7,302.1 96.9,294.2 128.8,284.9 141.1,280.8 157.6,274.1 				"/>
				<polyline class="st9" points="33.4,306.6 63.8,309.5 82.1,312.1 109.9,318 125.9,322.2 140.4,327.7 157.6,335.1 				"/>
			</g>
			<path class="st11" d="M159.7,337.6l-2.5-2.3l0,0c-0.1-0.1-0.2-0.2-0.4-0.2c-0.3,0-0.6,0.3-0.6,0.6v1.4H34v-58.7h1.4
				c0.3,0,0.6-0.3,0.6-0.6c0-0.2-0.1-0.3-0.2-0.4l-2.2-2.5c-0.1-0.1-0.3-0.2-0.4-0.2c-0.2,0-0.3,0.1-0.4,0.2l-2.3,2.5l0,0
				c-0.1,0.1-0.2,0.2-0.2,0.4c0,0.3,0.3,0.6,0.6,0.6h1.4v60.5l124,0v1.4c0,0.3,0.3,0.6,0.6,0.6c0.2,0,0.3-0.1,0.4-0.2l2.5-2.2
				c0.1-0.1,0.2-0.3,0.2-0.4C159.9,337.8,159.8,337.7,159.7,337.6z"/>
		</g>
		<g>
			<rect x="198.2" y="123.9" class="st2" width="185.6" height="108.4"/>
			<rect x="198.2" y="123.9" class="st8" width="185.6" height="108.4"/>
		</g>
		<text transform="matrix(1 0 0 1 237.4346 139.3672)" class="st4 st7">Tragedy of the Commons</text>
		<g>
			<polyline class="st9" points="229.3,166.5 254.9,167.6 269.3,168.9 283.4,171.1 310.8,177.1 324.8,181.6 352.1,191.8 			"/>
			<path class="st10" d="M229.6,200c14.4,0.8,64-6.7,122.1-26"/>
			<path class="st12" d="M229.6,194.8c14.4,0.8,64-6.7,122.1-26"/>
			<path class="st11" d="M355.6,215.9l-2.5-2.3l0,0c-0.1-0.1-0.2-0.2-0.4-0.2c-0.3,0-0.6,0.3-0.6,0.6v1.4H229.9v-58.7h1.4
				c0.3,0,0.6-0.3,0.6-0.6c0-0.2-0.1-0.3-0.2-0.4l-2.2-2.5c-0.1-0.1-0.3-0.2-0.4-0.2c-0.2,0-0.3,0.1-0.4,0.2l-2.3,2.5v0
				c-0.1,0.1-0.2,0.2-0.2,0.4c0,0.3,0.3,0.6,0.6,0.6h1.4v60.5l124,0v1.4c0,0.3,0.3,0.6,0.6,0.6c0.2,0,0.3-0.1,0.4-0.2l2.5-2.2
				c0.1-0.1,0.2-0.3,0.2-0.4C355.9,216.1,355.8,216,355.6,215.9z"/>
		</g>
		<g>
			<rect x="198.2" y="0.5" class="st2" width="185.6" height="108.4"/>
			<rect x="198.2" y="0.5" class="st8" width="185.6" height="108.4"/>
		</g>
		<text transform="matrix(1 0 0 1 261.2066 15.1333)" class="st4 st7">Eroding Goals</text>
		<g>
			<polyline class="st9" points="227.8,29.3 241.2,35.4 257.7,41 268.8,45.2 296,53.2 309.6,55.8 324.7,57.8 351,59.9 			"/>
			<polyline class="st10" points="227.9,48.1 241.6,42 255.5,51.6 269,48.4 282.9,59.7 296,56.4 310.3,63.9 323.9,61 337.8,68.6 
				351.1,63.6 			"/>
			<polyline class="st12" points="227.8,70.5 241.2,76.8 255.1,70.8 268.9,76.9 283.1,70.5 296.3,76.8 310.1,70 323.6,77 
				337.6,70.8 350,76.3 			"/>
			<path class="st11" d="M354.4,86.2l-2.5-2.3l0,0c-0.1-0.1-0.2-0.2-0.4-0.2c-0.3,0-0.6,0.3-0.6,0.6v1.4H228.6V27.1h1.4
				c0.3,0,0.6-0.3,0.6-0.6c0-0.2-0.1-0.3-0.2-0.4l-2.2-2.5c-0.1-0.1-0.3-0.2-0.4-0.2c-0.2,0-0.3,0.1-0.4,0.2l-2.3,2.5l0,0
				c-0.1,0.1-0.2,0.2-0.2,0.4c0,0.3,0.3,0.6,0.6,0.6h1.4v60.5l124,0v1.4c0,0.3,0.3,0.6,0.6,0.6c0.2,0,0.3-0.1,0.4-0.2l2.5-2.2
				c0.1-0.1,0.2-0.3,0.2-0.4C354.6,86.5,354.5,86.3,354.4,86.2z"/>
		</g>
		<g>
			<rect x="198.2" y="247.3" class="st2" width="185.6" height="108.4"/>
			<rect x="198.2" y="247.3" class="st8" width="185.6" height="108.4"/>
		</g>
		<text transform="matrix(1 0 0 1 248.5791 263.8643)" class="st4 st7">Shifting the Burden</text>
		<g>
			<polyline class="st13" points="228.2,305 242.2,296.1 256.2,303.4 269.5,293.8 283.7,301 297.1,291.6 310.5,296.2 324.5,287.3 
				338.2,291.6 352,282.2 			"/>
			<line class="st10" x1="228.5" y1="309.9" x2="352.4" y2="330.7"/>
			<line class="st12" x1="228.3" y1="330.7" x2="350.8" y2="310.3"/>
			<path class="st11" d="M355.3,340.7l-2.5-2.3l0,0c-0.1-0.1-0.2-0.2-0.4-0.2c-0.3,0-0.6,0.3-0.6,0.6v1.4H229.5v-58.7h1.4
				c0.3,0,0.6-0.3,0.6-0.6c0-0.2-0.1-0.3-0.2-0.4l-2.2-2.5c-0.1-0.1-0.3-0.2-0.4-0.2c-0.2,0-0.3,0.1-0.4,0.2l-2.3,2.5h0
				c-0.1,0.1-0.2,0.2-0.2,0.4c0,0.3,0.3,0.6,0.6,0.6h1.4V342l124,0v1.4c0,0.3,0.3,0.6,0.6,0.6c0.2,0,0.3-0.1,0.4-0.2l2.5-2.2
				c0.1-0.1,0.2-0.3,0.2-0.4C355.5,340.9,355.4,340.8,355.3,340.7z"/>
		</g>
		<g>
			<g class="st0">
				
					<image style="display:inline;overflow:visible;opacity:0.5;" width="73" height="152" xlink:href="7C3E10A3.png"  transform="matrix(1 0 0 1 102.6451 419.2153)">
				</image>
				<g class="st1">
					<path class="st2" d="M164.7,449.1c0.4-0.4,0.3-1-0.1-1.4c-0.4-0.4-1-0.3-1.4,0.1l-5.6,6.3l0,0l-1.5-0.8l-0.6,0.5l1.1,1.1
						c0,0-0.6,1.1-0.5,1.8c0,0.3,0.2,0.9,0.3,1.4c-0.4,0.4-0.6,1-0.4,1.8c0.1,0.2-0.2,0.6-0.8,1.4c0,0-0.1,0.1-0.2,0.2
						c-0.6-0.3-1.2-0.4-1.8-0.3c-0.2,0-0.3,0.2-0.4,0.3c-0.1,0-0.1,0-0.1,0s-3.2,1.8-4.5,3c-0.2,0.2-0.2-0.2-0.5-0.6
						c-0.1-0.1-0.4,0-0.5-0.2c-1.4-2.1-3.1-8.3-5.3-10.8c-1.2-1.4-3.3-3.5-4.9-3.6c-0.2,0-0.5,0-0.8,0l0.4-2.7l0.2,0l0.2-1.1
						l-0.2,0.1l0.2-1.2c0.3-0.2,0.5-0.3,0.7-0.5c1-0.8,1.5-1.8,1.5-2.8c0.1-1.4-0.8-2.8-2.6-3.9l-0.3-4.3c0.1-0.4,0.1-0.8-0.1-1.2
						l0,0h0c-0.3-0.7-1.1-1.4-2.2-1.9c-2.5-1-6-0.8-7.8,0.6c-0.7,0.5-1,1.1-1,1.8c0,0.5-0.3,3-0.4,4.9c-0.3,0.2-0.6,0.4-0.8,0.6
						c-1,0.8-1.5,1.8-1.5,2.8c-0.1,1.2,0.5,2.3,1.7,3.3c0,0.8,0.1,1.4,0.1,1.4l1.6,3.3l0-0.1c0.1,0.3,0.3,0.7,0.4,1
						c0,0.5,0.1,1,0.1,1.6c0,0,0,0-0.1,0.1c0-0.2,0-0.3,0-0.3s-0.2,0.2-0.4,0.6c0.2-2.6-0.4-3-0.4-3s-3.9,1.7-3.3,7.8
						c-2,1.8-5.4,4.8-5.7,5c-0.4,0.4-0.7,2.1-0.7,2.1l-1.4,21.3c0,0-0.5,2.5-0.6,4.3c-0.1,1.8,1.4,9.8,1.4,9.8s0.2,0.1,0.4,0.2
						c0,0-0.1,0.8,0.1,1c0.1,0.2,0.3,0,0.8,0.1c0.2,1.3,0.3,2.2,0.3,2.2s-0.5,3.6-0.4,5.1c-1.4,3-2.7,5.9-2.9,7
						c1.2,4.5,4.2,6.9,7.1,8.1l-1.6,10.6c0,0,0-0.1,0-0.1l0,0.2l0,0.1c0,0,0,0,0,0l0.4,7.8c0,0-0.1,0.4,0.3,0.8l-0.1,5l-1.2,4.6
						c-0.3,0.6-0.6,1.2-0.6,1.5c0,0.9,9.8,7.7,10.6,7.8c0.8,0.1,7.1-0.4,6.7-2.4c-0.3-1.6-6.3-6.8-8.9-8.9c-0.2-0.9-0.4-1.7-0.3-2.3
						c0.2-1.2,0.7-3.4,1.1-4.8c0.4-0.3,0.6-0.5,0.6-0.5l1.7-7.2c0,0-0.2,0.1-0.6,0.3c0.6-4,1.1-8.7,1.1-8.7l1.5-5.8l0.5-5.5l0.3-2
						l-0.1,1.8l1.2,6.4l0.6,5.3c-0.2-0.3-0.4-0.5-0.5-0.8l1,5.6c0,0,0.1,0.4,0.3,1.1l0.1,0.4c0,0-0.1,0.5,0.3,0.9
						c0.4,1.5,0.7,3.3,0.7,3.9c-0.1,1-1.3,4.4-1.7,5.5c-0.4,0.6-0.6,1.2-0.4,1.5c0.5,0.8,12.8,4.6,15.1,5.2c2.2,0.6,3.4-4.1,3.2-4.8
						c-0.2-0.7-9.7-4.6-9.7-4.6l-0.1-0.1c-0.5-1.1-0.9-2.4-0.9-3.2c-0.1-1,0.3-2.6,0.6-4c0.2-0.3,0.2-0.4,0.2-0.4l0.2-1.3
						c0.1-0.2,0.1-0.4,0.1-0.4l1-5.7c0,0-0.1,0.1-0.4,0.3c-0.2-4.7-0.3-8.9-0.3-8.9l-0.1-2c1-3.1,1.7-6.6,1.7-6.6
						s-1.4-10.9-2.3-16.7c-0.9-5.9-2.1-11.5-2.1-11.5s1.7-14.7,1.7-16.2c0-0.2,0.1-0.5,0.2-0.9c0,0,0,0,0.1,0c0,0,0,0,0,0
						c0-0.1,0.1-0.3,0.1-0.4c0,0,0,0,0.1,0.1c-0.1,0.4-0.3,0.8-0.3,1.2c-0.1,0.7-0.1,1.8-0.1,1.8c0.4-0.1,4,9.2,6.6,7.6
						c2.6-1.6,6.7-4.5,6.7-4.5s0.5-0.4,0.9-1.1c1.1-0.5,1.7-1.8,1.4-3.2c0.4-0.3,0.6-0.5,0.6-0.5s2.7-0.5,3.3-1.2
						c1.2-1.2,0.6-0.8,1-1.3c0.2-0.2,1.1-2.2-0.3-3.7c-0.8-0.9-1.7-1-2.3-0.8l-0.4-0.6c0.2,0,0.3-0.1,0.5-0.3L164.7,449.1z
						 M118.9,533.2c0.2,0.3,0.8,0.9,1.4,1.7C119.5,534.5,119.1,533.8,118.9,533.2z M121.1,488.8l-0.1,1.8l-0.1,0l0.3-3.4
						L121.1,488.8z M122.7,478.4l-0.9,4.1l-0.1,0.5l-0.1,0.5l-0.2,1.4l0.3-2.1l1.3-5.6L122.7,478.4z M141.6,461.5c0,0,0-0.1,0-0.1
						c0-0.1,0.1-0.2,0.1-0.2C141.7,461.2,141.7,461.3,141.6,461.5z M133,525.4l-0.3-1.4C132.8,524,132.7,524.7,133,525.4z
						 M118.7,532.7l-0.1-1.1C118.7,531.6,118.6,532.1,118.7,532.7z"/>
					<path class="st3" d="M164.7,449.1c0.4-0.4,0.3-1-0.1-1.4c-0.4-0.4-1-0.3-1.4,0.1l-5.6,6.3l0,0l-1.5-0.8l-0.6,0.5l1.1,1.1
						c0,0-0.6,1.1-0.5,1.8c0,0.3,0.2,0.9,0.3,1.4c-0.4,0.4-0.6,1-0.4,1.8c0.1,0.2-0.2,0.6-0.8,1.4c0,0-0.1,0.1-0.2,0.2
						c-0.6-0.3-1.2-0.4-1.8-0.3c-0.2,0-0.3,0.2-0.4,0.3c-0.1,0-0.1,0-0.1,0s-3.2,1.8-4.5,3c-0.2,0.2-0.2-0.2-0.5-0.6
						c-0.1-0.1-0.4,0-0.5-0.2c-1.4-2.1-3.1-8.3-5.3-10.8c-1.2-1.4-3.3-3.5-4.9-3.6c-0.2,0-0.5,0-0.8,0l0.4-2.7l0.2,0l0.2-1.1
						l-0.2,0.1l0.2-1.2c0.3-0.2,0.5-0.3,0.7-0.5c1-0.8,1.5-1.8,1.5-2.8c0.1-1.4-0.8-2.8-2.6-3.9l-0.3-4.3c0.1-0.4,0.1-0.8-0.1-1.2
						l0,0h0c-0.3-0.7-1.1-1.4-2.2-1.9c-2.5-1-6-0.8-7.8,0.6c-0.7,0.5-1,1.1-1,1.8c0,0.5-0.3,3-0.4,4.9c-0.3,0.2-0.6,0.4-0.8,0.6
						c-1,0.8-1.5,1.8-1.5,2.8c-0.1,1.2,0.5,2.3,1.7,3.3c0,0.8,0.1,1.4,0.1,1.4l1.6,3.3l0-0.1c0.1,0.3,0.3,0.7,0.4,1
						c0,0.5,0.1,1,0.1,1.6c0,0,0,0-0.1,0.1c0-0.2,0-0.3,0-0.3s-0.2,0.2-0.4,0.6c0.2-2.6-0.4-3-0.4-3s-3.9,1.7-3.3,7.8
						c-2,1.8-5.4,4.8-5.7,5c-0.4,0.4-0.7,2.1-0.7,2.1l-1.4,21.3c0,0-0.5,2.5-0.6,4.3c-0.1,1.8,1.4,9.8,1.4,9.8s0.2,0.1,0.4,0.2
						c0,0-0.1,0.8,0.1,1c0.1,0.2,0.3,0,0.8,0.1c0.2,1.3,0.3,2.2,0.3,2.2s-0.5,3.6-0.4,5.1c-1.4,3-2.7,5.9-2.9,7
						c1.2,4.5,4.2,6.9,7.1,8.1l-1.6,10.6c0,0,0-0.1,0-0.1l0,0.2l0,0.1c0,0,0,0,0,0l0.4,7.8c0,0-0.1,0.4,0.3,0.8l-0.1,5l-1.2,4.6
						c-0.3,0.6-0.6,1.2-0.6,1.5c0,0.9,9.8,7.7,10.6,7.8c0.8,0.1,7.1-0.4,6.7-2.4c-0.3-1.6-6.3-6.8-8.9-8.9c-0.2-0.9-0.4-1.7-0.3-2.3
						c0.2-1.2,0.7-3.4,1.1-4.8c0.4-0.3,0.6-0.5,0.6-0.5l1.7-7.2c0,0-0.2,0.1-0.6,0.3c0.6-4,1.1-8.7,1.1-8.7l1.5-5.8l0.5-5.5l0.3-2
						l-0.1,1.8l1.2,6.4l0.6,5.3c-0.2-0.3-0.4-0.5-0.5-0.8l1,5.6c0,0,0.1,0.4,0.3,1.1l0.1,0.4c0,0-0.1,0.5,0.3,0.9
						c0.4,1.5,0.7,3.3,0.7,3.9c-0.1,1-1.3,4.4-1.7,5.5c-0.4,0.6-0.6,1.2-0.4,1.5c0.5,0.8,12.8,4.6,15.1,5.2c2.2,0.6,3.4-4.1,3.2-4.8
						c-0.2-0.7-9.7-4.6-9.7-4.6l-0.1-0.1c-0.5-1.1-0.9-2.4-0.9-3.2c-0.1-1,0.3-2.6,0.6-4c0.2-0.3,0.2-0.4,0.2-0.4l0.2-1.3
						c0.1-0.2,0.1-0.4,0.1-0.4l1-5.7c0,0-0.1,0.1-0.4,0.3c-0.2-4.7-0.3-8.9-0.3-8.9l-0.1-2c1-3.1,1.7-6.6,1.7-6.6
						s-1.4-10.9-2.3-16.7c-0.9-5.9-2.1-11.5-2.1-11.5s1.7-14.7,1.7-16.2c0-0.2,0.1-0.5,0.2-0.9c0,0,0,0,0.1,0c0,0,0,0,0,0
						c0-0.1,0.1-0.3,0.1-0.4c0,0,0,0,0.1,0.1c-0.1,0.4-0.3,0.8-0.3,1.2c-0.1,0.7-0.1,1.8-0.1,1.8c0.4-0.1,4,9.2,6.6,7.6
						c2.6-1.6,6.7-4.5,6.7-4.5s0.5-0.4,0.9-1.1c1.1-0.5,1.7-1.8,1.4-3.2c0.4-0.3,0.6-0.5,0.6-0.5s2.7-0.5,3.3-1.2
						c1.2-1.2,0.6-0.8,1-1.3c0.2-0.2,1.1-2.2-0.3-3.7c-0.8-0.9-1.7-1-2.3-0.8l-0.4-0.6c0.2,0,0.3-0.1,0.5-0.3L164.7,449.1z
						 M118.9,533.2c0.2,0.3,0.8,0.9,1.4,1.7C119.5,534.5,119.1,533.8,118.9,533.2z M121.1,488.8l-0.1,1.8l-0.1,0l0.3-3.4
						L121.1,488.8z M122.7,478.4l-0.9,4.1l-0.1,0.5l-0.1,0.5l-0.2,1.4l0.3-2.1l1.3-5.6L122.7,478.4z M141.6,461.5c0,0,0-0.1,0-0.1
						c0-0.1,0.1-0.2,0.1-0.2C141.7,461.2,141.7,461.3,141.6,461.5z M133,525.4l-0.3-1.4C132.8,524,132.7,524.7,133,525.4z
						 M118.7,532.7l-0.1-1.1C118.7,531.6,118.6,532.1,118.7,532.7z"/>
				</g>
			</g>
			<path class="st14" d="M122.3,526.8l-2.5-4.9l-0.5-7c0.4-0.6,0.5-1,0.5-1l-0.8-7.6c0,0.4-0.1,0.9-0.3,1.3l-0.3-5.2
				c0,0-0.1-2.4-0.3-5.3c0.8-1,1.1-1.7,1.1-1.7l0.2-15.9l-0.6-2.2c0-0.2-0.1-0.4-0.2-0.7l0.4-1.7l-1-3.8c0.3-0.5,0.5-1.1,0.7-2.1
				c0.2-1,1.7-5.1,2.2-9.6c0.4-4.4,1.3-9,1.3-12c0-2.9-1.1-6.3-1.6-7.7c-0.6-1.3-1.3-1.7-1.3-1.7s-1.8-1.6-6.6-1.2l-0.8-1.3
				c0,0-0.4-0.9-1.6-1c0.1-1.3-0.2-2.8-0.4-3.5c0.1-0.1,0.2-0.2,0.2-0.3c0.5-1.1,0.4-2.6,0.4-2.6l0.1-1.5c0.3-0.2,0.6-0.3,0.9-0.5
				c1.1-0.8,1.7-1.8,1.8-2.8c0.2-1.5-0.6-3.1-2.6-4.3l-0.1-2.9c0.1-0.4,0.1-0.8,0-1.1l0,0h0c-0.3-0.8-1-1.5-2.1-2.1
				c-2.5-1.3-6-1.2-7.9,0.1c-0.7,0.5-1.1,1.1-1.1,1.7c-0.1,0.4-0.4,1.9-0.7,3.4c-0.4,0.2-0.8,0.4-1.1,0.6c-1.1,0.8-1.7,1.8-1.8,2.8
				c-0.2,1.5,0.6,3,2.5,4.3c0.1,4.6,2.8,10,3.4,10.1c0.2,0,1.9-0.6,2.4-0.9c-0.2,0.5-0.1,2-0.1,2.8c-1.1,0.8-1.9,1.5-1.9,1.5
				l-1.8,2.5c-0.1,0.1-0.2,0.1-0.3,0.2c-2.8,2-4.5,3.9-5.6,5.1c-0.4,0.4-0.9,1.9-0.9,1.9l-0.9,9.7l-1.6,2.4c0,0-0.5,1.2-0.4,1.7
				c0.1,0.5-0.4,0.7-0.8,1.5c-0.3,0.5-0.1,1.3,0,1.7l0,0c-0.2-0.6-0.7-1.5-0.9-1.5c-0.3-0.1-0.6,0.1-0.7,0.1l-0.5-0.4
				c-1.1-1.2-3.9-4.4-4.4-4.4c0,0,0,0,0,0c-0.3-0.5-0.5-1.3-0.8-1.1c-0.3,0.1-0.3,0.4-0.3,0.6l-1-0.9l-0.9-1.7l-0.1-0.1l0.3-2l0.1-3
				l0.1-0.8c0,0-0.1-0.3-0.3-0.3c-0.2,0-0.4,0.1-0.4,0.1s-0.5,0.2-0.6,0.8c0,0.1,0,0.2-0.1,0.3c-0.2-0.4-0.9-1.3-1.5-1.9
				c-0.1-0.1-0.1-0.1-0.2-0.1c0,0,0-0.1,0-0.1l1.1-0.6l-0.5-0.6l-1.2,0.3l-5.2-6.7c-0.3-0.4-1-0.5-1.4-0.2c-0.4,0.3-0.5,1-0.2,1.4
				l5.6,7.2c0,0,1,1.5,0.2,2.8c-0.1-0.3-0.2-0.6-0.4-0.9c-0.5-1.2,1-1.7-0.5-2.4c-0.6-0.2-2.4,4.2-1,6.9c0.4,0.8,4.2,3.3,4.2,3.3
				s0.6,0.8,1.5,2c0,0.2,0.1,0.4,0.1,0.5c0,0.3-0.8,0.2-0.5,0.7c0.2,0.4,0.7,0.2,1.1,0.6c-0.2,1.4,0,2.5,0,2.5s7.3,6.5,8.8,7.2
				c1.5,0.8,2.7-0.6,2.7-0.6s2.8-2.1,4-4.5c1.3-2.3,6.3-13.3,6.3-13.3l-5.1,11.3c0,0,1.2,1,1.2,4c0,3-4.2,11.4-3.9,12.1
				c0.1,1.5-1.9,14-0.9,15.3c0.3,0.4,1,1.2,1.8,2l0.3,7.7l0.5,5.6c0,0,0.6,2.1,0.8,4.7c-0.7-0.3-1-0.5-1-0.5l1.1,7.2
				c0,0,0.3,0.3,1,0.6c0.3,1.3,0.6,3.1,0.4,4.5c-0.1,0.9-3,0.8-3.4,0.7c-2.6-0.6-4.7-1-5.3-0.7c-1.4,0.7-2.3,2.9-1.9,4.3
				c0.1,0.5,0.9,1.2,1.5,1.5c2.6,1.1,12.2,4.9,13.6,4.7c1.8-0.3,4.5-1.8,5.1-2.6c0.2-0.2,0.1-0.7,0-1.2l-2.3-5.4l0.2-6.7
				c0.2-0.2,0.3-0.4,0.3-0.6c2.7,2.5,8.2,6,10.7,7.2c0.7,0.3,1.8,0.3,2.2,0.1c1.3-0.9,3.6-2.5,3.6-3.1
				C122.7,527.8,122.5,527.3,122.3,526.8z M109.4,519c-0.5,0.1-1.9,0.3-3.2,1l0-4.6c0,0.3-0.1,0.6-0.3,1c0-3.1-0.1-8.4-0.1-8.4
				l0.9-4.6c0.5-0.1,1-0.2,1.4-0.3l0.9,3.7l0.7,2c-0.4-0.2-0.6-0.3-0.6-0.3l1.7,7.1c0,0,0.5,0.5,1.5,0.9c0.6,1.3,1.4,3.4,1.5,4.7
				C112.3,520.2,109.7,518.9,109.4,519z M118.9,506.3c0-0.4-0.1-0.7-0.1-0.7L118.9,506.3z M106.3,514.6l0,0.8
				C106.4,514.9,106.3,514.6,106.3,514.6z"/>
			
				<radialGradient id="SVGID_1_" cx="139.3324" cy="659.5999" r="3.9959" gradientTransform="matrix(0.6128 0.7902 -0.7902 0.6128 509.7476 -68.2526)" gradientUnits="userSpaceOnUse">
				<stop  offset="0" style="stop-color:#EAEBED"/>
				<stop  offset="1" style="stop-color:#B1BAC0"/>
			</radialGradient>
			<path class="st15" d="M77.3,450.4c-0.4,0.3-1.1,0.3-1.4-0.2l-5.6-7.2c-0.3-0.4-0.3-1.1,0.2-1.4l0,0c0.4-0.3,1.1-0.3,1.4,0.2
				l5.6,7.2C77.8,449.5,77.8,450.1,77.3,450.4L77.3,450.4z"/>
			<polygon class="st16" points="77.3,449.5 78.8,448.7 78.2,448.2 76.8,448.6 			"/>
			
				<radialGradient id="SVGID_2_" cx="69.973" cy="487.5414" r="5.9281" gradientTransform="matrix(0.9903 0.1389 -0.1389 0.9903 76.3831 -42.4277)" gradientUnits="userSpaceOnUse">
				<stop  offset="0" style="stop-color:#786560"/>
				<stop  offset="1" style="stop-color:#000000"/>
			</radialGradient>
			<path class="st17" d="M77.9,449.6c0.8,0.8,1.6,2.1,1.6,2.1s-0.1,5.7-1.8,5.2c-1.7-0.5-2-2.1-2.1-3.2c1.9-1.4,0.4-3.5,0.4-3.5
				S77.1,448.8,77.9,449.6z"/>
			
				<radialGradient id="SVGID_3_" cx="375.508" cy="30.212" r="8.7279" gradientTransform="matrix(0.6758 -0.4725 0.7349 0.374 -171.5157 588.6174)" gradientUnits="userSpaceOnUse">
				<stop  offset="0" style="stop-color:#8E9599"/>
				<stop  offset="1" style="stop-color:#545D5E"/>
			</radialGradient>
			<path class="st18" d="M109.8,418.8c3.9,2,4.6,5.2,1.7,7.3c-2.9,2-8.4,2.1-12.3,0.1c-3.9-2-4.6-5.2-1.7-7.3
				C100.4,416.9,105.9,416.8,109.8,418.8z"/>
			<path class="st19" d="M122.3,526.8l-2.5-4.9l-0.6-7.9l-7.4,1c0,0,2,3.9,2.2,6c-1.7-0.9-4.3-2.1-4.5-2.1c-0.7,0.2-3.5,0.5-4.9,2.5
				c-1,1.4,8.7,7.8,12.3,9.6c0.7,0.3,1.8,0.3,2.2,0.1c1.3-0.9,3.6-2.5,3.6-3.1C122.7,527.8,122.5,527.3,122.3,526.8z"/>
			
				<radialGradient id="SVGID_4_" cx="-1458.7549" cy="461.3702" r="13.366" gradientTransform="matrix(1 0 0 1 1575.8026 0)" gradientUnits="userSpaceOnUse">
				<stop  offset="0" style="stop-color:#E6D6C9"/>
				<stop  offset="1" style="stop-color:#DFBFA5"/>
			</radialGradient>
			<path class="st20" d="M113.7,442.9l1.8,11.5c0,0,0.1,1.7-0.4,3c-0.5,1.3-0.1,13.8-0.1,13.8s-1.8,2.9-1.9,4
				c-0.1,1.1,1.5,4.2,1.8,4.6c0.3,0.4,3.1-0.8,3.1-0.8l1-4.2l-1.1-4.1l2.4-10.7l0.6-5.5l-0.3-9.2L113.7,442.9z"/>
			<radialGradient id="SVGID_5_" cx="99.5947" cy="529.5882" r="39.404" gradientUnits="userSpaceOnUse">
				<stop  offset="0" style="stop-color:#DADAD8"/>
				<stop  offset="0.2111" style="stop-color:#D4D3D1"/>
				<stop  offset="0.4457" style="stop-color:#C3C3C0"/>
				<stop  offset="0.6915" style="stop-color:#AAAAA6"/>
				<stop  offset="0.9436" style="stop-color:#8B8C85"/>
				<stop  offset="1" style="stop-color:#83857E"/>
			</radialGradient>
			<path class="st21" d="M97,518.4c-0.2-2.8-0.8-5.1-0.8-5.1l-0.5-5.6l-0.7-22.7l1.4-6.8l20-7.1c0,0,2.7,5.5,2.9,8.6
				c0.2,3-1.1,5.7-1.3,8.3c-0.2,2.5,0.5,14.6,0.5,14.6l0.3,6.6l0.6,3.8l-7.3,2l-2.8-8.1l-1.7-7.2l1.6-7.9l0.2-0.2l-3.3,16.5
				c0,0,0.2,7.7,0,10C105.9,520,97.3,523.7,97,518.4z"/>
			<path class="st22" d="M112.1,438c-2.4-1.1-2.5-5.8-2.4-7c0.3-1.6,0.5-4.9,0.4-5.8c-0.1-1.1-0.4-4.7-5.1-5.1
				c-4.7-0.4-6.4,2.6-6.8,4.3c-0.5,4.8,2.7,11.2,3.3,11.3c0.2,0,1.9-0.6,2.4-0.9c-0.2,0.6,0,2.8-0.1,3.2c-0.2,1.2-0.8,0.5-2.1,2
				C108.4,443.1,112.5,440.9,112.1,438z"/>
			<path class="st22" d="M96,458.7c-1.6-0.7-2.4-1.4-2.4-1.4s-2.8,5-3.1,6.2c-0.3,1.2-0.6,2.5-0.6,2.5l-8.7-7.8l-0.9-1.7l-0.1-0.1
				l0.3-2l0.1-3l0.1-0.8c0,0-0.1-0.3-0.3-0.3c-0.2,0-0.4,0.1-0.4,0.1s-0.5,0.2-0.6,0.8c-0.1,0.6-1,1.9-1,1.9s-0.5,0.5-1.4,1
				c-0.5,0.2-0.8-0.8-1.3-2c-0.5-1.2,1-1.7-0.5-2.4c-0.6-0.2-2.4,4.2-1,6.9c0.4,0.8,4.2,3.3,4.2,3.3s7.2,9.8,7.9,10.6
				c0.2,0.2,0.3,0.4,0.5,0.5c0,0,2.9,4,5.5,1.2l3.3-3.5c0,0,4-8.9,4-8.9S97.6,459.4,96,458.7z"/>
			
				<radialGradient id="SVGID_6_" cx="-1469.858" cy="437.4318" r="12.6925" gradientTransform="matrix(1 0 0 1 1575.8026 0)" gradientUnits="userSpaceOnUse">
				<stop  offset="5.618000e-03" style="stop-color:#768096"/>
				<stop  offset="0.9663" style="stop-color:#566A76"/>
			</radialGradient>
			<path class="st23" d="M111.8,435.5c0,0-0.7-1.6-3.4-0.6c-2.6,1-6.5,4.4-6.5,4.4l-2.1,3l10.6-2.3l2.3-2.7L111.8,435.5z"/>
			<path class="st24" d="M83.5,459.7c-0.5-0.4-0.6-1.5-1-1.3c-0.4,0.1-0.2,0.7-0.4,0.9c-0.2,0.1-0.5,0-0.7,0.2
				c-0.2,0.2-0.1,0.5-0.3,0.7c-0.1,0.2-0.6,0.2-0.7,0.3c-0.1,0.2,0,0.5-0.1,0.7c-0.1,0.3-0.4,0.3-0.5,0.6c-0.1,0.2,0.1,0.5,0.1,0.6
				c0,0.3-0.8,0.2-0.5,0.7c0.2,0.6,1.1,0,1.5,1.2C81.2,465.2,84,460.1,83.5,459.7z"/>
			<radialGradient id="SVGID_7_" cx="98.8539" cy="447.7018" r="46.7994" gradientUnits="userSpaceOnUse">
				<stop  offset="5.618000e-03" style="stop-color:#939CAA"/>
				<stop  offset="0.9663" style="stop-color:#566A76"/>
			</radialGradient>
			<path class="st25" d="M117.3,471.8c0,0,1.1-0.5,1.4-3c0.2-1,1.7-5.1,2.2-9.6c0.4-4.4,1.3-9,1.3-12c0-2.9-1.1-6.3-1.6-7.7
				c-0.6-1.3-1.3-1.7-1.3-1.7s-1.8-1.6-6.8-1.1c-0.7,1.4-8.3,3.5-9.6,3.8c-1,0.5-2.4,0.9-2.9,1.2c-2.8,2-4.5,3.9-5.6,5.1
				c-0.4,0.4-0.9,1.9-0.9,1.9l-0.9,9.7l-1.6,2.4c0,0-0.5,1.2-0.4,1.7c0.1,0.5-0.4,0.7-0.8,1.5c-0.3,0.7,0,1.8,0.2,2.1
				c-0.2-0.4-0.8-1.8-1.1-1.9c-0.3-0.1-0.7,0.2-0.7,0.2s-4.2-4.8-4.8-4.9c-3.6,2.5-2.8,6.8-2.8,6.8s7.3,6.5,8.8,7.2
				c1.5,0.8,2.7-0.6,2.7-0.6s2.8-2.1,4-4.5c1.3-2.3,6.3-13.3,6.3-13.3l-5.1,11.3c0,0,1.2,1,1.2,4c0,3-4.2,11.4-3.9,12.1
				c0.1,1.5-1.9,14-0.9,15.3c1,1.3,5,5.5,8.9,5.7c13-0.3,16.7-8.3,16.7-8.3l0.2-15.9l-0.6-2.2c-0.2-0.7-0.4-1.5-0.7-2.4l-0.3-1.2
				c0,0,0,0,0,0c-0.4-1.2-0.7-2.1-0.7-2.1l-0.4-10.8l2-12.5l-1.9,12.8L117.3,471.8z"/>
			<radialGradient id="SVGID_8_" cx="114.4957" cy="507.9811" r="8.043" gradientUnits="userSpaceOnUse">
				<stop  offset="5.618000e-03" style="stop-color:#9F948B"/>
				<stop  offset="0.9663" style="stop-color:#827E79"/>
			</radialGradient>
			<path class="st26" d="M109.3,508.3c0,0,2.7,1.9,6.6,1.1c3.9-0.7,3-3.9,3-3.9l0.9,8.4c0,0-0.2,1.9-3.5,2.7
				c-3.3,0.7-5.2-1.2-5.2-1.2L109.3,508.3z"/>
			<path class="st27" d="M83.1,467.4c-0.2,0.3-0.8,0.3-1.3,0c-0.5-0.3-0.7-0.9-0.4-1.2c0.2-0.3,0.8-0.3,1.3,0
				C83.1,466.5,83.3,467.1,83.1,467.4z"/>
			<path class="st19" d="M108,536.5l-2.3-5.4l0.2-8.8l-8.5,1.3c0,0,1.3,3.9,0.9,6.3c-0.1,0.9-3,0.8-3.4,0.7c-2.6-0.6-4.7-1-5.3-0.7
				c-1.4,0.7-2.3,2.9-1.9,4.3c0.1,0.5,0.9,1.2,1.5,1.5c2.6,1.1,12.2,4.9,13.6,4.7c1.8-0.3,4.5-1.8,5.1-2.6
				C108.2,537.5,108.2,537,108,536.5z"/>
			<radialGradient id="SVGID_9_" cx="101.1088" cy="517.1229" r="8.261" gradientUnits="userSpaceOnUse">
				<stop  offset="5.618000e-03" style="stop-color:#9F948B"/>
				<stop  offset="0.9663" style="stop-color:#827E79"/>
			</radialGradient>
			<path class="st28" d="M95.9,517.5c0,0,3.2,1.8,7.1,1.1c3.8-0.7,3.4-4,3.4-4l0,8.8c0,0-0.2,1.9-3.5,2.7c-3.3,0.7-5.8-1.4-5.8-1.4
				L95.9,517.5z"/>
			<radialGradient id="SVGID_10_" cx="109.1664" cy="433.1602" r="4.9159" gradientUnits="userSpaceOnUse">
				<stop  offset="0" style="stop-color:#EAEBED"/>
				<stop  offset="1" style="stop-color:#B1BAC0"/>
			</radialGradient>
			<path class="st29" d="M110.5,428l0.1-2.9c0,0-0.2-1.8-0.5-2.6c-0.3-0.8-1.2-2.1-1.9-2.6c-0.7-0.5-2.5-1.2-2.5-1.2s-1.5-0.5-3,0.3
				c-1.5,0.8-4.6,2-4.6,2s-0.4,2.1,0.2,2.2c0.5,0.1,3.8-1.5,3.6-0.8c-0.2,0.7-2.2,3.1-1.5,3.4c0.7,0.3,1.2,4.2,1.7,4.4
				c0.4,0.2,0.3-0.7,0.3-0.7s0.6-2.3,1.6-2.2c1,0.1,0.1,4.2,2.3,5c0.3,0,0.8-0.1,1.4-0.2c0.6,0.9,1.2,2.2,1.2,4
				c0,1.1,0.6,0.1,0.9-0.4c0.8-1.5,0.3-3.9,0-4.9c0.1-0.1,0.2-0.2,0.2-0.3C110.7,429.6,110.5,428,110.5,428z"/>
			
				<radialGradient id="SVGID_11_" cx="375.0188" cy="23.5402" r="18.5184" gradientTransform="matrix(0.6758 -0.4725 0.7349 0.374 -171.5157 588.6174)" gradientUnits="userSpaceOnUse">
				<stop  offset="0" style="stop-color:#A1A8AB"/>
				<stop  offset="1" style="stop-color:#545D5E"/>
			</radialGradient>
			<path class="st30" d="M109.8,418.4c3.9,2,4.6,5.2,1.7,7.3c-2.9,2-8.4,2.1-12.3,0.1c-3.9-2-4.6-5.2-1.7-7.3
				C100.4,416.5,105.9,416.5,109.8,418.4z"/>
			
				<radialGradient id="SVGID_12_" cx="105.2772" cy="398.2756" r="13.4812" gradientTransform="matrix(0.9976 -6.970000e-02 6.970000e-02 0.9976 -31.4741 26.2779)" gradientUnits="userSpaceOnUse">
				<stop  offset="0" style="stop-color:#8E9599"/>
				<stop  offset="1" style="stop-color:#545D5E"/>
			</radialGradient>
			<path class="st31" d="M110.8,421.1L110.8,421.1L110.8,421.1c0-0.1,0-0.1,0-0.1l-0.2-6.1l-11.2-0.4c0,0-1.3,6-1.3,6.2
				c-0.1,1.2,0.8,2.4,2.6,3.3c2.8,1.4,6.9,1.4,9-0.1C110.7,423.1,111.1,422.1,110.8,421.1z"/>
			
				<linearGradient id="SVGID_13_" gradientUnits="userSpaceOnUse" x1="103.2966" y1="396.2574" x2="114.6792" y2="398.4914" gradientTransform="matrix(0.9976 -6.970000e-02 6.970000e-02 0.9976 -31.4741 26.2779)">
				<stop  offset="0.309" style="stop-color:#959C9F"/>
				<stop  offset="1" style="stop-color:#697273"/>
			</linearGradient>
			<path class="st32" d="M108.4,412.7c2.5,1.3,3,3.4,1.1,4.7c-1.9,1.3-5.4,1.4-7.9,0.1c-2.5-1.3-3-3.4-1.1-4.7
				C102.4,411.5,105.9,411.4,108.4,412.7z"/>
			<path class="st33" d="M104.8,479.5l-0.1-4c0,0-2.4-0.1-3.5-0.2c-1.1-0.1-3.3-0.7-3.3-0.7l-1.3,3.6c0,0,0,0.4,0.1,0.4
				c0.7,0.2,2.6,0.8,3.8,1c1.2,0.2,3.3,0.3,4,0.3C104.7,479.9,104.8,479.5,104.8,479.5z"/>
			<path class="st34" d="M164.7,449.1c0.4-0.4,0.3-1-0.1-1.4c-0.4-0.4-1-0.3-1.4,0.1l-5.6,6.3l0,0l-1.5-0.8l-0.6,0.5l1.1,1.1
				c0,0-0.6,1.1-0.5,1.8c0,0.3,0.2,0.9,0.3,1.4c-0.4,0.4-0.6,1-0.4,1.8c0.1,0.2-0.2,0.6-0.8,1.4c0,0-0.1,0.1-0.2,0.2
				c-0.6-0.3-1.2-0.4-1.8-0.3c-0.2,0-0.3,0.2-0.4,0.3c-0.1,0-0.1,0-0.1,0s-3.2,1.8-4.5,3c-0.2,0.2-0.2-0.2-0.5-0.6
				c-0.1-0.1-0.4,0-0.5-0.2c-1.4-2.1-3.1-8.3-5.3-10.8c-1.2-1.4-3.3-3.5-4.9-3.6c-0.2,0-0.5,0-0.8,0l0.4-2.7l0.2,0l0.2-1.1l-0.2,0.1
				l0.2-1.2c0.3-0.2,0.5-0.3,0.7-0.5c1-0.8,1.5-1.8,1.5-2.8c0.1-1.4-0.8-2.8-2.6-3.9l-0.3-4.3c0.1-0.4,0.1-0.8-0.1-1.2l0,0h0
				c-0.3-0.7-1.1-1.4-2.2-1.9c-2.5-1-6-0.8-7.8,0.6c-0.7,0.5-1,1.1-1,1.8c0,0.5-0.3,3-0.4,4.9c-0.3,0.2-0.6,0.4-0.8,0.6
				c-1,0.8-1.5,1.8-1.5,2.8c-0.1,1.2,0.5,2.3,1.7,3.3c0,0.8,0.1,1.4,0.1,1.4l1.6,3.3l0-0.1c0.1,0.3,0.3,0.7,0.4,1
				c0,0.5,0.1,1,0.1,1.6c0,0,0,0-0.1,0.1c0-0.2,0-0.3,0-0.3s-0.2,0.2-0.4,0.6c0.2-2.6-0.4-3-0.4-3s-3.9,1.7-3.3,7.8
				c-2,1.8-5.4,4.8-5.7,5c-0.4,0.4-0.7,2.1-0.7,2.1l-1.4,21.3c0,0-0.5,2.5-0.6,4.3c-0.1,1.8,1.4,9.8,1.4,9.8s0.2,0.1,0.4,0.2
				c0,0-0.1,0.8,0.1,1c0.1,0.2,0.3,0,0.8,0.1c0.2,1.3,0.3,2.2,0.3,2.2s-0.5,3.6-0.4,5.1c-1.4,3-2.7,5.9-2.9,7
				c1.2,4.5,4.2,6.9,7.1,8.1l-1.6,10.6c0,0,0-0.1,0-0.1l0,0.2l0,0.1c0,0,0,0,0,0l0.4,7.8c0,0-0.1,0.4,0.3,0.8l-0.1,5l-1.2,4.6
				c-0.3,0.6-0.6,1.2-0.6,1.5c0,0.9,9.8,7.7,10.6,7.8c0.8,0.1,7.1-0.4,6.7-2.4c-0.3-1.6-6.3-6.8-8.9-8.9c-0.2-0.9-0.4-1.7-0.3-2.3
				c0.2-1.2,0.7-3.4,1.1-4.8c0.4-0.3,0.6-0.5,0.6-0.5l1.7-7.2c0,0-0.2,0.1-0.6,0.3c0.6-4,1.1-8.7,1.1-8.7l1.5-5.8l0.5-5.5l0.3-2
				l-0.1,1.8l1.2,6.4l0.6,5.3c-0.2-0.3-0.4-0.5-0.5-0.8l1,5.6c0,0,0.1,0.4,0.3,1.1l0.1,0.4c0,0-0.1,0.5,0.3,0.9
				c0.4,1.5,0.7,3.3,0.7,3.9c-0.1,1-1.3,4.4-1.7,5.5c-0.4,0.6-0.6,1.2-0.4,1.5c0.5,0.8,12.8,4.6,15.1,5.2c2.2,0.6,3.4-4.1,3.2-4.8
				c-0.2-0.7-9.7-4.6-9.7-4.6l-0.1-0.1c-0.5-1.1-0.9-2.4-0.9-3.2c-0.1-1,0.3-2.6,0.6-4c0.2-0.3,0.2-0.4,0.2-0.4l0.2-1.3
				c0.1-0.2,0.1-0.4,0.1-0.4l1-5.7c0,0-0.1,0.1-0.4,0.3c-0.2-4.7-0.3-8.9-0.3-8.9l-0.1-2c1-3.1,1.7-6.6,1.7-6.6s-1.4-10.9-2.3-16.7
				c-0.9-5.9-2.1-11.5-2.1-11.5s1.7-14.7,1.7-16.2c0-0.2,0.1-0.5,0.2-0.9c0,0,0,0,0.1,0c0,0,0,0,0,0c0-0.1,0.1-0.3,0.1-0.4
				c0,0,0,0,0.1,0.1c-0.1,0.4-0.3,0.8-0.3,1.2c-0.1,0.7-0.1,1.8-0.1,1.8c0.4-0.1,4,9.2,6.6,7.6c2.6-1.6,6.7-4.5,6.7-4.5
				s0.5-0.4,0.9-1.1c1.1-0.5,1.7-1.8,1.4-3.2c0.4-0.3,0.6-0.5,0.6-0.5s2.7-0.5,3.3-1.2c1.2-1.2,0.6-0.8,1-1.3
				c0.2-0.2,1.1-2.2-0.3-3.7c-0.8-0.9-1.7-1-2.3-0.8l-0.4-0.6c0.2,0,0.3-0.1,0.5-0.3L164.7,449.1z M118.9,533.2
				c0.2,0.3,0.8,0.9,1.4,1.7C119.5,534.5,119.1,533.8,118.9,533.2z M121.1,488.8l-0.1,1.8l-0.1,0l0.3-3.4L121.1,488.8z M122.7,478.4
				l-0.9,4.1l-0.1,0.5l-0.1,0.5l-0.2,1.4l0.3-2.1l1.3-5.6L122.7,478.4z M141.6,461.5c0,0,0-0.1,0-0.1c0-0.1,0.1-0.2,0.1-0.2
				C141.7,461.2,141.7,461.3,141.6,461.5z M133,525.4l-0.3-1.4C132.8,524,132.7,524.7,133,525.4z M118.7,532.7l-0.1-1.1
				C118.7,531.6,118.6,532.1,118.7,532.7z"/>
			<radialGradient id="SVGID_14_" cx="157.1475" cy="456.1782" r="2.4251" gradientUnits="userSpaceOnUse">
				<stop  offset="0" style="stop-color:#786560"/>
				<stop  offset="1" style="stop-color:#000000"/>
			</radialGradient>
			<path class="st35" d="M157.5,454l-1.5-0.8l-0.6,0.5l1.1,1.1c0,0-0.6,1.1-0.5,1.8c0.1,0.7,0.6,2.5,0.6,2.5l2.4-2.8L157.5,454z"/>
			
				<radialGradient id="SVGID_15_" cx="519.8094" cy="648.3976" r="3.7887" gradientTransform="matrix(-0.6704 0.742 -0.742 -0.6704 990.6789 500.5679)" gradientUnits="userSpaceOnUse">
				<stop  offset="0" style="stop-color:#EAEBED"/>
				<stop  offset="1" style="stop-color:#B1BAC0"/>
			</radialGradient>
			<path class="st36" d="M157.6,455.5c-0.4-0.4-0.4-1-0.1-1.4l5.7-6.4c0.4-0.4,1-0.4,1.4-0.1l0,0c0.4,0.4,0.4,1,0.1,1.4l-5.7,6.4
				C158.6,455.8,158,455.9,157.6,455.5L157.6,455.5z"/>
			<radialGradient id="SVGID_16_" cx="131.3232" cy="532.1543" r="12.8686" gradientUnits="userSpaceOnUse">
				<stop  offset="5.618000e-03" style="stop-color:#ABB1A0"/>
				<stop  offset="1" style="stop-color:#9F9978"/>
			</radialGradient>
			<path class="st37" d="M118.7,533l1.9-12.5l-2.6-20.7l1.3-8.6l19.9-6.8c0,0,1.5,7.4,1.7,8.8c0.2,1.4,0.9,19.1,0.9,19.1l0.2,4.2
				c0,0,0.1,4.7,0.3,9.7c0.2,5.4-8.6,2.2-8.6,2.2l-0.8-7.4l-1.2-6.4l0.4-6.4l-1.1,12l-1.5,5.8c0,0-1.4,12.1-2.1,14.1
				C126.5,543,118.7,533,118.7,533z"/>
			
				<radialGradient id="SVGID_17_" cx="1320.9" cy="504.4751" r="7.4703" gradientTransform="matrix(1 0 0 1 -1201.7969 0)" gradientUnits="userSpaceOnUse">
				<stop  offset="5.618000e-03" style="stop-color:#E1C09E"/>
				<stop  offset="1" style="stop-color:#DCAA80"/>
			</radialGradient>
			<path class="st38" d="M116.6,501.9c0,0-1.8-11.5-1.8-12.7c0-1.2,0.8-4.4,0.8-4.4l0.5-9.7l0-1.9c0,0,1.6,0.4,3.2,0.6
				c1.7,0.2,3.8,0.2,3.8,0.2l-2.5,11.8l-0.2,3.2l-0.7,12.1l2.8,3.2c0,0,2.4,3.1,1.9,3.2c-0.7,0.7-3.1-2-3-1.7c0,0.2-0.1,1.3,0,1.9
				c0.2,1.1,1,2.5,1,2.7c-0.3,0.9-2.6,0.9-3.4,0.8c-0.7-0.1-2.5-2.7-2.7-3.6C116,506.6,116.6,501.9,116.6,501.9z"/>
			<path class="st39" d="M114.5,488.2c0,0,0.6-3.7,0.6-5.6c0-1.9,0.6-14.9,0.6-14.9s0.4-3.3,1.3-5.1c0.9-1.7,4.1-4.8,4.7-5.5
				c0.5-0.7,2.4-3,2.4-3s0.9-1.7,1.3-2.4c0.4-0.7,0.8-1.5,3-1.9c2.3-0.4,4.6-0.3,4.6-0.3s0.2,1.2,1.4,1.1c3.7-0.2,3,0.1,4.5,0.3
				c1.2,0.2,2.9,11.2,2.5,11.2c-0.6-0.8-0.7,0.2-0.3,0.2c-1.4,0.1-1,3.2-1.1,3.5c-0.3,1.5-1.2,14.5-1.2,14.5l0.4,1.4l0.4,1.6
				c0,0-1.3,4.1-3.7,6c-2.4,1.8-5.2,2.9-8.7,2.9c-3.4,0-6.4-1-6.4-1l0.1-2.5l0.1-2.4l0.4-3l2.2-10l-2.4,10.1l-6.9,11.7l0.4-2.8
				L114.5,488.2z"/>
			<path class="st22" d="M125.9,447.5c0,0,0.7,5.8-0.4,8c0,0.1,4.4,4,4.4,4s0.6-2.8,1.9-2.6c0.5,0.1,0.5,0.2,0.8-0.1
				c0.2-0.2,1.5-0.3,1.5-0.8c0.1-0.5-0.3-2.6-0.3-2.6L125.9,447.5z"/>
			<path class="st40" d="M120.8,492.7c2.4,0.6,6.3,1.3,10.1,0.6c6.3-1.2,8.7-6.4,8.7-6.4l-0.2-1.6c0,0-2.3,5.4-8.6,6.8
				c-3.8,0.9-7.6,0.1-10-0.6L120.8,492.7z"/>
			
				<radialGradient id="SVGID_18_" cx="156.6621" cy="467.6963" r="49.5083" gradientTransform="matrix(1 0 0 1 -37.5215 0)" gradientUnits="userSpaceOnUse">
				<stop  offset="5.618000e-03" style="stop-color:#9F948B"/>
				<stop  offset="0.9663" style="stop-color:#827E79"/>
			</radialGradient>
			<path class="st41" d="M125,452.6c0,0,0.2,1.6,0.8,3.3c0.4,1.1,1.4,1.7,1.8,2.9c0.4,1,0.8,2,1.1,2.9c1.4,3.3,6.5,14.4,6.5,14.4
				l-0.5,20.7l-4.3,25c0,0-0.3,1.2-2.9,1.5c-2.6,0.4-11.8-0.3-14.2-9.2c0.4-2.7,6.9-14.8,7.1-16c0.4-4,0.7-8.3,0.7-8.3l0.3-4
				l0.4-3.3l2.7-11.7l-2.7,11.9l-0.5,3.6l-0.9,11.8c0,0-1,0.6-2.3,0.9c-1.3,0.3-3.1-0.6-3.1-0.6s-1.5-8-1.4-9.8
				c0.1-1.8,0.6-4.3,0.6-4.3l1.4-21.3c0,0,0.3-1.7,0.7-2.1c0.4-0.4,7.2-6.4,7.2-6.4L125,452.6z"/>
			
				<radialGradient id="SVGID_19_" cx="-26.469" cy="456.6948" r="51.6555" gradientTransform="matrix(-1 0 0 1 114.2286 0)" gradientUnits="userSpaceOnUse">
				<stop  offset="5.618000e-03" style="stop-color:#9F948B"/>
				<stop  offset="0.9663" style="stop-color:#827E79"/>
			</radialGradient>
			<path class="st42" d="M136.2,459.7c0.2-1.6-0.4-5-0.4-5l-4.6-4.8c0,0,3.8-0.9,5.6-0.8c1.6,0.1,3.7,2.2,4.9,3.6
				c2.2,2.5,3.9,8.7,5.3,10.8c0.1,0.2,0.4,0.1,0.5,0.2c0.3,0.4,0.3,0.8,0.5,0.6c1.3-1.2,4.5-3,4.5-3s1.3-0.2,2.5,1.4
				c2.1,2.7-0.7,5.4-0.7,5.4s-4.1,3-6.7,4.5c-2.6,1.6-6.1-7.7-6.6-7.6c0,0-0.1-1.2,0.1-1.8c0.2-0.9,0.7-2.1,0.7-2.1
				c-0.2,0.1-0.8,1.8-0.8,2.2c0,1.5-1.7,16.2-1.7,16.2s1.2,5.7,2.1,11.5c0.9,5.9,2.3,16.7,2.3,16.7s-2.2,10.3-4,11.1
				c-1.7,0.8-2.7-2.3-2.8-3.1c-0.2-0.7-2.3-19.1-2.3-19.1l0.7-21.2C135.3,475.5,136.1,461.2,136.2,459.7z"/>
			<path class="st33" d="M136.2,459.7c-0.2,1.6-0.9,15.8-0.9,15.8l0,1c0,0,5.1-17,4.7-18.8c-1.2-5.4-6.4-11.3-6.4-11.3l2.2,8.3
				C135.8,454.7,136.4,458.1,136.2,459.7z"/>
			<path class="st24" d="M134,454.6c0.1,1.3-1.5,2-1.5,2l2.3,3.7c0,0,1.3-3.9,1-5c-0.3-1.1-1-2.2-1-2.2l-1.1,0.3
				C133.7,453.4,133.9,453.4,134,454.6z"/>
			<path class="st22" d="M136.7,444.1l-1.1,7.9c0,0,0.2,1.5-1.2,2.4c-1.4,0.8-3.1,0.1-3.1,0.1s-3.7-2.5-4.3-3.3
				c-0.6-0.8-2.7-5.9-2.8-7.2c-0.1-1.4,0.2-3.6,0.7-4.3c0.5-0.7,1.5-1.7,3.7-2.2c2.2-0.6,3.3-0.3,4.5,0.2c1.1,0.5,2.1,1.6,2.8,2.6
				C136.7,441.2,136.7,444.1,136.7,444.1z"/>
			<polygon class="st43" points="130.8,447.1 133.1,447 132.9,447.6 130.7,448 			"/>
			<polygon class="st43" points="134.9,446.4 136.7,445.3 136.5,446.4 134.8,447 			"/>
			<path class="st44" d="M136.1,440.5c0,0-1.3,1.1-2.7,1.4c-1.4,0.4-3.1,0.2-3.1,0.2l-0.9-0.2c0,0-1-0.4-1.4,0.3
				c-0.4,0.7-0.5,4.8-0.5,4.8s-1.1-2.4-1.7-2c-0.6,0.5,0,1.9,0,1.9l-0.2,1.3L124,445c0,0-0.1-2.1-0.1-3.1c0-1,0.9-3.3,0.9-3.3
				l1.3-1.7c0,0,0.8,0,1.1,0c0.3,0,0.8-0.7,0.8-0.7s2.8,0.2,3.2,0.1c0.4-0.1,0.7-0.4,0.7-0.4s2.6,1.5,3.4,2.5
				C136.2,439.3,136.1,440.5,136.1,440.5z"/>
			<path class="st22" d="M119.7,498.9l-0.1,2.1l2.8,3.2c0,0,2.4,3.1,1.9,3.2c-0.7,0.7-3.1-2-3-1.7c0,0.2-0.1,1.3,0,1.9
				c0.2,1.1,1,2.5,1,2.7c-0.3,0.9-2.6,0.9-3.4,0.8c-0.7-0.1-2.5-2.7-2.7-3.6c-0.2-1,0.4-5.7,0.4-5.7s-0.2-1-0.4-2.5L119.7,498.9z"/>
			<path class="st39" d="M115.4,498.6c0,0-0.1,0.8,0.1,1c0.2,0.2,0.3-0.1,0.8,0.1c0.2,0,0.5,0.3,0.7,0.3c0.2,0,0.4-0.2,0.6-0.2
				c0.4,0,0.7,0.2,1,0.2c0.2,0,0.4-0.4,0.6-0.5c0.2-0.1,0.5,0.1,0.6,0c0.2-0.1,0.3-0.2,0.4-0.5c0.1-0.3,0-1,0-1
				c-0.2,0.1-1.1,0.6-2.3,0.9C117.1,499.2,116,498.8,115.4,498.6z"/>
			<path class="st39" d="M156.5,463.6c0.4,1.7-0.4,3.3-1.8,3.6c-0.4,0.1-0.7,0-1.1-0.2c-0.3-0.1-0.7-0.1-1-0.3
				c-0.3-0.2-0.3-0.7-0.5-1c-0.2-0.3-0.6-0.4-0.7-0.8c-0.1-0.3,0.1-0.7,0.1-1c0-0.5-0.2-0.8,0-1.2c0.2-0.3,0.5-0.5,0.8-0.8
				c0.3-0.3,0.4-0.7,0.8-0.8C154.4,460.8,156.1,461.9,156.5,463.6z"/>
			<path class="st22" d="M155.6,464.8c0.1-0.2,0.3-0.3,0.4-0.5c0.6-0.6,1.1-0.9,1.1-0.9s2.7-0.5,3.3-1.2c1.2-1.2,0.6-0.8,1-1.3
				c0.2-0.2,1.1-2.2-0.3-3.7c-1.4-1.5-2.8-0.7-3.2-0.3c-0.4,0.5-2.7,0.9-2.2,3c0.1,0.2-0.2,0.6-0.8,1.4c-0.2,0.2-0.8,0.7-1.3,0.9
				C152.2,462.6,154.3,466.3,155.6,464.8z"/>
			<path d="M137.3,448.3c0,0.2-0.1,0.3-0.3,0.3c-0.2,0-0.3-0.1-0.3-0.3c0-0.2,0.1-0.3,0.3-0.3C137.2,448,137.3,448.1,137.3,448.3z"
				/>
			
				<radialGradient id="SVGID_20_" cx="389.5022" cy="54.5481" r="8.2907" gradientTransform="matrix(0.6417 -0.5179 0.7589 0.3225 -160.7674 624.8765)" gradientUnits="userSpaceOnUse">
				<stop  offset="0" style="stop-color:#8E9599"/>
				<stop  offset="1" style="stop-color:#545D5E"/>
			</radialGradient>
			<path class="st45" d="M135.4,436.9c3.8,1.6,4.7,4.6,2.1,6.8c-2.6,2.1-7.9,2.6-11.7,0.9c-3.8-1.6-4.7-4.6-2.1-6.8
				C126.4,435.7,131.6,435.3,135.4,436.9z"/>
			
				<radialGradient id="SVGID_21_" cx="389.038" cy="48.2096" r="17.5968" gradientTransform="matrix(0.6417 -0.5179 0.7589 0.3225 -160.7674 624.8765)" gradientUnits="userSpaceOnUse">
				<stop  offset="0" style="stop-color:#A1A8AB"/>
				<stop  offset="1" style="stop-color:#545D5E"/>
			</radialGradient>
			<path class="st46" d="M135.4,436.6c3.8,1.6,4.7,4.6,2.1,6.8c-2.6,2.1-7.9,2.5-11.7,0.9c-3.8-1.6-4.7-4.6-2.1-6.8
				C126.4,435.3,131.7,435,135.4,436.6z"/>
			
				<radialGradient id="SVGID_22_" cx="133.6087" cy="400.8944" r="13.9911" gradientTransform="matrix(0.9904 -0.1381 0.1381 0.9904 -60.5789 55.1329)" gradientUnits="userSpaceOnUse">
				<stop  offset="0" style="stop-color:#8E9599"/>
				<stop  offset="1" style="stop-color:#545D5E"/>
			</radialGradient>
			<path class="st47" d="M136.5,439L136.5,439L136.5,439c0-0.1,0-0.1,0-0.1l-0.4-7.3l-11,0.4c0,0-0.7,7.4-0.6,7.5
				c0,1.1,0.9,2.2,2.6,2.9c2.8,1.2,6.6,0.9,8.5-0.7C136.5,440.9,136.8,439.9,136.5,439z"/>
			
				<linearGradient id="SVGID_23_" gradientUnits="userSpaceOnUse" x1="131.6138" y1="398.6837" x2="142.8243" y2="400.8839" gradientTransform="matrix(0.9904 -0.1381 0.1381 0.9904 -60.5789 55.1329)">
				<stop  offset="0.309" style="stop-color:#959C9F"/>
				<stop  offset="1" style="stop-color:#697273"/>
			</linearGradient>
			<path class="st48" d="M133.8,429.6c2.5,1,3.2,3,1.4,4.4c-1.8,1.4-5.2,1.6-7.8,0.6c-2.5-1-3.2-3-1.4-4.4
				C127.7,428.9,131.2,428.6,133.8,429.6z"/>
			<path class="st19" d="M142.7,525.1c0,0-2.4,2.3-6.3,2.2c-3.9-0.1-3.6-3.3-3.6-3.3l1.6,8.5c0,0-0.4,1.7,3,1.9c3.4,0.2,4.2-2,4.2-2
				L142.7,525.1z"/>
			<path class="st19" d="M129.1,534.5c0,0-3.2,1.8-7.1,1.1c-3.9-0.7-3.4-4-3.4-4l0.5,9.3c0,0-0.2,1.5,3.1,2.2
				c3.3,0.7,5.1-1.4,5.1-1.4L129.1,534.5z"/>
			<path class="st19" d="M125.9,549.3c-0.2-0.9-0.4-1.7-0.3-2.3c0.3-1.9,1.5-6.3,1.5-6.3l-7.7-0.1l-0.1,6.1l-1.2,4.6
				c-0.3,0.6-0.6,1.2-0.6,1.5c0,0.9,9.8,7.7,10.6,7.8c0.8,0.1,7.1-0.4,6.7-2.4C134.5,556.6,128.5,551.4,125.9,549.3z"/>
			<path class="st19" d="M151.4,544.8c-0.2-0.7-9.7-4.6-9.7-4.6l-0.1-0.1c-0.5-1.1-0.9-2.4-0.9-3.2c-0.1-1.8,1.2-6.1,1.2-6.1
				l-7.8,0.3c0,0,1.4,5.1,1.3,6.3c-0.1,1-1.3,4.4-1.7,5.5c-0.4,0.6-0.6,1.2-0.4,1.5c0.5,0.8,12.8,4.6,15.1,5.2
				C150.4,550.2,151.6,545.5,151.4,544.8z"/>
			<path class="st24" d="M131.9,456.7l-2.4,5.1c0,0-2.4-3-3.1-4.1c-0.7-1.1-1.7-2.4-1.7-3.9c0-1.5,1.4-3.2,1.4-3.2s-0.2,1.1,0.2,2.7
				C126.7,454.8,131.9,456.7,131.9,456.7z"/>
			<radialGradient id="SVGID_24_" cx="128.6002" cy="462.2226" r="10.9897" gradientUnits="userSpaceOnUse">
				<stop  offset="5.618000e-03" style="stop-color:#9F948B"/>
				<stop  offset="0.9663" style="stop-color:#827E79"/>
			</radialGradient>
			<path class="st49" d="M124.2,463c0.9,1.9,11.1,13.3,11.1,13.3s-6.4-14.3-6.5-14.6c-0.3-0.6-3.6-6.2-3.4-7.2
				c1.1-5.7,0.1-6.3,0.1-6.3S118.6,451.1,124.2,463z"/>
			<path class="st24" d="M134.7,460.3c0,0,0,0.6,0,1.1c0,0.5,0.3,0.2,0.4,0.6c0.1,0.4,0,0.8,0,1.3c0,0.6,0.8,1.3,0.8,1.3l-0.8,11.1
				l-5-11c0,0,0.9-1.4,0.3-1.6c-0.6-0.2-0.8-0.8-0.4-1.1c0.4-0.3,0.4-0.8,0.4-1c0-0.2-0.4-0.6-0.4-0.6l1.7-3.6l0.5-0.1L134.7,460.3z
				"/>
		</g>
	</g>
</g>
</svg>
