<svg xmlns="http://www.w3.org/2000/svg" xmlns:xlink="http://www.w3.org/1999/xlink" viewBox="0 0 384.31 561.3"><defs><style>.cls-1{fill:#231f20;}.cls-12,.cls-2,.cls-3{fill:#fff;}.cls-2,.cls-4{stroke:#414042;}.cls-10,.cls-11,.cls-31,.cls-4,.cls-5,.cls-6,.cls-8,.cls-9{fill:none;}.cls-11,.cls-5,.cls-8{stroke:#c76956;}.cls-5,.cls-6{stroke-width:1.05px;}.cls-6,.cls-9{stroke:#a3b6ce;}.cls-7{fill:#58595b;}.cls-10,.cls-11,.cls-8,.cls-9{stroke-width:1.05px;}.cls-10{stroke:#478561;}.cls-10,.cls-11{stroke-linecap:round;}.cls-11,.cls-12,.cls-15,.cls-17,.cls-19,.cls-24,.cls-26,.cls-32,.cls-33,.cls-37,.cls-41,.cls-42{stroke-linejoin:round;}.cls-12,.cls-13,.cls-14,.cls-15,.cls-16,.cls-17,.cls-18,.cls-19,.cls-20,.cls-21,.cls-22,.cls-23,.cls-24,.cls-25,.cls-26,.cls-27,.cls-28,.cls-29,.cls-30,.cls-31,.cls-32,.cls-33,.cls-34,.cls-35,.cls-36,.cls-37,.cls-38,.cls-39,.cls-40,.cls-41,.cls-42,.cls-43,.cls-44,.cls-45,.cls-46,.cls-47{stroke:#000;}.cls-12,.cls-32{stroke-width:1.35px;}.cls-13,.cls-14,.cls-15,.cls-16,.cls-17,.cls-18,.cls-19,.cls-20,.cls-21,.cls-22,.cls-23,.cls-24,.cls-25,.cls-26,.cls-27,.cls-28,.cls-29,.cls-30,.cls-31,.cls-33,.cls-34,.cls-35,.cls-36,.cls-37,.cls-38,.cls-39,.cls-40,.cls-41,.cls-42,.cls-43,.cls-44,.cls-45,.cls-46,.cls-47{stroke-width:0.45px;}.cls-13{fill:url(#radial-gradient);}.cls-15{fill:url(#radial-gradient-2);}.cls-16{fill:url(#radial-gradient-3);}.cls-17{fill:#414042;}.cls-18{fill:url(#radial-gradient-4);}.cls-19{fill:url(#radial-gradient-5);}.cls-20{fill:#eac78e;}.cls-21{fill:url(#radial-gradient-6);}.cls-22,.cls-32,.cls-37{fill:#dedfe3;}.cls-23{fill:url(#radial-gradient-7);}.cls-24{fill:url(#radial-gradient-8);}.cls-25{fill:#f2dec6;}.cls-26{fill:url(#radial-gradient-9);}.cls-27{fill:url(#radial-gradient-10);}.cls-28{fill:url(#radial-gradient-11);}.cls-29{fill:url(#radial-gradient-12);}.cls-30{fill:url(#linear-gradient);}.cls-33{fill:url(#radial-gradient-13);}.cls-34{fill:url(#radial-gradient-14);}.cls-35{fill:url(#radial-gradient-15);}.cls-36{fill:url(#radial-gradient-16);}.cls-38{fill:#6c5634;}.cls-39{fill:url(#radial-gradient-17);}.cls-40{fill:url(#radial-gradient-18);}.cls-42{fill:#d1d4da;}.cls-43{fill:url(#radial-gradient-19);}.cls-44{fill:url(#radial-gradient-20);}.cls-45{fill:url(#radial-gradient-21);}.cls-46{fill:url(#linear-gradient-2);}.cls-47{fill:url(#radial-gradient-22);}</style><radialGradient id="radial-gradient" cx="139.33" cy="659.6" r="4" gradientTransform="matrix(0.61, 0.79, -0.79, 0.61, 509.75, -68.25)" gradientUnits="userSpaceOnUse"><stop offset="0" stop-color="#eaebed"/><stop offset="1" stop-color="#b1bac0"/></radialGradient><radialGradient id="radial-gradient-2" cx="69.97" cy="487.54" r="5.93" gradientTransform="translate(76.38 -42.43) rotate(7.98)" gradientUnits="userSpaceOnUse"><stop offset="0" stop-color="#786560"/><stop offset="1"/></radialGradient><radialGradient id="radial-gradient-3" cx="375.51" cy="30.21" r="8.73" gradientTransform="matrix(0.68, -0.47, 0.73, 0.37, -171.52, 588.62)" gradientUnits="userSpaceOnUse"><stop offset="0" stop-color="#8e9599"/><stop offset="1" stop-color="#545d5e"/></radialGradient><radialGradient id="radial-gradient-4" cx="-1458.75" cy="461.37" r="13.37" gradientTransform="translate(1575.8)" gradientUnits="userSpaceOnUse"><stop offset="0" stop-color="#e6d6c9"/><stop offset="1" stop-color="#dfbfa5"/></radialGradient><radialGradient id="radial-gradient-5" cx="99.59" cy="529.59" r="39.4" gradientUnits="userSpaceOnUse"><stop offset="0" stop-color="#dadad8"/><stop offset="0.2" stop-color="#d6d6d3"/><stop offset="0.42" stop-color="#c9c9c6"/><stop offset="0.64" stop-color="#b3b4b0"/><stop offset="0.88" stop-color="#959791"/><stop offset="1" stop-color="#83857e"/></radialGradient><radialGradient id="radial-gradient-6" cx="-1469.86" cy="437.43" r="12.69" gradientTransform="translate(1575.8)" gradientUnits="userSpaceOnUse"><stop offset="0.01" stop-color="#768096"/><stop offset="0.97" stop-color="#566a76"/></radialGradient><radialGradient id="radial-gradient-7" cx="98.85" cy="447.7" r="46.8" gradientUnits="userSpaceOnUse"><stop offset="0.01" stop-color="#939caa"/><stop offset="0.97" stop-color="#566a76"/></radialGradient><radialGradient id="radial-gradient-8" cx="114.5" cy="507.98" r="8.04" gradientUnits="userSpaceOnUse"><stop offset="0.01" stop-color="#9f948b"/><stop offset="0.97" stop-color="#827e79"/></radialGradient><radialGradient id="radial-gradient-9" cx="101.11" cy="517.12" r="8.26" xlink:href="#radial-gradient-8"/><radialGradient id="radial-gradient-10" cx="109.17" cy="433.16" r="4.92" gradientTransform="matrix(1, 0, 0, 1, 0, 0)" xlink:href="#radial-gradient"/><radialGradient id="radial-gradient-11" cx="375.02" cy="23.54" r="18.52" gradientTransform="matrix(0.68, -0.47, 0.73, 0.37, -171.52, 588.62)" gradientUnits="userSpaceOnUse"><stop offset="0" stop-color="#a1a8ab"/><stop offset="1" stop-color="#545d5e"/></radialGradient><radialGradient id="radial-gradient-12" cx="105.28" cy="398.28" r="13.48" gradientTransform="matrix(1, -0.07, 0.07, 1, -31.47, 26.28)" xlink:href="#radial-gradient-3"/><linearGradient id="linear-gradient" x1="103.3" y1="396.26" x2="114.68" y2="398.49" gradientTransform="matrix(1, -0.07, 0.07, 1, -31.47, 26.28)" gradientUnits="userSpaceOnUse"><stop offset="0.31" stop-color="#959c9f"/><stop offset="1" stop-color="#697273"/></linearGradient><radialGradient id="radial-gradient-13" cx="157.15" cy="456.18" r="2.43" gradientTransform="matrix(1, 0, 0, 1, 0, 0)" xlink:href="#radial-gradient-2"/><radialGradient id="radial-gradient-14" cx="519.81" cy="648.4" r="3.79" gradientTransform="translate(990.68 500.57) rotate(132.1)" xlink:href="#radial-gradient"/><radialGradient id="radial-gradient-15" cx="131.32" cy="532.15" r="12.87" gradientUnits="userSpaceOnUse"><stop offset="0.01" stop-color="#abb1a0"/><stop offset="1" stop-color="#9f9978"/></radialGradient><radialGradient id="radial-gradient-16" cx="1320.9" cy="504.48" r="7.47" gradientTransform="translate(-1201.8)" gradientUnits="userSpaceOnUse"><stop offset="0.01" stop-color="#e1c09e"/><stop offset="1" stop-color="#dcaa80"/></radialGradient><radialGradient id="radial-gradient-17" cx="156.66" cy="467.7" r="49.51" gradientTransform="translate(-37.52)" xlink:href="#radial-gradient-8"/><radialGradient id="radial-gradient-18" cx="-26.47" cy="456.69" r="51.66" gradientTransform="matrix(-1, 0, 0, 1, 114.23, 0)" xlink:href="#radial-gradient-8"/><radialGradient id="radial-gradient-19" cx="389.5" cy="54.55" r="8.29" gradientTransform="matrix(0.64, -0.52, 0.76, 0.32, -160.77, 624.88)" xlink:href="#radial-gradient-3"/><radialGradient id="radial-gradient-20" cx="389.04" cy="48.21" r="17.6" gradientTransform="matrix(0.64, -0.52, 0.76, 0.32, -160.77, 624.88)" xlink:href="#radial-gradient-11"/><radialGradient id="radial-gradient-21" cx="133.61" cy="400.89" r="13.99" gradientTransform="matrix(0.99, -0.14, 0.14, 0.99, -60.58, 55.13)" xlink:href="#radial-gradient-3"/><linearGradient id="linear-gradient-2" x1="131.61" y1="398.68" x2="142.82" y2="400.88" gradientTransform="matrix(0.99, -0.14, 0.14, 0.99, -60.58, 55.13)" xlink:href="#linear-gradient"/><radialGradient id="radial-gradient-22" cx="128.6" cy="462.22" r="10.99" xlink:href="#radial-gradient-8"/></defs><g id="duelers"><path class="cls-1" d="M58.6,383.51v7h-.81v-7Z"/><path class="cls-1" d="M61.31,389.71a1.66,1.66,0,0,0,.82.26.69.69,0,0,0,.74-.73c0-.39-.14-.65-.65-1s-1-.86-1-1.44a1.35,1.35,0,0,1,1.38-1.4,1.7,1.7,0,0,1,.91.26l-.22.61a1.11,1.11,0,0,0-.66-.22.62.62,0,0,0-.66.63c0,.35.12.53.62.88a1.84,1.84,0,0,1,1.05,1.53,1.41,1.41,0,0,1-1.52,1.51,1.72,1.72,0,0,1-1-.3Z"/><path class="cls-1" d="M65,388.09c0,1.55.61,1.88,1.2,1.88a1.64,1.64,0,0,0,.83-.2l.13.6a2.52,2.52,0,0,1-1.11.24c-1.21,0-1.84-1-1.84-2.54s.69-2.66,1.71-2.66,1.44,1.08,1.44,2.23c0,.19,0,.33,0,.45Zm1.58-.59c0-1-.36-1.46-.75-1.46s-.79.77-.82,1.46Z"/><path class="cls-1" d="M68.82,388.09c0,1.55.61,1.88,1.2,1.88a1.64,1.64,0,0,0,.83-.2l.13.6a2.52,2.52,0,0,1-1.11.24c-1.21,0-1.84-1-1.84-2.54s.69-2.66,1.7-2.66,1.45,1.08,1.45,2.23c0,.19,0,.33,0,.45Zm1.58-.59c0-1-.36-1.46-.75-1.46s-.79.77-.82,1.46Z"/><path class="cls-1" d="M74.09,385.49l.49,2.48c.09.54.21,1.08.27,1.6h0c.08-.52.2-1.1.32-1.58l.58-2.5h.62l.55,2.42c.12.57.24,1.1.32,1.66h0c.07-.53.16-1.05.28-1.62l.48-2.46h.8l-1.27,5.05H77l-.59-2.45c-.12-.49-.19-.94-.28-1.51h0c-.08.59-.18,1.06-.29,1.54l-.61,2.42h-.67l-1.24-5.05Z"/><path class="cls-1" d="M79.59,383.32h.8V386h0a1.34,1.34,0,0,1,.41-.44,1.19,1.19,0,0,1,.68-.19c.64,0,1.18.51,1.18,1.78v3.35h-.8v-3.25c0-.62-.14-1.2-.68-1.2-.38,0-.66.27-.78.8a1.67,1.67,0,0,0,0,.39v3.26h-.8Z"/><path class="cls-1" d="M84.38,388.09c0,1.55.62,1.88,1.2,1.88a1.65,1.65,0,0,0,.84-.2l.12.6a2.51,2.51,0,0,1-1.1.24c-1.21,0-1.84-1-1.84-2.54s.69-2.66,1.7-2.66,1.44,1.08,1.44,2.23c0,.19,0,.33,0,.45ZM86,387.5c0-1-.37-1.46-.75-1.46s-.8.77-.83,1.46Z"/><path class="cls-1" d="M87.6,386.8c0-.43,0-.93,0-1.31h.72l0,.8h0a1.23,1.23,0,0,1,1.06-.88h.17v.82H89.4c-.51,0-.88.47-1,1.06a3.13,3.13,0,0,0,0,.46v2.79h-.8Z"/><path class="cls-1" d="M90.76,388.09c0,1.55.62,1.88,1.2,1.88a1.65,1.65,0,0,0,.84-.2l.12.6a2.51,2.51,0,0,1-1.1.24c-1.21,0-1.84-1-1.84-2.54s.69-2.66,1.7-2.66,1.44,1.08,1.44,2.23c0,.19,0,.33,0,.45Zm1.59-.59c0-1-.37-1.46-.75-1.46s-.8.77-.83,1.46Z"/><path class="cls-1" d="M58.83,393.86v1.34h1v.61h-1v3c0,.66.25.83.54.83a1.51,1.51,0,0,0,.32,0l0,.62a1.78,1.78,0,0,1-.59.08,1,1,0,0,1-.8-.3,1.89,1.89,0,0,1-.3-1.27v-2.93h-.61v-.61H58v-1.11Z"/><path class="cls-1" d="M60.52,393h.8v2.71h0a1.47,1.47,0,0,1,.42-.44,1.24,1.24,0,0,1,.68-.18c.63,0,1.18.51,1.18,1.78v3.35h-.81V397c0-.61-.13-1.2-.68-1.2-.37,0-.65.27-.78.81a2.34,2.34,0,0,0,0,.38v3.27h-.8Z"/><path class="cls-1" d="M65.61,393.89a.47.47,0,0,1-.49.53.53.53,0,0,1,0-1.05A.47.47,0,0,1,65.61,393.89Zm-.86,6.36V395.2h.8v5.05Z"/><path class="cls-1" d="M66.53,399.42a1.65,1.65,0,0,0,.81.26.69.69,0,0,0,.74-.73c0-.39-.13-.65-.64-1s-1-.85-1-1.44a1.35,1.35,0,0,1,1.38-1.39,1.7,1.7,0,0,1,.91.26l-.22.6a1.22,1.22,0,0,0-.67-.22.62.62,0,0,0-.65.64c0,.34.12.53.62.88a1.83,1.83,0,0,1,1,1.53,1.41,1.41,0,0,1-1.52,1.5,1.72,1.72,0,0,1-1-.29Z"/><path class="cls-1" d="M72.19,393.89a.47.47,0,0,1-.49.53.53.53,0,0,1,0-1.05A.47.47,0,0,1,72.19,393.89Zm-.87,6.36V395.2h.81v5.05Z"/><path class="cls-1" d="M73.11,399.42a1.65,1.65,0,0,0,.81.26.69.69,0,0,0,.74-.73c0-.39-.13-.65-.64-1s-1-.85-1-1.44a1.36,1.36,0,0,1,1.39-1.39,1.7,1.7,0,0,1,.91.26l-.22.6a1.24,1.24,0,0,0-.67-.22.62.62,0,0,0-.66.64c0,.34.13.53.63.88a1.84,1.84,0,0,1,1,1.53,1.4,1.4,0,0,1-1.51,1.5,1.72,1.72,0,0,1-1-.29Z"/><path class="cls-1" d="M77.9,393h.8v2.71h0a1.47,1.47,0,0,1,.42-.44,1.27,1.27,0,0,1,.68-.18c.64,0,1.18.51,1.18,1.78v3.35h-.8V397c0-.61-.14-1.2-.68-1.2-.38,0-.66.27-.79.81a2.34,2.34,0,0,0,0,.38v3.27h-.8Z"/><path class="cls-1" d="M82.69,397.8c0,1.54.62,1.88,1.2,1.88a1.76,1.76,0,0,0,.84-.2l.12.59a2.38,2.38,0,0,1-1.1.24c-1.22,0-1.84-1-1.84-2.53s.69-2.66,1.7-2.66,1.44,1.08,1.44,2.23c0,.19,0,.32,0,.45Zm1.59-.6c0-1-.37-1.46-.75-1.46-.53,0-.8.77-.83,1.46Z"/><path class="cls-1" d="M87.91,400.25l0-.53h0a1.15,1.15,0,0,1-1,.61,1.28,1.28,0,0,1-1.2-1.44c0-1.26,1-1.82,2.15-1.83v-.16c0-.68-.17-1.15-.81-1.15a1.57,1.57,0,0,0-.83.26l-.18-.56a2.16,2.16,0,0,1,1.18-.33c1,0,1.45.66,1.45,1.8v2.18a8.33,8.33,0,0,0,0,1.15Zm-.11-2.61c-.42,0-1.39.07-1.39,1.17,0,.66.33.9.61.9s.66-.26.76-.76a1.46,1.46,0,0,0,0-.29Z"/><path class="cls-1" d="M92.75,393v6c0,.34,0,.92,0,1.21h-.69l0-.64h0a1.14,1.14,0,0,1-1,.72c-.86,0-1.47-.93-1.47-2.58,0-1.8.74-2.63,1.52-2.63a1,1,0,0,1,.92.6h0V393ZM92,397.12c0-.11,0-.22,0-.33,0-.53-.36-1-.75-1-.67,0-.9.93-.9,1.95s.27,1.92.86,1.92c.25,0,.59-.14.77-.87a1.65,1.65,0,0,0,0-.34Z"/><path class="cls-1" d="M94.75,393.89a.47.47,0,0,1-.49.53.53.53,0,0,1,0-1.05A.47.47,0,0,1,94.75,393.89Zm-.87,6.36V395.2h.81v5.05Z"/><path class="cls-1" d="M95.8,396.5c0-.59,0-.89,0-1.3h.7l0,.6h0a1.29,1.29,0,0,1,1.16-.68c.7,0,1.22.52,1.22,1.74v3.39h-.8V397c0-.59-.11-1.2-.7-1.2-.33,0-.66.29-.76.83a2.9,2.9,0,0,0,0,.45v3.18H95.8Z"/><path class="cls-1" d="M103.12,395.2c0,.35,0,.8,0,1.57v2.83c0,1.33-.17,1.83-.5,2.19a1.74,1.74,0,0,1-1.35.55,2.45,2.45,0,0,1-1.1-.25l.18-.63a2,2,0,0,0,.94.22c.64,0,1-.4,1-1.55v-.51h0a1,1,0,0,1-1,.62c-.89,0-1.48-1-1.48-2.49,0-1.86.85-2.63,1.59-2.63a1,1,0,0,1,.94.65h0l0-.57Zm-.83,1.74a1.37,1.37,0,0,0,0-.36c-.1-.35-.28-.78-.74-.78s-.89.79-.89,1.9c0,1.3.4,1.88.89,1.88.24,0,.56-.11.72-.72a1.46,1.46,0,0,0,.06-.46Z"/><path class="cls-1" d="M104.15,399.73a.56.56,0,0,1,.53-.61.54.54,0,0,1,.53.61.53.53,0,0,1-.53.6A.55.55,0,0,1,104.15,399.73Z"/><path class="cls-1" d="M106.17,399.73a.56.56,0,0,1,.53-.61.54.54,0,0,1,.54.61.53.53,0,0,1-.54.6A.55.55,0,0,1,106.17,399.73Z"/><path class="cls-1" d="M108.2,399.73a.56.56,0,0,1,.53-.61.54.54,0,0,1,.53.61.53.53,0,0,1-.53.6A.55.55,0,0,1,108.2,399.73Z"/><path class="cls-2" d="M152.46,250.78H37.64c-8.48,0-15.36,8.7-15.36,19.42v68.38c0,10.73,6.88,19.43,15.36,19.43h91a17.62,17.62,0,0,0-1.65,7.52,18.37,18.37,0,0,0,.52,4.38c-4.83.23-8.71,5.25-8.71,11.42,0,6.32,4.06,11.44,9,11.44s9-5.12,9-11.44c0-.43,0-.86-.07-1.28a9.71,9.71,0,0,0,1.79.19c6.42,0,11.63-6.58,11.63-14.71A15.87,15.87,0,0,0,148.6,358h3.86c8.48,0,15.36-8.7,15.36-19.43V270.2C167.82,259.48,160.94,250.78,152.46,250.78Z"/><path class="cls-2" d="M126.55,398.6c0,2.47-1.71,4.47-3.82,4.47s-3.83-2-3.83-4.47,1.71-4.48,3.83-4.48S126.55,396.13,126.55,398.6Z"/><path class="cls-2" d="M127.05,408.27a2.51,2.51,0,1,1-2.48-2.9A2.71,2.71,0,0,1,127.05,408.27Z"/><path class="cls-1" d="M42,264.15a2.75,2.75,0,0,0,1.36.38,1.48,1.48,0,0,0,1.57-1.6,2.4,2.4,0,0,0-1.25-2,3.51,3.51,0,0,1-1.78-2.62,2.38,2.38,0,0,1,2.5-2.48,2.45,2.45,0,0,1,1.33.35l-.27.93a2,2,0,0,0-1.12-.33A1.31,1.31,0,0,0,43,258.17c0,.94.49,1.3,1.39,1.95A3.22,3.22,0,0,1,46,262.83a2.53,2.53,0,0,1-2.65,2.65,3.18,3.18,0,0,1-1.6-.41Z"/><path class="cls-1" d="M51.34,263.55c0,.75,0,1.34.06,1.85h-.94l-.07-.72h0a1.78,1.78,0,0,1-1.45.83c-1.19,0-1.66-.93-1.66-2.61v-4.28h1.08v4.13c0,1.06.17,1.85.91,1.85a1.05,1.05,0,0,0,1-.9,2.87,2.87,0,0,0,.06-.61v-4.47h1.07Z"/><path class="cls-1" d="M56.16,265.23a2.32,2.32,0,0,1-1.12.25c-1.49,0-2.48-1.19-2.48-3.43,0-1.95,1-3.53,2.67-3.53a2.24,2.24,0,0,1,1,.21l-.21.88a1.76,1.76,0,0,0-.77-.18c-1.08,0-1.57,1.29-1.57,2.62,0,1.58.6,2.53,1.59,2.53a1.87,1.87,0,0,0,.79-.18Z"/><path class="cls-1" d="M60.3,265.23a2.32,2.32,0,0,1-1.12.25c-1.48,0-2.48-1.19-2.48-3.43,0-1.95,1-3.53,2.68-3.53a2.23,2.23,0,0,1,.95.21l-.21.88a1.76,1.76,0,0,0-.77-.18c-1.08,0-1.57,1.29-1.57,2.62,0,1.58.6,2.53,1.6,2.53a1.86,1.86,0,0,0,.78-.18Z"/><path class="cls-1" d="M61.9,262.1c0,2.08.82,2.53,1.61,2.53a2.34,2.34,0,0,0,1.12-.27l.17.8a3.31,3.31,0,0,1-1.49.32c-1.62,0-2.46-1.33-2.46-3.4s.92-3.58,2.28-3.58,1.93,1.46,1.93,3c0,.25,0,.44,0,.6Zm2.13-.79c0-1.36-.49-2-1-2-.7,0-1.07,1-1.11,2Z"/><path class="cls-1" d="M66,264.28a2.2,2.2,0,0,0,1.09.35.92.92,0,0,0,1-1c0-.52-.18-.87-.87-1.34-.88-.57-1.36-1.14-1.36-1.93a1.82,1.82,0,0,1,1.86-1.88,2.39,2.39,0,0,1,1.22.35l-.29.82a1.59,1.59,0,0,0-.9-.3.83.83,0,0,0-.88.86c0,.46.17.71.84,1.17a2.5,2.5,0,0,1,1.4,2.06,1.89,1.89,0,0,1-2,2,2.34,2.34,0,0,1-1.35-.39Z"/><path class="cls-1" d="M70.09,264.28a2.13,2.13,0,0,0,1.09.35.91.91,0,0,0,1-1c0-.52-.18-.87-.86-1.34-.89-.57-1.36-1.14-1.36-1.93a1.82,1.82,0,0,1,1.86-1.88,2.42,2.42,0,0,1,1.22.35l-.3.82a1.56,1.56,0,0,0-.89-.3.83.83,0,0,0-.88.86c0,.46.16.71.84,1.17a2.5,2.5,0,0,1,1.4,2.06,1.9,1.9,0,0,1-2,2,2.3,2.3,0,0,1-1.35-.39Z"/><path class="cls-1" d="M77.83,256.82v1.8h1.3v.82h-1.3v4c0,.89.32,1.12.71,1.12a1.94,1.94,0,0,0,.44,0l0,.83a2.4,2.4,0,0,1-.8.11,1.34,1.34,0,0,1-1.06-.41,2.43,2.43,0,0,1-.41-1.7v-3.93h-.83v-.82h.83v-1.49Z"/><path class="cls-1" d="M84.13,262c0,2.62-1.22,3.5-2.25,3.5-1.22,0-2.2-1.11-2.2-3.49s1.1-3.52,2.27-3.52S84.13,259.64,84.13,262Zm-3.37,0c0,1.12.19,2.64,1.17,2.64S83,263.06,83,262s-.18-2.64-1.14-2.64S80.76,261,80.76,262Z"/><path class="cls-1" d="M88.85,256.82v1.8h1.3v.82h-1.3v4c0,.89.32,1.12.71,1.12a1.94,1.94,0,0,0,.44,0l0,.83a2.4,2.4,0,0,1-.8.11,1.37,1.37,0,0,1-1.07-.41,2.5,2.5,0,0,1-.4-1.7v-3.93h-.83v-.82h.83v-1.49Z"/><path class="cls-1" d="M91.1,255.7h1.08v3.65h0a1.87,1.87,0,0,1,.56-.59,1.58,1.58,0,0,1,.91-.26c.85,0,1.58.69,1.58,2.4v4.5H94.18V261c0-.83-.18-1.61-.91-1.61-.5,0-.88.36-1,1.07a3,3,0,0,0,0,.52v4.39H91.1Z"/><path class="cls-1" d="M97.53,262.1c0,2.08.82,2.53,1.61,2.53a2.34,2.34,0,0,0,1.12-.27l.17.8a3.31,3.31,0,0,1-1.49.32c-1.62,0-2.46-1.33-2.46-3.4s.92-3.58,2.28-3.58,1.93,1.46,1.93,3c0,.25,0,.44,0,.6Zm2.13-.79c0-1.36-.49-2-1-2-.7,0-1.07,1-1.11,2Z"/><path class="cls-1" d="M103.92,264.15a2.81,2.81,0,0,0,1.36.38,1.48,1.48,0,0,0,1.57-1.6,2.41,2.41,0,0,0-1.24-2,3.48,3.48,0,0,1-1.78-2.62,2.38,2.38,0,0,1,2.49-2.48,2.42,2.42,0,0,1,1.33.35l-.27.93a1.93,1.93,0,0,0-1.12-.33,1.31,1.31,0,0,0-1.36,1.35c0,.94.5,1.3,1.39,1.95a3.2,3.2,0,0,1,1.64,2.71,2.53,2.53,0,0,1-2.65,2.65,3.11,3.11,0,0,1-1.59-.41Z"/><path class="cls-1" d="M113.24,263.55c0,.75,0,1.34.05,1.85h-.94l-.07-.72h0a1.78,1.78,0,0,1-1.46.83c-1.19,0-1.65-.93-1.65-2.61v-4.28h1.07v4.13c0,1.06.17,1.85.91,1.85a1,1,0,0,0,1-.9,2.87,2.87,0,0,0,.06-.61v-4.47h1.08Z"/><path class="cls-1" d="M118.05,265.23a2.32,2.32,0,0,1-1.12.25c-1.48,0-2.48-1.19-2.48-3.43,0-1.95,1-3.53,2.68-3.53a2.23,2.23,0,0,1,1,.21l-.21.88a1.76,1.76,0,0,0-.77-.18c-1.08,0-1.57,1.29-1.57,2.62,0,1.58.6,2.53,1.6,2.53a1.86,1.86,0,0,0,.78-.18Z"/><path class="cls-1" d="M122.2,265.23a2.36,2.36,0,0,1-1.13.25c-1.48,0-2.47-1.19-2.47-3.43,0-1.95,1-3.53,2.67-3.53a2.16,2.16,0,0,1,1,.21l-.21.88a1.76,1.76,0,0,0-.77-.18c-1.08,0-1.57,1.29-1.57,2.62,0,1.58.61,2.53,1.6,2.53a1.94,1.94,0,0,0,.79-.18Z"/><path class="cls-1" d="M123.79,262.1c0,2.08.83,2.53,1.61,2.53a2.31,2.31,0,0,0,1.12-.27l.17.8a3.26,3.26,0,0,1-1.48.32c-1.63,0-2.47-1.33-2.47-3.4s.92-3.58,2.28-3.58,1.94,1.46,1.94,3a5.17,5.17,0,0,1,0,.6Zm2.13-.79c0-1.36-.49-2-1-2-.7,0-1.06,1-1.11,2Z"/><path class="cls-1" d="M127.93,264.28a2.2,2.2,0,0,0,1.1.35.92.92,0,0,0,1-1c0-.52-.18-.87-.87-1.34-.88-.57-1.36-1.14-1.36-1.93a1.83,1.83,0,0,1,1.87-1.88,2.45,2.45,0,0,1,1.22.35l-.3.82a1.59,1.59,0,0,0-.9-.3.83.83,0,0,0-.88.86c0,.46.17.71.84,1.17a2.48,2.48,0,0,1,1.4,2.06,1.89,1.89,0,0,1-2,2,2.29,2.29,0,0,1-1.34-.39Z"/><path class="cls-1" d="M132,264.28a2.2,2.2,0,0,0,1.09.35.92.92,0,0,0,1-1c0-.52-.19-.87-.87-1.34-.88-.57-1.36-1.14-1.36-1.93a1.82,1.82,0,0,1,1.86-1.88,2.42,2.42,0,0,1,1.22.35l-.29.82a1.62,1.62,0,0,0-.9-.3.83.83,0,0,0-.88.86c0,.46.17.71.84,1.17a2.5,2.5,0,0,1,1.4,2.06,1.9,1.9,0,0,1-2,2,2.32,2.32,0,0,1-1.35-.39Z"/><path class="cls-1" d="M136.43,265.4v-6h-.85v-.82h.85v-.41a3,3,0,0,1,.6-2,2,2,0,0,1,2.2-.41l-.18.84a1.37,1.37,0,0,0-.59-.11c-.77,0-1,.82-1,1.71v.42h1.23v.82h-1.23v6Z"/><path class="cls-1" d="M143.46,263.55c0,.75,0,1.34.06,1.85h-.94l-.07-.72h0a1.78,1.78,0,0,1-1.46.83c-1.19,0-1.65-.93-1.65-2.61v-4.28h1.08v4.13c0,1.06.17,1.85.91,1.85a1.05,1.05,0,0,0,1-.9,2.9,2.9,0,0,0,0-.61v-4.47h1.08Z"/><path class="cls-1" d="M145,255.7h1.08v9.7H145Z"/><rect class="cls-3" x="0.5" y="123.92" width="185.58" height="108.39"/><rect class="cls-4" x="0.5" y="123.92" width="185.58" height="108.39"/><path class="cls-1" d="M59.32,129.93H60.4v8.53h2.66v.91H59.32Z"/><path class="cls-1" d="M65.22,130.84a.64.64,0,1,1-1.28,0,.65.65,0,0,1,.63-.7A.64.64,0,0,1,65.22,130.84Zm-1.17,8.53v-6.78h1.08v6.78Z"/><path class="cls-1" d="M66.63,134.34c0-.8,0-1.21-.06-1.75h.94l.06.84h0a1.68,1.68,0,0,1,1.52-1,1.41,1.41,0,0,1,1.42,1h0a2.35,2.35,0,0,1,.68-.77,1.64,1.64,0,0,1,.94-.26c.91,0,1.62.67,1.62,2.39v4.5H72.74v-4.25c0-.88-.13-1.73-1-1.73-.44,0-.84.37-1,1a4,4,0,0,0,0,.62v4.36H69.68v-4.44c0-.76-.14-1.54-.94-1.54-.43,0-.88.37-1,1.09a3.61,3.61,0,0,0,0,.59v4.3H66.63Z"/><path class="cls-1" d="M76.47,130.84a.64.64,0,1,1-1.27,0,.65.65,0,0,1,.63-.7A.63.63,0,0,1,76.47,130.84Zm-1.16,8.53v-6.78h1.08v6.78Z"/><path class="cls-1" d="M79.2,130.79v1.8h1.3v.82H79.2v4c0,.89.32,1.12.72,1.12a1.91,1.91,0,0,0,.43,0l0,.83a2.36,2.36,0,0,1-.8.11,1.35,1.35,0,0,1-1.06-.41,2.43,2.43,0,0,1-.41-1.7v-3.93H77.3v-.82h.82V131.1Z"/><path class="cls-1" d="M81.27,138.25a2.2,2.2,0,0,0,1.1.35.92.92,0,0,0,1-1c0-.52-.18-.87-.87-1.33-.88-.58-1.36-1.15-1.36-1.94A1.82,1.82,0,0,1,83,132.48a2.29,2.29,0,0,1,1.21.35l-.29.81a1.59,1.59,0,0,0-.9-.3.83.83,0,0,0-.88.86c0,.46.17.71.84,1.17a2.49,2.49,0,0,1,1.4,2.06,1.89,1.89,0,0,1-2,2,2.29,2.29,0,0,1-1.34-.39Z"/><path class="cls-1" d="M89,130.79v1.8h1.3v.82H89v4c0,.89.32,1.12.71,1.12a1.8,1.8,0,0,0,.43,0l0,.83a2.4,2.4,0,0,1-.8.11,1.37,1.37,0,0,1-1.07-.41,2.5,2.5,0,0,1-.4-1.7v-3.93h-.83v-.82h.83V131.1Z"/><path class="cls-1" d="M95.32,136c0,2.62-1.22,3.5-2.26,3.5-1.22,0-2.2-1.11-2.2-3.49s1.11-3.51,2.27-3.51S95.32,133.61,95.32,136Zm-3.38,0c0,1.12.2,2.64,1.18,2.64s1.1-1.59,1.1-2.64-.18-2.64-1.13-2.64S91.94,134.94,91.94,136Z"/><path class="cls-1" d="M103.45,139.13a4.83,4.83,0,0,1-1.68.32,2.82,2.82,0,0,1-2.23-.92,5.44,5.44,0,0,1-1.13-3.76c0-3.67,1.89-4.93,3.56-4.93a2.89,2.89,0,0,1,1.34.27l-.24.92a2.44,2.44,0,0,0-1.09-.22c-1.18,0-2.45.94-2.45,3.86s1.11,3.86,2.24,3.86a1.43,1.43,0,0,0,.66-.12v-3.08h-1.22v-.89h2.24Z"/><path class="cls-1" d="M104.85,134.34c0-.58,0-1.25-.06-1.75h1l0,1.06h0a1.66,1.66,0,0,1,1.43-1.17h.23v1.11a.82.82,0,0,0-.23,0A1.46,1.46,0,0,0,106,135a3.82,3.82,0,0,0,0,.61v3.76h-1.08Z"/><path class="cls-1" d="M112.3,136c0,2.62-1.22,3.5-2.26,3.5-1.22,0-2.2-1.11-2.2-3.49s1.11-3.51,2.27-3.51S112.3,133.61,112.3,136Zm-3.38,0c0,1.12.2,2.64,1.18,2.64s1.11-1.59,1.11-2.64-.19-2.64-1.14-2.64S108.92,134.94,108.92,136Z"/><path class="cls-1" d="M114,132.59l.66,3.32c.12.73.28,1.45.36,2.15H115c.1-.7.26-1.48.42-2.12l.78-3.35h.83l.74,3.25c.17.75.32,1.47.43,2.22h.06c.08-.71.21-1.41.36-2.18l.65-3.29h1.08l-1.71,6.78h-.88l-.79-3.29a20.7,20.7,0,0,1-.38-2h0c-.12.8-.24,1.43-.4,2.08l-.81,3.25h-.91l-1.65-6.78Z"/><path class="cls-1" d="M122.64,130.79v1.8H124v.82h-1.31v4c0,.89.33,1.12.72,1.12a1.8,1.8,0,0,0,.43,0l0,.83a2.29,2.29,0,0,1-.79.11A1.36,1.36,0,0,1,122,139a2.43,2.43,0,0,1-.41-1.7v-3.93h-.82v-.82h.82V131.1Z"/><path class="cls-1" d="M124.9,129.67H126v3.65h0a1.87,1.87,0,0,1,.56-.59,1.58,1.58,0,0,1,.91-.25c.86,0,1.59.68,1.59,2.39v4.5H128V135c0-.83-.18-1.61-.91-1.61-.51,0-.89.36-1,1.07a3,3,0,0,0,0,.52v4.39H124.9Z"/><polyline class="cls-5" points="26.75 210.73 46.11 207.53 60.8 203.92 72.23 199.44 89.11 187.5 105.27 176.28 117.04 163.04 127.88 161.1 139.46 162.79 150.54 168.27"/><polyline class="cls-6" points="26.88 208.86 61.2 207.66 75.36 207.13 102.06 204.46 119.69 200.45 131.98 197.78 149.74 192.04"/><path class="cls-7" d="M152.68,213.57l-2.49-2.25h0a.57.57,0,0,0-1,.41v1.39H27V154.4h1.39a.57.57,0,0,0,.39-1l-2.24-2.5a.61.61,0,0,0-.43-.19.56.56,0,0,0-.44.21l-2.25,2.5h0a.55.55,0,0,0-.16.39.57.57,0,0,0,.57.57h1.39v60.5h124v1.39a.57.57,0,0,0,.57.57.54.54,0,0,0,.42-.18l2.49-2.24a.57.57,0,0,0,.19-.43A.56.56,0,0,0,152.68,213.57Z"/><rect class="cls-3" x="0.5" y="0.5" width="185.58" height="108.39"/><rect class="cls-4" x="0.5" y="0.5" width="185.58" height="108.39"/><path class="cls-1" d="M48.23,12.3l-.63,2.83h-1l2.15-9.44h1.2L52,15.13H51l-.63-2.83Zm2-.86L49.69,9c-.14-.67-.27-1.46-.38-2.16h-.05C49.15,7.6,49,8.41,48.88,9l-.49,2.4Z"/><path class="cls-1" d="M56.27,15a2.32,2.32,0,0,1-1.12.25c-1.48,0-2.48-1.19-2.48-3.43,0-1.95,1-3.53,2.68-3.53a2.09,2.09,0,0,1,.95.21l-.21.88a1.76,1.76,0,0,0-.77-.18c-1.08,0-1.57,1.29-1.57,2.62,0,1.58.6,2.53,1.6,2.53a1.86,1.86,0,0,0,.78-.18Z"/><path class="cls-1" d="M60.42,15a2.36,2.36,0,0,1-1.13.25c-1.48,0-2.47-1.19-2.47-3.43,0-1.95,1-3.53,2.67-3.53a2,2,0,0,1,.95.21l-.21.88a1.76,1.76,0,0,0-.77-.18c-1.08,0-1.57,1.29-1.57,2.62,0,1.58.61,2.53,1.6,2.53a1.94,1.94,0,0,0,.79-.18Z"/><path class="cls-1" d="M62.5,6.6a.64.64,0,1,1-1.27,0,.65.65,0,0,1,.63-.7A.63.63,0,0,1,62.5,6.6Zm-1.16,8.53V8.35h1.08v6.78Z"/><path class="cls-1" d="M68,5.44v8.07c0,.46,0,1.23.06,1.62h-.93l-.07-.85h0a1.57,1.57,0,0,1-1.42,1c-1.14,0-2-1.25-2-3.48,0-2.41,1-3.53,2-3.53a1.33,1.33,0,0,1,1.24.81h0V5.44Zm-1.07,5.49c0-.14,0-.29,0-.45-.07-.7-.49-1.31-1-1.31-.89,0-1.2,1.24-1.2,2.6s.36,2.58,1.15,2.58c.33,0,.79-.18,1-1.16a2,2,0,0,0,0-.45Z"/><path class="cls-1" d="M70.26,11.84c0,2.08.82,2.52,1.61,2.52A2.34,2.34,0,0,0,73,14.1l.17.8a3.31,3.31,0,0,1-1.49.32c-1.62,0-2.46-1.33-2.46-3.41s.92-3.57,2.28-3.57,1.93,1.46,1.93,3c0,.25,0,.43,0,.6Zm2.12-.8c0-1.35-.49-2-1-2-.7,0-1.07,1-1.11,2Z"/><path class="cls-1" d="M74.58,10.1c0-.79,0-1.2-.06-1.75h.94l.06.82h0a1.71,1.71,0,0,1,1.55-.93c.94,0,1.64.7,1.64,2.34v4.55H77.66V10.76c0-.8-.15-1.61-.94-1.61-.44,0-.88.38-1,1.11a3.62,3.62,0,0,0,0,.6v4.27H74.58Z"/><path class="cls-1" d="M81.48,6.56V8.35h1.31v.83H81.48v4c0,.88.33,1.12.72,1.12a1.8,1.8,0,0,0,.43,0l0,.83a2.29,2.29,0,0,1-.79.11,1.37,1.37,0,0,1-1.07-.41,2.53,2.53,0,0,1-.4-1.71V9.18h-.83V8.35h.83V6.87Z"/><path class="cls-1" d="M86.41,15.13l-.07-.71h0a1.52,1.52,0,0,1-1.34.83,1.73,1.73,0,0,1-1.62-1.94c0-1.69,1.36-2.45,2.89-2.46v-.21c0-.91-.22-1.54-1.08-1.54A2,2,0,0,0,84,9.45l-.24-.76a2.92,2.92,0,0,1,1.59-.45c1.35,0,1.94.9,1.94,2.43v2.92a10.7,10.7,0,0,0,.07,1.54Zm-.15-3.5c-.56,0-1.86.1-1.86,1.57,0,.88.44,1.21.82,1.21s.88-.35,1-1a1.63,1.63,0,0,0,0-.38Z"/><path class="cls-1" d="M88.83,5.44h1.08v9.69H88.83Z"/><path class="cls-1" d="M94.92,12.3l-.63,2.83h-1l2.15-9.44H96.6l2.11,9.44H97.64L97,12.3Zm2-.86L96.38,9c-.14-.67-.27-1.46-.38-2.16h0c-.12.72-.26,1.53-.38,2.16l-.49,2.4Z"/><path class="cls-1" d="M103.73,5.44v8.07c0,.46,0,1.23.06,1.62h-.93l-.07-.85h0a1.56,1.56,0,0,1-1.41,1c-1.15,0-2-1.25-2-3.48,0-2.41,1-3.53,2-3.53a1.32,1.32,0,0,1,1.23.81h0V5.44Zm-1.06,5.49a3.54,3.54,0,0,0,0-.45c-.07-.7-.49-1.31-1-1.31-.89,0-1.2,1.24-1.2,2.6s.36,2.58,1.15,2.58c.33,0,.8-.18,1-1.16a2,2,0,0,0,0-.45Z"/><path class="cls-1" d="M105.79,8.35l.85,3.81c.1.47.21,1.07.3,1.66h0c.07-.56.18-1.14.28-1.66l.84-3.81h1.06l-1.76,6.78h-1l-1.76-6.78Z"/><path class="cls-1" d="M110.67,11.84c0,2.08.83,2.52,1.61,2.52a2.29,2.29,0,0,0,1.12-.26l.17.8a3.26,3.26,0,0,1-1.48.32c-1.63,0-2.47-1.33-2.47-3.41s.93-3.57,2.29-3.57,1.93,1.46,1.93,3a5.26,5.26,0,0,1,0,.6Zm2.13-.8c0-1.35-.49-2-1-2-.7,0-1.06,1-1.1,2Z"/><path class="cls-1" d="M115,10.1c0-.57,0-1.24,0-1.75h1l0,1.07h0a1.64,1.64,0,0,1,1.43-1.18l.22,0v1.1h-.22a1.46,1.46,0,0,0-1.3,1.41,4,4,0,0,0,0,.62v3.75H115Z"/><path class="cls-1" d="M118.29,14a2.1,2.1,0,0,0,1.09.35.91.91,0,0,0,1-1c0-.52-.19-.87-.87-1.33-.89-.57-1.36-1.15-1.36-1.93A1.82,1.82,0,0,1,120,8.24a2.33,2.33,0,0,1,1.22.35l-.29.81a1.69,1.69,0,0,0-.9-.29.83.83,0,0,0-.88.85c0,.47.16.72.84,1.18a2.5,2.5,0,0,1,1.4,2.06,1.9,1.9,0,0,1-2,2,2.4,2.4,0,0,1-1.35-.39Z"/><path class="cls-1" d="M125.19,15.13l-.07-.71h0a1.52,1.52,0,0,1-1.35.83,1.73,1.73,0,0,1-1.61-1.94c0-1.69,1.36-2.45,2.89-2.46v-.21c0-.91-.22-1.54-1.08-1.54a2,2,0,0,0-1.12.35l-.24-.76a2.92,2.92,0,0,1,1.59-.45c1.35,0,1.94.9,1.94,2.43v2.92a10.7,10.7,0,0,0,.07,1.54Zm-.15-3.5c-.56,0-1.87.1-1.87,1.57,0,.88.45,1.21.83,1.21s.88-.35,1-1a1.63,1.63,0,0,0,0-.38Z"/><path class="cls-1" d="M127.6,10.1c0-.57,0-1.24-.06-1.75h1l.05,1.07h0A1.66,1.66,0,0,1,130,8.24l.23,0v1.1H130a1.46,1.46,0,0,0-1.3,1.41,4,4,0,0,0,0,.62v3.75H127.6Z"/><path class="cls-1" d="M132.25,6.6a.64.64,0,1,1-1.28,0,.65.65,0,0,1,.63-.7A.64.64,0,0,1,132.25,6.6Zm-1.17,8.53V8.35h1.08v6.78Z"/><path class="cls-1" d="M134.42,11.84c0,2.08.82,2.52,1.61,2.52a2.34,2.34,0,0,0,1.12-.26l.17.8a3.31,3.31,0,0,1-1.49.32c-1.62,0-2.46-1.33-2.46-3.41s.92-3.57,2.28-3.57,1.93,1.46,1.93,3c0,.25,0,.43,0,.6Zm2.13-.8c0-1.35-.49-2-1-2-.7,0-1.07,1-1.11,2Z"/><path class="cls-1" d="M138.56,14a2.1,2.1,0,0,0,1.09.35.91.91,0,0,0,1-1c0-.52-.19-.87-.87-1.33-.88-.57-1.36-1.15-1.36-1.93a1.82,1.82,0,0,1,1.86-1.88,2.33,2.33,0,0,1,1.22.35l-.29.81a1.66,1.66,0,0,0-.9-.29.83.83,0,0,0-.88.85c0,.47.17.72.84,1.18a2.5,2.5,0,0,1,1.4,2.06,1.9,1.9,0,0,1-2,2,2.4,2.4,0,0,1-1.35-.39Z"/><polyline class="cls-5" points="28.09 51.96 36.3 51.96 44.61 57.51 53.59 57.41 62.23 63.19 71.01 63.4 79.71 68.83 88.66 68.83 97.87 74.68 105.85 74.7 114.86 80.17 123.8 80.55 132.15 85.74 141.62 86.27 149.86 91.45"/><polyline class="cls-6" points="28.05 40.19 35.91 46.24 44.26 45.78 53.85 52.22 62.42 51.78 71.01 57.81 79.63 57.47 88.69 63.4 97.36 63.33 106.64 69.38 114.61 69.03 123.8 74.96 132.42 74.92 141.62 80.55 149.86 80.68"/><path class="cls-7" d="M154.91,92.15l-2.5-2.25h0a.56.56,0,0,0-.4-.16.58.58,0,0,0-.57.57V91.7H29.18V33h1.39A.57.57,0,0,0,31,32l-2.24-2.5a.57.57,0,0,0-.87,0L25.6,32h0a.55.55,0,0,0-.16.39A.57.57,0,0,0,26,33H27.4v60.5h124v1.38a.57.57,0,0,0,1,.4L154.92,93a.57.57,0,0,0,.19-.43A.61.61,0,0,0,154.91,92.15Z"/><polyline class="cls-6" points="33.44 305.83 50.2 304.53 64.68 302.1 96.87 294.18 128.81 284.86 141.12 280.8 157.62 274.12"/><polyline class="cls-5" points="33.44 306.63 63.79 309.55 82.07 312.13 109.9 317.96 125.91 322.17 140.4 327.7 157.62 335.11"/><path class="cls-7" d="M159.68,337.56l-2.5-2.25h0a.55.55,0,0,0-.39-.16.57.57,0,0,0-.57.57v1.39H34V278.39h1.39a.57.57,0,0,0,.57-.57.6.6,0,0,0-.18-.42l-2.25-2.49a.56.56,0,0,0-.86,0l-2.26,2.5h0a.55.55,0,0,0-.16.39.57.57,0,0,0,.57.57h1.4v60.5h124v1.39a.57.57,0,0,0,1,.39l2.5-2.25a.57.57,0,0,0,.19-.42A.55.55,0,0,0,159.68,337.56Z"/><rect class="cls-3" x="198.23" y="123.92" width="185.58" height="108.39"/><rect class="cls-4" x="198.23" y="123.92" width="185.58" height="108.39"/><path class="cls-1" d="M239.38,130.89h-1.72v-1h4.52v1h-1.72v8.48h-1.08Z"/><path class="cls-1" d="M242.38,134.34c0-.58,0-1.25-.06-1.75h1l.05,1.06h0a1.66,1.66,0,0,1,1.43-1.17H245v1.11a.78.78,0,0,0-.22,0,1.46,1.46,0,0,0-1.3,1.42,3.82,3.82,0,0,0,0,.61v3.76h-1.08Z"/><path class="cls-1" d="M248.45,139.37l-.07-.72h0a1.52,1.52,0,0,1-1.34.83,1.72,1.72,0,0,1-1.61-1.93c0-1.7,1.36-2.46,2.88-2.47v-.21c0-.91-.22-1.54-1.08-1.54a2.06,2.06,0,0,0-1.12.35l-.24-.76a3,3,0,0,1,1.59-.44c1.36,0,2,.89,2,2.42v2.93a12.63,12.63,0,0,0,.06,1.54Zm-.15-3.5c-.56,0-1.86.09-1.86,1.56,0,.89.45,1.21.82,1.21s.89-.35,1-1a1.71,1.71,0,0,0,0-.38Z"/><path class="cls-1" d="M255,132.59c0,.47-.06,1.08-.06,2.11v3.8c0,1.78-.22,2.45-.67,2.94a2.35,2.35,0,0,1-1.8.73,3.19,3.19,0,0,1-1.49-.34l.25-.84a2.8,2.8,0,0,0,1.26.3c.86,0,1.39-.54,1.39-2.08v-.68h0a1.38,1.38,0,0,1-1.3.82c-1.2,0-2-1.36-2-3.34,0-2.5,1.13-3.53,2.13-3.53a1.34,1.34,0,0,1,1.26.88h0l.05-.77Zm-1.12,2.34a1.53,1.53,0,0,0-.06-.49c-.12-.47-.36-1-1-1-.78,0-1.2,1-1.2,2.55,0,1.74.55,2.52,1.2,2.52.33,0,.75-.15,1-1a2.2,2.2,0,0,0,.07-.61Z"/><path class="cls-1" d="M257.22,136.08c0,2.07.82,2.52,1.61,2.52a2.34,2.34,0,0,0,1.12-.27l.17.8a3.31,3.31,0,0,1-1.49.32c-1.62,0-2.46-1.33-2.46-3.4s.92-3.57,2.28-3.57,1.93,1.45,1.93,3c0,.26,0,.44,0,.61Zm2.13-.8c0-1.36-.49-2-1-2-.7,0-1.07,1-1.11,2Z"/><path class="cls-1" d="M265.62,129.67v8.07c0,.46,0,1.24.05,1.63h-.92l-.07-.86h0a1.57,1.57,0,0,1-1.42,1c-1.14,0-2-1.25-2-3.47,0-2.41,1-3.53,2-3.53a1.32,1.32,0,0,1,1.24.81h0v-3.62Zm-1.07,5.5c0-.15,0-.3,0-.45-.07-.7-.49-1.32-1-1.32-.9,0-1.2,1.25-1.2,2.61s.36,2.57,1.15,2.57c.33,0,.79-.18,1-1.16a2,2,0,0,0,0-.45Z"/><path class="cls-1" d="M267.69,132.59l.89,3.89c.13.53.2,1,.29,1.4h0c.07-.38.19-.89.3-1.38l.8-3.91h1.06l-1.11,4.35a12.17,12.17,0,0,1-1.68,4.37,3.55,3.55,0,0,1-1.22,1l-.39-.92a3.23,3.23,0,0,0,1-.86,4.12,4.12,0,0,0,.62-1.13.88.88,0,0,0,.07-.34.72.72,0,0,0,0-.25l-1.71-6.26Z"/><path class="cls-1" d="M278.33,136c0,2.62-1.22,3.5-2.25,3.5-1.22,0-2.2-1.11-2.2-3.49s1.1-3.51,2.27-3.51S278.33,133.61,278.33,136ZM275,136c0,1.12.19,2.64,1.17,2.64s1.11-1.59,1.11-2.64-.18-2.64-1.14-2.64S275,134.94,275,136Z"/><path class="cls-1" d="M279.76,139.37v-6h-.86v-.82h.86v-.41a3,3,0,0,1,.6-2,1.82,1.82,0,0,1,1.36-.58,1.88,1.88,0,0,1,.84.17l-.18.84a1.37,1.37,0,0,0-.59-.11c-.77,0-1,.82-1,1.71v.42h1.24v.82h-1.24v6Z"/><path class="cls-1" d="M286.24,130.79v1.8h1.3v.82h-1.3v4c0,.89.32,1.12.71,1.12a1.94,1.94,0,0,0,.44,0l0,.83a2.4,2.4,0,0,1-.8.11,1.34,1.34,0,0,1-1.06-.41,2.43,2.43,0,0,1-.41-1.7v-3.93h-.83v-.82h.83V131.1Z"/><path class="cls-1" d="M288.49,129.67h1.08v3.65h0a1.87,1.87,0,0,1,.56-.59,1.58,1.58,0,0,1,.91-.25c.85,0,1.58.68,1.58,2.39v4.5h-1.08V135c0-.83-.18-1.61-.91-1.61-.5,0-.88.36-1.05,1.07a3,3,0,0,0,0,.52v4.39h-1.08Z"/><path class="cls-1" d="M294.92,136.08c0,2.07.82,2.52,1.61,2.52a2.34,2.34,0,0,0,1.12-.27l.17.8a3.28,3.28,0,0,1-1.49.32c-1.62,0-2.46-1.33-2.46-3.4s.92-3.57,2.28-3.57,1.93,1.45,1.93,3c0,.26,0,.44,0,.61Zm2.13-.8c0-1.36-.49-2-1-2-.7,0-1.07,1-1.11,2Z"/><path class="cls-1" d="M305.64,139.2a3,3,0,0,1-1.34.25c-1.85,0-3.17-1.48-3.17-4.69,0-3.73,1.85-4.92,3.34-4.92a2.27,2.27,0,0,1,1.17.24l-.23.91a2.09,2.09,0,0,0-1-.2c-1,0-2.18,1-2.18,3.87s1.06,3.84,2.21,3.84a2.4,2.4,0,0,0,1-.21Z"/><path class="cls-1" d="M310.57,136c0,2.62-1.22,3.5-2.25,3.5-1.22,0-2.2-1.11-2.2-3.49s1.1-3.51,2.27-3.51S310.57,133.61,310.57,136Zm-3.37,0c0,1.12.19,2.64,1.17,2.64s1.11-1.59,1.11-2.64-.18-2.64-1.14-2.64S307.2,134.94,307.2,136Z"/><path class="cls-1" d="M311.77,134.34c0-.8,0-1.21,0-1.75h.94l0,.84h0a1.7,1.7,0,0,1,1.53-1,1.4,1.4,0,0,1,1.41,1h0a2.22,2.22,0,0,1,.67-.77,1.66,1.66,0,0,1,.94-.26c.91,0,1.63.67,1.63,2.39v4.5h-1.07v-4.25c0-.88-.13-1.73-.95-1.73-.45,0-.84.37-1,1a5.87,5.87,0,0,0,0,.62v4.36h-1.06v-4.44c0-.76-.14-1.54-.94-1.54-.43,0-.88.37-1,1.09a3.65,3.65,0,0,0,0,.59v4.3h-1.07Z"/><path class="cls-1" d="M320.45,134.34c0-.8,0-1.21-.05-1.75h.94l.05.84h0a1.69,1.69,0,0,1,1.53-1,1.4,1.4,0,0,1,1.41,1h0a2.22,2.22,0,0,1,.67-.77,1.66,1.66,0,0,1,.94-.26c.91,0,1.63.67,1.63,2.39v4.5h-1.07v-4.25c0-.88-.13-1.73-.95-1.73-.45,0-.84.37-1,1a5.87,5.87,0,0,0,0,.62v4.36h-1.06v-4.44c0-.76-.14-1.54-.94-1.54-.44,0-.88.37-1,1.09a3.65,3.65,0,0,0,0,.59v4.3h-1.07Z"/><path class="cls-1" d="M333.29,136c0,2.62-1.21,3.5-2.25,3.5-1.22,0-2.2-1.11-2.2-3.49s1.11-3.51,2.27-3.51S333.29,133.61,333.29,136Zm-3.37,0c0,1.12.19,2.64,1.17,2.64S332.2,137,332.2,136s-.18-2.64-1.13-2.64S329.92,134.94,329.92,136Z"/><path class="cls-1" d="M334.5,134.34c0-.8-.05-1.21-.06-1.75h.94l.05.81h0a1.72,1.72,0,0,1,1.56-.92c.94,0,1.64.7,1.64,2.33v4.56h-1.08V135c0-.8-.16-1.61-.94-1.61-.45,0-.88.37-1,1.1a3.54,3.54,0,0,0-.05.6v4.28H334.5Z"/><path class="cls-1" d="M340,138.25a2.2,2.2,0,0,0,1.1.35.92.92,0,0,0,1-1c0-.52-.18-.87-.87-1.33-.88-.58-1.36-1.15-1.36-1.94a1.82,1.82,0,0,1,1.87-1.87,2.29,2.29,0,0,1,1.21.35l-.29.81a1.59,1.59,0,0,0-.9-.3.83.83,0,0,0-.88.86c0,.46.17.71.84,1.17a2.49,2.49,0,0,1,1.4,2.06,1.89,1.89,0,0,1-2,2,2.29,2.29,0,0,1-1.34-.39Z"/><polyline class="cls-8" points="229.32 166.53 254.88 167.6 269.26 168.87 283.35 171.06 310.77 177.12 324.76 181.65 352.1 191.84"/><path class="cls-9" d="M229.57,200c14.39.81,64-6.72,122.13-26"/><path class="cls-10" d="M229.65,194.8c14.39.81,64-6.71,122.13-26"/><path class="cls-7" d="M355.65,215.86l-2.5-2.25h0a.56.56,0,0,0-.4-.16.57.57,0,0,0-.57.57v1.39H229.92V156.69h1.39a.57.57,0,0,0,.39-1l-2.24-2.49A.56.56,0,0,0,229,153a.58.58,0,0,0-.44.21l-2.25,2.49h0a.55.55,0,0,0-.16.39.57.57,0,0,0,.57.57h1.39v60.5h124v1.39a.57.57,0,0,0,.57.57.58.58,0,0,0,.42-.18l2.49-2.25a.54.54,0,0,0,.19-.42A.59.59,0,0,0,355.65,215.86Z"/><rect class="cls-3" x="198.23" y="0.5" width="185.58" height="108.39"/><rect class="cls-4" x="198.23" y="0.5" width="185.58" height="108.39"/><path class="cls-1" d="M265.49,10.65h-2.36v3.54h2.69v.94h-3.77V5.69h3.6v.94h-2.52V9.74h2.36Z"/><path class="cls-1" d="M266.85,10.1c0-.57,0-1.24-.06-1.75h1l.06,1.07h0a1.66,1.66,0,0,1,1.43-1.18l.23,0v1.1h-.23a1.47,1.47,0,0,0-1.3,1.41,4,4,0,0,0,0,.62v3.75h-1.08Z"/><path class="cls-1" d="M274.3,11.74c0,2.62-1.22,3.51-2.26,3.51-1.21,0-2.2-1.11-2.2-3.49s1.11-3.52,2.27-3.52S274.3,9.38,274.3,11.74Zm-3.38,0c0,1.12.2,2.65,1.18,2.65s1.11-1.6,1.11-2.65-.19-2.63-1.14-2.63S270.92,10.71,270.92,11.74Z"/><path class="cls-1" d="M279.58,5.44v8.07c0,.46,0,1.23.05,1.62h-.92l-.07-.85h0a1.57,1.57,0,0,1-1.42,1c-1.15,0-2-1.25-2-3.48,0-2.41,1-3.53,2-3.53a1.33,1.33,0,0,1,1.24.81h0V5.44Zm-1.07,5.49c0-.14,0-.29,0-.45-.07-.7-.49-1.31-1-1.31-.9,0-1.2,1.24-1.2,2.6s.36,2.58,1.14,2.58c.34,0,.8-.18,1-1.16a2,2,0,0,0,0-.45Z"/><path class="cls-1" d="M282.25,6.6a.63.63,0,0,1-.66.7.64.64,0,0,1-.62-.7.65.65,0,0,1,.63-.7A.63.63,0,0,1,282.25,6.6Zm-1.16,8.53V8.35h1.08v6.78Z"/><path class="cls-1" d="M283.66,10.1c0-.79,0-1.2-.05-1.75h.93l.06.82h0a1.71,1.71,0,0,1,1.55-.93c.94,0,1.64.7,1.64,2.34v4.55h-1.08V10.76c0-.8-.15-1.61-.93-1.61-.45,0-.89.38-1,1.11a3.62,3.62,0,0,0,0,.6v4.27h-1.08Z"/><path class="cls-1" d="M293.48,8.35c0,.48-.06,1.08-.06,2.12v3.79c0,1.78-.22,2.46-.67,3a2.37,2.37,0,0,1-1.81.72,3.31,3.31,0,0,1-1.48-.33l.25-.84a2.78,2.78,0,0,0,1.26.29c.86,0,1.39-.53,1.39-2.07v-.69h0a1.37,1.37,0,0,1-1.3.83c-1.21,0-2-1.36-2-3.35,0-2.49,1.13-3.53,2.13-3.53a1.35,1.35,0,0,1,1.26.88h0l.05-.77Zm-1.12,2.34a1.88,1.88,0,0,0-.06-.49c-.12-.46-.36-1-1-1-.78,0-1.2,1.05-1.2,2.55,0,1.73.54,2.52,1.2,2.52.32,0,.74-.16,1-1a2.68,2.68,0,0,0,.07-.62Z"/><path class="cls-1" d="M301.85,14.9a5,5,0,0,1-1.68.32,2.83,2.83,0,0,1-2.23-.93,5.43,5.43,0,0,1-1.13-3.75c0-3.67,1.89-4.93,3.56-4.93a3,3,0,0,1,1.34.26l-.24.93a2.3,2.3,0,0,0-1.09-.23c-1.18,0-2.45.94-2.45,3.87s1.11,3.85,2.24,3.85a1.61,1.61,0,0,0,.66-.11V11.1h-1.22v-.9h2.24Z"/><path class="cls-1" d="M307.42,11.74c0,2.62-1.22,3.51-2.25,3.51-1.22,0-2.2-1.11-2.2-3.49s1.1-3.52,2.27-3.52S307.42,9.38,307.42,11.74Zm-3.37,0c0,1.12.19,2.65,1.17,2.65s1.11-1.6,1.11-2.65-.18-2.63-1.13-2.63S304.05,10.71,304.05,11.74Z"/><path class="cls-1" d="M311.3,15.13l-.07-.71h0a1.53,1.53,0,0,1-1.35.83,1.73,1.73,0,0,1-1.61-1.94c0-1.69,1.36-2.45,2.89-2.46v-.21c0-.91-.23-1.54-1.08-1.54a2,2,0,0,0-1.12.35l-.24-.76a2.91,2.91,0,0,1,1.58-.45c1.36,0,1.95.9,1.95,2.43v2.92a10.7,10.7,0,0,0,.07,1.54Zm-.15-3.5c-.56,0-1.87.1-1.87,1.57,0,.88.45,1.2.83,1.2s.88-.35,1-1a1.63,1.63,0,0,0,0-.38Z"/><path class="cls-1" d="M313.72,5.44h1.08v9.69h-1.08Z"/><path class="cls-1" d="M316.21,14a2.1,2.1,0,0,0,1.09.35.92.92,0,0,0,1-1c0-.52-.18-.87-.87-1.33-.88-.57-1.36-1.15-1.36-1.93a1.82,1.82,0,0,1,1.86-1.88,2.3,2.3,0,0,1,1.22.35l-.29.81a1.66,1.66,0,0,0-.9-.29.83.83,0,0,0-.88.85c0,.47.17.72.84,1.18a2.48,2.48,0,0,1,1.4,2.06,1.89,1.89,0,0,1-2,2,2.36,2.36,0,0,1-1.34-.39Z"/><polyline class="cls-8" points="227.81 29.31 241.24 35.44 257.72 40.97 268.78 45.21 295.98 53.21 309.63 55.8 324.7 57.8 351.04 59.92"/><polyline class="cls-9" points="227.94 48.15 241.59 42.03 255.47 51.6 269.02 48.38 282.91 59.69 296.04 56.36 310.26 63.92 323.87 60.97 337.77 68.63 351.07 63.57"/><polyline class="cls-10" points="227.81 70.52 241.24 76.75 255.13 70.75 268.9 76.87 283.14 70.52 296.33 76.75 310.1 70.04 323.64 76.99 337.65 70.75 350.01 76.28"/><path class="cls-7" d="M354.35,86.22,351.86,84h0a.59.59,0,0,0-.4-.16.58.58,0,0,0-.57.57v1.39H228.63V27.05H230a.57.57,0,0,0,.39-1l-2.25-2.5a.57.57,0,0,0-.42-.19.56.56,0,0,0-.44.21l-2.25,2.5h0a.55.55,0,0,0-.16.39.57.57,0,0,0,.57.57h1.39v60.5h124v1.39a.57.57,0,0,0,.57.57.58.58,0,0,0,.42-.18l2.49-2.24a.57.57,0,0,0,.19-.43A.56.56,0,0,0,354.35,86.22Z"/><rect class="cls-3" x="198.23" y="247.34" width="185.58" height="108.39"/><rect class="cls-4" x="198.23" y="247.34" width="185.58" height="108.39"/><path class="cls-1" d="M249.21,262.62a2.75,2.75,0,0,0,1.36.38,1.48,1.48,0,0,0,1.57-1.6,2.42,2.42,0,0,0-1.25-2,3.51,3.51,0,0,1-1.78-2.62,2.38,2.38,0,0,1,2.49-2.48,2.48,2.48,0,0,1,1.34.35l-.27.92a2,2,0,0,0-1.12-.32,1.3,1.3,0,0,0-1.36,1.35c0,.93.49,1.3,1.39,1.94a3.25,3.25,0,0,1,1.64,2.72,2.53,2.53,0,0,1-2.65,2.65,3.15,3.15,0,0,1-1.6-.41Z"/><path class="cls-1" d="M254.39,254.17h1.08v3.64h0a1.87,1.87,0,0,1,.56-.59A1.63,1.63,0,0,1,257,257c.85,0,1.58.69,1.58,2.4v4.49h-1.08v-4.37c0-.82-.18-1.61-.91-1.61-.5,0-.88.37-1.05,1.08a3,3,0,0,0,0,.52v4.38h-1.08Z"/><path class="cls-1" d="M261.22,255.33a.64.64,0,1,1-1.27,0,.65.65,0,0,1,.63-.7A.63.63,0,0,1,261.22,255.33Zm-1.16,8.53v-6.78h1.08v6.78Z"/><path class="cls-1" d="M262.86,263.86v-5.95H262v-.83h.86v-.4a3,3,0,0,1,.6-2.05,1.84,1.84,0,0,1,1.36-.57,1.88,1.88,0,0,1,.84.17l-.18.84a1.37,1.37,0,0,0-.59-.11c-.77,0-.95.82-.95,1.7v.42h1.23v.83h-1.23v5.95Z"/><path class="cls-1" d="M267.21,255.29v1.79h1.31v.83h-1.31v4c0,.88.33,1.12.72,1.12a1.8,1.8,0,0,0,.43,0l0,.83a2.29,2.29,0,0,1-.79.11,1.37,1.37,0,0,1-1.07-.41,2.52,2.52,0,0,1-.41-1.71v-3.92h-.82v-.83h.82V255.6Z"/><path class="cls-1" d="M270.63,255.33a.64.64,0,1,1-1.27,0,.65.65,0,0,1,.63-.7A.63.63,0,0,1,270.63,255.33Zm-1.16,8.53v-6.78h1.08v6.78Z"/><path class="cls-1" d="M272,258.84c0-.8,0-1.21-.05-1.76h.93l.06.82h0a1.71,1.71,0,0,1,1.55-.93c.94,0,1.64.7,1.64,2.34v4.55h-1.08v-4.37c0-.79-.15-1.61-.93-1.61-.45,0-.89.38-1,1.11a3.62,3.62,0,0,0,0,.6v4.27H272Z"/><path class="cls-1" d="M281.86,257.08c0,.48-.06,1.08-.06,2.12V263c0,1.77-.22,2.45-.67,2.94a2.37,2.37,0,0,1-1.81.73,3.17,3.17,0,0,1-1.48-.34l.25-.84a2.78,2.78,0,0,0,1.26.29c.86,0,1.39-.53,1.39-2.07V263h0a1.37,1.37,0,0,1-1.3.83c-1.21,0-2-1.36-2-3.35,0-2.49,1.13-3.53,2.13-3.53a1.35,1.35,0,0,1,1.26.88h0l.05-.77Zm-1.12,2.34a1.93,1.93,0,0,0-.06-.49c-.12-.46-.36-1-1-1-.78,0-1.2,1.05-1.2,2.55,0,1.73.54,2.52,1.2,2.52.32,0,.74-.16,1-1a2.68,2.68,0,0,0,.07-.62Z"/><path class="cls-1" d="M286.81,255.29v1.79h1.31v.83h-1.31v4c0,.88.33,1.12.72,1.12a1.8,1.8,0,0,0,.43,0l0,.83a2.29,2.29,0,0,1-.79.11,1.37,1.37,0,0,1-1.07-.41,2.52,2.52,0,0,1-.41-1.71v-3.92h-.82v-.83h.82V255.6Z"/><path class="cls-1" d="M289.07,254.17h1.07v3.64h0a1.87,1.87,0,0,1,.56-.59,1.68,1.68,0,0,1,.91-.25c.86,0,1.59.69,1.59,2.4v4.49h-1.08v-4.37c0-.82-.18-1.61-.91-1.61-.51,0-.89.37-1.05,1.08a3,3,0,0,0-.05.52v4.38h-1.07Z"/><path class="cls-1" d="M295.49,260.57c0,2.08.83,2.52,1.61,2.52a2.29,2.29,0,0,0,1.12-.26l.17.8a3.26,3.26,0,0,1-1.48.32c-1.63,0-2.47-1.33-2.47-3.41s.93-3.57,2.28-3.57,1.94,1.46,1.94,3a5.26,5.26,0,0,1,0,.6Zm2.13-.8c0-1.35-.49-2-1-2-.7,0-1.06,1-1.1,2Z"/><path class="cls-1" d="M302.1,254.56a6.67,6.67,0,0,1,1.58-.18,2.92,2.92,0,0,1,2.09.66,2.12,2.12,0,0,1,.62,1.61,2.18,2.18,0,0,1-1.46,2.1v0a2.33,2.33,0,0,1,1.75,2.41,2.74,2.74,0,0,1-.67,1.88,3.23,3.23,0,0,1-2.5.85,7.17,7.17,0,0,1-1.41-.1Zm1.08,3.87h.49a1.62,1.62,0,0,0,1.64-1.67,1.39,1.39,0,0,0-1.56-1.54,1.94,1.94,0,0,0-.57.07Zm0,4.58a2.33,2.33,0,0,0,.55.06,1.7,1.7,0,0,0,1.84-1.88,1.82,1.82,0,0,0-1.91-1.93h-.48Z"/><path class="cls-1" d="M311.94,262c0,.75.05,1.34.06,1.84h-.94l-.07-.71h0a1.76,1.76,0,0,1-1.45.83c-1.19,0-1.66-.93-1.66-2.61v-4.29h1.08v4.14c0,1.06.17,1.85.91,1.85a1.05,1.05,0,0,0,1-.9,2.9,2.9,0,0,0,.06-.62v-4.47h1.07Z"/><path class="cls-1" d="M313.44,258.84c0-.58,0-1.25-.06-1.76h1l.06,1.07h0a1.66,1.66,0,0,1,1.43-1.18l.23,0v1.1h-.23a1.47,1.47,0,0,0-1.3,1.41,4,4,0,0,0,0,.62v3.75h-1.08Z"/><path class="cls-1" d="M320.81,254.17v8.07c0,.46,0,1.23.05,1.62h-.92l-.07-.85h0a1.57,1.57,0,0,1-1.42,1c-1.15,0-2-1.25-2-3.48,0-2.41,1-3.53,2-3.53a1.3,1.3,0,0,1,1.23.82h0v-3.62Zm-1.07,5.49c0-.14,0-.29,0-.45-.07-.7-.49-1.31-1-1.31-.9,0-1.21,1.24-1.21,2.6s.37,2.58,1.15,2.58c.34,0,.8-.18,1-1.16a2,2,0,0,0,0-.45Z"/><path class="cls-1" d="M323.07,260.57c0,2.08.83,2.52,1.61,2.52a2.29,2.29,0,0,0,1.12-.26l.17.8a3.26,3.26,0,0,1-1.48.32c-1.63,0-2.47-1.33-2.47-3.41S323,257,324.3,257s1.94,1.46,1.94,3a5.26,5.26,0,0,1,0,.6Zm2.13-.8c0-1.35-.49-2-1-2-.7,0-1.06,1-1.1,2Z"/><path class="cls-1" d="M327.4,258.84c0-.8,0-1.21-.06-1.76h.94l.06.82h0a1.73,1.73,0,0,1,1.56-.93c.94,0,1.64.7,1.64,2.34v4.55h-1.08v-4.37c0-.79-.16-1.61-.94-1.61-.45,0-.88.38-1,1.11a3.62,3.62,0,0,0,0,.6v4.27H327.4Z"/><polyline class="cls-11" points="228.22 305.01 242.16 296.07 256.21 303.39 269.55 293.83 283.71 300.96 297.08 291.6 310.5 296.21 324.47 287.3 338.17 291.6 352.01 282.23"/><line class="cls-9" x1="228.46" y1="309.91" x2="352.43" y2="330.73"/><line class="cls-10" x1="228.32" y1="330.73" x2="350.75" y2="310.33"/><path class="cls-7" d="M355.26,340.66l-2.5-2.26h0a.55.55,0,0,0-.39-.16.56.56,0,0,0-.57.57v1.39H229.54V281.49h1.39a.57.57,0,0,0,.39-1L229.07,278a.54.54,0,0,0-.42-.19.57.57,0,0,0-.44.2l-2.26,2.5h0a.59.59,0,0,0-.16.4.57.57,0,0,0,.57.57h1.39V342h124v1.39a.57.57,0,0,0,.57.57.56.56,0,0,0,.41-.18l2.5-2.25a.57.57,0,0,0,.19-.42A.55.55,0,0,0,355.26,340.66Z"/><path class="cls-12" d="M122.25,526.78l-2.51-4.87-.49-7a2.21,2.21,0,0,0,.48-1l-.78-7.65a3.15,3.15,0,0,1-.31,1.34l-.26-5.22s-.14-2.42-.27-5.32a9.36,9.36,0,0,0,1.1-1.69l.21-15.93-.62-2.24-.17-.66.42-1.75L118,471a6.3,6.3,0,0,0,.68-2.13,55.64,55.64,0,0,0,2.17-9.57c.43-4.45,1.29-9,1.34-11.95a21.55,21.55,0,0,0-1.62-7.65,3.48,3.48,0,0,0-1.34-1.73s-1.79-1.59-6.65-1.15l-.75-1.34a1.87,1.87,0,0,0-1.6-.95,10.69,10.69,0,0,0-.35-3.5,1.61,1.61,0,0,0,.25-.35,5.75,5.75,0,0,0,.39-2.61l.06-1.48a6.2,6.2,0,0,0,.87-.51,3.68,3.68,0,0,0,1.77-2.81c.25-1.47-.64-3.06-2.55-4.29l-.11-2.95a2,2,0,0,0,0-1.14h0a4,4,0,0,0-2.13-2.13c-2.49-1.27-6-1.23-7.92.09a2.38,2.38,0,0,0-1.14,1.75c-.08.35-.43,1.93-.75,3.4a7.14,7.14,0,0,0-1.09.61,3.68,3.68,0,0,0-1.77,2.81c-.25,1.46.62,3,2.5,4.26.06,4.58,2.8,10,3.37,10.09a11.94,11.94,0,0,0,2.37-.89,13.2,13.2,0,0,0-.08,2.8c-1.1.84-1.88,1.53-1.88,1.53l-1.76,2.52a2.18,2.18,0,0,0-.27.15A35,35,0,0,0,94.33,447a8.22,8.22,0,0,0-.86,1.92l-.89,9.67-1.64,2.38a3.83,3.83,0,0,0-.38,1.69c.14.52-.38.66-.79,1.48a2.62,2.62,0,0,0,0,1.75l0,0c-.24-.58-.66-1.47-.89-1.55a.86.86,0,0,0-.68.14l-.49-.44c-1.07-1.22-3.86-4.36-4.39-4.44l0,0c-.34-.46-.45-1.25-.82-1.14s-.25.38-.27.6l-1-.9-.85-1.68-.06-.11.3-2,.1-2.95.07-.84s-.08-.31-.27-.28a2.29,2.29,0,0,0-.45.11,1,1,0,0,0-.57.79,1.93,1.93,0,0,1-.09.34,11.13,11.13,0,0,0-1.5-2,.68.68,0,0,0-.18-.13l0-.11,1.12-.61-.54-.58-1.15.35-5.18-6.68a1,1,0,0,0-1.57,1.22l5.6,7.22a2.79,2.79,0,0,1,.24,2.8c-.12-.28-.24-.59-.39-.91-.53-1.21,1-1.73-.52-2.35-.56-.24-2.36,4.19-1.05,6.85.37.76,4.21,3.34,4.21,3.34l1.46,2c0,.19.1.4.08.53s-.76.17-.52.74.73.23,1.14.62a7.6,7.6,0,0,0,0,2.48s7.28,6.46,8.76,7.24a2.39,2.39,0,0,0,2.74-.58,17.84,17.84,0,0,0,4-4.47c1.3-2.35,6.27-13.3,6.27-13.3l-5.1,11.34s1.22,1,1.18,4S94.22,482,94.5,482.67c.11,1.46-1.89,14-.92,15.32a16,16,0,0,0,1.82,2l.25,7.72.48,5.61a26.76,26.76,0,0,1,.81,4.72,10.74,10.74,0,0,1-1-.47L97,524.7a6.38,6.38,0,0,0,1,.64,12.93,12.93,0,0,1,.43,4.49c-.14.91-2.95.82-3.44.7-2.55-.65-4.69-1-5.34-.72a4,4,0,0,0-1.87,4.32,3.42,3.42,0,0,0,1.54,1.49c2.64,1.14,12.17,4.9,13.64,4.67a11.77,11.77,0,0,0,5.14-2.57c.21-.24.14-.71,0-1.24l-2.35-5.37.2-6.73a2.58,2.58,0,0,0,.32-.56,62.37,62.37,0,0,0,10.74,7.2,2.77,2.77,0,0,0,2.18.07c1.27-.93,3.6-2.55,3.6-3.07A4,4,0,0,0,122.25,526.78ZM109.44,519a13.14,13.14,0,0,0-3.16,1l0-4.61a3.34,3.34,0,0,1-.27,1c0-3.09-.09-8.44-.09-8.44l1-4.65c.49-.09,1-.19,1.42-.3l.89,3.69.68,2a5.86,5.86,0,0,1-.62-.35l1.7,7.1a5,5,0,0,0,1.48.91,16.17,16.17,0,0,1,1.53,4.72A33.44,33.44,0,0,0,109.44,519ZM119,506.28a3.12,3.12,0,0,0-.08-.73ZM106.3,514.6v.79A3.35,3.35,0,0,0,106.3,514.6Z"/><path class="cls-13" d="M77.32,450.45a1,1,0,0,1-1.39-.18l-5.6-7.22a1,1,0,0,1,.18-1.39h0a1,1,0,0,1,1.39.17l5.6,7.22a1,1,0,0,1-.18,1.4Z"/><polygon class="cls-14" points="77.31 449.53 78.77 448.74 78.23 448.16 76.75 448.61 77.31 449.53"/><path class="cls-15" d="M77.86,449.59a12.15,12.15,0,0,1,1.61,2.14s-.13,5.71-1.81,5.23a3.27,3.27,0,0,1-2.12-3.21c1.85-1.4.39-3.48.39-3.48S77.06,448.81,77.86,449.59Z"/><path class="cls-16" d="M109.75,418.78c3.87,2,4.64,5.23,1.71,7.27s-8.43,2.11-12.3.14-4.64-5.22-1.71-7.27S105.88,416.82,109.75,418.78Z"/><path class="cls-17" d="M122.25,526.78l-2.51-4.87-.56-7.86-7.38,1s2,3.9,2.17,6a33.44,33.44,0,0,0-4.53-2.07c-.7.21-3.53.49-4.85,2.47-1,1.44,8.71,7.78,12.29,9.56a2.77,2.77,0,0,0,2.18.07c1.27-.93,3.6-2.55,3.6-3.07A4,4,0,0,0,122.25,526.78Z"/><path class="cls-18" d="M113.71,442.89l1.81,11.46a8.2,8.2,0,0,1-.4,3c-.51,1.33-.09,13.8-.09,13.8s-1.83,2.87-1.94,4,1.46,4.23,1.81,4.59,3.15-.83,3.15-.83l1-4.15-1.1-4.08L120.38,460l.64-5.52-.33-9.16Z"/><path class="cls-19" d="M97,518.42a26.41,26.41,0,0,0-.84-5.14l-.48-5.61-.74-22.73,1.35-6.84,20-7.14s2.69,5.52,2.9,8.56-1.08,5.75-1.28,8.28.47,14.6.47,14.6l.33,6.57.57,3.81-7.27,2-2.81-8.12-1.73-7.16,1.63-7.93.19-.2L105.94,508s.19,7.67,0,9.95C105.87,520,97.29,523.69,97,518.42Z"/><path class="cls-20" d="M112.1,438c-2.44-1.14-2.46-5.84-2.37-7a33.54,33.54,0,0,0,.45-5.8c-.09-1.06-.39-4.67-5.09-5.09s-6.41,2.62-6.83,4.34c-.49,4.77,2.71,11.19,3.33,11.27a11.94,11.94,0,0,0,2.37-.89,24,24,0,0,0-.1,3.21c-.2,1.21-.83.51-2.09,2C108.36,443.1,112.53,440.85,112.1,438Z"/><path class="cls-20" d="M96.05,458.68a12.36,12.36,0,0,1-2.41-1.38,63.3,63.3,0,0,0-3.15,6.19c-.31,1.18-.58,2.45-.58,2.45l-8.73-7.82-.85-1.68-.06-.11.3-2,.1-2.95.07-.84s-.08-.31-.27-.28a2.29,2.29,0,0,0-.45.11,1,1,0,0,0-.57.79,7.36,7.36,0,0,1-1,1.95,6.06,6.06,0,0,1-1.42,1c-.47.24-.77-.85-1.29-2s1-1.73-.52-2.35c-.56-.24-2.36,4.19-1.05,6.85.37.76,4.21,3.34,4.21,3.34s7.16,9.76,7.87,10.64a4,4,0,0,0,.54.55s2.86,4,5.52,1.19l3.31-3.48s4-8.95,4-8.95A30.9,30.9,0,0,1,96.05,458.68Z"/><path class="cls-21" d="M111.84,435.45s-.72-1.64-3.36-.64-6.48,4.36-6.48,4.36l-2.08,3,10.55-2.31,2.31-2.72Z"/><path class="cls-22" d="M83.47,459.75c-.51-.37-.59-1.46-1-1.33s-.15.69-.37.85-.51.05-.71.23-.09.52-.28.74-.57.17-.67.33,0,.54-.08.72-.4.34-.47.59.11.48.08.64-.76.17-.52.74,1.13,0,1.48,1.23C81.18,465.19,84,460.12,83.47,459.75Z"/><path class="cls-23" d="M117.25,471.85s1.06-.53,1.44-3a55.64,55.64,0,0,0,2.17-9.57c.43-4.45,1.29-9,1.34-11.95a21.55,21.55,0,0,0-1.62-7.65,3.48,3.48,0,0,0-1.34-1.73s-1.82-1.62-6.79-1.14c-.75,1.44-8.27,3.45-9.57,3.82-1,.47-2.42.87-2.91,1.22A35,35,0,0,0,94.33,447a8.22,8.22,0,0,0-.86,1.92l-.89,9.67-1.64,2.38a3.83,3.83,0,0,0-.38,1.69c.14.52-.38.66-.79,1.48a3.1,3.1,0,0,0,.17,2.11c-.16-.38-.76-1.84-1.06-2a.94.94,0,0,0-.75.19s-4.15-4.83-4.81-4.93a7.06,7.06,0,0,0-2.77,6.83s7.28,6.46,8.76,7.24a2.39,2.39,0,0,0,2.74-.58,17.84,17.84,0,0,0,4-4.47c1.3-2.35,6.27-13.3,6.27-13.3l-5.1,11.34s1.22,1,1.18,4S94.22,482,94.5,482.67c.11,1.46-1.89,14-.92,15.32s5,5.47,8.94,5.74c13-.32,16.69-8.34,16.69-8.34l.21-15.93-.62-2.24c-.17-.67-.41-1.53-.66-2.37l-.32-1.17,0,0c-.36-1.17-.66-2.09-.66-2.09l-.43-10.76,2-12.48-1.86,12.77Z"/><path class="cls-24" d="M109.26,508.33a9.34,9.34,0,0,0,6.59,1.11c3.85-.74,3-3.89,3-3.89l.86,8.38s-.21,1.92-3.53,2.67a5.79,5.79,0,0,1-5.24-1.17Z"/><path class="cls-25" d="M83.11,467.42c-.24.32-.81.31-1.29,0s-.68-.89-.44-1.22.81-.3,1.29,0S83.35,467.09,83.11,467.42Z"/><path class="cls-17" d="M108,536.48l-2.35-5.37.25-8.81-8.45,1.27s1.3,3.88.93,6.26c-.14.91-2.95.82-3.44.7-2.55-.65-4.69-1-5.34-.72a4,4,0,0,0-1.87,4.32,3.42,3.42,0,0,0,1.54,1.49c2.64,1.14,12.17,4.9,13.64,4.67a11.77,11.77,0,0,0,5.14-2.57C108.23,537.48,108.16,537,108,536.48Z"/><path class="cls-26" d="M95.89,517.53A11.28,11.28,0,0,0,103,518.6c3.85-.75,3.35-4,3.35-4l0,8.82s-.22,1.92-3.53,2.67A7,7,0,0,1,97,524.7Z"/><path class="cls-27" d="M110.53,428l.12-2.85a11.7,11.7,0,0,0-.51-2.57,8.31,8.31,0,0,0-2-2.63,13.68,13.68,0,0,0-2.52-1.18,3.91,3.91,0,0,0-3,.28,46,46,0,0,1-4.62,2s-.35,2.12.17,2.22,3.8-1.52,3.57-.77-2.2,3.14-1.5,3.41,1.21,4.21,1.65,4.44.35-.72.35-.72.6-2.3,1.65-2.16.14,4.25,2.34,5a4.28,4.28,0,0,0,1.41-.25,6.85,6.85,0,0,1,1.22,4c0,1.06.56.14.92-.37.77-1.46.26-3.91,0-4.85a1.61,1.61,0,0,0,.25-.35A5.75,5.75,0,0,0,110.53,428Z"/><path class="cls-28" d="M109.79,418.43c3.87,2,4.64,5.22,1.71,7.27s-8.43,2.11-12.3.14-4.64-5.22-1.71-7.27S105.93,416.46,109.79,418.43Z"/><path class="cls-29" d="M110.79,421.07h0l0-.06,0-.06-.22-6.1-11.18-.37s-1.34,6-1.35,6.2c0,1.16.83,2.38,2.55,3.26,2.84,1.44,6.87,1.4,9-.1A2.53,2.53,0,0,0,110.79,421.07Z"/><path class="cls-30" d="M108.39,412.72c2.5,1.27,3,3.36,1.1,4.68s-5.43,1.36-7.92.09-3-3.36-1.1-4.68S105.9,411.45,108.39,412.72Z"/><path class="cls-31" d="M104.78,479.52l-.11-4s-2.45-.12-3.53-.22a33.25,33.25,0,0,1-3.26-.66l-1.26,3.55s0,.38.13.43a26.22,26.22,0,0,0,3.77,1c1.23.16,3.31.27,4,.31C104.7,479.9,104.78,479.52,104.78,479.52Z"/><path class="cls-32" d="M164.67,449.07a1,1,0,0,0-1.48-1.34l-5.65,6.33v0l-1.51-.8-.64.53,1.07,1.07a3.58,3.58,0,0,0-.53,1.82c.05.34.19.89.32,1.37a1.89,1.89,0,0,0-.41,1.8c.09.23-.17.61-.84,1.43l-.18.17a2.7,2.7,0,0,0-1.83-.29.63.63,0,0,0-.36.3h-.1a30.6,30.6,0,0,0-4.48,3c-.16.16-.19-.24-.5-.62-.1-.13-.43,0-.55-.22-1.39-2.08-3.06-8.28-5.26-10.82-1.23-1.42-3.27-3.5-4.9-3.62a5.46,5.46,0,0,0-.81,0l.38-2.69.15,0,.19-1.13-.19.12.17-1.24a6.2,6.2,0,0,0,.73-.49,3.52,3.52,0,0,0,1.49-2.79c.13-1.39-.78-2.81-2.61-3.85l-.26-4.26a1.74,1.74,0,0,0-.07-1.23v0h0a3.94,3.94,0,0,0-2.24-1.87c-2.53-1-6-.77-7.78.6a2.23,2.23,0,0,0-1,1.77c0,.53-.27,3-.43,4.91a5.48,5.48,0,0,0-.83.56,3.49,3.49,0,0,0-1.49,2.77,3.75,3.75,0,0,0,1.73,3.3c0,.76.08,1.43.08,1.43l1.63,3.28,0-.07.41,1c0,.47.06,1,.08,1.58l-.07,0a2.17,2.17,0,0,1,0-.27s-.18.23-.4.58c.19-2.63-.37-3-.37-3s-3.9,1.72-3.34,7.76c-2,1.79-5.37,4.77-5.67,5.05a5.19,5.19,0,0,0-.7,2.06l-1.44,21.32a40,40,0,0,0-.65,4.26c-.13,1.79,1.37,9.82,1.37,9.82a4.42,4.42,0,0,0,.44.17,2.5,2.5,0,0,0,.06,1c.14.22.25,0,.77.08.2,1.32.35,2.21.35,2.21s-.46,3.58-.44,5.14c-1.43,3-2.71,5.86-2.87,7a11.76,11.76,0,0,0,7.12,8.13l-1.63,10.58a.24.24,0,0,1,0-.08v.16l0,.14,0,0,.41,7.79a1.15,1.15,0,0,0,.29.82l-.09,5-1.19,4.56a4.17,4.17,0,0,0-.61,1.55c0,.86,9.78,7.68,10.59,7.8s7.06-.37,6.69-2.42c-.29-1.61-6.34-6.78-8.9-8.92a5.64,5.64,0,0,1-.27-2.25c.2-1.2.73-3.36,1.1-4.81a4.53,4.53,0,0,0,.57-.5l1.74-7.2a6.87,6.87,0,0,1-.63.3c.57-4,1.09-8.75,1.09-8.75l1.54-5.83.5-5.53.34-2-.1,1.84,1.19,6.36.56,5.35a2.86,2.86,0,0,1-.53-.82l1,5.63.27,1.07.08.42a1.14,1.14,0,0,0,.26.92,19.87,19.87,0,0,1,.67,3.9,42.52,42.52,0,0,1-1.68,5.5c-.38.64-.63,1.25-.44,1.55.5.81,12.82,4.65,15.05,5.2s3.41-4.15,3.16-4.83-9.67-4.64-9.67-4.64l-.14-.12a11.79,11.79,0,0,1-.93-3.19,16.29,16.29,0,0,1,.6-4,2.41,2.41,0,0,0,.24-.43l.23-1.35a1.48,1.48,0,0,0,.06-.35l1-5.69s-.14.13-.39.32c-.15-4.7-.25-8.89-.25-8.89l-.09-2c1-3.08,1.75-6.61,1.75-6.61s-1.42-10.86-2.33-16.74-2.14-11.53-2.14-11.53,1.72-14.71,1.7-16.18a4.33,4.33,0,0,1,.23-.94h0l.14-.39.05.05a9.43,9.43,0,0,0-.35,1.18,6.41,6.41,0,0,0-.05,1.83c.44-.12,3.95,9.17,6.56,7.59s6.68-4.55,6.68-4.55a5.81,5.81,0,0,0,.88-1.12,3,3,0,0,0,1.44-3.2l.56-.49s2.72-.53,3.34-1.19c1.17-1.24.61-.8,1-1.32a3.21,3.21,0,0,0-.29-3.71,2.26,2.26,0,0,0-2.29-.83l-.36-.6a1,1,0,0,0,.46-.27Zm-45.81,84.14c.25.3.76.94,1.44,1.73A3.33,3.33,0,0,1,118.86,533.21Zm2.2-44.4-.09,1.81-.09,0,.26-3.41Zm1.64-10.37-.93,4.06,0,.47-.1.45-.2,1.39.27-2.07,1.29-5.58Zm18.92-16.9s0-.08,0-.11a.71.71,0,0,1,.12-.2S141.7,461.34,141.62,461.54ZM133,525.45l-.26-1.43A3.48,3.48,0,0,0,133,525.45Zm-14.31,7.26-.06-1.13A3.66,3.66,0,0,0,118.72,532.71Z"/><path class="cls-33" d="M157.53,454l-1.51-.8-.64.53,1.07,1.07a3.58,3.58,0,0,0-.53,1.82,22.27,22.27,0,0,0,.64,2.46l2.35-2.78Z"/><path class="cls-34" d="M157.58,455.5a1,1,0,0,1-.07-1.41l5.68-6.36a1,1,0,0,1,1.4-.07h0a1,1,0,0,1,.08,1.41L159,455.43a1,1,0,0,1-1.41.07Z"/><path class="cls-35" d="M118.7,533l1.94-12.54-2.56-20.7,1.33-8.62,19.87-6.81s1.49,7.43,1.68,8.81.93,19.14.93,19.14l.19,4.22s.11,4.65.28,9.66c.18,5.44-8.59,2.16-8.59,2.16l-.77-7.41-1.19-6.36.36-6.36-1.1,12-1.54,5.83s-1.35,12.07-2.06,14.11C126.51,543,118.7,533,118.7,533Z"/><path class="cls-36" d="M116.56,501.91s-1.81-11.55-1.82-12.72a29.11,29.11,0,0,1,.77-4.42l.54-9.75,0-1.86a27.24,27.24,0,0,0,3.22.63,30.76,30.76,0,0,0,3.8.16l-2.55,11.83-.2,3.19-.69,12.1,2.77,3.2s2.38,3.07,1.87,3.25c-.67.69-3-2-3-1.66a18.61,18.61,0,0,0,0,1.91c.17,1.05,1,2.5.95,2.66-.3.89-2.63.9-3.35.79s-2.49-2.66-2.69-3.62A38.85,38.85,0,0,1,116.56,501.91Z"/><path class="cls-37" d="M114.5,488.25a38.92,38.92,0,0,0,.6-5.55c0-1.88.64-14.9.64-14.9a19.37,19.37,0,0,1,1.33-5.06c.92-1.73,4.15-4.8,4.68-5.5s2.36-3,2.36-3,.94-1.73,1.34-2.45.75-1.46,3-1.9a21.65,21.65,0,0,1,4.63-.29,1.37,1.37,0,0,0,1.41,1.14c3.72-.24,3,.1,4.54.35,1.24.19,3,11.19,2.47,11.2-.57-.76-.67.2-.28.19-1.4.08-.95,3.25-1.07,3.52-.25,1.48-1.24,14.51-1.24,14.51l.38,1.36.37,1.57s-1.27,4.13-3.72,6a14.13,14.13,0,0,1-8.65,2.93,21.52,21.52,0,0,1-6.4-1l.13-2.53.13-2.41.43-3,2.17-10-2.43,10.06-6.86,11.67.36-2.78Z"/><path class="cls-20" d="M126,447.46s.72,5.81-.38,8c0,.09,4.43,4,4.43,4s.6-2.83,1.93-2.63c.47.07.54.22.81-.06s1.45-.33,1.51-.81a19.12,19.12,0,0,0-.31-2.59Z"/><path class="cls-38" d="M120.84,492.74a23.83,23.83,0,0,0,10.13.57A12.45,12.45,0,0,0,139.7,487l-.22-1.6a12.93,12.93,0,0,1-8.62,6.84,20.09,20.09,0,0,1-10-.56Z"/><path class="cls-39" d="M125,452.61a17.58,17.58,0,0,0,.76,3.26c.37,1.09,1.39,1.71,1.84,2.92.38,1,.78,2,1.13,2.87,1.44,3.3,6.46,14.36,6.46,14.36l-.51,20.74-4.28,25s-.3,1.16-2.88,1.51-11.83-.28-14.23-9.22c.37-2.74,7-14.85,7.08-16,.44-4,.72-8.29.72-8.29l.33-4,.39-3.3,2.66-11.67-2.74,11.91-.48,3.62-.91,11.76A7.42,7.42,0,0,1,118,499a6.15,6.15,0,0,1-3-.56s-1.5-8-1.37-9.82a40,40,0,0,1,.65-4.26L115.66,463a5.19,5.19,0,0,1,.7-2.06l7.19-6.39Z"/><path class="cls-40" d="M136.22,459.68a28.69,28.69,0,0,0-.41-5l-4.63-4.76a26.64,26.64,0,0,1,5.65-.78c1.63.12,3.67,2.2,4.9,3.62,2.2,2.54,3.87,8.74,5.26,10.82.12.18.45.09.55.22.31.38.34.78.5.62a30.6,30.6,0,0,1,4.48-3,2.94,2.94,0,0,1,2.47,1.37c2.1,2.69-.75,5.35-.75,5.35s-4.08,3-6.68,4.55-6.12-7.71-6.56-7.59a6.41,6.41,0,0,1,.05-1.83,16.18,16.18,0,0,1,.68-2.06,7.34,7.34,0,0,0-.76,2.18c0,1.47-1.7,16.18-1.7,16.18s1.23,5.66,2.14,11.53,2.33,16.74,2.33,16.74-2.23,10.27-4,11.07-2.67-2.33-2.83-3.08-2.31-19.09-2.31-19.09l.69-21.23S136.07,461.23,136.22,459.68Z"/><path class="cls-31" d="M136.22,459.68c-.15,1.55-.89,15.85-.89,15.85v1s5.08-17,4.66-18.81c-1.21-5.36-6.37-11.27-6.37-11.27l2.18,8.27A28.69,28.69,0,0,1,136.22,459.68Z"/><path class="cls-22" d="M134,454.62c.08,1.26-1.5,2-1.5,2l2.26,3.7s1.29-3.89,1-5a8.74,8.74,0,0,0-1-2.2l-1.1.27S133.92,453.36,134,454.62Z"/><path class="cls-20" d="M136.73,444.12l-1.12,7.93a2.5,2.5,0,0,1-1.17,2.35,3.81,3.81,0,0,1-3.1.06,32.43,32.43,0,0,1-4.28-3.28,33.66,33.66,0,0,1-2.78-7.25,8.56,8.56,0,0,1,.74-4.27,7.69,7.69,0,0,1,8.18-2.05,7.48,7.48,0,0,1,2.78,2.61C136.66,441.21,136.73,444.12,136.73,444.12Z"/><polygon class="cls-41" points="130.81 447.11 133.08 447.02 132.93 447.63 130.65 448.02 130.81 447.11"/><polygon class="cls-41" points="134.92 446.36 136.74 445.28 136.55 446.41 134.81 446.97 134.92 446.36"/><path class="cls-42" d="M136.1,440.49a8.53,8.53,0,0,1-2.66,1.44,10,10,0,0,1-3.06.2l-.92-.2s-1-.38-1.45.29-.5,4.82-.5,4.82-1.08-2.42-1.66-2,0,1.87,0,1.87l-.21,1.33L124,445s-.15-2.1-.1-3.06a16.61,16.61,0,0,1,.92-3.28l1.33-1.73s.83,0,1.12,0,.82-.72.82-.72,2.78.19,3.2.11a1.19,1.19,0,0,0,.68-.42,20,20,0,0,1,3.37,2.46A3.25,3.25,0,0,1,136.1,440.49Z"/><path class="cls-20" d="M119.72,498.94l-.12,2.13,2.77,3.2s2.38,3.07,1.87,3.25c-.67.69-3-2-3-1.66a18.61,18.61,0,0,0,0,1.91c.17,1.05,1,2.5.95,2.66-.3.89-2.63.9-3.35.79s-2.49-2.66-2.69-3.62a38.85,38.85,0,0,1,.39-5.69l-.39-2.47Z"/><path class="cls-37" d="M115.38,498.6a2.5,2.5,0,0,0,.06,1c.15.22.25-.07.83.09a4.88,4.88,0,0,0,.72.34c.16,0,.41-.17.6-.15.4,0,.69.22,1,.16s.43-.41.62-.48.48.1.63,0a1,1,0,0,0,.45-.5,2,2,0,0,0,0-.95A7.47,7.47,0,0,1,118,499,5.2,5.2,0,0,1,115.38,498.6Z"/><path class="cls-37" d="M156.52,463.59a2.88,2.88,0,0,1-1.85,3.61,1.92,1.92,0,0,1-1.1-.16,3.25,3.25,0,0,1-1-.3c-.27-.2-.34-.71-.54-1s-.59-.36-.7-.79.13-.73.14-1-.23-.78,0-1.16.48-.49.77-.76.36-.74.75-.84A3.19,3.19,0,0,1,156.52,463.59Z"/><path class="cls-20" d="M155.61,464.79l.45-.52,1.06-.92s2.72-.53,3.34-1.19c1.17-1.24.61-.8,1-1.32a3.21,3.21,0,0,0-.29-3.71,2.1,2.1,0,0,0-3.18-.32c-.39.5-2.67.92-2.17,3,.09.23-.17.61-.84,1.43a4.07,4.07,0,0,1-1.27.86C152.22,462.61,154.35,466.29,155.61,464.79Z"/><path d="M137.34,448.27a.3.3,0,0,1-.3.31.31.31,0,1,1,0-.61A.3.3,0,0,1,137.34,448.27Z"/><path class="cls-43" d="M135.35,436.89c3.8,1.61,4.74,4.65,2.1,6.78s-7.86,2.55-11.66.93-4.73-4.64-2.09-6.78S131.65,435.31,135.35,436.89Z"/><path class="cls-44" d="M135.37,436.55c3.79,1.62,4.73,4.65,2.09,6.78s-7.85,2.55-11.65.94-4.73-4.65-2.09-6.78S131.66,435,135.37,436.55Z"/><path class="cls-45" d="M136.48,439h0l0-.06s0,0,0-.06l-.44-7.35-11,.38s-.65,7.39-.64,7.55c0,1.1.94,2.21,2.63,2.92,2.78,1.19,6.6.88,8.53-.68A2.37,2.37,0,0,0,136.48,439Z"/><path class="cls-46" d="M133.75,429.65c2.54,1,3.17,3,1.4,4.36s-5.24,1.64-7.78.6-3.16-3-1.4-4.36S131.22,428.61,133.75,429.65Z"/><path class="cls-17" d="M142.72,525.08a9.32,9.32,0,0,1-6.3,2.25c-3.92-.07-3.65-3.31-3.65-3.31l1.58,8.55s-.42,1.71,3,1.87,4.15-2,4.15-2Z"/><path class="cls-17" d="M129.07,534.51a11.36,11.36,0,0,1-7.06,1.07c-3.85-.75-3.35-4-3.35-4l.49,9.26s-.24,1.48,3.07,2.23a5.24,5.24,0,0,0,5.11-1.36Z"/><path class="cls-17" d="M125.93,549.27a5.64,5.64,0,0,1-.27-2.25c.32-1.93,1.49-6.31,1.49-6.31l-7.7-.11-.1,6.1-1.19,4.56a4.17,4.17,0,0,0-.61,1.55c0,.86,9.78,7.68,10.59,7.8s7.06-.37,6.69-2.42C134.54,556.58,128.49,551.41,125.93,549.27Z"/><path class="cls-17" d="M151.37,544.81c-.25-.68-9.67-4.64-9.67-4.64l-.14-.12a11.79,11.79,0,0,1-.93-3.19c-.11-1.82,1.17-6.1,1.17-6.1l-7.8.32s1.39,5.14,1.28,6.31a42.52,42.52,0,0,1-1.68,5.5c-.38.64-.63,1.25-.44,1.55.5.81,12.82,4.65,15.05,5.2S151.62,545.49,151.37,544.81Z"/><path class="cls-22" d="M131.93,456.69l-2.39,5.09s-2.39-3-3.07-4.11-1.74-2.44-1.71-3.88a7,7,0,0,1,1.38-3.22,7.74,7.74,0,0,0,.22,2.67C126.73,454.84,131.93,456.69,131.93,456.69Z"/><path class="cls-47" d="M124.15,463c.87,1.88,11.08,13.26,11.08,13.26l-6.54-14.62c-.28-.64-3.58-6.24-3.4-7.2,1.06-5.69.08-6.3.08-6.3S118.62,451.12,124.15,463Z"/><path class="cls-22" d="M134.75,460.32s0,.59,0,1.05.28.19.41.61,0,.79,0,1.35a3.19,3.19,0,0,0,.84,1.35l-.79,11.13-5-11s.92-1.35.32-1.58-.79-.79-.37-1.12a1,1,0,0,0,.37-1,1.68,1.68,0,0,0-.37-.56l1.67-3.63.52-.09Z"/></g></svg>