<svg viewBox="0,0,932,932" width="932" height="932" style="width: 100%; height: auto; font: 10px sans-serif;" xmlns="http://www.w3.org/2000/svg" xmlns:xlink="http://www.w3.org/1999/xlink"><g transform="translate(466,466)"><g fill-opacity="0.6"><path fill="rgb(110, 64, 170)" d="M0.5824993932293686,-231.99926873690117A232,232,0,0,1,184.15423863305713,-141.1071096489438L92.29733541923645,-71.08763517313656A116.5,116.5,0,0,0,0.582499393229355,-116.49854374393222Z"/><path fill="rgb(223, 64, 161)" d="M184.86049050115372,-140.18059441903097A232,232,0,0,1,195.04879283370465,125.61834425797278L98.10147758143214,62.835898150179794A116.5,116.5,0,0,0,93.00358728733302,-70.16111994322375Z"/><path fill="rgb(255, 112, 78)" d="M194.4155372975949,126.59620396081189A232,232,0,0,1,87.26555692341363,214.9621421898434L44.08941411105611,107.83493665479573A116.5,116.5,0,0,0,97.46822204532236,63.81375785301892Z"/><path fill="rgb(210, 201, 52)" d="M86.18501769344222,215.39763862489545A232,232,0,0,1,-118.05526116811814,199.71718832020298L-59.03223320702725,100.43627553125987A116.5,116.5,0,0,0,43.0088748810847,108.27043308984776Z"/><path fill="rgb(107, 247, 92)" d="M-119.056658717135,199.12185217878937A232,232,0,0,1,-218.54069753684456,-77.87145510461087L-109.83833967528763,-38.830260588568514A116.5,116.5,0,0,0,-60.03363075604412,99.84093938984626Z"/><path fill="rgb(27, 217, 172)" d="M-218.1469082836961,-78.96788211839475A232,232,0,0,1,-133.9499518177647,-189.42389080582868L-67.50022946053055,-94.95245664423709A116.5,116.5,0,0,0,-109.44455042213916,-39.92668760235238Z"/><path fill="rgb(57, 136, 225)" d="M-132.99706510506257,-190.09413634681042A232,232,0,0,1,-0.582499393229397,-231.99926873690117L-0.5824993932294209,-116.49854374393222A116.5,116.5,0,0,0,-66.5473427478283,-95.62270218521888Z"/><path fill="rgb(110, 64, 170)" d="M0.5824993932294158,-348.4995131911333A348.5,348.5,0,0,1,52.622528492060155,-344.50416469921277L34.991499328103075,-230.3575372649468A233,233,0,0,0,0.5824993932293582,-232.99927187537924Z"/><path fill="rgb(110, 64, 170)" d="M53.77387398644523,-344.326328468344A348.5,348.5,0,0,1,104.59412891028278,-332.4339305749327L69.74532696260435,-222.3164172230189A233,233,0,0,0,36.14284482248806,-230.17970103407805Z"/><path fill="rgb(110, 64, 170)" d="M105.70483455004097,-332.08242644371967A348.5,348.5,0,0,1,154.1141315967212,-312.57172687591003L102.86438324650011,-209.06438878804096A233,233,0,0,0,70.85603260236245,-221.9649130918059Z"/><path fill="rgb(110, 64, 170)" d="M155.158163383047,-312.05479380326733A348.5,348.5,0,0,1,200.02182965961325,-285.3831068224268L133.57238557090625,-190.91206827463046A233,233,0,0,0,103.90841503282581,-208.5474557153983Z"/><path fill="rgb(110, 64, 170)" d="M200.97471637231544,-284.71286128144504A348.5,348.5,0,0,1,241.24118556592532,-251.50534862453082L161.14956438823458,-168.28493069042824A233,233,0,0,0,134.5252722836084,-190.2418227336487Z"/><path fill="rgb(110, 64, 170)" d="M242.08059234808752,-250.69750060261683A348.5,348.5,0,0,1,276.8060525491195,-211.73251822092445L184.9495340003398,-141.71333696253555A233,233,0,0,0,161.98897117039678,-167.4770826685143Z"/><path fill="rgb(223, 64, 161)" d="M277.51230441721606,-210.80600299101164A348.5,348.5,0,0,1,305.88282027049314,-166.99685704638028L204.41444329143303,-111.8201027268957A233,233,0,0,0,185.65578586843637,-140.78682173262277Z"/><path fill="rgb(223, 64, 161)" d="M306.43936327932727,-165.97339134017994A348.5,348.5,0,0,1,327.7899539389828,-118.34693108264155L219.08805128542312,-79.3059000576616A233,233,0,0,0,204.9709863002671,-110.79663702069536Z"/><path fill="rgb(223, 64, 161)" d="M328.1837431921313,-117.25050406885764A348.5,348.5,0,0,1,342.0139689090246,-66.92305336053306L228.62642104770435,-44.93283430763985A233,233,0,0,0,219.4818405385716,-78.20947304387771Z"/><path fill="rgb(223, 64, 161)" d="M342.23577432015395,-65.7793643590803A348.5,348.5,0,0,1,348.2214663254367,-13.93055598900345L232.80598127539614,-9.506581004751373A233,233,0,0,0,228.84822645883372,-43.78914530618709Z"/><path fill="rgb(223, 64, 161)" d="M348.2660889637036,-12.766412100730026A348.5,348.5,0,0,1,346.2669477100093,39.38846180791666L231.52876661919242,26.142498499484052A233,233,0,0,0,232.85060391366306,-8.342437116477944Z"/><path fill="rgb(223, 64, 161)" d="M346.1333416585932,40.54577403695223A348.5,348.5,0,0,1,336.1962253225148,91.78424744417136L224.82471390811767,61.178819996245814A233,233,0,0,0,231.39516056777637,27.299810728519624Z"/><path fill="rgb(223, 64, 161)" d="M335.88752219402164,92.90760159621281A348.5,348.5,0,0,1,318.2453483601676,142.0286881130554L212.8509604556278,94.7811618050589A233,233,0,0,0,224.51601077962454,62.30217414828729Z"/><path fill="rgb(223, 64, 161)" d="M317.7687838942847,143.09175371888978A348.5,348.5,0,0,1,292.83507016450744,188.94409671050326L195.8881608941665,126.16191351394895A233,233,0,0,0,212.3743959897449,95.84422741089327Z"/><path fill="rgb(255, 112, 78)" d="M292.20181462839776,189.92195641334226A348.5,348.5,0,0,1,260.56098611968747,231.43081582264713L174.33390886845223,154.58553689995128A233,233,0,0,0,195.25490535805685,127.13977321678796Z"/><path fill="rgb(255, 112, 78)" d="M259.7858824863948,232.3005494198519A348.5,348.5,0,0,1,222.17957340147305,268.49299276357186L148.69341777743065,179.38580632164428A233,233,0,0,0,173.55880523515955,155.45527049715605Z"/><path fill="rgb(255, 112, 78)" d="M221.28078944321445,269.2342144367758A348.5,348.5,0,0,1,178.5904597934022,299.2619215182266L119.56767900040296,199.98142448351695A233,233,0,0,0,147.7946338191721,180.12702799484822Z"/><path fill="rgb(255, 112, 78)" d="M177.58906224438525,299.8572576596402A348.5,348.5,0,0,1,130.81533717402857,323.0164044751368L87.63937516847116,215.88964755189158A233,233,0,0,0,118.56628145138609,200.57676062493056Z"/><path fill="rgb(210, 201, 52)" d="M129.73479794405694,323.451900910189A348.5,348.5,0,0,1,79.97401392523393,339.19965668715895L53.656878662280214,226.73760026123003A233,233,0,0,0,86.55883593849967,216.32514398694366Z"/><path fill="rgb(210, 201, 52)" d="M78.83965993803585,339.46510574852147A348.5,348.5,0,0,1,27.25816757286295,347.43235643873146L18.416710397707003,232.27101579432374A233,233,0,0,0,52.522524675082224,227.00304932259252Z"/><path fill="rgb(210, 201, 52)" d="M26.09658712446433,347.52153622539026A348.5,348.5,0,0,1,-26.096587124464442,347.52153622539026L-17.25512994930856,232.36019558098258A233,233,0,0,0,17.255129949308486,232.36019558098258Z"/><path fill="rgb(210, 201, 52)" d="M-27.258167572863062,347.4323564387314A348.5,348.5,0,0,1,-78.83965993803596,339.4651057485214L-52.522524675082295,227.00304932259252A233,233,0,0,0,-18.416710397707078,232.27101579432374Z"/><path fill="rgb(210, 201, 52)" d="M-79.97401392523405,339.1996566871589A348.5,348.5,0,0,1,-129.73479794405705,323.45190091018895L-86.55883593849974,216.3251439869436A233,233,0,0,0,-53.656878662280285,226.73760026123Z"/><path fill="rgb(210, 201, 52)" d="M-130.81533717402854,323.0164044751369A348.5,348.5,0,0,1,-177.58906224438525,299.8572576596402L-118.56628145138606,200.57676062493059A233,233,0,0,0,-87.63937516847113,215.88964755189158Z"/><path fill="rgb(107, 247, 92)" d="M-178.59045979340232,299.2619215182265A348.5,348.5,0,0,1,-221.28078944321453,269.2342144367758L-147.79463381917213,180.12702799484816A233,233,0,0,0,-119.56767900040302,199.98142448351695Z"/><path fill="rgb(107, 247, 92)" d="M-222.17957340147316,268.49299276357175A348.5,348.5,0,0,1,-259.7858824863949,232.30054941985182L-173.55880523515958,155.455270497156A233,233,0,0,0,-148.6934177774307,179.38580632164422Z"/><path fill="rgb(107, 247, 92)" d="M-260.56098611968764,231.43081582264702A348.5,348.5,0,0,1,-292.20181462839787,189.92195641334206L-195.25490535805693,127.1397732167878A233,233,0,0,0,-174.33390886845226,154.58553689995122Z"/><path fill="rgb(107, 247, 92)" d="M-292.83507016450767,188.9440967105029A348.5,348.5,0,0,1,-317.7687838942849,143.0917537188893L-212.37439598974507,95.8442274108929A233,233,0,0,0,-195.88816089416667,126.16191351394869Z"/><path fill="rgb(107, 247, 92)" d="M-318.24534836016784,142.02868811305484A348.5,348.5,0,0,1,-335.8875221940218,92.90760159621225L-224.51601077962465,62.302174148286866A233,233,0,0,0,-212.85096045562798,94.78116180505857Z"/><path fill="rgb(107, 247, 92)" d="M-336.1962253225149,91.78424744417067A348.5,348.5,0,0,1,-346.1333416585933,40.54577403695154L-231.3951605677764,27.299810728519127A233,233,0,0,0,-224.8247139081178,61.17881999624541Z"/><path fill="rgb(107, 247, 92)" d="M-346.26694771000933,39.388461807915895A348.5,348.5,0,0,1,-348.26608896370357,-12.766412100730795L-232.85060391366306,-8.342437116478498A233,233,0,0,0,-231.52876661919248,26.142498499483576Z"/><path fill="rgb(107, 247, 92)" d="M-348.22146632543667,-13.930555989004295A348.5,348.5,0,0,1,-342.23577432015384,-65.77936435908114L-228.84822645883358,-43.789145306187685A233,233,0,0,0,-232.80598127539614,-9.506581004751899Z"/><path fill="rgb(107, 247, 92)" d="M-342.0139689090244,-66.92305336053397A348.5,348.5,0,0,1,-328.18374319213103,-117.25050406885852L-219.48184053857136,-78.20947304387833A233,233,0,0,0,-228.6264210477042,-44.93283430764042Z"/><path fill="rgb(27, 217, 172)" d="M-327.7899539389827,-118.34693108264189A348.5,348.5,0,0,1,-306.43936327932704,-165.97339134018026L-204.97098630026696,-110.79663702069561A233,233,0,0,0,-219.08805128542303,-79.3059000576618Z"/><path fill="rgb(27, 217, 172)" d="M-305.8828202704929,-166.99685704638068A348.5,348.5,0,0,1,-277.5123044172158,-210.806002991012L-185.65578586843614,-140.78682173262303A233,233,0,0,0,-204.41444329143292,-111.82010272689594Z"/><path fill="rgb(27, 217, 172)" d="M-276.80605254911916,-211.73251822092487A348.5,348.5,0,0,1,-242.08059234808712,-250.69750060261723L-161.98897117039647,-167.47708266851458A233,233,0,0,0,-184.94953400033958,-141.71333696253583Z"/><path fill="rgb(27, 217, 172)" d="M-241.2411855659248,-251.50534862453128A348.5,348.5,0,0,1,-200.97471637231473,-284.71286128144556L-134.52527228360807,-190.24182273364895A233,233,0,0,0,-161.1495643882343,-168.28493069042852Z"/><path fill="rgb(57, 136, 225)" d="M-200.02182965961325,-285.3831068224268A348.5,348.5,0,0,1,-155.15816338304663,-312.0547938032675L-103.90841503282576,-208.54745571539834A233,233,0,0,0,-133.5723855709061,-190.91206827463057Z"/><path fill="rgb(57, 136, 225)" d="M-154.1141315967211,-312.5717268759101A348.5,348.5,0,0,1,-105.7048345500405,-332.0824264437198L-70.85603260236232,-221.96491309180595A233,233,0,0,0,-102.86438324649987,-209.0643887880411Z"/><path fill="rgb(57, 136, 225)" d="M-104.5941289102826,-332.43393057493273A348.5,348.5,0,0,1,-53.77387398644467,-344.32632846834406L-36.14284482248788,-230.17970103407808A233,233,0,0,0,-69.74532696260404,-222.316417223019Z"/><path fill="rgb(57, 136, 225)" d="M-52.622528492059885,-344.50416469921277A348.5,348.5,0,0,1,-0.5824993932286847,-348.4995131911333L-0.5824993932290763,-232.99927187537924A233,233,0,0,0,-34.99149932810269,-230.35753726494687Z"/><path fill="rgb(110, 64, 170)" d="M0.5824993932294137,-464.99963515518687A465,465,0,0,1,35.014584416173335,-463.6798236694828L26.17313648392443,-348.51860341536127A349.5,349.5,0,0,0,0.5824993932293688,-349.4995145840075Z"/><path fill="rgb(110, 64, 170)" d="M36.17616486457194,-463.59064388282394A465,465,0,0,1,70.40618872128451,-459.6389546043099L52.77517798890033,-345.49244649954346A349.5,349.5,0,0,0,27.334716932322955,-348.4294236287024Z"/><path fill="rgb(110, 64, 170)" d="M71.55753421566958,-459.4611183734411A465,465,0,0,1,105.38462151518912,-452.9007413861235L79.06751376431046,-340.4388025286345A349.5,349.5,0,0,0,53.92652348328532,-345.3146102686747Z"/><path fill="rgb(110, 64, 170)" d="M106.51897550238719,-452.635292324761A465,465,0,0,1,139.74461544568996,-443.5047265294207L104.89584992913687,-333.3873282949489A349.5,349.5,0,0,0,80.20186775150846,-340.17335346727197Z"/><path fill="rgb(110, 64, 170)" d="M140.8553210854481,-443.1532223982077A465,465,0,0,1,173.28453240575203,-431.5060495855416L130.10861553657807,-324.37940465318525A349.5,349.5,0,0,0,106.00655556889498,-333.03582416373587Z"/><path fill="rgb(110, 64, 170)" d="M174.36507163572352,-431.07055315048956A465,465,0,0,1,205.8075468260921,-416.97512356185695L154.55785205263413,-313.467893681117A349.5,349.5,0,0,0,131.18915476654948,-323.94390821813323Z"/><path fill="rgb(110, 64, 170)" d="M206.85157861241788,-416.4581904892143A465,465,0,0,1,237.12280072588328,-399.9972217102427L178.10008163561722,-300.7168284638997A349.5,349.5,0,0,0,155.60188383895985,-312.9509606084743Z"/><path fill="rgb(110, 64, 170)" d="M238.1241982749002,-399.4018855688291A465,465,0,0,1,267.0465237432785,-380.67197710972977L200.5971491211784,-286.2010373224662A349.5,349.5,0,0,0,179.1014791846341,-300.12149232248606Z"/><path fill="rgb(110, 64, 170)" d="M267.9994104559806,-380.0017315687481A465,465,0,0,1,295.40311157296605,-359.1127979799798L221.9170327717468,-270.0057046911851A349.5,349.5,0,0,0,201.55003583388057,-285.5307917814845Z"/><path fill="rgb(110, 64, 170)" d="M296.30189553122466,-358.3715763067758A465,465,0,0,1,322.0261564820601,-335.4462021567567L241.9346190325818,-252.2258712217276A349.5,349.5,0,0,0,222.81581673000534,-269.26448301798115Z"/><path fill="rgb(110, 64, 170)" d="M322.8655632642224,-334.63835413484276A465,465,0,0,1,346.75942385684573,-309.8110746349595L260.53243674786165,-232.96587604673235A349.5,349.5,0,0,0,242.77402581474402,-251.4180231998136Z"/><path fill="rgb(110, 64, 170)" d="M347.5345274901383,-308.94134103775474A465,465,0,0,1,369.45776904961605,-282.35785253624624L277.6013465281359,-212.33874447628682A349.5,349.5,0,0,0,261.3075403811543,-232.0961424495276Z"/><path fill="rgb(223, 64, 161)" d="M370.1640209177126,-281.4313373063335A465,465,0,0,1,389.9879891451798,-253.24764228418613L293.0411812236603,-190.46552472046454A349.5,349.5,0,0,0,278.30759839623244,-211.41222924637404Z"/><path fill="rgb(223, 64, 161)" d="M390.62124468128957,-252.26978258134702A465,465,0,0,1,408.22960464853315,-222.65127416770443L306.7613337450612,-167.47457753029616A349.5,349.5,0,0,0,293.67443675977006,-189.48766501762543Z"/><path fill="rgb(223, 64, 161)" d="M408.7861476573672,-221.62780846150406A465,465,0,0,1,424.0755665064429,-190.74829984101956L318.68128878176424,-143.50082292584185A349.5,349.5,0,0,0,307.31787675389523,-166.45111182409582Z"/><path fill="rgb(223, 64, 161)" d="M424.5521309723258,-189.6852342351852A465,465,0,0,1,437.4328843138571,-157.72593864314064L328.73109529785216,-118.68494843186495A349.5,349.5,0,0,0,319.1578532476471,-142.4377573200075Z"/><path fill="rgb(223, 64, 161)" d="M437.82667356700546,-156.62951162935684A465,465,0,0,1,448.22317201857766,-123.77797892034165L336.85177703255874,-93.17258346749502A349.5,349.5,0,0,0,329.1248845510006,-117.58852141808117Z"/><path fill="rgb(223, 64, 161)" d="M448.53187514707076,-122.65462476830017A465,465,0,0,1,456.38310792178436,-89.10364079908831L342.99567859641763,-67.1134447348886A349.5,349.5,0,0,0,337.16048016105185,-92.04922931545356Z"/><path fill="rgb(223, 64, 161)" d="M456.6049133329137,-87.95995179763555A465,465,0,0,1,461.8648062749411,-53.90640708312078L347.12674513203706,-40.66045762208976A349.5,349.5,0,0,0,343.21748400754706,-65.96975573343585Z"/><path fill="rgb(223, 64, 161)" d="M461.99841232635714,-52.749094854085214A465,465,0,0,1,464.6360982924101,-18.39282913544906L349.22073389833963,-13.9688587760443A349.5,349.5,0,0,0,347.26035118345317,-39.50314539305419Z"/><path fill="rgb(223, 64, 161)" d="M464.680720930677,-17.22868524717574A465,465,0,0,1,464.680720930677,17.228685247176255L349.26535653660653,12.804714887771338A349.5,349.5,0,0,0,349.26535653660653,-12.804714887770949Z"/><path fill="rgb(223, 64, 161)" d="M464.63609829241005,18.39282913544968A465,465,0,0,1,461.9984123263571,52.749094854085826L347.2603511834531,39.503145393054645A349.5,349.5,0,0,0,349.2207338983396,13.968858776044764Z"/><path fill="rgb(223, 64, 161)" d="M461.86480627494103,53.9064070831214A465,465,0,0,1,456.6049133329136,87.95995179763615L343.217484007547,65.9697557334363A349.5,349.5,0,0,0,347.12674513203706,40.66045762209022Z"/><path fill="rgb(223, 64, 161)" d="M456.3831079217842,89.10364079908892A465,465,0,0,1,448.5318751470706,122.65462476830076L337.16048016105174,92.049229315454A349.5,349.5,0,0,0,342.9956785964176,67.11344473488906Z"/><path fill="rgb(223, 64, 161)" d="M448.2231720185775,123.77797892034214A465,465,0,0,1,437.8266735670053,156.62951162935735L329.1248845510005,117.58852141808153A349.5,349.5,0,0,0,336.85177703255863,93.17258346749539Z"/><path fill="rgb(223, 64, 161)" d="M437.43288431385685,157.72593864314123A465,465,0,0,1,424.5521309723256,189.68523423518576L319.1578532476469,142.4377573200079A349.5,349.5,0,0,0,328.731095297852,118.6849484318654Z"/><path fill="rgb(223, 64, 161)" d="M424.0755665064426,190.74829984102013A465,465,0,0,1,408.786147657367,221.62780846150463L307.31787675389506,166.45111182409622A349.5,349.5,0,0,0,318.681288781764,143.50082292584227Z"/><path fill="rgb(223, 64, 161)" d="M408.2296046485329,222.65127416770497A465,465,0,0,1,390.6212446812892,252.26978258134758L293.6744367597698,189.48766501762586A349.5,349.5,0,0,0,306.76133374506094,167.47457753029659Z"/><path fill="rgb(255, 112, 78)" d="M389.9879891451797,253.24764228418633A465,465,0,0,1,370.1640209177124,281.4313373063337L278.30759839623227,211.4122292463742A349.5,349.5,0,0,0,293.0411812236602,190.46552472046469Z"/><path fill="rgb(255, 112, 78)" d="M369.4577690496158,282.3578525362465A465,465,0,0,1,347.53452749013815,308.941341037755L261.3075403811541,232.09614244952783A349.5,349.5,0,0,0,277.60134652813576,212.338744476287Z"/><path fill="rgb(255, 112, 78)" d="M346.7594238568456,309.8110746349596A465,465,0,0,1,322.8655632642223,334.6383541348428L242.77402581474396,251.41802319981363A349.5,349.5,0,0,0,260.53243674786154,232.96587604673246Z"/><path fill="rgb(255, 112, 78)" d="M322.0261564820601,335.4462021567567A465,465,0,0,1,296.30189553122455,358.3715763067759L222.8158167300053,269.2644830179812A349.5,349.5,0,0,0,241.9346190325818,252.2258712217276Z"/><path fill="rgb(255, 112, 78)" d="M295.403111572966,359.11279797997986A465,465,0,0,1,267.99941045598047,380.0017315687482L201.55003583388043,285.5307917814846A349.5,349.5,0,0,0,221.91703277174673,270.00570469118514Z"/><path fill="rgb(255, 112, 78)" d="M267.04652374327827,380.6719771097299A465,465,0,0,1,238.12419827489995,399.4018855688292L179.10147918463392,300.1214923224862A349.5,349.5,0,0,0,200.59714912117826,286.20103732246633Z"/><path fill="rgb(255, 112, 78)" d="M237.12280072588322,399.99722171024274A465,465,0,0,1,206.85157861241788,416.4581904892143L155.60188383895985,312.9509606084743A349.5,349.5,0,0,0,178.10008163561713,300.71682846389973Z"/><path fill="rgb(255, 112, 78)" d="M205.8075468260921,416.97512356185695A465,465,0,0,1,174.36507163572352,431.07055315048956L131.18915476654948,323.94390821813323A349.5,349.5,0,0,0,154.55785205263413,313.467893681117Z"/><path fill="rgb(210, 201, 52)" d="M173.28453240575186,431.50604958554163A465,465,0,0,1,140.85532108544803,443.15322239820773L106.0065555688949,333.03582416373587A349.5,349.5,0,0,0,130.10861553657793,324.37940465318536Z"/><path fill="rgb(210, 201, 52)" d="M139.74461544568987,443.5047265294207A465,465,0,0,1,106.51897550238698,452.635292324761L80.20186775150832,340.173353467272A349.5,349.5,0,0,0,104.8958499291368,333.3873282949489Z"/><path fill="rgb(210, 201, 52)" d="M105.38462151518891,452.90074138612357A465,465,0,0,1,71.55753421566938,459.46111837344114L53.926523483285166,345.3146102686747A349.5,349.5,0,0,0,79.0675137643103,340.4388025286345Z"/><path fill="rgb(210, 201, 52)" d="M70.40618872128431,459.63895460430996A465,465,0,0,1,36.176164864571625,463.590643882824L27.334716932322724,348.42942362870247A349.5,349.5,0,0,0,52.775177988900175,345.49244649954346Z"/><path fill="rgb(210, 201, 52)" d="M35.01458441617323,463.6798236694828A465,465,0,0,1,0.5824993932294137,464.99963515518687L0.5824993932293688,349.4995145840075A349.5,349.5,0,0,0,26.173136483924353,348.51860341536127Z"/><path fill="rgb(210, 201, 52)" d="M-0.5824993932293567,464.99963515518687A465,465,0,0,1,-35.01458441617338,463.6798236694828L-26.173136483924466,348.51860341536127A349.5,349.5,0,0,0,-0.5824993932293261,349.4995145840075Z"/><path fill="rgb(210, 201, 52)" d="M-36.17616486457198,463.59064388282394A465,465,0,0,1,-70.40618872128465,459.6389546043099L-52.77517798890044,345.49244649954346A349.5,349.5,0,0,0,-27.33471693232299,348.4294236287024Z"/><path fill="rgb(210, 201, 52)" d="M-71.55753421566972,459.4611183734411A465,465,0,0,1,-105.38462151518927,452.90074138612346L-79.06751376431058,340.4388025286344A349.5,349.5,0,0,0,-53.92652348328543,345.31461026867464Z"/><path fill="rgb(210, 201, 52)" d="M-106.51897550238712,452.635292324761A465,465,0,0,1,-139.74461544568982,443.50472652942074L-104.89584992913676,333.3873282949489A349.5,349.5,0,0,0,-80.20186775150842,340.17335346727197Z"/><path fill="rgb(210, 201, 52)" d="M-140.85532108544797,443.15322239820773A465,465,0,0,1,-173.28453240575197,431.5060495855416L-130.10861553657801,324.3794046531853A349.5,349.5,0,0,0,-106.00655556889485,333.03582416373587Z"/><path fill="rgb(210, 201, 52)" d="M-174.36507163572347,431.07055315048956A465,465,0,0,1,-205.80754682609205,416.975123561857L-154.55785205263402,313.467893681117A349.5,349.5,0,0,0,-131.18915476654945,323.94390821813323Z"/><path fill="rgb(210, 201, 52)" d="M-206.85157861241785,416.4581904892143A465,465,0,0,1,-237.12280072588334,399.9972217102427L-178.1000816356172,300.71682846389973A349.5,349.5,0,0,0,-155.60188383895988,312.9509606084743Z"/><path fill="rgb(107, 247, 92)" d="M-238.12419827490027,399.401885568829A465,465,0,0,1,-267.0465237432785,380.6719771097297L-200.5971491211784,286.2010373224662A349.5,349.5,0,0,0,-179.10147918463417,300.12149232248606Z"/><path fill="rgb(107, 247, 92)" d="M-267.99941045598075,380.0017315687479A465,465,0,0,1,-295.4031115729662,359.11279797997963L-221.91703277174685,270.00570469118503A349.5,349.5,0,0,0,-201.5500358338807,285.5307917814844Z"/><path fill="rgb(107, 247, 92)" d="M-296.3018955312247,358.37157630677575A465,465,0,0,1,-322.02615648206006,335.44620215675684L-241.9346190325817,252.2258712217277A349.5,349.5,0,0,0,-222.81581673000545,269.2644830179811Z"/><path fill="rgb(107, 247, 92)" d="M-322.8655632642223,334.6383541348428A465,465,0,0,1,-346.7594238568456,309.81107463495954L-260.53243674786154,232.96587604673246A349.5,349.5,0,0,0,-242.77402581474402,251.4180231998136Z"/><path fill="rgb(107, 247, 92)" d="M-347.5345274901383,308.94134103775474A465,465,0,0,1,-369.45776904961605,282.35785253624624L-277.6013465281359,212.33874447628685A349.5,349.5,0,0,0,-261.3075403811543,232.09614244952758Z"/><path fill="rgb(107, 247, 92)" d="M-370.16402091771266,281.4313373063334A465,465,0,0,1,-389.9879891451799,253.24764228418607L-293.0411812236603,190.46552472046454A349.5,349.5,0,0,0,-278.3075983962325,211.41222924637395Z"/><path fill="rgb(107, 247, 92)" d="M-390.6212446812897,252.26978258134687A465,465,0,0,1,-408.22960464853327,222.65127416770432L-306.7613337450612,167.47457753029613A349.5,349.5,0,0,0,-293.6744367597701,189.48766501762532Z"/><path fill="rgb(107, 247, 92)" d="M-408.78614765736734,221.62780846150392A465,465,0,0,1,-424.07556650644295,190.74829984101947L-318.68128878176424,143.5008229258418A349.5,349.5,0,0,0,-307.31787675389535,166.45111182409565Z"/><path fill="rgb(107, 247, 92)" d="M-424.5521309723259,189.68523423518505A465,465,0,0,1,-437.4328843138571,157.72593864314052L-328.73109529785216,118.68494843186491A349.5,349.5,0,0,0,-319.1578532476472,142.4377573200073Z"/><path fill="rgb(107, 247, 92)" d="M-437.82667356700557,156.62951162935659A465,465,0,0,1,-448.22317201857777,123.77797892034131L-336.8517770325588,93.17258346749483A349.5,349.5,0,0,0,-329.12488455100066,117.58852141808092Z"/><path fill="rgb(107, 247, 92)" d="M-448.5318751470709,122.65462476829978A465,465,0,0,1,-456.3831079217844,89.10364079908798L-342.9956785964177,67.1134447348884A349.5,349.5,0,0,0,-337.16048016105196,92.04922931545323Z"/><path fill="rgb(107, 247, 92)" d="M-456.6049133329138,87.95995179763517A465,465,0,0,1,-461.86480627494115,53.90640708312046L-347.1267451320371,40.66045762208956A349.5,349.5,0,0,0,-343.2174840075471,65.96975573343552Z"/><path fill="rgb(107, 247, 92)" d="M-461.9984123263572,52.74909485408483A465,465,0,0,1,-464.6360982924101,18.392829135448732L-349.22073389833963,13.9688587760441A349.5,349.5,0,0,0,-347.2603511834532,39.50314539305385Z"/><path fill="rgb(107, 247, 92)" d="M-464.680720930677,17.228685247175253A465,465,0,0,1,-464.680720930677,-17.228685247176788L-349.26535653660653,-12.804714887771691A349.5,349.5,0,0,0,-349.2653565366066,12.804714887770537Z"/><path fill="rgb(107, 247, 92)" d="M-464.63609829241005,-18.39282913545027A465,465,0,0,1,-461.998412326357,-52.74909485408636L-347.2603511834531,-39.503145393055A349.5,349.5,0,0,0,-349.2207338983396,-13.968858776045256Z"/><path fill="rgb(107, 247, 92)" d="M-461.8648062749409,-53.906407083121984A465,465,0,0,1,-456.6049133329135,-87.95995179763669L-343.2174840075469,-65.96975573343666A349.5,349.5,0,0,0,-347.126745132037,-40.66045762209071Z"/><path fill="rgb(107, 247, 92)" d="M-456.3831079217841,-89.1036407990895A465,465,0,0,1,-448.5318751470705,-122.65462476830128L-337.1604801610517,-92.04922931545433A349.5,349.5,0,0,0,-342.9956785964175,-67.11344473488954Z"/><path fill="rgb(107, 247, 92)" d="M-448.2231720185774,-123.7779789203428A465,465,0,0,1,-437.82667356700506,-156.62951162935803L-329.12488455100026,-117.588521418082A349.5,349.5,0,0,0,-336.85177703255846,-93.17258346749594Z"/><path fill="rgb(27, 217, 172)" d="M-437.43288431385685,-157.7259386431412A465,465,0,0,1,-424.55213097232564,-189.68523423518567L-319.157853247647,-142.43775732000782A349.5,349.5,0,0,0,-328.731095297852,-118.68494843186542Z"/><path fill="rgb(27, 217, 172)" d="M-424.07556650644267,-190.7482998410201A465,465,0,0,1,-408.786147657367,-221.62780846150454L-307.31787675389506,-166.45111182409613A349.5,349.5,0,0,0,-318.68128878176395,-143.5008229258423Z"/><path fill="rgb(27, 217, 172)" d="M-408.2296046485329,-222.65127416770494A465,465,0,0,1,-390.6212446812893,-252.2697825813475L-293.67443675976983,-189.48766501762574A349.5,349.5,0,0,0,-306.76133374506094,-167.47457753029659Z"/><path fill="rgb(27, 217, 172)" d="M-389.9879891451795,-253.24764228418664A465,465,0,0,1,-370.1640209177122,-281.43133730633394L-278.3075983962322,-211.41222924637438A349.5,349.5,0,0,0,-293.04118122366,-190.465524720465Z"/><path fill="rgb(27, 217, 172)" d="M-369.4577690496156,-282.3578525362468A465,465,0,0,1,-347.5345274901379,-308.94134103775525L-261.307540381154,-232.09614244952795A349.5,349.5,0,0,0,-277.6013465281355,-212.33874447628727Z"/><path fill="rgb(27, 217, 172)" d="M-346.75942385684516,-309.81107463496005A465,465,0,0,1,-322.8655632642218,-334.6383541348433L-242.77402581474362,-251.41802319981397A349.5,349.5,0,0,0,-260.5324367478612,-232.96587604673286Z"/><path fill="rgb(27, 217, 172)" d="M-322.02615648205955,-335.4462021567573A465,465,0,0,1,-296.30189553122403,-358.3715763067764L-222.8158167300048,-269.26448301798166A349.5,349.5,0,0,0,-241.93461903258134,-252.22587122172803Z"/><path fill="rgb(27, 217, 172)" d="M-295.4031115729653,-359.11279797998037A465,465,0,0,1,-267.99941045597984,-380.0017315687486L-201.5500358338799,-285.53079178148494A349.5,349.5,0,0,0,-221.91703277174636,-270.0057046911855Z"/><path fill="rgb(57, 136, 225)" d="M-267.04652374327827,-380.6719771097299A465,465,0,0,1,-238.1241982749,-399.40188556882913L-179.10147918463386,-300.12149232248623A349.5,349.5,0,0,0,-200.59714912117838,-286.2010373224663Z"/><path fill="rgb(57, 136, 225)" d="M-237.12280072588305,-399.9972217102428A465,465,0,0,1,-206.85157861241757,-416.4581904892145L-155.60188383895954,-312.9509606084745A349.5,349.5,0,0,0,-178.10008163561713,-300.7168284638998Z"/><path fill="rgb(57, 136, 225)" d="M-205.8075468260918,-416.9751235618571A465,465,0,0,1,-174.36507163572318,-431.0705531504896L-131.18915476654914,-323.94390821813334A349.5,349.5,0,0,0,-154.55785205263396,-313.46789368111706Z"/><path fill="rgb(57, 136, 225)" d="M-173.2845324057517,-431.5060495855417A465,465,0,0,1,-140.85532108544768,-443.1532223982078L-106.00655556889457,-333.035824163736A349.5,349.5,0,0,0,-130.10861553657787,-324.37940465318536Z"/><path fill="rgb(57, 136, 225)" d="M-139.74461544568953,-443.5047265294208A465,465,0,0,1,-106.51897550238664,-452.6352923247611L-80.20186775150798,-340.1733534672721A349.5,349.5,0,0,0,-104.89584992913662,-333.38732829494893Z"/><path fill="rgb(57, 136, 225)" d="M-105.38462151518857,-452.9007413861236A465,465,0,0,1,-71.55753421566902,-459.4611183734412L-53.926523483284825,-345.31461026867476A349.5,349.5,0,0,0,-79.06751376431012,-340.43880252863454Z"/><path fill="rgb(57, 136, 225)" d="M-70.40618872128395,-459.63895460431A465,465,0,0,1,-36.17616486457127,-463.590643882824L-27.33471693232238,-348.42942362870247A349.5,349.5,0,0,0,-52.77517798889999,-345.49244649954346Z"/><path fill="rgb(57, 136, 225)" d="M-35.01458441617267,-463.67982366948286A465,465,0,0,1,-0.5824993932286445,-464.99963515518687L-0.5824993932287132,-349.4995145840075A349.5,349.5,0,0,0,-26.173136483924008,-348.5186034153613Z"/></g><g pointer-events="none" text-anchor="middle"><text transform="rotate(-63.65853658536585) translate(174.75,0) rotate(0)" dy="0.35em">Fearful</text><text transform="rotate(-2.195121951219491) translate(174.75,0) rotate(0)" dy="0.35em">Angry</text><text transform="rotate(50.48780487804879) translate(174.75,0) rotate(0)" dy="0.35em">Disgusted</text><text transform="rotate(94.39024390243904) translate(174.75,0) rotate(180)" dy="0.35em">Sad</text><text transform="rotate(160.24390243902445) translate(174.75,0) rotate(180)" dy="0.35em">Happy</text><text transform="rotate(217.3170731707317) translate(174.75,0) rotate(180)" dy="0.35em">Surprised</text><text transform="rotate(252.4390243902439) translate(174.75,0) rotate(180)" dy="0.35em">Bad</text><text transform="rotate(-85.60975609756098) translate(291.25,0) rotate(0)" dy="0.35em">Scared</text><text transform="rotate(-76.82926829268293) translate(291.25,0) rotate(0)" dy="0.35em">Anxious</text><text transform="rotate(-68.04878048780488) translate(291.25,0) rotate(0)" dy="0.35em">Insecure</text><text transform="rotate(-59.26829268292683) translate(291.25,0) rotate(0)" dy="0.35em">Weak</text><text transform="rotate(-50.487804878048784) translate(291.25,0) rotate(0)" dy="0.35em">Rejected</text><text transform="rotate(-41.70731707317073) translate(291.25,0) rotate(0)" dy="0.35em">Threatened</text><text transform="rotate(-32.92682926829268) translate(291.25,0) rotate(0)" dy="0.35em">Let down</text><text transform="rotate(-24.146341463414615) translate(291.25,0) rotate(0)" dy="0.35em">Humiliated</text><text transform="rotate(-15.365853658536565) translate(291.25,0) rotate(0)" dy="0.35em">Bitter</text><text transform="rotate(-6.585365853658502) translate(291.25,0) rotate(0)" dy="0.35em">Mad</text><text transform="rotate(2.1951219512195337) translate(291.25,0) rotate(0)" dy="0.35em">Aggressive</text><text transform="rotate(10.975609756097612) translate(291.25,0) rotate(0)" dy="0.35em">Frustrated</text><text transform="rotate(19.75609756097566) translate(291.25,0) rotate(0)" dy="0.35em">Distant</text><text transform="rotate(28.53658536585374) translate(291.25,0) rotate(0)" dy="0.35em">Critical</text><text transform="rotate(37.31707317073173) translate(291.25,0) rotate(0)" dy="0.35em">Disapproving</text><text transform="rotate(46.09756097560975) translate(291.25,0) rotate(0)" dy="0.35em">Disappointed</text><text transform="rotate(54.87804878048783) translate(291.25,0) rotate(0)" dy="0.35em">Awful</text><text transform="rotate(63.65853658536585) translate(291.25,0) rotate(0)" dy="0.35em">Repelled</text><text transform="rotate(72.43902439024393) translate(291.25,0) rotate(0)" dy="0.35em">Hurt</text><text transform="rotate(81.21951219512198) translate(291.25,0) rotate(0)" dy="0.35em">Depressed</text><text transform="rotate(90) translate(291.25,0) rotate(180)" dy="0.35em">Guilty</text><text transform="rotate(98.78048780487808) translate(291.25,0) rotate(180)" dy="0.35em">Despair</text><text transform="rotate(107.5609756097561) translate(291.25,0) rotate(180)" dy="0.35em">Vulnerable</text><text transform="rotate(116.34146341463415) translate(291.25,0) rotate(180)" dy="0.35em">Lonely</text><text transform="rotate(125.1219512195122) translate(291.25,0) rotate(180)" dy="0.35em">Optimistic</text><text transform="rotate(133.90243902439022) translate(291.25,0) rotate(180)" dy="0.35em">Trusting</text><text transform="rotate(142.68292682926833) translate(291.25,0) rotate(180)" dy="0.35em">Peaceful</text><text transform="rotate(151.46341463414637) translate(291.25,0) rotate(180)" dy="0.35em">Powerful</text><text transform="rotate(160.24390243902445) translate(291.25,0) rotate(180)" dy="0.35em">Accepted</text><text transform="rotate(169.02439024390253) translate(291.25,0) rotate(180)" dy="0.35em">Proud</text><text transform="rotate(177.8048780487806) translate(291.25,0) rotate(180)" dy="0.35em">Interested</text><text transform="rotate(186.5853658536587) translate(291.25,0) rotate(180)" dy="0.35em">Content</text><text transform="rotate(195.3658536585367) translate(291.25,0) rotate(180)" dy="0.35em">Playful</text><text transform="rotate(204.14634146341467) translate(291.25,0) rotate(180)" dy="0.35em">Excited</text><text transform="rotate(212.92682926829275) translate(291.25,0) rotate(180)" dy="0.35em">Amazed</text><text transform="rotate(221.70731707317083) translate(291.25,0) rotate(180)" dy="0.35em">Confused</text><text transform="rotate(230.4878048780489) translate(291.25,0) rotate(180)" dy="0.35em">Startled</text><text transform="rotate(239.2682926829268) translate(291.25,0) rotate(180)" dy="0.35em">Tired</text><text transform="rotate(248.0487804878049) translate(291.25,0) rotate(180)" dy="0.35em">Stressed</text><text transform="rotate(256.829268292683) translate(291.25,0) rotate(180)" dy="0.35em">Busy</text><text transform="rotate(265.6097560975611) translate(291.25,0) rotate(180)" dy="0.35em">Bored</text><text transform="rotate(-87.8048780487805) translate(407.75,0) rotate(0)" dy="0.35em">Helpless</text><text transform="rotate(-83.41463414634146) translate(407.75,0) rotate(0)" dy="0.35em">Frightened</text><text transform="rotate(-79.02439024390245) translate(407.75,0) rotate(0)" dy="0.35em">Overwhelmed</text><text transform="rotate(-74.6341463414634) translate(407.75,0) rotate(0)" dy="0.35em">Worried</text><text transform="rotate(-70.2439024390244) translate(407.75,0) rotate(0)" dy="0.35em">Inadequate</text><text transform="rotate(-65.85365853658536) translate(407.75,0) rotate(0)" dy="0.35em">Inferior</text><text transform="rotate(-61.46341463414634) translate(407.75,0) rotate(0)" dy="0.35em">Worthless</text><text transform="rotate(-57.073170731707314) translate(407.75,0) rotate(0)" dy="0.35em">Insignificant</text><text transform="rotate(-52.68292682926829) translate(407.75,0) rotate(0)" dy="0.35em">Excluded</text><text transform="rotate(-48.29268292682927) translate(407.75,0) rotate(0)" dy="0.35em">Persecuted</text><text transform="rotate(-43.90243902439024) translate(407.75,0) rotate(0)" dy="0.35em">Nervous</text><text transform="rotate(-39.51219512195121) translate(407.75,0) rotate(0)" dy="0.35em">Exposed</text><text transform="rotate(-35.121951219512184) translate(407.75,0) rotate(0)" dy="0.35em">Betrayed</text><text transform="rotate(-30.73170731707316) translate(407.75,0) rotate(0)" dy="0.35em">Resentful</text><text transform="rotate(-26.341463414634134) translate(407.75,0) rotate(0)" dy="0.35em">Disrespected</text><text transform="rotate(-21.951219512195095) translate(407.75,0) rotate(0)" dy="0.35em">Ridiculed</text><text transform="rotate(-17.560975609756085) translate(407.75,0) rotate(0)" dy="0.35em">Indignant</text><text transform="rotate(-13.170731707317046) translate(407.75,0) rotate(0)" dy="0.35em">Violated</text><text transform="rotate(-8.780487804878021) translate(407.75,0) rotate(0)" dy="0.35em">Furious</text><text transform="rotate(-4.390243902438996) translate(407.75,0) rotate(0)" dy="0.35em">Jealous</text><text transform="rotate(1.4210854715202004e-14) translate(407.75,0) rotate(0)" dy="0.35em">Provoked</text><text transform="rotate(4.390243902439067) translate(407.75,0) rotate(0)" dy="0.35em">Hostile</text><text transform="rotate(8.780487804878092) translate(407.75,0) rotate(0)" dy="0.35em">Infuriated</text><text transform="rotate(13.170731707317131) translate(407.75,0) rotate(0)" dy="0.35em">Annoyed</text><text transform="rotate(17.56097560975614) translate(407.75,0) rotate(0)" dy="0.35em">Withdrawn</text><text transform="rotate(21.951219512195166) translate(407.75,0) rotate(0)" dy="0.35em">Numb</text><text transform="rotate(26.341463414634205) translate(407.75,0) rotate(0)" dy="0.35em">Skeptical</text><text transform="rotate(30.731707317073244) translate(407.75,0) rotate(0)" dy="0.35em">Dismissive</text><text transform="rotate(35.121951219512226) translate(407.75,0) rotate(0)" dy="0.35em">Judgmental</text><text transform="rotate(39.512195121951265) translate(407.75,0) rotate(0)" dy="0.35em">Embarrassed</text><text transform="rotate(43.90243902439025) translate(407.75,0) rotate(0)" dy="0.35em">Appalled</text><text transform="rotate(48.292682926829286) translate(407.75,0) rotate(0)" dy="0.35em">Revolted</text><text transform="rotate(52.6829268292683) translate(407.75,0) rotate(0)" dy="0.35em">Nauseated</text><text transform="rotate(57.073170731707336) translate(407.75,0) rotate(0)" dy="0.35em">Detestable</text><text transform="rotate(61.46341463414632) translate(407.75,0) rotate(0)" dy="0.35em">Horrified</text><text transform="rotate(65.85365853658536) translate(407.75,0) rotate(0)" dy="0.35em">Hesitant</text><text transform="rotate(70.2439024390244) translate(407.75,0) rotate(0)" dy="0.35em">Embarrassed</text><text transform="rotate(74.6341463414634) translate(407.75,0) rotate(0)" dy="0.35em">Disappointed</text><text transform="rotate(79.02439024390245) translate(407.75,0) rotate(0)" dy="0.35em">Inferior</text><text transform="rotate(83.41463414634151) translate(407.75,0) rotate(0)" dy="0.35em">Empty</text><text transform="rotate(87.80487804878047) translate(407.75,0) rotate(0)" dy="0.35em">Remorseful</text><text transform="rotate(92.1951219512195) translate(407.75,0) rotate(180)" dy="0.35em">Ashamed</text><text transform="rotate(96.58536585365857) translate(407.75,0) rotate(180)" dy="0.35em">Powerless</text><text transform="rotate(100.97560975609758) translate(407.75,0) rotate(180)" dy="0.35em">Grief</text><text transform="rotate(105.36585365853657) translate(407.75,0) rotate(180)" dy="0.35em">Fragile</text><text transform="rotate(109.75609756097563) translate(407.75,0) rotate(180)" dy="0.35em">Victimized</text><text transform="rotate(114.14634146341464) translate(407.75,0) rotate(180)" dy="0.35em">Abandoned</text><text transform="rotate(118.53658536585368) translate(407.75,0) rotate(180)" dy="0.35em">Isolated</text><text transform="rotate(122.92682926829272) translate(407.75,0) rotate(180)" dy="0.35em">Inspired</text><text transform="rotate(127.31707317073173) translate(407.75,0) rotate(180)" dy="0.35em">Hopeful</text><text transform="rotate(131.70731707317074) translate(407.75,0) rotate(180)" dy="0.35em">Intimate</text><text transform="rotate(136.09756097560975) translate(407.75,0) rotate(180)" dy="0.35em">Sensitive</text><text transform="rotate(140.4878048780488) translate(407.75,0) rotate(180)" dy="0.35em">Thankful</text><text transform="rotate(144.87804878048783) translate(407.75,0) rotate(180)" dy="0.35em">Loving</text><text transform="rotate(149.26829268292684) translate(407.75,0) rotate(180)" dy="0.35em">Creative</text><text transform="rotate(153.65853658536588) translate(407.75,0) rotate(180)" dy="0.35em">Courageous</text><text transform="rotate(158.04878048780492) translate(407.75,0) rotate(180)" dy="0.35em">Valued</text><text transform="rotate(162.439024390244) translate(407.75,0) rotate(180)" dy="0.35em">Respected</text><text transform="rotate(166.82926829268303) translate(407.75,0) rotate(180)" dy="0.35em">Confident</text><text transform="rotate(171.21951219512204) translate(407.75,0) rotate(180)" dy="0.35em">Successful</text><text transform="rotate(175.60975609756105) translate(407.75,0) rotate(180)" dy="0.35em">Inquisitive</text><text transform="rotate(180.0000000000001) translate(407.75,0) rotate(180)" dy="0.35em">Curious</text><text transform="rotate(184.39024390243912) translate(407.75,0) rotate(180)" dy="0.35em">Joyful</text><text transform="rotate(188.78048780487813) translate(407.75,0) rotate(180)" dy="0.35em">Free</text><text transform="rotate(193.1707317073172) translate(407.75,0) rotate(180)" dy="0.35em">Cheeky</text><text transform="rotate(197.56097560975627) translate(407.75,0) rotate(180)" dy="0.35em">Aroused</text><text transform="rotate(201.95121951219517) translate(407.75,0) rotate(180)" dy="0.35em">Energetic</text><text transform="rotate(206.34146341463418) translate(407.75,0) rotate(180)" dy="0.35em">Eager</text><text transform="rotate(210.73170731707324) translate(407.75,0) rotate(180)" dy="0.35em">Awe</text><text transform="rotate(215.12195121951225) translate(407.75,0) rotate(180)" dy="0.35em">Astonished</text><text transform="rotate(219.51219512195127) translate(407.75,0) rotate(180)" dy="0.35em">Perplexed</text><text transform="rotate(223.90243902439033) translate(407.75,0) rotate(180)" dy="0.35em">Disillusioned</text><text transform="rotate(228.2926829268294) translate(407.75,0) rotate(180)" dy="0.35em">Dismayed</text><text transform="rotate(232.6829268292684) translate(407.75,0) rotate(180)" dy="0.35em">Shocked</text><text transform="rotate(237.07317073170736) translate(407.75,0) rotate(180)" dy="0.35em">Unfocused</text><text transform="rotate(241.46341463414637) translate(407.75,0) rotate(180)" dy="0.35em">Sleepy</text><text transform="rotate(245.85365853658544) translate(407.75,0) rotate(180)" dy="0.35em">Out of control</text><text transform="rotate(250.24390243902445) translate(407.75,0) rotate(180)" dy="0.35em">Overwhelmed</text><text transform="rotate(254.63414634146352) translate(407.75,0) rotate(180)" dy="0.35em">Rushed</text><text transform="rotate(259.0243902439025) translate(407.75,0) rotate(180)" dy="0.35em">Pressured</text><text transform="rotate(263.41463414634154) translate(407.75,0) rotate(180)" dy="0.35em">Apathetic</text><text transform="rotate(267.8048780487806) translate(407.75,0) rotate(180)" dy="0.35em">Indifferent</text></g></g></svg>