<svg xmlns="http://www.w3.org/2000/svg" xmlns:xlink="http://www.w3.org/1999/xlink" viewBox="0 0 1080 1080"><style><![CDATA[.N{opacity:.5}.O{fill:none}.P{stroke-miterlimit:10}.Q{stroke-width:2}.R{stroke:#fff}.S{stroke-dasharray:1.99211,5.97633}]]></style><linearGradient id="A" gradientUnits="userSpaceOnUse" x1="11.716" y1="11.716" x2="1068.284" y2="1068.284"><stop offset="0" stop-color="#2bc0e4"/><stop offset=".247" stop-color="#68ceda"/><stop offset=".502" stop-color="#9fdbd2"/><stop offset=".722" stop-color="#c8e4cb"/><stop offset=".895" stop-color="#e1eac7"/><stop offset="1" stop-color="#eaecc6"/></linearGradient><use xlink:href="#D" fill="url(#A)"/><use xlink:href="#D" fill="url(#A)"/><linearGradient id="B" gradientUnits="userSpaceOnUse" x1="34.064" y1="559.771" x2="1045.936" y2="559.771"><stop offset="0" stop-color="#ff7e5f"/><stop offset=".292" stop-color="#ff9269"/><stop offset=".732" stop-color="#feab76"/><stop offset="1" stop-color="#feb47b"/></linearGradient><path d="M34.064 938.17h1011.872V741.89l-43.963-2.22-44.083-6.543-43.963 5.628-43.963-1.803L826 735.28l-44.083-16.194-43.963 8-43.963-3.9-43.963-15.345-44.083-3.97-43.963-3.315-43.963-6.058-43.963-35.282-44.083-104.732L386.01 453.88l-43.963-99.66-43.963-134.193L254 261.467l-43.963-17.776-43.963-62.32L122.1 293.7 78.027 405.095l-43.963 34.992V938.17z" fill="url(#B)"/><g class="N"><path d="M34.255 983.24v-1.92h2.816v-18.56l-2.88.256V961.6c1.312-.32 2.592-.896 3.647-1.79h1.536v21.502h2.688v1.92h-7.808z"/><use xlink:href="#E"/><use xlink:href="#E" x="12.287"/><path d="M69.71 977.865c.192 1.664.896 3.776 2.944 3.776 1.983 0 3.456-2.048 3.456-6.048 0-4.32-1.473-5.663-3.168-5.663-1.312 0-2.528.99-2.912 2.24l-1.792-.32.77-11.71h8.127l-.192 1.92h-6.08l-.448 7.04c.8-.672 1.888-1.088 3.072-1.088 2.688 0 4.928 2.495 4.928 7.52 0 5.28-2.56 8.032-5.632 8.032-3.328 0-4.992-2.496-5.184-5.504l2.11-.192z"/><use xlink:href="#F"/><use xlink:href="#G"/><path d="M1025.87 983.24v-1.92h2.816v-18.56l-2.88.256V961.6c1.312-.32 2.592-.896 3.647-1.8H1031v21.502h2.688v1.92h-7.808zm16 .322c-3.584 0-5.695-2.816-5.695-6.144 0-2.848 1.504-4.896 3.7-6.464-2.047-1.632-3.2-3.23-3.2-5.95 0-3.04 2.304-5.184 5.184-5.184s5.184 2.144 5.184 5.184c0 2.72-1.152 4.32-3.2 5.95 2.208 1.568 3.712 3.616 3.712 6.464 0 3.327-2.1 6.144-5.695 6.144zm0-11.392c-1.855 1.376-3.392 2.848-3.392 5.344 0 1.888 1.023 4.128 3.392 4.128s3.392-2.24 3.392-4.128c0-2.496-1.536-3.968-3.392-5.344zm0-10.43c-1.984 0-2.88 1.535-2.88 3.007 0 2.336 1.152 4.064 2.88 5.12 1.728-1.056 2.88-2.784 2.88-5.12 0-1.472-.896-3.007-2.88-3.007z"/><use xlink:href="#F" x="-483.473"/><use xlink:href="#G" x="-483.472"/><use xlink:href="#G" x="-471.184"/><path d="M561.21 964.427c-.32-2.304-1.6-2.687-2.495-2.687-2.048 0-3.328 2.815-3.393 9.247.93-.992 2.177-1.76 3.552-1.76 2.592 0 4.96 1.855 4.96 7.104 0 4.48-1.92 7.23-4.96 7.23-4 0-5.92-2.304-5.92-10.624 0-9.28 2.176-13.118 5.823-13.118 2.976 0 4.096 1.79 4.544 4.48l-2.112.128zm-5.95 10.88c0 4.672 1.216 6.336 3.264 6.336 1.792 0 3.008-1.344 3.008-5.344 0-4.128-1.408-5.15-2.88-5.15s-2.624.96-3.392 1.983v2.176z"/></g><path d="M1045.936 741.89l-43.963-2.22-44.083-6.543-43.963 5.628-43.963-1.803L826 735.28l-44.084-16.194-43.963 8-43.963-3.9-43.963-15.345-44.083-3.97-43.963-3.315-43.963-6.058-43.963-35.282-44.083-104.732L386.01 453.88l-43.963-99.66-43.963-134.193L254 261.467l-43.963-17.776-43.963-62.32L122.1 293.7 78.027 405.095l-43.963 34.992" stroke="#4d4d4d" stroke-width="3" class="O P"/><g class="N O P Q R"><path d="M34 372.07h1"/><path d="M40.976 372.07h1001.036" class="S"/><path d="M1045 372.07h1"/></g><g class="N O P Q R"><path d="M34 183.37h1"/><path d="M40.986 183.37H1043.66" stroke-dasharray="1.99537,5.98612"/><path d="M1046.654 183.37h1"/></g><path d="M47.704 343.256c-.32-2.304-1.6-2.688-2.496-2.688-2.048 0-3.328 2.816-3.392 9.248.928-.992 2.176-1.76 3.552-1.76 2.592 0 4.96 1.856 4.96 7.104 0 4.48-1.92 7.23-4.96 7.23-4 0-5.92-2.304-5.92-10.623 0-9.28 2.176-13.12 5.823-13.12 2.976 0 4.096 1.792 4.544 4.48l-2.112.128zm-5.952 10.88c0 4.672 1.216 6.335 3.264 6.335 1.792 0 3.008-1.344 3.008-5.343 0-4.128-1.408-5.152-2.88-5.152s-2.624.96-3.392 1.984v2.176z"/><use xlink:href="#H"/><path d="M69.463 362.4c-3.776 0-5.567-3.52-5.567-11.87s1.792-11.87 5.567-11.87 5.567 3.52 5.567 11.87-1.792 11.87-5.567 11.87zm0-21.822c-2.112 0-3.264 2.368-3.264 9.95s1.152 9.95 3.264 9.95 3.264-2.368 3.264-9.95-1.152-9.95-3.264-9.95zm7.297-1.6h2.304v14.6h.064l4.416-8.127h2.368l-3.072 5.312 3.84 11.327H84.3l-3.007-9.023h-.064l-2.176 4.096v4.928H76.76v-23.103zM44.888 173.7c-3.584 0-5.696-2.815-5.696-6.144 0-2.848 1.504-4.896 3.712-6.463-2.048-1.632-3.2-3.232-3.2-5.952 0-3.04 2.304-5.184 5.184-5.184s5.184 2.144 5.184 5.184c0 2.72-1.152 4.32-3.2 5.952 2.208 1.568 3.7 3.616 3.7 6.463 0 3.328-2.112 6.144-5.695 6.144zm0-11.4c-1.856 1.376-3.392 2.848-3.392 5.344 0 1.888 1.024 4.127 3.392 4.127s3.392-2.24 3.392-4.127c0-2.496-1.536-3.968-3.392-5.344zm0-10.43c-1.984 0-2.88 1.536-2.88 3.008 0 2.336 1.152 4.063 2.88 5.12 1.728-1.056 2.88-2.784 2.88-5.12 0-1.472-.896-3.008-2.88-3.008z"/><use xlink:href="#H" x="-0.001" y="-188.71"/><path d="M69.463 173.7c-3.776 0-5.567-3.52-5.567-11.87s1.792-11.87 5.567-11.87 5.567 3.52 5.567 11.87-1.8 11.87-5.567 11.87zm0-21.822c-2.112 0-3.264 2.368-3.264 9.95s1.152 9.95 3.264 9.95 3.264-2.368 3.264-9.95-1.152-9.95-3.264-9.95zm7.297-1.598h2.304v14.6h.064l4.416-8.127H85.9l-3.072 5.312 3.84 11.327H84.3l-3.007-9.023h-.064l-2.176 4.096v4.928H76.76V150.27z"/><path d="M49.463 527.303v15.936h2.4v1.92h-2.4v5.248H47.16v-5.248h-7.4v-1.088l6.335-16.767h3.36zm-7.52 15.936h5.215v-13.823h-.064l-5.15 13.823zm16.447 7.487c-3.776 0-5.567-3.52-5.567-11.87s1.8-11.87 5.567-11.87 5.567 3.52 5.567 11.87-1.8 11.87-5.567 11.87zm0-21.823c-2.112 0-3.264 2.368-3.264 9.952s1.152 9.95 3.264 9.95 3.264-2.368 3.264-9.95-1.152-9.952-3.264-9.952zm12.3 21.823c-3.776 0-5.568-3.52-5.568-11.87s1.792-11.87 5.568-11.87 5.567 3.52 5.567 11.87-1.8 11.87-5.567 11.87zm0-21.823c-2.112 0-3.264 2.368-3.264 9.952s1.152 9.95 3.264 9.95 3.264-2.368 3.264-9.95-1.152-9.952-3.264-9.952zm7.295-1.6h2.304v14.6h.064l4.416-8.127h2.368l-3.072 5.312 3.84 11.327h-2.368l-3.008-9.023h-.064l-2.176 4.096v4.928h-2.304v-23.103z" fill="#9f2400" class="N"/><path d="M40.78 739.44v-1.92c2.048-6.848 8.448-10.687 8.448-15.935 0-2.432-1.216-3.647-2.784-3.647-1.824 0-3.168 1.407-3.36 4.863h-2.112c.256-5.248 2.624-6.783 5.407-6.783 3.04 0 5.152 2.048 5.152 5.887 0 5.76-5.184 7.552-8.64 15.615h8.767v1.92H40.78zm17.855.32c-3.776 0-5.567-3.52-5.567-11.87s1.8-11.87 5.567-11.87 5.567 3.52 5.567 11.87-1.8 11.87-5.567 11.87zm0-21.822c-2.112 0-3.264 2.367-3.264 9.95s1.152 9.95 3.264 9.95 3.264-2.368 3.264-9.95-1.152-9.95-3.264-9.95zm12.288 21.822c-3.776 0-5.568-3.52-5.568-11.87s1.792-11.87 5.568-11.87 5.567 3.52 5.567 11.87-1.8 11.87-5.567 11.87zm0-21.822c-2.112 0-3.264 2.367-3.264 9.95s1.152 9.95 3.264 9.95 3.264-2.368 3.264-9.95-1.152-9.95-3.264-9.95zm7.297-1.6h2.304v14.6h.064l4.416-8.127h2.368l-3.072 5.312 3.84 11.327h-2.37l-3.008-9.023h-.064l-2.176 4.096v4.928H78.22v-23.103z" fill="#9f2400" class="N"/><g class="N O P Q R"><path d="M34 560.77h1"/><path d="M40.976 560.77h1001.036" class="S"/><path d="M1045 560.77h1"/></g><g class="N O P Q R"><path d="M34 749.47h1"/><path d="M40.976 749.47h1001.036" class="S"/><path d="M1045 749.47h1"/></g><g opacity=".3"><path d="M42.328 1046.045c-3.568 0-5.47-1.97-5.503-2.002 0 .935-.7 1.4-1.468 1.4-.7 0-1.4-.467-1.4-1.4v-20.88a1.35 1.35 0 0 1 1.401-1.434c.767 0 1.468.467 1.468 1.4v6.238c1.334-1.368 3.168-2.17 5.503-2.17 5.37 0 8.373 4.403 8.373 9.406 0 5.037-3.002 9.44-8.373 9.44zm0-16c-3.335 0-5.503 2.602-5.503 6.57 0 4.003 2.168 6.604 5.503 6.604s5.504-2.602 5.504-6.604c0-3.97-2.168-6.57-5.504-6.57zm25.555 8.037h-12.34c.467 3.136 2.468 5.137 5.403 5.137 1.5 0 3.002-.533 3.97-1.734.3-.333.634-.533 1.034-.533.734 0 1.5.667 1.5 1.468 0 .4-.1.7-.8 1.4-1.5 1.468-3.57 2.235-5.704 2.235-5.37 0-8.372-4.437-8.372-9.44 0-4.97 3.002-9.406 8.372-9.406 5.437 0 8.34 4.437 8.34 9.406 0 .734-.534 1.468-1.4 1.468zm-6.937-8.038c-3.136 0-4.97 2.3-5.403 5.17H66.35c-.467-3.202-2.468-5.17-5.403-5.17zM88 1045.478c-1.834 0-2.668-1.3-2.97-1.9-1.334 1.468-3.27 2.47-5.87 2.47-5.437 0-8.372-4.47-8.372-9.44s3.002-9.406 8.372-9.406c2.335 0 4.203.834 5.504 2.202v-.134c0-.367.133-1.5 1.4-1.5.7 0 1.468.367 1.468 1.4v12.875c0 .434.3.6.467.6.935 0 1.435.667 1.435 1.434a1.37 1.37 0 0 1-1.435 1.401zm-8.84-15.443c-3.336 0-5.504 2.602-5.504 6.57 0 4.003 2.168 6.604 5.504 6.604 3.37 0 5.504-2.602 5.504-6.604 0-3.97-2.135-6.57-5.504-6.57z"/><use xlink:href="#I"/><path d="M115.158 1045.478h-.567c-3.17 0-4.37-1.668-4.37-4.403V1030.6h-1c-.8 0-1.435-.634-1.435-1.4 0-.8.634-1.435 1.4-1.435h1v-4.637c0-.934.7-1.4 1.435-1.4s1.4.467 1.4 1.4v4.637h2.135c.934 0 1.4.768 1.4 1.4 0 .8-.533 1.434-1.4 1.434h-2.135v10.774c0 .934.333 1.268 1.268 1.268h.833c.868 0 1.435.634 1.435 1.4 0 .8-.533 1.435-1.4 1.435zm4.604-20.415a2.402 2.402 0 1 1 0-4.803 2.402 2.402 0 1 1 0 4.803zm0 20.414c-.733 0-1.467-.5-1.467-1.4V1029.2c0-.935.733-1.435 1.467-1.435a1.37 1.37 0 0 1 1.401 1.435v14.876c0 .935-.7 1.4-1.4 1.4zm10.376-14.877h-1.5v13.442c0 .935-.7 1.4-1.468 1.4-.7 0-1.4-.467-1.4-1.4V1030.6h-1.37c-.9 0-1.4-.667-1.4-1.4 0-.768.5-1.435 1.4-1.435h1.367v-2.27c0-2.135 1.77-3.77 3.836-3.77.968 0 1.468.667 1.468 1.434 0 .7-.5 1.4-1.468 1.4-.566 0-.967.434-.967.9v2.302h1.5c.967 0 1.468.667 1.468 1.435 0 .733-.5 1.4-1.468 1.4z"/><use xlink:href="#I" x="42.068"/><path d="M154.725 1045.544c-1.802 0-3.336-1.534-3.336-3.402v-18.98c0-.967.7-1.434 1.435-1.434s1.435.467 1.435 1.4v19.013c0 .4.3.567.467.567.934 0 1.435.667 1.435 1.435 0 .733-.5 1.4-1.435 1.4zm15.37-.066v-1.264c1.886-.237 2.046-.437 2.046-3.157v-6.7c0-2.8-1.248-4.017-3.064-4.017-1.237 0-2.345.6-3.47 1.493v9.476c0 2.527.187 2.658 2.06 2.896v1.264h-8.968v-1.264c2.254-.33 2.5-.4 2.5-3v-8.2c0-2.446-.303-2.565-2.185-2.922v-1.184c2.173-.292 4.63-.807 6.653-1.533l-.052 2.95 2.6-1.745c1.16-.713 2-1.086 3.16-1.086 3.194 0 5.2 2.338 5.2 6.3v7.5c0 2.54.237 2.657 2.277 2.92v1.264h-8.74zm23.9-3.703c-2.458 3.427-5.488 4.178-7.014 4.178-5.142 0-8.124-3.936-8.124-8.594 0-2.745 1.183-5.396 2.832-7.062 1.74-1.8 3.945-2.814 6.082-2.814 3.73 0 6.396 3.126 6.37 6.347-.014.715-.08 1.277-.612 1.4-.767.184-6.17.5-10.318.647.062 4.587 2.717 6.74 5.556 6.74 1.572 0 3.104-.597 4.543-1.866l.686 1.014zm-7.07-12.7c-1.667 0-3.167 1.807-3.516 4.963l5.486-.118c.6-.026.848-.146.848-.792.04-2.022-1.037-4.053-2.818-4.053zm34.284.145c-1.943.343-2.248.624-3.105 2.765-1.33 3.462-3.102 8.53-4.934 13.94h-1.512l-4.65-11.46-4.55 11.46h-1.472l-4.685-14.192c-.687-1.985-.94-2.274-2.855-2.512v-1.25h9.397v1.25c-2.325.345-2.535.672-2.058 2.133l2.52 8.214c1.507-3.68 2.988-7.62 4.327-11.424h1.456c1.4 3.76 2.986 7.702 4.573 11.568.742-2.107 2.062-5.964 2.557-8.108.412-1.674-.008-2.078-2.753-2.383v-1.25h7.742v1.25zm9.4 3.746c-.92-2.606-2.155-3.984-4.2-3.984-1.206 0-2.225.86-2.225 2.266 0 1.497 1.046 2.264 3.16 3.216 3.278 1.496 5.3 2.787 5.3 5.736 0 3.85-3.6 5.764-6.945 5.764-2.06 0-4.088-.737-4.92-1.16l-.662-4.892 1.252-.224c.8 2.5 2.33 4.75 4.976 4.75 1.505 0 2.438-.952 2.438-2.28 0-1.423-.76-2.333-3.092-3.467-2.67-1.295-5.107-2.64-5.107-5.775 0-3.046 2.533-5.42 6.565-5.42 1.818 0 3.242.396 4.112.567l.62 4.577-1.25.328z"/></g><g opacity=".6"><use xlink:href="#J"/><use xlink:href="#K"/><path d="M604.265 1045.98c-.28 0-.58-.2-.58-.56v-.64c-.84.98-2.06 1.54-3.42 1.54-2.48 0-4.56-2.08-4.56-4.56v-5.842c0-.36.3-.56.58-.56.26 0 .56.2.56.56v5.842c0 1.9 1.52 3.42 3.42 3.42s3.42-1.52 3.42-3.42v-5.842c0-.36.3-.56.58-.56.26 0 .56.2.56.56v9.502a.56.56 0 0 1-.561.561z"/><use xlink:href="#L"/><path d="M622.404 1044.797c-.88.98-2.1 1.52-3.58 1.52-3.22 0-5.02-2.64-5.02-5.662 0-3 1.8-5.64 5.02-5.64 1.48 0 2.7.54 3.58 1.52.12.12.16.262.16.38 0 .3-.28.6-.58.6-.14 0-.28-.06-.42-.2-.66-.74-1.58-1.16-2.74-1.16-2.36 0-3.88 1.9-3.88 4.5s1.52 4.52 3.88 4.52c1.16 0 2.08-.44 2.74-1.16.14-.14.28-.2.42-.2.3 0 .58.26.58.58 0 .14-.04.26-.16.398z"/><use xlink:href="#M"/><use xlink:href="#J" x="62.499"/><path d="M647.462 1039.416c-.64 0-1.16-.5-1.16-1.14s.52-1.14 1.16-1.14c.62 0 1.12.5 1.12 1.14s-.5 1.14-1.12 1.14zm0 6.563c-.64 0-1.16-.5-1.16-1.14s.52-1.14 1.16-1.14c.62 0 1.12.5 1.12 1.14s-.5 1.14-1.12 1.14zm15.98.001h-6.66a.61.61 0 0 1-.58-.561v-13.123c0-.36.28-.56.58-.56.26 0 .56.18.56.56v12.543h6.1c.36 0 .56.3.56.58 0 .26-.2.56-.56.56z"/><use xlink:href="#M" x="40.859"/><path d="M682.803 1046.318c-1.74 0-3.04-.72-3.88-1.9v5.182c0 .36-.3.58-.56.58a.58.58 0 0 1-.58-.58v-13.684c0-.36.3-.56.58-.56.26 0 .56.2.56.56v.98c.84-1.16 2.14-1.88 3.88-1.88 3.22 0 5.02 2.64 5.02 5.64 0 3.02-1.8 5.662-5.02 5.662zm0-10.162c-2.38 0-3.88 1.9-3.88 4.5s1.5 4.52 3.88 4.52 3.88-1.92 3.88-4.52-1.5-4.5-3.88-4.5z"/><use xlink:href="#L" x="82.539"/><use xlink:href="#K" x="112.877"/><use xlink:href="#J" x="134.336"/><path d="M726.882 1036.156l-5.42 12.822c-.4.94-1.22 1.2-2.14 1.2h-.88c-.36 0-.56-.3-.56-.58 0-.262.2-.56.56-.56h.88c.44 0 .9-.02 1.08-.48l1.14-2.72-4.142-9.682c-.04-.1-.04-.18-.04-.26 0-.32.28-.54.58-.54.18 0 .4.08.5.34l3.722 8.682 3.68-8.682a.52.52 0 0 1 .52-.34c.3 0 .56.22.56.54 0 .08 0 .16-.04.26zm16.34 9.842c-.16 0-.32-.08-.42-.24l-4.302-5.94h-3.58v5.602c0 .36-.3.56-.56.56-.28 0-.58-.2-.58-.56v-13.123c0-.3.28-.56.58-.56h5.4c2.26 0 4.06 1.8 4.06 4.02 0 2.2-1.72 3.94-3.9 4.06l3.78 5.242c.1.12.14.24.14.36 0 .3-.3.58-.62.58zm-3.44-13.143h-4.86v5.82h4.84a2.91 2.91 0 0 0 2.921-2.92c0-1.82-1.54-2.9-2.9-2.9z"/><use xlink:href="#M" x="121.577"/><path d="M766.662 1036.137l-3.94 9.38c-.12.26-.3.46-.56.46s-.46-.2-.58-.46l-3.94-9.36c-.04-.1-.04-.18-.04-.26 0-.32.28-.54.58-.54.18 0 .4.08.5.34l3.48 8.223 3.46-8.223c.12-.26.32-.36.52-.36.3 0 .58.22.58.54 0 .06 0 .16-.06.262z"/><use xlink:href="#N"/><use xlink:href="#M" x="147.678"/><path d="M797.763 1036.096l-3.26 9.402c-.14.38-.32.48-.58.48-.34 0-.44-.12-.56-.48l-2.62-7.803-2.62 7.803c-.14.38-.32.48-.58.48s-.46-.16-.56-.48l-3.24-9.402a.85.85 0 0 1-.04-.22c0-.318.32-.52.58-.52.2 0 .44.1.52.38l2.74 7.922 2.62-7.822c.12-.38.24-.48.58-.48.24 0 .44.08.56.48l2.66 7.822 2.7-7.922c.1-.28.3-.38.52-.38.3 0 .62.2.62.54 0 .08-.02.14-.04.2zm2.757 11.662c-.08.06-.2.08-.3.08-.32 0-.54-.28-.54-.58 0-.56.86-.64 1-1.28-.6-.04-1.08-.54-1.08-1.14a1.16 1.16 0 0 1 1.16-1.16c.98 0 1.2 1 1.2 1.62 0 .98-.52 1.92-1.44 2.46zm23.522-15.303l-3.52 13.104c-.08.28-.3.42-.56.42-.24 0-.48-.14-.54-.42l-3-11.084-2.98 11.084c-.06.28-.3.42-.54.42-.26 0-.48-.14-.56-.42l-3.52-13.104c-.02-.06-.02-.12-.02-.18a.58.58 0 0 1 .58-.58c.26 0 .46.14.52.44l3 11.082 2.98-11.082a.53.53 0 0 1 .54-.4c.26 0 .48.12.56.4l2.98 11.082 3-11.082c.08-.3.28-.44.52-.44a.58.58 0 0 1 .58.58c0 .06 0 .12-.02.18z"/><use xlink:href="#K" x="242.075"/><use xlink:href="#L" x="230.296"/><use xlink:href="#O"/><path d="M857.96 1045.98c-.28 0-.58-.2-.58-.56v-1c-.84 1.18-2.14 1.9-3.88 1.9-3.22 0-5.02-2.64-5.02-5.662 0-3 1.8-5.64 5.02-5.64 1.74 0 3.04.72 3.88 1.88v-4.602c0-.36.3-.56.58-.56.26 0 .56.2.56.56v13.123c0 .36-.3.56-.56.56zm-4.46-9.822c-2.36 0-3.88 1.9-3.88 4.5s1.52 4.52 3.88 4.52c2.38 0 3.88-1.92 3.88-4.52s-1.5-4.5-3.88-4.5zm22.22 9.822c-.26 0-.56-.18-.56-.56v-6.502h-7.76v6.502c0 .36-.26.56-.56.56-.28 0-.58-.18-.58-.56v-13.123c0-.38.3-.56.58-.56.3 0 .56.2.56.56v5.48h7.762v-5.48c0-.36.26-.56.56-.56.28 0 .58.18.58.56v13.123c0 .36-.28.56-.58.56z"/><use xlink:href="#M" x="254.175"/><use xlink:href="#P"/><use xlink:href="#O" x="59.377"/><use xlink:href="#Q"/><path d="M922.918 1045.98c-.28 0-.58-.2-.58-.56v-5.842c0-1.9-1.52-3.42-3.42-3.42a3.42 3.42 0 0 0-3.421 3.42v5.842c0 .36-.3.56-.56.56-.28 0-.58-.2-.58-.56v-13.123c0-.36.3-.56.58-.56.26 0 .56.2.56.56v4.262c.84-.98 2.06-1.54 3.42-1.54a4.6 4.6 0 0 1 4.561 4.561v5.842c0 .36-.3.56-.56.56zm13.6.338c-4.3 0-5.82-3.56-5.82-7.46 0-3.922 1.52-7.482 5.82-7.482 4.28 0 5.82 3.56 5.82 7.482 0 3.9-1.54 7.46-5.82 7.46zm0-13.803c-3.32 0-4.682 2.6-4.682 6.342 0 3.72 1.36 6.32 4.682 6.32 3.3 0 4.68-2.6 4.68-6.32 0-3.742-1.38-6.342-4.68-6.342z"/><use xlink:href="#L" x="337.174"/><path d="M955.998 1050.54c-1.7 0-4.102-.64-4.102-1.36 0-.32.26-.64.58-.64.22 0 .68.34 1.06.48.52.18 1.34.38 2.46.38 2.56 0 3.88-1.26 3.88-3.72v-1.4c-.88 1.06-2.14 1.7-3.88 1.7-3.16 0-5.02-2.24-5.02-5.322 0-3 1.8-5.64 5.02-5.64 1.74 0 3.04.72 3.88 1.88v-.96c0-.36.3-.56.58-.56.26 0 .56.2.56.56v9.742c0 3.182-1.9 4.86-5.02 4.86zm0-14.383c-2.36 0-3.88 1.9-3.88 4.5 0 2.582 1.42 4.182 3.88 4.182s3.88-1.6 3.88-4.182c0-2.6-1.5-4.5-3.88-4.5z"/><use xlink:href="#P" x="72.76"/><use xlink:href="#R"/><use xlink:href="#N" x="219.816"/><use xlink:href="#J" x="418.033"/><use xlink:href="#P" x="110.86"/><use xlink:href="#Q" x="106.479"/><use xlink:href="#N" x="252.176"/><use xlink:href="#K" x="440.892"/><use xlink:href="#R" x="60.079"/></g><g opacity=".6"><path d="M55.54 80H37.3c-1.44 0-2.64-1.14-2.64-2.52V39.862c0-1.74 1.38-2.58 2.52-2.58 1.32 0 2.64.84 2.64 2.52v35.1h15.72c1.38 0 2.52 1.14 2.52 2.52 0 1.44-1.14 2.58-2.52 2.58zm31.74-13.32h-22.2c.84 5.64 4.44 9.24 9.72 9.24 2.7 0 5.4-.96 7.14-3.12.54-.6 1.14-.96 1.86-.96 1.32 0 2.7 1.2 2.7 2.64 0 .72-.18 1.26-1.44 2.52-2.7 2.64-6.42 4.02-10.26 4.02-9.66 0-15.06-7.98-15.06-16.98 0-8.94 5.4-16.92 15.06-16.92 9.78 0 15 7.98 15 16.92 0 1.32-.96 2.64-2.52 2.64zM74.8 52.222c-5.64 0-8.94 4.14-9.72 9.3h19.44c-.84-5.76-4.44-9.3-9.72-9.3zm34.138 28.798c-4.2 0-7.5-1.44-9.9-3.96v13.02c0 1.68-1.26 2.58-2.64 2.58-1.26 0-2.52-.9-2.52-2.58V50.722c0-1.68 1.26-2.58 2.52-2.58 1.38 0 2.64.9 2.64 2.58 0 0 3.54-3.66 9.9-3.66 9.66 0 15.06 7.92 15.06 16.92 0 9.12-5.4 17.04-15.06 17.04zm0-28.86c-5.94 0-9.9 4.74-9.9 11.82 0 7.2 3.9 11.94 9.9 11.94s9.9-4.68 9.9-11.88c0-7.14-3.9-11.88-9.9-11.88zm33.48.062c-4.62 0-8.52 3.9-8.52 8.58v16.62c0 1.68-1.26 2.58-2.64 2.58-1.26 0-2.52-.9-2.52-2.52v-26.76c0-1.68 1.38-2.58 2.52-2.58 1.2 0 2.34.66 2.58 2.04a13.88 13.88 0 0 1 8.58-3.06c1.74 0 2.64 1.2 2.64 2.58 0 1.32-.9 2.52-2.64 2.52z"/><use xlink:href="#S"/><use xlink:href="#T"/><use xlink:href="#U"/><path d="M254.856 80h-6.9c-1.62 0-2.52-1.26-2.52-2.52 0-1.38.9-2.58 2.52-2.58h.9v-32.52h-.9c-1.62 0-2.52-1.26-2.52-2.52 0-1.38.9-2.58 2.52-2.58h6.9c1.74 0 2.64 1.2 2.64 2.58 0 1.26-.9 2.52-2.64 2.52h-.9V74.9h.9c1.74 0 2.64 1.2 2.64 2.58 0 1.26-.9 2.52-2.64 2.52z"/><use xlink:href="#T" x="81.898"/><use xlink:href="#S" x="153.777"/><path d="M358.174 80c-1.32 0-2.52-.9-2.52-2.52V60.8c0-4.68-3.9-8.58-8.58-8.58-4.62 0-8.52 3.9-8.52 8.58v16.62c0 1.68-1.26 2.64-2.64 2.64-1.26 0-2.52-.9-2.52-2.58V50.66c0-1.74 1.26-2.52 2.52-2.52 1.2 0 2.28.66 2.58 1.98 2.34-1.86 5.28-3 8.58-3 7.44 0 13.68 6.18 13.68 13.68v16.62c0 1.68-1.2 2.58-2.58 2.58zm44.22-37.618h-9.96v35.1c0 1.62-1.2 2.52-2.52 2.52-1.26 0-2.58-.9-2.58-2.52v-35.1h-9.84c-1.74 0-2.64-1.32-2.64-2.58 0-1.2.9-2.52 2.58-2.52h24.96c1.68 0 2.58 1.32 2.58 2.52 0 1.26-.9 2.58-2.58 2.58zM432.152 80c-1.32 0-2.52-.9-2.52-2.52V60.8c0-4.68-3.9-8.58-8.58-8.58-4.62 0-8.52 3.9-8.52 8.58v16.62c0 1.68-1.26 2.64-2.64 2.64-1.26 0-2.52-.9-2.52-2.58V39.862c0-1.74 1.26-2.58 2.52-2.58 1.38 0 2.64.84 2.64 2.52v10.38c2.22-2.1 5.22-3.06 8.52-3.06 7.44 0 13.68 6.18 13.68 13.68v16.62c0 1.68-1.2 2.58-2.58 2.58zm34.32-13.32h-22.2c.84 5.64 4.44 9.24 9.72 9.24 2.7 0 5.4-.96 7.14-3.12.54-.6 1.14-.96 1.86-.96 1.32 0 2.7 1.2 2.7 2.64 0 .72-.18 1.26-1.44 2.52-2.7 2.64-6.42 4.02-10.26 4.02-9.66 0-15.06-7.98-15.06-16.98 0-8.94 5.4-16.92 15.06-16.92 9.78 0 15 7.98 15 16.92 0 1.32-.96 2.64-2.52 2.64zm-12.48-14.46c-5.64 0-8.94 4.14-9.72 9.3h19.44c-.84-5.76-4.44-9.3-9.72-9.3zm74.578-11.758l-9.9 37.438c-.3 1.44-1.08 2.1-2.46 2.1-1.26 0-2.16-.66-2.58-2.1l-8.1-28.74-8.04 28.74c-.42 1.44-1.26 2.1-2.52 2.1-1.32 0-2.16-.66-2.52-2.1l-9.9-37.438c-.06-.24-.12-.54-.12-.84 0-1.5 1.38-2.34 2.7-2.34 1.02 0 2.04.6 2.4 1.86l7.56 28.62 7.92-28.38c.42-1.44 1.26-2.1 2.52-2.1 1.32 0 2.16.66 2.58 2.1l7.92 28.38 7.56-28.62c.36-1.32 1.56-1.98 2.46-1.98 1.32 0 2.64.96 2.64 2.46 0 .3-.06.6-.12.84zM561.45 80c-3.3 0-4.8-2.34-5.34-3.42-2.4 2.64-5.88 4.44-10.56 4.44-9.78 0-15.06-8.04-15.06-16.98s5.4-16.92 15.06-16.92c4.2 0 7.56 1.5 9.9 3.96v-.24c0-.66.24-2.7 2.52-2.7 1.26 0 2.64.66 2.64 2.52v23.16c0 .78.54 1.08.84 1.08 1.68 0 2.58 1.2 2.58 2.58 0 1.26-.9 2.52-2.58 2.52zm-15.9-27.78c-6 0-9.9 4.68-9.9 11.82 0 7.2 3.9 11.88 9.9 11.88 6.06 0 9.9-4.68 9.9-11.88 0-7.14-3.84-11.82-9.9-11.82z"/><use xlink:href="#U" x="361.503"/><path d="M625.4 81.02c-12.9 0-17.46-10.68-17.46-22.38 0-11.76 4.56-22.44 17.46-22.44 12.84 0 17.46 10.68 17.46 22.44 0 11.7-4.62 22.38-17.46 22.38zm0-39.66c-8.52 0-12.3 6.3-12.3 17.28s3.78 17.28 12.3 17.28c8.46 0 12.3-6.3 12.3-17.28s-3.84-17.28-12.3-17.28zm46.86 38.7c-1.14 0-2.28-.66-2.52-1.98-2.4 1.86-5.34 3-8.64 3-7.44 0-13.68-6.18-13.68-13.68V50.78c0-1.68 1.26-2.58 2.52-2.58 1.38 0 2.64.9 2.64 2.52V67.4c0 4.68 3.9 8.58 8.52 8.58 4.68 0 8.58-3.9 8.58-8.58V50.78c0-1.86 1.2-2.64 2.52-2.64 1.38 0 2.58.9 2.58 2.58v26.82c0 1.68-1.2 2.52-2.52 2.52zm18.78-.06h-1.02c-5.7 0-7.86-3-7.86-7.92V53.24h-1.8c-1.44 0-2.58-1.14-2.58-2.52 0-1.44 1.14-2.58 2.52-2.58h1.8V39.8c0-1.68 1.26-2.52 2.58-2.52s2.52.84 2.52 2.52v8.34h3.84c1.68 0 2.52 1.38 2.52 2.52 0 1.44-.96 2.58-2.52 2.58h-3.84v19.38c0 1.68.6 2.28 2.28 2.28h1.5c1.56 0 2.58 1.14 2.58 2.52 0 1.44-.96 2.58-2.52 2.58z"/></g><path d="M54.06 124.505c-1.862 2.583-4.52 4.14-8.473 4.14-8.17 0-11.057-6.763-11.057-14.172 0-7.446 2.888-14.2 11.057-14.2 3.837 0 6.648 1.52 8.435 4.142.2.2.228.38.228.608 0 .607-.57 1.063-1.178 1.063-.304 0-.607-.114-.836-.418-1.367-1.976-3.42-3.23-6.648-3.23-6.308 0-8.9 4.94-8.9 12.044 0 7.067 2.583 12.007 8.9 12.007 3.23 0 5.32-1.216 6.725-3.23.2-.38.532-.494.836-.494.57 0 1.14.494 1.14 1.102 0 .2-.075.418-.228.646zM77.468 128h-.038c-1.254 0-3.04-.684-3.762-2.964-1.596 2.242-4.065 3.6-7.37 3.6-6.193 0-9.536-5.1-9.536-10.752 0-5.737 3.42-10.715 9.536-10.715 3.306 0 5.775 1.368 7.37 3.572v-1.862c0-.607.494-1.063 1.102-1.063.532 0 1.064.38 1.064 1.063v15.31c0 2.432 2.735.912 2.735 2.736A1.04 1.04 0 0 1 77.468 128zm-11.17-18.655c-4.483 0-7.37 3.6-7.37 8.55s2.888 8.587 7.37 8.587c4.52 0 7.37-3.647 7.37-8.587s-2.85-8.55-7.37-8.55zm21.318 19.377c-2.28 0-6.117-.798-7.447-3-.15-.23-.15-.418-.15-.57 0-.607.53-1.14 1.102-1.14.228 0 .607.2.836.532 1.367 1.67 3.8 2.014 5.66 2.014 3.686 0 5.547-1.216 5.547-3.686 0-5.737-12.462-2.698-12.462-10.297 0-3.837 3.837-5.32 7.295-5.32 1.976 0 5.016.685 6.535 2.204.228.228.342.494.342.722 0 .57-.57 1.14-1.178 1.14-.23 0-.494-.076-.722-.304-1.18-1.14-3.306-1.596-4.978-1.596-3.344 0-5.13 1.292-5.13 3.153 0 5.32 12.462 2.508 12.462 10.297 0 4.33-3.8 5.85-7.713 5.85zm28.08-9.726H99.93c.342 4.332 3.153 7.485 7.295 7.485 2.052 0 4.483-.912 5.585-2.622.267-.418.57-.53.912-.53.57 0 1.178.455 1.178 1.025 0 .342 0 .418-.722 1.254-1.748 2.052-4.293 3.04-6.953 3.04-6.117 0-9.536-5.015-9.536-10.752 0-5.7 3.42-10.715 9.536-10.715s9.537 5.054 9.537 10.715c0 .57-.532 1.102-1.064 1.102zm-8.473-9.65c-4.56 0-6.953 3.495-7.295 7.485h14.628c-.342-4.332-3.153-7.485-7.333-7.485zm19.647 19.376c-2.28 0-6.117-.798-7.447-3-.15-.23-.15-.418-.15-.57 0-.607.53-1.14 1.102-1.14.228 0 .607.2.836.532 1.367 1.67 3.8 2.014 5.66 2.014 3.686 0 5.547-1.216 5.547-3.686 0-5.737-12.462-2.698-12.462-10.297 0-3.837 3.837-5.32 7.295-5.32 1.976 0 5.015.685 6.535 2.204.228.228.342.494.342.722 0 .57-.57 1.14-1.178 1.14-.23 0-.494-.076-.722-.304-1.178-1.14-3.306-1.596-4.978-1.596-3.344 0-5.13 1.292-5.13 3.153 0 5.32 12.462 2.508 12.462 10.297 0 4.33-3.8 5.85-7.713 5.85zm44.494-19.492l-6.193 17.857c-.266.722-.607.912-1.102.912-.646 0-.836-.228-1.064-.912l-4.977-14.817-4.978 14.817c-.266.722-.608.912-1.102.912s-.874-.304-1.064-.912l-6.154-17.857a1.61 1.61 0 0 1-.076-.418c0-.607.607-.987 1.102-.987.38 0 .836.2.988.722l5.205 15.046 4.977-14.855c.23-.723.456-.912 1.103-.912.456 0 .836.15 1.063.912l5.054 14.855 5.13-15.046c.2-.532.57-.722.987-.722.57 0 1.18.38 1.18 1.025a1.12 1.12 0 0 1-.076.38zm11.63 19.416c-6.117 0-9.536-5.015-9.536-10.752 0-5.7 3.42-10.715 9.536-10.715s9.537 5.016 9.537 10.715c0 5.737-3.42 10.752-9.537 10.752zm0-19.3c-4.483 0-7.37 3.6-7.37 8.55s2.888 8.587 7.37 8.587c4.52 0 7.37-3.647 7.37-8.587s-2.85-8.55-7.37-8.55zm21.963.34c-3.57 0-6.497 2.888-6.497 6.497v10.753c0 .684-.57 1.063-1.063 1.063-.532 0-1.103-.38-1.103-1.063V108.9c0-.684.57-1.063 1.103-1.063.494 0 1.063.38 1.063 1.063v1.558c1.7-1.86 3.95-2.925 6.497-2.925.684 0 1.102.57 1.102 1.063 0 .532-.418 1.102-1.102 1.102zm6.88 18.54c-2.052 0-3.762-1.9-3.762-4.027v-22.188c0-.684.57-1.063 1.103-1.063.494 0 1.063.38 1.063 1.063V124.2c0 2.432 2.697 1.026 2.697 2.736 0 .645-.455 1.3-1.102 1.3zM232.77 128c-.53 0-1.102-.38-1.102-1.063v-1.9c-1.596 2.242-4.065 3.6-7.37 3.6-6.117 0-9.536-5.015-9.536-10.752 0-5.7 3.42-10.715 9.536-10.715 3.306 0 5.775 1.368 7.37 3.572v-8.74c0-.684.57-1.063 1.102-1.063.494 0 1.064.38 1.064 1.063v24.925c0 .684-.57 1.063-1.064 1.063zm-8.473-18.655c-4.483 0-7.37 3.6-7.37 8.55s2.888 8.587 7.37 8.587c4.52 0 7.37-3.647 7.37-8.587s-2.85-8.55-7.37-8.55zm39.178-.115l-6.193 17.857c-.266.722-.607.912-1.102.912-.646 0-.836-.228-1.064-.912l-4.977-14.817-4.978 14.817c-.266.722-.608.912-1.102.912s-.874-.304-1.064-.912l-6.155-17.857a1.65 1.65 0 0 1-.075-.418c0-.607.607-.987 1.102-.987.38 0 .836.2.988.722l5.205 15.046 4.977-14.855c.23-.723.456-.912 1.103-.912.456 0 .836.15 1.063.912l5.054 14.855 5.13-15.046c.2-.532.57-.722.988-.722.57 0 1.178.38 1.178 1.025a1.12 1.12 0 0 1-.076.38zm4.07-5.052a2.166 2.166 0 1 1 0-4.332 2.166 2.166 0 0 1 0 4.332zm0 23.822c-.532 0-1.103-.342-1.103-1.063V108.9c0-.684.532-1.063 1.103-1.063.494 0 1.063.342 1.063 1.063v18.048c0 .684-.494 1.063-1.063 1.063zm22.836 0c-.532 0-1.102-.38-1.102-1.063v-1.9c-1.596 2.242-4.065 3.6-7.37 3.6-6.117 0-9.536-5.015-9.536-10.752 0-5.7 3.42-10.715 9.536-10.715 3.306 0 5.775 1.368 7.37 3.572v-8.74c0-.684.57-1.063 1.102-1.063.494 0 1.064.38 1.064 1.063v24.925c0 .684-.57 1.063-1.064 1.063zm-8.473-18.655c-4.483 0-7.37 3.6-7.37 8.55s2.888 8.587 7.37 8.587c4.52 0 7.37-3.647 7.37-8.587s-2.85-8.55-7.37-8.55zm31.31 9.65H297.45c.342 4.332 3.153 7.485 7.295 7.485 2.052 0 4.483-.912 5.585-2.622.267-.418.57-.53.912-.53.57 0 1.178.455 1.178 1.025 0 .342 0 .418-.722 1.254-1.748 2.052-4.293 3.04-6.953 3.04-6.117 0-9.536-5.015-9.536-10.752 0-5.7 3.42-10.715 9.536-10.715s9.537 5.054 9.537 10.715c0 .57-.532 1.102-1.064 1.102zm-8.473-9.65c-4.56 0-6.953 3.495-7.295 7.485h14.628c-.342-4.332-3.153-7.485-7.333-7.485z" class="N"/><path d="M34.244 938.17h1011.69" class="O P Q R"/><g opacity=".6"><path d="M809.022 229.068c-.403 0-.837-.217-1.116-.682l-10.418-15.658v15.007c0 .868-.65 1.333-1.364 1.333-.65 0-1.302-.465-1.302-1.302v-19.44c0-.868.682-1.333 1.364-1.333.434 0 .806.186 1.116.65L807.72 223.3v-14.976c0-.9.65-1.333 1.302-1.333.713 0 1.364.434 1.364 1.302v19.44c0 .837-.682 1.333-1.364 1.333z"/><use xlink:href="#V"/><path d="M843.493 214.434l-5.643 13.58c-.28.713-.744 1.054-1.333 1.054-.527 0-1.023-.34-1.333-1.054l-5.643-13.58c-.062-.217-.093-.372-.093-.558 0-.744.682-1.27 1.364-1.27.465 0 .93.248 1.178.806l4.527 10.853 4.527-10.853c.217-.59.775-.837 1.21-.837.713 0 1.364.496 1.364 1.27a1.54 1.54 0 0 1-.124.589z"/><use xlink:href="#W"/><use xlink:href="#X"/><use xlink:href="#Y"/><path d="M882.116 210.093c-1.24 0-2.232-.992-2.232-2.232s.992-2.232 2.232-2.232 2.232.992 2.232 2.232-.992 2.232-2.232 2.232zm0 18.976c-.682 0-1.364-.465-1.364-1.302v-13.83c0-.868.683-1.333 1.364-1.333.65 0 1.303.465 1.303 1.333v13.83c0 .868-.65 1.302-1.303 1.302z"/><use xlink:href="#Z"/><path d="M920.06 229.037c-.682 0-1.333-.434-1.333-1.302 0 0-1.83 1.86-5.116 1.86-4.992 0-7.782-4.093-7.782-8.775 0-4.65 2.79-8.744 7.782-8.744 2.17 0 3.907.744 5.116 2.016v-5.768c0-.9.65-1.333 1.333-1.333s1.333.434 1.333 1.302v19.44c0 .868-.65 1.302-1.333 1.302zm-6.45-14.324c-3.1 0-5.116 2.418-5.116 6.108 0 3.72 2.015 6.14 5.116 6.14 3.132 0 5.116-2.418 5.116-6.14 0-3.7-1.984-6.108-5.116-6.108z"/><use xlink:href="#a"/><path d="M954.657 229.068c-.682 0-1.302-.465-1.302-1.302v-8.62c0-2.418-2.016-4.434-4.434-4.434-2.388 0-4.403 2.015-4.403 4.434v8.59c0 .868-.65 1.364-1.364 1.364-.65 0-1.302-.465-1.302-1.334v-13.86c0-.9.65-1.302 1.302-1.302.62 0 1.18.34 1.333 1.023a7.06 7.06 0 0 1 4.434-1.55c3.845 0 7.07 3.193 7.07 7.07v8.59c0 .868-.62 1.333-1.333 1.333z"/><use xlink:href="#W" x="113.519"/><use xlink:href="#Y" x="104.53"/><path d="M998.738 222.185h-11.473c.435 2.915 2.295 4.775 5.023 4.775 1.395 0 2.8-.496 3.69-1.612.28-.3.59-.496.96-.496.683 0 1.396.62 1.396 1.364 0 .372-.093.65-.744 1.302-1.396 1.364-3.317 2.078-5.302 2.078-4.992 0-7.783-4.124-7.783-8.775 0-4.62 2.79-8.744 7.783-8.744 5.054 0 7.75 4.124 7.75 8.744 0 .682-.496 1.364-1.302 1.364zm-6.45-7.472c-2.915 0-4.62 2.14-5.023 4.806h10.046c-.434-2.977-2.294-4.806-5.022-4.806z"/><use xlink:href="#Z" x="115.441"/><path d="M814.542 261.468c-.65 0-1.303-.465-1.303-1.302V250.4c0-1.8-1.488-3.287-3.255-3.287-1.83 0-3.287 1.488-3.287 3.256v9.767c0 .868-.62 1.333-1.333 1.333-.683 0-1.303-.465-1.303-1.302V250.4a3.31 3.31 0 0 0-3.286-3.287c-1.8 0-3.287 1.488-3.287 3.256v9.767c0 .868-.65 1.333-1.364 1.333-.65 0-1.302-.465-1.302-1.302v-13.86c0-.9.682-1.334 1.364-1.334.434 0 .868.186 1.116.59a5.97 5.97 0 0 1 3.441-1.085c1.86 0 3.535.837 4.62 2.202 1.085-1.364 2.73-2.202 4.59-2.202 3.286 0 5.953 2.635 5.953 5.89v9.767c0 .868-.65 1.334-1.364 1.334z"/><use xlink:href="#b"/><path d="M838.72 261.53c-1.675 0-3.1-1.426-3.1-3.163v-17.642c0-.9.65-1.334 1.333-1.334s1.333.434 1.333 1.302v17.673c0 .372.28.527.435.527.868 0 1.333.62 1.333 1.334 0 .682-.465 1.302-1.333 1.302zm8.152-.062h-.527c-2.946 0-4.062-1.55-4.062-4.093v-9.736h-.93c-.744 0-1.333-.6-1.333-1.302 0-.744.6-1.334 1.302-1.334h.93v-4.3c0-.868.65-1.302 1.333-1.302s1.302.434 1.302 1.302v4.3h1.984c.868 0 1.302.713 1.302 1.303 0 .744-.496 1.333-1.302 1.333h-1.984v10.015c0 .868.3 1.18 1.178 1.18h.775c.806 0 1.333.6 1.333 1.302 0 .744-.496 1.333-1.302 1.333zm4.276-18.975c-1.24 0-2.232-.992-2.232-2.232s.992-2.232 2.232-2.232 2.232.992 2.232 2.232-.992 2.232-2.232 2.232zm0 18.976c-.682 0-1.364-.465-1.364-1.302v-13.83c0-.868.683-1.334 1.364-1.334.65 0 1.303.465 1.303 1.334v13.83c0 .868-.65 1.302-1.303 1.302zm14.076-8.776h-8.867c-.868 0-1.333-.62-1.333-1.302 0-.713.465-1.334 1.333-1.334h8.867c.837 0 1.303.62 1.303 1.334 0 .682-.465 1.302-1.303 1.302zm17.266 8.745c-.682 0-1.333-.435-1.333-1.303 0 0-1.83 1.86-5.116 1.86-4.992 0-7.782-4.093-7.782-8.774 0-4.65 2.8-8.744 7.782-8.744 2.17 0 3.907.744 5.116 2.015v-5.767c0-.9.65-1.333 1.333-1.333s1.334.434 1.334 1.302v19.44c0 .868-.65 1.303-1.334 1.303zm-6.45-14.325c-3.1 0-5.116 2.42-5.116 6.108 0 3.72 2.015 6.14 5.116 6.14 3.132 0 5.116-2.418 5.116-6.14 0-3.7-1.984-6.108-5.116-6.108z"/><use xlink:href="#c"/><use xlink:href="#b" x="77.188"/><path d="M920.06 268.538c-1.9 0-6.573-.682-6.573-2.542 0-.713.65-1.396 1.334-1.396.713 0 .093.093 1.736.713.744.28 1.86.6 3.503.6 3.442 0 5.116-1.644 5.116-4.9v-1.395c-1.2 1.147-2.945 1.86-5.116 1.86-4.898 0-7.782-3.473-7.782-8.248 0-4.65 2.8-8.744 7.782-8.744 2.17 0 3.845.65 5.116 1.984v-.124c0-.868.713-1.334 1.333-1.334.65 0 1.334.465 1.334 1.334v14.666c0 4.93-2.946 7.535-7.783 7.535zm0-21.425c-3.1 0-5.116 2.42-5.116 6.108 0 3.535 1.86 5.612 5.116 5.612s5.116-2.078 5.116-5.612c0-3.7-1.984-6.108-5.116-6.108zm22.538 14.355h-.527c-2.945 0-4.062-1.55-4.062-4.093v-9.736h-.93c-.744 0-1.334-.6-1.334-1.302 0-.744.6-1.334 1.303-1.334h.93v-4.3c0-.868.65-1.302 1.333-1.302s1.302.434 1.302 1.302v4.3h1.984c.868 0 1.302.713 1.302 1.303 0 .744-.496 1.333-1.302 1.333h-1.984v10.015c0 .868.3 1.18 1.178 1.18h.775c.807 0 1.333.6 1.333 1.302 0 .744-.496 1.333-1.302 1.333zm15.656 0c-.682 0-1.302-.465-1.302-1.302v-8.62c0-2.418-2.015-4.434-4.434-4.434-2.387 0-4.402 2.016-4.402 4.434v8.588c0 .868-.65 1.364-1.364 1.364-.65 0-1.303-.465-1.303-1.333v-19.44c0-.9.65-1.334 1.303-1.334.713 0 1.364.434 1.364 1.302v5.364c1.147-1.085 2.697-1.582 4.402-1.582 3.845 0 7.07 3.194 7.07 7.07v8.588c0 .868-.62 1.333-1.333 1.333zm17.73-6.883h-11.472c.434 2.915 2.294 4.775 5.022 4.775 1.396 0 2.8-.496 3.7-1.612.28-.3.6-.496.96-.496.682 0 1.395.62 1.395 1.364 0 .372-.093.65-.744 1.302-1.395 1.364-3.318 2.077-5.302 2.077-4.992 0-7.782-4.124-7.782-8.774 0-4.62 2.8-8.744 7.782-8.744 5.054 0 7.752 4.124 7.752 8.744 0 .682-.496 1.364-1.303 1.364zm-6.45-7.473c-2.914 0-4.62 2.14-5.022 4.806h10.046c-.435-2.977-2.295-4.806-5.023-4.806z"/><use xlink:href="#c" x="92.409"/><path d="M1002.95 261.468c-1.705 0-2.48-1.2-2.76-1.767-1.24 1.364-3.038 2.294-5.457 2.294-5.054 0-7.782-4.154-7.782-8.774s2.8-8.744 7.782-8.744c2.17 0 3.907.775 5.116 2.046v-.124c0-.34.124-1.396 1.302-1.396.65 0 1.364.34 1.364 1.303v11.968c0 .403.28.56.434.56.868 0 1.333.62 1.333 1.333 0 .65-.465 1.302-1.333 1.302zm-8.217-14.356c-3.1 0-5.116 2.42-5.116 6.108 0 3.72 2.015 6.14 5.116 6.14 3.132 0 5.116-2.418 5.116-6.14 0-3.7-1.984-6.108-5.116-6.108zm18.972 14.883c-2.17 0-3.876-.744-5.116-2.046v6.728c0 .868-.65 1.333-1.364 1.333-.65 0-1.302-.465-1.302-1.333v-20.34c0-.868.65-1.334 1.302-1.334.713 0 1.364.465 1.364 1.334 0 0 1.83-1.9 5.116-1.9 4.992 0 7.782 4.093 7.782 8.743 0 4.713-2.8 8.806-7.782 8.806zm0-14.914c-3.07 0-5.116 2.45-5.116 6.108 0 3.72 2.016 6.17 5.116 6.17s5.116-2.418 5.116-6.14c0-3.7-2.016-6.14-5.116-6.14zm23.653-.217l-8.372 19.038c-.62 1.426-1.984 2.077-3.4 2.077h-.992c-.9 0-1.302-.65-1.302-1.364 0-.65.403-1.302 1.302-1.302h.96c.403 0 .837-.062 1.023-.496l2.046-4.6-6.046-13.364a1.12 1.12 0 0 1-.155-.59c0-.775.744-1.302 1.426-1.302.465 0 .868.248 1.116.806l5.054 11.224 4.93-11.224c.248-.558.713-.775 1.147-.775.713 0 1.427.527 1.427 1.27a1.05 1.05 0 0 1-.155.589z"/><use xlink:href="#d"/><use xlink:href="#V" x="-9.392" y="64.8"/><path d="M833.045 293.868h-.527c-2.945 0-4.062-1.55-4.062-4.093v-9.736h-.93c-.744 0-1.333-.6-1.333-1.302 0-.744.6-1.333 1.303-1.333h.93v-4.3c0-.868.65-1.302 1.333-1.302s1.302.434 1.302 1.302v4.3h1.984c.868 0 1.302.713 1.302 1.302 0 .744-.496 1.334-1.302 1.334h-1.984v10.015c0 .868.3 1.178 1.178 1.178h.775c.807 0 1.334.6 1.334 1.303 0 .744-.496 1.333-1.302 1.333zm15.655 0c-.682 0-1.302-.465-1.302-1.302v-8.62c0-2.418-2.015-4.434-4.434-4.434-2.387 0-4.402 2.015-4.402 4.434v8.6c0 .868-.65 1.364-1.364 1.364-.65 0-1.303-.465-1.303-1.334v-19.44c0-.9.65-1.333 1.303-1.333.713 0 1.364.434 1.364 1.302v5.364c1.147-1.085 2.697-1.58 4.402-1.58 3.845 0 7.07 3.193 7.07 7.07v8.6c0 .868-.62 1.333-1.333 1.333zm17.734-6.883H854.96c.435 2.915 2.295 4.775 5.023 4.775 1.395 0 2.8-.496 3.7-1.612.28-.3.6-.496.96-.496.683 0 1.396.62 1.396 1.364 0 .372-.093.65-.744 1.302-1.396 1.364-3.317 2.078-5.302 2.078-4.992 0-7.783-4.124-7.783-8.775 0-4.62 2.8-8.744 7.783-8.744 5.054 0 7.75 4.124 7.75 8.744 0 .682-.496 1.364-1.302 1.364zm-6.45-7.472c-2.915 0-4.62 2.14-5.023 4.806h10.046c-.434-2.977-2.294-4.806-5.022-4.806zm38.536-6.077l-5.116 19.348c-.155.744-.558 1.085-1.27 1.085-.65 0-1.116-.34-1.333-1.085l-4.186-14.852-4.155 14.852c-.217.744-.65 1.085-1.302 1.085-.683 0-1.116-.34-1.303-1.085l-5.116-19.348a1.89 1.89 0 0 1-.062-.435c0-.775.713-1.2 1.396-1.2.527 0 1.054.3 1.24.96l3.906 14.8 4.093-14.666c.217-.744.65-1.085 1.303-1.085.682 0 1.116.34 1.333 1.085l4.093 14.666 3.907-14.8c.186-.682.806-1.023 1.27-1.023.683 0 1.364.496 1.364 1.27 0 .155-.03.3-.062.435z"/><use xlink:href="#a" x="-24.333" y="64.8"/><path d="M924.587 279.513c-2.388 0-4.403 2.015-4.403 4.434v8.59c0 .868-.65 1.333-1.364 1.333-.65 0-1.302-.465-1.302-1.302v-13.83c0-.868.713-1.333 1.302-1.333.62 0 1.21.34 1.334 1.054 1.21-.992 2.853-1.58 4.434-1.58.9 0 1.364.62 1.364 1.333 0 .683-.465 1.303-1.364 1.303z"/><use xlink:href="#e"/><path d="M945.853 293.837c-.683 0-1.333-.434-1.333-1.302 0 0-1.83 1.86-5.116 1.86-4.992 0-7.783-4.093-7.783-8.775 0-4.65 2.8-8.744 7.783-8.744 2.17 0 3.906.744 5.116 2.016v-5.768c0-.9.65-1.333 1.333-1.333s1.333.434 1.333 1.302v19.44c0 .868-.65 1.302-1.333 1.302zm-6.45-14.324c-3.1 0-5.116 2.418-5.116 6.108 0 3.72 2.016 6.14 5.116 6.14 3.13 0 5.116-2.418 5.116-6.14 0-3.7-1.984-6.108-5.116-6.108zm31.56 14.355c-.682 0-1.364-.465-1.364-1.302v-9.208h-10.23v9.208c0 .837-.713 1.302-1.303 1.302-.682 0-1.364-.465-1.364-1.302v-19.472c0-.868.683-1.302 1.364-1.302.6 0 1.303.434 1.303 1.302v7.627h10.23v-7.597c0-.9.713-1.333 1.303-1.333.682 0 1.364.434 1.364 1.333v19.4c0 .868-.713 1.333-1.303 1.333zm17.978-6.883h-11.47c.434 2.915 2.294 4.775 5.022 4.775 1.396 0 2.8-.496 3.7-1.612.28-.3.6-.496.96-.496.682 0 1.395.62 1.395 1.364 0 .372-.093.65-.744 1.302-1.395 1.364-3.318 2.078-5.302 2.078-4.992 0-7.782-4.124-7.782-8.775 0-4.62 2.8-8.744 7.782-8.744 5.054 0 7.752 4.124 7.752 8.744 0 .682-.496 1.364-1.303 1.364zm-6.45-7.472c-2.914 0-4.62 2.14-5.022 4.806h10.046c-.435-2.977-2.295-4.806-5.023-4.806zm25.145 14.355c-1.705 0-2.48-1.2-2.76-1.768-1.24 1.364-3.038 2.295-5.457 2.295-5.054 0-7.782-4.155-7.782-8.775s2.8-8.744 7.782-8.744c2.17 0 3.907.775 5.116 2.046v-.124c0-.34.124-1.395 1.302-1.395.65 0 1.364.34 1.364 1.302v11.97c0 .403.28.558.434.558.868 0 1.333.62 1.333 1.333 0 .65-.465 1.302-1.333 1.302zm-8.217-14.355c-3.1 0-5.116 2.418-5.116 6.108 0 3.72 2.015 6.14 5.116 6.14 3.132 0 5.116-2.418 5.116-6.14 0-3.7-1.984-6.108-5.116-6.108z"/><use xlink:href="#e" x="84.1"/><use xlink:href="#d" x="220.373"/><path d="M1037.33 293.868c-.682 0-1.302-.465-1.302-1.302v-8.62c0-2.418-2.016-4.434-4.434-4.434-2.388 0-4.403 2.015-4.403 4.434v8.6c0 .868-.65 1.364-1.364 1.364-.65 0-1.302-.465-1.302-1.334v-19.44c0-.9.65-1.333 1.302-1.333.713 0 1.364.434 1.364 1.302v5.364c1.147-1.085 2.698-1.58 4.403-1.58 3.845 0 7.07 3.193 7.07 7.07v8.6c0 .868-.62 1.333-1.333 1.333zm-234.013 32.928c-6.666 0-9.022-5.52-9.022-11.565 0-6.077 2.356-11.596 9.022-11.596 6.636 0 9.023 5.52 9.023 11.596 0 6.046-2.387 11.565-9.023 11.565zm0-20.495c-4.402 0-6.356 3.256-6.356 8.93s1.954 8.93 6.356 8.93c4.372 0 6.356-3.256 6.356-8.93s-1.984-8.93-6.356-8.93z"/><use xlink:href="#X" x="-48.64" y="97.2"/><path d="M831.03 333.338c-1.892 0-6.573-.682-6.573-2.543 0-.713.65-1.395 1.333-1.395.713 0 .093.093 1.736.713.744.28 1.86.59 3.504.59 3.44 0 5.116-1.644 5.116-4.898v-1.396c-1.21 1.147-2.946 1.86-5.116 1.86-4.9 0-7.783-3.473-7.783-8.247 0-4.65 2.79-8.744 7.783-8.744 2.17 0 3.845.65 5.116 1.984v-.124c0-.868.713-1.333 1.333-1.333.65 0 1.333.465 1.333 1.333v14.666c0 4.93-2.945 7.534-7.782 7.534zm0-21.425c-3.1 0-5.116 2.418-5.116 6.108 0 3.534 1.86 5.61 5.116 5.61s5.116-2.077 5.116-5.61c0-3.7-1.984-6.108-5.116-6.108z"/><use xlink:href="#f"/><path d="M873.037 326.27c-.682 0-1.302-.465-1.302-1.302v-8.62c0-2.418-2.016-4.434-4.434-4.434-2.388 0-4.403 2.015-4.403 4.434v8.59c0 .868-.65 1.364-1.364 1.364-.65 0-1.302-.466-1.302-1.333v-13.86c0-.9.65-1.302 1.302-1.302.62 0 1.18.34 1.333 1.023a7.06 7.06 0 0 1 4.434-1.55c3.845 0 7.07 3.193 7.07 7.07v8.59c0 .868-.62 1.333-1.333 1.333z"/><use xlink:href="#g"/><path d="M888.442 326.796c-1.706 0-4.558-.527-6.015-2.325-.186-.28-.28-.56-.28-.807 0-.775.744-1.396 1.396-1.396.372 0 .65.187.96.527.96 1.054 2.543 1.364 3.938 1.364 2.79 0 3.7-.96 3.7-2.356 0-3.97-9.457-1.52-9.457-7.906 0-3.38 3.163-4.62 6.108-4.62 1.674 0 5.612.837 5.612 2.573 0 .683-.558 1.396-1.302 1.396-.28 0-.713-.155-1.023-.403-.837-.713-2.046-.93-3.286-.93-2.574 0-3.473.96-3.473 1.984 0 3.69 9.487 1.302 9.487 7.906 0 3.66-3.07 4.992-6.356 4.992z"/><use xlink:href="#f" x="54.777"/><path d="M920.248 326.27h-.527c-2.946 0-4.062-1.55-4.062-4.093v-9.736h-.93c-.744 0-1.333-.6-1.333-1.302 0-.744.6-1.333 1.302-1.333h.93v-4.3c0-.868.65-1.302 1.333-1.302s1.302.434 1.302 1.302v4.3h1.984c.868 0 1.302.713 1.302 1.302 0 .744-.496 1.333-1.302 1.333h-1.984v10.015c0 .868.3 1.178 1.178 1.178h.775c.806 0 1.333.6 1.333 1.303 0 .744-.496 1.333-1.302 1.333zm4.276-18.977c-1.24 0-2.232-.992-2.232-2.232s.992-2.232 2.232-2.232 2.232.992 2.232 2.232-.992 2.232-2.232 2.232zm0 18.976c-.682 0-1.364-.465-1.364-1.302v-13.83c0-.868.683-1.333 1.364-1.333.65 0 1.303.465 1.303 1.333v13.83c0 .867-.65 1.302-1.303 1.302zm11.658.527c-4.992 0-7.783-4.093-7.783-8.774 0-4.65 2.8-8.744 7.783-8.744s7.782 4.093 7.782 8.744c0 4.682-2.8 8.774-7.782 8.774zm0-14.883c-3.1 0-5.116 2.418-5.116 6.108 0 3.72 2.016 6.14 5.116 6.14 3.13 0 5.116-2.418 5.116-6.14 0-3.7-1.984-6.108-5.116-6.108zm23.033 14.357c-.682 0-1.302-.465-1.302-1.302v-8.62c0-2.418-2.015-4.434-4.434-4.434-2.387 0-4.402 2.015-4.402 4.434v8.6c0 .868-.65 1.364-1.364 1.364-.65 0-1.303-.466-1.303-1.333v-13.86c0-.9.65-1.302 1.303-1.302.62 0 1.178.34 1.333 1.023a7.06 7.06 0 0 1 4.434-1.55c3.845 0 7.07 3.193 7.07 7.07v8.6c0 .868-.62 1.333-1.333 1.333zm31.185-14.698l-4.806 13.612c-.248.682-.683 1.085-1.364 1.085-.65 0-1.023-.28-1.303-1.085L979.3 314.95l-3.66 10.232c-.248.744-.682 1.085-1.333 1.085-.62 0-1.055-.34-1.303-1.085l-4.774-13.612c-.062-.186-.062-.3-.062-.496 0-.775.713-1.27 1.364-1.27a1.23 1.23 0 0 1 1.21.868l3.597 10.355L978 310.9c.248-.713.558-1.085 1.302-1.085.682 0 1.054.34 1.302 1.085l3.628 10.14 3.627-10.355c.217-.62.713-.868 1.178-.868.713 0 1.426.527 1.426 1.302 0 .155 0 .28-.062.465zm14.384 14.698c-.682 0-1.302-.465-1.302-1.302v-8.62c0-2.418-2.016-4.434-4.434-4.434-2.388 0-4.403 2.015-4.403 4.434v8.6c0 .868-.65 1.364-1.364 1.364-.65 0-1.302-.466-1.302-1.333v-19.44c0-.9.65-1.333 1.302-1.333.713 0 1.364.434 1.364 1.302v5.364c1.147-1.085 2.698-1.58 4.403-1.58 3.845 0 7.07 3.193 7.07 7.07v8.6c0 .868-.62 1.333-1.333 1.333z"/><use xlink:href="#g" x="131.747"/><path d="M1027.63 324.44c-1.364 1.52-3.255 2.356-5.55 2.356-4.992 0-7.782-4.093-7.782-8.774 0-4.65 2.8-8.744 7.782-8.744 2.295 0 4.186.837 5.55 2.356.248.28.372.6.372.9 0 .682-.682 1.333-1.395 1.333-.28 0-.62-.124-.96-.434-.868-.96-2.015-1.52-3.566-1.52-3.1 0-5.116 2.418-5.116 6.108 0 3.72 2.015 6.14 5.116 6.14 1.55 0 2.728-.6 3.566-1.52a1.24 1.24 0 0 1 .96-.465c.713 0 1.395.62 1.395 1.364 0 .28-.124.62-.372.9zm15.283 1.83c-.682 0-1.302-.465-1.302-1.302v-8.62c0-2.418-2.015-4.434-4.434-4.434-2.387 0-4.402 2.015-4.402 4.434v8.6c0 .868-.65 1.364-1.364 1.364-.65 0-1.303-.466-1.303-1.333v-19.44c0-.9.65-1.333 1.303-1.333.713 0 1.364.434 1.364 1.302v5.364c1.147-1.085 2.697-1.58 4.402-1.58 3.845 0 7.07 3.193 7.07 7.07v8.6c0 .868-.62 1.333-1.333 1.333z"/><use xlink:href="#h"/><use xlink:href="#i"/><use xlink:href="#j"/><use xlink:href="#k"/><use xlink:href="#l"/><use xlink:href="#i" x="36.578"/><path d="M863.208 359.195c-3.317 0-5.085-1.83-5.116-1.86 0 .868-.65 1.302-1.364 1.302-.65 0-1.302-.434-1.302-1.302v-19.4c0-.9.65-1.333 1.302-1.333.713 0 1.364.434 1.364 1.303v5.798c1.24-1.27 2.946-2.016 5.116-2.016 4.992 0 7.782 4.093 7.782 8.743 0 4.683-2.8 8.775-7.782 8.775zm0-14.883c-3.1 0-5.116 2.418-5.116 6.107 0 3.72 2.016 6.14 5.116 6.14s5.116-2.42 5.116-6.14c0-3.7-2.016-6.107-5.116-6.107zm22.786 14.388c-.6 0-1.178-.342-1.302-1.023-1.24.96-2.76 1.55-4.465 1.55-3.845 0-7.07-3.194-7.07-7.07v-8.588c0-.868.65-1.334 1.302-1.334.713 0 1.364.466 1.364 1.303v8.62c0 2.42 2.015 4.435 4.403 4.435 2.418 0 4.434-2.016 4.434-4.435v-8.588c0-.96.62-1.364 1.303-1.364.713 0 1.333.465 1.333 1.333v13.86c0 .868-.62 1.303-1.302 1.303z"/><use xlink:href="#k" x="58.125"/><use xlink:href="#m"/><use xlink:href="#n"/><use xlink:href="#i" x="122.477"/><use xlink:href="#k" x="108.994"/><path d="M960.824 344.84h-1.395v12.495c0 .868-.65 1.302-1.364 1.302-.65 0-1.303-.434-1.303-1.302V344.84h-1.27c-.837 0-1.302-.62-1.302-1.303 0-.713.465-1.333 1.302-1.333h1.27v-2.108c0-1.984 1.644-3.504 3.566-3.504.9 0 1.364.62 1.364 1.333 0 .65-.465 1.303-1.364 1.303-.527 0-.9.403-.9.837v2.14h1.395c.9 0 1.364.62 1.364 1.333 0 .682-.465 1.303-1.364 1.303z"/><use xlink:href="#l" x="123.316"/><path d="M985.525 351.785h-11.472c.434 2.914 2.294 4.774 5.022 4.774 1.396 0 2.8-.496 3.7-1.612.28-.3.6-.496.96-.496.682 0 1.395.62 1.395 1.364 0 .372-.093.65-.744 1.302-1.395 1.365-3.318 2.078-5.302 2.078-4.992 0-7.782-4.124-7.782-8.775 0-4.62 2.8-8.743 7.782-8.743 5.054 0 7.752 4.124 7.752 8.743 0 .683-.496 1.365-1.303 1.365zm-6.45-7.473c-2.914 0-4.62 2.14-5.022 4.806H984.1c-.435-2.977-2.295-4.806-5.023-4.806zm23.377 7.473H990.98c.435 2.914 2.295 4.774 5.023 4.774 1.395 0 2.8-.496 3.7-1.612.28-.3.6-.496.96-.496.683 0 1.396.62 1.396 1.364 0 .372-.093.65-.744 1.302-1.396 1.365-3.317 2.078-5.302 2.078-4.992 0-7.783-4.124-7.783-8.775 0-4.62 2.8-8.743 7.783-8.743 5.054 0 7.75 4.124 7.75 8.743 0 .683-.496 1.365-1.302 1.365zm-6.45-7.473c-2.915 0-4.62 2.14-5.023 4.806h10.046c-.434-2.977-2.294-4.806-5.022-4.806zm21.452 14.356h-.527c-2.946 0-4.062-1.55-4.062-4.093v-9.735h-.93c-.744 0-1.333-.6-1.333-1.303 0-.744.6-1.333 1.302-1.333h.93v-4.3c0-.87.65-1.303 1.333-1.303s1.302.434 1.302 1.303v4.3h1.984c.868 0 1.302.713 1.302 1.302 0 .744-.496 1.334-1.302 1.334h-1.984v10.015c0 .868.3 1.178 1.178 1.178h.775c.806 0 1.333.6 1.333 1.303 0 .744-.496 1.333-1.302 1.333zm9.92.527c-4.992 0-7.782-4.093-7.782-8.775 0-4.65 2.8-8.743 7.782-8.743s7.783 4.093 7.783 8.743c0 4.683-2.8 8.775-7.783 8.775zm0-14.883c-3.1 0-5.116 2.418-5.116 6.107 0 3.72 2.015 6.14 5.116 6.14 3.132 0 5.116-2.42 5.116-6.14 0-3.7-1.984-6.107-5.116-6.107z"/><use xlink:href="#j" x="-23.404" y="32.401"/><path d="M821.484 391.1c-.6 0-1.178-.342-1.302-1.023-1.24.96-2.76 1.55-4.465 1.55-3.845 0-7.07-3.194-7.07-7.07v-8.588c0-.868.65-1.334 1.302-1.334.713 0 1.364.466 1.364 1.303v8.62c0 2.42 2.016 4.435 4.403 4.435 2.418 0 4.434-2.016 4.434-4.435v-8.588c0-.96.62-1.364 1.302-1.364.713 0 1.333.465 1.333 1.333v13.86c0 .868-.62 1.303-1.302 1.303zM831 377.24h-1.396v12.495c0 .868-.65 1.302-1.364 1.302-.65 0-1.302-.434-1.302-1.302V377.24h-1.27c-.837 0-1.302-.62-1.302-1.303 0-.713.465-1.333 1.302-1.333h1.27v-2.108c0-1.984 1.643-3.504 3.565-3.504.9 0 1.364.62 1.364 1.333 0 .65-.465 1.303-1.364 1.303-.527 0-.9.403-.9.837v2.14H831c.9 0 1.364.62 1.364 1.333 0 .682-.465 1.303-1.364 1.303z"/><path d="M838.967 377.24h-1.396v12.495c0 .868-.65 1.302-1.364 1.302-.65 0-1.302-.434-1.302-1.302V377.24h-1.27c-.837 0-1.302-.62-1.302-1.303 0-.713.465-1.333 1.302-1.333h1.27v-2.108c0-1.984 1.643-3.504 3.565-3.504.9 0 1.364.62 1.364 1.333 0 .65-.465 1.303-1.364 1.303-.527 0-.9.403-.9.837v2.14h1.396c.9 0 1.364.62 1.364 1.333 0 .682-.465 1.303-1.364 1.303z"/><use xlink:href="#o"/><use xlink:href="#p"/><use xlink:href="#m" x="-31.469" y="32.401"/><use xlink:href="#p" x="25.195"/><use xlink:href="#n" x="-22.48" y="32.401"/><use xlink:href="#q"/><path d="M942.097 391.596c-4.992 0-7.783-4.093-7.783-8.775 0-4.65 2.79-8.743 7.783-8.743s7.782 4.093 7.782 8.743c0 4.683-2.79 8.775-7.782 8.775zm0-14.883c-3.1 0-5.116 2.418-5.116 6.107 0 3.72 2.016 6.14 5.116 6.14 3.13 0 5.116-2.42 5.116-6.14 0-3.69-1.984-6.107-5.116-6.107z"/><use xlink:href="#l" x="111.903" y="32.4"/><path d="M964.228 391.13c-1.675 0-3.1-1.427-3.1-3.163v-17.643c0-.9.65-1.333 1.333-1.333s1.333.434 1.333 1.303v17.673c0 .372.28.527.435.527.868 0 1.333.62 1.333 1.333 0 .682-.465 1.303-1.333 1.303z"/><use xlink:href="#h" x="172.32" y="32.4"/><use xlink:href="#q" x="72.32"/><use xlink:href="#i" x="194.513" y="32.401"/><path d="M1026.88 391.037c-.682 0-1.333-.434-1.333-1.302 0 0-1.83 1.86-5.116 1.86-4.992 0-7.782-4.093-7.782-8.775 0-4.65 2.79-8.743 7.782-8.743 2.17 0 3.907.744 5.116 2.016v-5.768c0-.9.65-1.333 1.333-1.333s1.333.434 1.333 1.303v19.44c0 .868-.65 1.302-1.333 1.302zm-6.45-14.324c-3.1 0-5.116 2.418-5.116 6.107 0 3.72 2.015 6.14 5.116 6.14 3.132 0 5.116-2.42 5.116-6.14 0-3.69-1.984-6.107-5.116-6.107z"/><use xlink:href="#o" x="189.492"/></g><circle cx="297.134" cy="219.068" r="14.112" opacity=".2"/><path d="M297.134 206.956a12.13 12.13 0 0 1 12.112 12.112 12.13 12.13 0 0 1-12.112 12.112 12.13 12.13 0 0 1-12.112-12.112 12.13 12.13 0 0 1 12.112-12.112m0-2c-7.794 0-14.112 6.318-14.112 14.112s6.318 14.112 14.112 14.112 14.112-6.318 14.112-14.112-6.318-14.112-14.112-14.112z" class="N"/><path d="M311.245 219.068h476.292" stroke="#000" stroke-dasharray="2,6" class="O P Q"/><defs ><path id="D" d="M1040 1080H40c-22.09 0-40-17.91-40-40V40C0 17.91 17.91 0 40 0h1000c22.09 0 40 17.91 40 40v1000c0 22.09-17.91 40-40 40z"/><path id="E" d="M45.52 978.953c.32 2.305 1.6 2.688 2.495 2.688 2.048 0 3.328-2.816 3.392-9.248-.928.992-2.176 1.76-3.552 1.76-2.592 0-4.96-1.856-4.96-7.104 0-4.48 1.92-7.23 4.96-7.23 4 0 5.92 2.304 5.92 10.623 0 9.28-2.176 13.12-5.823 13.12-2.976 0-4.096-1.792-4.544-4.48l2.112-.128zm5.95-10.88c0-4.672-1.216-6.335-3.264-6.335-1.792 0-3.008 1.344-3.008 5.343 0 4.128 1.408 5.152 2.88 5.152s2.624-.96 3.392-1.984v-2.176z"/><path id="F" d="M999.44 983.24v-1.92c2.048-6.848 8.447-10.687 8.447-15.935 0-2.432-1.216-3.647-2.784-3.647-1.823 0-3.168 1.407-3.36 4.863h-2.112c.256-5.248 2.624-6.783 5.408-6.783 3.04 0 5.15 2.048 5.15 5.887 0 5.76-5.184 7.552-8.64 15.615h8.768v1.92h-10.88z"/><path id="G" d="M1017.294 983.562c-3.775 0-5.567-3.52-5.567-11.87s1.792-11.87 5.567-11.87 5.567 3.52 5.567 11.87-1.792 11.87-5.567 11.87zm0-21.822c-2.112 0-3.264 2.367-3.264 9.95s1.15 9.95 3.264 9.95 3.264-2.368 3.264-9.95-1.152-9.95-3.264-9.95z"/><path id="H" d="M57.176 362.4c-3.776 0-5.568-3.52-5.568-11.87s1.792-11.87 5.568-11.87 5.567 3.52 5.567 11.87-1.79 11.87-5.567 11.87zm0-21.822c-2.112 0-3.264 2.368-3.264 9.95s1.152 9.95 3.264 9.95 3.264-2.368 3.264-9.95-1.152-9.95-3.264-9.95z"/><path id="I" d="M104.714 1045.51c-.633 0-1.267-.367-1.4-1.1-1.334 1.034-2.97 1.668-4.804 1.668-4.136 0-7.604-3.436-7.604-7.605v-9.24a1.37 1.37 0 0 1 1.4-1.435c.768 0 1.468.5 1.468 1.4v9.272c0 2.602 2.168 4.77 4.736 4.77 2.603 0 4.77-2.17 4.77-4.77v-9.24c0-1.034.667-1.468 1.4-1.468.768 0 1.435.5 1.435 1.435v14.9c0 .934-.667 1.4-1.4 1.4z"/><path id="J" d="M577.764 1046.357c-1.2 0-3.22-.42-3.92-1.58-.08-.12-.08-.22-.08-.3 0-.32.28-.602.58-.602.12 0 .32.102.44.28.72.88 2 1.06 2.98 1.06 1.94 0 2.92-.64 2.92-1.94 0-3.02-6.562-1.42-6.562-5.422 0-2.02 2.02-2.8 3.84-2.8 1.04 0 2.64.36 3.44 1.16.12.12.18.26.18.38a.65.65 0 0 1-.62.6c-.12 0-.26-.04-.38-.16-.62-.6-1.74-.84-2.62-.84-1.76 0-2.7.682-2.7 1.66 0 2.8 6.562 1.32 6.562 5.422 0 2.28-2 3.08-4.06 3.08z"/><path id="K" d="M588.485 1046.318c-3.22 0-5.02-2.64-5.02-5.662 0-3 1.8-5.64 5.02-5.64s5.02 2.64 5.02 5.64c0 3.02-1.8 5.662-5.02 5.662zm0-10.162c-2.36 0-3.88 1.9-3.88 4.5s1.52 4.52 3.88 4.52c2.38 0 3.88-1.92 3.88-4.52s-1.5-4.5-3.88-4.5z"/><path id="L" d="M612.224 1036.336a3.42 3.42 0 0 0-3.421 3.42v5.662c0 .36-.3.56-.56.56-.28 0-.58-.2-.58-.56v-9.502c0-.36.3-.56.58-.56.26 0 .56.2.56.56v.82c.9-.98 2.08-1.54 3.42-1.54.36 0 .58.3.58.56a.58.58 0 0 1-.58.58z"/><path id="M" d="M633.985 1041.236h-8.302c.18 2.28 1.66 3.94 3.84 3.94 1.08 0 2.36-.48 2.94-1.38.14-.22.3-.28.48-.28.3 0 .62.24.62.54 0 .18 0 .22-.38.658-.92 1.082-2.26 1.602-3.66 1.602-3.22 0-5.02-2.64-5.02-5.662 0-3 1.8-5.64 5.02-5.64s5.02 2.66 5.02 5.64c0 .3-.28.58-.56.58zm-4.46-5.08c-2.4 0-3.66 1.84-3.84 3.94h7.7c-.18-2.28-1.66-3.94-3.86-3.94z"/><path id="N" d="M769.24 1033.436c-.64 0-1.14-.5-1.14-1.14s.5-1.14 1.14-1.14 1.14.5 1.14 1.14-.5 1.14-1.14 1.14zm0 12.543c-.28 0-.58-.18-.58-.56v-9.502c0-.36.28-.56.58-.56.26 0 .56.18.56.56v9.502c0 .36-.26.56-.56.56z"/><path id="O" d="M846.54 1046.098c-1.08 0-1.98-1-1.98-2.12v-11.684c0-.36.3-.56.58-.56.26 0 .56.2.56.56v11.684c0 1.28 1.42.54 1.42 1.44 0 .34-.24.68-.58.68z"/><path id="P" d="M901.54 1045.98h-.02c-.66 0-1.6-.36-1.98-1.56-.84 1.18-2.14 1.9-3.88 1.9-3.26 0-5.02-2.682-5.02-5.662 0-3.02 1.8-5.64 5.02-5.64 1.74 0 3.04.72 3.88 1.88v-.98c0-.32.26-.56.58-.56.28 0 .56.2.56.56v8.063c0 1.28 1.44.48 1.44 1.44a.55.55 0 0 1-.58.561zm-5.88-9.822c-2.36 0-3.88 1.9-3.88 4.5s1.52 4.52 3.88 4.52c2.38 0 3.88-1.92 3.88-4.52s-1.5-4.5-3.88-4.5z"/><path id="Q" d="M911.978 1045.98h-.62c-1.58 0-2.36-.78-2.36-2.342v-7.14h-1.02c-.36 0-.56-.3-.56-.58 0-.26.2-.56.56-.56h1.02v-3.06c0-.36.3-.56.58-.56s.56.2.56.56v3.06h1.84c.36 0 .56.3.56.56 0 .28-.2.58-.56.58h-1.84v7.14c0 .98.28 1.2 1.22 1.2h.62c.36 0 .56.3.56.58 0 .26-.2.56-.56.56z"/><path id="R" d="M985.258 1045.98c-.28 0-.58-.2-.58-.56v-5.842c0-1.9-1.52-3.42-3.42-3.42a3.42 3.42 0 0 0-3.421 3.42v5.842c0 .36-.3.56-.56.56-.28 0-.58-.2-.58-.56v-9.502c0-.36.3-.56.58-.56.26 0 .56.2.56.56v.64c.9-.98 2.08-1.54 3.42-1.54a4.6 4.6 0 0 1 4.561 4.561v5.842c0 .36-.3.56-.56.56z"/><path id="S" d="M159.818 81.02c-9.66 0-15.06-7.92-15.06-16.98 0-9 5.4-16.92 15.06-16.92s15.06 7.92 15.06 16.92c0 9.06-5.4 16.98-15.06 16.98zm0-28.8c-6 0-9.9 4.68-9.9 11.82 0 7.2 3.9 11.88 9.9 11.88 6.06 0 9.9-4.68 9.9-11.88 0-7.14-3.84-11.82-9.9-11.82z"/><path id="T" d="M189.638 81.02c-3.3 0-8.82-1.02-11.64-4.5-.36-.54-.54-1.08-.54-1.56 0-1.5 1.44-2.7 2.7-2.7.72 0 1.26.36 1.86 1.02 1.86 2.04 4.92 2.64 7.62 2.64 5.4 0 7.14-1.86 7.14-4.56 0-7.68-18.3-2.94-18.3-15.3 0-6.54 6.12-8.94 11.82-8.94 3.24 0 10.86 1.62 10.86 4.98 0 1.32-1.08 2.7-2.52 2.7-.54 0-1.38-.3-1.98-.78-1.62-1.38-3.96-1.8-6.36-1.8-4.98 0-6.72 1.86-6.72 3.84 0 7.14 18.36 2.52 18.36 15.3 0 7.08-5.94 9.66-12.3 9.66z"/><path id="U" d="M231.697 51.742l-16.2 36.838c-1.2 2.76-3.84 4.02-6.6 4.02h-1.92c-1.74 0-2.52-1.26-2.52-2.64 0-1.26.78-2.52 2.52-2.52h1.86c.78 0 1.62-.12 1.98-.96l3.96-8.88-11.7-25.86c-.24-.42-.3-.78-.3-1.14 0-1.5 1.44-2.52 2.76-2.52.9 0 1.68.48 2.16 1.56l9.78 21.72 9.54-21.72c.48-1.08 1.38-1.5 2.22-1.5 1.38 0 2.76 1.02 2.76 2.46 0 .42-.06.72-.3 1.14z"/><path id="V" d="M820.615 229.596c-4.992 0-7.783-4.093-7.783-8.775 0-4.65 2.79-8.744 7.783-8.744s7.782 4.093 7.782 8.744c0 4.682-2.79 8.775-7.782 8.775zm0-14.883c-3.1 0-5.116 2.418-5.116 6.108 0 3.72 2.016 6.14 5.116 6.14 3.13 0 5.116-2.418 5.116-6.14 0-3.7-1.984-6.108-5.116-6.108z"/><path id="W" d="M860.637 229.068c-1.705 0-2.48-1.21-2.76-1.768-1.24 1.364-3.038 2.295-5.457 2.295-5.054 0-7.782-4.155-7.782-8.775s2.79-8.744 7.782-8.744c2.17 0 3.907.775 5.116 2.046V214c0-.34.124-1.395 1.302-1.395.65 0 1.364.34 1.364 1.302v11.97c0 .403.28.558.434.558.868 0 1.333.62 1.333 1.334 0 .65-.465 1.302-1.333 1.302zm-8.217-14.355c-3.1 0-5.116 2.418-5.116 6.108 0 3.72 2.015 6.14 5.116 6.14 3.132 0 5.116-2.418 5.116-6.14 0-3.7-1.984-6.108-5.116-6.108z"/><path id="X" d="M870.68 214.713c-2.387 0-4.402 2.015-4.402 4.434v8.59c0 .868-.65 1.333-1.364 1.333-.65 0-1.303-.465-1.303-1.302v-13.83c0-.868.713-1.333 1.303-1.333.62 0 1.21.34 1.333 1.054a7.17 7.17 0 0 1 4.434-1.581c.9 0 1.364.62 1.364 1.333 0 .683-.465 1.303-1.364 1.303z"/><path id="Y" d="M877.84 229.068h-.527c-2.946 0-4.062-1.55-4.062-4.093v-9.736h-.93c-.744 0-1.333-.59-1.333-1.302 0-.744.59-1.333 1.302-1.333h.93v-4.3c0-.868.65-1.302 1.333-1.302s1.302.434 1.302 1.302v4.3h1.984c.868 0 1.302.713 1.302 1.302 0 .744-.496 1.333-1.302 1.333h-1.984v10.015c0 .868.3 1.178 1.178 1.178h.775c.806 0 1.333.59 1.333 1.303 0 .744-.496 1.333-1.302 1.333z"/><path id="Z" d="M891.882 229.596c-1.705 0-4.558-.527-6.015-2.326-.186-.28-.28-.558-.28-.806 0-.775.744-1.396 1.395-1.396.372 0 .65.187.96.527.96 1.054 2.542 1.364 3.938 1.364 2.79 0 3.69-.96 3.69-2.356 0-3.97-9.457-1.52-9.457-7.906 0-3.38 3.163-4.62 6.108-4.62 1.675 0 5.612.837 5.612 2.573 0 .683-.558 1.396-1.302 1.396-.28 0-.713-.155-1.023-.403-.837-.713-2.047-.93-3.287-.93-2.573 0-3.473.96-3.473 1.984 0 3.69 9.488 1.302 9.488 7.906 0 3.66-3.07 4.992-6.356 4.992z"/><path id="a" d="M931.623 229.596c-4.992 0-7.782-4.093-7.782-8.775 0-4.65 2.79-8.744 7.782-8.744s7.783 4.093 7.783 8.744c0 4.682-2.79 8.775-7.783 8.775zm0-14.883c-3.1 0-5.116 2.418-5.116 6.108 0 3.72 2.015 6.14 5.116 6.14 3.132 0 5.116-2.418 5.116-6.14 0-3.7-1.984-6.108-5.116-6.108z"/><path id="b" d="M831.342 261.5c-.59 0-1.178-.34-1.302-1.023-1.24.96-2.76 1.55-4.465 1.55-3.845 0-7.07-3.193-7.07-7.07v-8.59c0-.868.65-1.333 1.302-1.333.713 0 1.364.465 1.364 1.302v8.62c0 2.418 2.015 4.434 4.403 4.434 2.418 0 4.434-2.015 4.434-4.434v-8.59c0-.96.62-1.364 1.303-1.364.713 0 1.333.465 1.333 1.333v13.86c0 .868-.62 1.302-1.302 1.302z"/><path id="c" d="M894.053 247.112c-2.387 0-4.402 2.016-4.402 4.434v8.588c0 .868-.65 1.333-1.364 1.333-.65 0-1.303-.465-1.303-1.302v-13.83c0-.868.713-1.334 1.303-1.334.62 0 1.21.34 1.333 1.055a7.17 7.17 0 0 1 4.434-1.582c.9 0 1.364.62 1.364 1.334 0 .682-.465 1.302-1.364 1.302z"/><path id="d" d="M801.302 293.868h-.527c-2.946 0-4.062-1.55-4.062-4.093v-9.736h-.93c-.744 0-1.333-.59-1.333-1.302 0-.744.59-1.333 1.302-1.333h.93v-4.3c0-.868.65-1.302 1.333-1.302s1.302.434 1.302 1.302v4.3h1.984c.868 0 1.302.713 1.302 1.302 0 .744-.496 1.334-1.302 1.334h-1.984v10.015c0 .868.3 1.178 1.178 1.178h.775c.806 0 1.333.59 1.333 1.303 0 .744-.496 1.333-1.302 1.333z"/><path id="e" d="M929.422 293.93c-1.675 0-3.1-1.426-3.1-3.163v-17.643c0-.9.65-1.333 1.333-1.333s1.333.434 1.333 1.302v17.673c0 .372.28.527.435.527.868 0 1.333.62 1.333 1.333 0 .682-.465 1.302-1.333 1.302z"/><path id="f" d="M857.258 326.27c-1.706 0-2.48-1.21-2.76-1.768-1.24 1.364-3.04 2.295-5.457 2.295-5.054 0-7.783-4.155-7.783-8.774s2.79-8.744 7.783-8.744c2.17 0 3.906.775 5.116 2.046v-.124c0-.34.124-1.395 1.302-1.395.65 0 1.364.34 1.364 1.302v11.97c0 .403.28.558.434.558.868 0 1.333.62 1.333 1.334 0 .65-.465 1.302-1.333 1.302zm-8.216-14.355c-3.1 0-5.116 2.418-5.116 6.108 0 3.72 2.016 6.14 5.116 6.14 3.13 0 5.116-2.418 5.116-6.14 0-3.7-1.984-6.108-5.116-6.108z"/><path id="g" d="M878.677 307.293c-1.24 0-2.232-.992-2.232-2.232s.992-2.232 2.232-2.232 2.232.992 2.232 2.232-.992 2.232-2.232 2.232zm0 18.976c-.683 0-1.364-.465-1.364-1.302v-13.83c0-.868.682-1.333 1.364-1.333.65 0 1.302.465 1.302 1.333v13.83c0 .867-.65 1.302-1.302 1.302z"/><path id="h" d="M808.34 358.637c-.683 0-1.334-.434-1.334-1.302 0 0-1.83 1.86-5.116 1.86-4.992 0-7.783-4.093-7.783-8.775 0-4.65 2.79-8.743 7.783-8.743 2.17 0 3.906.744 5.116 2.016v-5.768c0-.9.65-1.333 1.334-1.333s1.333.434 1.333 1.303v19.44c0 .868-.65 1.302-1.333 1.302zm-6.45-14.324c-3.1 0-5.116 2.418-5.116 6.107 0 3.72 2.016 6.14 5.116 6.14 3.13 0 5.116-2.42 5.116-6.14 0-3.69-1.984-6.107-5.116-6.107z"/><path id="i" d="M814.26 339.692c-1.24 0-2.232-.992-2.232-2.232s.992-2.232 2.232-2.232 2.232.992 2.232 2.232-.992 2.232-2.232 2.232zm0 18.976c-.682 0-1.364-.465-1.364-1.303v-13.828c0-.868.683-1.333 1.364-1.333.65 0 1.303.465 1.303 1.333v13.828c0 .87-.65 1.303-1.303 1.303z"/><path id="j" d="M824.024 359.195c-1.705 0-4.558-.527-6.015-2.326-.186-.278-.28-.558-.28-.806 0-.775.744-1.396 1.395-1.396.372 0 .65.187.96.527.96 1.055 2.542 1.364 3.938 1.364 2.79 0 3.69-.96 3.69-2.356 0-3.97-9.457-1.52-9.457-7.906 0-3.38 3.163-4.62 6.108-4.62 1.675 0 5.612.837 5.612 2.573 0 .683-.558 1.396-1.302 1.396-.28 0-.713-.155-1.023-.403-.837-.713-2.047-.93-3.287-.93-2.573 0-3.473.96-3.473 1.984 0 3.69 9.488 1.302 9.488 7.906 0 3.658-3.07 4.992-6.356 4.992z"/><path id="k" d="M837.57 358.668h-.527c-2.945 0-4.062-1.55-4.062-4.093v-9.735h-.93c-.744 0-1.333-.6-1.333-1.303 0-.744.59-1.333 1.303-1.333h.93v-4.3c0-.87.65-1.303 1.334-1.303s1.302.434 1.302 1.303v4.3h1.984c.868 0 1.302.713 1.302 1.302 0 .744-.496 1.334-1.302 1.334h-1.984v10.015c0 .868.3 1.178 1.178 1.178h.775c.807 0 1.333.59 1.333 1.303 0 .744-.496 1.333-1.302 1.333z"/><path id="l" d="M847.49 344.313c-2.387 0-4.402 2.016-4.402 4.434v8.59c0 .868-.65 1.333-1.364 1.333-.65 0-1.303-.465-1.303-1.303v-13.828c0-.868.713-1.333 1.303-1.333.62 0 1.21.34 1.333 1.054a7.17 7.17 0 0 1 4.434-1.581c.9 0 1.364.62 1.364 1.333 0 .683-.465 1.303-1.364 1.303z"/><path id="m" d="M912.064 351.785h-11.472c.434 2.914 2.294 4.774 5.022 4.774 1.396 0 2.79-.496 3.7-1.612.28-.31.59-.496.96-.496.682 0 1.395.62 1.395 1.364 0 .372-.093.65-.744 1.302-1.395 1.365-3.318 2.078-5.302 2.078-4.992 0-7.782-4.124-7.782-8.775 0-4.62 2.79-8.743 7.782-8.743 5.054 0 7.752 4.124 7.752 8.743 0 .683-.496 1.365-1.303 1.365zm-6.45-7.473c-2.914 0-4.62 2.14-5.022 4.806h10.046c-.435-2.977-2.295-4.806-5.023-4.806z"/><path id="n" d="M920.65 359.195c-1.706 0-4.558-.527-6.015-2.326-.186-.278-.28-.558-.28-.806 0-.775.744-1.396 1.396-1.396.372 0 .65.187.96.527.96 1.055 2.543 1.364 3.938 1.364 2.79 0 3.7-.96 3.7-2.356 0-3.97-9.457-1.52-9.457-7.906 0-3.38 3.163-4.62 6.108-4.62 1.674 0 5.612.837 5.612 2.573 0 .683-.558 1.396-1.302 1.396-.28 0-.713-.155-1.023-.403-.837-.713-2.046-.93-3.286-.93-2.574 0-3.473.96-3.473 1.984 0 3.69 9.487 1.302 9.487 7.906 0 3.658-3.07 4.992-6.356 4.992z"/><path id="o" d="M855.398 384.186h-11.473c.435 2.914 2.295 4.774 5.023 4.774 1.395 0 2.8-.496 3.69-1.612.28-.31.59-.496.96-.496.683 0 1.396.62 1.396 1.364 0 .372-.093.65-.744 1.302-1.396 1.365-3.317 2.078-5.302 2.078-4.992 0-7.783-4.124-7.783-8.775 0-4.62 2.79-8.743 7.783-8.743 5.054 0 7.75 4.124 7.75 8.743 0 .683-.496 1.365-1.302 1.365zm-6.45-7.473c-2.915 0-4.62 2.14-5.023 4.806h10.046c-.434-2.977-2.294-4.806-5.022-4.806z"/><path id="p" d="M865.875 376.713c-2.388 0-4.403 2.016-4.403 4.434v8.59c0 .868-.65 1.333-1.364 1.333-.65 0-1.302-.465-1.302-1.303v-13.828c0-.868.713-1.333 1.302-1.333.62 0 1.21.34 1.334 1.054 1.21-.992 2.853-1.58 4.434-1.58.9 0 1.364.62 1.364 1.333 0 .683-.465 1.303-1.364 1.303z"/><path id="q" d="M933.45 376.37l-4.806 13.612c-.248.682-.683 1.085-1.364 1.085-.65 0-1.023-.28-1.303-1.085l-3.627-10.232-3.66 10.232c-.248.744-.682 1.085-1.333 1.085-.62 0-1.055-.34-1.303-1.085l-4.774-13.612c-.062-.186-.062-.3-.062-.496 0-.774.713-1.27 1.364-1.27.496 0 .992.248 1.21.868l3.597 10.355 3.66-10.14c.248-.713.558-1.085 1.302-1.085.682 0 1.054.34 1.302 1.085l3.628 10.14 3.627-10.355c.217-.62.713-.868 1.178-.868.713 0 1.426.526 1.426 1.302 0 .155 0 .28-.062.465z"/></defs></svg>