<?xml version="1.0" encoding="utf-8"?>
<!-- Generator: Adobe Illustrator 25.4.1, SVG Export Plug-In . SVG Version: 6.00 Build 0)  -->
<svg version="1.1" id="Layer_1" xmlns="http://www.w3.org/2000/svg" xmlns:xlink="http://www.w3.org/1999/xlink" x="0px" y="0px"
	 viewBox="0 0 760.9 776.8" style="enable-background:new 0 0 760.9 776.8;" xml:space="preserve">
<style type="text/css">
	.st0{fill-rule:evenodd;clip-rule:evenodd;}
</style>
<g>
	<path class="st0" d="M388.8,182c19,1,37,5,54,12c40-88,14-85,33-96s44,11,29,28c-18,20-32,24-44,76c19,9,37,21,52,35
		c98-65,78-116,108-125c32-9,66,43,29,65c-20,12-51,9-94,64c-7,9-12,15-19,22c11,14,20,29,27,45c111-22,90-57,117-49
		c21,7,22,40,0,41c-81,1-48,9-109,32c6,19,9,38,9,59c115,27,138-23,165-7c29,17,14,78-27,66c-23-6-42-31-112-25c-11,1-19,1-28,1
		c-5,26-13,50-26,72c81,54,82,27,89,48c8,21-18,42-32,25c-19-25-15-33-68-56c-13,19-30,36-50,50c33,54,32,63,95,107
		c47,33-49,103-72,39c-9-27,3-62-53-128c-17,8-35,15-54,18c8,54,25,36,16,53c-6,13-28,11-26-3l-1-48l-58-1c-45,110,1,140-19,164
		c-21,26-78,2-61-37c10-21,37-36,42-106c1-12,1-19,3-29c-24-7-46-19-66-35c-65,72-39,77-60,81c-22,5-39-24-20-35c21-12,41-15,65-59
		c-19-18-35-40-46-64c-115,23-116,78-147,75c-34-4-44-65-3-71c24-4,51,11,112-24c10-6,17-9,26-13l-7-79c-95-17-85,8-101-8
		c-15-16,0-46,20-35c28,14,27,23,84,23c5-22,13-43,24-62c-87-81-131-49-147-76c-16-29,27-74,57-43c16,16,20,47,84,77
		c10,5,17,8,25,13c18-22,40-40,65-53c-40-89-55-67-50-88c5-22,38-26,40-4c3,28-3,39,28,83c21-9,44-14,67-16c20-116-31-136-17-164
		c15-30,76-19,67,23c-5,23-28,43-18,113C387.8,164,388.8,172,388.8,182z M253.8,331c28,9,11,59-17,50C208.8,371,225.8,321,253.8,331
		z M430.8,473c35,0,35,53,0,53C396.8,526,396.8,473,430.8,473z M548.8,451c-13,52-66,39-53-13C508.8,385,561.8,398,548.8,451z
		 M218.8,440c11,46-16,43-27-4C181.8,389,207.8,393,218.8,440z M250.8,284c-24,28-41,10-17-18C256.8,238,273.8,256,250.8,284z
		 M306.8,505c50,21,29,71-21,50C235.8,533,256.8,484,306.8,505z M427.8,221c50,21,29,71-21,49C356.8,249,378.8,199,427.8,221z
		 M376.8,340c54,0,54,82,0,82S322.8,340,376.8,340z"/>
</g>
</svg>
