<?xml version="1.0" encoding="utf-8"?>
<!-- Generator: Adobe Illustrator 25.4.1, SVG Export Plug-In . SVG Version: 6.00 Build 0)  -->
<svg version="1.1" id="Layer_1" xmlns="http://www.w3.org/2000/svg" xmlns:xlink="http://www.w3.org/1999/xlink" x="0px" y="0px"
	 viewBox="0 0 78.1 84.4" style="enable-background:new 0 0 78.1 84.4;" xml:space="preserve">
<g>
	<path d="M42.2,54.7h-5.7C36.3,52,35,49.6,33,47.9l-4.6-3.7c-0.2,0.1-0.5,0.2-0.7,0.3l-0.4,0.1L25.9,45l-4.3,1.4
		c-0.4,0.1-0.8,0.2-1.2,0.2c-0.3,0-0.6,0-0.8-0.1c-0.4-0.1-0.8-0.2-1.2-0.5c0,0,0,0-0.1,0c-0.7-0.4-1.2-1-1.5-1.7
		c-0.1-0.2-0.2-0.5-0.3-0.8c0-0.1-0.1-0.3-0.1-0.4c0-0.1,0-0.3,0-0.4c-0.2,0-0.4,0.1-0.6,0.1c-1.4,0.2-2.7,0.2-3.7,0l0.4,0.8
		l0.4,0.8l0.1,0.1c1,1.8,0.4,4.1-1.2,5.3c-0.7,0.5-1.5,0.7-2.4,0.7c-0.5,0-1-0.1-1.5-0.3c0.3,1.8,1.5,3.4,3.1,4.3H0.8
		C0.3,54.7,0,55,0,55.5s0.3,0.8,0.8,0.8h13.8l2.7,25.4c0.2,1.5,1.5,2.7,3,2.7c1.6,0,2.9-1.3,3-2.9l1.2-25.3h2.9c0,3.6,0,18.6,0,25.1
		c0,1.7,1.3,3,3,3h0c1.5,0,2.8-1.1,3-2.6c0.8-6.9,3-25.1,3-25.1c0-0.1,0-0.2,0-0.4h5.8c0.4,0,0.8-0.3,0.8-0.8S42.6,54.7,42.2,54.7z"
		/>
	<path d="M3.1,25.8c0.7,0,1.3-0.3,1.7-0.8l0,0l0.2-0.3l0,0l1.5-2.1c1.5-2,3.8-3.1,6.3-3.1h3.5c2.9,0,5.4-1.6,6.8-3.9
		c1.9-0.1,3.4-1.6,3.4-3.5c0-1.4-0.8-2.5-1.9-3.1C24.9,8.5,25,8,25,7.4c0-1.8-1.4-3.3-3.2-3.5c0-0.1,0-0.3,0-0.4
		c0-1.9-1.6-3.5-3.5-3.5c-1.3,0-2.4,0.7-3,1.8c-0.6-0.6-1.5-1-2.4-1c-1.8,0-3.3,1.4-3.5,3.2c-0.1,0-0.3,0-0.4,0
		C7,3.9,5.5,5.5,5.5,7.4c0,0.5,0.1,0.9,0.3,1.3c-1.5,0.4-2.6,1.8-2.6,3.4c0,1.1,0.6,2.1,1.4,2.8c-1.7,0.3-3,1.7-3,3.5
		c0,1.1,0.5,2.1,1.4,2.8c-1.2,0.1-2.1,1.1-2.1,2.3C0.8,24.7,1.8,25.8,3.1,25.8z M16.4,18c-3.2,0-5.9-2.5-6.2-5.6
		c3.1-0.2,5.1-1.3,6.2-2.8c0.7-0.8,1.1-1.7,1.4-2.6c0.1-0.4,0.2-0.9,0.3-1.3c0.1,0,0.2,0.1,0.3,0.1C19,6,19.5,6.3,20,6.6
		c0.8,0.6,1.5,1.3,1.9,2.2c0.3,0.6,0.5,1.3,0.6,2c0,0.3,0.1,0.6,0.1,1c0,1.3-0.4,2.5-1.1,3.6C20.4,16.9,18.5,18,16.4,18z"/>
	<path d="M21.9,21.9c-0.3,0-0.6,0-0.9,0h-6.2c-2.8,0-5.4,1.5-6.8,3.9l-5.2,9.2c-1.4,2.5-1.3,5.6,0.2,8l1.4,1.8l3.1,3.4
		c0.9,0.9,2.3,1.1,3.3,0.4c1-0.7,1.4-2.1,0.8-3.3l-0.6-1.1l-0.5-0.9L10,42.4l-1.2-2.2c-0.1-0.2-0.2-0.5-0.2-0.7
		c-0.1-0.5,0-1.1,0.3-1.6c0-0.1,0.1-0.2,0.1-0.2c1-1.3,3.1-3.9,6.3-6.5c0,0,0.1,0,0.1,0c1.7-1.4,3.4-2.7,4.9-3.7
		c0.1-0.1,0.3-0.1,0.4-0.1c0.1,0,0.1,0,0.2,0c0.1,0,0.3,0.1,0.5,0.4c0.7,1.6,2.2,3.6,5,4c0.3,0,0.4,0.2,0.5,0.3c0,0,0,0,0,0
		c0.1,0.1,0.1,0.2,0.1,0.3c0,0.1,0,0.3,0,0.4L27,33.2l-1.2,3.3c-0.2,0.6-0.6,1.1-1.2,1.3l0,0l-5.3,2.5c-0.2,0.1-0.3,0.2-0.5,0.3
		c-0.6,0.4-0.9,1.1-0.9,1.8c0,0.2,0,0.3,0,0.5c0,0.1,0.1,0.2,0.1,0.3c0.1,0.3,0.2,0.5,0.3,0.7c0,0.1,0.1,0.1,0.1,0.2
		c0.2,0.2,0.4,0.4,0.6,0.5c0.6,0.4,1.3,0.5,2,0.2l5.9-1.9l0.2-0.1c2.7-0.9,4.6-3.2,4.9-6c0-0.2,0-0.4,0-0.6l0-2.7l0-2.5l0-2.1
		c0.9-1.1,1.5-2.5,1.5-4.1c0-3.5-2.8-6.2-6.2-6.2C25,18.8,23,20,21.9,21.9z M27.3,20.3c2.6,0,4.7,2.1,4.7,4.7c0,1.1-0.4,2.1-1,2.9
		c-0.9,1.1-2.2,1.8-3.7,1.8c-2.6,0-4.7-2.1-4.7-4.7c0-1.1,0.4-2,0.9-2.8C24.5,21.1,25.8,20.3,27.3,20.3z"/>
	<path d="M76.6,14.1h-4.7v-1.2c0-1.5-1.2-2.7-2.7-2.7h0c-1.5,0-2.7,1.2-2.7,2.7v1.2H53.9v-1.2c0-1.5-1.2-2.7-2.7-2.7
		c-1.5,0-2.7,1.2-2.7,2.7v1.2h-4.7c-0.9,0-1.6,0.7-1.6,1.6v4.7v23.4c0,0.9,0.7,1.6,1.6,1.6h32.8c0.9,0,1.6-0.7,1.6-1.6V20.3v-4.7
		C78.1,14.8,77.4,14.1,76.6,14.1z M76.6,43.8H43.8V21.1h32.8V43.8z M43.8,15.6h4.7c0.2,1.3,1.3,2.3,2.7,2.3c1.4,0,2.5-1,2.7-2.3
		h12.6c0.2,1.3,1.3,2.3,2.7,2.3h0c1.4,0,2.5-1,2.7-2.3h4.7v3.9H43.8V15.6z M50,14.1v-1.2c0-0.6,0.5-1.2,1.2-1.2s1.2,0.5,1.2,1.2v1.2
		v0.8v0.4c0,0.1,0,0.3-0.1,0.4c-0.2,0.5-0.6,0.8-1.1,0.8s-0.9-0.3-1.1-0.8c0-0.1-0.1-0.3-0.1-0.4v-0.4V14.1z M68,14.1v-1.2
		c0-0.6,0.5-1.2,1.2-1.2c0.6,0,1.2,0.5,1.2,1.2v1.2v0.8v0.4c0,0.1,0,0.3-0.1,0.4c-0.2,0.5-0.6,0.8-1.1,0.8c-0.5,0-0.9-0.3-1.1-0.8
		c0-0.1-0.1-0.3-0.1-0.4v-0.4V14.1z"/>
	<path d="M68,31.2h4.7c0.9,0,1.6-0.7,1.6-1.6V25c0-0.9-0.7-1.6-1.6-1.6H68c-0.9,0-1.6,0.7-1.6,1.6v4.7C66.4,30.6,67.1,31.2,68,31.2z
		 M72.7,29.7H68V25h4.7V29.7z"/>
	<path d="M57.8,31.2h4.7c0.9,0,1.6-0.7,1.6-1.6V25c0-0.9-0.7-1.6-1.6-1.6h-4.7c-0.9,0-1.6,0.7-1.6,1.6v4.7
		C56.2,30.6,56.9,31.2,57.8,31.2z"/>
	<path d="M47.7,31.2h4.7c0.9,0,1.6-0.7,1.6-1.6V25c0-0.9-0.7-1.6-1.6-1.6h-4.7c-0.9,0-1.6,0.7-1.6,1.6v4.7
		C46.1,30.6,46.8,31.2,47.7,31.2z M52.3,29.7h-4.7V25h4.7V29.7z"/>
	<path d="M57.8,41.4h4.7c0.9,0,1.6-0.7,1.6-1.6v-4.7c0-0.9-0.7-1.6-1.6-1.6h-4.7c-0.9,0-1.6,0.7-1.6,1.6v4.7
		C56.2,40.7,56.9,41.4,57.8,41.4z M62.5,39.8h-4.7v-4.7h4.7V39.8z"/>
	<path d="M68,41.4h4.7c0.9,0,1.6-0.7,1.6-1.6v-4.7c0-0.9-0.7-1.6-1.6-1.6H68c-0.9,0-1.6,0.7-1.6,1.6v4.7
		C66.4,40.7,67.1,41.4,68,41.4z M72.7,39.8H68v-4.7h4.7V39.8z"/>
	<path d="M47.7,41.4h4.7c0.9,0,1.6-0.7,1.6-1.6v-4.7c0-0.9-0.7-1.6-1.6-1.6h-4.7c-0.9,0-1.6,0.7-1.6,1.6v4.7
		C46.1,40.7,46.8,41.4,47.7,41.4z"/>
</g>
</svg>
