<?xml version="1.0" encoding="utf-8"?>
<!-- Generator: Adobe Illustrator 25.4.1, SVG Export Plug-In . SVG Version: 6.00 Build 0)  -->
<svg version="1.1" xmlns="http://www.w3.org/2000/svg" xmlns:xlink="http://www.w3.org/1999/xlink" x="0px" y="0px"
	 viewBox="0 0 90.8 94.8" style="enable-background:new 0 0 90.8 94.8;" xml:space="preserve">
<g id="Layer_2">
</g>
<g id="Layer_1">
	<g>
		<path d="M90.4,83.4l-4.8-5.7l-13,10.9l4.8,5.7c0.5,0.6,1.5,0.7,2.1,0.2l10.6-8.9C90.9,85,91,84,90.4,83.4z"/>
		<path d="M68.9,66.3c-1.5-1-3.3-1.4-5.1-1.3l-16.2,1.4c-0.7,0.1-1.4,0.4-1.9,1s-0.7,1.3-0.6,2c0.1,1.2,1.1,2.3,2.3,2.5l0.7,0.1
			c3.5,0.6,7.2,0.8,10.7,0.8h3.1c1,0,1.9,0.8,1.9,1.8S63,76.5,62,76.5h-3.1c-3.8,0.1-7.6-0.2-11.4-0.8l-0.7-0.1
			c-2.9-0.5-5.1-2.8-5.4-5.7c0-0.2,0-0.4,0-0.7l-10.2-2.6c-1.2-0.3-2.5,0.1-3.3,1c-0.6,0.7-0.9,1.6-0.7,2.5c0.1,0.9,0.6,1.7,1.3,2.2
			l20.8,14.6c1.9,1.4,4.3,1.9,6.7,1.6l13.5-2l13.3-11.2L68.9,66.3z"/>
		<path d="M37.8,34.2c1.5-1.9,3.9-3.1,6.5-3.1c4.6,0,8.3,3.8,8.3,8.3v0.2c7.1,2.5,15.3,5.3,15.3,5.3c1.5,0.5,3.2-0.3,3.7-1.9
			c0.5-1.5-0.3-3.2-1.9-3.7l-12.5-4.2c-0.4-0.2-0.7-0.6-0.6-1.1v-0.1c0.1-0.5,0.6-0.8,1.1-0.6l16.5,4.2c1.6,0.4,3.2-0.6,3.6-2.1
			s-0.6-3.1-2.1-3.6l-16.5-4.2c-0.5-0.1-0.8-0.6-0.6-1.1c0.1-0.4,0.5-0.7,1-0.7l19.6,2.8c1.6,0.2,3-0.9,3.3-2.5
			c0.2-1.6-0.9-3.1-2.5-3.3l-18.8-2.5c-0.5-0.1-0.9-0.6-0.7-1.1l0.1-0.3c0.1-0.4,0.5-0.7,0.9-0.7l15.6,0.5c1.5,0,3-1,3.2-2.5
			c0.2-1.8-1.1-3.3-2.8-3.3c0,0-12.8-0.3-15.6-0.5c-2.7-0.2-4.3-0.3-6.6-0.7c-1.3-0.2-2-1.5-0.4-2.5c0,0,3.5-1.8,5.2-2.9
			s2.6-2.6,1.9-4.2c-0.6-1.8-2.6-2.6-4.3-1.8c0,0-11.4,4.1-16.4,7.1c-1.6,0.9-3.2,2.1-4.2,3.6l-7.2-1.3l-3.8,18.5l7.4,1.7
			C33.8,31.8,35.5,33.2,37.8,34.2z"/>
		<path d="M25.4,6.3l-19.5-4C5.1,2.1,4.3,2.6,4.1,3.4L0,23.3c-0.2,0.8,0.4,1.6,1.2,1.8l19.5,4c0.8,0.2,1.6-0.4,1.8-1.2L26.6,8
			C26.7,7.2,26.2,6.4,25.4,6.3z"/>
		<circle cx="44.3" cy="39.4" r="4.9"/>
		<circle cx="54.7" cy="50.9" r="4.9"/>
		<circle cx="41.2" cy="57.6" r="4.9"/>
	</g>
</g>
</svg>
