<svg xmlns="http://www.w3.org/2000/svg" xmlns:xlink="http://www.w3.org/1999/xlink" version="1.1" x="0px" y="0px" viewBox="0 0 97.6 118.5" enable-background="new 0 0 97.6 94.8" xml:space="preserve"><path d="M55.9,0.4c1.5,0,3.1,0,4.6,0c0.1,0,0.1,0.1,0.2,0.1c1.3,0.3,2.7,0.4,4,0.8C69,2.7,72.9,4.8,76,8.3c1.7,1.9,2.9,3.9,2.7,6.6  c0,0.6-0.3,1.1-0.2,1.7c0.1,1.7,0.4,3.4,0.5,5.1c0.2,1.8,0.3,3.6,0.4,5.4c0.1,0.7,0.2,1.5,0.3,2.2c1.3-0.5,2.5-0.9,3.7-1.4  c1.7-0.8,3.2,0.6,3.2,2.1c-0.1,11.8,0,23.6,0,35.5c0,0.5,0.2,0.7,0.6,0.9c2.1,0.9,4.1,1.9,6.2,2.8c0.7,0.3,1.3,0.7,1.7,1.4  c0,0.5,0,1,0,1.4c-0.8,1.7-2,1.7-3.1,1.3c-2.5-1.1-4.9-2.2-7.4-3.3c-1.4-0.6-2.7-1.2-4.1-1.8c-1.9-0.8-3.7-1.7-5.5-2.6  c-1-0.5-1.4-1.7-1.1-2.6c0.4-1.1,1.5-1.8,2.6-1.4c0.5,0.2,1.1,0.4,1.6,0.6c1.4,0.6,2.8,1.3,4.2,1.9c0-10.4,0-20.7,0-31.1  c-0.7,0.3-1.4,0.5-2.1,0.8c0,0.1,0,0.2,0,0.2c0.5,2,0.4,4,0.4,6c0,0.2,0,0.5,0.1,0.7c0.5,1.7,0.7,3.4,0.4,5.2  c-0.4,2.7-1.8,4.8-3.9,6.4c-1,0.8-2.2,1.5-3.1,2.3c-1.7,1.6-3.5,3.1-5.5,4.2c-4.9,2.6-10.1,3.9-15.6,3.4c-1.8-0.2-3.6-0.3-5.4-0.7  c-4.4-1-8.4-2.8-12-5.6c-0.7-0.5-1.3-1-2-1.5c-0.1,1.6-0.2,3.1-0.4,4.7c-0.6,3.3-1.6,6.5-3.4,9.4c-1.1,1.7-2.3,3.2-4,4.3  c-1,0.7-2.1,1.1-3.2,1.7c0,3.6,0,7.3,0,10.9c0,0.2,0.2,0.5,0.4,0.6c0.9,0.5,1.8,0.9,2.7,1.3c1.9,0.8,3.8,1.7,5.6,2.5  c1,0.4,1.6,1.2,1.6,2.2c0,1.2-0.7,1.8-1.7,2.2c-0.3,0-0.6,0-0.9,0c-1.2-0.5-2.3-1.1-3.5-1.6c-3.9-1.8-7.7-3.5-11.6-5.3  c-1.9-0.9-3.9-1.8-5.8-2.6c-0.9-0.4-1.6-1.5-1.5-2.3c0.3-1.7,1.8-2.4,3.3-1.7c1.4,0.6,2.8,1.3,4.3,2c0.9,0.4,1.8,0.8,2.7,1.2  c0-2.8,0-5.5,0-8.2c0-0.8,0-1.2-1-1.4c-2.9-0.7-5.1-2.6-6.9-4.9c-1.4-1.7-2.4-3.6-3.3-5.6c-1-2.5-1.7-5-2-7.7  c-0.1-0.6-0.2-1.1-0.3-1.7c0-2.2,0-4.4,0-6.6c0-0.1,0.1-0.1,0.1-0.2c0.2-2.6,0.8-5.2,1.7-7.6c1.2-3,2.7-5.6,5.3-7.6  c2.6-1.9,5.4-2.7,8.6-1.9c1.1,0.3,2.1,0.7,3.1,1.1c0-0.1,0-0.2,0-0.4c-0.1-1.4-0.4-2.8-0.2-4.2c0.3-2.8,1.8-5,4.1-6.7  c0.2-0.2,0.4-0.4,0.6-0.7c1-1.2,2.2-2.2,3.5-3c1.7-1,3.5-2.1,5.1-3.2c3.9-2.8,7.8-5.7,11.7-8.5c0.7-0.5,1.4-0.9,1.9-1.5  c0.7-0.8,1.5-1.5,2.5-1.9C53.9,0.9,54.9,0.7,55.9,0.4z M69.9,18.1c1.8,0,3.3-0.3,4.5-0.9c1.1-0.6,1.8-1.5,1.8-2.8  c0-1.2-0.5-2.3-1.2-3.2c-1.7-2.3-3.9-4-6.4-5.3c-2.9-1.5-5.9-2.5-9.1-2.8c-1.7-0.2-3.4-0.1-4.9,0.5c-2.5,0.9-3.1,2.2-2.5,4.4  c0.4,1.3,1.2,2.4,2.1,3.4c2,2.1,4.5,3.7,7.1,4.9C64,17.3,66.9,18,69.9,18.1z M8.5,49.1c-0.1,3,0,5.9,0.7,8.8c1.1,4.2,2.6,8.2,6,11.1  c1.3,1.1,2.7,1.9,4.4,1.9c2.6,0.1,4.5-1.4,6-3.3c1.8-2.2,2.7-4.8,3.4-7.5c0.1-0.4,0.1-0.7-0.4-0.9c-1.6-0.8-3.1-1.5-4.6-2.3  c-0.3,0.5-0.6,1.1-1,1.6c-1,1.4-2.9,2.3-4.8,1.9c-2.1-0.5-3.3-2.1-4.1-3.9c-0.6-1.4-0.8-2.9-0.9-4.4c0-0.2-0.1-0.5-0.2-0.5  C11.6,50.6,10.1,49.9,8.5,49.1z M14.2,47.7c0.1-0.3,0.3-0.5,0.4-0.8c1.4-2.2,3-3.2,5.5-2.6c1.7,0.4,2.8,1.8,3.5,3.3  c0.9,1.7,1.2,3.5,1.2,5.4c1.6,0.8,3.2,1.6,4.8,2.4c0.2-3.5-0.1-7-1.1-10.3c-1.1-3.8-2.7-7.2-5.9-9.8c-1.2-1-2.5-1.6-4.1-1.7  c-2.7-0.1-4.5,1.4-6.1,3.2c-1.8,2.3-2.8,4.9-3.4,7.7c0,0.2,0.1,0.5,0.2,0.5C10.9,46.1,12.5,46.9,14.2,47.7z M26.5,25.8  c-0.7,1.6-0.7,3.2-0.2,4.9c1,3.5,3.1,6.2,5.5,8.7c1,1.1,2.2,2,3.4,3c2.3,1.9,4.8,3.5,7.4,4.9c3.5,1.8,7.1,3.3,10.9,4.3  c2.9,0.8,5.8,1.4,8.8,1.5c2.1,0.1,4.2-0.1,6.3-0.3c2.7-0.2,5.1-1.2,7.3-2.7c1.4-1,2.7-3.2,2.7-4.8c-0.6,0.6-1.2,1.3-1.9,1.9  c-2.8,2.1-6,3-9.4,3.2c-2.5,0.1-5,0-7.5-0.3c-2.4-0.3-4.9-0.9-7.3-1.5c-3.9-1.1-7.6-2.7-11.1-4.8c-2.9-1.7-5.6-3.6-8-5.9  c-1.4-1.3-2.7-2.8-3.8-4.4c-1.4-1.9-2.4-3.9-2.9-6.3C26.6,26.7,26.6,26.2,26.5,25.8z"/><text x="0" y="109.8" fill="#000000" font-size="5px" font-weight="bold" font-family="'Helvetica Neue', Helvetica, Arial-Unicode, Arial, Sans-serif">Created by DPIcons</text><text x="0" y="114.8" fill="#000000" font-size="5px" font-weight="bold" font-family="'Helvetica Neue', Helvetica, Arial-Unicode, Arial, Sans-serif">from the Noun Project</text></svg>