<?xml version="1.0" encoding="UTF-8" standalone="no"?>
<!DOCTYPE svg PUBLIC "-//W3C//DTD SVG 1.1//EN" "http://www.w3.org/Graphics/SVG/1.1/DTD/svg11.dtd">
<svg width="100%" height="100%" viewBox="0 0 308 211" version="1.1" xmlns="http://www.w3.org/2000/svg" xmlns:xlink="http://www.w3.org/1999/xlink" xml:space="preserve" xmlns:serif="http://www.serif.com/" style="fill-rule:evenodd;clip-rule:evenodd;stroke-linejoin:round;stroke-miterlimit:2;">
    <g transform="matrix(4.16667,0,0,4.16667,-1754.75,-902.76)">
        <g>
            <g transform="matrix(-0.865993,-0.500056,-0.500056,0.865993,429.103,245.344)">
                <path d="M-13.517,-23.817L9.462,-23.817L-9.127,8.374L-29.362,3.622L-13.517,-23.817Z" style="fill-rule:nonzero;"/>
            </g>
            <g transform="matrix(0,1,1,0,474.952,231.568)">
                <path d="M-0.014,-20.045L31.61,-20.045L25.588,-0.014L-11.58,-0.014L-0.014,-20.045Z" style="fill-rule:nonzero;"/>
            </g>
            <g transform="matrix(1,0,0,1,486.435,231.656)">
                <path d="M0,24.844L-0.584,24.844L1.771,33.073L4.123,24.844L3.538,24.844L4.123,24.844L4.123,-8.229L3.538,-8.229L2.954,-8.229L2.334,-8.229L1.162,-8.229L0.585,-8.229L0,-8.229L-0.586,-8.229L-0.586,24.844L0,24.844Z" style="fill-rule:nonzero;"/>
            </g>
            <g transform="matrix(1,0,0,1,479.212,265.63)">
                <path d="M0,-44.047L-2.133,-45.733L-2.133,-7.463L-24.245,-0.318L-25.269,-0.318L-25.471,-0.318L-26.493,-0.318L-48.507,-6.467L-48.507,-45.733L-50.641,-44.047L-50.641,-4.97L-26.594,1.686L-24.146,1.686L-1.96,-5.358L0,-5.934L0,-44.047Z" style="fill-rule:nonzero;"/>
            </g>
            <g transform="matrix(1,0,0,1,490.56,219.228)">
                <path d="M0,-0.183C0,-1.484 -1.055,-2.538 -2.353,-2.538C-3.655,-2.538 -4.708,-1.484 -4.708,-0.183L-4.708,2.355L0,2.355L0,-0.183Z" style="fill-rule:nonzero;"/>
            </g>
        </g>
    </g>
</svg>
