<?xml version="1.0" encoding="UTF-8" standalone="no"?>
<!DOCTYPE svg PUBLIC "-//W3C//DTD SVG 1.1//EN" "http://www.w3.org/Graphics/SVG/1.1/DTD/svg11.dtd">
<svg width="100%" height="100%" viewBox="0 0 235 238" version="1.1" xmlns="http://www.w3.org/2000/svg" xmlns:xlink="http://www.w3.org/1999/xlink" xml:space="preserve" xmlns:serif="http://www.serif.com/" style="fill-rule:evenodd;clip-rule:evenodd;stroke-linejoin:round;stroke-miterlimit:2;">
    <g transform="matrix(4.16667,0,0,4.16667,227.308,38.5448)">
        <path d="M0,38.375L-11.841,45.208L-11.841,31.539L0,24.702L0,38.375ZM-39.116,45.208L-39.116,32.577L-28.178,38.895L-39.116,45.208ZM-40.916,45.208L-52.755,38.375L-52.755,24.702L-40.916,31.539L-40.916,45.208ZM-28.178,7.396L-39.116,13.713L-39.116,1.081L-28.178,7.396ZM-13.64,13.713L-24.578,7.396L-13.64,1.081L-13.64,13.713ZM-24.578,23.145L-12.741,16.311L-0.9,23.144L-12.741,29.98L-24.578,23.145ZM-27.277,21.586L-38.216,15.271L-27.277,8.955L-27.277,21.586ZM-14.541,15.271L-25.478,21.585L-25.478,8.955L-14.541,15.271ZM-27.277,37.336L-38.217,31.02L-27.277,24.702L-27.277,37.336ZM1.35,22.364L-11.841,14.752L-11.841,-0.478C-11.841,-0.799 -12.012,-1.096 -12.291,-1.257L-25.928,-9.13C-26.207,-9.291 -26.549,-9.291 -26.828,-9.13L-40.466,-1.257C-40.745,-1.096 -40.916,-0.799 -40.916,-0.478L-40.916,14.752L-54.104,22.364C-54.383,22.525 -54.554,22.822 -54.554,23.144L-54.554,38.895C-54.554,39.216 -54.383,39.513 -54.104,39.674L-40.466,47.546C-40.326,47.626 -40.171,47.666 -40.016,47.666C-39.86,47.666 -39.706,47.626 -39.566,47.546L-26.377,39.933L-13.19,47.546C-13.051,47.626 -12.896,47.666 -12.741,47.666C-12.585,47.666 -12.43,47.626 -12.291,47.546L1.35,39.674C1.628,39.513 1.799,39.216 1.799,38.895L1.799,23.144C1.799,22.822 1.628,22.524 1.35,22.364" style="fill-rule:nonzero;"/>
    </g>
</svg>
