<?xml version="1.0" encoding="UTF-8" standalone="no"?>
<!DOCTYPE svg PUBLIC "-//W3C//DTD SVG 1.1//EN" "http://www.w3.org/Graphics/SVG/1.1/DTD/svg11.dtd">
<svg width="100%" height="100%" viewBox="0 0 230 225" version="1.1" xmlns="http://www.w3.org/2000/svg" xmlns:xlink="http://www.w3.org/1999/xlink" xml:space="preserve" xmlns:serif="http://www.serif.com/" style="fill-rule:evenodd;clip-rule:evenodd;stroke-linejoin:round;stroke-miterlimit:2;">
    <g transform="matrix(4.16667,0,0,4.16667,155.688,120.379)">
        <path d="M0,-3.848C2.847,-6.49 4.633,-10.258 4.633,-14.439C4.633,-15.065 4.589,-15.681 4.512,-16.286C10.296,-15.666 14.817,-10.758 14.817,-4.811C14.817,-1.432 13.349,1.603 11.025,3.716C8.851,-0.359 4.781,-3.274 0,-3.848M9.812,10.498C9.812,16.86 4.633,22.038 -1.731,22.038C-3.803,22.038 -5.741,21.482 -7.423,20.524C-4.968,17.932 -3.454,14.436 -3.454,10.593C-3.454,9.647 -3.55,8.723 -3.724,7.828C-1.648,8.981 0.736,9.64 3.275,9.64C5.533,9.64 7.673,9.119 9.577,8.19C9.73,8.937 9.812,9.708 9.812,10.498M-29.449,10.593C-29.449,9.772 -29.361,8.973 -29.196,8.202C-27.295,9.124 -25.163,9.64 -22.913,9.64C-20.383,9.64 -18.006,8.986 -15.935,7.839C-16.096,8.701 -16.185,9.59 -16.185,10.498C-16.185,14.401 -14.624,17.946 -12.1,20.549C-13.808,21.549 -15.789,22.133 -17.906,22.133C-24.272,22.133 -29.449,16.956 -29.449,10.593M-34.455,-4.811C-34.455,-10.758 -29.935,-15.665 -24.15,-16.286C-24.228,-15.681 -24.272,-15.065 -24.272,-14.439C-24.272,-10.214 -22.448,-6.408 -19.551,-3.763C-24.344,-3.217 -28.434,-0.321 -30.631,3.747C-32.972,1.633 -34.455,-1.415 -34.455,-4.811M-9.82,-25.981C-5.091,-25.981 -1.022,-23.121 0.761,-19.04C-3.935,-18.213 -7.854,-15.114 -9.82,-10.919C-11.783,-15.115 -15.704,-18.213 -20.399,-19.04C-18.617,-23.121 -14.549,-25.981 -9.82,-25.981M-7.071,0.274C-5.473,-0.564 -3.659,-1.045 -1.731,-1.045C2.806,-1.045 6.729,1.594 8.615,5.412C7.016,6.251 5.2,6.731 3.275,6.731C-1.264,6.731 -5.187,4.092 -7.071,0.274M-12.605,0.352C-14.504,4.129 -18.405,6.731 -22.913,6.731C-24.825,6.731 -26.626,6.256 -28.215,5.429C-26.316,1.654 -22.413,-0.95 -17.906,-0.95C-15.993,-0.95 -14.194,-0.475 -12.605,0.352M-21.211,-16.214C-15.653,-15.387 -11.37,-10.596 -11.37,-4.811C-11.37,-4.206 -11.432,-3.617 -11.521,-3.037C-17.08,-3.865 -21.361,-8.654 -21.361,-14.439C-21.361,-15.044 -21.301,-15.634 -21.211,-16.214M-9.767,18.764C-11.927,16.667 -13.274,13.737 -13.274,10.498C-13.274,7.306 -11.971,4.415 -9.873,2.323C-7.713,4.422 -6.364,7.351 -6.364,10.593C-6.364,13.783 -7.667,16.673 -9.767,18.764M1.723,-14.439C1.723,-8.654 -2.559,-3.865 -8.117,-3.037C-8.208,-3.617 -8.268,-4.206 -8.268,-4.811C-8.268,-10.596 -3.986,-15.387 1.571,-16.213C1.662,-15.634 1.723,-15.044 1.723,-14.439M17.728,-4.811C17.728,-12.603 11.528,-18.97 3.806,-19.251C1.819,-24.861 -3.538,-28.891 -9.82,-28.891C-16.102,-28.891 -21.458,-24.861 -23.446,-19.251C-31.169,-18.969 -37.365,-12.603 -37.365,-4.811C-37.365,-0.187 -35.179,3.934 -31.788,6.582C-32.156,7.857 -32.359,9.202 -32.359,10.593C-32.359,18.559 -25.876,25.043 -17.906,25.043C-14.882,25.043 -12.073,24.107 -9.75,22.512C-7.453,24.049 -4.696,24.947 -1.731,24.947C6.236,24.947 12.72,18.464 12.72,10.498C12.72,9.133 12.526,7.815 12.173,6.565C15.55,3.917 17.728,-0.197 17.728,-4.811" style="fill-rule:nonzero;"/>
    </g>
</svg>
