<?xml version="1.0" encoding="UTF-8" standalone="no"?>
<!DOCTYPE svg PUBLIC "-//W3C//DTD SVG 1.1//EN" "http://www.w3.org/Graphics/SVG/1.1/DTD/svg11.dtd">
<svg width="100%" height="100%" viewBox="0 0 289 147" version="1.1" xmlns="http://www.w3.org/2000/svg" xmlns:xlink="http://www.w3.org/1999/xlink" xml:space="preserve" xmlns:serif="http://www.serif.com/" style="fill-rule:evenodd;clip-rule:evenodd;stroke-linejoin:round;stroke-miterlimit:2;">
    <g transform="matrix(4.16667,0,0,4.16667,263.862,134.749)">
        <path d="M0,-28.7C-4.9,-32.57 -11.393,-32.65 -13.771,-32.085L-14.046,-32.02C-16.792,-31.372 -21.154,-30.299 -26.26,-23.963C-26.288,-23.928 -26.317,-23.891 -26.345,-23.855L-26.409,-23.777C-26.459,-23.706 -26.494,-23.624 -26.494,-23.531C-26.494,-23.454 -26.476,-23.384 -26.438,-23.318L-26.32,-23.123C-25.68,-22.052 -24.871,-20.672 -24.188,-19.4C-24.182,-19.387 -24.175,-19.377 -24.17,-19.361C-24.097,-19.221 -23.951,-19.122 -23.78,-19.122C-23.662,-19.122 -23.556,-19.169 -23.479,-19.244C-23.446,-19.286 -23.414,-19.33 -23.386,-19.374C-18.854,-25.641 -15.291,-26.507 -12.88,-27.073L-12.592,-27.141C-11.341,-27.441 -6.584,-27.424 -3.149,-24.713C-0.47,-22.596 0.891,-19.23 0.891,-14.707C0.891,-7.12 -2.8,-4.151 -5.897,-2.998C-10.694,-1.205 -15.295,-3.601 -15.328,-3.62L-15.534,-3.721C-18.17,-4.864 -22.103,-7.245 -25.809,-14.688C-33.278,-29.692 -39.527,-31.104 -43.662,-32.042L-43.883,-32.091C-45.766,-32.517 -52.304,-32.819 -57.443,-28.717C-60.129,-26.575 -63.327,-22.41 -63.327,-14.737C-63.327,-10.062 -62.367,-6.975 -59.898,-3.727C-59.357,-2.988 -53.824,4.119 -43.129,2.071C-41.417,1.742 -39.098,0.925 -36.548,-0.987L-34.193,1.137C-34.04,1.277 -33.795,1.265 -33.653,1.11C-33.586,1.037 -33.558,0.946 -33.559,0.855L-33.559,0.823L-31.86,-9.624L-31.859,-9.739C-31.86,-9.842 -31.902,-9.945 -31.986,-10.017C-32.058,-10.086 -32.146,-10.112 -32.235,-10.112L-32.308,-10.105L-32.418,-10.094L-42.425,-7.293L-42.606,-7.263C-42.679,-7.247 -42.746,-7.21 -42.798,-7.151C-42.943,-6.992 -42.93,-6.75 -42.77,-6.608L-42.652,-6.5L-40.41,-4.475C-41.857,-3.538 -43.119,-3.107 -44.082,-2.921C-51.82,-1.445 -55.642,-6.513 -55.787,-6.712L-55.841,-6.786C-57.639,-9.147 -58.246,-11.153 -58.246,-14.737C-58.246,-19.273 -56.91,-22.641 -54.274,-24.747C-50.928,-27.418 -46.313,-27.432 -45.009,-27.136L-44.784,-27.086C-41.396,-26.318 -36.753,-25.268 -30.359,-12.425C-27.038,-5.756 -22.878,-1.395 -17.644,0.904C-16.977,1.243 -13.799,2.751 -9.674,2.751C-7.948,2.751 -6.059,2.487 -4.121,1.767C-1.087,0.634 5.972,-3.235 5.972,-14.707C5.972,-22.375 2.725,-26.549 0,-28.7" style="fill-rule:nonzero;"/>
    </g>
</svg>
