<?xml version="1.0" encoding="UTF-8" standalone="no"?>
<!DOCTYPE svg PUBLIC "-//W3C//DTD SVG 1.1//EN" "http://www.w3.org/Graphics/SVG/1.1/DTD/svg11.dtd">
<svg width="100%" height="100%" viewBox="0 0 172 236" version="1.1" xmlns="http://www.w3.org/2000/svg" xmlns:xlink="http://www.w3.org/1999/xlink" xml:space="preserve" xmlns:serif="http://www.serif.com/" style="fill-rule:evenodd;clip-rule:evenodd;stroke-linejoin:round;stroke-miterlimit:2;">
    <g transform="matrix(4.16667,0,0,4.16667,159.585,199.446)">
        <path d="M0,-39.102C-1.091,-39.582 -2.475,-39.41 -3.802,-38.872C-8.797,-36.847 -12.196,-36.119 -17.45,-37.764C-20.758,-38.799 -23.854,-40.968 -27.513,-39.648C-29.94,-38.774 -32.203,-37.941 -34.948,-37.962L-36.534,-46.092L1.14,-46.092L0,-39.102ZM-12.77,-14.961C-12.77,-14.961 -14.599,-13.082 -17.573,-13.286C-20.556,-13.082 -22.382,-14.961 -22.382,-14.961C-25.398,-17.975 -24.322,-21.723 -23.272,-23.66C-22.624,-24.873 -17.99,-31.832 -17.592,-32.424L-17.592,-32.471C-17.592,-32.471 -17.585,-32.461 -17.573,-32.448L-17.558,-32.471L-17.558,-32.424C-17.17,-31.832 -12.529,-24.873 -11.881,-23.66C-10.829,-21.723 -9.757,-17.975 -12.77,-14.961M2.788,-47.708C2.694,-47.81 2.567,-47.867 2.424,-47.867L-37.831,-47.867C-37.971,-47.867 -38.099,-47.81 -38.193,-47.708C-38.281,-47.596 -38.316,-47.457 -38.294,-47.328L-31.53,-6.423C-31.493,-6.197 -31.296,-6.029 -31.066,-6.029L-22.766,-6.029L-22.198,0.633L-25.691,0.637L-17.563,8.765L-9.417,0.619L-12.908,0.623L-12.342,-6.029L-3.896,-6.029C-3.662,-6.029 -3.468,-6.197 -3.433,-6.43L2.895,-47.328C2.916,-47.468 2.875,-47.602 2.788,-47.708" style="fill-rule:nonzero;"/>
    </g>
</svg>
