<?xml version="1.0" encoding="UTF-8" standalone="no"?>
<!DOCTYPE svg PUBLIC "-//W3C//DTD SVG 1.1//EN" "http://www.w3.org/Graphics/SVG/1.1/DTD/svg11.dtd">
<svg width="100%" height="100%" viewBox="0 0 227 212" version="1.1" xmlns="http://www.w3.org/2000/svg" xmlns:xlink="http://www.w3.org/1999/xlink" xml:space="preserve" xmlns:serif="http://www.serif.com/" style="fill-rule:evenodd;clip-rule:evenodd;stroke-linejoin:round;stroke-miterlimit:2;">
    <g transform="matrix(4.16667,0,0,4.16667,-1797.48,-1920.62)">
        <g transform="matrix(-0.975394,0.220468,0.220468,0.975394,478.858,467.2)">
            <path d="M0.571,-5.112C0.571,-5.112 1.938,-3.952 1.939,-2.526C1.939,-1.095 0.571,0.064 0.571,0.064C0.571,0.064 -0.795,-1.095 -0.795,-2.523C-0.797,-3.953 0.571,-5.112 0.571,-5.112" style="fill-rule:nonzero;"/>
        </g>
        <g transform="matrix(0.975385,-0.22051,-0.22051,-0.975385,475.961,470.322)">
            <path d="M-0.571,-0.064C-0.571,-0.064 0.796,1.095 0.797,2.523C0.797,3.954 -0.571,5.111 -0.571,5.111C-0.571,5.111 -1.937,3.954 -1.939,2.526C-1.938,1.096 -0.571,-0.064 -0.571,-0.064" style="fill-rule:nonzero;"/>
        </g>
        <g transform="matrix(0.0883712,0.996088,0.996088,-0.0883712,481.776,466.453)">
            <path d="M2.345,-2.146C2.345,-2.146 3.588,-1.114 3.588,0.188C3.588,1.488 2.345,2.562 2.345,2.562C2.345,2.562 1.102,1.532 1.102,0.23C1.102,-1.071 2.345,-2.146 2.345,-2.146" style="fill-rule:nonzero;"/>
        </g>
        <g transform="matrix(-0.715065,0.699058,0.699058,0.715065,484.151,463.91)">
            <path d="M1.004,-2.465C2.505,-2.438 3.722,-0.98 3.722,-0.98C3.722,-0.98 2.507,0.433 1.004,0.409C-0.497,0.381 -1.713,-1.076 -1.713,-1.076C-1.713,-1.076 -0.496,-2.491 1.004,-2.465" style="fill-rule:nonzero;"/>
        </g>
        <g transform="matrix(0.990884,0.134718,0.134718,-0.990884,479.22,473.197)">
            <path d="M0.167,-0.011C1.466,0.011 2.52,1.272 2.52,1.272C2.52,1.272 1.466,2.498 0.167,2.475C-1.133,2.451 -2.187,1.19 -2.187,1.19C-2.187,1.19 -1.132,-0.035 0.167,-0.011" style="fill-rule:nonzero;"/>
        </g>
        <g transform="matrix(1,0,0,1,480.537,496.712)">
            <path d="M0,-2.729L-9.648,-2.729C-10.403,-2.729 -11.016,-2.12 -11.016,-1.365C-11.016,-0.612 -10.403,0 -9.648,0L0,0C0.754,0 1.365,-0.612 1.365,-1.365C1.365,-2.12 0.754,-2.729 0,-2.729" style="fill-rule:nonzero;"/>
        </g>
        <g transform="matrix(1,0,0,1,480.537,511.758)">
            <path d="M0,-2.729L-9.648,-2.729C-10.403,-2.729 -11.016,-2.12 -11.016,-1.365C-11.016,-0.612 -10.403,0 -9.648,0L0,0C0.754,0 1.365,-0.612 1.365,-1.365C1.365,-2.12 0.754,-2.729 0,-2.729" style="fill-rule:nonzero;"/>
        </g>
        <g transform="matrix(1,0,0,1,437.144,490.497)">
            <path d="M0,0.172C-0.227,0.102 -0.451,0.041 -0.67,0C-0.67,0 -0.423,0.076 0,0.172" style="fill-rule:nonzero;"/>
        </g>
        <g transform="matrix(1,0,0,1,452.781,477.743)">
            <path d="M0,18.832C0.636,18.843 1.274,18.824 1.913,18.78L1.913,23.821L0,23.777L0,18.832ZM27.4,19.923L18.46,19.923C18.031,19.923 17.683,20.271 17.683,20.699L17.683,23.407L11.846,24.049L3.319,23.853L3.319,18.645C4.451,18.5 5.586,18.274 6.712,17.957C14.92,15.641 16.71,10.528 16.531,5.833C16.353,1.052 17.883,-0.806 20.082,-1.632C20.711,-1.868 21.334,-2.018 21.904,-2.114C21.929,-0.939 22.167,0.426 22.691,2.053C22.887,2.042 23.081,2.025 23.273,2.005C22.719,0.34 22.482,-1.028 22.47,-2.196C23.605,-2.33 24.416,-2.255 24.416,-2.255C24.416,-2.255 23.648,-2.667 22.563,-3.574C22.933,-5.838 24.281,-7.229 25.671,-8.65C26.436,-9.434 27.225,-10.241 27.847,-11.204L27.362,-11.517C26.773,-10.602 26.001,-9.815 25.258,-9.054C23.902,-7.667 22.534,-6.25 22.07,-4.002C21.63,-4.399 21.153,-4.87 20.666,-5.417C18.642,-7.687 16.036,-6.02 12.32,-2.56C8.603,0.898 3.929,1.017 -0.637,-3.654C-6.66,-9.821 -11.915,-9.786 -15.518,-9.436C-13.053,-8.386 -12.191,-6.083 -10.943,-0.229C-9.636,5.914 -6.338,8.693 -1.827,9.077C-3.919,9.416 -4.461,9.706 -7.822,12.027C-10.447,13.839 -14.141,13.267 -15.638,12.926C-12.889,13.783 -9.634,16.666 -6.721,17.67C-5.024,18.253 -3.236,18.614 -1.405,18.76L-1.405,23.745L-17.579,23.396L-17.579,26.875L11.846,26.223L17.683,26.864L17.683,29.57C17.683,29.998 18.031,30.349 18.46,30.349L27.4,30.349C27.83,30.349 28.179,29.998 28.179,29.57L28.179,20.699C28.179,20.271 27.83,19.923 27.4,19.923" style="fill-rule:nonzero;"/>
        </g>
        <g transform="matrix(1,0,0,1,434.367,501.639)">
            <path d="M0,2.404C0,3.137 -0.512,3.732 -1.143,3.732L-1.83,3.732C-2.459,3.732 -2.973,3.137 -2.973,2.404L-2.973,0C-2.973,-0.735 -2.459,-1.328 -1.83,-1.328L-1.143,-1.328C-0.512,-1.328 0,-0.735 0,0L0,2.404Z" style="fill-rule:nonzero;"/>
        </g>
    </g>
</svg>
