<?xml version="1.0" encoding="UTF-8" standalone="no"?>
<!DOCTYPE svg PUBLIC "-//W3C//DTD SVG 1.1//EN" "http://www.w3.org/Graphics/SVG/1.1/DTD/svg11.dtd">
<svg width="100%" height="100%" viewBox="0 0 183 247" version="1.1" xmlns="http://www.w3.org/2000/svg" xmlns:xlink="http://www.w3.org/1999/xlink" xml:space="preserve" xmlns:serif="http://www.serif.com/" style="fill-rule:evenodd;clip-rule:evenodd;stroke-linejoin:round;stroke-miterlimit:2;">
    <g transform="matrix(4.16667,0,0,4.16667,-2348.78,-891.527)">
        <g transform="matrix(1,0,0,1,581.769,234.491)">
            <path d="M0,18.009C-7.331,18.009 -13.294,12.044 -13.294,4.714C-13.294,-2.617 -7.331,-8.581 0,-8.581C7.332,-8.581 13.296,-2.617 13.296,4.714C13.296,12.044 7.332,18.009 0,18.009M25.532,-20.525L11.742,-20.525C11.647,-20.525 11.567,-20.447 11.567,-20.349L11.567,-15.766C11.567,-15.668 11.647,-15.59 11.742,-15.59L17.233,-15.59L11.136,-9.491C8.064,-11.904 4.2,-13.348 0,-13.348C-9.958,-13.348 -18.062,-5.246 -18.062,4.714C-18.062,13.884 -11.192,21.472 -2.331,22.62L-2.331,27.901L-7.771,27.901C-7.872,27.901 -7.948,27.979 -7.948,28.075L-7.948,32.987C-7.948,33.085 -7.872,33.163 -7.771,33.163L-2.331,33.163L-2.331,38.359C-2.331,38.456 -2.253,38.534 -2.156,38.534L2.753,38.534C2.851,38.534 2.932,38.456 2.932,38.359L2.932,33.163L8.37,33.163C8.467,33.163 8.545,33.085 8.545,32.987L8.545,28.075C8.545,27.979 8.467,27.901 8.37,27.901L2.932,27.901L2.932,22.534C11.501,21.129 18.062,13.676 18.062,4.714C18.062,0.848 16.838,-2.734 14.763,-5.675L20.773,-11.686L20.773,-6.557C20.773,-6.461 20.854,-6.383 20.951,-6.383L25.532,-6.383C25.631,-6.383 25.712,-6.461 25.712,-6.557L25.712,-20.349C25.712,-20.447 25.631,-20.525 25.532,-20.525" style="fill-rule:nonzero;"/>
        </g>
        <g transform="matrix(1,0,0,1,589.891,237.97)">
            <path d="M0,-4.222L-16.126,-4.222C-16.223,-4.222 -16.301,-4.15 -16.301,-4.065L-16.301,-0.161C-16.301,-0.069 -16.223,0 -16.126,0L0,0C0.1,0 0.178,-0.069 0.178,-0.161L0.178,-4.065C0.178,-4.15 0.1,-4.222 0,-4.222" style="fill-rule:nonzero;"/>
        </g>
        <g transform="matrix(1,0,0,1,589.891,244.943)">
            <path d="M0,-4.224L-16.126,-4.224C-16.223,-4.224 -16.301,-4.15 -16.301,-4.061L-16.301,-0.158C-16.301,-0.07 -16.223,0 -16.126,0L0,0C0.1,0 0.178,-0.07 0.178,-0.158L0.178,-4.061C0.178,-4.15 0.1,-4.224 0,-4.224" style="fill-rule:nonzero;"/>
        </g>
    </g>
</svg>
