<svg xmlns="http://www.w3.org/2000/svg" xmlns:xlink="http://www.w3.org/1999/xlink" viewBox="0 0 1080 1080" xmlns:v="https://vecta.io/nano"><defs><linearGradient id="A" x1="11.716" y1="11.716" x2="1068.284" y2="1068.284" xlink:href="#U"><stop offset="0"/><stop offset=".396" stop-color="#212121"/><stop offset=".772" stop-color="#3a3a3a"/><stop offset="1" stop-color="#434343"/></linearGradient><linearGradient id="B" x1="33.956" y1="317.795" x2="1046" y2="317.795" xlink:href="#U"><stop offset="0" stop-color="#13bf9e" stop-opacity=".8"/><stop offset=".142" stop-color="#14c9a7" stop-opacity=".837"/><stop offset=".519" stop-color="#15e0bd" stop-opacity=".925"/><stop offset=".818" stop-color="#16efcb" stop-opacity=".98"/><stop offset="1" stop-color="#16f4d0"/></linearGradient><linearGradient id="C" x1="33.956" y1="371.569" x2="1046" y2="371.569" xlink:href="#U"><stop offset="0" stop-color="#6d7fbf" stop-opacity=".8"/><stop offset=".128" stop-color="#7184c8" stop-opacity=".834"/><stop offset=".511" stop-color="#7d90df" stop-opacity=".924"/><stop offset=".815" stop-color="#8497ed" stop-opacity=".98"/><stop offset="1" stop-color="#879af2"/></linearGradient><linearGradient id="D" x1="33.956" y1="511.073" x2="1046" y2="511.073" xlink:href="#U"><stop offset="0" stop-color="#991a5a" stop-opacity=".8"/><stop offset=".124" stop-color="#a21b5d" stop-opacity=".833"/><stop offset=".509" stop-color="#bd1e64" stop-opacity=".923"/><stop offset=".814" stop-color="#cd1f69" stop-opacity=".98"/><stop offset="1" stop-color="#d3206b"/></linearGradient><linearGradient id="E" x1="33.956" y1="654.406" x2="1046" y2="654.406" xlink:href="#U"><stop offset="0" stop-color="#bf7f00" stop-opacity=".8"/><stop offset=".2" stop-color="#cf8b00" stop-opacity=".852"/><stop offset=".552" stop-color="#e89d00" stop-opacity=".932"/><stop offset=".831" stop-color="#f7a900" stop-opacity=".982"/><stop offset="1" stop-color="#fdad00"/></linearGradient><linearGradient id="F" x1="33.956" y1="788.408" x2="1046" y2="788.408" xlink:href="#U"><stop offset="0" stop-color="#8cbfb8" stop-opacity=".8"/><stop offset=".162" stop-color="#94cbc4" stop-opacity=".842"/><stop offset=".531" stop-color="#a4e3db" stop-opacity=".928"/><stop offset=".823" stop-color="#aef2ea" stop-opacity=".98"/><stop offset="1" stop-color="#b2f7ef"/></linearGradient><path id="G" d="M104.758 1045.462a1.36 1.36 0 0 1-1.4-1.101 7.763 7.763 0 0 1-4.804 1.668 7.666 7.666 0 0 1-7.605-7.605v-9.24a1.434 1.434 0 0 1 2.868-.033v9.272a4.753 4.753 0 1 0 9.507 0v-9.24a1.33 1.33 0 0 1 1.4-1.468 1.364 1.364 0 0 1 1.435 1.435v14.9a1.328 1.328 0 0 1-1.401 1.4z"/><path id="H" d="M886.563 1046.337c-3.22 0-5.02-2.64-5.02-5.66 0-3 1.8-5.64 5.02-5.64s5.02 2.64 5.02 5.64c0 3.02-1.8 5.66-5.02 5.66zm0-10.162c-2.36 0-3.88 1.9-3.88 4.5s1.52 4.52 3.88 4.52c2.38 0 3.88-1.92 3.88-4.52s-1.5-4.5-3.88-4.5z"/><path id="I" d="M910.303 1036.355a3.418 3.418 0 0 0-3.421 3.42v5.66a.57.57 0 0 1-1.141 0v-9.502a.57.57 0 0 1 1.141 0v.82a4.565 4.565 0 0 1 3.421-1.54.57.57 0 1 1 0 1.141z"/><path id="J" d="M78.916 79.488a6.122 6.122 0 0 1-6-6.12V39.23a2.58 2.58 0 0 1 5.16-.06v34.198a.947.947 0 0 0 .84 1.02 2.55 2.55 0 1 1 0 5.1z"/><path id="K" d="M313.03 66.048h-22.2c.84 5.64 4.44 9.24 9.72 9.24a9.005 9.005 0 0 0 7.14-3.12 2.483 2.483 0 0 1 1.86-.96 2.8 2.8 0 0 1 2.7 2.64c0 .72-.18 1.26-1.44 2.52a14.622 14.622 0 0 1-10.26 4.02c-9.66 0-15.06-7.98-15.06-16.98 0-8.94 5.4-16.92 15.06-16.92 9.78 0 15 7.98 15 16.92a2.558 2.558 0 0 1-2.52 2.64zm-12.48-14.46c-5.64 0-8.94 4.14-9.72 9.3h19.44c-.84-5.76-4.44-9.3-9.72-9.3z"/><path id="L" d="M329.65 80.388c-3.3 0-8.82-1.02-11.64-4.5a2.655 2.655 0 0 1 2.16-4.26 2.464 2.464 0 0 1 1.86 1.02c1.86 2.04 4.92 2.64 7.62 2.64 5.4 0 7.14-1.86 7.14-4.56 0-7.68-18.3-2.94-18.3-15.3 0-6.54 6.12-8.94 11.82-8.94 3.24 0 10.86 1.62 10.86 4.98a2.694 2.694 0 0 1-2.52 2.7 3.612 3.612 0 0 1-1.98-.78c-1.62-1.38-3.96-1.8-6.36-1.8-4.98 0-6.72 1.86-6.72 3.84 0 7.14 18.36 2.52 18.36 15.3 0 7.08-5.94 9.66-12.3 9.66z"/><path id="M" d="M537.846 79.368a2.423 2.423 0 0 1-2.52-2.52v-16.68a8.55 8.55 0 1 0-17.1 0v16.62a2.55 2.55 0 0 1-2.64 2.64 2.472 2.472 0 0 1-2.52-2.58V50.03a2.387 2.387 0 0 1 2.52-2.52 2.509 2.509 0 0 1 2.58 1.98 13.702 13.702 0 0 1 22.259 10.68v16.62a2.454 2.454 0 0 1-2.58 2.58z"/><path id="N" d="M619.326 66.048h-22.2c.84 5.64 4.44 9.24 9.72 9.24a9.007 9.007 0 0 0 7.14-3.12 2.483 2.483 0 0 1 1.859-.96 2.8 2.8 0 0 1 2.7 2.64c0 .72-.18 1.26-1.44 2.52a14.618 14.618 0 0 1-10.259 4.02c-9.66 0-15.06-7.98-15.06-16.98 0-8.94 5.4-16.92 15.06-16.92 9.78 0 15 7.98 15 16.92a2.558 2.558 0 0 1-2.52 2.64zm-12.48-14.46c-5.64 0-8.94 4.14-9.72 9.3h19.438c-.84-5.76-4.44-9.3-9.72-9.3z"/><path id="O" d="M92.235 140.568a2.424 2.424 0 0 1-2.52-2.52v-16.68a8.55 8.55 0 1 0-17.099 0v16.62a2.551 2.551 0 0 1-2.64 2.64 2.472 2.472 0 0 1-2.52-2.58v-26.82a2.387 2.387 0 0 1 2.52-2.52 2.509 2.509 0 0 1 2.58 1.98 13.703 13.703 0 0 1 22.259 10.68v16.62a2.454 2.454 0 0 1-2.58 2.58z"/><path id="P" d="M229.935 103.85a4.32 4.32 0 1 1 4.32-4.319 4.302 4.302 0 0 1-4.32 4.319zm0 36.72a2.52 2.52 0 0 1-2.64-2.52v-26.76a2.534 2.534 0 0 1 2.64-2.58 2.472 2.472 0 0 1 2.52 2.58v26.76a2.421 2.421 0 0 1-2.52 2.52z"/><path id="Q" d="M979.065 729.435c-4.83 0-7.53-3.96-7.53-8.49 0-4.5 2.7-8.46 7.53-8.46s7.53 3.96 7.53 8.46c0 4.53-2.7 8.49-7.53 8.49zm0-15.24c-3.54 0-5.82 2.85-5.82 6.75s2.28 6.78 5.82 6.78c3.57 0 5.82-2.88 5.82-6.78s-2.25-6.75-5.82-6.75z"/><path id="R" d="M116.802 759.995a6.354 6.354 0 0 1-5.432-2.659v1.4a.798.798 0 0 1-1.596 0v-18.368a.798.798 0 0 1 1.596 0v6.44a6.401 6.401 0 0 1 5.432-2.632c4.508 0 7.028 3.696 7.028 7.896 0 4.23-2.52 7.924-7.028 7.924zm0-14.224c-3.332 0-5.432 2.66-5.432 6.3s2.1 6.328 5.432 6.328 5.432-2.687 5.432-6.328-2.1-6.3-5.432-6.3z"/><path id="S" d="M139.706 759.52a.787.787 0 0 1-.812-.784v-8.176a4.788 4.788 0 1 0-9.576 0v8.176a.798.798 0 0 1-1.596 0v-13.3a.798.798 0 0 1 1.596 0v.896a6.387 6.387 0 0 1 11.172 4.228v8.176a.781.781 0 0 1-.784.784z"/><path id="T" d="M941.882 1002.136a7.064 7.064 0 0 0 5.34-2.4 8.323 8.323 0 0 0 1.98-5.76 9.011 9.011 0 0 0-2.34-6.66 8.279 8.279 0 0 0-6.12-2.34h-.66c-.44.08-.62-.123-.54-.61v-2.863q-.122-.667.54-.487h.36a8.217 8.217 0 0 0 3.18-.597 7.738 7.738 0 0 0 2.52-1.674 8.754 8.754 0 0 0 1.71-2.6 7.291 7.291 0 0 0 .51-3.376q-.18-6.334-6.06-6.514a5.449 5.449 0 0 0-4.2 1.56 7.492 7.492 0 0 0-2.16 4.62q0 .84-.54.72h-3.18q-.72.062-.54-.6a11.921 11.921 0 0 1 3.36-7.439 9.986 9.986 0 0 1 7.32-3.061 10.129 10.129 0 0 1 7.44 3.061 11.16 11.16 0 0 1 2.25 3.42 11.724 11.724 0 0 1 .27 7.8 9.197 9.197 0 0 1-1.5 2.76 11.271 11.271 0 0 1-4.08 3.42c-.32.2-.3.42.06.66a13.342 13.342 0 0 1 4.5 3.42q2.34 2.64 2.34 7.38a12.659 12.659 0 0 1-.87 4.71 12.49 12.49 0 0 1-2.49 3.931 12.365 12.365 0 0 1-3.78 2.699 11.814 11.814 0 0 1-4.68 1.021 11.302 11.302 0 0 1-7.86-3.061 11.928 11.928 0 0 1-3.54-8.52c-.12-.2.04-.36.48-.48h3.18q.6-.06.66.72.48 6.84 7.14 7.14h0z"/><linearGradient id="U" gradientUnits="userSpaceOnUse"/></defs><rect width="1080" height="1080" rx="40" fill="url(#A)"/><path d="M33.956 456.596l14.047-7.956c14.047-7.956 42.14-23.87 70.233-41.8s56.186-37.88 84.28-52.23a287.252 287.252 0 0 1 84.318-27.79c28.132-4.683 56.302-5.292 84.433-18.787s56.225-39.877 84.318-62.186 56.186-40.544 84.28-43.323 56.186 9.898 84.318 20.443 56.302 18.958 84.433 13.134 56.225-25.887 84.318-43.342 56.186-32.302 84.28-32.93 56.186 12.963 84.318 18.064 56.302 1.713 70.387.02l14.085-1.694v53.45l-14.085 3.407c-14.085 3.407-42.255 10.222-70.387 12.43s-56.225-.2-84.318 6.68-56.186 23.013-84.28 38.45-56.186 30.17-84.318 28.647-56.302-19.3-84.433-36.965-56.225-35.214-84.318-36.318-56.186 14.238-84.28 34.224-56.186 44.617-84.318 56.78-56.302 11.86-84.433 15.36a277.7 277.7 0 0 0-84.318 23.946c-28.093 13.134-56.186 32.092-84.28 49.642s-56.186 33.69-70.233 41.762l-14.046 8.07z" fill="url(#B)"/><path d="M33.956 475.783l14.047-8.07 70.233-41.762c28.093-17.55 56.186-36.508 84.28-49.642a277.7 277.7 0 0 1 84.318-23.946c28.132-3.502 56.302-3.198 84.433-15.36s56.225-36.794 84.318-56.78 56.186-35.328 84.28-34.224 56.186 18.654 84.318 36.318 56.302 35.442 84.433 36.965 56.225-13.2 84.318-28.647 56.186-31.578 84.28-38.45 56.186-4.473 84.318-6.68 56.302-9.022 70.387-12.43l14.085-3.407v129.968l-14.085 3.217c-14.085 3.217-42.255 9.65-70.387 12.43s-56.225 1.903-84.318 7.176-56.186 16.693-84.28 26.877-56.186 19.13-84.318 17.873-56.302-12.715-84.433-23.64-56.225-21.32-84.318-24.82-56.186-.114-84.28 9.517-56.186 25.506-84.318 36.527-56.302 17.188-84.433 25.26-56.225 18.045-84.318 27.752-56.186 19.15-84.28 25.05-56.186 8.26-70.233 9.44l-14.047 1.18z" fill="url(#C)"/><path d="M33.956 513.472l14.047-1.18c14.047-1.18 42.14-3.54 70.233-9.44s56.186-15.342 84.28-25.05 56.186-19.682 84.318-27.752 56.302-14.238 84.433-25.26 56.225-26.896 84.318-36.527 56.186-13.02 84.28-9.517 56.186 13.895 84.318 24.82 56.302 22.385 84.433 23.64 56.225-7.7 84.318-17.873 56.186-21.604 84.28-26.877 56.186-4.397 84.318-7.176 56.302-9.213 70.387-12.43l14.085-3.217v302.878l-14.085-6.453c-14.085-6.453-42.255-19.358-70.387-19.32s-56.225 13.02-84.318 11.592-56.186-17.264-84.28-29.35-56.186-20.424-84.318-31.96-56.302-26.268-84.433-43.056-56.225-35.633-84.318-45.835-56.186-11.763-84.28-7.005-56.186 15.837-84.318 19.472-56.302-.17-84.433-.438-56.225 3.007-84.318 7.233-56.186 9.403-84.28 12.258-56.186 3.388-70.233 3.655l-14.047.266z" fill="url(#D)"/><path d="M33.956 533.572l14.047-.266c14.047-.266 42.14-.8 70.233-3.655s56.186-8.033 84.28-12.258 56.186-7.5 84.318-7.233 56.302 4.073 84.433.438 56.225-14.714 84.318-19.472 56.186-3.198 84.28 7.005 56.186 29.047 84.318 45.835 56.302 31.52 84.433 43.056 56.225 19.872 84.318 31.96 56.186 27.924 84.28 29.35 56.186-11.554 84.318-11.592 56.302 12.867 70.387 19.32l14.085 6.453v131.1l-14.085 1.275c-14.085 1.275-42.255 3.826-70.387 10.107s-56.225 16.294-84.318 15.17-56.186-13.38-84.28-26.84-56.186-28.114-84.318-32.073-56.302 2.78-84.433 11.725-56.225 20.1-84.318 19.3-56.186-13.553-84.28-26.496-56.186-26.077-84.318-35.7-56.302-15.704-84.433-22.1-56.225-13.096-84.318-22.27-56.186-20.824-84.28-31.788l-70.233-26.382-14.046-5.14z" fill="url(#E)"/><path d="M1031.915 794.897c-14.085 1.275-42.255 3.826-70.387 10.107s-56.225 16.294-84.318 15.17-56.186-13.38-84.28-26.84-56.186-28.114-84.318-32.073-56.302 2.78-84.433 11.725-56.225 20.1-84.318 19.3-56.186-13.553-84.28-26.496-56.186-26.077-84.318-35.7-56.302-15.704-84.433-22.1-56.225-13.096-84.318-22.27-56.186-20.824-84.28-31.788l-70.233-26.382-14.047-5.14V657.6l14.047 7.956c14.047 7.956 42.14 23.87 70.233 41.8s56.186 37.88 84.28 52.23a287.252 287.252 0 0 0 84.318 27.79c28.132 4.682 56.302 5.292 84.433 18.787s56.225 39.877 84.318 62.186 56.186 40.544 84.28 43.323 56.186-9.898 84.318-20.443 56.302-18.958 84.433-13.134 56.225 25.887 84.318 43.342 56.186 32.302 84.28 32.93 56.186-12.963 84.318-18.064 56.302-1.713 70.387-.02L1046 937.98V793.622z" fill="url(#F)"/><g opacity=".4" fill="#fff"><path d="M42.373 1045.996a7.892 7.892 0 0 1-5.503-2.002 1.364 1.364 0 0 1-1.468 1.401 1.346 1.346 0 0 1-1.401-1.401v-20.88a1.435 1.435 0 0 1 2.869-.033v6.238a7.4 7.4 0 0 1 5.503-2.169c5.37 0 8.373 4.403 8.373 9.406 0 5.037-3.002 9.44-8.373 9.44zm0-16c-3.335 0-5.503 2.602-5.503 6.57 0 4.003 2.168 6.604 5.503 6.604s5.504-2.602 5.504-6.604c0-3.97-2.168-6.57-5.504-6.57zm25.554 8.038h-12.34c.467 3.136 2.468 5.137 5.403 5.137a5.003 5.003 0 0 0 3.969-1.734 1.383 1.383 0 0 1 1.034-.533 1.556 1.556 0 0 1 1.501 1.468c0 .4-.1.7-.8 1.4a8.129 8.129 0 0 1-5.704 2.235c-5.37 0-8.372-4.437-8.372-9.44 0-4.97 3.002-9.406 8.372-9.406 5.437 0 8.34 4.437 8.34 9.406a1.422 1.422 0 0 1-1.401 1.468zM61 1029.986c-3.136 0-4.97 2.3-5.403 5.17h10.807c-.467-3.202-2.468-5.17-5.403-5.17zm27.044 15.444a3.247 3.247 0 0 1-2.969-1.901 7.642 7.642 0 0 1-5.87 2.469c-5.437 0-8.372-4.47-8.372-9.44s3.002-9.406 8.372-9.406a7.369 7.369 0 0 1 5.504 2.202v-.134a1.376 1.376 0 0 1 1.4-1.501 1.341 1.341 0 0 1 1.468 1.401v12.875a.54.54 0 0 0 .467.601 1.418 1.418 0 1 1 0 2.835zm-8.84-15.443c-3.336 0-5.504 2.602-5.504 6.57 0 4.003 2.168 6.604 5.504 6.604 3.37 0 5.504-2.602 5.504-6.604 0-3.97-2.135-6.57-5.504-6.57z"/><use xlink:href="#G" /><path d="M115.203 1045.43h-.567c-3.17 0-4.37-1.668-4.37-4.403v-10.474h-1a1.418 1.418 0 1 1-.033-2.835h1v-4.637a1.355 1.355 0 0 1 1.435-1.4 1.328 1.328 0 0 1 1.401 1.4v4.637h2.135a1.383 1.383 0 0 1 1.4 1.401 1.356 1.356 0 0 1-1.4 1.434h-2.135v10.774c0 .934.333 1.268 1.268 1.268h.833a1.376 1.376 0 0 1 1.435 1.4 1.357 1.357 0 0 1-1.4 1.435zm4.603-20.415a2.401 2.401 0 1 1 2.402-2.401 2.392 2.392 0 0 1-2.402 2.401zm0 20.414a1.4 1.4 0 0 1-1.467-1.401v-14.876a1.408 1.408 0 0 1 1.467-1.435 1.374 1.374 0 0 1 1.401 1.435v14.876a1.346 1.346 0 0 1-1.401 1.401zm10.376-14.877h-1.5v13.442a1.364 1.364 0 0 1-1.468 1.401 1.346 1.346 0 0 1-1.401-1.401v-13.442h-1.367a1.418 1.418 0 0 1 0-2.835h1.367v-2.27a3.801 3.801 0 0 1 3.836-3.769 1.418 1.418 0 1 1 0 2.835.934.934 0 0 0-.967.9v2.302h1.5a1.418 1.418 0 1 1 0 2.835z"/><use xlink:href="#G" x="42.069"/><path d="M154.77 1045.495a3.403 3.403 0 0 1-3.336-3.402v-18.98a1.435 1.435 0 0 1 2.869-.033v19.013a.527.527 0 0 0 .467.567 1.418 1.418 0 1 1 0 2.835zm15.368-.065v-1.264c1.886-.237 2.046-.437 2.046-3.157v-6.7c0-2.8-1.248-4.017-3.064-4.017a5.597 5.597 0 0 0-3.47 1.493v9.476c0 2.527.187 2.658 2.06 2.896v1.264h-8.968v-1.264c2.254-.33 2.5-.4 2.5-3v-8.2c0-2.446-.303-2.565-2.185-2.922v-1.184a34.102 34.102 0 0 0 6.653-1.533l-.052 2.95 2.6-1.745a5.659 5.659 0 0 1 3.159-1.086c3.194 0 5.2 2.338 5.2 6.3v7.5c0 2.54.237 2.657 2.277 2.92v1.264zm23.912-3.703c-2.458 3.427-5.488 4.178-7.014 4.178-5.142 0-8.124-3.936-8.124-8.594a10.333 10.333 0 0 1 2.832-7.062 8.602 8.602 0 0 1 6.082-2.814 6.386 6.386 0 0 1 6.37 6.347c-.014.715-.08 1.277-.612 1.4-.767.184-6.17.5-10.318.647.062 4.587 2.717 6.74 5.556 6.74a6.776 6.776 0 0 0 4.543-1.866zm-7.07-12.7c-1.667 0-3.167 1.807-3.516 4.963l5.486-.118c.6-.026.848-.146.848-.792.04-2.022-1.037-4.053-2.818-4.053zm34.282.143c-1.943.343-2.248.624-3.105 2.765-1.33 3.462-3.102 8.53-4.934 13.94h-1.512l-4.65-11.46-4.55 11.46h-1.472l-4.685-14.192c-.687-1.985-.94-2.274-2.855-2.512v-1.25h9.397v1.25c-2.325.345-2.535.672-2.058 2.133l2.52 8.214c1.507-3.68 2.988-7.62 4.327-11.424h1.456c1.4 3.76 2.986 7.702 4.573 11.568.742-2.107 2.062-5.964 2.557-8.108.412-1.674-.008-2.078-2.753-2.383v-1.25h7.742zm9.41 3.747c-.92-2.606-2.155-3.984-4.2-3.984a2.166 2.166 0 0 0-2.225 2.266c0 1.497 1.046 2.264 3.16 3.216 3.278 1.496 5.3 2.787 5.3 5.736 0 3.85-3.6 5.764-6.945 5.764a12.073 12.073 0 0 1-4.92-1.161l-.662-4.892 1.252-.224c.8 2.5 2.33 4.75 4.976 4.75a2.231 2.231 0 0 0 2.438-2.281c0-1.423-.76-2.333-3.092-3.467-2.67-1.295-5.107-2.64-5.107-5.775 0-3.046 2.533-5.42 6.565-5.42a18.751 18.751 0 0 1 4.112.567l.62 4.577z"/></g><g opacity=".8" fill="#fff"><path d="M875.843 1046.377c-1.2 0-3.22-.42-3.92-1.58a.482.482 0 0 1-.08-.3.546.546 0 0 1 1.021-.32 3.812 3.812 0 0 0 2.98 1.061c1.94 0 2.92-.64 2.92-1.94 0-3.02-6.562-1.42-6.562-5.422 0-2.02 2.02-2.8 3.84-2.8a5.415 5.415 0 0 1 3.44 1.16.558.558 0 0 1 .18.38.648.648 0 0 1-.62.6.531.531 0 0 1-.38-.16 4.001 4.001 0 0 0-2.62-.84c-1.76 0-2.7.68-2.7 1.66 0 2.8 6.562 1.32 6.562 5.422 0 2.28-2 3.08-4.06 3.08z"/><use xlink:href="#H" /><path d="M902.344 1045.997a.562.562 0 0 1-.58-.561v-.64a4.442 4.442 0 0 1-3.421 1.54 4.61 4.61 0 0 1-4.561-4.561v-5.842a.57.57 0 0 1 1.14 0v5.842a3.421 3.421 0 1 0 6.842 0v-5.842a.57.57 0 0 1 1.141 0v9.502a.558.558 0 0 1-.561.561z"/><use xlink:href="#I" /><path d="M920.483 1044.816a4.645 4.645 0 0 1-3.58 1.521c-3.22 0-5.02-2.64-5.02-5.66 0-3 1.8-5.64 5.02-5.64a4.647 4.647 0 0 1 3.58 1.52.531.531 0 0 1 .16.381.627.627 0 0 1-.58.6.587.587 0 0 1-.42-.2 3.526 3.526 0 0 0-2.74-1.16c-2.36 0-3.88 1.9-3.88 4.5s1.52 4.52 3.88 4.52a3.596 3.596 0 0 0 2.74-1.16.587.587 0 0 1 .42-.2.594.594 0 0 1 .58.58.571.571 0 0 1-.16.399zm11.58-3.56h-8.302c.18 2.28 1.66 3.94 3.84 3.94a3.615 3.615 0 0 0 2.94-1.381.525.525 0 0 1 .479-.28.611.611 0 0 1 .62.541c0 .18 0 .22-.38.66a4.72 4.72 0 0 1-3.66 1.601c-3.22 0-5.02-2.64-5.02-5.66 0-3 1.8-5.64 5.02-5.64s5.02 2.66 5.02 5.64a.606.606 0 0 1-.56.58zm-4.46-5.08c-2.4 0-3.66 1.84-3.84 3.94h7.7c-.18-2.28-1.66-3.94-3.86-3.94zm8.437 3.26a1.14 1.14 0 1 1 0-2.28 1.14 1.14 0 0 1 0 2.28zm0 6.562a1.14 1.14 0 1 1 0-2.28 1.14 1.14 0 0 1 0 2.28zm23.084-13.523l-3.52 13.103a.553.553 0 0 1-.56.42.533.533 0 0 1-.541-.42l-3-11.083-2.98 11.083a.533.533 0 0 1-.54.42.554.554 0 0 1-.561-.42l-3.52-13.103a.545.545 0 0 1-.021-.181.581.581 0 0 1 .58-.58.499.499 0 0 1 .521.44l3 11.082 2.98-11.082a.529.529 0 0 1 .54-.4.537.537 0 0 1 .56.4l2.98 11.082 3-11.082a.526.526 0 0 1 .521-.44.581.581 0 0 1 .58.58.545.545 0 0 1-.021.181z"/><use xlink:href="#H" x="78.58"/><use xlink:href="#I" x="66.799"/><path d="M981.12 1046.117a2.096 2.096 0 0 1-1.98-2.12v-11.683a.57.57 0 0 1 1.141 0v11.683c0 1.28 1.42.54 1.42 1.44a.645.645 0 0 1-.58.681zm11.423-.12a.563.563 0 0 1-.581-.561v-1a4.536 4.536 0 0 1-3.88 1.9c-3.22 0-5.02-2.64-5.02-5.66 0-3 1.8-5.64 5.02-5.64a4.571 4.571 0 0 1 3.88 1.88v-4.6a.57.57 0 0 1 1.141 0v13.122a.558.558 0 0 1-.56.561zm-4.46-9.822c-2.36 0-3.88 1.9-3.88 4.5s1.52 4.52 3.88 4.52c2.38 0 3.88-1.92 3.88-4.52s-1.5-4.5-3.88-4.5zm19.14 9.822h-5.802a.606.606 0 0 1-.58-.561v-13.122a.495.495 0 0 1 .521-.561h5.42a3.616 3.616 0 0 1 3.601 3.561 3.471 3.471 0 0 1-1.42 2.861 4.1 4.1 0 0 1-1.74 7.821zm-.44-13.123h-4.8v4.92h4.8a2.461 2.461 0 1 0 0-4.921zm.44 6.062h-5.24v5.92h5.24a2.961 2.961 0 1 0 0-5.921zm16.94 7.06h-.02a2.072 2.072 0 0 1-1.98-1.561 4.536 4.536 0 0 1-3.88 1.9c-3.26 0-5.02-2.68-5.02-5.66 0-3.02 1.8-5.64 5.02-5.64a4.571 4.571 0 0 1 3.88 1.88v-.98a.564.564 0 0 1 .581-.56.546.546 0 0 1 .56.56V1044c0 1.28 1.44.48 1.44 1.44a.55.55 0 0 1-.58.561zm-5.88-9.822c-2.36 0-3.88 1.9-3.88 4.5s1.52 4.52 3.88 4.52c2.38 0 3.88-1.92 3.88-4.52s-1.5-4.5-3.88-4.5zm16.838 9.822a.563.563 0 0 1-.58-.561v-5.84a3.42 3.42 0 1 0-6.841 0v5.84a.571.571 0 0 1-1.141 0v-9.502a.571.571 0 0 1 1.141 0v.64a4.563 4.563 0 0 1 7.981 3.021v5.84a.558.558 0 0 1-.561.561zm10.7-9.642l-3.44 3.44 3.4 5.32a.564.564 0 0 1 .12.319.608.608 0 0 1-.6.541.565.565 0 0 1-.48-.261l-3.28-5.1-2.06 2.08v2.74a.571.571 0 0 1-1.141 0v-13.122a.571.571 0 0 1 1.141 0v8.762l5.52-5.52a.564.564 0 0 1 .421-.18.577.577 0 0 1 .58.56.561.561 0 0 1-.181.421z"/></g><g fill="#fff"><path d="M51.436 80.388c-13.2 0-17.46-11.1-17.46-22.38 0-11.58 4.56-22.44 17.46-22.44 5.46 0 10.02 1.92 13.32 6.54a2.557 2.557 0 0 1 .54 1.5 2.873 2.873 0 0 1-2.88 2.58c-1.08 0-1.2-.48-2.16-1.56-1.92-2.34-4.5-3.9-8.82-3.9-9.24 0-12.3 7.86-12.3 17.28 0 8.22 2.22 17.28 12.3 17.28 7.32 0 11.7-5.22 12.12-13.86h-5.4a2.501 2.501 0 0 1-2.64-2.58 2.471 2.471 0 0 1 2.52-2.58h8.22a2.52 2.52 0 0 1 2.64 2.64c-.24 11.22-4.74 21.48-17.46 21.48z"/><use xlink:href="#J" /><path d="M98.235 80.388c-9.66 0-15.06-7.92-15.06-16.98 0-9 5.4-16.92 15.06-16.92s15.06 7.92 15.06 16.92c0 9.06-5.4 16.98-15.06 16.98zm0-28.8c-6 0-9.9 4.68-9.9 11.82 0 7.2 3.9 11.88 9.9 11.88 6.06 0 9.9-4.68 9.9-11.88 0-7.14-3.84-11.82-9.9-11.82zm34.86 28.8a14.199 14.199 0 0 1-9.899-3.6 2.453 2.453 0 0 1-2.64 2.52 2.421 2.421 0 0 1-2.52-2.52V39.23a2.58 2.58 0 0 1 5.16-.06V50.4a13.318 13.318 0 0 1 9.899-3.9c9.66 0 15.06 7.92 15.06 16.92 0 9.06-5.4 16.98-15.06 16.98zm0-28.8c-6 0-9.9 4.68-9.9 11.82 0 7.2 3.9 11.88 9.9 11.88s9.9-4.68 9.9-11.88c0-7.14-3.9-11.82-9.9-11.82zm49.38 27.78a5.839 5.839 0 0 1-5.34-3.42 13.747 13.747 0 0 1-10.56 4.44c-9.78 0-15.06-8.04-15.06-16.98s5.4-16.92 15.06-16.92a13.258 13.258 0 0 1 9.899 3.96v-.24a2.476 2.476 0 0 1 2.52-2.7 2.412 2.412 0 0 1 2.64 2.52v23.16a.971.971 0 0 0 .84 1.08 2.55 2.55 0 1 1 0 5.1zm-15.9-27.78c-6 0-9.9 4.68-9.9 11.82 0 7.2 3.9 11.88 9.9 11.88 6.06 0 9.9-4.68 9.9-11.88 0-7.14-3.84-11.82-9.9-11.82z"/><use xlink:href="#J" x="114.957"/><path d="M219.192 79.368h-6.9a2.55 2.55 0 0 1 0-5.1h.9V41.75h-.9a2.55 2.55 0 0 1 0-5.1h6.9a2.551 2.551 0 1 1 0 5.1h-.9v32.52h.9a2.551 2.551 0 1 1 0 5.1zm31.438 0a2.424 2.424 0 0 1-2.52-2.52v-16.68a8.55 8.55 0 1 0-17.099 0v16.62a2.55 2.55 0 0 1-2.64 2.64 2.472 2.472 0 0 1-2.52-2.58V50.03a2.387 2.387 0 0 1 2.52-2.52 2.509 2.509 0 0 1 2.58 1.98 13.703 13.703 0 0 1 22.259 10.68V76.8a2.454 2.454 0 0 1-2.58 2.58zm32.64-28.318l-10.92 26.28a2.736 2.736 0 0 1-2.58 2.04 2.905 2.905 0 0 1-2.58-2.04l-10.92-26.28a3.69 3.69 0 0 1-.18-1.08 2.588 2.588 0 0 1 2.64-2.46 2.456 2.456 0 0 1 2.28 1.56l8.76 21 8.76-21a2.584 2.584 0 0 1 4.979.84 2.991 2.991 0 0 1-.24 1.14z"/><use xlink:href="#K" /><use xlink:href="#L" /><path d="M355.87 79.368h-1.02c-5.7 0-7.86-3-7.86-7.92V52.6h-1.8a2.55 2.55 0 1 1-.06-5.1h1.8v-8.34a2.436 2.436 0 0 1 2.58-2.52 2.39 2.39 0 0 1 2.52 2.52v8.34h3.84a2.487 2.487 0 0 1 2.52 2.52 2.441 2.441 0 0 1-2.52 2.58h-3.84V72c0 1.68.6 2.28 2.28 2.28h1.5a2.475 2.475 0 0 1 2.58 2.52 2.441 2.441 0 0 1-2.52 2.58zm43.68 0a2.457 2.457 0 0 1-2.52-2.52v-18.9a6.33 6.33 0 1 0-12.659-.06v18.9a2.454 2.454 0 0 1-2.58 2.58 2.424 2.424 0 0 1-2.52-2.52v-18.9a6.36 6.36 0 0 0-12.719-.06v18.9a2.501 2.501 0 0 1-2.64 2.58 2.456 2.456 0 0 1-2.52-2.52V50.03a2.632 2.632 0 0 1 4.8-1.44 11.56 11.56 0 0 1 6.66-2.1 11.358 11.358 0 0 1 8.939 4.26 11.24 11.24 0 0 1 8.88-4.26 11.459 11.459 0 0 1 11.52 11.4v18.9a2.501 2.501 0 0 1-2.64 2.58z"/><use xlink:href="#K" x="120.9"/><path d="M465.3 79.368a2.424 2.424 0 0 1-2.52-2.52v-16.68a8.55 8.55 0 1 0-17.099 0v16.62a2.551 2.551 0 0 1-2.64 2.64 2.472 2.472 0 0 1-2.52-2.58V50.03a2.387 2.387 0 0 1 2.52-2.52 2.509 2.509 0 0 1 2.58 1.98 13.703 13.703 0 0 1 22.259 10.68V76.8a2.454 2.454 0 0 1-2.58 2.58zm18.3 0h-1.02c-5.7 0-7.86-3-7.86-7.92V52.6h-1.8a2.55 2.55 0 0 1-.06-5.1h1.8v-8.34a2.436 2.436 0 0 1 2.58-2.52 2.389 2.389 0 0 1 2.52 2.52v8.34h3.84a2.488 2.488 0 0 1 2.52 2.52 2.441 2.441 0 0 1-2.52 2.58h-3.84V72c0 1.68.6 2.28 2.28 2.28h1.5a2.475 2.475 0 0 1 2.58 2.52 2.441 2.441 0 0 1-2.52 2.58zm20.578-36.718a4.32 4.32 0 1 1 4.319-4.319 4.302 4.302 0 0 1-4.319 4.319zm0 36.72a2.52 2.52 0 0 1-2.64-2.52V50.1a2.533 2.533 0 0 1 2.64-2.58 2.472 2.472 0 0 1 2.52 2.58v26.76a2.421 2.421 0 0 1-2.52 2.52z"/><use xlink:href="#M" /><path d="M585.664 79.428a2.573 2.573 0 0 1-1.979-1.08l-12.48-17.46h-7.74v15.9a2.501 2.501 0 0 1-2.64 2.58 2.456 2.456 0 0 1-2.52-2.52V39.23a2.491 2.491 0 0 1 2.52-2.58h15.54c5.28 0 12.06 4.14 12.06 12.06a12.095 12.095 0 0 1-11.039 12.12l10.5 14.46a2.354 2.354 0 0 1 .539 1.56 2.76 2.76 0 0 1-2.76 2.58zm-9.36-37.68h-12.84v14.04h12.78a7.02 7.02 0 0 0 .06-14.04z"/><use xlink:href="#N" /><use xlink:href="#M" x="112.858"/><use xlink:href="#N" x="65.699"/><path d="M731.524 50.93l-9.3 26.34a2.727 2.727 0 0 1-2.64 2.1c-1.26 0-1.98-.54-2.52-2.1l-7.02-19.8-7.08 19.8a2.599 2.599 0 0 1-5.101 0l-9.24-26.34a2.64 2.64 0 0 1-.12-.96 2.585 2.585 0 0 1 2.64-2.46 2.378 2.378 0 0 1 2.34 1.68l6.96 20.04 7.08-19.62c.48-1.38 1.08-2.1 2.52-2.1 1.32 0 2.04.66 2.52 2.1l7.02 19.62 7.02-20.04a2.359 2.359 0 0 1 2.279-1.68 2.667 2.667 0 0 1 2.761 2.52 2.484 2.484 0 0 1-.12.9zm32.64 28.438a5.837 5.837 0 0 1-5.339-3.42 13.748 13.748 0 0 1-10.56 4.44c-9.78 0-15.06-8.04-15.06-16.98s5.4-16.92 15.06-16.92a13.259 13.259 0 0 1 9.899 3.96v-.24a2.475 2.475 0 0 1 2.52-2.7 2.412 2.412 0 0 1 2.64 2.52v23.16a.971.971 0 0 0 .84 1.08 2.55 2.55 0 1 1 0 5.1zm-15.898-27.78c-6 0-9.9 4.68-9.9 11.82 0 7.2 3.9 11.88 9.9 11.88 6.06 0 9.9-4.68 9.9-11.88 0-7.14-3.84-11.82-9.9-11.82zm36.72 28.8a14.203 14.203 0 0 1-9.9-3.6 2.453 2.453 0 0 1-2.64 2.52 2.421 2.421 0 0 1-2.52-2.52V39.23a2.58 2.58 0 0 1 5.159-.06V50.4a13.321 13.321 0 0 1 9.9-3.9c9.66 0 15.06 7.92 15.06 16.92 0 9.06-5.4 16.98-15.06 16.98zm0-28.8c-6 0-9.9 4.68-9.9 11.82 0 7.2 3.9 11.88 9.9 11.88s9.9-4.68 9.9-11.88c0-7.14-3.9-11.82-9.9-11.82z"/><use xlink:href="#J" x="731.507"/><use xlink:href="#N" x="222.896"/><path d="M61.576 140.568h-24.96a2.601 2.601 0 0 1-2.64-2.52V100.43a2.612 2.612 0 0 1 2.64-2.58h24.96a2.425 2.425 0 0 1 2.52 2.52 2.505 2.505 0 0 1-2.52 2.58h-22.44v12.12h15.72a2.561 2.561 0 0 1 2.58 2.58 2.523 2.523 0 0 1-2.58 2.58h-15.72v15.24h22.44a2.471 2.471 0 0 1 2.52 2.58 2.425 2.425 0 0 1-2.52 2.52z"/><use xlink:href="#O" /><path d="M126.555 127.25h-22.2c.84 5.64 4.44 9.24 9.72 9.24a9.005 9.005 0 0 0 7.14-3.12 2.484 2.484 0 0 1 1.86-.96 2.8 2.8 0 0 1 2.7 2.64c0 .72-.18 1.26-1.44 2.52a14.622 14.622 0 0 1-10.26 4.02c-9.66 0-15.06-7.98-15.06-16.98 0-8.94 5.4-16.92 15.06-16.92 9.78 0 15 7.98 15 16.92a2.558 2.558 0 0 1-2.52 2.64zm-12.48-14.46c-5.64 0-8.94 4.14-9.72 9.3h19.44c-.84-5.76-4.44-9.3-9.72-9.3zm32.76 0a8.644 8.644 0 0 0-8.52 8.58V138a2.501 2.501 0 0 1-2.64 2.58 2.456 2.456 0 0 1-2.52-2.52V111.3a2.541 2.541 0 0 1 2.52-2.58 2.463 2.463 0 0 1 2.58 2.04 13.875 13.875 0 0 1 8.58-3.06 2.552 2.552 0 1 1 0 5.1zm17.4 41.458c-3.66 0-12.72-1.32-12.72-4.92a2.794 2.794 0 0 1 2.58-2.7c1.38 0 .18.18 3.36 1.38a18.748 18.748 0 0 0 6.78 1.14c6.66 0 9.9-3.18 9.9-9.48v-2.7a14.037 14.037 0 0 1-9.899 3.6c-9.48 0-15.06-6.72-15.06-15.96 0-9 5.4-16.92 15.06-16.92 4.2 0 7.44 1.26 9.9 3.84v-.24a2.554 2.554 0 0 1 2.58-2.58 2.519 2.519 0 0 1 2.58 2.58v28.38c0 9.54-5.7 14.58-15.06 14.58zm0-41.458c-6 0-9.9 4.68-9.9 11.82 0 6.84 3.6 10.86 9.9 10.86s9.9-4.02 9.9-10.86c0-7.14-3.84-11.82-9.9-11.82zm47.16-.48l-16.2 36.838a6.876 6.876 0 0 1-6.6 4.02h-1.92a2.42 2.42 0 0 1-2.52-2.64 2.387 2.387 0 0 1 2.52-2.52h1.86a1.894 1.894 0 0 0 1.98-.96l3.96-8.88-11.7-25.86a2.168 2.168 0 0 1-.3-1.14 2.705 2.705 0 0 1 2.76-2.52 2.309 2.309 0 0 1 2.16 1.56l9.78 21.72 9.54-21.72a2.375 2.375 0 0 1 2.22-1.5 2.659 2.659 0 0 1 2.76 2.46 2.035 2.035 0 0 1-.3 1.14z"/><use xlink:href="#P" /><use xlink:href="#L" x="-80.817" y="61.2"/><path d="M304.572 140.628a2.574 2.574 0 0 1-1.98-1.08l-12.48-17.46h-7.74v15.9a2.501 2.501 0 0 1-2.64 2.58 2.456 2.456 0 0 1-2.52-2.52V100.43a2.491 2.491 0 0 1 2.52-2.58h15.54c5.28 0 12.06 4.14 12.06 12.06a12.096 12.096 0 0 1-11.04 12.12l10.5 14.46a2.355 2.355 0 0 1 .54 1.56 2.76 2.76 0 0 1-2.76 2.58zm-9.36-37.68h-12.84v14.04h12.78a7.02 7.02 0 0 0 .06-14.04z"/><use xlink:href="#P" x="84.898"/><use xlink:href="#L" x="4.082" y="61.2"/><use xlink:href="#P" x="122.637"/><use xlink:href="#O" x="293.995"/><path d="M408.07 154.248c-3.66 0-12.72-1.32-12.72-4.92a2.794 2.794 0 0 1 2.58-2.7c1.38 0 .18.18 3.36 1.38a18.748 18.748 0 0 0 6.78 1.14c6.66 0 9.9-3.18 9.9-9.48v-2.7a14.039 14.039 0 0 1-9.9 3.6c-9.48 0-15.06-6.72-15.06-15.96 0-9 5.4-16.92 15.06-16.92 4.2 0 7.44 1.26 9.9 3.84v-.24a2.553 2.553 0 0 1 2.58-2.58 2.519 2.519 0 0 1 2.58 2.58v28.38c0 9.54-5.7 14.58-15.06 14.58zm0-41.458c-6 0-9.9 4.68-9.9 11.82 0 6.84 3.6 10.86 9.9 10.86s9.9-4.02 9.9-10.86c0-7.14-3.84-11.82-9.9-11.82z"/></g><path d="M34.003 414.675v-2.04a16.938 16.938 0 0 1 1.428-3.383q.885-1.58 1.87-2.992.986-1.4 2.006-2.72 1.02-1.308 1.837-2.584a14.928 14.928 0 0 0 1.325-2.567 7.232 7.232 0 0 0 .511-2.686 4.302 4.302 0 0 0-.851-2.907 2.69 2.69 0 0 0-2.107-.969 2.995 2.995 0 0 0-2.432 1.207 7.098 7.098 0 0 0-1.139 3.961h-2.244a12.385 12.385 0 0 1 .595-3.469 6.268 6.268 0 0 1 1.275-2.227 4.368 4.368 0 0 1 1.768-1.173 6.427 6.427 0 0 1 2.108-.34 5.219 5.219 0 0 1 3.944 1.598 6.484 6.484 0 0 1 1.529 4.658 8.369 8.369 0 0 1-.425 2.754 11.628 11.628 0 0 1-1.139 2.363 20.858 20.858 0 0 1-1.649 2.261q-.935 1.122-1.955 2.465-1.02 1.343-2.057 2.975a26.623 26.623 0 0 0-1.955 3.774h9.316v2.04zM58.755 402.4a39.31 39.31 0 0 1-.356 5.713 13.972 13.972 0 0 1-1.089 3.909 5.361 5.361 0 0 1-1.853 2.262 5.057 5.057 0 0 1-5.236 0 5.361 5.361 0 0 1-1.853-2.262 13.908 13.908 0 0 1-1.088-3.909 45.826 45.826 0 0 1 0-11.425 13.926 13.926 0 0 1 1.088-3.91 5.37 5.37 0 0 1 1.853-2.261 5.057 5.057 0 0 1 5.236 0 5.37 5.37 0 0 1 1.853 2.261 13.989 13.989 0 0 1 1.089 3.91 39.305 39.305 0 0 1 .356 5.712zm-2.448 0a47.805 47.805 0 0 0-.221-5.049 14.467 14.467 0 0 0-.663-3.247 3.949 3.949 0 0 0-1.088-1.751 2.389 2.389 0 0 0-2.992 0 3.949 3.949 0 0 0-1.088 1.751 14.467 14.467 0 0 0-.663 3.247 57.871 57.871 0 0 0 0 10.099 14.455 14.455 0 0 0 .663 3.247 3.949 3.949 0 0 0 1.088 1.751 2.389 2.389 0 0 0 2.992 0 3.949 3.949 0 0 0 1.088-1.751 14.455 14.455 0 0 0 .663-3.247 47.8 47.8 0 0 0 .221-5.05zm15.493 0a39.31 39.31 0 0 1-.356 5.713 13.972 13.972 0 0 1-1.089 3.909 5.361 5.361 0 0 1-1.853 2.262 5.057 5.057 0 0 1-5.236 0 5.361 5.361 0 0 1-1.853-2.262 13.909 13.909 0 0 1-1.088-3.909 45.827 45.827 0 0 1 0-11.425 13.926 13.926 0 0 1 1.088-3.91 5.37 5.37 0 0 1 1.853-2.261 5.057 5.057 0 0 1 5.236 0 5.37 5.37 0 0 1 1.853 2.261 13.99 13.99 0 0 1 1.089 3.91 39.305 39.305 0 0 1 .356 5.712zm-2.448 0a47.805 47.805 0 0 0-.221-5.049 14.467 14.467 0 0 0-.663-3.247 3.949 3.949 0 0 0-1.088-1.751 2.389 2.389 0 0 0-2.992 0 3.949 3.949 0 0 0-1.088 1.751 14.467 14.467 0 0 0-.663 3.247 57.869 57.869 0 0 0 0 10.099 14.455 14.455 0 0 0 .663 3.247 3.949 3.949 0 0 0 1.088 1.751 2.389 2.389 0 0 0 2.992 0 3.949 3.949 0 0 0 1.088-1.751 14.455 14.455 0 0 0 .663-3.247 47.8 47.8 0 0 0 .221-5.05zm6.198 6.563a7.559 7.559 0 0 0 .271 1.377 5.476 5.476 0 0 0 .562 1.292 2.996 2.996 0 0 0 .918.969 2.422 2.422 0 0 0 1.377.374 3.06 3.06 0 0 0 2.635-1.615 8.999 8.999 0 0 0 1.037-4.811 12.863 12.863 0 0 0-.272-2.89 5.813 5.813 0 0 0-.73-1.854 2.682 2.682 0 0 0-1.071-.986 3.014 3.014 0 0 0-3.213.408 3.443 3.443 0 0 0-1.173 1.684l-1.904-.34.816-12.444h8.636l-.204 2.04h-6.46l-.476 7.48a4.885 4.885 0 0 1 1.479-.85 5.131 5.131 0 0 1 1.785-.306 4.311 4.311 0 0 1 2.006.492 4.723 4.723 0 0 1 1.666 1.496 8.11 8.11 0 0 1 1.139 2.499 14.632 14.632 0 0 1-.051 7.208 8.24 8.24 0 0 1-1.292 2.669 5.459 5.459 0 0 1-1.904 1.615 5.106 5.106 0 0 1-2.312.544 5.55 5.55 0 0 1-2.329-.459 4.781 4.781 0 0 1-1.683-1.258 5.785 5.785 0 0 1-1.055-1.87 8.24 8.24 0 0 1-.441-2.261z" opacity=".7" fill="#fff"/><path d="M997.105 161.184v-2.04a16.938 16.938 0 0 1 1.428-3.383q.885-1.58 1.87-2.992.986-1.4 2.006-2.72 1.02-1.308 1.837-2.584a14.928 14.928 0 0 0 1.325-2.567 7.231 7.231 0 0 0 .511-2.686 4.302 4.302 0 0 0-.851-2.907 2.69 2.69 0 0 0-2.107-.969 2.995 2.995 0 0 0-2.432 1.207 7.098 7.098 0 0 0-1.139 3.961h-2.244a12.385 12.385 0 0 1 .595-3.469 6.268 6.268 0 0 1 1.275-2.227 4.368 4.368 0 0 1 1.768-1.173 6.427 6.427 0 0 1 2.108-.34 5.219 5.219 0 0 1 3.944 1.598 6.484 6.484 0 0 1 1.529 4.658 8.369 8.369 0 0 1-.425 2.754 11.628 11.628 0 0 1-1.139 2.363 20.86 20.86 0 0 1-1.649 2.261q-.935 1.122-1.955 2.465-1.02 1.343-2.057 2.975a26.623 26.623 0 0 0-1.955 3.774h9.316v2.04zm25.67-12.274a39.309 39.309 0 0 1-.356 5.713 13.972 13.972 0 0 1-1.089 3.909 5.361 5.361 0 0 1-1.853 2.262 5.057 5.057 0 0 1-5.236 0 5.361 5.361 0 0 1-1.853-2.262 13.908 13.908 0 0 1-1.088-3.909 45.827 45.827 0 0 1 0-11.425 13.926 13.926 0 0 1 1.088-3.91 5.37 5.37 0 0 1 1.853-2.261 5.057 5.057 0 0 1 5.236 0 5.37 5.37 0 0 1 1.853 2.261 13.989 13.989 0 0 1 1.089 3.91 39.304 39.304 0 0 1 .356 5.712zm-2.448 0a47.805 47.805 0 0 0-.221-5.049 14.467 14.467 0 0 0-.663-3.247 3.949 3.949 0 0 0-1.088-1.751 2.389 2.389 0 0 0-2.992 0 3.949 3.949 0 0 0-1.088 1.751 14.467 14.467 0 0 0-.663 3.247 57.871 57.871 0 0 0 0 10.099 14.454 14.454 0 0 0 .663 3.247 3.949 3.949 0 0 0 1.088 1.751 2.389 2.389 0 0 0 2.992 0 3.949 3.949 0 0 0 1.088-1.751 14.455 14.455 0 0 0 .663-3.247 47.8 47.8 0 0 0 .221-5.05zm4.758 12.274v-2.04h2.992v-19.72l-3.06.27V138.2a11.838 11.838 0 0 0 2.04-.73 8.33 8.33 0 0 0 1.836-1.173h1.632v22.848h2.856v2.04zm9.895-24.548h11.016v1.292l-7.14 23.256h-2.584l7.14-22.508h-8.432z" opacity=".7" fill="#fff"/><path d="M943.44 218.622a5.397 5.397 0 0 1-5.43-5.37.87.87 0 0 1 1.74 0 3.649 3.649 0 0 0 3.63 3.66 3.687 3.687 0 0 0 3.72-3.66v-15.57a.819.819 0 0 1 .84-.84.843.843 0 0 1 .87.84v15.57a5.403 5.403 0 0 1-5.37 5.37zm24.7-.42h-.03a3.107 3.107 0 0 1-2.971-2.34 6.805 6.805 0 0 1-5.819 2.85c-4.9 0-7.53-4.02-7.53-8.5 0-4.53 2.7-8.46 7.53-8.46a6.856 6.856 0 0 1 5.819 2.82v-1.47a.846.846 0 0 1 .87-.84.819.819 0 0 1 .84.84v12.1c0 1.92 2.16.72 2.16 2.16a.825.825 0 0 1-.87.84zm-8.82-14.73c-3.54 0-5.82 2.85-5.82 6.75s2.28 6.78 5.82 6.78c3.57 0 5.82-2.88 5.82-6.78s-2.25-6.75-5.82-6.75zm19.35 15.238a6.807 6.807 0 0 1-5.819-2.85v7.77a.855.855 0 1 1-1.71 0V203.1a.855.855 0 0 1 1.71 0v1.47a6.858 6.858 0 0 1 5.819-2.82c4.83 0 7.53 3.96 7.53 8.46 0 4.53-2.7 8.5-7.53 8.5zm0-15.24c-3.57 0-5.82 2.85-5.82 6.75s2.25 6.78 5.82 6.78 5.82-2.88 5.82-6.78-2.25-6.75-5.82-6.75zm26.16 14.732h-.03a3.107 3.107 0 0 1-2.971-2.34 6.805 6.805 0 0 1-5.819 2.85c-4.9 0-7.53-4.02-7.53-8.5 0-4.53 2.7-8.46 7.53-8.46a6.856 6.856 0 0 1 5.819 2.82v-1.47a.846.846 0 0 1 .87-.84.819.819 0 0 1 .84.84v12.1c0 1.92 2.16.72 2.16 2.16a.825.825 0 0 1-.87.84zm-8.82-14.73c-3.54 0-5.82 2.85-5.82 6.75S992.46 217 996 217c3.57 0 5.82-2.88 5.82-6.78s-2.25-6.75-5.82-6.75zm24.66 14.73a.843.843 0 0 1-.87-.84v-8.76a5.13 5.13 0 0 0-10.26 0v8.76a.855.855 0 0 1-1.71 0v-14.25a.855.855 0 0 1 1.71 0v.96a6.844 6.844 0 0 1 11.97 4.53v8.76a.836.836 0 0 1-.84.84z"/><g fill="#fff"><path d="M977.664 318.986a7.515 7.515 0 0 1-7.53-7.529v-13.53a.871.871 0 0 1 1.74 0v13.53a5.805 5.805 0 1 0 11.609 0v-13.53a.855.855 0 0 1 1.71 0v13.53a7.515 7.515 0 0 1-7.53 7.529zm17.25-.03a11.078 11.078 0 0 1-7.169-2.64.782.782 0 0 1-.27-.6.912.912 0 0 1 .87-.87c.36 0 .33.1.96.57a9.505 9.505 0 0 0 5.609 1.83c3.78 0 5.97-1.4 5.97-4.1 0-7.1-12.7-3.15-12.7-11.34 0-3.6 3.15-5.25 7.02-5.25 2.16 0 5.2.93 6.54 2.82a.834.834 0 0 1-.72 1.35c-.42 0-.42-.12-.93-.63a6.942 6.942 0 0 0-4.89-1.83c-3.57 0-5.3 1.38-5.3 3.54 0 6.45 12.7 2.7 12.7 11.34 0 4.17-3.66 5.82-7.68 5.82zm25.53-.5a.873.873 0 0 1-.78-.51l-1.92-4.62h-10.8l-1.92 4.62a.845.845 0 0 1-1.62-.3.888.888 0 0 1 .06-.391l8.1-19.65a.944.944 0 0 1 .87-.569.773.773 0 0 1 .72.569l8.1 19.65a.888.888 0 0 1 .06.391.839.839 0 0 1-.87.81zm-8.1-18.27l-4.7 11.43h9.45zm-50 212.798a7.684 7.684 0 0 1-6.689 3.27c-6.45 0-8.73-5.34-8.73-11.2 0-5.88 2.28-11.22 8.73-11.22a7.597 7.597 0 0 1 6.66 3.271.607.607 0 0 1 .18.479.898.898 0 0 1-.93.84.795.795 0 0 1-.66-.33 5.902 5.902 0 0 0-5.25-2.55c-4.98 0-7.02 3.9-7.02 9.5 0 5.58 2.04 9.48 7.02 9.48a5.979 5.979 0 0 0 5.31-2.55.698.698 0 0 1 .66-.39.917.917 0 0 1 .9.87.956.956 0 0 1-.18.51zm15.66 2.76a.843.843 0 0 1-.87-.84v-8.76a5.13 5.13 0 1 0-10.259 0v8.76a.855.855 0 0 1-1.71 0v-19.68a.855.855 0 0 1 1.71 0v6.4a6.664 6.664 0 0 1 5.13-2.31 6.895 6.895 0 0 1 6.839 6.84v8.76a.836.836 0 0 1-.84.84zm5.1-18.81a1.71 1.71 0 1 1 1.71-1.71 1.69 1.69 0 0 1-1.71 1.71zm0 18.8a.824.824 0 0 1-.87-.84v-14.25a.827.827 0 0 1 .87-.84.818.818 0 0 1 .84.84v14.25a.803.803 0 0 1-.84.84zm17.34.01a.843.843 0 0 1-.87-.84v-8.76a5.13 5.13 0 1 0-10.259 0v8.76a.855.855 0 0 1-1.71 0v-14.25a.855.855 0 0 1 1.71 0v.96a6.843 6.843 0 0 1 11.969 4.53v8.76a.836.836 0 0 1-.84.84zm19.89 0h-.03a3.106 3.106 0 0 1-2.97-2.34 6.806 6.806 0 0 1-5.819 2.85c-4.9 0-7.53-4.02-7.53-8.5 0-4.53 2.7-8.46 7.53-8.46a6.857 6.857 0 0 1 5.819 2.82v-1.47a.846.846 0 0 1 .87-.84.819.819 0 0 1 .84.84v12.1c0 1.92 2.16.72 2.16 2.16a.825.825 0 0 1-.87.84zm-8.82-14.73c-3.54 0-5.82 2.85-5.82 6.75s2.28 6.78 5.82 6.78c3.57 0 5.82-2.88 5.82-6.78s-2.25-6.75-5.82-6.75zm-68.167 227.922h-13.32a.908.908 0 0 1-.87-.84v-19.68a.886.886 0 0 1 .87-.84h13.32a.841.841 0 1 1 0 1.681h-12.48v7.38h9.15a.827.827 0 0 1 .87.84.843.843 0 0 1-.84.87h-9.18v8.88h12.48a.85.85 0 0 1 .87.87.825.825 0 0 1-.87.84zm15.1 0a.843.843 0 0 1-.87-.84v-.96a6.663 6.663 0 0 1-5.129 2.31 6.915 6.915 0 0 1-6.84-6.84v-8.76a.855.855 0 0 1 1.71 0v8.76a5.13 5.13 0 1 0 10.259 0v-8.76a.855.855 0 0 1 1.71 0v14.25a.836.836 0 0 1-.84.84zm11.34-14.46a5.127 5.127 0 0 0-5.13 5.129v8.5a.855.855 0 0 1-1.71 0v-14.25a.855.855 0 0 1 1.71 0v1.23a6.849 6.849 0 0 1 5.13-2.31.855.855 0 1 1 0 1.71z"/><use xlink:href="#Q" /><path d="M996.674 729.435a6.807 6.807 0 0 1-5.82-2.85v7.77a.855.855 0 1 1-1.71 0v-20.52a.855.855 0 0 1 1.71 0v1.47a6.858 6.858 0 0 1 5.82-2.82c4.83 0 7.53 3.96 7.53 8.46 0 4.53-2.7 8.5-7.53 8.5zm0-15.24c-3.57 0-5.82 2.85-5.82 6.75s2.25 6.78 5.82 6.78 5.82-2.88 5.82-6.78-2.25-6.75-5.82-6.75zm23.76 7.62h-12.45c.27 3.42 2.5 5.9 5.76 5.9a5.423 5.423 0 0 0 4.41-2.069.786.786 0 0 1 .72-.42.917.917 0 0 1 .93.81c0 .27 0 .33-.57 1a7.082 7.082 0 0 1-5.49 2.399c-4.83 0-7.53-3.96-7.53-8.5 0-4.5 2.7-8.46 7.53-8.46s7.53 4 7.53 8.46a.908.908 0 0 1-.84.87zm-6.7-7.62c-3.6 0-5.5 2.76-5.76 5.9h11.55c-.27-3.42-2.5-5.9-5.8-5.9z"/></g><use xlink:href="#Q" x="-31.065" y="145.532"/><path d="M963.64 874.457h-.93c-2.37 0-3.54-1.17-3.54-3.5v-10.7h-1.53a.855.855 0 0 1 0-1.71h1.53v-4.6a.843.843 0 0 1 .87-.84.819.819 0 0 1 .84.84v4.6h2.76a.855.855 0 0 1 0 1.71h-2.76v10.7c0 1.47.42 1.8 1.83 1.8h.93a.855.855 0 0 1 0 1.71zm15.8 0a.843.843 0 0 1-.87-.84v-8.76a5.13 5.13 0 1 0-10.259 0v8.76a.855.855 0 0 1-1.71 0v-19.68a.855.855 0 0 1 1.71 0v6.4a6.664 6.664 0 0 1 5.13-2.31 6.894 6.894 0 0 1 6.839 6.84v8.76a.836.836 0 0 1-.84.84zm17.758-7.11h-12.45c.27 3.42 2.5 5.9 5.76 5.9a5.423 5.423 0 0 0 4.41-2.069.786.786 0 0 1 .72-.42.916.916 0 0 1 .93.81c0 .27 0 .33-.57 1a7.083 7.083 0 0 1-5.49 2.399c-4.83 0-7.53-3.96-7.53-8.5 0-4.5 2.7-8.46 7.53-8.46s7.53 4 7.53 8.46a.908.908 0 0 1-.84.87zm-6.7-7.62c-3.6 0-5.5 2.76-5.76 5.9h11.55c-.27-3.42-2.5-5.9-5.8-5.9zm17.342.27a5.127 5.127 0 0 0-5.13 5.129v8.5a.855.855 0 0 1-1.71 0v-14.25a.855.855 0 0 1 1.71 0v1.23a6.85 6.85 0 0 1 5.13-2.31.855.855 0 1 1 0 1.71zm7.47 15.03c-1.8 0-4.83-.63-5.88-2.37a.724.724 0 0 1-.12-.45.819.819 0 0 1 1.53-.479c1.08 1.32 3 1.6 4.47 1.6 2.9 0 4.38-.96 4.38-2.9 0-4.53-9.84-2.13-9.84-8.13 0-3.03 3.03-4.2 5.76-4.2a8.132 8.132 0 0 1 5.16 1.739.842.842 0 0 1 .27.57.971.971 0 0 1-.93.899.793.793 0 0 1-.569-.239 5.998 5.998 0 0 0-3.931-1.26c-2.64 0-4.05 1.02-4.05 2.5 0 4.2 9.84 1.98 9.84 8.13 0 3.42-3 4.62-6.1 4.62z"/><g fill="#fff"><path d="M39.417 745.114c0-.232-.105-.35-.315-.35a6.5 6.5 0 0 1-3.813-2.379 8.585 8.585 0 0 1-.927-1.854 6.055 6.055 0 0 1-.333-2.029q-.105-.524.385-.42h1.47c.42-.07.652.06.7.385a5.164 5.164 0 0 0 1.084 2.903 3.677 3.677 0 0 0 3.008 1.225q4.092-.105 4.163-4.093a3.749 3.749 0 0 0-1.504-3.253 13.773 13.773 0 0 0-1.644-.997q-.9-.472-2.03-.962a10.845 10.845 0 0 1-1.924-1.066 10.407 10.407 0 0 1-1.574-1.347 5.856 5.856 0 0 1-1.102-1.767 5.674 5.674 0 0 1-.367-2.292 6.341 6.341 0 0 1 1.308-3.935 7.061 7.061 0 0 1 3.541-2.222q.28 0 .28-.385v-3.428c-.047-.232.058-.338.314-.314h1.78q.35 0 .35.314v3.358q-.07.385.245.385a5.572 5.572 0 0 1 3.663 2.203 6.409 6.409 0 0 1 1.186 3.848q.105.526-.345.42H45.53q-.552.105-.62-.385-.07-3.743-3.883-3.848a3.536 3.536 0 0 0-2.833 1.119 4.133 4.133 0 0 0-.98 2.764 3.542 3.542 0 0 0 1.29 2.903 9.06 9.06 0 0 0 1.412.962 17.454 17.454 0 0 0 1.69.822 16.298 16.298 0 0 1 2.475 1.329 10.513 10.513 0 0 1 1.778 1.469 5.87 5.87 0 0 1 1.464 4.198 6.262 6.262 0 0 1-1.46 4.372 5.833 5.833 0 0 1-3.754 2.064q-.313 0-.312.35v3.357c.023.257-.082.36-.315.315h-1.784c-.233.046-.327-.047-.28-.28zm23.925-28.554a10.276 10.276 0 0 1 7.705 3.36 11.525 11.525 0 0 1 2.304 3.569 10.945 10.945 0 0 1 .769 4.471 13.21 13.21 0 0 1-1.329 6 8.241 8.241 0 0 1-3.663 3.6q-.24.18.06.6a10.974 10.974 0 0 1 5.7 10.261 12.157 12.157 0 0 1-3.36 8.699 10.956 10.956 0 0 1-8.22 3.42 11.183 11.183 0 0 1-4.56-.899 11.989 11.989 0 0 1-3.66-2.521 12.154 12.154 0 0 1-3.36-8.699 10.949 10.949 0 0 1 5.76-10.261q.36-.36.06-.6a8.409 8.409 0 0 1-3.63-3.6 13.541 13.541 0 0 1-1.41-6 10.756 10.756 0 0 1 .783-4.471 10.999 10.999 0 0 1 2.407-3.569 10.082 10.082 0 0 1 7.645-3.36zm.025 40.02a6.94 6.94 0 0 0 5.34-2.279 8.281 8.281 0 0 0 1.98-5.82 9.688 9.688 0 0 0-1.92-6.24 7.091 7.091 0 0 0-10.74 0 9.685 9.685 0 0 0-1.92 6.24 8.281 8.281 0 0 0 1.98 5.82 6.642 6.642 0 0 0 5.28 2.279h0zm-.12-20.76q6.48-.362 6.54-7.77a8.063 8.063 0 0 0-1.74-5.301 6.283 6.283 0 0 0-9.6 0 8.355 8.355 0 0 0-1.74 5.301q.18 7.4 6.54 7.77zm27.213-19.26a10.276 10.276 0 0 1 7.705 3.36 11.525 11.525 0 0 1 2.304 3.569 10.945 10.945 0 0 1 .769 4.471 13.21 13.21 0 0 1-1.329 6 8.241 8.241 0 0 1-3.663 3.6q-.24.18.06.6a10.974 10.974 0 0 1 5.7 10.261 12.157 12.157 0 0 1-3.36 8.699 10.956 10.956 0 0 1-8.22 3.42 11.183 11.183 0 0 1-4.56-.899 11.989 11.989 0 0 1-3.66-2.521 12.154 12.154 0 0 1-3.36-8.699 10.949 10.949 0 0 1 5.76-10.261q.36-.36.06-.6a8.409 8.409 0 0 1-3.63-3.6 13.541 13.541 0 0 1-1.41-6 10.756 10.756 0 0 1 .783-4.471 10.999 10.999 0 0 1 2.407-3.569 10.082 10.082 0 0 1 7.645-3.36zm.025 40.02a6.94 6.94 0 0 0 5.34-2.279 8.281 8.281 0 0 0 1.98-5.82 9.688 9.688 0 0 0-1.92-6.24 7.091 7.091 0 0 0-10.74 0 9.685 9.685 0 0 0-1.92 6.24 8.281 8.281 0 0 0 1.98 5.82 6.642 6.642 0 0 0 5.28 2.279h0zm-.12-20.76q6.48-.362 6.54-7.77a8.064 8.064 0 0 0-1.74-5.301 6.283 6.283 0 0 0-9.6 0 8.355 8.355 0 0 0-1.74 5.301q.18 7.4 6.54 7.77z"/><use xlink:href="#R" /><use xlink:href="#S" /><path d="M918.532 990.63c0-.232-.105-.35-.315-.35a6.5 6.5 0 0 1-3.813-2.379 8.586 8.586 0 0 1-.927-1.854 6.055 6.055 0 0 1-.333-2.029q-.105-.524.385-.42H915c.42-.07.652.06.7.385a5.164 5.164 0 0 0 1.084 2.903 3.677 3.677 0 0 0 3.008 1.225q4.092-.105 4.163-4.093a3.749 3.749 0 0 0-1.504-3.253 13.774 13.774 0 0 0-1.644-.997q-.9-.472-2.03-.962a10.845 10.845 0 0 1-1.924-1.066 10.408 10.408 0 0 1-1.574-1.347 5.856 5.856 0 0 1-1.102-1.767 5.674 5.674 0 0 1-.367-2.292 6.341 6.341 0 0 1 1.308-3.935 7.061 7.061 0 0 1 3.541-2.222q.28 0 .28-.385v-3.428c-.047-.232.058-.338.314-.314h1.78q.35 0 .35.314v3.358q-.07.385.245.385a5.572 5.572 0 0 1 3.663 2.203 6.409 6.409 0 0 1 1.186 3.848q.105.526-.345.42h-1.483q-.552.105-.62-.385-.07-3.743-3.883-3.848a3.536 3.536 0 0 0-2.833 1.119 4.133 4.133 0 0 0-.979 2.764 3.542 3.542 0 0 0 1.29 2.903 9.06 9.06 0 0 0 1.412.962 17.456 17.456 0 0 0 1.69.822 16.298 16.298 0 0 1 2.475 1.329 10.513 10.513 0 0 1 1.778 1.469 5.87 5.87 0 0 1 1.464 4.198 6.262 6.262 0 0 1-1.46 4.372 5.833 5.833 0 0 1-3.754 2.064q-.313 0-.312.35v3.357c.023.257-.082.36-.315.315h-1.784c-.233.046-.327-.047-.28-.28z"/><use xlink:href="#T" /><use xlink:href="#T" x="27.298"/><path d="M1003.86 991.036q-.12.658.54.54h3.54q.6-.06.54.53v2.838q.06.6-.54.59h-3.54q-.6-.06-.54.54v8.4c.04.48-.14.7-.54.66h-3c-.32.04-.48-.18-.48-.66v-8.4q.06-.6-.54-.54h-13.62q-.54 0-.54-.59v-3.61l.24-1.02 12.48-26.76a.941.941 0 0 1 .84-.479h4.62q.6-.06.54.6zm-4.5-22.08l-10.2 22.08q-.3.54.36.54h9.78q.6.12.54-.54v-21.96c-.12-.4-.28-.44-.48-.12z"/><use xlink:href="#R" x="905.514" y="245.615"/><use xlink:href="#S" x="905.514" y="245.616"/></g></svg>