<?xml version="1.0" encoding="utf-8"?>
<!-- Generator: Adobe Illustrator 26.0.1, SVG Export Plug-In . SVG Version: 6.00 Build 0)  -->
<svg version="1.1" id="Layer_1" xmlns="http://www.w3.org/2000/svg" xmlns:xlink="http://www.w3.org/1999/xlink" x="0px" y="0px"
	 viewBox="0 0 466.7 420" style="enable-background:new 0 0 466.7 420;" xml:space="preserve">
<g>
	<path d="M58.3,420c-5,0-9.5-3.2-11.1-8L0.6,272c-2.5-7.6,3.1-15.4,11.1-15.4H455c10.1,0,15.5,12.1,8.6,19.5l-128.3,140
		c-2.2,2.4-5.3,3.8-8.6,3.8L58.3,420z M93.3,303.3c-12.9,0-23.3,10.4-23.3,23.3c0,12.9,10.4,23.3,23.3,23.3s23.3-10.4,23.3-23.3
		C116.7,313.8,106.2,303.3,93.3,303.3z M163.3,303.3c-12.9,0-23.3,10.4-23.3,23.3c0,12.9,10.4,23.3,23.3,23.3s23.3-10.4,23.3-23.3
		C186.7,313.8,176.2,303.3,163.3,303.3z M233.3,303.3c-12.9,0-23.3,10.4-23.3,23.3c0,12.9,10.4,23.3,23.3,23.3s23.3-10.4,23.3-23.3
		C256.7,313.8,246.2,303.3,233.3,303.3z M303.3,303.3c-12.9,0-23.3,10.4-23.3,23.3c0,12.9,10.4,23.3,23.3,23.3s23.3-10.4,23.3-23.3
		C326.7,313.8,316.2,303.3,303.3,303.3z"/>
	<path d="M23.5,266.4l23.3-140c0.9-5.6,5.8-9.7,11.5-9.7h70c5.7,0,10.6,4.1,11.5,9.7l23.3,140c1.2,7.1-4.3,13.6-11.5,13.6H35
		C27.8,280,22.3,273.5,23.5,266.4L23.5,266.4z"/>
	<path d="M291.7,210c6.4,0,11.7,5.2,11.7,11.7c0,6.4-5.2,11.7-11.7,11.7H210c-4.4,0-8.5-2.5-10.4-6.4l-11.7-23.3
		c-2.9-5.8-0.5-12.8,5.2-15.7c5.8-2.9,12.8-0.5,15.7,5.2l8.4,16.9L291.7,210z"/>
	<path d="M267.2,216.6c2.8,5.8,0.4,12.8-5.4,15.6c-5.8,2.8-12.8,0.4-15.6-5.4l-16.9-35c-2.8-5.8-0.4-12.8,5.4-15.6
		c5.8-2.8,12.8-0.4,15.6,5.4L267.2,216.6z"/>
	<path d="M431.7,210c6.4,0,11.7,5.2,11.7,11.7c0,6.4-5.2,11.7-11.7,11.7H350c-4.4,0-8.5-2.5-10.4-6.4l-11.7-23.3
		c-2.9-5.8-0.5-12.8,5.2-15.7c5.8-2.9,12.8-0.5,15.7,5.2l8.4,16.9L431.7,210z"/>
	<path d="M407.2,216.6c2.8,5.8,0.4,12.8-5.4,15.6c-5.8,2.8-12.8,0.4-15.6-5.4l-16.9-35c-2.8-5.8-0.4-12.8,5.4-15.6
		c5.8-2.8,12.8-0.4,15.6,5.4L407.2,216.6z"/>
	<path d="M105,128.3c0,6.4-5.2,11.7-11.7,11.7s-11.7-5.2-11.7-11.7V11.7C81.7,5.2,86.9,0,93.3,0S105,5.2,105,11.7V128.3z"/>
	<path d="M58.3,93.3c-6.4,0-11.7-5.2-11.7-11.7c0-6.4,5.2-11.7,11.7-11.7h70c6.4,0,11.7,5.2,11.7,11.7c0,6.4-5.2,11.7-11.7,11.7
		H58.3z"/>
	<path d="M70,46.7c-6.4,0-11.7-5.2-11.7-11.7S63.6,23.3,70,23.3h46.7c6.4,0,11.7,5.2,11.7,11.7s-5.2,11.7-11.7,11.7H70z"/>
</g>
</svg>
