<svg id="Layer_1" data-name="Layer 1" xmlns="http://www.w3.org/2000/svg" viewBox="0 0 1634.08 470.26"><defs><style>.cls-1{fill:#282828;}.cls-2,.cls-4,.cls-8,.cls-9{fill:none;stroke:#333;}.cls-11,.cls-2,.cls-8,.cls-9{stroke-linecap:round;}.cls-2{stroke-width:3.57px;}.cls-3{fill:#fff;}.cls-4{stroke-width:0px;}.cls-5{fill:#010101;}.cls-6{fill:#333;}.cls-7{fill:#231f20;}.cls-8{stroke-width:4.75px;}.cls-11,.cls-9{stroke-width:5px;}.cls-10{fill:#ee2b31;}.cls-11{fill:#414042;stroke:#414042;stroke-linejoin:round;}</style></defs><path class="cls-1" d="M1517.9,86.35c-3.46,7.5-1,14.44,2.6,16.39s14,.84,15.93-2.31C1538.86,96.36,1521.66,78.22,1517.9,86.35Z"/><path class="cls-1" d="M1525.5,46.11c-7.89.39-19,8.34-12,19.33s18.83,4.23,25.79-1.5C1550.28,54.86,1533.39,45.72,1525.5,46.11Zm3.72,15.13c-2.17-1.45-5.56-.84-3.9-3.27s4.76-3.22,6.93-1.78a5,5,0,0,1,.93,7C1531.52,65.65,1531.39,62.69,1529.22,61.24Z"/><path class="cls-1" d="M1570.94,91.22c-1.9-9.16-15.59-25.23-21.18-9.39-3.52,10-6.63,26,6,30S1572.85,100.38,1570.94,91.22Zm-16.5-.55c-1.18-3.06-4.48-4.45-1.41-5.63a6,6,0,0,1,4.28,11.11C1554.24,97.33,1555.62,93.74,1554.44,90.67Z"/><path class="cls-1" d="M1584.62,26.73c4.94-20.22-9.18-26.37-16.3-26.7-9-.41-20,3.31-21.76,21.81C1546.56,21.84,1564.43,13.42,1584.62,26.73Z"/><path class="cls-1" d="M1472.77,116.11c9,53,26.92,76.92,38.77,76.92h16.77c7.21,0,9.93-4.9,2.51-12.41-4.26-4.31-2.86-14.06-1.48-20.38,7.76-.23,8.64-.69,15.26-1.57,18.08-3.67,24-14.44,24.43-23.45.55-10.22-13.94-12.62-23.91-10.7-32.53,6.25-40.67-11.27-36.29-30.66,3.6-16-12.45-12.69-6.67-32.32,6.25-21.28,20.44-29.62,40.22-38.72-10.61-2.69-25.51-4.27-40.13,1.16C1476.27,33.61,1463.59,62.06,1472.77,116.11Z"/><path class="cls-1" d="M1415.72,87.82c-24.51,10.84-17.42,40-.29,41.45,3,24.94,15,63.76,38.55,63.76h18.77c7.09,0,10.64-10.74,2.51-13.45-7-2.32-16.42-6.87-15.24-33,2-44-34-52-4.5-97.5C1442,57.11,1422.75,71,1415.72,87.82Z"/><path class="cls-1" d="M1553.94,163.6c2,5.13,3.34,13.05-.69,16.81-6,5.63-5.21,12.62,1.42,12.62h16.73c17.14,0,44.63-46.53,39.8-87.08C1600.41,137.2,1582.44,151.45,1553.94,163.6Z"/><path class="cls-1" d="M1633.33,59.51c-2.92-7.55-10.69-13.42-26.48-8.15,0,0,13.1,12.42,7,32.15C1633.49,79.65,1635.64,65.46,1633.33,59.51Z"/><polyline class="cls-2" points="1018.03 282.76 1033.48 282.76 1049.92 327.93"/><circle class="cls-3" cx="1033.49" cy="282.77" r="0.01"/><circle class="cls-4" cx="1033.49" cy="282.77" r="0.01"/><line class="cls-5" x1="1033.48" y1="282.77" x2="1033.49" y2="282.77"/><line class="cls-4" x1="1033.48" y1="282.77" x2="1033.49" y2="282.77"/><path class="cls-6" d="M1451.17,239.67l2.24-3.09q5.23,3.55,9.35,6.79c-.9.94-1.9,2.08-3,3.4Q1455.72,243.17,1451.17,239.67Zm1.77,32.53a172.46,172.46,0,0,0,5.38-20.21,40.17,40.17,0,0,0,4,1.62q-2.92,11.07-5,20Zm.26-46.17,2.56-2.82q3.51,2.73,9,7.37a37.23,37.23,0,0,0-3,3.13Q1457,229.23,1453.2,226ZM1491,249.9h3.87v4.39h7.62v3.55h-7.62V267q0,6.17-5.8,6.17-2.92,0-6.63-.06c-.18-1.35-.42-2.73-.73-4.12a54,54,0,0,0,6.06.36q3.23,0,3.23-3.13v-8.41h-17.59a80.89,80.89,0,0,1-9.46,11.07,34.44,34.44,0,0,0-2.77-3.13,66.12,66.12,0,0,0,13-17H1463.7v-3.56h12a36.78,36.78,0,0,0,1.67-5.32h-9.72v-3.55h10.5c.28-1.61.52-3.31.73-5.12h-12.79v-3.55h13.16c.13-1.64.24-3.35.31-5.12l4.18.31c-.11,1.67-.23,3.27-.37,4.81h17.71v3.55H1483c-.2,1.81-.47,3.51-.78,5.12h17v3.55h-17.76a45.9,45.9,0,0,1-1.51,5.32h22.71v3.56h-24.13a42.94,42.94,0,0,1-2.87,5.48H1491Zm-16.66,11.28,2.77-2.29q3.2,3.23,6,6.58l-3.13,2.45Q1477.49,264.68,1474.3,261.18Z"/><path class="cls-6" d="M1504.65,239.67l2.24-3.09q5.22,3.55,9.35,6.79c-.91.94-1.9,2.08-3,3.4C1510.55,244.37,1507.67,242,1504.65,239.67Zm1.77,32.53A172.46,172.46,0,0,0,1511.8,252a40.17,40.17,0,0,0,4,1.62q-2.92,11.07-5,20Zm.26-46.17,2.56-2.82q3.49,2.73,9,7.37a37.23,37.23,0,0,0-3,3.13Q1510.45,229.23,1506.68,226Zm37.76,23.87h3.87v4.39h7.62v3.55h-7.62V267c0,4.11-1.94,6.17-5.8,6.17q-2.92,0-6.63-.06c-.18-1.35-.42-2.73-.73-4.12a53.92,53.92,0,0,0,6,.36q3.24,0,3.24-3.13v-8.41h-17.6a80.78,80.78,0,0,1-9.45,11.07,36,36,0,0,0-2.77-3.13q8.82-8.67,13-17h-10.45v-3.56h12a34.34,34.34,0,0,0,1.67-5.32h-9.71v-3.55h10.5c.28-1.61.52-3.31.73-5.12h-12.8v-3.55h13.16c.14-1.64.25-3.35.32-5.12l4.18.31c-.11,1.67-.23,3.27-.37,4.81h17.7v3.55h-18.12c-.21,1.81-.47,3.51-.78,5.12h17v3.55h-17.76a46.08,46.08,0,0,1-1.52,5.32h22.72v3.56H1532a42.94,42.94,0,0,1-2.87,5.48h15.3Zm-16.66,11.28,2.77-2.29q3.18,3.23,6,6.58l-3.14,2.45Q1531,264.68,1527.78,261.18Z"/><path class="cls-7" d="M17.6,218V200.71H40V181.84H14.12c-1.42,0-2.13.91-2.13,2.71v7H0v-6.77q0-6.67,3.72-10.26t10.21-3.57H38a14.64,14.64,0,0,1,10.21,3.62q4,3.63,4,10.21v13.06q0,6.57-4,10.2A14.65,14.65,0,0,1,38,211.64h-8.8V218Zm11.27,18.77a7.24,7.24,0,0,1-5.27,2.13,7.26,7.26,0,0,1-5.27-2.13,7,7,0,0,1-2.18-5.22,7.43,7.43,0,0,1,7.45-7.45,7.43,7.43,0,0,1,7.45,7.45A7,7,0,0,1,28.87,236.79Z"/><path class="cls-7" d="M163.25,268.55h8.93q4.14,0,6,1.9a6.6,6.6,0,0,1,1.85,4.76,5.26,5.26,0,0,1-1,3.11,6.25,6.25,0,0,1-2.74,2.14,6.52,6.52,0,0,1,3.4,2.29,6,6,0,0,1,1.21,3.76,7.65,7.65,0,0,1-.43,2.59,7.49,7.49,0,0,1-1.33,2.31,6.07,6.07,0,0,1-2.56,1.71,10.79,10.79,0,0,1-3.85.63h-9.51Zm8.32,10.69a6.44,6.44,0,0,0,4-1.06,3.52,3.52,0,0,0,1.36-2.94q0-3.86-4.57-3.85h-6v7.85Zm1.55,11.63a4.73,4.73,0,0,0,3.63-1.19,4.23,4.23,0,0,0,1.08-2.95q0-4.65-5.86-4.65h-5.58v8.79Z"/><path class="cls-7" d="M199.33,291.61a8.16,8.16,0,0,1-11.88,0,10.43,10.43,0,0,1-2.2-7.05,10.55,10.55,0,0,1,2.2-7.08,8.17,8.17,0,0,1,11.88,0,12.51,12.51,0,0,1,0,14.14Zm-9.6-2.13a4.64,4.64,0,0,0,7.31,0,10,10,0,0,0,0-9.88,4.63,4.63,0,0,0-7.31,0,8.32,8.32,0,0,0-1.31,5A8.16,8.16,0,0,0,189.73,289.48Z"/><path class="cls-7" d="M206.42,293.75v-18.4h3.13v2.41a4.47,4.47,0,0,1,4.36-2.84,4.23,4.23,0,0,1,2.84.94l-.47,2.95a4.52,4.52,0,0,0-2.63-.8,3.92,3.92,0,0,0-2.86,1.27,5.67,5.67,0,0,0-1.24,4.1v10.37Z"/><path class="cls-7" d="M231.76,293.75V282.62A5.31,5.31,0,0,0,230.7,279a3.72,3.72,0,0,0-2.9-1.17q-4.25,0-4.25,4.75v11.2h-3.13v-18.4h3.13v1.87a5.58,5.58,0,0,1,4.76-2.3,6.09,6.09,0,0,1,4.91,2c1.12,1.31,1.67,3.4,1.67,6.28v10.59Z"/><path class="cls-7" d="M243.51,280.52a2.41,2.41,0,0,1-1.78.73,2.48,2.48,0,0,1-2.48-2.44,2.43,2.43,0,0,1,.72-1.75,2.52,2.52,0,0,1,4.28,1.75A2.33,2.33,0,0,1,243.51,280.52Zm0,13a2.41,2.41,0,0,1-1.78.73,2.48,2.48,0,0,1-2.48-2.44A2.43,2.43,0,0,1,240,290a2.52,2.52,0,0,1,4.28,1.75A2.33,2.33,0,0,1,243.51,293.48Z"/><path class="cls-7" d="M172.87,337.38a10.42,10.42,0,0,1-4.88-1.1,8.78,8.78,0,0,1-3.35-3,13.84,13.84,0,0,1-1.85-4.14,18.34,18.34,0,0,1-.62-4.82,17.68,17.68,0,0,1,.65-4.81,14.24,14.24,0,0,1,1.91-4.14,9.17,9.17,0,0,1,3.37-3,10.05,10.05,0,0,1,4.77-1.11,9.3,9.3,0,0,1,5,1.18,9.89,9.89,0,0,1,3.12,3.24l-2.81,1.62a8.37,8.37,0,0,0-2.23-2.28,5.58,5.58,0,0,0-3.13-.81,6.72,6.72,0,0,0-2.92.61,6.16,6.16,0,0,0-2.12,1.6,8.88,8.88,0,0,0-1.39,2.32,12.22,12.22,0,0,0-.79,2.72,16.63,16.63,0,0,0-.24,2.83,12.87,12.87,0,0,0,1.88,7.14,6.18,6.18,0,0,0,5.58,2.9,5.43,5.43,0,0,0,4.1-1.6,5.8,5.8,0,0,0,1.55-4.19v-1H174v-2.88h7.84v3a9.68,9.68,0,0,1-2.5,7.11A8.64,8.64,0,0,1,172.87,337.38Z"/><path class="cls-7" d="M198,337v-1.7a7.4,7.4,0,0,1-5.22,2.13,6.61,6.61,0,0,1-4.66-1.6,5.9,5.9,0,0,1-1.75-4.59,5.42,5.42,0,0,1,2-4.54,7.72,7.72,0,0,1,4.9-1.55,9.46,9.46,0,0,1,4.75,1.19V325a4.17,4.17,0,0,0-1-3.22,4.31,4.31,0,0,0-3-.91,9.17,9.17,0,0,0-5.36,1.83l-.9-2.63a11.89,11.89,0,0,1,6.66-1.94q6.56,0,6.55,6.62V337Zm-4.75-2.34A6.12,6.12,0,0,0,198,332.2V329a8,8,0,0,0-4.32-1.23,5.26,5.26,0,0,0-3.13.87,2.87,2.87,0,0,0-1.23,2.52,3.21,3.21,0,0,0,1,2.48A4.12,4.12,0,0,0,193.28,334.61Z"/><path class="cls-7" d="M217.76,337V325.82a5.36,5.36,0,0,0-1.06-3.65,3.73,3.73,0,0,0-2.9-1.17c-2.84,0-4.25,1.58-4.25,4.75V337h-3.13v-18.4h3.13v1.87a5.56,5.56,0,0,1,4.75-2.3,6.11,6.11,0,0,1,4.92,2q1.67,2,1.67,6.28V337Z"/><path class="cls-7" d="M232.12,337.38a8.58,8.58,0,0,1-3.76-.85,7.9,7.9,0,0,1-2.9-2.25l2.23-1.91a6.08,6.08,0,0,0,4.5,2.2,4.68,4.68,0,0,0,2.49-.59,2,2,0,0,0,.93-1.75,2.24,2.24,0,0,0-.68-1.57,5.22,5.22,0,0,0-1.41-1c-.48-.23-1.18-.52-2.12-.88a13.49,13.49,0,0,1-4.25-2.34,4.38,4.38,0,0,1-1.44-3.42,4.21,4.21,0,0,1,1.75-3.55,7.2,7.2,0,0,1,4.44-1.31,7.71,7.71,0,0,1,6.2,2.77l-2.16,1.8a5.47,5.47,0,0,0-4.07-1.76,4,4,0,0,0-2.23.54,1.69,1.69,0,0,0-.83,1.51,1.89,1.89,0,0,0,.27,1,2.6,2.6,0,0,0,1,.85c.47.26.84.46,1.12.59s.78.34,1.53.63a14.21,14.21,0,0,1,4.44,2.37,4.71,4.71,0,0,1,1.53,3.75,4.61,4.61,0,0,1-1.76,3.83A7.52,7.52,0,0,1,232.12,337.38Z"/><path class="cls-7" d="M254.73,337v-1.77a5.54,5.54,0,0,1-4.65,2.2,6.29,6.29,0,0,1-5-1.94q-1.67-1.95-1.67-6.27V318.55h3.13v11.09a5.31,5.31,0,0,0,1.06,3.65,3.73,3.73,0,0,0,2.9,1.17q4.25,0,4.25-4.75V318.55h3.13V337Z"/><path class="cls-7" d="M280.14,337.38a5.89,5.89,0,0,1-4.71-2.16v7.52l-3.13,1.48V318.55h3.13v1.55a6.43,6.43,0,0,1,4.71-2,6.7,6.7,0,0,1,5.55,2.59,13,13,0,0,1,0,14.1A6.76,6.76,0,0,1,280.14,337.38Zm-.39-2.92a4.08,4.08,0,0,0,3.54-1.74,10.3,10.3,0,0,0,0-9.89,4,4,0,0,0-3.51-1.83,4.63,4.63,0,0,0-4.32,2.48V332A5.41,5.41,0,0,0,279.75,334.46Z"/><path class="cls-7" d="M292.6,337v-18.4h3.13V321a4.48,4.48,0,0,1,4.36-2.84,4.23,4.23,0,0,1,2.84.94l-.47,2.95a4.51,4.51,0,0,0-2.62-.8,3.94,3.94,0,0,0-2.87,1.27,5.71,5.71,0,0,0-1.24,4.1V337Z"/><path class="cls-7" d="M319.6,334.81a8.16,8.16,0,0,1-11.88,0,10.43,10.43,0,0,1-2.2-7.05,10.55,10.55,0,0,1,2.2-7.08,8.17,8.17,0,0,1,11.88,0,12.46,12.46,0,0,1,0,14.14ZM310,332.68a4.63,4.63,0,0,0,7.3,0,9.9,9.9,0,0,0,0-9.88,4.62,4.62,0,0,0-7.3,0,8.25,8.25,0,0,0-1.32,5A8.09,8.09,0,0,0,310,332.68Z"/><path class="cls-7" d="M331.62,337l-6.73-18.4h3.17l4.35,12.28c.32.91.51,1.51.58,1.8.07-.29.26-.89.58-1.8l4.28-12.28H341L334.25,337Z"/><path class="cls-7" d="M348.11,314.65a1.93,1.93,0,0,1-1.4.55,1.85,1.85,0,0,1-1.39-.57,2,2,0,0,1,0-2.79,1.83,1.83,0,0,1,1.37-.6,1.86,1.86,0,0,1,1.4.6,2,2,0,0,1,.58,1.42A1.89,1.89,0,0,1,348.11,314.65ZM345.16,337v-18.4h3.13V337Z"/><path class="cls-7" d="M365.61,337V325.82a5.3,5.3,0,0,0-1.07-3.65,3.69,3.69,0,0,0-2.89-1.17c-2.84,0-4.25,1.58-4.25,4.75V337h-3.13v-18.4h3.13v1.87a5.56,5.56,0,0,1,4.75-2.3,6.08,6.08,0,0,1,4.91,2q1.68,2,1.68,6.28V337Z"/><path class="cls-7" d="M381.09,337.38a6.78,6.78,0,0,1-5.58-2.54,13.19,13.19,0,0,1,0-14.17,7,7,0,0,1,5.71-2.55q4.89,0,6.44,4.28l-2.95,1.08a3.44,3.44,0,0,0-3.45-2.45,3.85,3.85,0,0,0-3.46,1.77,9,9,0,0,0-1.15,5,8.85,8.85,0,0,0,1.15,4.91,3.75,3.75,0,0,0,3.35,1.75,3.58,3.58,0,0,0,3.74-2.74l2.92,1a6.42,6.42,0,0,1-2.43,3.5A7.37,7.37,0,0,1,381.09,337.38Z"/><path class="cls-7" d="M399.63,337.38a7.31,7.31,0,0,1-6-2.68,10.57,10.57,0,0,1-2.22-7,10.38,10.38,0,0,1,2.24-7.06,7.48,7.48,0,0,1,5.94-2.55,7.29,7.29,0,0,1,5.45,2.21q2.15,2.22,2.14,6.54a18.6,18.6,0,0,1-.11,2.08H394.66a6.5,6.5,0,0,0,1.56,4.05,4.48,4.48,0,0,0,3.48,1.53,5.43,5.43,0,0,0,4-1.65l1.91,2.12A8.06,8.06,0,0,1,399.63,337.38Zm-5-11.09h9.43a5.63,5.63,0,0,0-1.35-4.12,4.27,4.27,0,0,0-3.07-1.28,4.79,4.79,0,0,0-3.5,1.35A6,6,0,0,0,394.62,326.29Z"/><path class="cls-7" d="M172.61,380.58a10,10,0,0,1-4.82-1.12,8.54,8.54,0,0,1-3.28-3,14.64,14.64,0,0,1-1.76-4.14,19.14,19.14,0,0,1-.58-4.75,18.32,18.32,0,0,1,.6-4.74,14.22,14.22,0,0,1,1.8-4.14,8.82,8.82,0,0,1,3.27-3,9.72,9.72,0,0,1,4.77-1.13q5.91,0,8.14,4.53l-2.81,1.44a7.83,7.83,0,0,0-2.21-2.29,5.75,5.75,0,0,0-3.12-.77,5.87,5.87,0,0,0-4.24,1.62,8.44,8.44,0,0,0-2.33,3.8,16.85,16.85,0,0,0-.63,4.7,13.29,13.29,0,0,0,1.84,7.11,5.92,5.92,0,0,0,5.36,3,6.09,6.09,0,0,0,5.48-3.21L181,375.5a8.55,8.55,0,0,1-3.14,3.69A9.19,9.19,0,0,1,172.61,380.58Z"/><path class="cls-7" d="M186,380.15V355.6l3.13-1.44v9.5a5.52,5.52,0,0,1,4.75-2.34,6.08,6.08,0,0,1,4.91,2q1.68,2,1.68,6.28v10.59h-3.13V369a5.3,5.3,0,0,0-1.07-3.65,3.69,3.69,0,0,0-2.89-1.17c-2.84,0-4.25,1.58-4.25,4.75v11.2Z"/><path class="cls-7" d="M209.26,357.85a1.93,1.93,0,0,1-1.4.55,1.85,1.85,0,0,1-1.39-.57,2,2,0,0,1,0-2.79,1.83,1.83,0,0,1,1.37-.6,1.86,1.86,0,0,1,1.4.6,2,2,0,0,1,.58,1.42A1.89,1.89,0,0,1,209.26,357.85Zm-2.95,22.3v-18.4h3.13v18.4Z"/><path class="cls-7" d="M226.76,380.15V369a5.36,5.36,0,0,0-1.06-3.65,3.73,3.73,0,0,0-2.9-1.17c-2.84,0-4.25,1.58-4.25,4.75v11.2h-3.13v-18.4h3.13v1.87a5.56,5.56,0,0,1,4.75-2.3,6.11,6.11,0,0,1,4.92,2q1.67,2,1.67,6.28v10.59Z"/><path class="cls-7" d="M246.23,380.15v-1.7a7.4,7.4,0,0,1-5.22,2.13,6.61,6.61,0,0,1-4.66-1.6,5.94,5.94,0,0,1-1.75-4.59,5.42,5.42,0,0,1,2-4.54,7.74,7.74,0,0,1,4.9-1.55,9.44,9.44,0,0,1,4.75,1.19V368.2a4.22,4.22,0,0,0-1-3.23,4.34,4.34,0,0,0-3-.91,9.2,9.2,0,0,0-5.37,1.83l-.9-2.63a11.89,11.89,0,0,1,6.66-1.94q6.56,0,6.55,6.62v12.21Zm-4.75-2.34a6.12,6.12,0,0,0,4.75-2.41v-3.17a8,8,0,0,0-4.32-1.23,5.29,5.29,0,0,0-3.13.87,2.86,2.86,0,0,0-1.22,2.52,3.2,3.2,0,0,0,1,2.48A4.13,4.13,0,0,0,241.48,377.81Z"/><path class="cls-7" d="M412.11,170.14a10.45,10.45,0,0,1-4.88-1.1,8.75,8.75,0,0,1-3.34-3,14.11,14.11,0,0,1-1.86-4.14,18.34,18.34,0,0,1-.61-4.82,17.63,17.63,0,0,1,.65-4.81,14.24,14.24,0,0,1,1.91-4.14,9.13,9.13,0,0,1,3.36-3,10.11,10.11,0,0,1,4.77-1.12,9.33,9.33,0,0,1,5.06,1.19,9.86,9.86,0,0,1,3.11,3.24l-2.8,1.62a8.4,8.4,0,0,0-2.24-2.28,5.55,5.55,0,0,0-3.13-.81,6.68,6.68,0,0,0-2.91.61,6.1,6.1,0,0,0-2.13,1.6,9.13,9.13,0,0,0-1.38,2.32,12.25,12.25,0,0,0-.8,2.72,17.62,17.62,0,0,0-.23,2.83,12.87,12.87,0,0,0,1.87,7.14,6.22,6.22,0,0,0,5.58,2.9,5.45,5.45,0,0,0,4.11-1.6,5.8,5.8,0,0,0,1.54-4.2v-1h-4.57v-2.88H421v3a9.68,9.68,0,0,1-2.5,7.11A8.65,8.65,0,0,1,412.11,170.14Z"/><path class="cls-7" d="M433.82,170.14a7.35,7.35,0,0,1-6-2.68,10.62,10.62,0,0,1-2.21-7,10.38,10.38,0,0,1,2.23-7.06,7.51,7.51,0,0,1,5.94-2.55,7.26,7.26,0,0,1,5.45,2.21q2.14,2.22,2.15,6.54c0,.67,0,1.36-.11,2.08H428.85a6.5,6.5,0,0,0,1.57,4,4.48,4.48,0,0,0,3.47,1.53,5.4,5.4,0,0,0,4-1.65l1.91,2.12A8,8,0,0,1,433.82,170.14Zm-5-11.09h9.43a5.7,5.7,0,0,0-1.35-4.12,4.29,4.29,0,0,0-3.08-1.28,4.75,4.75,0,0,0-3.49,1.35A5.9,5.9,0,0,0,428.82,159.05Z"/><path class="cls-7" d="M457.44,169.71V158.58a5.3,5.3,0,0,0-1.07-3.65,3.71,3.71,0,0,0-2.89-1.17c-2.84,0-4.25,1.58-4.25,4.75v11.2H446.1v-18.4h3.13v1.87a5.56,5.56,0,0,1,4.75-2.3,6.08,6.08,0,0,1,4.91,2q1.68,2,1.68,6.28v10.59Z"/><path class="cls-7" d="M472.88,170.14a6.73,6.73,0,0,1-5.55-2.59,11.13,11.13,0,0,1-2.05-7.06,10.93,10.93,0,0,1,2.07-7.06,6.77,6.77,0,0,1,5.53-2.55,6.7,6.7,0,0,1,4.64,1.73v-7.42l3.13-1.48v26h-3.13v-1.44A6.18,6.18,0,0,1,472.88,170.14Zm.43-2.92a4.65,4.65,0,0,0,4.21-2.48V156.1a4.7,4.7,0,0,0-4.21-2.34,4.18,4.18,0,0,0-3.6,1.74,8.46,8.46,0,0,0-1.26,5,8.35,8.35,0,0,0,1.31,4.82A4.09,4.09,0,0,0,473.31,167.22Z"/><path class="cls-7" d="M493.69,170.14a7.34,7.34,0,0,1-6-2.68,10.57,10.57,0,0,1-2.22-7,10.38,10.38,0,0,1,2.24-7.06,7.48,7.48,0,0,1,5.94-2.55,7.29,7.29,0,0,1,5.45,2.21q2.14,2.22,2.14,6.54a18.73,18.73,0,0,1-.11,2.08H488.72a6.55,6.55,0,0,0,1.56,4,4.52,4.52,0,0,0,3.48,1.53,5.43,5.43,0,0,0,4-1.65l1.91,2.12A8.06,8.06,0,0,1,493.69,170.14Zm-5-11.09h9.43a5.61,5.61,0,0,0-1.35-4.12,4.27,4.27,0,0,0-3.07-1.28,4.79,4.79,0,0,0-3.5,1.35A6,6,0,0,0,488.68,159.05Z"/><path class="cls-7" d="M506,169.71v-18.4h3.13v2.41a4.48,4.48,0,0,1,4.36-2.84,4.28,4.28,0,0,1,2.84.93l-.46,3a4.54,4.54,0,0,0-2.63-.8,3.89,3.89,0,0,0-2.86,1.26,5.69,5.69,0,0,0-1.25,4.11v10.37Z"/><path class="cls-7" d="M522.79,156.48a2.41,2.41,0,0,1-1.78.73,2.35,2.35,0,0,1-1.76-.73,2.44,2.44,0,0,1,0-3.46,2.46,2.46,0,0,1,3.54,0,2.41,2.41,0,0,1,.74,1.73A2.38,2.38,0,0,1,522.79,156.48Zm0,13a2.41,2.41,0,0,1-1.78.73,2.35,2.35,0,0,1-1.76-.73,2.44,2.44,0,0,1,0-3.46,2.46,2.46,0,0,1,3.54,0,2.41,2.41,0,0,1,.74,1.73A2.38,2.38,0,0,1,522.79,169.44Z"/><path class="cls-7" d="M537.07,169.71v-25.2h15.15v3h-12v7.74h7.95v3H540.2v11.56Z"/><path class="cls-7" d="M472.3,292.9V267.7h3.13v22.18h12.38v3Z"/><path class="cls-7" d="M494.87,270.6a2,2,0,0,1-1.41.56,1.82,1.82,0,0,1-1.38-.58,1.9,1.9,0,0,1-.56-1.37,2,2,0,0,1,.58-1.42,1.85,1.85,0,0,1,1.36-.59,1.91,1.91,0,0,1,1.41.59,2,2,0,0,1,.57,1.42A1.85,1.85,0,0,1,494.87,270.6Zm-2.95,22.3V274.5h3.13v18.4Z"/><path class="cls-7" d="M506,292.9l-6.74-18.4h3.17l4.36,12.28c.31.91.5,1.51.58,1.8q.1-.43.57-1.8l4.28-12.28h3.14l-6.74,18.4Z"/><path class="cls-7" d="M526.55,293.33a7.32,7.32,0,0,1-6-2.68,10.56,10.56,0,0,1-2.21-7,10.36,10.36,0,0,1,2.23-7.06,7.52,7.52,0,0,1,5.94-2.56,7.24,7.24,0,0,1,5.45,2.22q2.14,2.2,2.14,6.53c0,.67,0,1.37-.1,2.09H521.58a6.5,6.5,0,0,0,1.57,4,4.48,4.48,0,0,0,3.47,1.53,5.37,5.37,0,0,0,4-1.66l1.91,2.13A8.09,8.09,0,0,1,526.55,293.33Zm-5-11.09H531a5.73,5.73,0,0,0-1.35-4.12,4.29,4.29,0,0,0-3.08-1.27,4.71,4.71,0,0,0-3.49,1.35A5.9,5.9,0,0,0,521.54,282.24Z"/><path class="cls-7" d="M545.34,293.33a6.67,6.67,0,0,1-5.54-2.59,11.06,11.06,0,0,1-2.06-7.05,10.92,10.92,0,0,1,2.07-7.06A7.18,7.18,0,0,1,550,275.8v-7.41l3.14-1.48v26H550v-1.44A6.13,6.13,0,0,1,545.34,293.33Zm.43-2.91a4.63,4.63,0,0,0,4.21-2.49v-8.64a4.69,4.69,0,0,0-4.21-2.34,4.16,4.16,0,0,0-3.6,1.75,8.44,8.44,0,0,0-1.26,5,8.28,8.28,0,0,0,1.32,4.82A4.08,4.08,0,0,0,545.77,290.42Z"/><path class="cls-7" d="M561.88,279.67a2.42,2.42,0,0,1-1.78.74,2.49,2.49,0,0,1-2.48-2.45,2.4,2.4,0,0,1,.72-1.74,2.33,2.33,0,0,1,1.76-.74,2.39,2.39,0,0,1,1.78.75,2.43,2.43,0,0,1,.74,1.73A2.35,2.35,0,0,1,561.88,279.67Zm0,13a2.42,2.42,0,0,1-1.78.74,2.49,2.49,0,0,1-2.48-2.45,2.4,2.4,0,0,1,.72-1.74,2.33,2.33,0,0,1,1.76-.74,2.39,2.39,0,0,1,1.78.75,2.43,2.43,0,0,1,.74,1.73A2.35,2.35,0,0,1,561.88,292.63Z"/><path class="cls-7" d="M479.64,336.53a9.83,9.83,0,0,1-5.56-1.56,7.93,7.93,0,0,1-3.22-4.05l2.95-1.08a6.32,6.32,0,0,0,5.9,3.74,5.51,5.51,0,0,0,3.64-1.1,4.24,4.24,0,0,0-.16-6.31A14.58,14.58,0,0,0,479,324c-.86-.32-1.58-.59-2.14-.83a15.12,15.12,0,0,1-1.94-1,7.66,7.66,0,0,1-1.75-1.37,6.08,6.08,0,0,1-1.55-4.08,5.64,5.64,0,0,1,2.09-4.43,8.37,8.37,0,0,1,5.65-1.8,8.81,8.81,0,0,1,4.86,1.24,5.63,5.63,0,0,1,2.52,3.26l-2.88,1a4,4,0,0,0-1.73-1.83,5.77,5.77,0,0,0-3-.72,5,5,0,0,0-3.14.88,2.92,2.92,0,0,0-1.15,2.43,2.84,2.84,0,0,0,.42,1.51,3.63,3.63,0,0,0,1.29,1.22,14.06,14.06,0,0,0,1.64.87c.5.21,1.2.49,2.09.83A22.46,22.46,0,0,1,483,322.3a18.13,18.13,0,0,1,2.34,1.49,6.09,6.09,0,0,1,1.9,2.32,7.42,7.42,0,0,1,.65,3.15,6.62,6.62,0,0,1-2.3,5.33A8.94,8.94,0,0,1,479.64,336.53Z"/><path class="cls-7" d="M493.32,336.1V311.55l3.13-1.44v9.5a5.52,5.52,0,0,1,4.75-2.34,6.1,6.1,0,0,1,4.92,2c1.12,1.3,1.67,3.4,1.67,6.28V336.1h-3.13V325a5.32,5.32,0,0,0-1.06-3.66,3.73,3.73,0,0,0-2.9-1.17q-4.24,0-4.25,4.76V336.1Z"/><path class="cls-7" d="M524.14,336.1v-1.69a7.42,7.42,0,0,1-5.22,2.12,6.64,6.64,0,0,1-4.67-1.6,5.93,5.93,0,0,1-1.74-4.59,5.4,5.4,0,0,1,2-4.53,7.65,7.65,0,0,1,4.89-1.55,9.4,9.4,0,0,1,4.76,1.19v-1.3a4.18,4.18,0,0,0-1-3.22,4.31,4.31,0,0,0-3-.92,9.09,9.09,0,0,0-5.36,1.84l-.9-2.63a11.78,11.78,0,0,1,6.66-2q6.54,0,6.55,6.63v12.2Zm-4.76-2.34a6.11,6.11,0,0,0,4.76-2.41v-3.17a8.11,8.11,0,0,0-4.32-1.22,5.29,5.29,0,0,0-3.14.86,2.91,2.91,0,0,0-1.22,2.52,3.17,3.17,0,0,0,1,2.48A4.11,4.11,0,0,0,519.38,333.76Z"/><path class="cls-7" d="M543.86,336.1V325a5.32,5.32,0,0,0-1.06-3.66,3.72,3.72,0,0,0-2.9-1.17q-4.24,0-4.24,4.76V336.1h-3.14V317.7h3.14v1.88a5.54,5.54,0,0,1,4.75-2.31,6.08,6.08,0,0,1,4.91,2c1.12,1.3,1.68,3.4,1.68,6.28V336.1Z"/><path class="cls-7" d="M559.31,336.53a6.7,6.7,0,0,1-5.55-2.59,11.12,11.12,0,0,1-2-7.05,10.92,10.92,0,0,1,2.07-7.06A7.18,7.18,0,0,1,564,319v-7.41l3.13-1.48v26H564v-1.44A6.15,6.15,0,0,1,559.31,336.53Zm.43-2.91a4.64,4.64,0,0,0,4.21-2.49v-8.64a4.7,4.7,0,0,0-4.21-2.34,4.18,4.18,0,0,0-3.6,1.75,8.44,8.44,0,0,0-1.26,5,8.35,8.35,0,0,0,1.31,4.82A4.11,4.11,0,0,0,559.74,333.62Z"/><path class="cls-7" d="M586,334a8.17,8.17,0,0,1-11.88,0,12.44,12.44,0,0,1,0-14.13,8.15,8.15,0,0,1,11.88,0A12.44,12.44,0,0,1,586,334Zm-9.59-2.12a4.63,4.63,0,0,0,7.3,0,9.92,9.92,0,0,0,0-9.89,4.61,4.61,0,0,0-7.3,0,8.21,8.21,0,0,0-1.32,5A8.12,8.12,0,0,0,576.43,331.84Z"/><path class="cls-7" d="M604.45,336.1V325a5.32,5.32,0,0,0-1.06-3.66,3.72,3.72,0,0,0-2.9-1.17q-4.25,0-4.25,4.76V336.1h-3.13V317.7h3.13v1.88a5.57,5.57,0,0,1,4.76-2.31,6.1,6.1,0,0,1,4.91,2c1.12,1.3,1.67,3.4,1.67,6.28V336.1Z"/><path class="cls-7" d="M619,343.55l-1.51-2.44c2.66-.15,4.51-.61,5.52-1.39a3.78,3.78,0,0,0,1.54-3.19V334.3a5.52,5.52,0,0,1-4.76,2.23,6.77,6.77,0,0,1-5.38-2.52q-2.15-2.52-2.14-7.12a10.75,10.75,0,0,1,2.11-7,6.77,6.77,0,0,1,5.52-2.58,6,6,0,0,1,4.65,2V317.7h3.13v17.65q0,4.2-2.25,6.08A10.79,10.79,0,0,1,619,343.55Zm1.44-9.93a4.39,4.39,0,0,0,2.29-.7,5.41,5.41,0,0,0,1.82-1.89V322.6a5,5,0,0,0-1.84-1.76,4.53,4.53,0,0,0-2.27-.69,4.36,4.36,0,0,0-3.73,1.75,8.36,8.36,0,0,0-1.27,5,7.93,7.93,0,0,0,1.38,4.93A4.36,4.36,0,0,0,620.47,333.62Z"/><path class="cls-7" d="M650,336.53a5.89,5.89,0,0,1-4.71-2.16v7.53l-3.13,1.47V317.7h3.13v1.55a6.43,6.43,0,0,1,4.71-2,6.71,6.71,0,0,1,5.55,2.6,13,13,0,0,1,0,14.09A6.73,6.73,0,0,1,650,336.53Zm-.39-2.91a4.07,4.07,0,0,0,3.54-1.75,10.28,10.28,0,0,0,0-9.88,4.06,4.06,0,0,0-3.51-1.84,4.62,4.62,0,0,0-4.32,2.49v8.49A5.43,5.43,0,0,0,649.56,333.62Z"/><path class="cls-7" d="M662.41,336.1V317.7h3.13v2.42a4.47,4.47,0,0,1,4.36-2.85,4.28,4.28,0,0,1,2.84.94l-.47,3a4.48,4.48,0,0,0-2.62-.79,3.93,3.93,0,0,0-2.87,1.26,5.73,5.73,0,0,0-1.24,4.1V336.1Z"/><path class="cls-7" d="M689.41,334a8.17,8.17,0,0,1-11.88,0,12.44,12.44,0,0,1,0-14.13,8.15,8.15,0,0,1,11.88,0,12.44,12.44,0,0,1,0,14.13Zm-9.59-2.12a4.63,4.63,0,0,0,7.3,0,9.92,9.92,0,0,0,0-9.89,4.61,4.61,0,0,0-7.3,0,8.21,8.21,0,0,0-1.32,5A8.12,8.12,0,0,0,679.82,331.84Z"/><path class="cls-7" d="M701.43,336.1l-6.73-18.4h3.17L702.23,330q.46,1.36.57,1.8c.07-.29.27-.89.58-1.8l4.28-12.28h3.13l-6.73,18.4Z"/><path class="cls-7" d="M717.92,313.8a1.94,1.94,0,0,1-1.4.56,1.83,1.83,0,0,1-1.39-.58,1.9,1.9,0,0,1-.56-1.37,2,2,0,0,1,.58-1.42,1.85,1.85,0,0,1,1.37-.59,1.89,1.89,0,0,1,1.4.59,2,2,0,0,1,.58,1.42A1.83,1.83,0,0,1,717.92,313.8ZM715,336.1V317.7h3.13v18.4Z"/><path class="cls-7" d="M735.42,336.1V325a5.37,5.37,0,0,0-1.06-3.66,3.73,3.73,0,0,0-2.9-1.17c-2.84,0-4.25,1.59-4.25,4.76V336.1h-3.13V317.7h3.13v1.88a5.55,5.55,0,0,1,4.75-2.31,6.12,6.12,0,0,1,4.92,2c1.11,1.3,1.67,3.4,1.67,6.28V336.1Z"/><path class="cls-7" d="M750.9,336.53a6.76,6.76,0,0,1-5.58-2.54,13.22,13.22,0,0,1,0-14.16,7,7,0,0,1,5.71-2.56q4.89,0,6.45,4.29l-3,1.08a3.44,3.44,0,0,0-3.45-2.45,3.87,3.87,0,0,0-3.46,1.76,9.07,9.07,0,0,0-1.15,5,8.91,8.91,0,0,0,1.15,4.92,3.77,3.77,0,0,0,3.35,1.74,3.58,3.58,0,0,0,3.74-2.73l2.92,1a6.4,6.4,0,0,1-2.43,3.49A7.37,7.37,0,0,1,750.9,336.53Z"/><path class="cls-7" d="M769.44,336.53a7.31,7.31,0,0,1-6-2.68,10.56,10.56,0,0,1-2.21-7,10.36,10.36,0,0,1,2.23-7.06,7.5,7.5,0,0,1,5.94-2.56,7.26,7.26,0,0,1,5.45,2.22Q777,321.69,777,326a18.91,18.91,0,0,1-.11,2.09H764.47a6.55,6.55,0,0,0,1.56,4.05,4.52,4.52,0,0,0,3.48,1.53,5.39,5.39,0,0,0,4-1.66l1.91,2.13A8.09,8.09,0,0,1,769.44,336.53Zm-5-11.08h9.44a5.74,5.74,0,0,0-1.35-4.13,4.29,4.29,0,0,0-3.08-1.27A4.71,4.71,0,0,0,766,321.4,5.91,5.91,0,0,0,764.43,325.45Z"/><path class="cls-7" d="M481.66,379.73a10.13,10.13,0,0,1-4.83-1.11,8.46,8.46,0,0,1-3.27-3,15,15,0,0,1-1.77-4.14,19.08,19.08,0,0,1-.57-4.75,18.3,18.3,0,0,1,.59-4.73,14.77,14.77,0,0,1,1.8-4.14,8.88,8.88,0,0,1,3.28-3,9.83,9.83,0,0,1,4.77-1.13q5.89,0,8.13,4.54l-2.8,1.44a7.86,7.86,0,0,0-2.22-2.29,5.62,5.62,0,0,0-3.11-.77,5.9,5.9,0,0,0-4.25,1.62,8.39,8.39,0,0,0-2.32,3.79,16.9,16.9,0,0,0-.63,4.7,13.29,13.29,0,0,0,1.83,7.11,5.93,5.93,0,0,0,5.37,3,6.09,6.09,0,0,0,5.47-3.2l2.88,1.08a8.71,8.71,0,0,1-3.13,3.69A9.29,9.29,0,0,1,481.66,379.73Z"/><path class="cls-7" d="M495.05,379.3V354.75l3.13-1.44v9.5a5.52,5.52,0,0,1,4.75-2.34,6.12,6.12,0,0,1,4.92,2c1.11,1.3,1.67,3.4,1.67,6.28V379.3h-3.13V368.18a5.37,5.37,0,0,0-1.06-3.66,3.73,3.73,0,0,0-2.9-1.17q-4.24,0-4.25,4.76V379.3Z"/><path class="cls-7" d="M518.3,357a1.94,1.94,0,0,1-1.4.56,1.86,1.86,0,0,1-1.39-.58,1.89,1.89,0,0,1-.55-1.37,2,2,0,0,1,.57-1.42,1.92,1.92,0,0,1,2.77,0,2,2,0,0,1,.58,1.42A1.83,1.83,0,0,1,518.3,357Zm-2.95,22.3V360.91h3.13V379.3Z"/><path class="cls-7" d="M535.8,379.3V368.18a5.32,5.32,0,0,0-1.06-3.66,3.73,3.73,0,0,0-2.9-1.17q-4.25,0-4.25,4.76V379.3h-3.13V360.91h3.13v1.87a5.55,5.55,0,0,1,4.75-2.31,6.12,6.12,0,0,1,4.92,2c1.11,1.3,1.67,3.4,1.67,6.28V379.3Z"/><path class="cls-7" d="M555.28,379.3v-1.69a7.42,7.42,0,0,1-5.22,2.12,6.64,6.64,0,0,1-4.67-1.6,5.93,5.93,0,0,1-1.74-4.59,5.4,5.4,0,0,1,2-4.53,7.65,7.65,0,0,1,4.89-1.55,9.4,9.4,0,0,1,4.76,1.19v-1.3a4.18,4.18,0,0,0-1-3.22,4.31,4.31,0,0,0-3-.92,9.09,9.09,0,0,0-5.36,1.84l-.9-2.63a11.78,11.78,0,0,1,6.66-1.95q6.54,0,6.55,6.63v12.2ZM550.52,377a6.11,6.11,0,0,0,4.76-2.41v-3.17a8.11,8.11,0,0,0-4.32-1.22,5.37,5.37,0,0,0-3.14.86,2.91,2.91,0,0,0-1.22,2.52,3.21,3.21,0,0,0,1,2.49A4.15,4.15,0,0,0,550.52,377Z"/><path class="cls-7" d="M651.51,170.14a10.46,10.46,0,0,1-5-1.14,8.48,8.48,0,0,1-3.35-3.06,14.65,14.65,0,0,1-1.78-4.14,19.29,19.29,0,0,1,0-9.39,14.65,14.65,0,0,1,1.78-4.14,8.48,8.48,0,0,1,3.35-3.06,10.46,10.46,0,0,1,5-1.14,11,11,0,0,1,4.16.76,8.6,8.6,0,0,1,3.06,2,10.94,10.94,0,0,1,2,3,15,15,0,0,1,1.15,3.53,20.8,20.8,0,0,1,0,7.49,14.87,14.87,0,0,1-1.15,3.53,11,11,0,0,1-2,3,8.59,8.59,0,0,1-3.06,2A10.78,10.78,0,0,1,651.51,170.14ZM648,166.32a6.77,6.77,0,0,0,3.47.87,6.65,6.65,0,0,0,3.5-.92,6.49,6.49,0,0,0,2.34-2.43,12.52,12.52,0,0,0,1.22-3.22,15.74,15.74,0,0,0,.4-3.51,16.72,16.72,0,0,0-.67-4.85,8,8,0,0,0-2.41-3.72,6.37,6.37,0,0,0-4.38-1.55,6.52,6.52,0,0,0-3.47.92,6.35,6.35,0,0,0-2.32,2.45,13.25,13.25,0,0,0-1.24,3.22,14.58,14.58,0,0,0-.42,3.53,16.07,16.07,0,0,0,.4,3.67,11.57,11.57,0,0,0,1.24,3.2A6.12,6.12,0,0,0,648,166.32Z"/><path class="cls-7" d="M671.82,154.05v15.66h-3.13V154.05h-2.85v-2.74h2.85v-3.06a4,4,0,0,1,1.15-3.2,4.24,4.24,0,0,1,2.84-1,7.13,7.13,0,0,1,3.42.87v2.63a6.32,6.32,0,0,0-2.63-.69,1.47,1.47,0,0,0-1.33.51,2.61,2.61,0,0,0-.32,1.4v2.52h4.28v2.74Z"/><path class="cls-7" d="M684.09,154.05v15.66H681V154.05h-2.84v-2.74H681v-3.06a4,4,0,0,1,1.15-3.2,4.27,4.27,0,0,1,2.85-1,7.13,7.13,0,0,1,3.42.87v2.63a6.36,6.36,0,0,0-2.63-.69,1.46,1.46,0,0,0-1.33.51,2.52,2.52,0,0,0-.33,1.4v2.52h4.29v2.74Z"/><path class="cls-7" d="M696.44,170.14a8.58,8.58,0,0,1-3.76-.85,8,8,0,0,1-2.9-2.25l2.23-1.91a6.08,6.08,0,0,0,4.5,2.2,4.66,4.66,0,0,0,2.49-.59,2,2,0,0,0,.93-1.75,2.18,2.18,0,0,0-.68-1.57,5.18,5.18,0,0,0-1.4-1c-.48-.23-1.19-.52-2.13-.88a13.49,13.49,0,0,1-4.25-2.34,4.4,4.4,0,0,1-1.44-3.42,4.23,4.23,0,0,1,1.75-3.55,7.23,7.23,0,0,1,4.45-1.31,7.7,7.7,0,0,1,6.19,2.77l-2.16,1.8a5.43,5.43,0,0,0-4.07-1.76,4,4,0,0,0-2.23.54,1.71,1.71,0,0,0-.83,1.51,1.89,1.89,0,0,0,.27,1,2.5,2.5,0,0,0,1,.84c.47.27.84.47,1.12.6s.78.34,1.53.63a14,14,0,0,1,4.44,2.37,4.71,4.71,0,0,1,1.53,3.75,4.58,4.58,0,0,1-1.76,3.83A7.52,7.52,0,0,1,696.44,170.14Z"/><path class="cls-7" d="M715.74,170.14A5.92,5.92,0,0,1,711,168v7.52L707.89,177V151.31H711v1.55a6.44,6.44,0,0,1,4.72-2,6.68,6.68,0,0,1,5.54,2.59,13.05,13.05,0,0,1,0,14.09A6.75,6.75,0,0,1,715.74,170.14Zm-.4-2.92a4.1,4.1,0,0,0,3.55-1.74,10.33,10.33,0,0,0,0-9.89,4,4,0,0,0-3.51-1.83,4.65,4.65,0,0,0-4.32,2.48v8.5A5.44,5.44,0,0,0,715.34,167.22Z"/><path class="cls-7" d="M728.19,169.71v-18.4h3.14v2.41a4.46,4.46,0,0,1,4.35-2.84,4.32,4.32,0,0,1,2.85.93l-.47,3a4.54,4.54,0,0,0-2.63-.8,3.91,3.91,0,0,0-2.86,1.26,5.69,5.69,0,0,0-1.24,4.11v10.37Z"/><path class="cls-7" d="M745,147.4a1.94,1.94,0,0,1-1.41.56,1.85,1.85,0,0,1-1.38-.57,1.88,1.88,0,0,1-.56-1.37,2,2,0,0,1,.57-1.42,1.84,1.84,0,0,1,1.37-.6,1.9,1.9,0,0,1,1.41.6,2,2,0,0,1,.57,1.42A1.85,1.85,0,0,1,745,147.4Zm-3,22.31v-18.4h3.14v18.4Z"/><path class="cls-7" d="M762.5,169.71V158.58a5.31,5.31,0,0,0-1.06-3.65,3.73,3.73,0,0,0-2.9-1.17q-4.24,0-4.25,4.75v11.2h-3.13v-18.4h3.13v1.87a5.58,5.58,0,0,1,4.76-2.3,6.09,6.09,0,0,1,4.91,2c1.12,1.31,1.67,3.4,1.67,6.28v10.59Z"/><path class="cls-7" d="M777.08,177.16l-1.51-2.45c2.66-.14,4.5-.61,5.52-1.39a3.79,3.79,0,0,0,1.53-3.18v-2.23a5.51,5.51,0,0,1-4.75,2.23,6.77,6.77,0,0,1-5.38-2.52q-2.15-2.52-2.14-7.13a10.82,10.82,0,0,1,2.1-7,6.82,6.82,0,0,1,5.53-2.57,6,6,0,0,1,4.64,1.94v-1.51h3.14V169q0,4.22-2.25,6.08A10.88,10.88,0,0,1,777.08,177.16Zm1.44-9.94a4.3,4.3,0,0,0,2.29-.7,5.29,5.29,0,0,0,1.81-1.89v-8.42a5,5,0,0,0-1.83-1.77,4.61,4.61,0,0,0-2.27-.68,4.35,4.35,0,0,0-3.73,1.74,8.38,8.38,0,0,0-1.27,5,7.91,7.91,0,0,0,1.38,4.93A4.36,4.36,0,0,0,778.52,167.22Z"/><path class="cls-7" d="M794.52,156.48a2.41,2.41,0,0,1-1.78.73,2.35,2.35,0,0,1-1.76-.73,2.44,2.44,0,0,1,0-3.46,2.46,2.46,0,0,1,3.54,0,2.41,2.41,0,0,1,.74,1.73A2.38,2.38,0,0,1,794.52,156.48Zm0,13a2.41,2.41,0,0,1-1.78.73,2.35,2.35,0,0,1-1.76-.73,2.44,2.44,0,0,1,0-3.46,2.46,2.46,0,0,1,3.54,0,2.41,2.41,0,0,1,.74,1.73A2.38,2.38,0,0,1,794.52,169.44Z"/><path class="cls-7" d="M827.23,169.71h-3l-11.34-18c-.43-.7-.76-1.29-1-1.77,0,.72.07,1.31.07,1.77v18H808.8v-25.2H812l11.16,17.92c.39.63.74,1.25,1,1.88,0-.87-.07-1.48-.07-1.84v-18h3.13Z"/><path class="cls-7" d="M846.74,167.56a8.15,8.15,0,0,1-11.88,0,10.43,10.43,0,0,1-2.2-7.05,10.55,10.55,0,0,1,2.2-7.08,8.17,8.17,0,0,1,11.88,0,12.44,12.44,0,0,1,0,14.13Zm-9.59-2.12a4.63,4.63,0,0,0,7.3,0,9.9,9.9,0,0,0,0-9.88,4.62,4.62,0,0,0-7.3,0,8.25,8.25,0,0,0-1.32,5A8.11,8.11,0,0,0,837.15,165.44Z"/><path class="cls-7" d="M865.17,169.71V158.58a5.31,5.31,0,0,0-1.06-3.65,3.72,3.72,0,0,0-2.9-1.17q-4.25,0-4.25,4.75v11.2h-3.13v-18.4H857v1.87a5.58,5.58,0,0,1,4.76-2.3,6.09,6.09,0,0,1,4.91,2q1.67,2,1.67,6.28v10.59Z"/><path class="cls-7" d="M881.19,170.14a7.35,7.35,0,0,1-6-2.68,10.62,10.62,0,0,1-2.21-7,10.38,10.38,0,0,1,2.23-7.06,7.51,7.51,0,0,1,5.94-2.55,7.29,7.29,0,0,1,5.46,2.21c1.42,1.48,2.14,3.66,2.14,6.54,0,.67,0,1.36-.11,2.08H876.22a6.55,6.55,0,0,0,1.57,4,4.48,4.48,0,0,0,3.47,1.53,5.4,5.4,0,0,0,4-1.65l1.91,2.12A8,8,0,0,1,881.19,170.14Zm-5-11.09h9.43a5.7,5.7,0,0,0-1.35-4.12,4.29,4.29,0,0,0-3.08-1.28A4.75,4.75,0,0,0,877.7,155,5.9,5.9,0,0,0,876.19,159.05Z"/><path class="cls-7" d="M792.6,416.56l-2.16-6.16h-10l-2.12,6.16H775l8.93-25.2h2.92l8.92,25.2Zm-3.13-8.93-3.24-9.33a26.09,26.09,0,0,1-.79-2.55c-.27.93-.53,1.79-.8,2.55l-3.27,9.33Z"/><path class="cls-7" d="M822.19,416.56V405.4c0-3.2-1.24-4.79-3.71-4.79a3.52,3.52,0,0,0-2.86,1.35,5.45,5.45,0,0,0-1.1,3.54v11.06h-3.13V405.4c0-3.2-1.22-4.79-3.67-4.79a3.56,3.56,0,0,0-2.9,1.28,5.25,5.25,0,0,0-1.06,3.47v11.2h-3.13v-18.4h3.13v1.73a5.65,5.65,0,0,1,4.82-2.16,6,6,0,0,1,2.87.7,5.24,5.24,0,0,1,2.07,2,5.92,5.92,0,0,1,5.32-2.7,6.42,6.42,0,0,1,4.68,1.76,6.71,6.71,0,0,1,1.8,5v12.06Z"/><path class="cls-7" d="M838.93,417a6.59,6.59,0,0,1-4.71-2v1.59h-3.14V392l3.14-1.48v9.18a6,6,0,0,1,4.6-2,6.81,6.81,0,0,1,5.55,2.55,10.88,10.88,0,0,1,2.08,7.06q0,4.65-2,7.15A6.72,6.72,0,0,1,838.93,417Zm-.43-2.92a4,4,0,0,0,3.55-1.78,10.91,10.91,0,0,0,0-10,4,4,0,0,0-3.55-1.73,4.62,4.62,0,0,0-2.59.75,5.15,5.15,0,0,0-1.69,1.7v8.53a5,5,0,0,0,1.83,1.82A4.87,4.87,0,0,0,838.5,414.07Z"/><path class="cls-7" d="M861.86,416.56v-1.7a7.4,7.4,0,0,1-5.22,2.13,6.67,6.67,0,0,1-4.66-1.6,5.93,5.93,0,0,1-1.74-4.59,5.4,5.4,0,0,1,2-4.54,7.69,7.69,0,0,1,4.89-1.55,9.44,9.44,0,0,1,4.75,1.19v-1.3a4.2,4.2,0,0,0-1-3.22,4.35,4.35,0,0,0-3-.92,9.15,9.15,0,0,0-5.37,1.84l-.9-2.63a11.89,11.89,0,0,1,6.66-1.94q6.56,0,6.56,6.62v12.21Zm-4.75-2.34a6.11,6.11,0,0,0,4.75-2.42v-3.16a8,8,0,0,0-4.32-1.23,5.29,5.29,0,0,0-3.13.87,2.86,2.86,0,0,0-1.22,2.52,3.2,3.2,0,0,0,1,2.48A4.18,4.18,0,0,0,857.11,414.22Z"/><path class="cls-7" d="M875.69,417a8.77,8.77,0,0,1-3.77-.85,8,8,0,0,1-2.89-2.25l2.23-1.91a6.08,6.08,0,0,0,4.5,2.2,4.62,4.62,0,0,0,2.48-.59,1.94,1.94,0,0,0,.94-1.75,2.19,2.19,0,0,0-.69-1.57,5,5,0,0,0-1.4-1c-.48-.23-1.19-.52-2.12-.88a13.38,13.38,0,0,1-4.25-2.34,4.4,4.4,0,0,1-1.44-3.42A4.22,4.22,0,0,1,871,399a7.25,7.25,0,0,1,4.45-1.31,7.69,7.69,0,0,1,6.19,2.77l-2.16,1.8a5.42,5.42,0,0,0-4.07-1.76,4.13,4.13,0,0,0-2.23.53,1.74,1.74,0,0,0-.83,1.52,1.89,1.89,0,0,0,.27,1,2.54,2.54,0,0,0,1,.84c.46.27.84.47,1.11.6s.79.34,1.53.63a14,14,0,0,1,4.45,2.37,4.71,4.71,0,0,1,1.53,3.75,4.59,4.59,0,0,1-1.77,3.83A7.49,7.49,0,0,1,875.69,417Z"/><path class="cls-7" d="M892.57,417a8.72,8.72,0,0,1-3.76-.85,7.9,7.9,0,0,1-2.9-2.25l2.23-1.91a6.08,6.08,0,0,0,4.5,2.2,4.68,4.68,0,0,0,2.49-.59,2,2,0,0,0,.93-1.75,2.22,2.22,0,0,0-.68-1.57,5.22,5.22,0,0,0-1.41-1c-.48-.23-1.18-.52-2.12-.88A13.49,13.49,0,0,1,887.6,406a4.4,4.4,0,0,1-1.44-3.42,4.21,4.21,0,0,1,1.75-3.55,7.2,7.2,0,0,1,4.44-1.31,7.71,7.71,0,0,1,6.2,2.77l-2.16,1.8a5.43,5.43,0,0,0-4.07-1.76,4.11,4.11,0,0,0-2.23.53,1.72,1.72,0,0,0-.83,1.52,1.89,1.89,0,0,0,.27,1,2.5,2.5,0,0,0,1,.84c.47.27.84.47,1.12.6s.78.34,1.53.63a14,14,0,0,1,4.44,2.37,4.71,4.71,0,0,1,1.53,3.75,4.61,4.61,0,0,1-1.76,3.83A7.52,7.52,0,0,1,892.57,417Z"/><path class="cls-7" d="M914.57,416.56v-1.7a7.43,7.43,0,0,1-5.22,2.13,6.68,6.68,0,0,1-4.67-1.6,5.93,5.93,0,0,1-1.74-4.59,5.4,5.4,0,0,1,2-4.54,7.71,7.71,0,0,1,4.89-1.55,9.5,9.5,0,0,1,4.76,1.19v-1.3a4.2,4.2,0,0,0-1-3.22,4.31,4.31,0,0,0-3-.92,9.09,9.09,0,0,0-5.36,1.84l-.9-2.63a11.85,11.85,0,0,1,6.66-1.94q6.54,0,6.55,6.62v12.21Zm-4.76-2.34a6.12,6.12,0,0,0,4.76-2.42v-3.16a8,8,0,0,0-4.32-1.23,5.3,5.3,0,0,0-3.14.87,2.89,2.89,0,0,0-1.22,2.52,3.17,3.17,0,0,0,1,2.48A4.15,4.15,0,0,0,909.81,414.22Z"/><path class="cls-7" d="M929.47,417a6.7,6.7,0,0,1-5.54-2.59,11.07,11.07,0,0,1-2.06-7.06,10.93,10.93,0,0,1,2.07-7.06,6.77,6.77,0,0,1,5.53-2.55,6.7,6.7,0,0,1,4.64,1.73V392l3.13-1.48v26h-3.13v-1.44A6.17,6.17,0,0,1,929.47,417Zm.43-2.92a4.64,4.64,0,0,0,4.21-2.48V403a4.69,4.69,0,0,0-4.21-2.34,4.18,4.18,0,0,0-3.6,1.74,8.46,8.46,0,0,0-1.26,5,8.28,8.28,0,0,0,1.32,4.82A4.06,4.06,0,0,0,929.9,414.07Z"/><path class="cls-7" d="M956.18,414.41a8.15,8.15,0,0,1-11.88,0,10.48,10.48,0,0,1-2.19-7.05,10.6,10.6,0,0,1,2.19-7.08,8.17,8.17,0,0,1,11.88,0,12.44,12.44,0,0,1,0,14.13Zm-9.59-2.12a4.64,4.64,0,0,0,7.31,0,10,10,0,0,0,0-9.88,4.63,4.63,0,0,0-7.31,0,8.25,8.25,0,0,0-1.32,5A8.11,8.11,0,0,0,946.59,412.29Z"/><path class="cls-7" d="M963.27,416.56v-18.4h3.14v2.41a4.46,4.46,0,0,1,4.35-2.84,4.32,4.32,0,0,1,2.85.93l-.47,3a4.54,4.54,0,0,0-2.63-.8,3.91,3.91,0,0,0-2.86,1.26,5.69,5.69,0,0,0-1.24,4.11v10.37Z"/><path class="cls-7" d="M998.73,414.41a8.15,8.15,0,0,1-11.88,0,10.48,10.48,0,0,1-2.19-7.05,10.6,10.6,0,0,1,2.19-7.08,8.17,8.17,0,0,1,11.88,0,12.44,12.44,0,0,1,0,14.13Zm-9.59-2.12a4.64,4.64,0,0,0,7.31,0,10,10,0,0,0,0-9.88,4.63,4.63,0,0,0-7.31,0,8.25,8.25,0,0,0-1.31,5A8.11,8.11,0,0,0,989.14,412.29Z"/><path class="cls-7" d="M1010,400.9v15.66h-3.13V400.9H1004v-2.74h2.85V395.1a4,4,0,0,1,1.15-3.2,4.26,4.26,0,0,1,2.84-1,7.13,7.13,0,0,1,3.42.87v2.63a6.31,6.31,0,0,0-2.62-.69,1.48,1.48,0,0,0-1.34.51,2.61,2.61,0,0,0-.32,1.4v2.52h4.28v2.74Z"/><path class="cls-7" d="M1041.82,416.56V405h-11.88v11.6h-3.13v-25.2h3.13V402h11.88V391.36H1045v25.2Z"/><path class="cls-7" d="M1062,416.56v-1.7a7.4,7.4,0,0,1-5.22,2.13,6.66,6.66,0,0,1-4.66-1.6,5.9,5.9,0,0,1-1.75-4.59,5.4,5.4,0,0,1,2-4.54,7.72,7.72,0,0,1,4.9-1.55,9.46,9.46,0,0,1,4.75,1.19v-1.3a4.16,4.16,0,0,0-1-3.22,4.31,4.31,0,0,0-3-.92,9.12,9.12,0,0,0-5.36,1.84l-.9-2.63a11.89,11.89,0,0,1,6.66-1.94q6.55,0,6.55,6.62v12.21Zm-4.75-2.34a6.11,6.11,0,0,0,4.75-2.42v-3.16a8,8,0,0,0-4.32-1.23,5.26,5.26,0,0,0-3.13.87,2.87,2.87,0,0,0-1.23,2.52,3.21,3.21,0,0,0,1,2.48A4.16,4.16,0,0,0,1057.27,414.22Z"/><path class="cls-7" d="M1070.41,416.56v-18.4h3.13v2.41a4.47,4.47,0,0,1,4.36-2.84,4.3,4.3,0,0,1,2.84.93l-.47,3a4.52,4.52,0,0,0-2.63-.8,3.91,3.91,0,0,0-2.86,1.26,5.69,5.69,0,0,0-1.24,4.11v10.37Z"/><path class="cls-7" d="M1106,416.56V405.4c0-3.2-1.23-4.79-3.7-4.79a3.5,3.5,0,0,0-2.86,1.35,5.39,5.39,0,0,0-1.1,3.54v11.06h-3.14V405.4c0-3.2-1.22-4.79-3.67-4.79a3.52,3.52,0,0,0-2.89,1.28,5.25,5.25,0,0,0-1.07,3.47v11.2h-3.13v-18.4h3.13v1.73a5.65,5.65,0,0,1,4.83-2.16,6,6,0,0,1,2.86.7,5.24,5.24,0,0,1,2.07,2,5.93,5.93,0,0,1,5.33-2.7,6.42,6.42,0,0,1,4.68,1.76,6.71,6.71,0,0,1,1.8,5v12.06Z"/><path class="cls-7" d="M1127.86,414.41a8.15,8.15,0,0,1-11.88,0,10.48,10.48,0,0,1-2.19-7.05,10.6,10.6,0,0,1,2.19-7.08,8.17,8.17,0,0,1,11.88,0,12.44,12.44,0,0,1,0,14.13Zm-9.59-2.12a4.64,4.64,0,0,0,7.31,0,10,10,0,0,0,0-9.88,4.63,4.63,0,0,0-7.31,0,8.25,8.25,0,0,0-1.32,5A8.11,8.11,0,0,0,1118.27,412.29Z"/><path class="cls-7" d="M1146.29,416.56V405.43a5.31,5.31,0,0,0-1.06-3.65,3.72,3.72,0,0,0-2.9-1.17q-4.24,0-4.24,4.75v11.2H1135v-18.4h3.14V400a5.55,5.55,0,0,1,4.75-2.3,6.08,6.08,0,0,1,4.91,2q1.68,2,1.68,6.28v10.59Z"/><path class="cls-7" d="M1158.21,394.25a1.9,1.9,0,0,1-1.4.56,1.85,1.85,0,0,1-1.39-.57,2,2,0,0,1,0-2.79,1.83,1.83,0,0,1,1.37-.6,1.86,1.86,0,0,1,1.4.6,2,2,0,0,1,.58,1.42A1.86,1.86,0,0,1,1158.21,394.25Zm-3,22.31v-18.4h3.13v18.4Z"/><path class="cls-7" d="M1177.36,414.41a8.15,8.15,0,0,1-11.88,0,10.48,10.48,0,0,1-2.19-7.05,10.6,10.6,0,0,1,2.19-7.08,8.17,8.17,0,0,1,11.88,0,12.44,12.44,0,0,1,0,14.13Zm-9.59-2.12a4.64,4.64,0,0,0,7.31,0,10,10,0,0,0,0-9.88,4.63,4.63,0,0,0-7.31,0,8.25,8.25,0,0,0-1.32,5A8.11,8.11,0,0,0,1167.77,412.29Z"/><path class="cls-7" d="M1195.61,416.56v-1.77A5.51,5.51,0,0,1,1191,417a6.25,6.25,0,0,1-5-1.95q-1.68-1.94-1.68-6.26V398.16h3.14v11.09a5.31,5.31,0,0,0,1.06,3.65,3.72,3.72,0,0,0,2.9,1.17q4.25,0,4.24-4.75V398.16h3.14v18.4Z"/><path class="cls-7" d="M1210.16,417a8.69,8.69,0,0,1-3.76-.85,7.9,7.9,0,0,1-2.9-2.25l2.23-1.91a6.08,6.08,0,0,0,4.5,2.2,4.62,4.62,0,0,0,2.48-.59,1.94,1.94,0,0,0,.94-1.75,2.22,2.22,0,0,0-.68-1.57,5.22,5.22,0,0,0-1.41-1c-.48-.23-1.19-.52-2.12-.88a13.49,13.49,0,0,1-4.25-2.34,4.4,4.4,0,0,1-1.44-3.42,4.21,4.21,0,0,1,1.75-3.55,7.2,7.2,0,0,1,4.44-1.31,7.69,7.69,0,0,1,6.19,2.77l-2.16,1.8a5.39,5.39,0,0,0-4.06-1.76,4.17,4.17,0,0,0-2.24.53,1.73,1.73,0,0,0-.82,1.52,1.89,1.89,0,0,0,.27,1,2.5,2.5,0,0,0,1,.84q.71.4,1.11.6t1.53.63a14,14,0,0,1,4.45,2.37,4.71,4.71,0,0,1,1.53,3.75,4.61,4.61,0,0,1-1.76,3.83A7.54,7.54,0,0,1,1210.16,417Z"/><path class="cls-7" d="M1229.34,416.56v-2.42l14.62-19.8h-13.79v-3H1248v2.41l-14.54,19.8H1248v3Z"/><path class="cls-7" d="M1266.46,414.41a8.15,8.15,0,0,1-11.88,0,10.48,10.48,0,0,1-2.2-7.05,10.6,10.6,0,0,1,2.2-7.08,8.17,8.17,0,0,1,11.88,0,12.44,12.44,0,0,1,0,14.13Zm-9.59-2.12a4.63,4.63,0,0,0,7.3,0,9.9,9.9,0,0,0,0-9.88,4.62,4.62,0,0,0-7.3,0,8.25,8.25,0,0,0-1.32,5A8.11,8.11,0,0,0,1256.87,412.29Z"/><path class="cls-7" d="M1286.55,414.41a8.15,8.15,0,0,1-11.88,0,10.43,10.43,0,0,1-2.2-7.05,10.55,10.55,0,0,1,2.2-7.08,8.17,8.17,0,0,1,11.88,0,12.49,12.49,0,0,1,0,14.13Zm-9.6-2.12a4.64,4.64,0,0,0,7.31,0,9.9,9.9,0,0,0,0-9.88,4.63,4.63,0,0,0-7.31,0,8.32,8.32,0,0,0-1.31,5A8.18,8.18,0,0,0,1277,412.29Z"/><path class="cls-7" d="M1293.82,416.56V392l3.13-1.48v26Z"/><path class="cls-7" d="M1316.07,414.41a8.15,8.15,0,0,1-11.88,0,10.43,10.43,0,0,1-2.2-7.05,10.55,10.55,0,0,1,2.2-7.08,8.17,8.17,0,0,1,11.88,0,12.49,12.49,0,0,1,0,14.13Zm-9.6-2.12a4.64,4.64,0,0,0,7.31,0,9.9,9.9,0,0,0,0-9.88,4.63,4.63,0,0,0-7.31,0,8.32,8.32,0,0,0-1.31,5A8.18,8.18,0,0,0,1306.47,412.29Z"/><path class="cls-7" d="M1328.81,424l-1.51-2.45c2.66-.14,4.51-.61,5.53-1.39a3.79,3.79,0,0,0,1.53-3.18v-2.23a5.53,5.53,0,0,1-4.76,2.23,6.77,6.77,0,0,1-5.38-2.52q-2.15-2.52-2.14-7.13a10.77,10.77,0,0,1,2.11-7,6.79,6.79,0,0,1,5.52-2.57,6,6,0,0,1,4.65,1.94v-1.51h3.13V415.8q0,4.21-2.25,6.08A10.86,10.86,0,0,1,1328.81,424Zm1.44-9.94a4.3,4.3,0,0,0,2.29-.7,5.41,5.41,0,0,0,1.82-1.89v-8.42a5.13,5.13,0,0,0-1.84-1.77,4.61,4.61,0,0,0-2.27-.68,4.32,4.32,0,0,0-3.72,1.74,8.31,8.31,0,0,0-1.28,5,7.91,7.91,0,0,0,1.38,4.93A4.36,4.36,0,0,0,1330.25,414.07Z"/><path class="cls-7" d="M1345.62,423.54l2.81-7.45-6.8-17.93h3.13l4.57,12.53a17.2,17.2,0,0,1,.58,1.76,17.64,17.64,0,0,1,.57-1.76l4.65-12.53h3.2l-9.54,25.38Z"/><path class="cls-7" d="M810.22,469.83l-2.16-6.16h-10l-2.12,6.16h-3.27l8.92-25.2h2.92l8.93,25.2Zm-3.13-8.93-3.24-9.32c-.41-1.18-.67-2-.79-2.56-.27.94-.53,1.79-.79,2.56L799,460.9Z"/><path class="cls-7" d="M839.81,469.83V458.67q0-4.79-3.7-4.79a3.54,3.54,0,0,0-2.87,1.35,5.45,5.45,0,0,0-1.09,3.55v11.05H829V458.67q0-4.79-3.67-4.79a3.59,3.59,0,0,0-2.9,1.28,5.31,5.31,0,0,0-1.06,3.47v11.2h-3.13v-18.4h3.13v1.73a5.65,5.65,0,0,1,4.83-2.16,6,6,0,0,1,2.86.7,5.3,5.3,0,0,1,2.07,2,5.93,5.93,0,0,1,5.33-2.7,6.42,6.42,0,0,1,4.68,1.76,6.71,6.71,0,0,1,1.8,5v12.06Z"/><path class="cls-7" d="M856.55,470.26a6.59,6.59,0,0,1-4.71-2v1.59h-3.13V445.31l3.13-1.47V453a6,6,0,0,1,4.61-2,6.78,6.78,0,0,1,5.54,2.56,10.83,10.83,0,0,1,2.09,7.05q0,4.65-2,7.15A6.67,6.67,0,0,1,856.55,470.26Zm-.43-2.92a4,4,0,0,0,3.55-1.78,10.91,10.91,0,0,0,0-9.95,4.07,4.07,0,0,0-3.55-1.73,4.57,4.57,0,0,0-2.59.76,5,5,0,0,0-1.69,1.69v8.53a5.07,5.07,0,0,0,1.83,1.82A4.87,4.87,0,0,0,856.12,467.34Z"/><path class="cls-7" d="M879.49,469.83v-1.69a7.46,7.46,0,0,1-5.22,2.12,6.64,6.64,0,0,1-4.67-1.6,5.93,5.93,0,0,1-1.74-4.59,5.42,5.42,0,0,1,2-4.54,7.71,7.71,0,0,1,4.89-1.55,9.5,9.5,0,0,1,4.76,1.19v-1.29a4.22,4.22,0,0,0-1-3.23,4.31,4.31,0,0,0-3-.91,9.15,9.15,0,0,0-5.36,1.83l-.9-2.63a11.85,11.85,0,0,1,6.66-1.94q6.54,0,6.55,6.62v12.21Zm-4.76-2.34a6.14,6.14,0,0,0,4.76-2.41v-3.17a8,8,0,0,0-4.32-1.23,5.3,5.3,0,0,0-3.14.87,2.89,2.89,0,0,0-1.22,2.52,3.17,3.17,0,0,0,1,2.48A4.11,4.11,0,0,0,874.73,467.49Z"/><path class="cls-7" d="M893.31,470.26a8.58,8.58,0,0,1-3.76-.85,7.9,7.9,0,0,1-2.9-2.25l2.23-1.9a6.1,6.1,0,0,0,4.5,2.19,4.68,4.68,0,0,0,2.49-.59,2,2,0,0,0,.93-1.75,2.2,2.2,0,0,0-.68-1.56,5.06,5.06,0,0,0-1.41-1.05c-.48-.23-1.18-.52-2.12-.88a13.49,13.49,0,0,1-4.25-2.34,4.37,4.37,0,0,1-1.44-3.42,4.21,4.21,0,0,1,1.75-3.55,7.2,7.2,0,0,1,4.44-1.31,7.67,7.67,0,0,1,6.19,2.77l-2.15,1.8a5.47,5.47,0,0,0-4.07-1.76,4,4,0,0,0-2.23.54,1.69,1.69,0,0,0-.83,1.51,1.89,1.89,0,0,0,.27,1,2.6,2.6,0,0,0,1,.85c.47.26.84.46,1.12.59s.78.34,1.53.63a14,14,0,0,1,4.44,2.38,4.68,4.68,0,0,1,1.53,3.74,4.61,4.61,0,0,1-1.76,3.83A7.52,7.52,0,0,1,893.31,470.26Z"/><path class="cls-7" d="M910.19,470.26a8.58,8.58,0,0,1-3.76-.85,8,8,0,0,1-2.9-2.25l2.24-1.9a6.07,6.07,0,0,0,4.5,2.19,4.64,4.64,0,0,0,2.48-.59,2,2,0,0,0,.94-1.75,2.17,2.17,0,0,0-.69-1.56,5,5,0,0,0-1.4-1.05c-.48-.23-1.19-.52-2.13-.88a13.31,13.31,0,0,1-4.24-2.34,4.34,4.34,0,0,1-1.45-3.42,4.23,4.23,0,0,1,1.75-3.55A7.25,7.25,0,0,1,910,451a7.7,7.7,0,0,1,6.19,2.77l-2.16,1.8a5.45,5.45,0,0,0-4.07-1.76,4,4,0,0,0-2.23.54,1.71,1.71,0,0,0-.83,1.51,1.89,1.89,0,0,0,.27,1,2.68,2.68,0,0,0,1,.85c.47.26.84.46,1.12.59s.79.34,1.53.63a13.89,13.89,0,0,1,4.44,2.38,4.65,4.65,0,0,1,1.53,3.74,4.58,4.58,0,0,1-1.76,3.83A7.52,7.52,0,0,1,910.19,470.26Z"/><path class="cls-7" d="M932.19,469.83v-1.69a7.43,7.43,0,0,1-5.22,2.12,6.61,6.61,0,0,1-4.66-1.6,5.9,5.9,0,0,1-1.75-4.59,5.42,5.42,0,0,1,2-4.54,7.72,7.72,0,0,1,4.9-1.55,9.46,9.46,0,0,1,4.75,1.19v-1.29a4.18,4.18,0,0,0-1-3.23,4.31,4.31,0,0,0-3-.91,9.17,9.17,0,0,0-5.36,1.83l-.9-2.63a11.89,11.89,0,0,1,6.66-1.94q6.55,0,6.55,6.62v12.21Zm-4.75-2.34a6.12,6.12,0,0,0,4.75-2.41v-3.17a8,8,0,0,0-4.32-1.23,5.26,5.26,0,0,0-3.13.87,2.87,2.87,0,0,0-1.23,2.52,3.21,3.21,0,0,0,1,2.48A4.12,4.12,0,0,0,927.44,467.49Z"/><path class="cls-7" d="M947.09,470.26a6.68,6.68,0,0,1-5.54-2.59,11.07,11.07,0,0,1-2-7.06,10.89,10.89,0,0,1,2.07-7.05,7.18,7.18,0,0,1,10.17-.83v-7.42l3.13-1.47v26h-3.13v-1.44A6.16,6.16,0,0,1,947.09,470.26Zm.43-2.92a4.65,4.65,0,0,0,4.22-2.48v-8.64a4.71,4.71,0,0,0-4.22-2.34,4.16,4.16,0,0,0-3.6,1.75,8.4,8.4,0,0,0-1.26,5,8.31,8.31,0,0,0,1.32,4.83A4.09,4.09,0,0,0,947.52,467.34Z"/><path class="cls-7" d="M973.8,467.69a8.16,8.16,0,0,1-11.88,0,10.48,10.48,0,0,1-2.19-7.05,10.6,10.6,0,0,1,2.19-7.08,8.16,8.16,0,0,1,11.88,0,10.43,10.43,0,0,1,2.2,7.05A10.55,10.55,0,0,1,973.8,467.69Zm-9.59-2.13a4.64,4.64,0,0,0,7.31,0,10,10,0,0,0,0-9.88,4.63,4.63,0,0,0-7.31,0,8.25,8.25,0,0,0-1.31,5A8.09,8.09,0,0,0,964.21,465.56Z"/><path class="cls-7" d="M980.9,469.83v-18.4H984v2.41a4.46,4.46,0,0,1,4.35-2.84,4.26,4.26,0,0,1,2.85.94l-.47,2.95a4.51,4.51,0,0,0-2.63-.79,3.91,3.91,0,0,0-2.86,1.26,5.67,5.67,0,0,0-1.24,4.1v10.37Z"/><path class="cls-7" d="M1008.33,470.26q-3.89,0-3.89-4.39v-11.7h-3v-2.74h3v-6.08l3.13-1.51v7.59h4.54v2.74h-4.54v10.65a3.6,3.6,0,0,0,.4,1.88,1.63,1.63,0,0,0,1.51.64,5.18,5.18,0,0,0,2.74-1l-.36,3.06A7.56,7.56,0,0,1,1008.33,470.26Z"/><path class="cls-7" d="M1029.46,467.69a8.16,8.16,0,0,1-11.88,0,10.48,10.48,0,0,1-2.2-7.05,10.6,10.6,0,0,1,2.2-7.08,8.16,8.16,0,0,1,11.88,0,10.48,10.48,0,0,1,2.2,7.05A10.6,10.6,0,0,1,1029.46,467.69Zm-9.59-2.13a4.63,4.63,0,0,0,7.3,0,9.9,9.9,0,0,0,0-9.88,4.62,4.62,0,0,0-7.3,0,8.25,8.25,0,0,0-1.32,5A8.09,8.09,0,0,0,1019.87,465.56Z"/><path class="cls-7" d="M1050,470.26q-3.88,0-3.89-4.39v-11.7h-3v-2.74h3v-6.08l3.13-1.51v7.59h4.54v2.74h-4.54v10.65a3.6,3.6,0,0,0,.4,1.88,1.63,1.63,0,0,0,1.51.64,5.18,5.18,0,0,0,2.74-1l-.36,3.06A7.53,7.53,0,0,1,1050,470.26Z"/><path class="cls-7" d="M1058.47,469.83V445.28l3.14-1.44v9.5a5.52,5.52,0,0,1,4.75-2.34,6.08,6.08,0,0,1,4.91,2q1.68,2,1.68,6.28v10.59h-3.13V458.7a5.3,5.3,0,0,0-1.07-3.65,3.71,3.71,0,0,0-2.89-1.17c-2.84,0-4.25,1.58-4.25,4.75v11.2Z"/><path class="cls-7" d="M1085.83,470.26a7.3,7.3,0,0,1-5.95-2.68,10.57,10.57,0,0,1-2.22-7,10.38,10.38,0,0,1,2.23-7.05,7.48,7.48,0,0,1,5.94-2.56,7.29,7.29,0,0,1,5.46,2.21q2.14,2.22,2.14,6.54c0,.67,0,1.37-.11,2.09h-12.45a6.55,6.55,0,0,0,1.56,4.05,4.5,4.5,0,0,0,3.48,1.53,5.44,5.44,0,0,0,4-1.66l1.9,2.12A8,8,0,0,1,1085.83,470.26Zm-5-11.09h9.43a5.63,5.63,0,0,0-1.35-4.12,4.27,4.27,0,0,0-3.08-1.28,4.76,4.76,0,0,0-3.49,1.35A6,6,0,0,0,1080.83,459.17Z"/><path class="cls-7" d="M1109.56,447.53a2,2,0,0,1-1.41.55,1.85,1.85,0,0,1-1.38-.57,2,2,0,0,1,0-2.79,1.82,1.82,0,0,1,1.36-.6,1.88,1.88,0,0,1,1.41.6,2,2,0,0,1,.57,1.42A1.89,1.89,0,0,1,1109.56,447.53Zm-3,22.3v-18.4h3.13v18.4Z"/><path class="cls-7" d="M1121.15,470.26a8.58,8.58,0,0,1-3.76-.85,7.9,7.9,0,0,1-2.9-2.25l2.23-1.9a6.1,6.1,0,0,0,4.5,2.19,4.68,4.68,0,0,0,2.49-.59,2,2,0,0,0,.93-1.75,2.2,2.2,0,0,0-.68-1.56,5.06,5.06,0,0,0-1.41-1.05c-.48-.23-1.18-.52-2.12-.88a13.49,13.49,0,0,1-4.25-2.34,4.37,4.37,0,0,1-1.44-3.42,4.21,4.21,0,0,1,1.75-3.55,7.2,7.2,0,0,1,4.44-1.31,7.71,7.71,0,0,1,6.2,2.77l-2.16,1.8a5.47,5.47,0,0,0-4.07-1.76,4,4,0,0,0-2.23.54,1.69,1.69,0,0,0-.83,1.51,1.89,1.89,0,0,0,.27,1,2.6,2.6,0,0,0,1,.85c.47.26.84.46,1.12.59s.78.34,1.53.63a14,14,0,0,1,4.44,2.38,4.68,4.68,0,0,1,1.53,3.74,4.61,4.61,0,0,1-1.76,3.83A7.52,7.52,0,0,1,1121.15,470.26Z"/><path class="cls-7" d="M1132.78,469.83V445.31l3.13-1.47v26Z"/><path class="cls-7" d="M1152.58,469.83v-1.69a7.43,7.43,0,0,1-5.22,2.12,6.59,6.59,0,0,1-4.66-1.6,5.9,5.9,0,0,1-1.75-4.59,5.42,5.42,0,0,1,2-4.54,7.72,7.72,0,0,1,4.9-1.55,9.46,9.46,0,0,1,4.75,1.19v-1.29a4.18,4.18,0,0,0-1-3.23,4.31,4.31,0,0,0-3-.91,9.17,9.17,0,0,0-5.36,1.83l-.9-2.63A11.85,11.85,0,0,1,1149,451q6.54,0,6.55,6.62v12.21Zm-4.75-2.34a6.14,6.14,0,0,0,4.75-2.41v-3.17a8,8,0,0,0-4.32-1.23,5.32,5.32,0,0,0-3.14.87,2.89,2.89,0,0,0-1.22,2.52,3.17,3.17,0,0,0,1,2.48A4.12,4.12,0,0,0,1147.83,467.49Z"/><path class="cls-7" d="M1172.3,469.83V458.7a5.31,5.31,0,0,0-1.06-3.65,3.72,3.72,0,0,0-2.9-1.17q-4.24,0-4.24,4.75v11.2H1161v-18.4h3.14v1.87a5.55,5.55,0,0,1,4.75-2.3,6.08,6.08,0,0,1,4.91,2q1.68,2,1.68,6.28v10.59Z"/><path class="cls-7" d="M1187.75,470.26a6.7,6.7,0,0,1-5.55-2.59,11.13,11.13,0,0,1-2-7.06,10.89,10.89,0,0,1,2.07-7.05,7.18,7.18,0,0,1,10.17-.83v-7.42l3.13-1.47v26h-3.13v-1.44A6.15,6.15,0,0,1,1187.75,470.26Zm.43-2.92a4.63,4.63,0,0,0,4.21-2.48v-8.64a4.7,4.7,0,0,0-4.21-2.34,4.16,4.16,0,0,0-3.6,1.75,10,10,0,0,0,.05,9.81A4.1,4.1,0,0,0,1188.18,467.34Z"/><path class="cls-7" d="M1222.92,467.69a8.16,8.16,0,0,1-11.88,0,10.48,10.48,0,0,1-2.2-7.05,10.6,10.6,0,0,1,2.2-7.08,8.16,8.16,0,0,1,11.88,0,10.48,10.48,0,0,1,2.2,7.05A10.6,10.6,0,0,1,1222.92,467.69Zm-9.59-2.13a4.63,4.63,0,0,0,7.3,0,9.9,9.9,0,0,0,0-9.88,4.62,4.62,0,0,0-7.3,0,8.25,8.25,0,0,0-1.32,5A8.09,8.09,0,0,0,1213.33,465.56Z"/><path class="cls-7" d="M1234.19,454.17v15.66h-3.13V454.17h-2.85v-2.74h2.85v-3.06a4,4,0,0,1,1.15-3.2,4.24,4.24,0,0,1,2.84-1,7.12,7.12,0,0,1,3.42.86v2.63a6.32,6.32,0,0,0-2.63-.69,1.47,1.47,0,0,0-1.33.51,2.61,2.61,0,0,0-.32,1.4v2.52h4.28v2.74Z"/><path class="cls-7" d="M1260.61,470.26a10.45,10.45,0,0,1-4.88-1.1,8.85,8.85,0,0,1-3.35-3,14.36,14.36,0,0,1-1.85-4.14,18.34,18.34,0,0,1-.61-4.82,17.3,17.3,0,0,1,.65-4.81,14.22,14.22,0,0,1,1.9-4.14,9.34,9.34,0,0,1,3.37-3,10.05,10.05,0,0,1,4.77-1.11,9.33,9.33,0,0,1,5.06,1.18,10.17,10.17,0,0,1,3.11,3.24l-2.81,1.62a8.23,8.23,0,0,0-2.23-2.28,5.55,5.55,0,0,0-3.13-.81,6.68,6.68,0,0,0-2.91.61,6.1,6.1,0,0,0-2.13,1.6,9.46,9.46,0,0,0-1.39,2.32,12.77,12.77,0,0,0-.79,2.72,17.71,17.71,0,0,0-.23,2.83,12.87,12.87,0,0,0,1.87,7.14,6.2,6.2,0,0,0,5.58,2.9,5.43,5.43,0,0,0,4.1-1.6,5.76,5.76,0,0,0,1.55-4.19v-1h-4.57v-2.88h7.85v3a9.72,9.72,0,0,1-2.5,7.11A8.65,8.65,0,0,1,1260.61,470.26Z"/><path class="cls-7" d="M1286.39,469.83v-1.77a5.54,5.54,0,0,1-4.65,2.2,6.29,6.29,0,0,1-5-1.94c-1.12-1.3-1.67-3.39-1.67-6.27V451.43h3.13v11.09a5.29,5.29,0,0,0,1.06,3.65,3.72,3.72,0,0,0,2.9,1.17q4.24,0,4.25-4.75V451.43h3.13v18.4Z"/><path class="cls-7" d="M1306,469.83v-1.69a7.43,7.43,0,0,1-5.22,2.12,6.61,6.61,0,0,1-4.66-1.6,5.94,5.94,0,0,1-1.75-4.59,5.42,5.42,0,0,1,2-4.54,7.74,7.74,0,0,1,4.9-1.55,9.44,9.44,0,0,1,4.75,1.19v-1.29a4.22,4.22,0,0,0-1-3.23,4.34,4.34,0,0,0-3-.91,9.2,9.2,0,0,0-5.37,1.83l-.9-2.63a11.89,11.89,0,0,1,6.66-1.94q6.55,0,6.55,6.62v12.21Zm-4.75-2.34a6.12,6.12,0,0,0,4.75-2.41v-3.17a8,8,0,0,0-4.32-1.23,5.29,5.29,0,0,0-3.13.87,2.86,2.86,0,0,0-1.22,2.52,3.2,3.2,0,0,0,1,2.48A4.13,4.13,0,0,0,1301.29,467.49Z"/><path class="cls-7" d="M1336,469.83V458.67q0-4.79-3.7-4.79a3.54,3.54,0,0,0-2.87,1.35,5.45,5.45,0,0,0-1.09,3.55v11.05h-3.14V458.67q0-4.79-3.67-4.79a3.59,3.59,0,0,0-2.9,1.28,5.25,5.25,0,0,0-1.06,3.47v11.2h-3.13v-18.4h3.13v1.73a5.65,5.65,0,0,1,4.83-2.16,6,6,0,0,1,2.86.7,5.3,5.3,0,0,1,2.07,2,5.93,5.93,0,0,1,5.33-2.7,6.44,6.44,0,0,1,4.68,1.76,6.71,6.71,0,0,1,1.8,5v12.06Z"/><path class="cls-7" d="M1043.86,142.91h6.87a12.85,12.85,0,0,1,5.44,1.08,9.13,9.13,0,0,1,3.67,2.92,12.79,12.79,0,0,1,2,4,16.41,16.41,0,0,1,.63,4.61,16.21,16.21,0,0,1-.59,4.45,14,14,0,0,1-1.87,4,8.9,8.9,0,0,1-3.69,3,13.37,13.37,0,0,1-5.69,1.13h-6.73ZM1051,165.2a8.58,8.58,0,0,0,3.9-.85,6.18,6.18,0,0,0,2.58-2.31,11.07,11.07,0,0,0,1.31-3.07,13.73,13.73,0,0,0,.41-3.46,14.12,14.12,0,0,0-.75-4.72,7.86,7.86,0,0,0-2.59-3.56,7,7,0,0,0-4.47-1.44H1047V165.2Z"/><path class="cls-7" d="M1075,168.54a7.34,7.34,0,0,1-6-2.68,10.61,10.61,0,0,1-2.21-7,10.36,10.36,0,0,1,2.23-7.06,7.52,7.52,0,0,1,5.94-2.56,7.27,7.27,0,0,1,5.46,2.22c1.42,1.47,2.14,3.65,2.14,6.53,0,.67,0,1.37-.11,2.09H1070a6.55,6.55,0,0,0,1.57,4,4.48,4.48,0,0,0,3.47,1.53,5.37,5.37,0,0,0,4-1.66l1.91,2.13A8.06,8.06,0,0,1,1075,168.54Zm-5-11.09h9.43a5.64,5.64,0,0,0-1.35-4.12,4.28,4.28,0,0,0-3.08-1.27,4.73,4.73,0,0,0-3.49,1.35A5.9,5.9,0,0,0,1070,157.45Z"/><path class="cls-7" d="M1097.79,168.11v-1.69a7.42,7.42,0,0,1-5.22,2.12,6.64,6.64,0,0,1-4.67-1.6,5.93,5.93,0,0,1-1.74-4.59,5.4,5.4,0,0,1,2-4.53,7.65,7.65,0,0,1,4.89-1.55,9.5,9.5,0,0,1,4.76,1.18v-1.29a4.18,4.18,0,0,0-1-3.22,4.26,4.26,0,0,0-3-.92,9.09,9.09,0,0,0-5.36,1.84l-.9-2.63a11.78,11.78,0,0,1,6.66-1.95q6.54,0,6.55,6.63v12.2Zm-4.76-2.34a6.11,6.11,0,0,0,4.76-2.41v-3.17a8.11,8.11,0,0,0-4.32-1.22,5.29,5.29,0,0,0-3.14.86,2.91,2.91,0,0,0-1.22,2.52,3.17,3.17,0,0,0,1,2.48A4.11,4.11,0,0,0,1093,165.77Z"/><path class="cls-7" d="M1111.14,168.54q-3.89,0-3.89-4.39v-11.7h-3v-2.74h3v-6.08l3.14-1.51v7.59h4.53v2.74h-4.53v10.66a3.67,3.67,0,0,0,.39,1.87,1.64,1.64,0,0,0,1.51.65,5.27,5.27,0,0,0,2.74-1l-.36,3.05A7.41,7.41,0,0,1,1111.14,168.54Z"/><path class="cls-7" d="M1119.64,168.11V143.56l3.13-1.44v9.5a5.52,5.52,0,0,1,4.75-2.34,6.14,6.14,0,0,1,4.92,2q1.66,2,1.67,6.29v10.58H1131V157a5.37,5.37,0,0,0-1.06-3.66,3.73,3.73,0,0,0-2.9-1.17c-2.83,0-4.25,1.59-4.25,4.75v11.2Z"/><path class="cls-7" d="M1142.73,154.88a2.42,2.42,0,0,1-1.78.74,2.51,2.51,0,0,1-2.49-2.45,2.37,2.37,0,0,1,.73-1.74,2.31,2.31,0,0,1,1.76-.74,2.39,2.39,0,0,1,1.78.75,2.43,2.43,0,0,1,.74,1.73A2.35,2.35,0,0,1,1142.73,154.88Zm0,13a2.42,2.42,0,0,1-1.78.74,2.51,2.51,0,0,1-2.49-2.45,2.37,2.37,0,0,1,.73-1.74,2.31,2.31,0,0,1,1.76-.74,2.39,2.39,0,0,1,1.78.75,2.43,2.43,0,0,1,.74,1.73A2.35,2.35,0,0,1,1142.73,167.84Z"/><path class="cls-7" d="M1171.44,168.11l-2.16-6.16h-10l-2.12,6.16h-3.28l8.93-25.2h2.92l8.92,25.2Zm-3.13-8.93-3.24-9.32c-.41-1.18-.67-2-.79-2.56-.27.94-.53,1.79-.8,2.56l-3.27,9.32Z"/><path class="cls-7" d="M1187.32,168.54a5.91,5.91,0,0,1-4.72-2.16v7.53l-3.13,1.47V149.71h3.13v1.55a6.44,6.44,0,0,1,4.72-2,6.73,6.73,0,0,1,5.54,2.59,11,11,0,0,1,2.05,7,10.87,10.87,0,0,1-2.09,7.07A6.71,6.71,0,0,1,1187.32,168.54Zm-.4-2.91a4.1,4.1,0,0,0,3.55-1.75,8.56,8.56,0,0,0,1.24-5,8.44,8.44,0,0,0-1.28-4.9,4.06,4.06,0,0,0-3.51-1.84,4.64,4.64,0,0,0-4.32,2.49v8.49A5.43,5.43,0,0,0,1186.92,165.63Z"/><path class="cls-7" d="M1199.77,168.11v-18.4h3.13v2.42a4.47,4.47,0,0,1,4.36-2.85,4.28,4.28,0,0,1,2.84.94l-.46,2.95a4.53,4.53,0,0,0-2.63-.79,3.89,3.89,0,0,0-2.86,1.26,5.68,5.68,0,0,0-1.25,4.1v10.37Z"/><path class="cls-7" d="M1216.58,145.81a1.94,1.94,0,0,1-1.4.56,1.84,1.84,0,0,1-1.39-.58,1.89,1.89,0,0,1-.55-1.37,2,2,0,0,1,.57-1.42,1.92,1.92,0,0,1,2.77,0,2,2,0,0,1,.58,1.42A1.83,1.83,0,0,1,1216.58,145.81Zm-2.95,22.3v-18.4h3.13v18.4Z"/><path class="cls-7" d="M1222.92,168.11V143.6l3.13-1.48v26Z"/><path class="cls-7" d="M1240.16,168.11a13,13,0,0,1,.69-4.34,10.22,10.22,0,0,1,2-3.44,18.58,18.58,0,0,1,2.59-2.48,28.05,28.05,0,0,1,3.09-2c1.11-.67,2-1.24,2.6-1.71a8,8,0,0,0,1.74-1.89,4.39,4.39,0,0,0,.81-2.52,4,4,0,0,0-1.35-3.06,5.1,5.1,0,0,0-3.58-1.22q-4.17,0-5.36,3.7l-2.81-1.26a7.22,7.22,0,0,1,3-3.87,9.31,9.31,0,0,1,5.29-1.49,8.37,8.37,0,0,1,5.9,2,6.84,6.84,0,0,1,2.16,5.27,7.21,7.21,0,0,1-.39,2.41,8.11,8.11,0,0,1-1,1.91,8.71,8.71,0,0,1-1.6,1.66,19.89,19.89,0,0,1-1.85,1.38c-.54.35-1.27.8-2.18,1.35a21.17,21.17,0,0,0-4.2,3.06,6.68,6.68,0,0,0-1.92,3.53h13.32v3.06Z"/><path class="cls-7" d="M1261.73,172.65A7.25,7.25,0,0,0,1263,171a5,5,0,0,0,.72-2.3,2.88,2.88,0,0,1-1.8-.74,2.17,2.17,0,0,1-.72-1.67,2.55,2.55,0,0,1,.7-1.84,2.3,2.3,0,0,1,1.71-.72,2.63,2.63,0,0,1,1.95.81,3.24,3.24,0,0,1,.79,2.36,6.94,6.94,0,0,1-1,3.65,7.65,7.65,0,0,1-2.59,2.65Z"/><path class="cls-7" d="M1278.75,168.11a13,13,0,0,1,.69-4.34,10.22,10.22,0,0,1,2-3.44,19.15,19.15,0,0,1,2.59-2.48,28.26,28.26,0,0,1,3.1-2c1.1-.67,2-1.24,2.59-1.71a8,8,0,0,0,1.74-1.89,4.39,4.39,0,0,0,.81-2.52,4,4,0,0,0-1.35-3.06,5.1,5.1,0,0,0-3.58-1.22q-4.17,0-5.36,3.7l-2.81-1.26a7.22,7.22,0,0,1,3-3.87,9.33,9.33,0,0,1,5.29-1.49,8.35,8.35,0,0,1,5.9,2,6.84,6.84,0,0,1,2.16,5.27,7.21,7.21,0,0,1-.39,2.41,7.75,7.75,0,0,1-1,1.91,8.71,8.71,0,0,1-1.6,1.66,18.64,18.64,0,0,1-1.85,1.38c-.54.35-1.27.8-2.18,1.35a21.07,21.07,0,0,0-4.19,3.06,6.69,6.69,0,0,0-1.93,3.53h13.32v3.06Z"/><path class="cls-7" d="M1309.79,168.54a7.81,7.81,0,0,1-4.22-1.13,7.53,7.53,0,0,1-2.75-3.06,16.69,16.69,0,0,1-1.4-4.12,23.56,23.56,0,0,1-.45-4.72,24.2,24.2,0,0,1,.39-4.41,18.31,18.31,0,0,1,1.33-4.14,7.89,7.89,0,0,1,2.76-3.26,7.63,7.63,0,0,1,4.34-1.22,7.8,7.8,0,0,1,4.21,1.13,7.45,7.45,0,0,1,2.75,3.08,17.14,17.14,0,0,1,1.41,4.14,23.37,23.37,0,0,1,.45,4.68,22.45,22.45,0,0,1-.42,4.41,17.73,17.73,0,0,1-1.35,4.14,7.74,7.74,0,0,1-2.75,3.26A7.57,7.57,0,0,1,1309.79,168.54Zm0-2.95a4.36,4.36,0,0,0,2.77-.9,5.28,5.28,0,0,0,1.71-2.48,17.49,17.49,0,0,0,.79-3.19,23.87,23.87,0,0,0,.23-3.51,25.08,25.08,0,0,0-.25-3.71,14.71,14.71,0,0,0-.84-3.18,5.46,5.46,0,0,0-1.71-2.36,4.28,4.28,0,0,0-2.7-.86,4.37,4.37,0,0,0-2.81.91,5.52,5.52,0,0,0-1.73,2.49,16.15,16.15,0,0,0-.81,3.2,24.25,24.25,0,0,0-.23,3.51,24.61,24.61,0,0,0,.25,3.69,14,14,0,0,0,.86,3.19,5.3,5.3,0,0,0,1.75,2.35A4.37,4.37,0,0,0,1309.79,165.59Z"/><path class="cls-7" d="M1332.79,168.54a7.77,7.77,0,0,1-4.21-1.13,7.55,7.55,0,0,1-2.76-3.06,17.11,17.11,0,0,1-1.4-4.12,24.75,24.75,0,0,1-.05-9.13,17.36,17.36,0,0,1,1.33-4.14,7.8,7.8,0,0,1,2.75-3.26,7.63,7.63,0,0,1,4.34-1.22,7.77,7.77,0,0,1,4.21,1.13,7.54,7.54,0,0,1,2.76,3.08,17.56,17.56,0,0,1,1.4,4.14,24.25,24.25,0,0,1,0,9.09,18.72,18.72,0,0,1-1.35,4.14,7.83,7.83,0,0,1-2.76,3.26A7.54,7.54,0,0,1,1332.79,168.54Zm0-2.95a4.36,4.36,0,0,0,2.77-.9,5.28,5.28,0,0,0,1.71-2.48,16.71,16.71,0,0,0,.79-3.19,23.81,23.81,0,0,0,.24-3.51,26.51,26.51,0,0,0-.25-3.71,14.17,14.17,0,0,0-.85-3.18,5.46,5.46,0,0,0-1.71-2.36,4.26,4.26,0,0,0-2.7-.86,4.39,4.39,0,0,0-2.81.91,5.6,5.6,0,0,0-1.73,2.49,16.15,16.15,0,0,0-.81,3.2,25.76,25.76,0,0,0-.23,3.51,24.61,24.61,0,0,0,.25,3.69,14,14,0,0,0,.87,3.19,5.29,5.29,0,0,0,1.74,2.35A4.39,4.39,0,0,0,1332.79,165.59Z"/><path class="cls-7" d="M1355.25,168.54a8.64,8.64,0,0,1-6.08-2.17,7.18,7.18,0,0,1-2.38-5.5,7,7,0,0,1,4.32-6.62,5.7,5.7,0,0,1-3.2-5.22,6.06,6.06,0,0,1,2.07-4.66,7.52,7.52,0,0,1,5.27-1.89,7.61,7.61,0,0,1,5.3,1.89,6,6,0,0,1,2.08,4.66,5.39,5.39,0,0,1-3.24,5.22,7.34,7.34,0,0,1,3.17,2.59,7,7,0,0,1,1.19,4,7.14,7.14,0,0,1-2.38,5.5A8.69,8.69,0,0,1,1355.25,168.54Zm-3.76-4.3a5.94,5.94,0,0,0,7.54,0,4.64,4.64,0,0,0,1.48-3.62,4.78,4.78,0,0,0-1.49-3.52,5.53,5.53,0,0,0-7.51,0,4.8,4.8,0,0,0-1.48,3.54A4.69,4.69,0,0,0,1351.49,164.24Zm.74-12.31a4.28,4.28,0,0,0,3,1.06,4.36,4.36,0,0,0,3-1.06,3.43,3.43,0,0,0,1.17-2.65,3.62,3.62,0,0,0-1.17-2.82,4.36,4.36,0,0,0-3-1.06,4.28,4.28,0,0,0-3,1.06,3.62,3.62,0,0,0-1.17,2.82A3.45,3.45,0,0,0,1352.23,151.93Z"/><path class="cls-7" d="M933.33,268.62v22.21H930.2V268.62h-7v-3h17.18v3Z"/><path class="cls-7" d="M948.23,268.53a1.93,1.93,0,0,1-1.4.55,1.85,1.85,0,0,1-1.39-.57,2,2,0,0,1,0-2.79,1.83,1.83,0,0,1,1.37-.6,1.86,1.86,0,0,1,1.4.6,2,2,0,0,1,.58,1.42A1.89,1.89,0,0,1,948.23,268.53Zm-3,22.3v-18.4h3.13v18.4Z"/><path class="cls-7" d="M959.35,291.26q-3.89,0-3.88-4.39v-11.7h-3v-2.74h3v-6.08l3.13-1.51v7.59h4.53v2.74H958.6v10.65a3.71,3.71,0,0,0,.39,1.88,1.64,1.64,0,0,0,1.52.64,5.18,5.18,0,0,0,2.73-1l-.36,3.06A7.5,7.5,0,0,1,959.35,291.26Z"/><path class="cls-7" d="M968,290.83V266.31l3.13-1.47v26Z"/><path class="cls-7" d="M984.37,291.26a7.3,7.3,0,0,1-6-2.68,10.57,10.57,0,0,1-2.22-7,10.38,10.38,0,0,1,2.23-7.05,7.48,7.48,0,0,1,5.94-2.56,7.29,7.29,0,0,1,5.46,2.21q2.14,2.22,2.14,6.54c0,.67,0,1.37-.11,2.09H979.41a6.55,6.55,0,0,0,1.56,4.05,4.5,4.5,0,0,0,3.48,1.53,5.44,5.44,0,0,0,4-1.66l1.9,2.12A8,8,0,0,1,984.37,291.26Zm-5-11.09h9.43a5.63,5.63,0,0,0-1.35-4.12,4.27,4.27,0,0,0-3.08-1.28,4.76,4.76,0,0,0-3.49,1.35A6,6,0,0,0,979.37,280.17Z"/><path class="cls-7" d="M999.48,277.6a2.46,2.46,0,0,1-1.79.74,2.49,2.49,0,0,1-2.48-2.45,2.43,2.43,0,0,1,.72-1.75,2.38,2.38,0,0,1,1.76-.74,2.44,2.44,0,0,1,1.79.76,2.4,2.4,0,0,1,.73,1.73A2.34,2.34,0,0,1,999.48,277.6Zm0,13a2.46,2.46,0,0,1-1.79.74,2.49,2.49,0,0,1-2.48-2.45,2.43,2.43,0,0,1,.72-1.75,2.38,2.38,0,0,1,1.76-.74,2.44,2.44,0,0,1,1.79.76,2.4,2.4,0,0,1,.73,1.73A2.34,2.34,0,0,1,999.48,290.56Z"/><path class="cls-7" d="M1460.82,292.73v22.21h-3.14V292.73h-7v-3h17.17v3Z"/><path class="cls-7" d="M1480.94,314.94v-1.69a7.39,7.39,0,0,1-5.22,2.12,6.61,6.61,0,0,1-4.66-1.6,5.9,5.9,0,0,1-1.75-4.59,5.4,5.4,0,0,1,2-4.53,7.72,7.72,0,0,1,4.9-1.55,9.36,9.36,0,0,1,4.75,1.19V303a4.14,4.14,0,0,0-1-3.22,4.31,4.31,0,0,0-3-.92,9.12,9.12,0,0,0-5.36,1.84l-.9-2.63a11.82,11.82,0,0,1,6.66-1.95q6.56,0,6.55,6.63v12.2Zm-4.75-2.34a6.09,6.09,0,0,0,4.75-2.41V307a8.11,8.11,0,0,0-4.32-1.22,5.33,5.33,0,0,0-3.13.86,2.9,2.9,0,0,0-1.23,2.52,3.24,3.24,0,0,0,1,2.49A4.16,4.16,0,0,0,1476.19,312.6Z"/><path class="cls-7" d="M1502.32,312.8a7.38,7.38,0,0,1-5.94,2.57,7.45,7.45,0,0,1-5.94-2.55,12.49,12.49,0,0,1,0-14.13,8.15,8.15,0,0,1,11.88,0,12.44,12.44,0,0,1,0,14.13Zm-9.59-2.12a4.64,4.64,0,0,0,7.31,0,10,10,0,0,0,0-9.89,4.62,4.62,0,0,0-7.31,0,8.21,8.21,0,0,0-1.32,5A8.12,8.12,0,0,0,1492.73,310.68Z"/><path class="cls-7" d="M1514.38,315.37q-3.89,0-3.89-4.39v-11.7h-3v-2.73h3v-6.09l3.14-1.51v7.6h4.53v2.73h-4.53v10.66a3.67,3.67,0,0,0,.39,1.87,1.64,1.64,0,0,0,1.51.65,5.27,5.27,0,0,0,2.74-1l-.36,3.06A7.53,7.53,0,0,1,1514.38,315.37Z"/><path class="cls-7" d="M1533.07,314.94v-1.69a7.42,7.42,0,0,1-5.22,2.12,6.64,6.64,0,0,1-4.67-1.6,5.93,5.93,0,0,1-1.74-4.59,5.4,5.4,0,0,1,2-4.53,7.71,7.71,0,0,1,4.89-1.55,9.4,9.4,0,0,1,4.76,1.19V303a4.18,4.18,0,0,0-1-3.22,4.31,4.31,0,0,0-3-.92,9.09,9.09,0,0,0-5.36,1.84l-.9-2.63a11.78,11.78,0,0,1,6.66-1.95q6.54,0,6.55,6.63v12.2Zm-4.76-2.34a6.11,6.11,0,0,0,4.76-2.41V307a8.11,8.11,0,0,0-4.32-1.22,5.37,5.37,0,0,0-3.14.86,2.91,2.91,0,0,0-1.22,2.52,3.21,3.21,0,0,0,1,2.49A4.15,4.15,0,0,0,1528.31,312.6Z"/><path class="cls-7" d="M1554.45,312.8a8.17,8.17,0,0,1-11.88,0,12.44,12.44,0,0,1,0-14.13,8.15,8.15,0,0,1,11.88,0,12.44,12.44,0,0,1,0,14.13Zm-9.59-2.12a4.63,4.63,0,0,0,7.3,0,9.92,9.92,0,0,0,0-9.89,4.61,4.61,0,0,0-7.3,0,8.21,8.21,0,0,0-1.32,5A8.12,8.12,0,0,0,1544.86,310.68Z"/><polyline class="cls-8" points="191.29 204.6 191.29 204.6 199.94 180.83"/><polyline class="cls-8" points="220.26 206.23 220.26 206.23 240.16 260.9"/><polyline class="cls-8" points="539.8 204.92 539.8 204.92 559.7 259.59"/><polyline class="cls-8" points="784 203.6 784 203.6 792.65 179.83"/><polyline class="cls-8" points="974.68 204.92 974.68 204.92 994.58 257.05"/><polyline class="cls-9" points="1018.03 282.76 1033.48 282.76 1066.36 373.09"/><polyline class="cls-8" points="1132.01 201.54 1132.01 201.54 1140.66 177.77"/><polyline class="cls-8" points="426.56 203.6 426.56 203.6 435.21 179.83"/><path class="cls-10" d="M68,204.92h0Z"/><path class="cls-11" d="M68,204.92h0Z"/><path class="cls-7" d="M128.13,145.51h8.92q4.14,0,6,1.9a6.6,6.6,0,0,1,1.85,4.76,5.26,5.26,0,0,1-1,3.11,6.25,6.25,0,0,1-2.74,2.14,6.59,6.59,0,0,1,3.41,2.29,6.1,6.1,0,0,1,1.2,3.76,7.65,7.65,0,0,1-.43,2.59,7.49,7.49,0,0,1-1.33,2.31,6,6,0,0,1-2.56,1.71,10.79,10.79,0,0,1-3.85.63h-9.5Zm8.31,10.69a6.49,6.49,0,0,0,4-1.06,3.53,3.53,0,0,0,1.37-2.94q0-3.85-4.58-3.85h-6v7.85ZM138,167.83a4.75,4.75,0,0,0,3.64-1.19,4.23,4.23,0,0,0,1.08-2.95q0-4.65-5.87-4.65h-5.58v8.79Z"/><path class="cls-7" d="M164.2,168.56a8.15,8.15,0,0,1-11.88,0,10.43,10.43,0,0,1-2.2-7.05,10.55,10.55,0,0,1,2.2-7.08,8.17,8.17,0,0,1,11.88,0,12.49,12.49,0,0,1,0,14.13Zm-9.6-2.12a4.64,4.64,0,0,0,7.31,0,9.9,9.9,0,0,0,0-9.88,4.63,4.63,0,0,0-7.31,0,8.32,8.32,0,0,0-1.31,5A8.18,8.18,0,0,0,154.6,166.44Z"/><path class="cls-7" d="M171.29,170.71v-18.4h3.13v2.41a4.47,4.47,0,0,1,4.36-2.84,4.28,4.28,0,0,1,2.84.93l-.47,3a4.51,4.51,0,0,0-2.62-.8,3.93,3.93,0,0,0-2.87,1.26,5.74,5.74,0,0,0-1.24,4.11v10.37Z"/><path class="cls-7" d="M196.63,170.71V159.58a5.31,5.31,0,0,0-1.06-3.65,3.72,3.72,0,0,0-2.9-1.17q-4.24,0-4.24,4.75v11.2h-3.14v-18.4h3.14v1.87a5.55,5.55,0,0,1,4.75-2.3,6.09,6.09,0,0,1,4.91,2c1.12,1.31,1.67,3.4,1.67,6.28v10.59Z"/><path class="cls-7" d="M208.39,157.48a2.45,2.45,0,0,1-1.79.73,2.37,2.37,0,0,1-1.76-.73,2.47,2.47,0,1,1,4.28-1.71A2.37,2.37,0,0,1,208.39,157.48Zm0,13a2.45,2.45,0,0,1-1.79.73,2.37,2.37,0,0,1-1.76-.73,2.47,2.47,0,1,1,4.28-1.71A2.37,2.37,0,0,1,208.39,170.44Z"/><path class="cls-7" d="M233.24,170.71V150.62H229v-2.13q4.07,0,5.08-3h2.27v25.2Z"/><path class="cls-7" d="M247.28,171.14v-2.92a11.15,11.15,0,0,0,5.92-3,10.69,10.69,0,0,0,3.12-6.16c-1.18,1.44-3,2.16-5.51,2.16a7.39,7.39,0,0,1-5.53-2.27,8.33,8.33,0,0,1,.22-11.53,8.53,8.53,0,0,1,6.14-2.33,7.47,7.47,0,0,1,6.26,2.7,11.08,11.08,0,0,1,2.13,7.06,17.75,17.75,0,0,1-3.41,10.93A13.48,13.48,0,0,1,247.28,171.14Zm4.25-12.85a5.21,5.21,0,0,0,3.8-1.43,5,5,0,0,0,1.46-3.72,4.77,4.77,0,0,0-1.5-3.62,5.74,5.74,0,0,0-7.56,0,4.84,4.84,0,0,0-1.46,3.62,5,5,0,0,0,1.43,3.74A5.18,5.18,0,0,0,251.53,158.29Z"/><path class="cls-7" d="M268.81,170.71a39.19,39.19,0,0,1,1.8-11.69,36.8,36.8,0,0,1,5.69-10.6H263.77v-2.91h16v2.84a29.81,29.81,0,0,0-6.26,11.77,49.58,49.58,0,0,0-1.16,5.56,35.88,35.88,0,0,0-.36,5Z"/><path class="cls-7" d="M283.82,170.71a13,13,0,0,1,.69-4.34,10,10,0,0,1,2-3.44,18.58,18.58,0,0,1,2.59-2.48,26.67,26.67,0,0,1,3.09-2.06c1.11-.67,2-1.24,2.6-1.71a7.64,7.64,0,0,0,1.74-1.89,4.39,4.39,0,0,0,.81-2.52,4,4,0,0,0-1.35-3.06,5.15,5.15,0,0,0-3.58-1.22q-4.17,0-5.36,3.71l-2.81-1.26a7.14,7.14,0,0,1,3-3.87,9.24,9.24,0,0,1,5.29-1.5,8.37,8.37,0,0,1,5.9,2,6.85,6.85,0,0,1,2.16,5.28,7.29,7.29,0,0,1-.39,2.41,8.31,8.31,0,0,1-1,1.91,8.69,8.69,0,0,1-1.6,1.65,20.2,20.2,0,0,1-1.85,1.39c-.54.35-1.27.8-2.18,1.35a20.78,20.78,0,0,0-4.2,3.06,6.64,6.64,0,0,0-1.92,3.53h13.32v3.06Z"/></svg>