<?xml version="1.0" encoding="utf-8"?>
<!-- Generator: Adobe Illustrator 25.2.1, SVG Export Plug-In . SVG Version: 6.00 Build 0)  -->
<svg version="1.1" id="Layer_1" xmlns="http://www.w3.org/2000/svg" xmlns:xlink="http://www.w3.org/1999/xlink" x="0px" y="0px"
	 viewBox="0 0 1634.1 483.4" style="enable-background:new 0 0 1634.1 483.4;" xml:space="preserve">
<style type="text/css">
	.st0{fill:#282828;}
	.st1{fill:none;stroke:#333333;stroke-width:3.5658;stroke-linecap:round;}
	.st2{fill:#FFFFFF;}
	.st3{fill:none;stroke:#333333;stroke-width:1.188596e-03;}
	.st4{fill:#010101;}
	.st5{fill:#333333;}
	.st6{font-family:'Overpass-Regular';}
	.st7{font-size:36px;}
	.st8{fill:none;stroke:#333333;stroke-width:4.7544;stroke-linecap:round;}
	.st9{fill:none;stroke:#333333;stroke-width:5;stroke-linecap:round;}
	.st10{fill:#EE2B31;}
	.st11{fill:#414042;stroke:#414042;stroke-width:5;stroke-linecap:round;stroke-linejoin:round;}
</style>
<g>
	<g>
		<path class="st0" d="M1517.9,86.4c-3.5,7.5-1,14.4,2.6,16.4c3.6,2,14,0.8,15.9-2.3C1538.9,96.4,1521.7,78.2,1517.9,86.4z"/>
		<path class="st0" d="M1525.5,46.1c-7.9,0.4-19,8.3-12,19.3c6.9,11,18.8,4.2,25.8-1.5C1550.3,54.9,1533.4,45.7,1525.5,46.1z
			 M1529.2,61.2c-2.2-1.4-5.6-0.8-3.9-3.3c1.7-2.4,4.8-3.2,6.9-1.8c2.2,1.5,2.6,4.6,0.9,7C1531.5,65.7,1531.4,62.7,1529.2,61.2z"/>
		<path class="st0" d="M1570.9,91.2c-1.9-9.2-15.6-25.2-21.2-9.4c-3.5,10-6.6,26,6,30C1568.4,115.9,1572.8,100.4,1570.9,91.2z
			 M1554.4,90.7c-1.2-3.1-4.5-4.5-1.4-5.6c3.1-1.2,6.5,0.3,7.7,3.4c1.2,3.1-0.3,6.5-3.4,7.7C1554.2,97.3,1555.6,93.7,1554.4,90.7z"
			/>
		<path class="st0" d="M1584.6,26.7c4.9-20.2-9.2-26.4-16.3-26.7c-9-0.4-20,3.3-21.8,21.8C1546.6,21.8,1564.4,13.4,1584.6,26.7z"/>
		<path class="st0" d="M1472.8,116.1c9,53,26.9,76.9,38.8,76.9c11.9,0,16.8,0,16.8,0c7.2,0,9.9-4.9,2.5-12.4
			c-4.3-4.3-2.9-14.1-1.5-20.4c7.8-0.2,8.6-0.7,15.3-1.6c18.1-3.7,23.9-14.4,24.4-23.4c0.5-10.2-13.9-12.6-23.9-10.7
			c-32.5,6.3-40.7-11.3-36.3-30.7c3.6-16-12.4-12.7-6.7-32.3c6.3-21.3,20.4-29.6,40.2-38.7c-10.6-2.7-25.5-4.3-40.1,1.2
			C1476.3,33.6,1463.6,62.1,1472.8,116.1z"/>
		<path class="st0" d="M1415.7,87.8c-24.5,10.8-17.4,40-0.3,41.4c3,24.9,15,63.8,38.6,63.8c8.6,0,18.8,0,18.8,0
			c7.1,0,10.6-10.7,2.5-13.4c-7-2.3-16.4-6.9-15.2-33c2-44-34-52-4.5-97.5C1442,57.1,1422.7,71,1415.7,87.8z"/>
		<path class="st0" d="M1553.9,163.6c2,5.1,3.3,13.1-0.7,16.8c-6,5.6-5.2,12.6,1.4,12.6c0,0,9.9,0,16.7,0
			c17.1,0,44.6-46.5,39.8-87.1C1600.4,137.2,1582.4,151.4,1553.9,163.6z"/>
		<path class="st0" d="M1633.3,59.5c-2.9-7.5-10.7-13.4-26.5-8.1c0,0,13.1,12.4,7,32.1C1633.5,79.6,1635.6,65.5,1633.3,59.5z"/>
	</g>
	<polyline class="st1" points="1018,282.8 1033.5,282.8 1049.9,327.9 	"/>
	<circle class="st2" cx="1033.5" cy="282.8" r="0"/>
	<circle class="st3" cx="1033.5" cy="282.8" r="0"/>
	<line class="st4" x1="1033.5" y1="282.8" x2="1033.5" y2="282.8"/>
	<line class="st3" x1="1033.5" y1="282.8" x2="1033.5" y2="282.8"/>
	<g>
		<g>
			<path class="st5" d="M1451.2,239.7l2.2-3.1c3.5,2.4,6.6,4.6,9.3,6.8c-0.9,0.9-1.9,2.1-3,3.4
				C1457.1,244.4,1454.2,242,1451.2,239.7z M1452.9,272.2c1.9-5.6,3.7-12.3,5.4-20.2c0.8,0.4,2.2,1,4,1.6c-2,7.4-3.6,14-5,20
				L1452.9,272.2z M1453.2,226l2.6-2.8c2.3,1.8,5.3,4.3,9,7.4c-0.9,0.8-1.9,1.9-3,3.1C1458.6,230.7,1455.7,228.2,1453.2,226z
				 M1491,249.9h3.9v4.4h7.6v3.6h-7.6v9.2c0,4.1-1.9,6.2-5.8,6.2c-1.9,0-4.2,0-6.6-0.1c-0.2-1.4-0.4-2.7-0.7-4.1
				c2.1,0.2,4.1,0.4,6.1,0.4c2.2,0,3.2-1,3.2-3.1v-8.4h-17.6c-2.6,3.7-5.7,7.4-9.5,11.1c-0.9-1.1-1.8-2.2-2.8-3.1
				c5.9-5.8,10.2-11.4,13-17h-10.4v-3.6h12c0.4-0.9,1-2.6,1.7-5.3h-9.7v-3.6h10.5c0.3-1.6,0.5-3.3,0.7-5.1h-12.8v-3.6h13.2
				c0.1-1.6,0.2-3.3,0.3-5.1l4.2,0.3c-0.1,1.7-0.2,3.3-0.4,4.8h17.7v3.6H1483c-0.2,1.8-0.5,3.5-0.8,5.1h17v3.6h-17.8
				c-0.3,1.6-0.9,3.4-1.5,5.3h22.7v3.6h-24.1c-0.8,1.8-1.8,3.7-2.9,5.5h15.3V249.9z M1474.3,261.2l2.8-2.3c2.1,2.2,4.1,4.4,6,6.6
				l-3.1,2.5C1478.3,265.8,1476.4,263.5,1474.3,261.2z"/>
		</g>
		<g>
			<path class="st5" d="M1504.6,239.7l2.2-3.1c3.5,2.4,6.6,4.6,9.3,6.8c-0.9,0.9-1.9,2.1-3,3.4
				C1510.5,244.4,1507.7,242,1504.6,239.7z M1506.4,272.2c1.9-5.6,3.7-12.3,5.4-20.2c0.8,0.4,2.2,1,4,1.6c-2,7.4-3.6,14-5,20
				L1506.4,272.2z M1506.7,226l2.6-2.8c2.3,1.8,5.3,4.3,9,7.4c-0.9,0.8-1.9,1.9-3,3.1C1512,230.7,1509.2,228.2,1506.7,226z
				 M1544.4,249.9h3.9v4.4h7.6v3.6h-7.6v9.2c0,4.1-1.9,6.2-5.8,6.2c-1.9,0-4.2,0-6.6-0.1c-0.2-1.4-0.4-2.7-0.7-4.1
				c2.1,0.2,4.1,0.4,6.1,0.4c2.2,0,3.2-1,3.2-3.1v-8.4h-17.6c-2.6,3.7-5.7,7.4-9.5,11.1c-0.9-1.1-1.8-2.2-2.8-3.1
				c5.9-5.8,10.2-11.4,13-17h-10.4v-3.6h12c0.4-0.9,1-2.6,1.7-5.3h-9.7v-3.6h10.5c0.3-1.6,0.5-3.3,0.7-5.1h-12.8v-3.6h13.2
				c0.1-1.6,0.2-3.3,0.3-5.1l4.2,0.3c-0.1,1.7-0.2,3.3-0.4,4.8h17.7v3.6h-18.1c-0.2,1.8-0.5,3.5-0.8,5.1h17v3.6h-17.8
				c-0.3,1.6-0.9,3.4-1.5,5.3h22.7v3.6H1532c-0.8,1.8-1.8,3.7-2.9,5.5h15.3V249.9z M1527.8,261.2l2.8-2.3c2.1,2.2,4.1,4.4,6,6.6
				l-3.1,2.5C1531.8,265.8,1529.9,263.5,1527.8,261.2z"/>
		</g>
	</g>
	<g>
		<path d="M17.6,218v-17.3h22.3v-18.9H14.1c-1.4,0-2.1,0.9-2.1,2.7v7H0v-6.8c0-4.5,1.2-7.9,3.7-10.3c2.5-2.4,5.9-3.6,10.2-3.6H38
			c4.1,0,7.5,1.2,10.2,3.6c2.7,2.4,4,5.8,4,10.2v13.1c0,4.4-1.3,7.8-4,10.2c-2.7,2.4-6.1,3.6-10.2,3.6h-8.8v6.4H17.6z M28.9,236.8
			c-1.5,1.4-3.2,2.1-5.3,2.1c-2.1,0-3.8-0.7-5.3-2.1c-1.5-1.4-2.2-3.2-2.2-5.2s0.7-3.8,2.2-5.3c1.5-1.4,3.2-2.2,5.3-2.2
			c2.1,0,3.8,0.7,5.3,2.2c1.5,1.5,2.2,3.2,2.2,5.3S30.3,235.4,28.9,236.8z"/>
	</g>
	<text transform="matrix(1 0 0 1 159.7257 293.7469)"><tspan x="0" y="0" class="st6 st7">Born:</tspan><tspan x="0" y="43.2" class="st6 st7">Gansu province</tspan><tspan x="0" y="86.4" class="st6 st7">China</tspan></text>
	<text transform="matrix(1 0 0 1 398.9719 169.7061)" class="st6 st7">Gender: F</text>
	<text transform="matrix(1 0 0 1 468.7691 292.9013)"><tspan x="0" y="0" class="st6 st7">Lived:</tspan><tspan x="0" y="43.2" class="st6 st7">Shandong province</tspan><tspan x="0" y="86.4" class="st6 st7">China</tspan></text>
	<text transform="matrix(1 0 0 1 638.3741 169.7061)" class="st6 st7">Offspring: None</text>
	<text transform="matrix(1 0 0 1 773.196 416.5556)" class="st6 st7">Ambassador of Harmonious Zoology</text>
	<text transform="matrix(1 0 0 1 790.6393 469.8281)" class="st6 st7">Ambassador to the island of Guam</text>
	<text transform="matrix(1 0 0 1 1040.3306 168.1112)" class="st6 st7">Death: April 2, 2008</text>
	<text transform="matrix(1 0 0 1 921.2668 290.8278)" class="st6 st7">Title:</text>
	<text transform="matrix(1 0 0 1 1448.755 314.9422)" class="st6 st7">Taotao</text>
	<polyline class="st8" points="191.3,204.6 191.3,204.6 199.9,180.8 	"/>
	<polyline class="st8" points="220.3,206.2 220.3,206.2 240.2,260.9 	"/>
	<polyline class="st8" points="539.8,204.9 539.8,204.9 559.7,259.6 	"/>
	<polyline class="st8" points="784,203.6 784,203.6 792.7,179.8 	"/>
	<polyline class="st8" points="974.7,204.9 974.7,204.9 994.6,257 	"/>
	<polyline class="st9" points="1018,282.8 1033.5,282.8 1066.4,373.1 	"/>
	<polyline class="st8" points="1132,201.5 1132,201.5 1140.7,177.8 	"/>
	<polyline class="st8" points="426.6,203.6 426.6,203.6 435.2,179.8 	"/>
	<path class="st10" d="M68,204.9h1513.5H68z"/>
	<path class="st11" d="M68,204.9h1513.5H68z"/>
	<text transform="matrix(1 0 0 1 124.5973 170.7061)" class="st6 st7">Born:  1972</text>
</g>
</svg>
