<?xml version="1.0" encoding="UTF-8"?>
<svg width="752pt" height="752pt" version="1.1" viewBox="0 0 752 752" xmlns="http://www.w3.org/2000/svg">
 <defs>
  <clipPath id="a">
   <path d="m186 139.21h380v473.58h-380z"/>
  </clipPath>
 </defs>
 <g clip-path="url(#a)">
  <path d="m561.25 222.4-32.203-32.203-8.3672-8.5234-38.203-37.887c-1.4219-1.4219-3.1562-2.5273-5.0508-3.4727-1.8945-0.78906-3.9453-1.2617-6.1562-1.2617h-206.16c-8.6836 0-15.785 7.1055-15.785 15.785v15.785h-47.359c-8.6836 0-15.785 7.1055-15.785 15.785v410.59c0 8.6836 7.1055 15.785 15.785 15.785l315.72 0.003907c8.6836 0 15.785-7.1055 15.785-15.785v-47.359h16.574c8.6836 0 15.785-7.1055 15.785-15.785l0.003906-300.25c0-4.2617-1.7383-8.207-4.5781-11.207zm-74.195-29.363 4.5781 4.5781 8.207 8.3672 12.156 12.156h-25.102v-25.102zm14.84 388.18h-284.15v-378.86h31.57l0.003906 331.51c0 8.6836 7.1055 15.785 15.785 15.785h236.79zm15.785-63.145h-236.79v-347.29h174.59v63.145c0 8.6836 7.1055 15.785 15.785 15.785h62.984l0.003906 268.36zm-15.785-205.22c0 8.6836-7.1055 15.785-15.785 15.785l-157.86 0.003906c-8.6836 0-15.785-7.1055-15.785-15.785 0-8.6836 7.1055-15.785 15.785-15.785h157.86c8.6836 0 15.785 7.1055 15.785 15.785zm0 63.145c0 8.6836-7.1055 15.785-15.785 15.785l-157.86 0.003906c-8.6836 0-15.785-7.1055-15.785-15.785 0-8.6836 7.1055-15.785 15.785-15.785h157.86c8.6836 0 15.785 7.1055 15.785 15.785zm0 63.145c0 8.6836-7.1055 15.785-15.785 15.785h-157.86c-8.6836 0-15.785-7.1055-15.785-15.785 0-8.6836 7.1055-15.785 15.785-15.785h157.86c8.6836 0 15.785 7.1055 15.785 15.785z"/>
 </g>
</svg>
