<svg id="Layer_1" data-name="Layer 1" xmlns="http://www.w3.org/2000/svg" viewBox="0 0 81.78 74.72"><defs><style>.cls-1{stroke:#000;stroke-linecap:round;stroke-linejoin:round;}</style></defs><path class="cls-1" d="M42.37,39.28a.24.24,0,0,0-.07-.12,1.79,1.79,0,0,0-3,.53A47.57,47.57,0,0,1,.77,70.79a.32.32,0,0,0-.27.35L.85,74a.31.31,0,0,0,.35.27A50.55,50.55,0,0,0,26.59,63.35,52.61,52.61,0,0,0,32,58.3h0a.31.31,0,0,0,.16.41,23.12,23.12,0,0,0,17.5,0,.31.31,0,0,0,.16-.41v0a50.85,50.85,0,0,0,5.41,5.06A50.48,50.48,0,0,0,80.59,74.22a.31.31,0,0,0,.35-.27l.34-2.81a.32.32,0,0,0-.27-.35A47.63,47.63,0,0,1,42.37,39.28ZM40.89,57a19.22,19.22,0,0,1-6.32-1,.31.31,0,0,1-.15-.49,50.69,50.69,0,0,0,6.19-10,.31.31,0,0,1,.56,0,50.69,50.69,0,0,0,6.19,10,.31.31,0,0,1-.14.49A19.32,19.32,0,0,1,40.89,57Z"/><path class="cls-1" d="M23.91,52.46,26,50.59a.31.31,0,0,0,0-.44,19.52,19.52,0,1,1,29.66,0,.31.31,0,0,0,0,.44l2.12,1.87a.3.3,0,0,0,.44,0,23,23,0,1,0-34.84,0A.3.3,0,0,0,23.91,52.46Z"/><rect class="cls-1" x="39.16" y="0.5" width="3.45" height="8.36" rx="0.31"/><rect class="cls-1" x="61.87" y="13.37" width="8.36" height="3.45" rx="0.31" transform="translate(8.67 51.13) rotate(-45)"/><rect class="cls-1" x="72.3" y="38.54" width="8.36" height="3.45" rx="0.31"/><rect class="cls-1" x="14" y="10.92" width="3.45" height="8.36" rx="0.31" transform="translate(-6.07 15.54) rotate(-45)"/><rect class="cls-1" x="1.12" y="38.54" width="8.36" height="3.45" rx="0.31"/></svg>