<svg xmlns="http://www.w3.org/2000/svg" xmlns:xlink="http://www.w3.org/1999/xlink" viewBox="0 0 1080 1080"><style><![CDATA[.V{enable-background:new}.W{opacity:.5}]]></style><linearGradient id="A" gradientUnits="userSpaceOnUse" x1="11.716" y1="11.716" x2="1068.284" y2="1068.284"><stop offset="0" stop-color="#e0eafc"/><stop offset=".369" stop-color="#d8e4f8"/><stop offset="1" stop-color="#cfdef3"/></linearGradient><path d="M1040 1080H40c-22.09 0-40-17.91-40-40V40C0 17.91 17.91 0 40 0h1000c22.09 0 40 17.91 40 40v1000c0 22.09-17.91 40-40 40z" fill="url(#A)"/><linearGradient id="B" gradientUnits="userSpaceOnUse" x1="1045.936" y1="258.027" x2="34" y2="258.027"><stop offset="0" stop-color="#ff5f6d"/><stop offset=".199" stop-color="#ff796e"/><stop offset=".551" stop-color="#ffa170"/><stop offset=".83" stop-color="#ffba71"/><stop offset="1" stop-color="#ffc371"/></linearGradient><path d="M1045.936 34.425l-3.38 1.525-7.18 3.314c-2.956 1.407-6.334 3.078-9.71 4.893l-10.12 5.572c-3.372 1.797-6.743 3.43-10.113 4.6s-6.74 1.85-10.112 2.2-6.74.395-10.112.246-6.74-.48-10.113-.817-6.745-.68-10.12-.85l-10.13-.37c-3.378-.2-6.755-.6-10.13-1.572s-6.748-2.518-10.12-4.044-6.743-3.032-10.113-3.927-6.74-1.178-10.112-.78-6.74 1.48-10.112 3.316-6.74 4.424-10.113 6.483-6.745 3.588-10.12 3.304-6.753-2.38-10.13-3.223-6.755-.432-10.13 4.3-6.748 13.784-10.12 23.645-6.743 20.532-10.113 28.5-6.74 13.233-10.112 17.125-6.74 6.41-10.112 8.886-6.74 4.906-10.113 8.06-6.745 7.032-10.12 12.4-6.753 12.224-10.13 19.692-6.755 15.547-10.13 23.36l-10.12 23.17c-3.372 7.812-6.743 15.892-10.113 24.774l-10.112 27.863c-3.37 9.296-6.74 18.202-10.112 25.527s-6.74 13.068-10.113 17.3-6.745 6.983-10.12 8.304-6.753 1.22-10.13.532-6.755-1.964-10.13-2.995-6.748-1.818-10.12-2.256-6.743-.53-10.113-.168-6.74 1.173-10.112 2-6.74 1.636-10.112 2.012-6.742.31-10.113-.437-6.745-2.17-10.12-4.508-6.753-5.59-10.13-9.123l-10.13-10.82c-3.375-3.47-6.748-6.59-10.12-8.713s-6.743-3.242-10.113-2.708-6.74 2.72-10.112 5.39-6.74 5.823-10.112 8.286-6.74 4.24-10.113 5.473-6.745 1.927-10.12 2.228-6.753.21-10.13-.237-6.755-1.245-10.13-2.36-6.748-2.542-10.12-3.935-6.743-2.75-10.113-3.722-6.74-1.56-10.112-1.007-6.74 2.24-10.112 5.822-6.74 9.053-10.113 14.21-6.745 9.996-10.12 12.313-6.753 2.1-10.13 1.53-6.755-1.537-10.13-.718-6.748 3.41-10.12 6.88-6.743 7.812-10.113 12.132l-10.112 12.66c-3.37 4.043-6.74 7.83-10.112 11.132s-6.74 6.118-10.113 8.295-6.745 3.714-10.12 4.458-6.753.695-10.13.602-6.755-.23-10.13.336-6.748 1.838-10.12 3.243-6.743 2.944-10.113 4.047-6.74 1.77-10.112 2.255-6.74.787-10.112 1.16-6.74.817-10.113 1.076-6.745.335-10.12-.03-6.753-1.168-10.13-1.827-6.755-1.174-10.13-.96-6.748 1.155-10.12 2.558-6.743 3.268-10.113 5.328-6.74 4.314-10.112 6.776-6.74 5.13-10.112 8.017l-10.113 8.84c-3.372 2.848-6.745 5.437-10.12 7.29s-6.753 2.972-10.13 3.715-6.755 1.1-10.13 1.462l-10.12 1.16c-3.372.47-6.743 1.077-10.113 1.967s-6.74 2.066-10.112 3.3l-10.112 3.64c-3.37 1.118-6.74 2.066-10.113 2.848s-6.745 1.4-10.12 1.86-6.753.763-10.13 1.068-6.755.612-10.13 1.082-6.748 1.102-10.12 2.034-6.743 2.165-10.113 3.834-6.74 3.777-10.112 5.806-6.74 3.98-10.112 5.335-6.74 2.116-10.113 2.505-6.745.405-10.12.273-6.753-.415-10.13-.75l-10.13-1.062-9.7-.878-7.164-.554-3.37-.25v2.184l3.37.232 7.164.506 9.7.76 10.13.888 10.13.75c3.375.194 6.748.315 10.12.345s6.743-.033 10.113-.206 6.74-.457 10.112-.762l10.112-.887 10.113-.717c3.372-.273 6.745-.633 10.12-1.234s6.753-1.444 10.13-2.354l10.13-2.75c3.375-.866 6.748-1.623 10.12-2.315l10.113-1.924 10.112-1.785 10.112-1.846 10.113-1.97c3.372-.636 6.745-1.22 10.12-1.655s6.753-.727 10.13-1.148 6.755-.974 10.13-1.935 6.748-2.332 10.12-3.868 6.743-3.238 10.113-4.863 6.74-3.173 10.112-4.542 6.74-2.56 10.112-3.472 6.74-1.544 10.113-1.908 6.745-.458 10.12-.294 6.753.588 10.13.98 6.755.752 10.13.8 6.748-.246 10.12-.566 6.743-.676 10.113-.782 6.74.038 10.112.186 6.74.3 10.112.213 6.74-.417 10.113-.78 6.745-.764 10.12-.993 6.753-.29 10.13-.414 6.755-.315 10.13-.805 6.748-1.282 10.12-2.404 6.743-2.576 10.113-4.39 6.74-3.992 10.112-6.392 6.74-5.023 10.112-7.73 6.74-5.498 10.113-7.64 6.745-3.64 10.12-3.757 6.753 1.144 10.13 2.234 6.755 2.01 10.13 1.208 6.748-3.324 10.12-6.4 6.743-6.736 10.113-9.793 6.74-5.52 10.112-7.07 6.74-2.18 10.112-1.575 6.74 2.45 10.113 4.62 6.745 4.672 10.12 6.6 6.753 3.254 10.13 4.24 6.755 1.62 10.13 2.132 6.748.906 10.12 1.117 6.743.24 10.113.024 6.74-.674 10.112-1.068 6.74-.72 10.112-.672 6.74.474 10.113 1.168 6.745 1.658 10.12 2.784 6.753 2.414 10.13 3.76l10.13 4.1c3.375 1.354 6.748 2.66 10.12 3.763s6.743 2.008 10.113 2.558 6.74.748 10.112.908 6.74.283 10.112.685 6.74 1.08 10.113 1.872 6.745 1.693 10.12 2.54 6.753 1.636 10.13 2.28 6.755 1.144 10.13 1.41 6.748.296 10.12-.41 6.743-2.152 10.113-4.84 6.74-6.615 10.112-10.5 6.74-7.727 10.112-10.24 6.74-3.7 10.113-5.017 6.745-2.77 10.12-5.82 6.753-7.692 10.13-12.11 6.755-8.606 10.13-10.744 6.748-2.226 10.12-1.236 6.743 3.06 10.113 5.233 6.74 4.455 10.112 5.86 6.74 1.935 10.112.61 6.74-4.51 10.113-7.468 6.745-5.695 10.12-6.128 6.753 1.437 10.13 3.213 6.755 3.46 10.13 2.656 6.748-4.098 10.12-7.52 6.743-6.974 10.113-8.294 6.74-.4 10.112 1.254 6.74 4.08 10.112 5.775 6.74 2.665 10.113 2.832 6.745-.468 10.12-1.985 6.753-3.917 10.13-6.394 6.755-5.032 10.13-6.86 6.748-2.93 10.12-3.713 6.743-1.25 10.113-1.808 6.742-1.207 10.112-1.873l10.112-1.97c3.37-.622 6.74-1.185 10.113-1.676s6.745-.91 10.12-1.247 6.753-.6 9.71-.78l7.18-.402 3.38-.17" fill="url(#B)"/><linearGradient id="C" gradientUnits="userSpaceOnUse" x1="1045.936" y1="422.76" x2="34" y2="422.76"><stop offset="0" stop-color="#fc4a1a"/><stop offset=".033" stop-color="#fb561d"/><stop offset=".127" stop-color="#fa7424"/><stop offset=".232" stop-color="#f98d29"/><stop offset=".349" stop-color="#f8a02e"/><stop offset=".486" stop-color="#f7ad31"/><stop offset=".661" stop-color="#f7b532"/><stop offset="1" stop-color="#f7b733"/></linearGradient><path d="M1045.936 342.055l-3.38.17-7.18.402-9.71.78a225.36 225.36 0 0 0-10.12 1.246 271.14 271.14 0 0 0-10.113 1.674l-10.112 1.967-10.112 1.87c-3.37.557-6.74 1.023-10.113 1.806s-6.745 1.883-10.12 3.7-6.753 4.38-10.13 6.854-6.755 4.872-10.13 6.388-6.748 2.15-10.12 1.983-6.743-1.137-10.113-2.83-6.74-4.107-10.112-5.77-6.74-2.572-10.112-1.252-6.74 4.867-10.113 8.286-6.745 6.71-10.12 7.513-6.753-.878-10.13-2.653-6.755-3.643-10.13-3.2-6.748 3.166-10.12 6.122-6.743 6.135-10.113 7.46-6.74.795-10.112-.608-6.74-3.68-10.112-5.854-6.74-4.238-10.113-5.228-6.745-.9-10.12 1.235-6.753 6.32-10.13 10.733-6.755 9.05-10.13 12.096-6.748 4.496-10.12 5.813-6.743 2.5-10.113 5.012-6.74 6.35-10.112 10.23-6.74 7.806-10.112 10.5-6.74 4.128-10.113 4.834-6.745.675-10.12.41-6.753-.764-10.13-1.407-6.755-1.433-10.13-2.278l-10.12-2.536c-3.372-.8-6.743-1.47-10.113-1.87s-6.74-.524-10.112-.684-6.74-.357-10.112-.907-6.742-1.453-10.113-2.556-6.745-2.407-10.12-3.76l-10.13-4.097c-3.378-1.344-6.755-2.63-10.13-3.756s-6.748-2.087-10.12-2.78-6.743-1.118-10.113-1.167-6.74.278-10.112.67-6.74.852-10.112 1.067-6.74.186-10.113-.024-6.745-.603-10.12-1.116-6.753-1.146-10.13-2.13-6.755-2.318-10.13-4.235-6.748-4.414-10.12-6.583-6.743-4.012-10.113-4.617-6.74.027-10.112 1.574-6.74 4.008-10.112 7.062-6.74 6.7-10.113 9.783-6.745 5.602-10.12 6.403-6.753-.118-10.13-1.207-6.755-2.35-10.13-2.232-6.748 1.612-10.12 3.754-6.743 4.93-10.113 7.634-6.74 5.324-10.112 7.72-6.74 4.572-10.112 6.385-6.74 3.265-10.113 4.387-6.745 1.912-10.12 2.402-6.753.68-10.13.804l-10.13.413c-3.375.23-6.748.628-10.12.992s-6.743.692-10.113.78-6.74-.065-10.112-.213-6.74-.292-10.112-.186-6.74.462-10.113.78-6.745.603-10.12.565-6.753-.398-10.13-.79-6.755-.814-10.13-.978-6.748-.07-10.12.293-6.743.995-10.113 1.906-6.74 2.1-10.112 3.47-6.74 2.914-10.112 4.537l-10.113 4.858c-3.372 1.535-6.745 2.904-10.12 3.864s-6.753 1.512-10.13 1.933l-10.13 1.147c-3.375.436-6.748 1.02-10.12 1.654l-10.113 1.968-10.112 1.844-10.112 1.783-10.113 1.922c-3.372.69-6.745 1.447-10.12 2.313l-10.13 2.748c-3.378.908-6.755 1.75-10.13 2.35s-6.748.96-10.12 1.233l-10.113.716-10.112.886-10.112.76a168.6 168.6 0 0 1-10.113.206c-3.372-.03-6.745-.15-10.12-.344s-6.753-.46-10.13-.75l-10.13-.887-9.7-.76-8.85-.622L34 483.72v7.3l3.37.007 7.164.008 9.7-.026 10.13-.078 10.13-.037 10.12.035c3.372-.008 6.743-.058 10.113-.22s6.74-.436 10.112-.707l10.112-.69c3.37-.15 6.74-.186 10.113-.27s6.745-.218 10.12-.568 6.753-.917 10.13-1.498 6.755-1.176 10.13-1.584 6.748-.627 10.12-.845 6.743-.436 10.113-.84 6.74-.994 10.112-1.642l10.112-1.99c3.37-.635 6.74-1.2 10.113-1.595s6.745-.618 10.12-.57 6.753.364 10.13.678 6.755.622 10.13.652 6.748-.22 10.12-.62 6.743-.947 10.113-1.514l10.112-1.652c3.37-.498 6.74-.91 10.112-1.125s6.74-.237 10.113-.2l10.12.153c3.375.02 6.753-.04 10.13-.1l10.13-.043c3.375.05 6.748.193 10.12.36l10.113.504 10.112.406c3.37.157 6.74.37 10.112.738s6.74.89 10.113 1.305 6.745.72 10.12.656 6.753-.502 10.13-1.04l10.13-1.644c3.375-.468 6.748-.767 10.12-.888a93.73 93.73 0 0 1 10.113.18c3.37.244 6.74.673 10.112 1.074s6.74.773 10.112.902 6.74.014 10.113-.164l10.12-.547c3.375-.126 6.753-.137 10.13-.57s6.755-1.29 10.13-3.107 6.748-4.596 10.12-7.07 6.743-4.64 10.113-5.235 6.74.384 10.112 1.612 6.74 2.707 10.112 3.112 6.74-.262 10.113-.93 6.745-1.332 10.12-.923 6.753 1.893 10.13 3.806 6.755 4.253 10.13 6.375 6.748 4.025 10.12 5.822 6.743 3.488 10.113 5.186 6.74 3.4 10.112 4.796 6.74 2.48 10.112 2.94 6.74.294 10.113-.106 6.745-1.033 10.12-1.5 6.753-.795 10.13-1.196 6.755-.884 10.13-1.688 6.748-1.93 10.12-3.017 6.743-2.136 10.113-2.786 6.74-.903 10.112-.93 6.74.175 10.112.43l10.113.78c3.372.212 6.745.324 10.12.183s6.753-.536 10.13-1.02l10.13-1.555c3.375-.498 6.748-.92 10.12-1.865s6.743-2.408 10.113-5 6.74-6.28 10.112-9.04 6.74-4.584 10.112-3.417 6.74 5.326 10.113 9.02 6.745 6.93 10.12 6.246 6.753-5.282 10.13-10.438 6.755-10.868 10.13-13.778 6.748-3.017 10.12-1.616 6.743 4.31 10.113 7.435 6.74 6.462 10.112 9.893l10.112 10.446c3.37 3.493 6.74 6.956 10.113 9.9s6.745 5.337 10.12 6.71 6.753 1.718 10.13 1.513 6.755-.96 10.13-1.784l10.12-2.495c3.372-.777 6.743-1.438 10.113-1.798a57.49 57.49 0 0 1 10.112-.184c3.37.235 6.74.762 10.112 1.574s6.74 1.91 10.113 2.982 6.745 2.12 10.12 2.837 6.753 1.1 10.13 1.455 6.755.685 10.13 1.293 6.748 1.495 10.12 2.294 6.743 1.5 10.113 1.767 6.742.058 10.112-.378 6.74-1.108 10.112-1.8l10.113-2.1 10.12-1.962 9.71-1.603 7.18-1.056 3.38-.483" fill="url(#C)"/><linearGradient id="D" gradientUnits="userSpaceOnUse" x1="34" y1="508.213" x2="1045.936" y2="508.213"><stop offset="0" stop-color="#94bf69" stop-opacity=".3"/><stop offset="1" stop-color="#94bf69"/></linearGradient><path d="M1045.936 499.236l-3.38.48-7.18 1.052-9.71 1.596-10.12 1.953-10.113 2.08c-3.37.688-6.74 1.358-10.112 1.792s-6.74.632-10.112.376-6.74-.963-10.113-1.76-6.745-1.68-10.12-2.285-6.753-.933-10.13-1.288-6.755-.736-10.13-1.45-6.748-1.757-10.12-2.825-6.743-2.16-10.113-2.97-6.74-1.334-10.112-1.568-6.74-.175-10.112.183-6.74 1.017-10.113 1.79-6.745 1.664-10.12 2.484-6.753 1.572-10.13 1.777-6.755-.138-10.13-1.506-6.748-3.762-10.12-6.683-6.743-6.37-10.113-9.848l-10.112-10.402c-3.37-3.416-6.74-6.74-10.112-9.85s-6.74-6.01-10.113-7.404-6.745-1.29-10.12 1.61-6.753 8.587-10.13 13.72-6.755 9.714-10.13 10.395-6.748-2.54-10.12-6.22-6.743-7.82-10.113-8.984-6.74.653-10.112 3.403-6.74 6.432-10.112 9.002-6.74 4.03-10.113 4.97-6.745 1.36-10.12 1.857l-10.13 1.55c-3.378.482-6.755.875-10.13 1.016s-6.748.03-10.12-.182l-10.113-.775c-3.37-.255-6.74-.455-10.112-.43s-6.74.277-10.112.925-6.742 1.692-10.113 2.775-6.745 2.203-10.12 3.004-6.753 1.282-10.13 1.68l-10.13 1.19c-3.375.474-6.748 1.105-10.12 1.503s-6.743.563-10.113.105-6.74-1.538-10.112-2.927-6.74-3.085-10.112-4.776l-10.113-5.164c-3.372-1.8-6.745-3.685-10.12-5.798s-6.753-4.444-10.13-6.348-6.755-3.382-10.13-3.8-6.748.255-10.12.92-6.743 1.33-10.113.925-6.74-1.876-10.112-3.1-6.74-2.197-10.112-1.605-6.74 2.75-10.113 5.213-6.745 5.23-10.12 7.04-6.753 2.662-10.13 3.094-6.755.442-10.13.568-6.748.367-10.12.545-6.743.292-10.113.164-6.74-.5-10.112-.898-6.74-.827-10.112-1.07-6.74-.3-10.113-.18a99.82 99.82 0 0 0-10.12.884c-3.375.467-6.753 1.102-10.13 1.638s-6.755.97-10.13 1.035-6.748-.24-10.12-.653l-10.113-1.3c-3.37-.366-6.74-.578-10.112-.735l-10.112-.404-10.113-.502-10.12-.358c-3.375-.05-6.753-.007-10.13.043l-10.13.09-10.12-.152c-3.372-.037-6.743-.016-10.113.2s-6.74.624-10.112 1.12-6.74 1.08-10.112 1.645-6.74 1.1-10.113 1.508-6.745.646-10.12.616-6.753-.337-10.13-.65-6.755-.628-10.13-.675-6.748.176-10.12.57-6.743.955-10.113 1.588l-10.112 1.98c-3.37.645-6.74 1.233-10.112 1.635s-6.74.62-10.113.837-6.745.436-10.12.842-6.753.998-10.13 1.577-6.755 1.143-10.13 1.492-6.748.482-10.12.566l-10.113.27c-3.37.15-6.74.418-10.112.688l-10.112.704c-3.37.16-6.74.21-10.113.22s-6.745-.027-10.12-.035-6.753.01-10.13.037l-10.13.077-9.7.026c-2.95 0-5.48-.005-7.164-.008l-1.685-.004-1.685-.004v9.602l3.37-.147 7.164-.41c2.95-.226 6.324-.567 9.7-1.102s6.753-1.265 10.13-1.948 6.755-1.318 10.13-1.665 6.748-.405 10.12-.39l10.113.044c3.37-.057 6.74-.258 10.112-.488l10.112-.665a164.65 164.65 0 0 1 10.113-.233c3.372.032 6.745.187 10.12.503s6.753.79 10.13 1.35 6.755 1.197 10.13 1.84l10.12 1.813c3.372.526 6.743.932 10.113 1.097s6.74.09 10.112-.093 6.74-.47 10.112-.725 6.74-.483 10.113-.598 6.745-.12 10.12.067 6.753.564 10.13 1.057 6.755 1.1 10.13 1.747 6.748 1.332 10.12 2.126 6.743 1.695 10.113 2.774 6.74 2.335 10.112 3.55 6.74 2.39 10.112 3.3a78.71 78.71 0 0 0 10.113 2.037c3.372.458 6.745.714 10.12.82s6.753.067 10.13.01l10.13-.086c3.375.043 6.748.202 10.12.372l10.113.44c3.37.088 6.74.083 10.112-.128s6.74-.628 10.112-1.364 6.74-1.8 10.113-2.817 6.745-2.025 10.12-2.65 6.753-.875 10.13-.86 6.755.292 10.13.723 6.748 1.017 10.12 1.772 6.743 1.68 10.113 2.79 6.74 2.406 10.112 3.803 6.74 2.897 10.112 4.415 6.74 3.054 10.113 4.238 6.745 2.016 10.12 2.125 6.753-.505 10.13-1.776 6.755-3.202 10.13-5.726 6.748-5.642 10.12-8.373 6.743-5.077 10.113-6.056 6.74-.59 10.112.314 6.74 2.33 10.112 3.422 6.74 1.857 10.113 2.388 6.745.83 10.12.995 6.753.196 10.13.308 6.755.305 10.13.794 6.748 1.273 10.12 2.35 6.743 2.45 10.113 4.114 6.74 3.62 10.112 5.452 6.74 3.544 10.112 4.72 6.74 1.813 10.113 1.874 6.745-.457 10.12-1.594 6.753-2.895 10.13-4.93 6.755-4.35 10.13-6.598 6.748-4.433 10.12-6.352 6.743-3.572 10.113-4.758 6.74-1.906 10.112-2.387 6.74-.725 10.112-.96l10.113-.657 10.12-.475 10.13-.3c3.378-.126 6.755-.316 10.13-.687s6.748-.923 10.12-2.018a33.95 33.95 0 0 0 10.113-5.274c3.37-2.542 6.74-5.99 10.112-8.323s6.74-3.556 10.112-1.647 6.74 6.948 10.113 11.548 6.745 8.762 10.12 8.915 6.753-3.7 10.13-8.318 6.755-9.996 10.13-12.893 6.748-3.3 10.12-2.14 6.743 3.927 10.113 7.37 6.74 7.572 10.112 12.144 6.74 9.586 10.112 14.8 6.74 10.624 10.113 15.21 6.745 8.35 10.12 10.266 6.753 1.985 10.13 1.446 6.755-1.687 10.13-2.206 6.748-.408 10.12-.015 6.743 1.07 10.113 1.683l10.112 1.71 10.112 1.7 10.113 1.85c3.372.578 6.745 1.067 10.12 1.32s6.753.27 10.13.367 6.755.278 10.13.86 6.748 1.562 10.12 2.463 6.743 1.72 10.113 1.98 6.742-.045 10.112-.832 6.74-2.058 10.112-3.734 6.74-3.758 10.113-5.415 6.745-2.89 10.12-2.87 6.753 1.294 9.71 2.88 5.49 3.48 7.18 4.744l3.38 2.527" fill="url(#D)"/><linearGradient id="E" gradientUnits="userSpaceOnUse" x1="34" y1="575.626" x2="1045.936" y2="575.626"><stop offset="0" stop-color="#459957" stop-opacity=".3"/><stop offset="1" stop-color="#459957"/></linearGradient><path d="M1045.936 569.934l-3.38-2.54c-1.7-1.27-4.225-3.176-7.18-4.768s-6.334-2.873-9.71-2.893-6.748 1.22-10.12 2.886-6.743 3.758-10.113 5.443-6.74 2.962-10.112 3.753-6.74 1.096-10.112.837-6.74-1.084-10.113-1.99-6.745-1.892-10.12-2.475-6.753-.765-10.13-.863-6.755-.115-10.13-.37-6.748-.746-10.12-1.327l-10.113-1.86-20.224-3.43c-3.37-.616-6.74-1.296-10.113-1.69s-6.745-.506-10.12.015-6.753 1.676-10.13 2.218-6.755.472-10.13-1.453-6.748-5.708-10.12-10.318-6.743-10.05-10.113-15.29-6.74-10.28-10.112-14.875-6.74-8.746-10.112-12.206-6.74-6.23-10.113-7.408-6.745-.762-10.12 2.15-6.753 8.318-10.13 12.96-6.755 8.515-10.13 8.36-6.748-4.337-10.12-8.96-6.743-9.69-10.113-11.607-6.74-.69-10.112 1.655-6.74 5.81-10.112 8.366a33.89 33.89 0 0 1-10.113 5.302c-3.372 1.1-6.745 1.655-10.12 2.028s-6.753.564-10.13.69l-10.13.303-10.12.478-10.113.66c-3.37.236-6.74.48-10.112.965s-6.74 1.207-10.112 2.4-6.742 2.854-10.113 4.783-6.745 4.125-10.12 6.385-6.753 4.586-10.13 6.63-6.755 3.812-10.13 4.956-6.748 1.663-10.12 1.602-6.743-.703-10.113-1.884-6.74-2.9-10.112-4.743-6.74-3.808-10.112-5.48-6.74-3.05-10.113-4.135-6.745-1.872-10.12-2.364-6.753-.685-10.13-.798l-10.13-.3c-3.375-.166-6.748-.466-10.12-1s-6.743-1.3-10.113-2.4-6.74-2.53-10.112-3.44-6.74-1.3-10.112-.316-6.74 3.34-10.113 6.087-6.745 5.88-10.12 8.416-6.753 4.477-10.13 5.756-6.755 1.895-10.13 1.786-6.748-.946-10.12-2.136-6.743-2.734-10.113-4.26l-10.112-4.438c-3.37-1.405-6.74-2.707-10.112-3.823s-6.74-2.045-10.113-2.804a109.83 109.83 0 0 0-10.12-1.781c-3.375-.434-6.753-.713-10.13-.727s-6.755.238-10.13.865-6.748 1.632-10.12 2.663-6.743 2.092-10.113 2.83-6.74 1.16-10.112 1.37-6.74.217-10.112.13-6.74-.27-10.113-.442l-10.12-.374c-3.375-.043-6.753.03-10.13.086s-6.755.097-10.13-.01-6.748-.365-10.12-.826-6.743-1.125-10.113-2.048-6.74-2.105-10.112-3.327l-10.112-3.57c-3.37-1.084-6.74-1.99-10.113-2.788s-6.745-1.487-10.12-2.137-6.753-1.26-10.13-1.756-6.755-.875-10.13-1.062-6.748-.183-10.12-.067-6.743.343-10.113.6l-10.112.73c-3.37.183-6.74.26-10.112.093s-6.74-.574-10.113-1.103-6.745-1.177-10.12-1.822l-10.13-1.85c-3.378-.56-6.755-1.04-10.13-1.356a120.54 120.54 0 0 0-10.12-.505c-3.372-.033-6.743.058-10.113.234l-10.112.668c-3.37.23-6.74.433-10.112.5s-6.74-.03-10.113-.044-6.745.045-10.12.393-6.753.988-10.13 1.674-6.755 1.42-10.13 1.958-6.748.88-9.7 1.108-5.48.338-7.164.41l-3.37.148 3.37-.13 7.164-.367c2.95-.206 6.324-.52 9.7-1.02s6.753-1.186 10.13-1.83 6.755-1.248 10.13-1.582 6.748-.4 10.12-.4l10.113-.013c3.37-.075 6.74-.3 10.112-.53l10.112-.673c3.37-.172 6.74-.253 10.113-.18s6.745.297 10.12.736 6.753 1.094 10.13 1.826l10.13 2.298c3.375.754 6.748 1.45 10.12 2.004s6.743.965 10.113 1.148 6.74.138 10.112-.001 6.74-.372 10.112-.563 6.74-.343 10.113-.404 6.745-.034 10.12.132a118.53 118.53 0 0 1 10.131.927 110.14 110.14 0 0 1 10.131 1.856c3.375.784 6.748 1.74 10.12 2.793s6.743 2.202 10.113 3.373l10.112 3.483c3.37 1.12 6.74 2.164 10.112 3.04a111.46 111.46 0 0 0 10.113 2.129c3.372.55 6.745.94 10.12 1.2s6.753.355 10.13.4l10.13.11 10.12.22 10.113.117 10.112-.1c3.37.004 6.74.107 10.112.487s6.74 1.037 10.113 1.424 6.745.503 10.12-.197 6.753-2.22 10.13-3.747 6.755-3.067 10.13-3.81 6.748-.688 10.12-.053 6.743 1.85 10.113 3.427 6.74 3.52 10.112 5.555l10.112 6.11c3.37 1.948 6.74 3.717 10.113 5.03s6.745 2.168 10.12 2.29 6.753-.493 10.13-1.664 6.755-2.9 10.13-5.01 6.748-4.598 10.12-6.75 6.743-3.963 10.113-4.72 6.74-.454 10.112.336 6.74 2.068 10.112 3.265 6.74 2.315 10.113 3.25 6.745 1.69 10.12 2.158 6.753.654 10.13.834 6.755.354 10.13.8 6.748 1.167 10.12 2.278 6.743 2.613 10.113 4.624 6.74 4.53 10.112 6.968 6.74 4.79 10.112 6.465 6.74 2.675 10.113 3.057 6.745.146 10.12-.648 6.753-2.146 10.13-3.832 6.755-3.706 10.13-5.836l10.12-6.354c3.372-1.984 6.743-3.71 10.113-4.814s6.74-1.584 10.112-1.757 6.74-.04 10.112.086l10.113.246c3.372.004 6.745-.104 10.12-.428s6.753-.863 10.13-1.43l10.13-1.602c3.375-.438 6.748-.717 10.12-1.11s6.743-.904 10.113-1.804 6.74-2.19 10.112-2.597 6.74.064 10.112 2.687 6.74 7.398 10.113 11.573 6.745 7.75 10.12 7.973 6.753-2.904 10.13-6.67 6.755-8.174 10.13-10.508 6.748-2.596 10.12-1.315 6.743 4.106 10.113 7.945 6.74 8.692 10.112 14.065 6.74 11.267 10.112 17.186 6.74 11.864 10.113 17.185 6.745 10.018 10.12 13.442 6.753 5.573 10.13 7.82 6.755 4.592 10.13 8.404 6.748 9.094 10.12 13.9 6.743 9.14 10.113 11.057 6.74 1.417 10.112.023 6.74-3.682 10.112-5.343 6.74-2.693 10.113-3.408 6.745-1.11 10.12-1.498 6.753-.766 10.13-.83 6.755.187 10.13 1.06 6.748 2.364 10.12 3.912 6.743 3.153 10.113 4.25 6.742 1.684 10.112 1.744a32.86 32.86 0 0 0 10.112-1.422c3.37-1.014 6.74-2.576 10.113-4.13s6.745-3.105 10.12-4.095 6.753-1.42 9.71-1.588 5.49-.07 7.18-.007l3.38.128" fill="url(#E)"/><linearGradient id="F" gradientUnits="userSpaceOnUse" x1="34" y1="603.635" x2="1045.936" y2="603.635"><stop offset="0" stop-color="#69bfbf" stop-opacity=".3"/><stop offset="1" stop-color="#69bfbf"/></linearGradient><path d="M1045.936 648.416l-3.38-.128c-1.7-.064-4.225-.16-7.18.007s-6.334.598-9.71 1.587-6.748 2.538-10.12 4.092-6.743 3.115-10.113 4.128-6.74 1.48-10.112 1.42-6.74-.648-10.112-1.743-6.74-2.7-10.113-4.246-6.745-3.038-10.12-3.91-6.753-1.122-10.13-1.058-6.755.442-10.13.83-6.748.783-10.12 1.497-6.743 1.746-10.113 3.405-6.74 3.946-10.112 5.34-6.74 1.892-10.112-.023-6.74-6.245-10.113-11.05-6.745-10.08-10.12-13.89-6.753-6.153-10.13-8.398-6.755-4.394-10.13-7.815-6.748-8.115-10.12-13.432-6.743-11.258-10.113-17.173l-10.112-17.173c-3.37-5.37-6.74-10.22-10.112-14.055s-6.74-6.66-10.113-7.94-6.745-1.02-10.12 1.314-6.753 6.736-10.13 10.5-6.755 6.9-10.13 6.667-6.748-3.795-10.12-7.967-6.743-8.943-10.113-11.564-6.74-3.093-10.112-2.685-6.74 1.697-10.112 2.595-6.74 1.408-10.113 1.803l-10.12 1.1c-3.375.437-6.753 1.033-10.13 1.6s-6.755 1.107-10.13 1.43-6.748.432-10.12.427-6.743-.12-10.113-.245-6.74-.26-10.112-.086-6.74.653-10.112 1.756-6.742 2.83-10.113 4.81-6.745 4.22-10.12 6.35-6.753 4.147-10.13 5.832-6.755 3.036-10.13 3.83-6.748 1.03-10.12.647-6.743-1.38-10.113-3.055-6.74-4.026-10.112-6.46-6.74-4.953-10.112-6.963a50.46 50.46 0 0 0-10.113-4.621c-3.372-1.1-6.745-1.83-10.12-2.276s-6.753-.62-10.13-.8-6.755-.364-10.13-.833-6.748-1.22-10.12-2.156-6.743-2.05-10.113-3.248-6.74-2.474-10.112-3.263-6.74-1.1-10.112-.335-6.74 2.566-10.113 4.715-6.745 4.636-10.12 6.744-6.753 3.835-10.13 5.005-6.755 1.784-10.13 1.663-6.748-.976-10.12-2.287-6.743-3.08-10.113-5.026-6.74-4.072-10.112-6.105-6.74-3.973-10.112-5.55-6.74-2.79-10.113-3.425-6.745-.688-10.12.053-6.753 2.28-10.13 3.806-6.755 3.044-10.13 3.744-6.748.584-10.12.197-6.743-1.043-10.113-1.423-6.74-.483-10.112-.487-6.74.092-10.112.1-6.74-.04-10.113-.117l-10.12-.22-10.13-.11c-3.378-.056-6.755-.16-10.13-.4s-6.748-.64-10.12-1.19-6.743-1.253-10.113-2.128-6.74-1.92-10.112-3.037l-10.112-3.48-10.113-3.37c-3.372-1.052-6.745-2.007-10.12-2.79s-6.753-1.396-10.13-1.854a118.6 118.6 0 0 0-10.131-.927c-3.375-.166-6.748-.193-10.12-.132s-6.743.212-10.113.404l-10.112.563c-3.37.14-6.74.184-10.112.001s-6.74-.593-10.113-1.147-6.745-1.25-10.12-2.003l-10.13-2.297c-3.378-.732-6.755-1.386-10.13-1.825s-6.748-.664-10.12-.736-6.743.01-10.113.18-6.74.434-10.112.673-6.74.453-10.112.528-6.74.012-10.113.013-6.745.067-10.12.4-6.753.937-10.13 1.58-6.755 1.33-10.13 1.83-6.748.815-9.7 1.02a220.88 220.88 0 0 1-7.164.367l-3.37.13v2.655l3.37-.005 7.164.07c2.95.075 6.324.23 9.7.545s6.753.79 10.13 1.24 6.755.877 10.13 1.095 6.748.23 10.12.19l10.113-.115c3.37.016 6.74.138 10.112.357s6.74.535 10.112.94 6.74.895 10.113 1.396l10.12 1.453c3.375.442 6.753.815 10.13 1.017s6.755.233 10.13-.01 6.748-.76 10.12-1.1 6.743-.5 10.113-.034 6.74 1.563 10.112 2.777 6.74 2.546 10.112 3.486 6.74 1.488 10.113 1.762 6.745.273 10.12.115l10.13-.585c3.378-.112 6.755-.023 10.13.627s6.748 1.86 10.12 3.382 6.743 3.35 10.113 5.238 6.74 3.833 10.112 5.547 6.74 3.195 10.112 4.153 6.74 1.395 10.113 1.532 6.745-.026 10.12-.266l10.13-.74c3.378-.183 6.755-.232 10.13.063s6.748.936 10.12 1.566 6.743 1.25 10.113 1.506 6.74.146 10.112.106 6.74-.01 10.112.522 6.74 1.57 10.113 2.824 6.745 2.728 10.12 4.135 6.753 2.747 10.13 3.985 6.755 2.372 10.13 3.366l10.12 2.933c3.372 1.083 6.743 2.396 10.113 4.305s6.74 4.416 10.112 7.268 6.74 6.05 10.112 9.338 6.74 6.67 10.113 9.262 6.745 4.393 10.12 4.52 6.753-1.417 10.13-3.563 6.755-4.892 10.13-7.165 6.748-4.075 10.12-5.147 6.743-1.415 10.113-.77 6.74 2.273 10.112 4.132 6.74 3.947 10.112 5.507 6.74 2.592 10.113 2.897 6.745-.115 10.12-1.46 6.753-3.615 10.13-6.117 6.755-5.235 10.13-7.508 6.748-4.085 10.12-5.278 6.743-1.768 10.113-1.567 6.74 1.18 10.112 2.253 6.74 2.244 10.112 2.83 6.74.588 10.113.048 6.745-1.62 10.12-3.2 6.753-3.66 10.13-5.684 6.755-3.99 10.13-5.348 6.748-2.1 10.12-2.557 6.743-.624 10.113-.827l10.112-.666 10.112-.605 10.113-.476c3.372-.207 6.745-.514 10.12-1.075s6.753-1.377 10.13-2.262l10.13-2.672c3.375-.835 6.748-1.553 10.12-2.18s6.743-1.167 10.113-1.644 6.74-.893 10.112-.558 6.74 1.422 10.112 3.95 6.74 6.497 10.113 9.736 6.745 5.75 10.12 5.358 6.753-3.683 10.13-7.356 6.755-7.728 10.13-9.644 6.748-1.694 10.12.2 6.743 5.492 10.113 10.307 6.74 10.858 10.112 17.53 6.74 13.972 10.112 21.302 6.74 14.69 10.113 21.21 6.745 12.195 10.12 16.16 6.753 6.213 10.13 8.217 6.755 3.762 10.13 6.74 6.748 7.18 10.12 10.928 6.743 7.04 10.113 8.203 6.74.195 10.112-1.56 6.74-4.298 10.112-6.286 6.74-3.42 10.113-4.24 6.745-1.027 10.12-.563 6.753 1.597 10.13 2.677 6.755 2.107 10.13 2.356 6.748-.28 10.12-1.005 6.743-1.647 10.113-2.186 6.742-.693 10.112-.975 6.74-.69 10.112-1.738 6.74-2.733 10.113-4.242 6.745-2.84 10.12-3.182 6.753.31 9.71 1.25 5.49 2.172 7.18 2.993l3.38 1.642" fill="url(#F)"/><linearGradient id="G" gradientUnits="userSpaceOnUse" x1="34" y1="634.968" x2="1045.936" y2="634.968"><stop offset="0" stop-color="#36ccff" stop-opacity=".1"/><stop offset="1" stop-color="#36ccff"/></linearGradient><path d="M34 534.616l3.37-.13c3.37-.13 10.112-.393 16.863.152s13.51 1.897 20.26 2.35 13.492.008 20.234.724 13.483 2.596 20.224 3.697 13.483 1.423 20.234 1.593 13.51.186 20.26-.443 13.492-1.904 20.234-.54 13.483 5.364 20.224 7.9 13.483 3.577 20.234 3 13.51-2.752 20.26-1.3 13.492 6.514 20.234 10.726 13.483 7.563 20.224 9.988 13.483 3.922 20.234 3.424 13.51-2.993 20.26-3.678 13.492.44 20.234.527 13.483-.868 20.224.374 13.483 4.677 20.234 7.894 13.51 6.215 20.26 8.69 13.492 4.427 20.234 8.28 13.483 9.607 20.224 16.277 13.483 14.255 20.234 15.393 13.51-4.172 20.26 5.868 13.492 35.43 20.234 43.542 13.483-1.053 20.224-9.308 13.483-15.598 20.234-20.945 13.51-8.696 20.26-10.854 13.492-3.122 20.234-3.982 13.483-1.612 20.224-3.834 13.483-5.913 20.234-9.26 13.51-6.353 20.26-7.62 13.492-.8 20.234-2.014 13.483-4.115 20.224-5.118 13.483-.108 20.234.027 13.51-.49 20.26 1.2 13.492 5.72 20.234 18.5 13.483 34.348 20.224 41.33 13.483-.617 20.234 10.262 13.51 40.234 20.26 52.45 13.492 7.294 20.233-1.98 13.483-22.9 20.224-20.675 13.483 20.298 20.234 20.04 13.51-18.853 20.26-21.02 13.492 12.088 20.234 16.363 13.483-1.43 20.224-6.697 13.483-10.098 20.234-10.15 13.51 4.674 20.26 2.352 13.492-11.69 20.234-16.4 13.483-4.786 20.224-4.86 13.483-.157 20.234-.836 13.51-1.955 16.9-2.594l3.38-.638v-2.928l-3.38-1.64c-3.38-1.64-10.14-4.923-16.9-4.24s-13.492 5.327-20.234 7.42-13.483 1.635-20.224 2.712-13.483 3.687-20.234 3.19-13.5-4.104-20.26-5.03-13.492.828-20.234 4.802-13.483 10.168-20.224 7.844-13.483-13.166-20.234-19.123-13.51-7.03-20.26-14.952-13.492-22.698-20.234-37.352-13.483-29.19-20.224-38.815-13.483-14.344-20.233-10.513-13.51 16.21-20.26 16.993-13.492-10.034-20.234-15.088-13.483-4.344-20.224-3.4-13.483 2.154-20.234 3.823-13.51 3.8-20.26 4.932-13.492 1.227-20.234 1.55l-20.224 1.27c-6.742.405-13.483.67-20.234 3.383s-13.51 7.867-20.26 11.027-13.492 4.323-20.234 3.152-13.483-4.677-20.224-5.08-13.483 2.298-20.234 6.842-13.51 10.93-20.26 13.62-13.492 1.682-20.234-1.436-13.483-8.35-20.224-9.635-13.483 1.37-20.234 5.916-13.51 10.98-20.26 10.724-13.492-7.2-20.234-13.777-13.483-12.782-20.224-16.6-13.483-5.247-20.234-7.235-13.51-4.535-20.26-7.348-13.492-5.89-20.234-6.956-13.483-.117-20.224-.627-13.483-2.48-20.234-3.07-13.51.196-20.26.676-13.492.65-20.234-1.266-13.483-5.922-20.224-9.696-13.483-7.316-20.234-8.616-13.51-.358-20.26-.043-13.492.003-20.234-1.876-13.483-5.326-20.224-6.26-13.483.646-20.234 1.132-13.51-.123-20.26-1.006l-20.234-2.85c-6.74-.807-13.483-1.264-20.224-1.295s-13.483.363-20.234-.074-13.51-1.705-20.26-2.333-13.492-.62-16.863-.615l-3.37.006v1.7z" fill="url(#G)"/><linearGradient id="H" gradientUnits="userSpaceOnUse" x1="34" y1="671.048" x2="1045.936" y2="671.048"><stop offset="0" stop-color="#9469bf" stop-opacity=".1"/><stop offset="1" stop-color="#9469bf"/></linearGradient><path d="M1045.936 686.482l-3.38.64-7.18 1.286-9.71 1.316c-3.375.34-6.748.532-10.12.647s-6.743.155-10.113.192-6.74.073-10.112.69-6.74 1.818-10.112 4.185-6.74 5.9-10.113 9.133-6.745 6.165-10.12 7.33-6.753.562-10.13-.326-6.755-2.06-10.13-2.034-6.748 1.25-10.12 3.13-6.743 4.41-10.113 7.054-6.74 5.394-10.112 6.95-6.74 1.914-10.112-.23-6.74-6.793-10.113-10.633-6.745-6.872-10.12-5.784-6.753 6.295-10.13 11.263-6.755 9.697-10.13 9.827-6.748-4.338-10.12-9.117-6.743-9.87-10.113-10.986-6.74 1.744-10.112 6.045-6.74 10.045-10.112 14.697-6.74 8.213-10.113 9.08-6.745-.964-10.12-7.092-6.753-16.555-10.13-26.814-6.755-20.35-10.13-25.808-6.748-6.28-10.12-6.614-6.743-.18-10.113-3.68-6.74-10.66-10.112-18.546-6.74-16.502-10.112-22.917-6.74-10.632-10.113-13.458-6.745-4.26-10.12-5.112-6.753-1.122-10.13-1.195-6.755.05-10.13-.02-6.748-.326-10.12-.442-6.743-.09-10.113.414-6.74 1.482-10.112 2.487-6.74 2.038-10.112 2.647-6.742.797-10.113 1-6.745.394-10.12 1.03-6.753 1.708-10.13 3.04-6.755 2.926-10.13 4.605l-10.12 5.07c-3.372 1.624-6.743 3.107-10.113 4.222s-6.74 1.86-10.112 2.436-6.74.98-10.112 1.4-6.74.888-10.113 1.51-6.745 1.403-10.12 2.486-6.753 2.463-10.13 4.245-6.755 3.962-10.13 6.644-6.748 5.865-10.12 9.413-6.743 7.46-10.113 11.6-6.74 8.5-10.112 10.827-6.74 2.58-10.112-1.488-6.74-12.472-10.113-21.117-6.745-17.53-10.12-22.567-6.753-6.223-10.13-6.293-6.755.976-10.13.406-6.748-2.76-10.12-5.64-6.743-6.457-10.113-9.803-6.74-6.462-10.112-9.225-6.74-5.173-10.112-7.105-6.74-3.39-10.113-4.672-6.745-2.393-10.12-3.635-6.753-2.614-10.13-4.08-6.755-3.024-10.13-4.638-6.748-3.282-10.12-4.703-6.743-2.594-10.113-3.216-6.74-.695-10.112-.622-6.74.3-10.112.247-6.74-.347-10.113-.554-6.745-.318-10.12.026-6.753 1.14-10.13 1.915-6.755 1.525-10.13 1.775-6.748 0-10.12-.618-6.743-1.6-10.113-2.817-6.74-2.665-10.112-4.338a117.01 117.01 0 0 1-10.112-5.682c-3.37-2.113-6.74-4.44-10.113-6.422s-6.745-3.615-10.12-4.34-6.753-.538-10.13-.1-6.755 1.13-10.13 1.413-6.748.163-10.12-.346-6.743-1.407-10.113-2.674-6.74-2.904-10.112-4.395-6.74-2.837-10.112-3.52-6.74-.706-10.113-.478-6.745.705-10.12 1.02-6.753.47-10.13.523-6.755.007-10.13-.078-6.748-.208-10.12-.45-6.743-.597-10.113-1.15-6.74-1.3-10.112-2-6.74-1.35-10.112-1.7-6.74-.428-10.113-.463-6.745-.037-10.12-.264-6.753-.68-10.13-1.145-6.755-.94-10.13-1.214-6.748-.344-9.7-.33-5.48.112-7.164.178l-1.685.066 1.685-.066 7.164-.178c2.95-.014 6.324.057 9.7.33s6.753.75 10.13 1.214 6.755.917 10.13 1.145 6.748.23 10.12.283 6.743.16 10.113.593 6.74 1.197 10.112 2 6.74 1.65 10.112 2.247 6.74.948 10.113 1.168 6.745.31 10.12.384l10.13.1c3.378-.036 6.755-.17 10.13-.484s6.748-.81 10.12-1.047 6.743-.22 10.113.495 6.74 2.122 10.112 3.674 6.74 3.25 10.112 4.54 6.74 2.175 10.113 2.654a42.35 42.35 0 0 0 10.12.222c3.375-.33 6.753-1.065 10.13-1.53s6.755-.66 10.13.086 6.748 2.438 10.12 4.504 6.743 4.51 10.113 6.76 6.74 4.312 10.112 6.155 6.74 3.47 10.112 4.85 6.74 2.52 10.113 3.25 6.745 1.056 10.12.81 6.753-1.06 10.13-1.916 6.755-1.755 10.13-2.168 6.748-.34 10.12-.15 6.743.5 10.113.557 6.74-.133 10.112-.167 6.74.088 10.112.774 6.74 1.936 10.113 3.447 6.745 3.286 10.12 5.02l10.13 5.033c3.378 1.603 6.755 3.112 10.13 4.474l10.12 3.926c3.372 1.35 6.743 2.833 10.113 4.733s6.74 4.217 10.112 6.906 6.74 5.752 10.112 9.144 6.74 7.113 10.113 10.175 6.745 5.462 10.12 6.213 6.753-.148 10.13.087 6.755 1.6 10.13 6.883 6.748 14.48 10.12 23.65 6.743 18.3 10.113 23.478 6.74 6.363 10.112 5.426 6.74-4.004 10.112-7.362 6.74-7.006 10.113-10.474 6.745-6.758 10.12-9.398 6.753-4.632 10.13-6.327 6.755-3.092 10.13-4.544l10.12-4.27c3.372-1.313 6.743-2.43 10.113-3.108s6.74-.9 10.112-1.274 6.74-.856 10.112-2.05 6.74-3.09 10.113-5.226 6.745-4.516 10.12-6.677 6.753-4.105 10.13-5.642 6.755-2.667 10.13-3.2 6.748-.472 10.12.06 6.743 1.532 10.113 2.875 6.74 3.028 10.112 4.28 6.74 2.073 10.112 1.686 6.74-1.982 10.113-3.89 6.745-4.13 10.12-5.774 6.753-2.705 10.13-3.02a21.48 21.48 0 0 1 10.131 1.474c3.375 1.353 6.748 3.623 10.12 7.523s6.743 9.427 10.113 17.294 6.74 18.074 10.112 27.54 6.74 18.193 10.112 23.1 6.74 5.994 10.113 7.743 6.745 4.158 10.12 11.7 6.753 20.246 10.13 32.78 6.755 24.908 10.13 31.82 6.748 8.36 10.12 6.8 6.743-6.13 10.113-11.258 6.74-10.81 10.112-14.597 6.74-5.672 10.112-3.205 6.74 9.3 10.113 15.747 6.745 12.55 10.12 13.556 6.753-3.07 10.13-7.517 6.755-9.264 10.13-9.737 6.748 3.398 10.12 7.986 6.743 9.892 10.113 12.284 6.74 1.873 10.112-.083 6.74-5.348 10.112-8.7 6.74-6.668 10.113-8.98 6.745-3.623 10.12-2.97 6.753 3.274 10.13 6.188 6.755 6.123 10.13 7.956 6.748 2.29 10.12 2.063 6.743-1.136 10.113-2.035 6.742-1.79 10.112-2.257 6.74-.513 10.112.276 6.74 2.413 10.113 4.278 6.745 3.97 10.12 5.725 6.753 3.155 9.71 4.25 5.49 1.88 7.18 2.405l3.38 1.05" fill="url(#H)"/><linearGradient id="I" gradientUnits="userSpaceOnUse" x1="34" y1="754.602" x2="1045.936" y2="754.602"><stop offset="0" stop-color="#bf69a9" stop-opacity=".1"/><stop offset="1" stop-color="#bf69a9"/></linearGradient><path d="M1045.936 810.364l-3.38-1.046-7.18-2.398c-2.956-1.09-6.334-2.488-9.71-4.237s-6.748-3.85-10.12-5.71-6.743-3.48-10.113-4.266-6.74-.742-10.112-.276-6.74 1.354-10.112 2.25-6.74 1.804-10.113 2.03-6.745-.23-10.12-2.057-6.753-5.028-10.13-7.934-6.755-5.52-10.13-6.17-6.748.654-10.12 2.96-6.743 5.612-10.113 8.956-6.74 6.727-10.112 8.678-6.74 2.468-10.112.083-6.74-7.675-10.113-12.25-6.745-8.436-10.12-7.964-6.753 5.276-10.13 9.71-6.755 8.5-10.13 7.496-6.748-7.08-10.12-13.52-6.743-13.243-10.113-15.703-6.74-.58-10.112 3.196-6.74 9.444-10.112 14.557-6.74 9.67-10.113 11.227-6.745.11-10.12-6.78-6.753-19.232-10.13-31.732-6.755-25.16-10.13-32.7-6.748-9.934-10.12-11.678-6.743-2.828-10.113-7.72-6.74-13.596-10.112-23.036-6.74-19.62-10.112-27.465-6.74-13.358-10.113-17.247-6.745-6.153-10.12-7.502a21.53 21.53 0 0 0-10.131-1.47c-3.378.313-6.755 1.373-10.13 3.01s-6.748 3.855-10.12 5.758-6.743 3.494-10.113 3.88-6.74-.432-10.112-1.68-6.74-2.93-10.112-4.27-6.742-2.337-10.113-2.867-6.745-.592-10.12-.06-6.753 1.66-10.13 3.192-6.755 3.47-10.13 5.626l-10.12 6.66c-3.372 2.13-6.743 4.02-10.113 5.212s-6.74 1.682-10.112 2.045-6.74.596-10.112 1.27-6.74 1.8-10.113 3.1-6.745 2.81-10.12 4.26-6.753 2.842-10.13 4.532-6.755 3.676-10.13 6.3-6.748 5.913-10.12 9.372l-10.113 10.445c-3.37 3.35-6.74 6.408-10.112 7.342s-6.74-.258-10.112-5.412-6.74-14.27-10.113-23.413-6.745-18.317-10.12-23.585-6.753-6.63-10.13-6.865-6.755.663-10.13-.086-6.748-3.144-10.12-6.196-6.743-6.764-10.113-10.147-6.74-6.437-10.112-9.12-6.74-4.992-10.112-6.887-6.74-3.375-10.113-4.72l-10.12-3.915c-3.375-1.358-6.753-2.864-10.13-4.462s-6.755-3.29-10.13-5.02-6.748-3.5-10.12-5.007-6.743-2.754-10.113-3.438-6.74-.806-10.112-.772-6.74.225-10.112.166-6.74-.366-10.113-.556-6.745-.262-10.12.15-6.753 1.308-10.13 2.162-6.755 1.667-10.13 1.91-6.748-.08-10.12-.81-6.743-1.864-10.113-3.242-6.74-3-10.112-4.838-6.74-3.893-10.112-6.138-6.74-4.68-10.113-6.742-6.745-3.746-10.12-4.492-6.753-.55-10.13-.086-6.755 1.197-10.13 1.526a42.47 42.47 0 0 1-10.12-.222c-3.372-.478-6.743-1.36-10.113-2.647s-6.74-2.98-10.112-4.527-6.74-2.953-10.112-3.664-6.74-.73-10.113-.493-6.745.73-10.12 1.045-6.753.447-10.13.483-6.755-.025-10.13-.1-6.748-.164-10.12-.383-6.743-.57-10.113-1.165-6.74-1.44-10.112-2.24-6.74-1.563-10.112-1.996-6.74-.538-10.113-.592-6.745-.055-10.12-.282-6.753-.678-10.13-1.14-6.755-.938-10.13-1.2-6.748-.343-9.7-.33-5.48.112-7.164.178l-3.37.13v2.834l3.37-.042 7.164-.014c2.95.038 6.324.146 9.7.403s6.753.664 10.13 1.036 6.755.708 10.13.824 6.748.01 10.12.182 6.743.616 10.113 1.832 6.74 3.202 10.112 5.27 6.74 4.214 10.112 5.753 6.74 2.47 10.113 3.142 6.745 1.09 10.12 1.604 6.753 1.123 10.13 1.862 6.755 1.607 10.13 2.638 6.748 2.224 10.12 3.318 6.743 2.09 10.113 2.73 6.74.916 10.112 1.202 6.74.577 10.112 1.242 6.74 1.7 10.113 2.82 6.745 2.322 10.12 3.318 6.753 1.787 10.13 2.576 6.755 1.576 10.13 2.567 6.748 2.184 10.12 3.426l10.113 3.718c3.37 1.185 6.74 2.263 10.112 3.313l10.112 3.137c3.37 1.067 6.74 2.183 10.113 3.075s6.745 1.564 10.12 1.743 6.753-.133 10.13-.645 6.755-1.226 10.13-1.85 6.748-1.157 10.12-1.54 6.743-.613 10.113-.63a73.94 73.94 0 0 1 10.112.625 67.42 67.42 0 0 1 10.112 2.132c3.37.987 6.74 2.263 10.113 3.53s6.745 2.52 10.12 3.466 6.753 1.58 10.13 2.41 6.755 1.85 10.13 3.57 6.748 4.136 10.12 6.77l10.113 8.07c3.37 2.586 6.74 4.907 10.112 7.49s6.74 5.424 10.112 9.05 6.74 8.04 10.113 11.878 6.745 7.104 10.12 8.438 6.753.735 10.13 1.225 6.755 2.068 10.13 7.756 6.748 15.484 10.12 25.49 6.743 20.225 10.113 26.755 6.74 9.373 10.112 9.672 6.74-1.945 10.112-5.59 6.74-8.688 10.113-13.637 6.745-9.805 10.12-13.072 6.753-4.947 10.13-5.87 6.755-1.092 10.13-1.336l10.12-.8c3.372-.235 6.743-.386 10.113-.29s6.74.436 10.112.54 6.74-.028 10.112-.88 6.74-2.42 10.113-4.527 6.745-4.75 10.12-7.745 6.753-6.346 10.13-9.22 6.755-5.277 10.13-6.376 6.748-.896 10.12.008 6.743 2.512 10.113 4.22 6.74 3.52 10.112 5.028 6.74 2.716 10.112 3.217 6.74.297 10.113-.352 6.745-1.745 10.12-3.027 6.753-2.75 10.13-3.518 6.755-.838 10.13.678 6.748 4.616 10.12 9.546 6.743 11.7 10.113 20.525 6.74 19.745 10.112 29.835 6.74 19.36 10.112 24.92 6.74 7.4 10.113 9.82 6.745 5.412 10.12 13.27 6.753 20.577 10.13 33.524 6.755 26.123 10.13 34.9 6.748 13.126 10.12 14.194 6.743-1.154 10.113-5.55 6.74-10.964 10.112-15.947 6.74-8.38 10.112-6.43 6.74 9.243 10.113 16.492 6.745 14.454 10.12 16.225 6.753-1.892 10.13-6.235 6.755-9.366 10.13-10.316 6.748 2.175 10.12 6.314 6.743 9.292 10.113 12.4 6.74 4.17 10.112 3.787 6.74-2.207 10.112-4.873 6.74-6.173 10.113-8.895 6.745-4.66 10.12-4.186 6.753 3.358 10.13 6.9 6.755 7.7 10.13 10.772 6.748 5.007 10.12 7.043 6.743 4.163 10.113 7.588 6.742 8.15 10.112 13.51 6.74 11.36 10.112 17.335 6.74 11.926 10.113 17.157 6.745 9.743 10.12 12.84 6.753 4.776 9.71 5.716 5.49 1.138 7.18 1.27l3.38.265" fill="url(#I)"/><g opacity=".3"><path d="M42.328 1046.045c-3.568 0-5.47-1.97-5.503-2.002 0 .935-.7 1.4-1.468 1.4-.7 0-1.4-.467-1.4-1.4v-20.88a1.35 1.35 0 0 1 1.401-1.434c.767 0 1.468.467 1.468 1.4v6.238c1.334-1.368 3.168-2.17 5.503-2.17 5.37 0 8.373 4.403 8.373 9.406 0 5.037-3.002 9.44-8.373 9.44zm0-16c-3.335 0-5.503 2.602-5.503 6.57 0 4.003 2.168 6.604 5.503 6.604s5.504-2.602 5.504-6.604c0-3.97-2.168-6.57-5.504-6.57zm25.555 8.037h-12.34c.467 3.136 2.468 5.137 5.403 5.137 1.5 0 3.002-.533 3.97-1.734.3-.333.634-.533 1.034-.533.734 0 1.5.667 1.5 1.468 0 .4-.1.7-.8 1.4-1.5 1.468-3.57 2.235-5.704 2.235-5.37 0-8.372-4.437-8.372-9.44 0-4.97 3.002-9.406 8.372-9.406 5.437 0 8.34 4.437 8.34 9.406 0 .734-.534 1.468-1.4 1.468zm-6.937-8.038c-3.136 0-4.97 2.3-5.403 5.17H66.35c-.467-3.202-2.468-5.17-5.403-5.17zM88 1045.478c-1.834 0-2.668-1.3-2.97-1.9-1.334 1.468-3.27 2.47-5.87 2.47-5.437 0-8.372-4.47-8.372-9.44s3.002-9.406 8.372-9.406c2.335 0 4.203.834 5.504 2.202v-.134c0-.367.133-1.5 1.4-1.5.7 0 1.468.367 1.468 1.4v12.875c0 .434.3.6.467.6.935 0 1.435.667 1.435 1.434a1.37 1.37 0 0 1-1.435 1.401zm-8.84-15.443c-3.336 0-5.504 2.602-5.504 6.57 0 4.003 2.168 6.604 5.504 6.604 3.37 0 5.504-2.602 5.504-6.604 0-3.97-2.135-6.57-5.504-6.57z"/><use xlink:href="#K"/><path d="M115.158 1045.478h-.567c-3.17 0-4.37-1.668-4.37-4.403V1030.6h-1c-.8 0-1.435-.634-1.435-1.4 0-.8.634-1.435 1.4-1.435h1v-4.637c0-.934.7-1.4 1.435-1.4s1.4.467 1.4 1.4v4.637h2.135c.934 0 1.4.768 1.4 1.4 0 .8-.533 1.434-1.4 1.434h-2.135v10.774c0 .934.333 1.268 1.268 1.268h.833c.868 0 1.435.634 1.435 1.4 0 .8-.533 1.435-1.4 1.435zm4.604-20.415a2.402 2.402 0 1 1 0-4.803 2.402 2.402 0 1 1 0 4.803zm0 20.414c-.733 0-1.467-.5-1.467-1.4V1029.2c0-.935.733-1.435 1.467-1.435a1.37 1.37 0 0 1 1.401 1.435v14.876c0 .935-.7 1.4-1.4 1.4zm10.376-14.877h-1.5v13.442c0 .935-.7 1.4-1.468 1.4-.7 0-1.4-.467-1.4-1.4V1030.6h-1.37c-.9 0-1.4-.667-1.4-1.4 0-.768.5-1.435 1.4-1.435h1.367v-2.27c0-2.135 1.77-3.77 3.836-3.77.968 0 1.468.667 1.468 1.434 0 .7-.5 1.4-1.468 1.4-.566 0-.967.434-.967.9v2.302h1.5c.967 0 1.468.667 1.468 1.435 0 .733-.5 1.4-1.468 1.4z"/><use xlink:href="#K" x="42.068"/><path d="M154.725 1045.544c-1.802 0-3.336-1.534-3.336-3.402v-18.98c0-.967.7-1.434 1.435-1.434s1.435.467 1.435 1.4v19.013c0 .4.3.567.467.567.934 0 1.435.667 1.435 1.435 0 .733-.5 1.4-1.435 1.4zm15.37-.066v-1.264c1.886-.237 2.046-.437 2.046-3.157v-6.7c0-2.8-1.248-4.017-3.064-4.017-1.237 0-2.345.6-3.47 1.493v9.476c0 2.527.187 2.658 2.06 2.896v1.264h-8.968v-1.264c2.254-.33 2.5-.4 2.5-3v-8.2c0-2.446-.303-2.565-2.185-2.922v-1.184c2.173-.292 4.63-.807 6.653-1.533l-.052 2.95 2.6-1.745c1.16-.713 2-1.086 3.16-1.086 3.194 0 5.2 2.338 5.2 6.3v7.5c0 2.54.237 2.657 2.277 2.92v1.264h-8.74zm23.9-3.703c-2.458 3.427-5.488 4.178-7.014 4.178-5.142 0-8.124-3.936-8.124-8.594 0-2.745 1.183-5.396 2.832-7.062 1.74-1.8 3.945-2.814 6.082-2.814 3.73 0 6.396 3.126 6.37 6.347-.014.715-.08 1.277-.612 1.4-.767.184-6.17.5-10.318.647.062 4.587 2.717 6.74 5.556 6.74 1.572 0 3.104-.597 4.543-1.866l.686 1.014zm-7.07-12.7c-1.667 0-3.167 1.807-3.516 4.963l5.486-.118c.6-.026.848-.146.848-.792.04-2.022-1.037-4.053-2.818-4.053zm34.284.145c-1.943.343-2.248.624-3.105 2.765-1.33 3.462-3.102 8.53-4.934 13.94h-1.512l-4.65-11.46-4.55 11.46h-1.472l-4.685-14.192c-.687-1.985-.94-2.274-2.855-2.512v-1.25h9.397v1.25c-2.325.345-2.535.672-2.058 2.133l2.52 8.214c1.507-3.68 2.988-7.62 4.327-11.424h1.456c1.4 3.76 2.986 7.702 4.573 11.568.742-2.107 2.062-5.964 2.557-8.108.412-1.674-.008-2.078-2.753-2.383v-1.25h7.742v1.25zm9.4 3.746c-.92-2.606-2.155-3.984-4.2-3.984-1.206 0-2.225.86-2.225 2.266 0 1.497 1.046 2.264 3.16 3.216 3.278 1.496 5.3 2.787 5.3 5.736 0 3.85-3.6 5.764-6.945 5.764-2.06 0-4.088-.737-4.92-1.16l-.662-4.892 1.252-.224c.8 2.5 2.33 4.75 4.976 4.75 1.505 0 2.438-.952 2.438-2.28 0-1.423-.76-2.333-3.092-3.467-2.67-1.295-5.107-2.64-5.107-5.775 0-3.046 2.533-5.42 6.565-5.42 1.818 0 3.242.396 4.112.567l.62 4.577-1.25.328z"/></g><g class="W"><use xlink:href="#L"/><use xlink:href="#M"/><path d="M796.166 1045.98c-.28 0-.58-.2-.58-.56v-.64c-.84.98-2.06 1.54-3.42 1.54-2.48 0-4.56-2.08-4.56-4.56v-5.842c0-.36.3-.56.58-.56.26 0 .56.2.56.56v5.842c0 1.9 1.52 3.42 3.42 3.42s3.42-1.52 3.42-3.42v-5.842c0-.36.3-.56.58-.56.26 0 .56.2.56.56v9.502c0 .36-.3.56-.56.56z"/><use xlink:href="#N"/><use xlink:href="#O"/><path d="M825.887 1041.236h-8.302c.18 2.28 1.66 3.94 3.84 3.94 1.08 0 2.36-.48 2.94-1.38.14-.22.3-.28.48-.28.3 0 .62.24.62.54 0 .18 0 .22-.38.658-.92 1.082-2.26 1.602-3.66 1.602-3.22 0-5.02-2.64-5.02-5.662 0-3 1.8-5.64 5.02-5.64s5.02 2.66 5.02 5.64c0 .3-.28.58-.56.58zm-4.46-5.08c-2.4 0-3.66 1.84-3.84 3.94h7.7c-.18-2.28-1.66-3.94-3.86-3.94zm8.438 3.26c-.64 0-1.16-.5-1.16-1.14s.52-1.14 1.16-1.14c.62 0 1.12.5 1.12 1.14s-.5 1.14-1.12 1.14zm0 6.563c-.64 0-1.16-.5-1.16-1.14s.52-1.14 1.16-1.14c.62 0 1.12.5 1.12 1.14s-.5 1.14-1.12 1.14zm14.22.34c-4.3 0-5.82-3.56-5.82-7.46 0-3.922 1.52-7.482 5.82-7.482 4.28 0 5.82 3.56 5.82 7.482 0 3.9-1.54 7.46-5.82 7.46zm0-13.803c-3.32 0-4.682 2.6-4.682 6.342 0 3.72 1.36 6.32 4.682 6.32 3.3 0 4.68-2.6 4.68-6.32 0-3.742-1.38-6.342-4.68-6.342zm17.78 13.465h-8.882a.61.61 0 0 1-.58-.561v-13.123c0-.3.28-.56.58-.56h8.882a.55.55 0 0 1 .58.561.55.55 0 0 1-.58.561h-8.32v4.92h6.1a.55.55 0 0 1 .58.561c0 .28-.2.58-.56.58h-6.12v5.922h8.32c.38 0 .58.3.58.58a.55.55 0 0 1-.58.561zm12.216-1.843c-.98 1.36-2.38 2.182-4.46 2.182-4.3 0-5.82-3.56-5.82-7.46 0-3.922 1.52-7.482 5.82-7.482 2.02 0 3.5.8 4.44 2.18.1.102.12.2.12.32 0 .32-.3.56-.62.56a.53.53 0 0 1-.44-.22c-.72-1.04-1.8-1.7-3.5-1.7-3.32 0-4.682 2.6-4.682 6.342 0 3.72 1.36 6.32 4.682 6.32 1.7 0 2.8-.64 3.54-1.7.1-.2.28-.26.44-.26.3 0 .6.26.6.58a.63.63 0 0 1-.12.34zm7.298 1.843h-4.44a.61.61 0 0 1-.58-.561v-13.123c0-.3.28-.56.58-.56h4.44c4.12 0 5.48 3.44 5.48 7.102 0 3.72-1.36 7.143-5.48 7.143zm0-13.123h-3.88v11.982h3.88c3.42 0 4.34-2.96 4.34-5.98 0-3.562-1.24-6.002-4.34-6.002zm8.78 14.9c-.08.06-.2.08-.3.08-.32 0-.54-.28-.54-.58 0-.56.86-.64 1-1.28-.6-.04-1.08-.54-1.08-1.14a1.16 1.16 0 0 1 1.16-1.16c.98 0 1.2 1 1.2 1.62 0 .98-.52 1.92-1.44 2.46z"/><use xlink:href="#O" x="93.174"/><use xlink:href="#M" x="134.214"/><use xlink:href="#P"/><use xlink:href="#L" x="167.455"/><use xlink:href="#Q"/><use xlink:href="#R"/><use xlink:href="#P" x="40.16"/><use xlink:href="#Q" x="30.66"/><path d="M993.9 1045.98c-.28 0-.58-.2-.58-.56v-1c-.84 1.18-2.14 1.9-3.88 1.9-3.22 0-5.02-2.64-5.02-5.662 0-3 1.8-5.64 5.02-5.64 1.74 0 3.04.72 3.88 1.88v-4.602c0-.36.3-.56.58-.56.26 0 .56.2.56.56v13.123c0 .36-.3.56-.56.56zm-4.46-9.822c-2.36 0-3.88 1.9-3.88 4.5s1.52 4.52 3.88 4.52c2.38 0 3.88-1.92 3.88-4.52s-1.5-4.5-3.88-4.5z"/><use xlink:href="#M" x="221.474"/><use xlink:href="#S"/><use xlink:href="#S" x="4.38"/><use xlink:href="#R" x="68.7"/><use xlink:href="#N" x="231.293"/><use xlink:href="#L" x="271.133"/><g class="V"><path d="M34.2 998.118v-1.92h2.816v-18.56l-2.88.256v-1.408c1.312-.32 2.592-.896 3.648-1.8H39.3v21.502H42v1.92h-7.8zm11.905-4.288c.32 2.305 1.6 2.688 2.496 2.688 2.048 0 3.328-2.816 3.392-9.248-.928.992-2.176 1.76-3.552 1.76-2.592 0-4.96-1.856-4.96-7.104 0-4.48 1.92-7.23 4.96-7.23 4 0 5.92 2.304 5.92 10.623 0 9.28-2.176 13.12-5.823 13.12-2.976 0-4.096-1.792-4.544-4.48l2.112-.128zm5.952-10.88c0-4.672-1.216-6.336-3.264-6.336-1.792 0-3.008 1.345-3.008 5.344 0 4.128 1.408 5.152 2.88 5.152s2.624-.96 3.392-1.984v-2.176zm11.967-3.646c-.32-2.304-1.6-2.688-2.496-2.688-2.048 0-3.328 2.816-3.392 9.248.928-.992 2.176-1.76 3.552-1.76 2.592 0 4.96 1.855 4.96 7.104 0 4.48-1.92 7.23-4.96 7.23-4 0-5.92-2.304-5.92-10.624 0-9.28 2.176-13.118 5.823-13.118 2.976 0 4.096 1.8 4.544 4.48l-2.112.128zm-5.952 10.88c0 4.672 1.216 6.336 3.264 6.336 1.792 0 3.008-1.344 3.008-5.344 0-4.128-1.408-5.15-2.88-5.15s-2.624.96-3.392 1.983v2.176z"/><use xlink:href="#T"/><path d="M1000.306 998.118v-1.92c2.048-6.848 8.448-10.687 8.448-15.935 0-2.432-1.216-3.648-2.784-3.648-1.824 0-3.168 1.408-3.36 4.864h-2.112c.256-5.248 2.624-6.783 5.407-6.783 3.04 0 5.152 2.048 5.152 5.887 0 5.76-5.184 7.552-8.64 15.615h8.767v1.92h-10.88z"/><use xlink:href="#T" x="945.314"/><path d="M1026.097 998.118v-1.92h2.816v-18.56l-2.88.256v-1.408c1.312-.32 2.592-.896 3.648-1.8h1.536v21.502h2.688v1.92h-7.808zm9.535-23.102H1046v1.216l-6.72 21.887h-2.432l6.72-21.183h-7.936v-1.92z"/><path d="M698.398 998.118v-1.92c2.048-6.848 8.447-10.687 8.447-15.935 0-2.432-1.216-3.648-2.784-3.648-1.824 0-3.168 1.408-3.36 4.864H698.6c.256-5.248 2.624-6.783 5.407-6.783 3.04 0 5.152 2.048 5.152 5.887 0 5.76-5.184 7.552-8.64 15.615h8.767v1.92h-10.88z"/><use xlink:href="#U"/><path d="M728.54 998.438c-3.776 0-5.567-3.52-5.567-11.87s1.792-11.87 5.567-11.87 5.567 3.52 5.567 11.87-1.792 11.87-5.567 11.87zm0-21.823c-2.112 0-3.264 2.368-3.264 9.952s1.152 9.95 3.264 9.95 3.264-2.368 3.264-9.95-1.152-9.952-3.264-9.952z"/><use xlink:href="#U" x="24.577"/></g></g><g fill="#36ccff" class="V"><path d="M47.94 674.515c-1.3 1.803-3.156 2.89-5.914 2.89-5.702 0-7.717-4.72-7.717-9.893 0-5.197 2.016-9.918 7.717-9.918 2.68 0 4.64 1.06 5.887 2.89a1.02 1.02 0 0 1 .239.663c0 .637-.557 1.113-1.167 1.113-.345 0-.663-.158-.902-.477-.822-1.193-2.042-1.9-4.058-1.9-3.766 0-5.437 2.785-5.437 7.638s1.67 7.638 5.437 7.638c2.016 0 3.235-.77 4.058-1.936.24-.345.557-.504.902-.504.6 0 1.193.504 1.193 1.14 0 .212-.08.424-.24.663z"/><use xlink:href="#V"/><use xlink:href="#W"/><use xlink:href="#W" x="20.185"/><use xlink:href="#V" x="58.142"/><path d="M133.006 676.954h-5.5c-.6 0-1.167-.557-1.167-1.114v-16.628c0-.61.557-1.14 1.167-1.14h5.5c5.463 0 7.267 4.508 7.267 9.414 0 4.933-1.804 9.468-7.267 9.468zm0-16.628h-4.376V674.7h4.376c3.42 0 4.986-2.52 4.986-7.214 0-4.614-1.565-7.16-4.986-7.16z"/><use xlink:href="#X"/><path d="M160.3 660.326h-4.402v15.514c0 .717-.53 1.114-1.114 1.114-.557 0-1.14-.397-1.14-1.114v-15.514h-4.35c-.77 0-1.166-.583-1.166-1.14 0-.53.397-1.113 1.14-1.113H160.3c.743 0 1.14.583 1.14 1.113 0 .558-.398 1.14-1.14 1.14zm14.587-.583l-5.25 9.785v6.285c0 .743-.557 1.14-1.167 1.14-.557 0-1.114-.37-1.114-1.114v-6.312l-5.25-9.812c-.133-.212-.16-.397-.16-.557 0-.637.6-1.14 1.193-1.14.345 0 .716.187.955.637l4.375 8.168 4.43-8.168a1.07 1.07 0 0 1 .955-.583c.6 0 1.193.478 1.193 1.113a.95.95 0 0 1-.159.558z"/><use xlink:href="#Y"/><use xlink:href="#X" x="56.311"/><path d="M212.765 676.954h-5.5c-.6 0-1.167-.557-1.167-1.114v-16.628c0-.61.557-1.14 1.167-1.14h5.5c5.463 0 7.266 4.508 7.266 9.414 0 4.933-1.803 9.468-7.266 9.468zm0-16.628h-4.376V674.7h4.376c3.42 0 4.986-2.52 4.986-7.214 0-4.614-1.565-7.16-4.986-7.16z"/></g><g fill="#94bf69" class="V"><path d="M42.186 368.435H36.5v7.028c0 .7-.53 1.14-1.114 1.14-.636 0-1.167-.424-1.167-1.114v-16.63c0-.478.318-1.14 1.114-1.14h6.868c2.334 0 5.33 1.83 5.33 5.33 0 2.997-2.387 5.384-5.357 5.384zm0-8.46H36.5v6.206h5.65a3.09 3.09 0 0 0 3.103-3.103c0-1.724-1.38-3.103-3.076-3.103zm19.787 16.655c-.3 0-.637-.16-.875-.477l-5.516-7.717h-3.42v7.028c0 .742-.557 1.14-1.166 1.14-.557 0-1.114-.398-1.114-1.114v-16.63c0-.478.318-1.14 1.114-1.14h6.868c2.334 0 5.33 1.83 5.33 5.33 0 2.785-2.095 5.12-4.88 5.357l4.64 6.392a1.04 1.04 0 0 1 .24.69c0 .636-.6 1.14-1.22 1.14zm-4.137-16.654H52.16v6.206h5.65c1.724 0 3.103-1.405 3.103-3.13 0-1.803-1.538-3.076-3.076-3.076z"/><use xlink:href="#Z"/><path d="M90.248 376.603h-5.5c-.6 0-1.167-.557-1.167-1.114v-16.63c0-.6.557-1.14 1.167-1.14h5.5c5.463 0 7.267 4.5 7.267 9.415 0 4.933-1.804 9.468-7.267 9.468zm0-16.628h-4.376v14.374h4.376c3.42 0 4.986-2.52 4.986-7.213 0-4.614-1.565-7.16-4.986-7.16zM106.8 377.08c-3.633 0-6.656-2.917-6.656-6.657v-11.6c0-.743.557-1.114 1.14-1.114s1.14.372 1.14 1.114v11.6c0 2.44 1.963 4.402 4.376 4.402a4.41 4.41 0 0 0 4.402-4.402V358.86a1.06 1.06 0 0 1 1.114-1.141c.6 0 1.14.372 1.14 1.114v11.6c0 3.633-2.917 6.657-6.656 6.657z"/><use xlink:href="#a"/><path d="M142.74 359.975h-4.402v15.514c0 .716-.53 1.114-1.114 1.114-.557 0-1.14-.398-1.14-1.114v-15.514h-4.35c-.77 0-1.167-.584-1.167-1.14 0-.53.397-1.114 1.14-1.114h11.032c.743 0 1.14.583 1.14 1.114 0 .557-.398 1.14-1.14 1.14zm5.995 16.628h-3.05c-.716 0-1.114-.557-1.114-1.114 0-.6.398-1.14 1.114-1.14h.398v-14.374h-.398c-.716 0-1.114-.557-1.114-1.114 0-.6.398-1.14 1.114-1.14h3.05c.77 0 1.167.53 1.167 1.14 0 .557-.398 1.114-1.167 1.114h-.398v14.374h.398c.77 0 1.167.53 1.167 1.14 0 .557-.398 1.114-1.167 1.114z"/><use xlink:href="#Z" x="86.389"/><path d="M182.127 376.603c-.345 0-.716-.186-.955-.584l-8.91-13.393v12.836c0 .742-.557 1.14-1.167 1.14-.557 0-1.114-.398-1.114-1.114V358.86c0-.743.584-1.14 1.167-1.14.372 0 .69.16.955.557l8.91 13.393v-12.81c0-.77.557-1.14 1.114-1.14.6 0 1.167.372 1.167 1.114v16.628c0 .716-.583 1.14-1.167 1.14z"/></g><g fill="#9469bf" class="V"><path d="M46.43 710.317c-.584 0-1.167-.397-1.167-1.114v-7.876h-8.75v7.876c0 .717-.6 1.114-1.114 1.114-.584 0-1.167-.397-1.167-1.114V692.55c0-.742.584-1.113 1.167-1.113.504 0 1.114.37 1.114 1.113v6.524h8.75v-6.498c0-.77.6-1.14 1.114-1.14.583 0 1.167.37 1.167 1.14v16.602c0 .743-.6 1.14-1.114 1.14z"/><use xlink:href="#b"/><path d="M82.82 710.344a1.09 1.09 0 0 1-1.114-1.141v-12.198l-5.145 9.6c-.345.663-.85.716-1.06.716-.132 0-.7-.053-1.06-.716l-5.12-9.547v12.146c0 .743-.557 1.14-1.166 1.14a1.09 1.09 0 0 1-1.114-1.141V692.63c0-.875.6-1.193 1.22-1.193.397 0 .716.186.955.663l6.285 11.695 6.312-11.695c.265-.53.583-.663 1.034-.663.584 0 1.14.37 1.14 1.193v16.574c0 .743-.557 1.14-1.167 1.14zm17.745-.027c-.398 0-.796-.212-1.008-.7l-1.406-3.447h-8.83l-1.432 3.447c-.212.478-.6.7-.98.7-.584 0-1.193-.45-1.193-1.114 0-.158.026-.317.106-.45l6.815-16.575c.318-.7.743-.822 1.087-.822.24 0 .822.133 1.087.822l6.842 16.575a1.24 1.24 0 0 1 .08.45c0 .663-.557 1.114-1.167 1.114zm-6.842-14.85L90.25 703.9h6.948l-3.474-8.433z"/><use xlink:href="#c"/><use xlink:href="#d"/><path d="M137.222 693.69h-4.402v15.514c0 .717-.53 1.114-1.114 1.114-.557 0-1.14-.397-1.14-1.114V693.69h-4.35c-.77 0-1.166-.583-1.166-1.14 0-.53.397-1.113 1.14-1.113h11.032c.743 0 1.14.583 1.14 1.113 0 .558-.398 1.14-1.14 1.14z"/><use xlink:href="#Y" x="-45.624" y="33.363"/><path d="M165.84 710.344c-.29 0-.637-.16-.875-.478l-5.516-7.717h-3.42v7.027c0 .743-.557 1.14-1.166 1.14-.557 0-1.114-.397-1.114-1.114v-16.628c0-.477.318-1.14 1.114-1.14h6.868c2.334 0 5.33 1.83 5.33 5.33 0 2.785-2.095 5.118-4.88 5.357l4.64 6.39a1.04 1.04 0 0 1 .239.689c0 .637-.6 1.14-1.22 1.14zm-4.137-16.654h-5.675v6.206h5.65c1.724 0 3.103-1.406 3.103-3.13 0-1.803-1.538-3.076-3.076-3.076z"/><use xlink:href="#d" x="49.705"/><use xlink:href="#Y" x="-6.739" y="33.363"/><use xlink:href="#c" x="89.198"/><use xlink:href="#Y" x="31.996" y="33.363"/><path d="M234.62 710.317h-3.05c-.716 0-1.114-.557-1.114-1.114 0-.6.398-1.14 1.114-1.14h.398V693.7h-.398c-.716 0-1.114-.557-1.114-1.114 0-.6.398-1.14 1.114-1.14h3.05c.77 0 1.167.53 1.167 1.14 0 .558-.398 1.114-1.167 1.114h-.398v14.374h.398c.77 0 1.167.53 1.167 1.14 0 .558-.398 1.114-1.167 1.114zm10.13 0h-5.5c-.6 0-1.167-.557-1.167-1.114v-16.628c0-.6.557-1.14 1.167-1.14h5.5c5.463 0 7.267 4.508 7.267 9.414 0 4.933-1.804 9.468-7.267 9.468zm0-16.628h-4.376v14.374h4.376c3.42 0 4.986-2.52 4.986-7.214 0-4.614-1.565-7.16-4.986-7.16z"/></g><g fill="#bf69a9" class="V"><use xlink:href="#b" x="-16.553" y="33.363"/><path d="M62.636 743.68c-.345 0-.716-.186-.955-.583l-8.9-13.393v12.835c0 .743-.557 1.14-1.166 1.14-.557 0-1.114-.397-1.114-1.114v-16.628c0-.742.584-1.14 1.167-1.14.372 0 .7.16.955.557l8.9 13.393v-12.8c0-.77.557-1.14 1.114-1.14.6 0 1.166.37 1.166 1.113v16.628c0 .717-.583 1.14-1.166 1.14zm9.788.452c-1.936 0-4.64-.796-6.153-2.2a1.06 1.06 0 0 1-.37-.822 1.15 1.15 0 0 1 1.14-1.141c.398 0 .53.133 1.008.504 1.3.98 2.838 1.405 4.376 1.405 3.156 0 4.535-1.14 4.535-3.103 0-5.516-10.58-2.387-10.58-9.6 0-3.236 2.73-4.854 6.232-4.854 1.83 0 4.456.716 5.755 2.254.212.24.3.478.3.716 0 .637-.584 1.193-1.14 1.193-.398 0-.6-.186-1.06-.583-1.06-.9-2.413-1.3-3.845-1.3-2.864 0-3.952 1.14-3.952 2.573 0 4.96 10.582 2.015 10.582 9.6 0 3.95-3.315 5.357-6.815 5.357zm16.87-8.62h-5.675v7.027a1.11 1.11 0 0 1-1.114 1.141c-.636 0-1.167-.424-1.167-1.114V725.94c0-.477.318-1.14 1.114-1.14h6.87c2.334 0 5.33 1.83 5.33 5.33 0 2.997-2.387 5.384-5.357 5.384zm0-8.46h-5.675v6.206h5.65a3.09 3.09 0 0 0 3.103-3.104c0-1.724-1.38-3.103-3.076-3.103zm19.892 16.627H98.153c-.636 0-1.167-.504-1.167-1.114v-16.628c0-.636.53-1.14 1.167-1.14h11.032c.7 0 1.114.504 1.114 1.113 0 .558-.397 1.14-1.114 1.14h-9.918v5.357h6.948a1.13 1.13 0 0 1 1.141 1.14c0 .6-.45 1.14-1.14 1.14h-6.948v6.736h9.918c.716 0 1.114.557 1.114 1.14 0 .6-.424 1.114-1.114 1.114zm16.015-2.44c-1.3 1.803-3.156 2.9-5.914 2.9-5.702 0-7.717-4.72-7.717-9.893 0-5.197 2.016-9.918 7.717-9.918 2.68 0 4.64 1.06 5.887 2.9a1.02 1.02 0 0 1 .239.663c0 .637-.557 1.113-1.166 1.113-.345 0-.663-.16-.902-.477-.822-1.193-2.042-1.9-4.058-1.9-3.766 0-5.437 2.785-5.437 7.638s1.67 7.638 5.437 7.638c2.016 0 3.235-.77 4.058-1.936.24-.345.557-.504.902-.504.6 0 1.193.504 1.193 1.14 0 .212-.08.424-.24.663z"/><use xlink:href="#e"/><path d="M146.633 727.053h-9.918v5.357h6.948a1.13 1.13 0 0 1 1.141 1.14c0 .6-.45 1.14-1.14 1.14h-6.948v7.876a1.14 1.14 0 0 1-1.114 1.114c-.636 0-1.167-.504-1.167-1.114v-16.628c0-.636.53-1.14 1.167-1.14h11.032c.7 0 1.114.504 1.114 1.113 0 .558-.397 1.14-1.114 1.14zm6.87 16.627h-3.05c-.716 0-1.114-.557-1.114-1.114 0-.6.397-1.14 1.114-1.14h.398v-14.374h-.398c-.716 0-1.114-.557-1.114-1.114 0-.6.397-1.14 1.114-1.14h3.05c.77 0 1.167.53 1.167 1.14 0 .558-.398 1.114-1.167 1.114h-.398v14.374h.398c.77 0 1.167.53 1.167 1.14 0 .558-.398 1.114-1.167 1.114z"/><use xlink:href="#f"/><path d="M179.577 743.68h-5.5c-.6 0-1.167-.557-1.167-1.114v-16.628c0-.61.557-1.14 1.167-1.14h5.5c5.463 0 7.267 4.508 7.267 9.414 0 4.933-1.804 9.468-7.267 9.468zm0-16.628H175.2v14.374h4.376c3.42 0 4.986-2.52 4.986-7.214 0-4.614-1.565-7.16-4.986-7.16z"/></g><g fill="#bf6969" class="V"><path d="M41.206 310.33c-1.936 0-4.64-.795-6.153-2.2a1.06 1.06 0 0 1-.371-.822 1.15 1.15 0 0 1 1.14-1.141c.398 0 .53.133 1.008.504 1.3.98 2.838 1.406 4.376 1.406 3.156 0 4.535-1.14 4.535-3.103 0-5.516-10.58-2.387-10.58-9.6 0-3.235 2.73-4.853 6.232-4.853 1.83 0 4.456.716 5.755 2.254.212.24.29.478.29.716 0 .636-.584 1.193-1.14 1.193-.398 0-.6-.186-1.06-.583-1.06-.902-2.413-1.3-3.845-1.3-2.864 0-3.95 1.14-3.95 2.572 0 4.96 10.58 2.016 10.58 9.6 0 3.952-3.315 5.357-6.815 5.357z"/><use xlink:href="#Z" x="-15.702" y="-66.724"/><use xlink:href="#g"/><path d="M86.828 309.878h-3.05c-.716 0-1.114-.557-1.114-1.114 0-.6.398-1.14 1.114-1.14h.398V293.25h-.398c-.716 0-1.114-.557-1.114-1.114 0-.6.398-1.14 1.114-1.14h3.05c.77 0 1.167.53 1.167 1.14 0 .557-.398 1.114-1.167 1.114h-.398v14.374h.398c.77 0 1.167.53 1.167 1.14 0 .557-.398 1.114-1.167 1.114zm16.815 0c-.398 0-.796-.212-1.008-.7l-1.406-3.448H92.4l-1.432 3.448c-.212.477-.6.7-.98.7-.584 0-1.193-.45-1.193-1.114a.87.87 0 0 1 .106-.451l6.815-16.575c.318-.7.743-.822 1.087-.822.24 0 .822.132 1.087.822l6.842 16.575c.053.132.08.292.08.45 0 .663-.557 1.114-1.167 1.114zm-6.842-14.85l-3.474 8.433h6.948l-3.474-8.433zm18.937 14.85h-8.062c-.636 0-1.167-.504-1.167-1.114v-16.628c0-.77.6-1.14 1.114-1.14.583 0 1.166.372 1.166 1.114v15.514h6.948a1.12 1.12 0 0 1 1.114 1.114c0 .636-.504 1.14-1.114 1.14z"/></g><g fill="#bfa969" class="V"><path d="M46.43 343.24H35.397c-.636 0-1.167-.504-1.167-1.114V325.5c0-.637.53-1.14 1.167-1.14H46.43c.69 0 1.114.504 1.114 1.114 0 .557-.397 1.14-1.114 1.14H36.51v5.357h6.948a1.13 1.13 0 0 1 1.141 1.141c0 .6-.45 1.14-1.14 1.14H36.51v6.736h9.918c.716 0 1.114.557 1.114 1.14 0 .6-.424 1.114-1.114 1.114z"/><use xlink:href="#g" x="-18.625" y="33.362"/><use xlink:href="#Z" x="-0.881" y="-33.364"/><path d="M94.858 343.24c-.345 0-.716-.186-.955-.584l-8.91-13.393V342.1c0 .742-.557 1.14-1.166 1.14-.557 0-1.114-.398-1.114-1.114V325.5c0-.743.584-1.14 1.167-1.14.372 0 .69.16.955.557l8.91 13.393V325.5c0-.77.557-1.14 1.114-1.14.6 0 1.166.372 1.166 1.114V342.1c0 .716-.583 1.14-1.166 1.14z"/><use xlink:href="#Z" x="33.443" y="-33.364"/><path d="M132.813 343.267a1.09 1.09 0 0 1-1.114-1.14v-12.2l-5.145 9.6c-.345.663-.85.716-1.06.716-.132 0-.7-.053-1.06-.716l-5.12-9.547v12.146c0 .743-.557 1.14-1.166 1.14a1.09 1.09 0 0 1-1.114-1.14V325.55c0-.875.6-1.194 1.22-1.194.398 0 .716.186.955.663l6.285 11.695 6.312-11.695c.266-.53.583-.663 1.035-.663.584 0 1.14.372 1.14 1.194v16.575c0 .743-.557 1.14-1.167 1.14zm7.667-.027h-3.05c-.716 0-1.114-.557-1.114-1.114 0-.6.397-1.14 1.114-1.14h.398v-14.374h-.398c-.716 0-1.114-.557-1.114-1.114 0-.6.397-1.14 1.114-1.14h3.05c.77 0 1.167.53 1.167 1.14 0 .557-.398 1.114-1.167 1.114h-.398v14.374h.398c.77 0 1.167.53 1.167 1.14 0 .557-.398 1.114-1.167 1.114z"/><use xlink:href="#a" x="27.395" y="-33.363"/></g><g fill="#55c4c1" class="V"><path d="M40.887 643.6h-5.5c-.6 0-1.167-.557-1.167-1.114V625.85c0-.6.557-1.14 1.167-1.14h5.5c5.463 0 7.266 4.508 7.266 9.414 0 4.933-1.803 9.468-7.266 9.468zm0-16.628H36.5v14.374h4.376c3.42 0 4.986-2.52 4.986-7.214 0-4.614-1.565-7.16-4.986-7.16zM63.14 643.6H52.107c-.636 0-1.167-.504-1.167-1.114V625.85c0-.636.53-1.14 1.167-1.14H63.14c.7 0 1.114.504 1.114 1.113 0 .558-.397 1.14-1.114 1.14h-9.92v5.357h6.948a1.13 1.13 0 0 1 1.141 1.14c0 .6-.45 1.14-1.14 1.14h-6.95v6.736h9.918c.716 0 1.114.557 1.114 1.14 0 .6-.424 1.114-1.114 1.114zm12.042 0h-7.134c-.6 0-1.167-.557-1.167-1.114V625.85c0-.636.478-1.14 1.114-1.14h6.577c2.705 0 4.96 2.228 4.96 4.906 0 1.432-.584 2.65-1.512 3.526 1.697.955 2.784 2.76 2.784 4.827 0 3.076-2.546 5.622-5.622 5.622zm-.6-16.628h-5.4v5.357h5.4c1.697 0 2.68-1.433 2.68-2.68a2.69 2.69 0 0 0-2.679-2.679zm.6 7.6h-6.02v6.763h6.02c1.804 0 3.342-1.564 3.342-3.368 0-1.856-1.538-3.395-3.342-3.395zm17.078-7.61h-4.402v15.514c0 .717-.53 1.114-1.114 1.114-.557 0-1.14-.397-1.14-1.114v-15.514h-4.35c-.77 0-1.167-.583-1.167-1.14 0-.53.397-1.113 1.14-1.113H92.26c.743 0 1.14.583 1.14 1.113 0 .558-.398 1.14-1.14 1.14zm20.794 16.654c-.292 0-.637-.16-.875-.478l-5.516-7.717h-3.42v7.027c0 .743-.557 1.14-1.166 1.14-.557 0-1.114-.397-1.114-1.114V625.85c0-.477.318-1.14 1.114-1.14h6.87c2.334 0 5.33 1.83 5.33 5.33 0 2.785-2.095 5.118-4.88 5.357l4.64 6.4a1.04 1.04 0 0 1 .238.689c0 .637-.6 1.14-1.22 1.14zm-4.137-16.654h-5.675v6.206h5.65c1.724 0 3.103-1.406 3.103-3.13 0-1.803-1.538-3.076-3.076-3.076zM129.1 643.6h-11.03c-.636 0-1.167-.504-1.167-1.114V625.85c0-.636.53-1.14 1.167-1.14h11.03c.7 0 1.114.504 1.114 1.113 0 .558-.397 1.14-1.114 1.14h-9.918v5.357h6.948a1.13 1.13 0 0 1 1.141 1.14c0 .6-.45 1.14-1.14 1.14h-6.948v6.736h9.918c.716 0 1.114.557 1.114 1.14 0 .6-.424 1.114-1.114 1.114zm12.973 0h-8.062c-.636 0-1.167-.504-1.167-1.114V625.85c0-.77.6-1.14 1.114-1.14.583 0 1.166.37 1.166 1.113v15.515h6.948a1.12 1.12 0 0 1 1.114 1.113c0 .637-.504 1.14-1.114 1.14z"/><use xlink:href="#e" x="17.375" y="-100.09"/><path d="M164.008 643.6h-11.032c-.636 0-1.167-.504-1.167-1.114V625.85c0-.636.53-1.14 1.167-1.14h11.032c.7 0 1.114.504 1.114 1.113 0 .558-.397 1.14-1.114 1.14H154.1v5.357h6.948a1.13 1.13 0 0 1 1.141 1.14c0 .6-.45 1.14-1.14 1.14h-6.948v6.736h9.918c.716 0 1.114.557 1.114 1.14 0 .6-.424 1.114-1.114 1.114zm15.942-16.627h-9.918v5.357h6.948a1.13 1.13 0 0 1 1.141 1.14c0 .6-.45 1.14-1.14 1.14h-6.948v7.876a1.14 1.14 0 0 1-1.114 1.114c-.636 0-1.167-.504-1.167-1.114V625.85c0-.636.53-1.14 1.167-1.14h11.032c.7 0 1.114.504 1.114 1.113 0 .558-.397 1.14-1.114 1.14z"/></g><g fill="#459957" class="V"><path d="M50.01 409.992a1.09 1.09 0 0 1-1.114-1.141v-12.198l-5.145 9.6c-.345.663-.85.716-1.06.716-.132 0-.69-.053-1.06-.716l-5.12-9.547v12.146c0 .743-.557 1.14-1.166 1.14a1.09 1.09 0 0 1-1.114-1.141v-16.574c0-.875.6-1.193 1.22-1.193.398 0 .716.186.955.663l6.285 11.695L49 391.747c.266-.53.584-.663 1.035-.663.584 0 1.14.37 1.14 1.193v16.574c0 .743-.557 1.14-1.167 1.14z"/><use xlink:href="#b" x="3.633" y="-300.352"/><path d="M79.903 409.966H71.84c-.636 0-1.167-.504-1.167-1.114v-16.628c0-.77.6-1.14 1.114-1.14.583 0 1.166.37 1.166 1.113v15.515H79.9a1.12 1.12 0 0 1 1.114 1.113c0 .637-.504 1.14-1.114 1.14zM91 393.338h-4.402v15.514c0 .717-.53 1.114-1.114 1.114-.557 0-1.14-.397-1.14-1.114v-15.514h-4.35c-.77 0-1.166-.583-1.166-1.14 0-.53.397-1.113 1.14-1.113H91c.743 0 1.14.583 1.14 1.113 0 .558-.398 1.14-1.14 1.14z"/><use xlink:href="#e" x="-33.973" y="-333.714"/><path d="M105.843 410.417c-1.936 0-4.64-.796-6.153-2.2-.29-.266-.37-.558-.37-.822a1.15 1.15 0 0 1 1.14-1.141c.398 0 .53.133 1.008.504 1.3.98 2.838 1.405 4.376 1.405 3.156 0 4.535-1.14 4.535-3.103 0-5.516-10.58-2.387-10.58-9.6 0-3.236 2.73-4.854 6.232-4.854 1.83 0 4.456.716 5.755 2.254.212.24.29.478.29.716 0 .637-.584 1.193-1.14 1.193-.398 0-.6-.186-1.06-.583-1.06-.9-2.413-1.3-3.845-1.3-2.864 0-3.95 1.14-3.95 2.573 0 4.96 10.58 2.015 10.58 9.6 0 3.95-3.315 5.357-6.815 5.357z"/><use xlink:href="#f" x="-42.222" y="-333.714"/><path d="M142.972 407.526c-1.3 1.803-3.156 2.9-5.914 2.9-5.702 0-7.717-4.72-7.717-9.893 0-5.197 2.016-9.918 7.717-9.918 2.68 0 4.64 1.06 5.887 2.9a1.02 1.02 0 0 1 .239.663c0 .637-.557 1.113-1.166 1.113-.345 0-.663-.158-.902-.477-.822-1.193-2.042-1.9-4.058-1.9-3.766 0-5.437 2.785-5.437 7.638s1.67 7.638 5.437 7.638c2.016 0 3.235-.77 4.058-1.936.24-.345.557-.504.902-.504.6 0 1.193.504 1.193 1.14 0 .212-.08.424-.24.663zm12.996-14.188h-4.402v15.514c0 .717-.53 1.114-1.114 1.114-.557 0-1.14-.397-1.14-1.114v-15.514h-4.35c-.77 0-1.167-.583-1.167-1.14 0-.53.397-1.113 1.14-1.113h11.032c.743 0 1.14.583 1.14 1.113 0 .558-.398 1.14-1.14 1.14z"/><use xlink:href="#V" x="107.651" y="-266.988"/><path d="M187.952 409.992c-.292 0-.637-.16-.875-.478l-5.516-7.717h-3.42v7.027c0 .743-.557 1.14-1.167 1.14-.557 0-1.114-.397-1.114-1.114v-16.628c0-.477.318-1.14 1.114-1.14h6.87c2.333 0 5.33 1.83 5.33 5.33 0 2.785-2.095 5.118-4.88 5.357l4.64 6.39a1.04 1.04 0 0 1 .238.689c0 .637-.6 1.14-1.22 1.14zm-4.137-16.654h-5.675v6.206h5.65c1.724 0 3.103-1.406 3.103-3.13 0-1.803-1.538-3.076-3.076-3.076z"/></g><path d="M49.114 517.215c-1.248 1.213-2.84 1.994-4.775 2.344v2.833c0 .5-.157.893-.472 1.207s-.717.473-1.207.473a1.59 1.59 0 0 1-1.172-.473c-.315-.315-.472-.717-.472-1.207v-2.763c-1.353-.117-2.577-.408-3.673-.875s-2.146-1.166-3.148-2.1c-.5-.42-.735-.897-.735-1.435 0-.42.163-.8.5-1.137s.7-.507 1.154-.507c.396 0 .735.128 1.015.385.746.7 1.516 1.247 2.3 1.644a8.59 8.59 0 0 0 2.588.805v-8.08c-2.24-.513-3.953-1.323-5.142-2.43s-1.784-2.618-1.784-4.53c0-1.842.635-3.364 1.906-4.565s2.944-1.93 5.02-2.187v-1.82c0-.5.163-.892.5-1.207a1.71 1.71 0 0 1 1.225-.472c.466 0 .85.158 1.154.472s.455.717.455 1.207v1.854a11.64 11.64 0 0 1 3.043.875c.943.42 1.714.933 2.343 1.54.537.467.805.968.805 1.504 0 .42-.157.793-.472 1.12a1.52 1.52 0 0 1-1.137.49c-.327 0-.595-.093-.805-.28-.42-.42-.968-.805-1.644-1.154a8.71 8.71 0 0 0-2.134-.77v7.765c2.24.584 3.906 1.394 5.002 2.43s1.644 2.57 1.644 4.6c0 1.75-.624 3.23-1.87 4.442zm-10.774-13.73c.618.572 1.5 1.044 2.676 1.417v-7.066c-1.12.187-2 .583-2.64 1.2s-.962 1.34-.962 2.204c0 .933.3 1.685.927 2.256zm8.377 11.5c.606-.583.9-1.27.9-2.064-.023-.886-.3-1.626-.857-2.22s-1.36-1.1-2.43-1.486v7.03c.98-.257 1.772-.677 2.378-1.26zm32.765 14.795h-2.7v4.914c0 1.7-1.45 2.646-2.7 2.646-1.323 0-2.7-.945-2.7-2.646v-4.914H56.297c-1.764 0-2.835-1.07-2.835-2.52 0-.378.063-.882.378-1.386l17.4-33.077c.504-1.008 1.45-1.45 2.268-1.45 1.45 0 2.835 1.134 2.835 2.583 0 .44-.063.882-.378 1.386l-15.247 29.107h10.647v-7.182c0-1.827 1.323-2.772 2.646-2.772 1.386 0 2.772.882 2.772 2.7v7.245h2.7c1.764 0 2.7 1.26 2.7 2.7 0 1.387-.945 2.646-2.7 2.646zm18.118 8.2c-4.087 0-6.264-2.254-6.302-2.292 0 1.07-.802 1.604-1.68 1.604-.802 0-1.604-.535-1.604-1.604V511.78c0-1.108.802-1.643 1.604-1.643.878 0 1.68.535 1.68 1.604v7.142c1.527-1.565 3.628-2.482 6.302-2.482 6.15 0 9.586 5.042 9.586 10.77 0 5.767-3.438 10.8-9.586 10.8zm0-18.333c-3.82 0-6.302 2.98-6.302 7.524 0 4.583 2.482 7.563 6.302 7.563s6.302-2.98 6.302-7.562c0-4.545-2.482-7.524-6.302-7.524z"/><use xlink:href="#h"/><path d="M917.775 517.215c-1.248 1.213-2.84 1.994-4.775 2.344v2.833c0 .5-.157.893-.472 1.207s-.717.473-1.207.473a1.59 1.59 0 0 1-1.172-.473c-.315-.315-.472-.717-.472-1.207v-2.763c-1.353-.117-2.577-.408-3.673-.875s-2.146-1.166-3.148-2.1c-.5-.42-.735-.897-.735-1.435 0-.42.163-.8.5-1.137s.7-.507 1.154-.507c.396 0 .735.128 1.015.385.746.7 1.516 1.247 2.3 1.644a8.59 8.59 0 0 0 2.588.805v-8.08c-2.24-.513-3.953-1.323-5.142-2.43s-1.784-2.618-1.784-4.53c0-1.842.635-3.364 1.906-4.565s2.944-1.93 5.02-2.187v-1.82c0-.5.163-.892.5-1.207a1.71 1.71 0 0 1 1.225-.472c.466 0 .85.158 1.154.472s.455.717.455 1.207v1.854a11.64 11.64 0 0 1 3.043.875c.943.42 1.714.933 2.343 1.54.537.467.805.968.805 1.504 0 .42-.157.793-.472 1.12a1.52 1.52 0 0 1-1.137.49c-.327 0-.595-.093-.805-.28-.42-.42-.968-.805-1.644-1.154a8.71 8.71 0 0 0-2.134-.77v7.765c2.24.584 3.906 1.394 5.002 2.43s1.644 2.57 1.644 4.6c0 1.75-.624 3.23-1.87 4.442zM907 503.485c.618.572 1.5 1.044 2.676 1.417v-7.066c-1.12.187-2 .583-2.64 1.2s-.962 1.34-.962 2.204c0 .933.3 1.685.927 2.256zm8.377 11.5c.606-.583.9-1.27.9-2.064-.023-.886-.3-1.626-.857-2.22s-1.36-1.1-2.43-1.486v7.03c.98-.257 1.772-.677 2.378-1.26zm20.25 22.355c-1.323 0-2.646-1.008-2.646-2.646v-33.77l-5.04 4.914c-.567.567-1.197.756-1.764.756-1.512 0-2.835-1.386-2.835-2.772 0-.693.252-1.323.82-1.9l9.388-9.072c.756-.693 1.575-1.008 2.33-1.008 1.764 0 2.52 1.764 2.52 3.213v39.566c0 1.7-1.323 2.7-2.772 2.7zm21.61 1.07c-13.293 0-14.365-13.546-14.365-23.5 0-11.782 2.583-23.564 14.365-23.564 5.292 0 9.073 2.33 11.656 6.3a2.47 2.47 0 0 1 .567 1.638c0 1.45-1.323 2.583-2.772 2.583-.82 0-1.638-.378-2.268-1.26-1.638-2.457-3.78-3.843-7.183-3.843-5.985 0-8.757 5.355-8.946 17.4 2.08-2.016 5.292-3.6 8.946-3.6 7.56 0 13.546 6.552 13.546 13.924s-5.985 13.924-13.546 13.924zm0-22.492c-4.347 0-8 3.78-8.253 8.694.82 4.914 3.402 8.442 8.253 8.442 4.347 0 8.127-3.906 8.127-8.568s-3.78-8.568-8.127-8.568zm28.35 22.492c-4.85 0-9.136-2.52-11.467-6.427a2.74 2.74 0 0 1-.441-1.449c0-1.512 1.323-2.646 2.772-2.646.82 0 1.7.314 2.268 1.26a7.78 7.78 0 0 0 6.805 3.906c4.725 0 8.63-3.906 8.63-8.506 0-4.725-3.843-8.63-8.568-8.63h-.063c-1.638 0-2.646-1.26-2.646-2.646s1.07-2.7 2.7-2.7c3.843 0 6.93-2.96 6.93-6.93 0-3.78-3.087-6.867-6.93-6.867-6.1 0-6.174 6.174-9.45 6.174-1.45 0-2.835-1.134-2.835-2.646 0-.504.126-1.008.44-1.512 1.512-2.33 5.292-7.435 11.845-7.435 6.804 0 12.286 5.544 12.286 12.286 0 3.843-1.638 7.183-4.473 9.45 3.654 2.52 6.1 6.616 6.1 11.404a13.93 13.93 0 0 1-13.924 13.924zm30.97-.42c-4.087 0-6.264-2.254-6.302-2.292 0 1.07-.802 1.604-1.68 1.604-.802 0-1.604-.535-1.604-1.604V511.78c0-1.108.802-1.643 1.604-1.643.878 0 1.68.535 1.68 1.604v7.142c1.527-1.565 3.628-2.482 6.302-2.482 6.15 0 9.586 5.042 9.586 10.77 0 5.767-3.437 10.8-9.586 10.8zm0-18.333c-3.82 0-6.302 2.98-6.302 7.524 0 4.583 2.482 7.563 6.302 7.563s6.302-2.98 6.302-7.562c0-4.545-2.482-7.524-6.302-7.524z"/><use xlink:href="#h" x="918.956"/><path d="M62.26 42.382H39.82V54.5h15.72a2.56 2.56 0 0 1 2.58 2.58c0 1.38-1.02 2.58-2.58 2.58H39.82v17.82a2.58 2.58 0 0 1-2.52 2.52c-1.44 0-2.64-1.14-2.64-2.52V39.862c0-1.44 1.2-2.58 2.64-2.58h24.96c1.56 0 2.52 1.14 2.52 2.52 0 1.26-.9 2.58-2.52 2.58z"/><use xlink:href="#i"/><path d="M110.914 52.222c-4.62 0-8.52 3.9-8.52 8.58v16.62c0 1.68-1.26 2.58-2.64 2.58-1.26 0-2.52-.9-2.52-2.52v-26.76c0-1.68 1.38-2.58 2.52-2.58 1.2 0 2.34.66 2.58 2.04a13.88 13.88 0 0 1 8.58-3.06c1.74 0 2.64 1.2 2.64 2.58 0 1.32-.9 2.52-2.64 2.52zm28.488 14.458h-22.2c.84 5.64 4.44 9.24 9.72 9.24 2.7 0 5.4-.96 7.14-3.12.54-.6 1.14-.96 1.86-.96 1.32 0 2.7 1.2 2.7 2.64 0 .72-.18 1.26-1.44 2.52-2.7 2.64-6.42 4.02-10.26 4.02-9.66 0-15.06-7.98-15.06-16.98 0-8.94 5.4-16.92 15.06-16.92 9.78 0 15 7.98 15 16.92 0 1.32-.96 2.64-2.52 2.64zm-12.48-14.46c-5.64 0-8.94 4.14-9.72 9.3h19.44c-.84-5.76-4.44-9.3-9.72-9.3z"/><use xlink:href="#j"/><path d="M171.32 93.68c-3.66 0-12.72-1.32-12.72-4.92 0-1.38 1.26-2.7 2.58-2.7 1.38 0 .18.18 3.36 1.38 1.44.54 3.6 1.14 6.78 1.14 6.66 0 9.9-3.18 9.9-9.48v-2.7c-2.34 2.22-5.7 3.6-9.9 3.6-9.48 0-15.06-6.72-15.06-15.96 0-9 5.4-16.92 15.06-16.92 4.2 0 7.44 1.26 9.9 3.84v-.24c0-1.68 1.38-2.58 2.58-2.58 1.26 0 2.58.9 2.58 2.58V79.1c0 9.54-5.7 14.58-15.06 14.58zm0-41.458c-6 0-9.9 4.68-9.9 11.82 0 6.84 3.6 10.86 9.9 10.86s9.9-4.02 9.9-10.86c0-7.14-3.84-11.82-9.9-11.82zM217.28 80c-1.32 0-2.52-.9-2.52-2.52V60.8c0-4.68-3.9-8.58-8.58-8.58-4.62 0-8.52 3.9-8.52 8.58v16.62c0 1.68-1.26 2.64-2.64 2.64-1.26 0-2.52-.9-2.52-2.58V50.66c0-1.74 1.26-2.52 2.52-2.52 1.2 0 2.28.66 2.58 1.98 2.34-1.86 5.28-3 8.58-3 7.44 0 13.68 6.18 13.68 13.68v16.62c0 1.68-1.2 2.58-2.58 2.58zm50.64 0c-.9 0-1.8-.48-2.28-1.56l-3.18-7.8h-19.98l-3.24 7.8c-.48 1.08-1.38 1.56-2.22 1.56-1.32 0-2.7-1.02-2.7-2.52 0-.36.06-.72.24-1.02l15.42-37.498c.72-1.56 1.68-1.86 2.46-1.86.54 0 1.86.3 2.46 1.86l15.48 37.498c.12.3.18.66.18 1.02 0 1.5-1.26 2.52-2.64 2.52zm-15.48-33.6l-7.86 19.08h15.72l-7.86-19.08z"/><use xlink:href="#j" x="127.198"/><use xlink:href="#k"/><path d="M359.596 80c-1.32 0-2.64-.9-2.64-2.52V59.66h-19.8v17.82c0 1.62-1.38 2.52-2.52 2.52-1.32 0-2.64-.9-2.64-2.52V39.802c0-1.68 1.32-2.52 2.64-2.52 1.14 0 2.52.84 2.52 2.52v14.76h19.8v-14.7c0-1.74 1.38-2.58 2.52-2.58 1.32 0 2.64.84 2.64 2.58V77.42c0 1.68-1.38 2.58-2.52 2.58zm38.22 0c-3.3 0-4.8-2.34-5.34-3.42-2.4 2.64-5.88 4.44-10.56 4.44-9.78 0-15.06-8.04-15.06-16.98s5.4-16.92 15.06-16.92c4.2 0 7.56 1.5 9.9 3.96v-.24c0-.66.24-2.7 2.52-2.7 1.26 0 2.64.66 2.64 2.52v23.16c0 .78.54 1.08.84 1.08 1.68 0 2.58 1.2 2.58 2.58 0 1.26-.9 2.52-2.58 2.52zm-15.9-27.78c-6 0-9.9 4.68-9.9 11.82 0 7.2 3.9 11.88 9.9 11.88 6.06 0 9.9-4.68 9.9-11.88 0-7.14-3.84-11.82-9.9-11.82zm31.68 28.8c-3.3 0-8.82-1.02-11.64-4.5-.36-.54-.54-1.08-.54-1.56 0-1.5 1.44-2.7 2.7-2.7.72 0 1.26.36 1.86 1.02 1.86 2.04 4.92 2.64 7.62 2.64 5.4 0 7.14-1.86 7.14-4.56 0-7.68-18.3-2.94-18.3-15.3 0-6.54 6.12-8.94 11.82-8.94 3.24 0 10.86 1.62 10.86 4.98 0 1.32-1.08 2.7-2.52 2.7-.54 0-1.38-.3-1.98-.78-1.62-1.38-3.96-1.8-6.36-1.8-4.98 0-6.72 1.86-6.72 3.84 0 7.14 18.36 2.52 18.36 15.3 0 7.08-5.94 9.66-12.3 9.66zm55.98-1.02h-24.96c-1.44 0-2.64-1.14-2.64-2.52V39.862c0-1.44 1.2-2.58 2.64-2.58h24.96c1.56 0 2.52 1.14 2.52 2.52 0 1.26-.9 2.58-2.52 2.58h-22.44V54.5h15.72a2.56 2.56 0 0 1 2.58 2.58c0 1.38-1.02 2.58-2.58 2.58h-15.72V74.9h22.44c1.62 0 2.52 1.26 2.52 2.58 0 1.38-.96 2.52-2.52 2.52zm29.94.06c-.72 0-1.38-.24-1.92-.96l-9.78-11.94-9.78 11.94c-.6.6-1.26.9-1.92.9-1.38 0-2.7-1.14-2.7-2.52 0-.54.24-1.2.72-1.74l10.32-12.66-8.82-10.74c-.48-.54-.66-1.14-.66-1.68 0-1.44 1.32-2.58 2.7-2.58a2.32 2.32 0 0 1 1.92.96l8.22 10.08 8.28-10.08c.54-.66 1.14-.96 1.8-.96 1.38 0 2.76 1.14 2.76 2.58 0 .54-.24 1.08-.66 1.62l-8.88 10.8 10.44 12.66c.48.54.66 1.2.66 1.74 0 1.44-1.38 2.58-2.7 2.58zm20.46.96c-4.2 0-7.5-1.44-9.9-3.96v13.02c0 1.68-1.26 2.58-2.64 2.58-1.26 0-2.52-.9-2.52-2.58V50.722c0-1.68 1.26-2.58 2.52-2.58 1.38 0 2.64.9 2.64 2.58 0 0 3.54-3.66 9.9-3.66 9.66 0 15.06 7.92 15.06 16.92 0 9.12-5.4 17.04-15.06 17.04zm0-28.86c-5.94 0-9.9 4.74-9.9 11.82 0 7.2 3.9 11.94 9.9 11.94s9.9-4.68 9.9-11.88c0-7.14-3.9-11.88-9.9-11.88zm25.44 27.96c-3.24 0-6-2.76-6-6.12V39.862c0-1.74 1.26-2.58 2.58-2.58s2.58.84 2.58 2.52V74c0 .72.54 1.02.84 1.02 1.68 0 2.58 1.2 2.58 2.58 0 1.32-.9 2.52-2.58 2.52z"/><use xlink:href="#i" x="487.299"/><use xlink:href="#k" x="299.695"/><path d="M645.554 66.68h-22.2c.84 5.64 4.44 9.24 9.72 9.24 2.7 0 5.4-.96 7.14-3.12.54-.6 1.14-.96 1.86-.96 1.32 0 2.7 1.2 2.7 2.64 0 .72-.18 1.26-1.44 2.52-2.7 2.64-6.42 4.02-10.26 4.02-9.66 0-15.06-7.98-15.06-16.98 0-8.94 5.4-16.92 15.06-16.92 9.78 0 15 7.98 15 16.92 0 1.32-.96 2.64-2.52 2.64zm-12.48-14.46c-5.64 0-8.94 4.14-9.72 9.3h19.438c-.84-5.76-4.44-9.3-9.72-9.3z"/><use xlink:href="#k" x="367.314"/><g class="W"><path d="M58.353 128c-.53 0-1.063-.38-1.063-1.063v-20.63L48.247 123.1c-.228.494-.57.684-.874.684-.418 0-.76-.228-1.025-.684l-9.005-16.793v20.63c0 .684-.57 1.063-1.063 1.063-.532 0-1.103-.38-1.103-1.063v-24.925c0-.646.57-1.063 1.14-1.063.38 0 .684.15.91.53l10.07 18.808 10.106-18.808a1.03 1.03 0 0 1 .911-.531c.57 0 1.14.418 1.14 1.063v24.925c0 .684-.57 1.063-1.103 1.063z"/><use xlink:href="#l"/><use xlink:href="#m"/><path d="M124.816 118.996H109.05c.342 4.332 3.153 7.485 7.295 7.485 2.052 0 4.483-.912 5.585-2.622.267-.418.57-.53.912-.53.57 0 1.178.455 1.178 1.025 0 .342 0 .418-.722 1.254-1.748 2.052-4.293 3.04-6.953 3.04-6.117 0-9.536-5.015-9.536-10.752 0-5.7 3.42-10.715 9.536-10.715s9.537 5.054 9.537 10.715c0 .57-.532 1.102-1.064 1.102zm-8.473-9.65c-4.56 0-6.953 3.495-7.295 7.485h14.628c-.342-4.332-3.153-7.485-7.333-7.485zm29.677-.001L135.723 133.7c-.76 1.786-2.317 2.28-4.064 2.28h-1.672c-.685 0-1.064-.57-1.064-1.102 0-.494.38-1.063 1.064-1.063h1.672c.835 0 1.7-.038 2.05-.912l2.166-5.167-7.865-18.4c-.075-.2-.075-.342-.075-.494 0-.607.53-1.025 1.102-1.025.342 0 .76.15.95.646l7.066 16.5 7-16.5c.2-.494.607-.646.987-.646.57 0 1.064.418 1.064 1.025 0 .152 0 .304-.076.494zm20.254 27.32c-3.23 0-7.8-1.216-7.8-2.584 0-.608.494-1.216 1.103-1.216.418 0 1.3.646 2.014.912.987.342 2.545.722 4.673.722 4.863 0 7.37-2.394 7.37-7.067v-2.66c-1.672 2.014-4.065 3.23-7.37 3.23-6.003 0-9.536-4.256-9.536-10.106 0-5.7 3.42-10.715 9.536-10.715 3.306 0 5.775 1.368 7.37 3.572v-1.824c0-.684.57-1.063 1.102-1.063.494 0 1.064.38 1.064 1.063v18.503c0 6.04-3.6 9.233-9.537 9.233zm0-27.318c-4.483 0-7.37 3.6-7.37 8.55 0 4.9 2.698 7.94 7.37 7.94s7.37-3.04 7.37-7.94c0-4.94-2.85-8.55-7.37-8.55z"/><use xlink:href="#n"/><path d="M202.753 109.307l-7.484 17.82c-.23.494-.57.874-1.064.874s-.874-.38-1.102-.874l-7.485-17.78c-.075-.2-.075-.342-.075-.494 0-.607.53-1.025 1.102-1.025.342 0 .76.15.95.646l6.6 15.616 6.573-15.616c.23-.494.608-.684.988-.684.57 0 1.102.418 1.102 1.025 0 .114 0 .305-.114.494z"/><use xlink:href="#o"/><use xlink:href="#m" x="141.7"/><use xlink:href="#p"/><use xlink:href="#l" x="204.552"/><path d="M308.694 128.646c-3.306 0-5.775-1.367-7.37-3.61v9.84c0 .684-.57 1.102-1.063 1.102-.532 0-1.103-.418-1.103-1.102V108.89c0-.684.57-1.063 1.103-1.063.494 0 1.063.38 1.063 1.063v1.862c1.596-2.204 4.065-3.572 7.37-3.572 6.117 0 9.536 5.016 9.536 10.715 0 5.737-3.42 10.752-9.536 10.752zm0-19.3c-4.52 0-7.37 3.61-7.37 8.55s2.85 8.587 7.37 8.587 7.37-3.647 7.37-8.587-2.85-8.55-7.37-8.55z"/><use xlink:href="#l" x="257.9"/><use xlink:href="#l" x="279.864"/><use xlink:href="#q"/><use xlink:href="#o" x="171.026"/><use xlink:href="#q" x="32.861"/><use xlink:href="#m" x="333.053"/><path d="M460.567 128h-.038c-1.254 0-3.04-.684-3.762-2.964-1.596 2.242-4.065 3.61-7.37 3.61-6.193 0-9.536-5.09-9.536-10.752 0-5.737 3.42-10.715 9.536-10.715 3.306 0 5.775 1.368 7.37 3.572v-1.862c0-.607.494-1.063 1.102-1.063.532 0 1.064.38 1.064 1.063V124.2c0 2.432 2.735.912 2.735 2.736a1.04 1.04 0 0 1-1.102 1.063zm-11.17-18.655c-4.483 0-7.37 3.61-7.37 8.55s2.888 8.587 7.37 8.587c4.52 0 7.37-3.647 7.37-8.587s-2.85-8.55-7.37-8.55z"/><use xlink:href="#p" x="206.441"/><use xlink:href="#n" x="294.636"/><use xlink:href="#l" x="417.792"/><use xlink:href="#m" x="417.794"/><path d="M531.82 128.722c-2.28 0-6.117-.798-7.447-3-.15-.23-.15-.418-.15-.57 0-.607.53-1.14 1.102-1.14.228 0 .607.19.836.532 1.367 1.67 3.8 2.014 5.66 2.014 3.686 0 5.547-1.216 5.547-3.686 0-5.737-12.462-2.698-12.462-10.297 0-3.837 3.837-5.32 7.295-5.32 1.976 0 5.015.685 6.535 2.204.228.228.342.494.342.722 0 .57-.57 1.14-1.178 1.14-.23 0-.494-.076-.722-.304-1.178-1.14-3.306-1.596-4.978-1.596-3.344 0-5.13 1.292-5.13 3.153 0 5.32 12.462 2.508 12.462 10.297 0 4.33-3.8 5.85-7.713 5.85z"/></g><defs ><path id="K" d="M104.714 1045.51c-.633 0-1.267-.367-1.4-1.1-1.334 1.034-2.97 1.668-4.804 1.668-4.136 0-7.604-3.436-7.604-7.605v-9.24a1.37 1.37 0 0 1 1.4-1.435c.768 0 1.468.5 1.468 1.4v9.272c0 2.602 2.168 4.77 4.736 4.77 2.603 0 4.77-2.17 4.77-4.77v-9.24c0-1.034.667-1.468 1.4-1.468.768 0 1.435.5 1.435 1.435v14.9c0 .934-.667 1.4-1.4 1.4z"/><path id="L" d="M769.665 1046.357c-1.2 0-3.22-.42-3.92-1.58-.08-.12-.08-.22-.08-.3 0-.32.28-.602.58-.602.12 0 .32.102.44.28.72.88 2 1.06 2.98 1.06 1.94 0 2.92-.64 2.92-1.94 0-3.02-6.562-1.42-6.562-5.422 0-2.02 2.02-2.8 3.84-2.8 1.04 0 2.64.36 3.44 1.16.12.12.18.26.18.38a.65.65 0 0 1-.62.6c-.12 0-.26-.04-.38-.16-.62-.6-1.74-.84-2.62-.84-1.76 0-2.7.682-2.7 1.66 0 2.8 6.562 1.32 6.562 5.422 0 2.28-2 3.08-4.06 3.08z"/><path id="M" d="M780.386 1046.318c-3.22 0-5.02-2.64-5.02-5.662 0-3 1.8-5.64 5.02-5.64s5.02 2.64 5.02 5.64c0 3.02-1.8 5.662-5.02 5.662zm0-10.162c-2.36 0-3.88 1.9-3.88 4.5s1.52 4.52 3.88 4.52c2.38 0 3.88-1.92 3.88-4.52s-1.5-4.5-3.88-4.5z"/><path id="N" d="M804.125 1036.336a3.42 3.42 0 0 0-3.421 3.42v5.662c0 .36-.3.56-.56.56-.28 0-.58-.2-.58-.56v-9.502c0-.36.3-.56.58-.56.26 0 .56.2.56.56v.82c.9-.98 2.08-1.54 3.42-1.54.36 0 .58.3.58.56a.58.58 0 0 1-.58.58z"/><path id="O" d="M814.306 1044.797c-.88.98-2.1 1.52-3.58 1.52-3.22 0-5.02-2.64-5.02-5.662 0-3 1.8-5.64 5.02-5.64 1.48 0 2.7.54 3.58 1.52.12.12.16.262.16.38 0 .3-.28.6-.58.6-.14 0-.28-.06-.42-.2-.66-.74-1.58-1.16-2.74-1.16-2.36 0-3.88 1.9-3.88 4.5s1.52 4.52 3.88 4.52c1.16 0 2.08-.44 2.74-1.16.14-.14.28-.2.42-.2.3 0 .58.26.58.58 0 .14-.04.26-.16.398z"/><path id="P" d="M930.56 1045.98c-.28 0-.58-.2-.58-.56v-5.842c0-1.9-1.52-3.42-3.42-3.42a3.42 3.42 0 0 0-3.421 3.42v5.842c0 .36-.3.56-.56.56-.28 0-.58-.2-.58-.56v-9.502c0-.36.3-.56.58-.56.26 0 .56.2.56.56v.64c.9-.98 2.08-1.54 3.42-1.54a4.6 4.6 0 0 1 4.561 4.561v5.842c0 .36-.3.56-.56.56z"/><path id="Q" d="M946.94 1045.98h-.62c-1.58 0-2.36-.78-2.36-2.342v-7.14h-1.02c-.36 0-.56-.3-.56-.58 0-.26.2-.56.56-.56h1.02v-3.06c0-.36.3-.56.58-.56s.56.2.56.56v3.06h1.84c.36 0 .56.3.56.56 0 .28-.2.58-.56.58h-1.84v7.14c0 .98.28 1.2 1.22 1.2h.62c.36 0 .56.3.56.58 0 .26-.2.56-.56.56z"/><path id="R" d="M959.76 1045.98h-.02c-.66 0-1.6-.36-1.98-1.56-.84 1.18-2.14 1.9-3.88 1.9-3.26 0-5.02-2.682-5.02-5.662 0-3.02 1.8-5.64 5.02-5.64 1.74 0 3.04.72 3.88 1.88v-.98c0-.32.26-.56.58-.56.28 0 .56.2.56.56v8.063c0 1.28 1.44.48 1.44 1.44a.55.55 0 0 1-.58.561zm-5.88-9.822c-2.36 0-3.88 1.9-3.88 4.5s1.52 4.52 3.88 4.52c2.38 0 3.88-1.92 3.88-4.52s-1.5-4.5-3.88-4.5z"/><path id="S" d="M1011.24 1046.098c-1.08 0-1.98-1-1.98-2.12v-11.684c0-.36.3-.56.58-.56.26 0 .56.2.56.56v11.684c0 1.28 1.42.54 1.42 1.44 0 .34-.24.68-.58.68z"/><path id="T" d="M73.486 998.438c-3.776 0-5.568-3.52-5.568-11.87s1.792-11.87 5.568-11.87 5.567 3.52 5.567 11.87-1.79 11.87-5.567 11.87zm0-21.823c-2.112 0-3.264 2.368-3.264 9.952s1.152 9.95 3.264 9.95 3.264-2.368 3.264-9.95-1.152-9.952-3.264-9.952z"/><path id="U" d="M716.253 998.438c-3.776 0-5.568-3.52-5.568-11.87s1.792-11.87 5.568-11.87 5.567 3.52 5.567 11.87-1.792 11.87-5.567 11.87zm0-21.823c-2.112 0-3.264 2.368-3.264 9.952s1.152 9.95 3.264 9.95 3.264-2.368 3.264-9.95-1.152-9.952-3.264-9.952z"/><path id="V" d="M57.703 677.405c-5.702 0-7.717-4.72-7.717-9.893 0-5.197 2.016-9.918 7.717-9.918 5.675 0 7.717 4.72 7.717 9.918 0 5.172-2.042 9.893-7.717 9.893zm0-17.53c-3.766 0-5.437 2.785-5.437 7.638s1.67 7.638 5.437 7.638c3.74 0 5.437-2.784 5.437-7.638s-1.697-7.638-5.437-7.638z"/><path id="W" d="M83.987 676.98a1.09 1.09 0 0 1-1.114-1.141v-12.198l-5.145 9.6c-.345.663-.85.716-1.06.716-.132 0-.69-.053-1.06-.716l-5.12-9.547v12.146c0 .743-.557 1.14-1.166 1.14a1.09 1.09 0 0 1-1.114-1.141v-16.574c0-.875.6-1.193 1.22-1.193.398 0 .716.186.955.663l6.285 11.695 6.312-11.695c.266-.53.584-.663 1.035-.663.584 0 1.14.37 1.14 1.193v16.574c0 .743-.557 1.14-1.167 1.14z"/><path id="X" d="M146.322 676.954h-3.05c-.716 0-1.114-.557-1.114-1.114 0-.61.397-1.14 1.114-1.14h.398v-14.374h-.398c-.716 0-1.114-.557-1.114-1.114 0-.61.397-1.14 1.114-1.14h3.05c.77 0 1.167.53 1.167 1.14 0 .558-.398 1.114-1.167 1.114h-.398V674.7h.398c.77 0 1.167.53 1.167 1.14 0 .558-.398 1.114-1.167 1.114z"/><path id="Y" d="M196.504 676.954c-.398 0-.796-.212-1.008-.69l-1.406-3.447h-8.83l-1.432 3.447c-.212.478-.6.69-.98.69-.583 0-1.193-.45-1.193-1.114 0-.158.026-.317.106-.45l6.815-16.575c.318-.69.743-.822 1.087-.822.24 0 .822.133 1.087.822l6.842 16.575c.053.133.08.292.08.45 0 .663-.557 1.114-1.167 1.114zm-6.842-14.85l-3.474 8.433h6.948l-3.474-8.433z"/><path id="Z" d="M73.087 377.054c-5.702 0-7.717-4.72-7.717-9.892 0-5.198 2.016-9.918 7.717-9.918 5.675 0 7.717 4.72 7.717 9.918 0 5.17-2.042 9.892-7.717 9.892zm0-17.53c-3.766 0-5.437 2.785-5.437 7.638s1.67 7.638 5.437 7.638c3.74 0 5.437-2.785 5.437-7.638s-1.697-7.638-5.437-7.638z"/><path id="a" d="M129.742 374.163c-1.3 1.804-3.156 2.89-5.914 2.89-5.702 0-7.717-4.72-7.717-9.892 0-5.198 2.016-9.918 7.717-9.918 2.68 0 4.64 1.06 5.887 2.89a1.02 1.02 0 0 1 .239.663c0 .636-.557 1.114-1.167 1.114-.345 0-.663-.16-.9-.478-.822-1.193-2.042-1.91-4.058-1.91-3.766 0-5.437 2.785-5.437 7.638s1.67 7.638 5.437 7.638c2.016 0 3.235-.77 4.058-1.936.24-.345.557-.504.9-.504.6 0 1.194.504 1.194 1.14 0 .212-.08.424-.24.663z"/><path id="b" d="M57.28 710.795c-3.633 0-6.656-2.917-6.656-6.656v-11.6c0-.742.557-1.113 1.14-1.113s1.14.37 1.14 1.113v11.6c0 2.44 1.963 4.402 4.376 4.402a4.41 4.41 0 0 0 4.402-4.402v-11.563c0-.77.53-1.14 1.114-1.14.6 0 1.14.37 1.14 1.113v11.6c0 3.633-2.917 6.656-6.656 6.656z"/><path id="c" d="M115.58 710.317c-.345 0-.716-.186-.955-.583l-8.91-13.393v12.835c0 .743-.557 1.14-1.166 1.14-.557 0-1.114-.397-1.114-1.114v-16.628c0-.742.583-1.14 1.167-1.14.372 0 .69.16.955.557l8.91 13.393v-12.8c0-.77.557-1.14 1.114-1.14.6 0 1.166.37 1.166 1.113v16.628c0 .716-.583 1.14-1.166 1.14z"/><path id="d" d="M123.245 710.317h-3.05c-.716 0-1.114-.557-1.114-1.114 0-.61.397-1.14 1.114-1.14h.398V693.69h-.398c-.716 0-1.114-.557-1.114-1.114 0-.61.397-1.14 1.114-1.14h3.05c.77 0 1.167.53 1.167 1.14 0 .558-.398 1.114-1.167 1.114h-.398v14.374h.398c.77 0 1.167.53 1.167 1.14 0 .558-.398 1.114-1.167 1.114z"/><path id="e" d="M130.958 743.68h-3.05c-.716 0-1.114-.557-1.114-1.114 0-.61.398-1.14 1.114-1.14h.398v-14.374h-.398c-.716 0-1.114-.557-1.114-1.114 0-.61.398-1.14 1.114-1.14h3.05c.77 0 1.167.53 1.167 1.14 0 .558-.398 1.114-1.167 1.114h-.398v14.374h.398c.77 0 1.167.53 1.167 1.14 0 .558-.398 1.114-1.167 1.114z"/><path id="f" d="M169.178 743.68h-11.032c-.636 0-1.167-.504-1.167-1.114v-16.628c0-.636.53-1.14 1.167-1.14h11.032c.69 0 1.114.504 1.114 1.113 0 .558-.397 1.14-1.114 1.14h-9.918v5.357h6.948a1.13 1.13 0 0 1 1.141 1.14c0 .6-.45 1.14-1.14 1.14h-6.948v6.736h9.918c.716 0 1.114.557 1.114 1.14 0 .6-.424 1.114-1.114 1.114z"/><path id="g" d="M81.07 307.438c-1.3 1.804-3.156 2.89-5.914 2.89-5.702 0-7.717-4.72-7.717-9.892 0-5.198 2.016-9.918 7.717-9.918 2.68 0 4.64 1.06 5.887 2.89a1.02 1.02 0 0 1 .239.663c0 .636-.557 1.114-1.166 1.114-.345 0-.663-.16-.902-.478-.822-1.193-2.042-1.91-4.058-1.91-3.766 0-5.437 2.785-5.437 7.638s1.67 7.638 5.437 7.638c2.016 0 3.235-.77 4.058-1.936.24-.345.557-.504.902-.504.6 0 1.193.504 1.193 1.14 0 .212-.08.424-.24.663z"/><path id="h" d="M125.216 537.33c-.84 0-1.604-.573-1.604-1.604v-10.617c0-2.98-2.482-5.462-5.46-5.462-2.94 0-5.423 2.482-5.423 5.462v10.58c0 1.07-.802 1.68-1.68 1.68a1.57 1.57 0 0 1-1.604-1.643v-17.07c0-1.108.802-1.604 1.604-1.604.764 0 1.45.42 1.643 1.26 1.49-1.185 3.36-1.9 5.46-1.9 4.736 0 8.708 3.934 8.708 8.708v10.58c0 1.07-.764 1.643-1.643 1.643z"/><path id="i" d="M77.435 81.02c-9.66 0-15.06-7.92-15.06-16.98 0-9 5.4-16.92 15.06-16.92s15.06 7.92 15.06 16.92c0 9.06-5.4 16.98-15.06 16.98zm0-28.8c-6 0-9.9 4.68-9.9 11.82 0 7.2 3.9 11.88 9.9 11.88 6.06 0 9.9-4.68 9.9-11.88 0-7.14-3.84-11.82-9.9-11.82z"/><path id="j" d="M148.762 43.282a4.3 4.3 0 1 1 0-8.64 4.3 4.3 0 1 1 0 8.64zm0 36.72c-1.32 0-2.64-.9-2.64-2.52v-26.76c0-1.68 1.32-2.58 2.64-2.58 1.26 0 2.52.9 2.52 2.58v26.76c0 1.68-1.26 2.52-2.52 2.52z"/><path id="k" d="M310.998 79.94c-1.32 0-2.58-.84-2.58-2.52 0 0-3.54 3.6-9.9 3.6-9.66 0-15.06-7.92-15.06-16.98 0-9 5.4-16.92 15.06-16.92 4.2 0 7.56 1.44 9.9 3.9v-11.16c0-1.74 1.26-2.58 2.58-2.58s2.58.84 2.58 2.52V77.42c0 1.68-1.26 2.52-2.58 2.52zm-12.48-27.72c-6 0-9.9 4.68-9.9 11.82 0 7.2 3.9 11.88 9.9 11.88 6.06 0 9.9-4.68 9.9-11.88 0-7.14-3.84-11.82-9.9-11.82z"/><path id="l" d="M72.758 128.646c-6.117 0-9.536-5.015-9.536-10.752 0-5.7 3.42-10.715 9.536-10.715s9.537 5.016 9.537 10.715c0 5.737-3.42 10.752-9.537 10.752zm0-19.3c-4.483 0-7.37 3.61-7.37 8.55s2.888 8.587 7.37 8.587c4.52 0 7.37-3.647 7.37-8.587s-2.85-8.55-7.37-8.55z"/><path id="m" d="M102.32 128c-.53 0-1.102-.38-1.102-1.063v-11.095a6.47 6.47 0 0 0-6.497-6.497c-3.57 0-6.497 2.888-6.497 6.497v11.095c0 .684-.57 1.063-1.063 1.063-.532 0-1.103-.38-1.103-1.063V108.89c0-.684.57-1.063 1.103-1.063.494 0 1.063.38 1.063 1.063v1.216c1.7-1.86 3.95-2.926 6.497-2.926 4.71 0 8.663 3.914 8.663 8.663v11.095c0 .684-.57 1.063-1.064 1.063z"/><path id="n" d="M181.552 104.178a2.14 2.14 0 1 1 0-4.332 2.14 2.14 0 0 1 0 4.332zm0 23.822c-.532 0-1.103-.342-1.103-1.063V108.89c0-.684.532-1.063 1.103-1.063.494 0 1.063.342 1.063 1.063v18.048c0 .684-.494 1.063-1.063 1.063z"/><path id="o" d="M222.93 118.996h-15.768c.342 4.332 3.153 7.485 7.295 7.485 2.052 0 4.483-.912 5.585-2.622.267-.418.57-.53.912-.53.57 0 1.178.455 1.178 1.025 0 .342 0 .418-.722 1.254-1.748 2.052-4.293 3.04-6.953 3.04-6.117 0-9.536-5.015-9.536-10.752 0-5.7 3.42-10.715 9.536-10.715s9.537 5.054 9.537 10.715c0 .57-.532 1.102-1.064 1.102zm-8.473-9.65c-4.56 0-6.953 3.495-7.295 7.485h14.628c-.342-4.332-3.153-7.485-7.333-7.485z"/><path id="p" d="M264.882 128h-1.178c-3 0-4.483-1.48-4.483-4.445V109.99h-1.937c-.684 0-1.063-.57-1.063-1.102 0-.494.38-1.063 1.063-1.063h1.938v-5.813c0-.684.57-1.063 1.103-1.063s1.063.38 1.063 1.063v5.813h3.495c.685 0 1.064.57 1.064 1.063 0 .532-.38 1.102-1.064 1.102h-3.495v13.564c0 1.86.532 2.28 2.317 2.28h1.178c.685 0 1.064.57 1.064 1.103 0 .493-.38 1.063-1.064 1.063z"/><path id="q" d="M374.585 109.687c-3.57 0-6.497 2.888-6.497 6.497v10.753c0 .684-.57 1.063-1.063 1.063-.532 0-1.103-.38-1.103-1.063V108.89c0-.684.57-1.063 1.103-1.063.494 0 1.063.38 1.063 1.063v1.558c1.7-1.86 3.95-2.925 6.497-2.925.684 0 1.102.57 1.102 1.063 0 .532-.418 1.102-1.102 1.102z"/></defs></svg>