<svg xmlns="http://www.w3.org/2000/svg" xmlns:xlink="http://www.w3.org/1999/xlink" version="1.1" x="0px" y="0px" viewBox="0 0 100 125" enable-background="new 0 0 100 100" xml:space="preserve"><path d="M93.1,29.4c-0.3-1.7-0.7-3-1.2-4c-1.4-2.9-3.4-3.4-4.6-3.4c-1,0-2.7,0.3-4,2.3h-4.5c0,0,0,0,0,0l-2,0c-1.3-1.9-3-2.3-4-2.3  c-1,0-2.7,0.3-4,2.3l-6.2,0c-1.3-1.9-3-2.3-4-2.3c-1,0-2.7,0.3-4,2.3l-6.2,0c-1.3-1.9-3-2.3-4-2.3c-1.1,0-3.2,0.5-4.6,3.4  c-0.5,1-0.9,2.3-1.2,4c-0.6,3-0.9,6.9-0.8,11.1c0,4.1,0.4,8.1,1,11.1c0,0.2,0.1,0.4,0.1,0.6c-5.6,1.2-12.9,2.5-17.2,2.5  c-7.6,0-27.5,4.9-12.3,9.7s21.7,10.2,13.7,13c-8.1,2.8-6.4,7.6,13.8,8.9c20.2,1.3,46.9-8.3,29-11.4s-34-7.1-25.6-7.8  c8.4-0.8,1.1-8.3-3.6-7.9c-2.5,0.2,0.7-1,4.1-2.1c1.3,1.7,2.8,2,3.8,2c1,0,2.7-0.3,4-2.3l6.2,0c1.3,1.9,3,2.3,4,2.3  c1,0,2.7-0.3,4-2.3l6.2,0c1.3,1.9,3,2.3,4,2.3c1,0,2.6-0.3,3.9-2.3h6.2c0.9,1.2,1.9,1.8,2.7,2c0.5,0.2,1.1,0.2,1.4,0.2  c1.1,0,3.2-0.4,4.6-3.4c0.5-1,0.9-2.3,1.2-4c0.6-3,0.9-6.9,0.9-11.1S93.7,32.4,93.1,29.4z M47,49c0,0-0.9,0.2-4.2,2.5  c0-0.1,0-0.2-0.1-0.3c0,0,0,0,0,0c0-0.1,0-0.2-0.1-0.3c0,0,0,0,0-0.1c0-0.1,0-0.2-0.1-0.4c0,0,0,0,0-0.1c0-0.1,0-0.2-0.1-0.3  c0,0,0,0,0,0c0-0.1,0-0.3-0.1-0.4c0,0,0-0.1,0-0.1c0-0.1,0-0.3-0.1-0.4l0,0c0-0.1,0-0.3-0.1-0.4c0,0,0-0.1,0-0.1  c0-0.1,0-0.3-0.1-0.4c0,0,0,0,0-0.1c0-0.1,0-0.3,0-0.4c0,0,0-0.1,0-0.1c0-0.1,0-0.3,0-0.4c0,0,0-0.1,0-0.1c0-0.1,0-0.3,0-0.4  c0,0,0,0,0-0.1c0-0.1,0-0.3,0-0.5c0,0,0-0.1,0-0.1c0-0.1,0-0.3,0-0.4c0,0,0,0,0,0c0-0.2,0-0.3,0-0.5c0,0,0-0.1,0-0.1  c0-0.2,0-0.3,0-0.5c0,0,0,0,0,0c0-0.2,0-0.3,0-0.5c0,0,0-0.1,0-0.1c0-0.2,0-0.3,0-0.5c0,0,0-0.1,0-0.1c0-0.1,0-0.3,0-0.4  c0,0,0-0.1,0-0.1c0-0.2,0-0.3,0-0.5c0,0,0-0.1,0-0.1c0-0.2,0-0.3,0-0.5c0,0,0,0,0-0.1c0-0.2,0-0.3,0-0.5c0,0,0-0.1,0-0.1  c0-0.2,0-0.4,0-0.5c0-0.2,0-0.4,0-0.5c0,0,0-0.1,0-0.1c0-0.2,0-0.3,0-0.5c0,0,0,0,0-0.1c0-0.2,0-0.3,0-0.5c0,0,0-0.1,0-0.1  c0-0.2,0-0.3,0-0.5c0,0,0-0.1,0-0.1c0-0.1,0-0.3,0-0.4c0,0,0-0.1,0-0.1c0-0.2,0-0.3,0-0.5c0,0,0-0.1,0-0.1c0-0.2,0-0.3,0-0.5  c0,0,0,0,0,0c0-0.2,0-0.3,0-0.5c0,0,0-0.1,0-0.1c0-0.2,0-0.3,0-0.5c0,0,0,0,0,0c0-0.1,0-0.3,0-0.4c0,0,0-0.1,0-0.1  c0-0.2,0-0.3,0-0.4c0,0,0,0,0-0.1c0-0.1,0-0.3,0-0.4c0,0,0-0.1,0-0.1c0-0.1,0-0.3,0-0.4c0,0,0-0.1,0-0.1c0-0.1,0-0.3,0-0.4  c0,0,0,0,0-0.1c0-0.1,0-0.3,0-0.4c0,0,0-0.1,0-0.1c0-0.1,0-0.3,0.1-0.4c0,0,0,0,0,0c0-0.1,0-0.3,0.1-0.4c0,0,0-0.1,0-0.1  c0-0.1,0-0.3,0.1-0.4c0,0,0,0,0,0c0-0.1,0-0.2,0.1-0.3c0,0,0,0,0-0.1c0-0.1,0-0.2,0.1-0.4c0,0,0,0,0-0.1c0-0.1,0-0.2,0.1-0.3  c0,0,0,0,0-0.1c0-0.1,0-0.2,0.1-0.3c0,0,0,0,0-0.1c0-0.1,0-0.2,0.1-0.3c0,0,0,0,0,0c0-0.1,0-0.2,0.1-0.3c0,0,0,0,0-0.1  c0-0.1,0.1-0.2,0.1-0.3c0,0,0,0,0,0c0-0.1,0.1-0.2,0.1-0.3c0,0,0,0,0-0.1c0-0.1,0.1-0.2,0.1-0.3c0,0,0,0,0,0c0-0.1,0.1-0.2,0.1-0.2  c0,0,0,0,0,0c0-0.1,0.1-0.2,0.1-0.2c0,0,0,0,0,0c0-0.1,0.1-0.1,0.1-0.2c0,0,0,0,0,0c0-0.1,0.1-0.1,0.1-0.2c0,0,0,0,0,0  c0.3-0.7,0.7-1.1,1.1-1.1c1.6,0,2.9,6.5,2.9,14.6C47.5,43.7,47.3,46.6,47,49z"/><text x="0" y="115" fill="#000000" font-size="5px" font-weight="bold" font-family="'Helvetica Neue', Helvetica, Arial-Unicode, Arial, Sans-serif">Created by James Fenton</text><text x="0" y="120" fill="#000000" font-size="5px" font-weight="bold" font-family="'Helvetica Neue', Helvetica, Arial-Unicode, Arial, Sans-serif">from the Noun Project</text></svg>