<?xml version="1.0" encoding="UTF-8" standalone="no"?>
<!DOCTYPE svg PUBLIC "-//W3C//DTD SVG 1.1//EN" "http://www.w3.org/Graphics/SVG/1.1/DTD/svg11.dtd">
<svg width="100%" height="100%" viewBox="0 0 463 463" version="1.1" xmlns="http://www.w3.org/2000/svg" xmlns:xlink="http://www.w3.org/1999/xlink" xml:space="preserve" xmlns:serif="http://www.serif.com/" style="fill-rule:evenodd;clip-rule:evenodd;stroke-linejoin:round;stroke-miterlimit:2;">
    <g transform="matrix(4.16667,0,0,4.16667,-2706.03,-1218.4)">
        <g transform="matrix(-1,0,0,1,1409.85,83.797)">
            <rect x="649.447" y="208.62" width="110.957" height="110.963" style="fill:rgb(207,141,42);"/>
        </g>
        <g transform="matrix(1,0,0,1,733.084,378.69)">
            <path d="M0,-28.7C-4.9,-32.57 -11.393,-32.65 -13.771,-32.085L-14.046,-32.02C-16.792,-31.372 -21.154,-30.299 -26.26,-23.963C-26.288,-23.928 -26.317,-23.891 -26.345,-23.855L-26.409,-23.777C-26.459,-23.706 -26.494,-23.624 -26.494,-23.531C-26.494,-23.454 -26.476,-23.384 -26.438,-23.318L-26.32,-23.123C-25.68,-22.052 -24.871,-20.672 -24.188,-19.4C-24.182,-19.387 -24.175,-19.377 -24.17,-19.361C-24.097,-19.221 -23.951,-19.122 -23.78,-19.122C-23.662,-19.122 -23.556,-19.169 -23.479,-19.244C-23.446,-19.286 -23.414,-19.33 -23.386,-19.374C-18.854,-25.641 -15.291,-26.507 -12.88,-27.073L-12.592,-27.141C-11.341,-27.441 -6.584,-27.424 -3.149,-24.713C-0.47,-22.596 0.891,-19.23 0.891,-14.707C0.891,-7.12 -2.8,-4.151 -5.897,-2.998C-10.694,-1.205 -15.295,-3.601 -15.328,-3.62L-15.534,-3.721C-18.17,-4.864 -22.103,-7.245 -25.809,-14.688C-33.278,-29.692 -39.527,-31.104 -43.662,-32.042L-43.883,-32.091C-45.766,-32.517 -52.304,-32.819 -57.443,-28.717C-60.129,-26.575 -63.327,-22.41 -63.327,-14.737C-63.327,-10.062 -62.367,-6.975 -59.898,-3.727C-59.357,-2.988 -53.824,4.119 -43.129,2.071C-41.417,1.742 -39.098,0.925 -36.548,-0.987L-34.193,1.137C-34.04,1.277 -33.795,1.265 -33.653,1.11C-33.586,1.037 -33.558,0.946 -33.559,0.855L-33.559,0.823L-31.86,-9.624L-31.859,-9.739C-31.86,-9.842 -31.902,-9.945 -31.986,-10.017C-32.058,-10.086 -32.146,-10.112 -32.235,-10.112L-32.308,-10.105L-32.418,-10.094L-42.425,-7.293L-42.606,-7.263C-42.679,-7.247 -42.746,-7.21 -42.798,-7.151C-42.943,-6.992 -42.93,-6.75 -42.77,-6.608L-42.652,-6.5L-40.41,-4.475C-41.857,-3.538 -43.119,-3.107 -44.082,-2.921C-51.82,-1.445 -55.642,-6.513 -55.787,-6.712L-55.841,-6.786C-57.639,-9.147 -58.246,-11.153 -58.246,-14.737C-58.246,-19.273 -56.91,-22.641 -54.274,-24.747C-50.928,-27.418 -46.313,-27.432 -45.009,-27.136L-44.784,-27.086C-41.396,-26.318 -36.753,-25.268 -30.359,-12.425C-27.038,-5.756 -22.878,-1.395 -17.644,0.904C-16.977,1.243 -13.799,2.751 -9.674,2.751C-7.948,2.751 -6.059,2.487 -4.121,1.767C-1.087,0.634 5.972,-3.235 5.972,-14.707C5.972,-22.375 2.725,-26.549 0,-28.7" style="fill:white;fill-rule:nonzero;"/>
        </g>
        <g transform="matrix(1,0,0,1,660.523,318.877)">
            <path d="M0,-11.88L0.033,-11.88L0.033,5.246L3.795,5.246L3.795,-17.126L0.789,-17.126L-2.674,-13.067L-2.674,-9.141L-2.642,-9.141L0,-11.88Z" style="fill:white;fill-rule:nonzero;"/>
        </g>
        <g transform="matrix(1,0,0,1,666.56,319.241)">
            <path d="M0,-12.869L0,-10.164L3.432,-10.164L3.432,-12.969C3.432,-14.321 4.093,-14.717 4.883,-14.717C5.61,-14.717 6.236,-14.421 6.236,-13.034L6.236,-11.188C6.236,-9.338 6.072,-8.614 4.85,-7.327L2.739,-5.082C0.693,-2.904 -0.067,-1.452 -0.067,0.759L-0.067,4.884L9.702,4.884L9.702,1.814L3.529,1.814L3.529,0.759C3.529,-0.991 4.157,-1.65 5.113,-2.673L7.522,-5.213C9.47,-7.292 9.899,-8.614 9.899,-10.857L9.899,-13.034C9.899,-16.236 8.35,-17.753 4.982,-17.753C1.682,-17.753 0,-16.004 0,-12.869" style="fill:white;fill-rule:nonzero;"/>
        </g>
        <g transform="matrix(1,0,0,1,686.66,309.807)">
            <path d="M0,-6.786L0,-3.876L0.524,-3.876C1.062,-3.876 1.297,-4.151 1.297,-4.648L1.297,-6.027C1.297,-6.538 1.062,-6.786 0.524,-6.786L0,-6.786ZM0,-3.007L0,1.283L-1.572,1.283L-1.572,-8.069L0.718,-8.069C2.304,-8.069 2.883,-7.283 2.883,-5.973L2.883,-4.772C2.883,-3.765 2.524,-3.172 1.628,-2.965L3.132,1.283L1.477,1.283L0,-3.007Z" style="fill:white;fill-rule:nonzero;"/>
        </g>
        <g transform="matrix(1,0,0,1,690.204,311.09)">
            <path d="M0,-9.352L3.752,-9.352L3.752,-8.069L1.572,-8.069L1.572,-5.393L3.132,-5.393L3.132,-4.124L1.572,-4.124L1.572,-1.282L3.752,-1.282L3.752,0L0,0L0,-9.352Z" style="fill:white;fill-rule:nonzero;"/>
        </g>
        <g transform="matrix(1,0,0,1,694.452,303.751)">
            <path d="M0,5.325L0,4.07L1.463,4.07L1.463,5.352C1.463,5.877 1.697,6.18 2.235,6.18C2.731,6.18 2.952,5.849 2.952,5.352L2.952,4.994C2.952,4.456 2.731,4.125 2.249,3.67L1.324,2.746C0.428,1.863 0.015,1.325 0.015,0.249L0.015,-0.068C0.015,-1.227 0.69,-2.124 2.222,-2.124C3.794,-2.124 4.414,-1.351 4.414,0.001L4.414,0.76L2.979,0.76L2.979,-0.054C2.979,-0.592 2.731,-0.854 2.235,-0.854C1.794,-0.854 1.49,-0.606 1.49,-0.082L1.49,0.111C1.49,0.635 1.78,0.939 2.235,1.38L3.242,2.373C4.097,3.242 4.511,3.766 4.511,4.801L4.511,5.256C4.511,6.539 3.821,7.449 2.222,7.449C0.621,7.449 0,6.553 0,5.325" style="fill:white;fill-rule:nonzero;"/>
        </g>
        <g transform="matrix(1,0,0,1,701.168,309.807)">
            <path d="M0,-6.786L0,-3.103L0.58,-3.103C1.117,-3.103 1.353,-3.365 1.353,-3.876L1.353,-6.027C1.353,-6.538 1.117,-6.786 0.58,-6.786L0,-6.786ZM-1.572,-8.069L0.759,-8.069C2.346,-8.069 2.925,-7.283 2.925,-5.973L2.925,-4C2.925,-2.69 2.346,-1.89 0.759,-1.89L0,-1.89L0,1.283L-1.572,1.283L-1.572,-8.069Z" style="fill:white;fill-rule:nonzero;"/>
        </g>
        <g transform="matrix(1,0,0,1,707.898,303.903)">
            <path d="M0,5.022L0,0.001C0,-0.564 -0.248,-0.965 -0.813,-0.965C-1.365,-0.965 -1.614,-0.564 -1.614,0.001L-1.614,5.022C-1.614,5.587 -1.365,5.987 -0.813,5.987C-0.248,5.987 0,5.587 0,5.022M-3.187,4.773L-3.187,0.249C-3.187,-1.213 -2.469,-2.275 -0.813,-2.275C0.855,-2.275 1.572,-1.213 1.572,0.249L1.572,4.773C1.572,6.221 0.855,7.297 -0.813,7.297C-2.469,7.297 -3.187,6.221 -3.187,4.773" style="fill:white;fill-rule:nonzero;"/>
        </g>
        <g transform="matrix(1,0,0,1,711.498,307.612)">
            <path d="M0,-2.398L0,3.477L-1.324,3.477L-1.324,-5.875L0.221,-5.875L1.918,-0.509L1.918,-5.875L3.228,-5.875L3.228,3.477L1.849,3.477L0,-2.398Z" style="fill:white;fill-rule:nonzero;"/>
        </g>
        <g transform="matrix(1,0,0,1,715.345,303.751)">
            <path d="M0,5.325L0,4.07L1.463,4.07L1.463,5.352C1.463,5.877 1.697,6.18 2.235,6.18C2.731,6.18 2.952,5.849 2.952,5.352L2.952,4.994C2.952,4.456 2.731,4.125 2.249,3.67L1.324,2.746C0.428,1.863 0.015,1.325 0.015,0.249L0.015,-0.068C0.015,-1.227 0.69,-2.124 2.222,-2.124C3.794,-2.124 4.414,-1.351 4.414,0.001L4.414,0.76L2.979,0.76L2.979,-0.054C2.979,-0.592 2.731,-0.854 2.235,-0.854C1.794,-0.854 1.49,-0.606 1.49,-0.082L1.49,0.111C1.49,0.635 1.78,0.939 2.235,1.38L3.242,2.373C4.097,3.242 4.511,3.766 4.511,4.801L4.511,5.256C4.511,6.539 3.821,7.449 2.222,7.449C0.621,7.449 0,6.553 0,5.325" style="fill:white;fill-rule:nonzero;"/>
        </g>
        <g transform="matrix(1,0,0,1,0,0.828)">
            <rect x="720.488" y="300.91" width="1.572" height="9.352" style="fill:white;"/>
        </g>
        <g transform="matrix(1,0,0,1,724.35,305.944)">
            <path d="M0,0.939L0,3.863L0.69,3.863C1.214,3.863 1.463,3.601 1.463,3.105L1.463,1.697C1.463,1.2 1.229,0.939 0.676,0.939L0,0.939ZM0,-0.261L0.552,-0.261C1.062,-0.261 1.297,-0.523 1.297,-1.02L1.297,-2.165C1.297,-2.675 1.062,-2.923 0.538,-2.923L0,-2.923L0,-0.261ZM-1.572,-4.207L0.704,-4.207C2.276,-4.207 2.801,-3.475 2.801,-2.151L2.801,-1.199C2.801,-0.413 2.511,0.084 1.862,0.291C2.648,0.47 3.035,0.994 3.035,1.849L3.035,3.091C3.035,4.415 2.441,5.146 0.869,5.146L-1.572,5.146L-1.572,-4.207Z" style="fill:white;fill-rule:nonzero;"/>
        </g>
        <g transform="matrix(1,0,0,1,727.977,311.09)">
            <path d="M0,-9.352L1.572,-9.352L1.572,-1.282L3.448,-1.282L3.448,0L0,0L0,-9.352Z" style="fill:white;fill-rule:nonzero;"/>
        </g>
        <g transform="matrix(1,0,0,1,731.948,311.09)">
            <path d="M0,-9.352L3.752,-9.352L3.752,-8.069L1.572,-8.069L1.572,-5.393L3.132,-5.393L3.132,-4.124L1.572,-4.124L1.572,-1.282L3.752,-1.282L3.752,0L0,0L0,-9.352Z" style="fill:white;fill-rule:nonzero;"/>
        </g>
        <g transform="matrix(1,0,0,1,685.088,317.251)">
            <path d="M0,4.525L0,0.001C0,-1.461 0.689,-2.524 2.345,-2.524C4.083,-2.524 4.566,-1.558 4.566,-0.178L4.566,0.925L3.131,0.925L3.131,-0.302C3.131,-0.882 2.938,-1.213 2.373,-1.213C1.807,-1.213 1.572,-0.813 1.572,-0.247L1.572,4.774C1.572,5.339 1.807,5.739 2.373,5.739C2.938,5.739 3.131,5.38 3.131,4.829L3.131,3.104L4.566,3.104L4.566,4.718C4.566,6.056 4.014,7.049 2.345,7.049C0.689,7.049 0,5.973 0,4.525" style="fill:white;fill-rule:nonzero;"/>
        </g>
        <g transform="matrix(1,0,0,1,693.501,317.002)">
            <path d="M0,5.023L0,0.002C0,-0.564 -0.248,-0.964 -0.813,-0.964C-1.365,-0.964 -1.614,-0.564 -1.614,0.002L-1.614,5.023C-1.614,5.588 -1.365,5.988 -0.813,5.988C-0.248,5.988 0,5.588 0,5.023M-3.187,4.774L-3.187,0.25C-3.187,-1.212 -2.469,-2.275 -0.813,-2.275C0.855,-2.275 1.572,-1.212 1.572,0.25L1.572,4.774C1.572,6.222 0.855,7.298 -0.813,7.298C-2.469,7.298 -3.187,6.222 -3.187,4.774" style="fill:white;fill-rule:nonzero;"/>
        </g>
        <g transform="matrix(1,0,0,1,697.1,320.713)">
            <path d="M0,-2.399L0,3.477L-1.324,3.477L-1.324,-5.876L0.221,-5.876L1.918,-0.509L1.918,-5.876L3.228,-5.876L3.228,3.477L1.849,3.477L0,-2.399Z" style="fill:white;fill-rule:nonzero;"/>
        </g>
        <g transform="matrix(1,0,0,1,700.946,316.852)">
            <path d="M0,5.325L0,4.07L1.463,4.07L1.463,5.352C1.463,5.877 1.697,6.18 2.235,6.18C2.731,6.18 2.952,5.849 2.952,5.352L2.952,4.994C2.952,4.456 2.731,4.125 2.249,3.67L1.324,2.746C0.428,1.863 0.015,1.325 0.015,0.249L0.015,-0.069C0.015,-1.227 0.69,-2.124 2.222,-2.124C3.794,-2.124 4.414,-1.352 4.414,0.001L4.414,0.76L2.979,0.76L2.979,-0.055C2.979,-0.593 2.731,-0.855 2.235,-0.855C1.794,-0.855 1.49,-0.607 1.49,-0.082L1.49,0.111C1.49,0.635 1.78,0.938 2.235,1.38L3.242,2.373C4.097,3.242 4.511,3.766 4.511,4.801L4.511,5.256C4.511,6.539 3.821,7.449 2.222,7.449C0.621,7.449 0,6.553 0,5.325" style="fill:white;fill-rule:nonzero;"/>
        </g>
        <g transform="matrix(1,0,0,1,710.656,324.301)">
            <path d="M0,-9.463L0,-2.386C0,-0.938 -0.621,0 -2.222,0C-3.877,0 -4.566,-0.938 -4.566,-2.386L-4.566,-9.463L-2.994,-9.463L-2.994,-2.234C-2.994,-1.683 -2.773,-1.311 -2.222,-1.311C-1.67,-1.311 -1.449,-1.683 -1.449,-2.234L-1.449,-9.463L0,-9.463Z" style="fill:white;fill-rule:nonzero;"/>
        </g>
        <g transform="matrix(1,0,0,1,715.689,320.907)">
            <path d="M0,-2.786L-0.041,-2.786L-1.104,3.283L-1.834,3.283L-3.007,-2.786L-3.034,-2.786L-3.034,3.283L-4.331,3.283L-4.331,-6.069L-2.496,-6.069L-1.476,-0.8L-1.462,-0.8L-0.552,-6.069L1.435,-6.069L1.435,3.283L0,3.283L0,-2.786Z" style="fill:white;fill-rule:nonzero;"/>
        </g>
        <g transform="matrix(1,0,0,1,719.398,322.907)">
            <path d="M0,-6.786L0,-3.103L0.58,-3.103C1.117,-3.103 1.353,-3.365 1.353,-3.876L1.353,-6.027C1.353,-6.538 1.117,-6.786 0.58,-6.786L0,-6.786ZM-1.572,-8.069L0.759,-8.069C2.346,-8.069 2.925,-7.282 2.925,-5.973L2.925,-4C2.925,-2.689 2.346,-1.89 0.759,-1.89L0,-1.89L0,1.283L-1.572,1.283L-1.572,-8.069Z" style="fill:white;fill-rule:nonzero;"/>
        </g>
        <g transform="matrix(1,0,0,1,722.695,324.191)">
            <path d="M0,-9.353L4.179,-9.353L4.179,-8.07L2.883,-8.07L2.883,0L1.296,0L1.296,-8.07L0,-8.07L0,-9.353Z" style="fill:white;fill-rule:nonzero;"/>
        </g>
        <g transform="matrix(1,0,0,1,0,27.029)">
            <rect x="727.411" y="287.809" width="1.572" height="9.353" style="fill:white;"/>
        </g>
        <g transform="matrix(1,0,0,1,732.887,317.002)">
            <path d="M0,5.023L0,0.002C0,-0.564 -0.248,-0.964 -0.813,-0.964C-1.365,-0.964 -1.614,-0.564 -1.614,0.002L-1.614,5.023C-1.614,5.588 -1.365,5.988 -0.813,5.988C-0.248,5.988 0,5.588 0,5.023M-3.187,4.774L-3.187,0.25C-3.187,-1.212 -2.469,-2.275 -0.813,-2.275C0.855,-2.275 1.572,-1.212 1.572,0.25L1.572,4.774C1.572,6.222 0.855,7.298 -0.813,7.298C-2.469,7.298 -3.187,6.222 -3.187,4.774" style="fill:white;fill-rule:nonzero;"/>
        </g>
        <g transform="matrix(1,0,0,1,736.485,320.713)">
            <path d="M0,-2.399L0,3.477L-1.324,3.477L-1.324,-5.876L0.221,-5.876L1.917,-0.509L1.917,-5.876L3.228,-5.876L3.228,3.477L1.849,3.477L0,-2.399Z" style="fill:white;fill-rule:nonzero;"/>
        </g>
        <g transform="matrix(1,0,0,1,686.812,330.905)">
            <path d="M0,3.421L1.255,3.421L0.635,-0.331L0.62,-0.331L0,3.421ZM-1.973,6.387L-0.207,-2.966L1.586,-2.966L3.365,6.387L1.752,6.387L1.462,4.676L-0.207,4.676L-0.483,6.387L-1.973,6.387Z" style="fill:white;fill-rule:nonzero;"/>
        </g>
        <g transform="matrix(1,0,0,1,691.956,333.816)">
            <path d="M0,-2.401L0,3.476L-1.324,3.476L-1.324,-5.877L0.221,-5.877L1.917,-0.51L1.917,-5.877L3.228,-5.877L3.228,3.476L1.849,3.476L0,-2.401Z" style="fill:white;fill-rule:nonzero;"/>
        </g>
        <g transform="matrix(1,0,0,1,698.12,329.223)">
            <path d="M0,6.786C0.648,6.786 0.897,6.4 0.897,5.834L0.897,0.937C0.897,0.386 0.648,0 0,0L-0.662,0L-0.662,6.786L0,6.786ZM2.47,1.227L2.47,5.558C2.47,6.993 1.876,8.069 0.193,8.069L-2.234,8.069L-2.234,-1.283L0.193,-1.283C1.876,-1.283 2.47,-0.221 2.47,1.227" style="fill:white;fill-rule:nonzero;"/>
        </g>
        <g transform="matrix(1,0,0,1,704.118,336.009)">
            <path d="M0,-6.786L0,-3.103L0.58,-3.103C1.118,-3.103 1.353,-3.365 1.353,-3.876L1.353,-6.028C1.353,-6.538 1.118,-6.786 0.58,-6.786L0,-6.786ZM-1.572,-8.069L0.759,-8.069C2.346,-8.069 2.925,-7.283 2.925,-5.973L2.925,-4C2.925,-2.689 2.346,-1.89 0.759,-1.89L0,-1.89L0,1.283L-1.572,1.283L-1.572,-8.069Z" style="fill:white;fill-rule:nonzero;"/>
        </g>
        <g transform="matrix(1,0,0,1,709.235,336.009)">
            <path d="M0,-6.786L0,-3.876L0.524,-3.876C1.062,-3.876 1.297,-4.152 1.297,-4.648L1.297,-6.028C1.297,-6.538 1.062,-6.786 0.524,-6.786L0,-6.786ZM0,-3.007L0,1.283L-1.572,1.283L-1.572,-8.069L0.718,-8.069C2.304,-8.069 2.884,-7.283 2.884,-5.973L2.884,-4.772C2.884,-3.765 2.524,-3.173 1.628,-2.966L3.132,1.283L1.477,1.283L0,-3.007Z" style="fill:white;fill-rule:nonzero;"/>
        </g>
        <g transform="matrix(1,0,0,1,715.966,330.105)">
            <path d="M0,5.021L0,0C0,-0.566 -0.248,-0.965 -0.813,-0.965C-1.365,-0.965 -1.614,-0.566 -1.614,0L-1.614,5.021C-1.614,5.586 -1.365,5.987 -0.813,5.987C-0.248,5.987 0,5.586 0,5.021M-3.187,4.773L-3.187,0.249C-3.187,-1.213 -2.469,-2.276 -0.813,-2.276C0.855,-2.276 1.572,-1.213 1.572,0.249L1.572,4.773C1.572,6.221 0.855,7.297 -0.813,7.297C-2.469,7.297 -3.187,6.221 -3.187,4.773" style="fill:white;fill-rule:nonzero;"/>
        </g>
        <g transform="matrix(1,0,0,1,720.475,329.223)">
            <path d="M0,6.786C0.648,6.786 0.896,6.4 0.896,5.834L0.896,0.937C0.896,0.386 0.648,0 0,0L-0.662,0L-0.662,6.786L0,6.786ZM2.47,1.227L2.47,5.558C2.47,6.993 1.876,8.069 0.193,8.069L-2.234,8.069L-2.234,-1.283L0.193,-1.283C1.876,-1.283 2.47,-0.221 2.47,1.227" style="fill:white;fill-rule:nonzero;"/>
        </g>
        <g transform="matrix(1,0,0,1,728.211,337.402)">
            <path d="M0,-9.463L0,-2.387C0,-0.939 -0.62,0 -2.221,0C-3.876,0 -4.565,-0.939 -4.565,-2.387L-4.565,-9.463L-2.993,-9.463L-2.993,-2.235C-2.993,-1.684 -2.772,-1.311 -2.221,-1.311C-1.669,-1.311 -1.448,-1.684 -1.448,-2.235L-1.448,-9.463L0,-9.463Z" style="fill:white;fill-rule:nonzero;"/>
        </g>
        <g transform="matrix(1,0,0,1,728.913,330.353)">
            <path d="M0,4.525L0,0.001C0,-1.461 0.689,-2.524 2.345,-2.524C4.083,-2.524 4.565,-1.558 4.565,-0.179L4.565,0.924L3.132,0.924L3.132,-0.303C3.132,-0.882 2.938,-1.213 2.373,-1.213C1.808,-1.213 1.572,-0.814 1.572,-0.247L1.572,4.773C1.572,5.338 1.808,5.739 2.373,5.739C2.938,5.739 3.132,5.38 3.132,4.829L3.132,3.104L4.565,3.104L4.565,4.718C4.565,6.056 4.015,7.049 2.345,7.049C0.689,7.049 0,5.973 0,4.525" style="fill:white;fill-rule:nonzero;"/>
        </g>
        <g transform="matrix(1,0,0,1,733.822,337.292)">
            <path d="M0,-9.353L4.18,-9.353L4.18,-8.07L2.884,-8.07L2.884,0L1.297,0L1.297,-8.07L0,-8.07L0,-9.353Z" style="fill:white;fill-rule:nonzero;"/>
        </g>
        <g transform="matrix(1,0,0,1,0,53.231)">
            <rect x="738.539" y="274.708" width="1.572" height="9.353" style="fill:white;"/>
        </g>
        <g transform="matrix(1,0,0,1,744.015,330.105)">
            <path d="M0,5.021L0,0C0,-0.566 -0.248,-0.965 -0.813,-0.965C-1.365,-0.965 -1.614,-0.566 -1.614,0L-1.614,5.021C-1.614,5.586 -1.365,5.987 -0.813,5.987C-0.248,5.987 0,5.586 0,5.021M-3.187,4.773L-3.187,0.249C-3.187,-1.213 -2.469,-2.276 -0.813,-2.276C0.855,-2.276 1.572,-1.213 1.572,0.249L1.572,4.773C1.572,6.221 0.855,7.297 -0.813,7.297C-2.469,7.297 -3.187,6.221 -3.187,4.773" style="fill:white;fill-rule:nonzero;"/>
        </g>
        <g transform="matrix(1,0,0,1,747.614,333.816)">
            <path d="M0,-2.401L0,3.476L-1.324,3.476L-1.324,-5.877L0.221,-5.877L1.917,-0.51L1.917,-5.877L3.228,-5.877L3.228,3.476L1.849,3.476L0,-2.401Z" style="fill:white;fill-rule:nonzero;"/>
        </g>
    </g>
</svg>
