<?xml version="1.0" encoding="UTF-8" standalone="no"?>
<!DOCTYPE svg PUBLIC "-//W3C//DTD SVG 1.1//EN" "http://www.w3.org/Graphics/SVG/1.1/DTD/svg11.dtd">
<svg width="100%" height="100%" viewBox="0 0 270 275" version="1.1" xmlns="http://www.w3.org/2000/svg" xmlns:xlink="http://www.w3.org/1999/xlink" xml:space="preserve" xmlns:serif="http://www.serif.com/" style="fill-rule:evenodd;clip-rule:evenodd;stroke-linejoin:round;stroke-miterlimit:2;">
    <g transform="matrix(4.16667,0,0,4.16667,-2042.96,-339.907)">
        <g transform="matrix(0.906111,-0.423039,-0.423039,-0.906111,511.064,103.896)">
            <path d="M-3.224,-1.305C-2.003,-0.466 -0.682,0.21 0.704,0.706L-3.224,13.287C-6.152,12.298 -8.926,10.86 -11.438,9.023L-3.224,-1.305Z" style="fill:rgb(95,187,70);fill-rule:nonzero;"/>
        </g>
        <g transform="matrix(0.505018,0.863109,0.863109,-0.505018,529.283,91.6423)">
            <path d="M7.433,-2.98C8.644,-2.131 9.954,-1.449 11.327,-0.944L7.433,11.653C4.502,10.65 1.718,9.197 -0.803,7.327L7.433,-2.98Z" style="fill:rgb(210,160,42);fill-rule:nonzero;"/>
        </g>
        <g transform="matrix(-0.894957,0.446152,0.446152,0.894957,544.297,114.091)">
            <path d="M-11.049,-7.454L2.139,-7.454C2.222,-6.024 2.487,-4.596 2.943,-3.193L-9.362,1.555C-10.402,-1.399 -10.955,-4.436 -11.049,-7.454" style="fill:rgb(194,31,51);fill-rule:nonzero;"/>
        </g>
        <g transform="matrix(0.894988,-0.446091,-0.446091,-0.894988,541.637,108.025)">
            <path d="M-2.463,2.742L10.725,2.742C10.627,5.826 10.061,8.866 9.055,11.757L-3.252,7.029C-2.809,5.643 -2.542,4.203 -2.463,2.742" style="fill:rgb(44,155,72);fill-rule:nonzero;"/>
        </g>
        <g transform="matrix(1,0,0,1,506.349,120.391)">
            <path d="M0,-5.334C0,-5.6 0.009,-5.865 0.021,-6.129L-13.113,-7.305C-13.154,-6.654 -13.18,-5.997 -13.18,-5.334C-13.18,-2.815 -12.867,-0.368 -12.285,1.971L0.398,-1.668C0.139,-2.85 0,-4.075 0,-5.334" style="fill:rgb(72,119,61);fill-rule:nonzero;"/>
        </g>
        <g transform="matrix(-0.967348,0.253453,0.253453,0.967348,545.56,138.932)">
            <path d="M5.394,-14.935C6.585,-14.073 7.884,-13.366 9.256,-12.832L5.394,-0.214C2.462,-1.249 -0.294,-2.729 -2.773,-4.593L5.394,-14.935Z" style="fill:rgb(253,183,19);fill-rule:nonzero;"/>
        </g>
        <g transform="matrix(1,0,0,1,540.422,120.47)">
            <path d="M0,-5.413C0,-4.17 -0.134,-2.957 -0.391,-1.789L12.292,1.855C12.87,-0.474 13.179,-2.909 13.179,-5.413C13.179,-6.036 13.158,-6.653 13.12,-7.268L-0.012,-6.027C-0.005,-5.822 0,-5.619 0,-5.413" style="fill:rgb(239,64,42);fill-rule:nonzero;"/>
        </g>
        <g transform="matrix(-0.796152,0.605097,0.605097,0.796152,508.247,141.025)">
            <path d="M-10.764,-10.562L2.421,-10.562C2.32,-7.466 1.747,-4.399 0.721,-1.47L-11.585,-6.203C-11.124,-7.615 -10.849,-9.082 -10.764,-10.562" style="fill:rgb(249,157,37);fill-rule:nonzero;"/>
        </g>
        <g transform="matrix(0.692128,-0.721774,-0.721774,-0.692128,508.38,106.521)">
            <path d="M-5.478,-2.734C-4.246,-1.877 -2.924,-1.205 -1.554,-0.714L-5.478,11.872C-8.383,10.891 -11.169,9.458 -13.726,7.57L-5.478,-2.734Z" style="fill:rgb(0,125,187);fill-rule:nonzero;"/>
        </g>
        <g transform="matrix(-0.525401,-0.850855,-0.850855,0.525401,533.635,130.483)">
            <path d="M-11.688,1.294L1.491,1.294C1.547,2.739 1.785,4.183 2.217,5.596L-10.104,10.33C-11.106,7.376 -11.626,4.328 -11.688,1.294" style="fill:rgb(143,23,55);fill-rule:nonzero;"/>
        </g>
        <g transform="matrix(-0.803837,0.594849,0.594849,0.803837,552.784,127.884)">
            <path d="M6.275,-13.808C7.447,-12.997 8.703,-12.344 10.015,-11.854L6.275,0.796C3.437,-0.164 0.731,-1.548 -1.745,-3.343L6.275,-13.808Z" style="fill:rgb(0,173,216);fill-rule:nonzero;"/>
        </g>
        <g transform="matrix(1,0,0,1,525.842,145.271)">
            <path d="M0,-13.356C-0.801,-13.24 -1.622,-13.177 -2.457,-13.177C-3.128,-13.177 -3.79,-13.219 -4.44,-13.294L-6.883,-0.324C-5.437,-0.112 -3.96,0 -2.457,0C-0.789,0 0.848,-0.137 2.441,-0.398L0,-13.356Z" style="fill:rgb(243,109,36);fill-rule:nonzero;"/>
        </g>
        <g transform="matrix(0.78899,0.614406,0.614406,-0.78899,521.616,93.998)">
            <path d="M4.747,-1.445C5.96,-0.619 7.246,0.03 8.573,0.504L4.747,13.127C1.912,12.181 -0.822,10.799 -3.358,8.963L4.747,-1.445Z" style="fill:rgb(235,28,44);fill-rule:nonzero;"/>
        </g>
        <g transform="matrix(-0.655029,-0.755604,-0.755604,0.655029,506.026,136.864)">
            <path d="M-4.904,-13.614C-3.676,-12.723 -2.352,-12.014 -0.968,-11.489L-4.904,1.102C-7.806,0.087 -10.572,-1.378 -13.096,-3.284L-4.904,-13.614Z" style="fill:rgb(224,21,131);fill-rule:nonzero;"/>
        </g>
        <g transform="matrix(0.955583,0.294721,0.294721,-0.955583,516.198,98.5659)">
            <path d="M2.046,0.379C3.226,1.195 4.528,1.872 5.933,2.379L2.046,14.982C-0.958,13.967 -3.698,12.517 -6.138,10.728L2.046,0.379Z" style="fill:rgb(25,54,103);fill-rule:nonzero;"/>
        </g>
        <g transform="matrix(0.0266164,-0.999646,-0.999646,-0.0266164,500.15,119.169)">
            <path d="M-5.173,-9.262C-3.96,-8.393 -2.625,-7.674 -1.199,-7.146L-5.173,5.428C-8.17,4.388 -10.948,2.891 -13.428,1.02L-5.173,-9.262Z" style="fill:rgb(207,141,42);fill-rule:nonzero;"/>
        </g>
        <g transform="matrix(0.997075,-0.0764284,-0.0764284,-0.997075,513.376,101.473)">
            <path d="M-0.562,-0.179C0.616,0.615 1.895,1.263 3.249,1.746L-0.562,14.371C-3.484,13.398 -6.216,11.99 -8.678,10.218L-0.562,-0.179Z" style="fill:rgb(1,85,138);fill-rule:nonzero;"/>
        </g>
    </g>
</svg>
