<?xml version="1.0" encoding="UTF-8" standalone="no"?>
<!DOCTYPE svg PUBLIC "-//W3C//DTD SVG 1.1//EN" "http://www.w3.org/Graphics/SVG/1.1/DTD/svg11.dtd">
<svg width="100%" height="100%" viewBox="0 0 463 463" version="1.1" xmlns="http://www.w3.org/2000/svg" xmlns:xlink="http://www.w3.org/1999/xlink" xml:space="preserve" xmlns:serif="http://www.serif.com/" style="fill-rule:evenodd;clip-rule:evenodd;stroke-linejoin:round;stroke-miterlimit:2;">
    <g transform="matrix(4.16667,0,0,4.16667,-1681.42,-1721.19)">
        <g transform="matrix(-1,0,0,1,918.04,325.137)">
            <rect x="403.54" y="87.949" width="110.96" height="110.965" style="fill:rgb(1,85,138);"/>
        </g>
        <g transform="matrix(-0.975394,0.220468,0.220468,0.975394,478.858,467.2)">
            <path d="M0.571,-5.112C0.571,-5.112 1.938,-3.952 1.939,-2.526C1.939,-1.095 0.571,0.064 0.571,0.064C0.571,0.064 -0.795,-1.095 -0.795,-2.523C-0.797,-3.953 0.571,-5.112 0.571,-5.112" style="fill:white;fill-rule:nonzero;"/>
        </g>
        <g transform="matrix(0.975385,-0.22051,-0.22051,-0.975385,475.961,470.322)">
            <path d="M-0.571,-0.064C-0.571,-0.064 0.796,1.095 0.797,2.523C0.797,3.954 -0.571,5.111 -0.571,5.111C-0.571,5.111 -1.937,3.954 -1.939,2.526C-1.938,1.096 -0.571,-0.064 -0.571,-0.064" style="fill:white;fill-rule:nonzero;"/>
        </g>
        <g transform="matrix(0.0883712,0.996088,0.996088,-0.0883712,481.776,466.453)">
            <path d="M2.345,-2.146C2.345,-2.146 3.588,-1.114 3.588,0.188C3.588,1.488 2.345,2.562 2.345,2.562C2.345,2.562 1.102,1.532 1.102,0.23C1.102,-1.071 2.345,-2.146 2.345,-2.146" style="fill:white;fill-rule:nonzero;"/>
        </g>
        <g transform="matrix(-0.715065,0.699058,0.699058,0.715065,484.151,463.91)">
            <path d="M1.004,-2.465C2.505,-2.438 3.722,-0.98 3.722,-0.98C3.722,-0.98 2.507,0.433 1.004,0.409C-0.497,0.381 -1.713,-1.076 -1.713,-1.076C-1.713,-1.076 -0.496,-2.491 1.004,-2.465" style="fill:white;fill-rule:nonzero;"/>
        </g>
        <g transform="matrix(0.990884,0.134718,0.134718,-0.990884,479.22,473.197)">
            <path d="M0.167,-0.011C1.466,0.011 2.52,1.272 2.52,1.272C2.52,1.272 1.466,2.498 0.167,2.475C-1.133,2.451 -2.187,1.19 -2.187,1.19C-2.187,1.19 -1.132,-0.035 0.167,-0.011" style="fill:white;fill-rule:nonzero;"/>
        </g>
        <g transform="matrix(1,0,0,1,480.537,496.712)">
            <path d="M0,-2.729L-9.648,-2.729C-10.403,-2.729 -11.016,-2.12 -11.016,-1.365C-11.016,-0.612 -10.403,0 -9.648,0L0,0C0.754,0 1.365,-0.612 1.365,-1.365C1.365,-2.12 0.754,-2.729 0,-2.729" style="fill:white;fill-rule:nonzero;"/>
        </g>
        <g transform="matrix(1,0,0,1,480.537,511.758)">
            <path d="M0,-2.729L-9.648,-2.729C-10.403,-2.729 -11.016,-2.12 -11.016,-1.365C-11.016,-0.612 -10.403,0 -9.648,0L0,0C0.754,0 1.365,-0.612 1.365,-1.365C1.365,-2.12 0.754,-2.729 0,-2.729" style="fill:white;fill-rule:nonzero;"/>
        </g>
        <g transform="matrix(1,0,0,1,437.144,490.497)">
            <path d="M0,0.172C-0.227,0.102 -0.451,0.041 -0.67,0C-0.67,0 -0.423,0.076 0,0.172" style="fill:white;fill-rule:nonzero;"/>
        </g>
        <g transform="matrix(1,0,0,1,452.781,477.743)">
            <path d="M0,18.832C0.636,18.843 1.274,18.824 1.913,18.78L1.913,23.821L0,23.777L0,18.832ZM27.4,19.923L18.46,19.923C18.031,19.923 17.683,20.271 17.683,20.699L17.683,23.407L11.846,24.049L3.319,23.853L3.319,18.645C4.451,18.5 5.586,18.274 6.712,17.957C14.92,15.641 16.71,10.528 16.531,5.833C16.353,1.052 17.883,-0.806 20.082,-1.632C20.711,-1.868 21.334,-2.018 21.904,-2.114C21.929,-0.939 22.167,0.426 22.691,2.053C22.887,2.042 23.081,2.025 23.273,2.005C22.719,0.34 22.482,-1.028 22.47,-2.196C23.605,-2.33 24.416,-2.255 24.416,-2.255C24.416,-2.255 23.648,-2.667 22.563,-3.574C22.933,-5.838 24.281,-7.229 25.671,-8.65C26.436,-9.434 27.225,-10.241 27.847,-11.204L27.362,-11.517C26.773,-10.602 26.001,-9.815 25.258,-9.054C23.902,-7.667 22.534,-6.25 22.07,-4.002C21.63,-4.399 21.153,-4.87 20.666,-5.417C18.642,-7.687 16.036,-6.02 12.32,-2.56C8.603,0.898 3.929,1.017 -0.637,-3.654C-6.66,-9.821 -11.915,-9.786 -15.518,-9.436C-13.053,-8.386 -12.191,-6.083 -10.943,-0.229C-9.636,5.914 -6.338,8.693 -1.827,9.077C-3.919,9.416 -4.461,9.706 -7.822,12.027C-10.447,13.839 -14.141,13.267 -15.638,12.926C-12.889,13.783 -9.634,16.666 -6.721,17.67C-5.024,18.253 -3.236,18.614 -1.405,18.76L-1.405,23.745L-17.579,23.396L-17.579,26.875L11.846,26.223L17.683,26.864L17.683,29.57C17.683,29.998 18.031,30.349 18.46,30.349L27.4,30.349C27.83,30.349 28.179,29.998 28.179,29.57L28.179,20.699C28.179,20.271 27.83,19.923 27.4,19.923" style="fill:white;fill-rule:nonzero;"/>
        </g>
        <g transform="matrix(1,0,0,1,434.367,501.639)">
            <path d="M0,2.404C0,3.137 -0.512,3.732 -1.143,3.732L-1.83,3.732C-2.459,3.732 -2.973,3.137 -2.973,2.404L-2.973,0C-2.973,-0.735 -2.459,-1.328 -1.83,-1.328L-1.143,-1.328C-0.512,-1.328 0,-0.735 0,0L0,2.404Z" style="fill:white;fill-rule:nonzero;"/>
        </g>
        <g transform="matrix(1,0,0,1,412.053,440.705)">
            <path d="M0,-14.252L0,-10.326L0.034,-10.326L2.674,-13.065L2.707,-13.065L2.707,4.061L6.469,4.061L6.469,-18.313L3.467,-18.313L0,-14.252Z" style="fill:white;fill-rule:nonzero;"/>
        </g>
        <g transform="matrix(1,0,0,1,427.959,427.444)">
            <path d="M0,12.274C0,13.693 -0.527,14.518 -1.813,14.518C-3.067,14.518 -3.562,13.661 -3.562,12.274L-3.562,8.183C-3.497,6.929 -2.969,6.136 -1.78,6.136C-0.495,6.136 0,6.929 0,8.38L0,12.274ZM3.729,11.945L3.729,8.645C3.729,4.982 2.277,3.133 -0.428,3.133C-2.013,3.133 -2.969,3.859 -3.529,4.949L-3.562,4.949L-3.562,0.13C-3.562,-1.223 -3.135,-2.179 -1.78,-2.179C-0.428,-2.179 -0.032,-1.388 -0.032,-0.002L-0.032,1.485L3.399,1.485L3.399,0.295C3.399,-3.004 2.312,-5.313 -1.848,-5.313C-5.807,-5.313 -7.292,-2.773 -7.292,0.725L-7.292,11.614C-7.292,15.079 -5.773,17.587 -1.813,17.587C2.178,17.587 3.729,15.41 3.729,11.945" style="fill:white;fill-rule:nonzero;"/>
        </g>
        <g transform="matrix(1,0,0,1,440.154,430.364)">
            <path d="M0,-6.786L0,-3.103L0.58,-3.103C1.117,-3.103 1.353,-3.365 1.353,-3.876L1.353,-6.027C1.353,-6.538 1.117,-6.786 0.58,-6.786L0,-6.786ZM-1.572,-8.069L0.759,-8.069C2.346,-8.069 2.925,-7.283 2.925,-5.973L2.925,-4C2.925,-2.689 2.346,-1.89 0.759,-1.89L0,-1.89L0,1.283L-1.572,1.283L-1.572,-8.069Z" style="fill:white;fill-rule:nonzero;"/>
        </g>
        <g transform="matrix(1,0,0,1,443.892,431.648)">
            <path d="M0,-9.353L3.752,-9.353L3.752,-8.07L1.572,-8.07L1.572,-5.394L3.132,-5.394L3.132,-4.124L1.572,-4.124L1.572,-1.284L3.752,-1.284L3.752,0L0,0L0,-9.353Z" style="fill:white;fill-rule:nonzero;"/>
        </g>
        <g transform="matrix(1,0,0,1,450.209,425.261)">
            <path d="M0,3.421L1.255,3.421L0.635,-0.331L0.62,-0.331L0,3.421ZM-1.973,6.387L-0.207,-2.966L1.586,-2.966L3.365,6.387L1.752,6.387L1.462,4.676L-0.207,4.676L-0.483,6.387L-1.973,6.387Z" style="fill:white;fill-rule:nonzero;"/>
        </g>
        <g transform="matrix(1,0,0,1,454.014,424.708)">
            <path d="M0,4.525L0,0.001C0,-1.461 0.689,-2.524 2.345,-2.524C4.083,-2.524 4.566,-1.558 4.566,-0.178L4.566,0.925L3.131,0.925L3.131,-0.303C3.131,-0.882 2.938,-1.213 2.373,-1.213C1.807,-1.213 1.572,-0.813 1.572,-0.247L1.572,4.773C1.572,5.339 1.807,5.739 2.373,5.739C2.938,5.739 3.131,5.38 3.131,4.829L3.131,3.104L4.566,3.104L4.566,4.718C4.566,6.056 4.014,7.049 2.345,7.049C0.689,7.049 0,5.973 0,4.525" style="fill:white;fill-rule:nonzero;"/>
        </g>
        <g transform="matrix(1,0,0,1,459.434,431.648)">
            <path d="M0,-9.353L3.752,-9.353L3.752,-8.07L1.572,-8.07L1.572,-5.394L3.131,-5.394L3.131,-4.124L1.572,-4.124L1.572,-1.284L3.752,-1.284L3.752,0L0,0L0,-9.353Z" style="fill:white;fill-rule:nonzero;"/>
        </g>
        <g transform="matrix(1,0,0,1,465.641,432.254)">
            <path d="M0,-1.985L-0.801,0.125L-1.684,0.125L-1.49,-2.11L0,-2.11L0,-1.985Z" style="fill:white;fill-rule:nonzero;"/>
        </g>
        <g transform="matrix(1,0,0,1,472.164,431.758)">
            <path d="M0,-9.463L0,-2.234C0,-0.883 -0.593,0 -2.166,0C-3.793,0 -4.234,-0.897 -4.234,-2.083L-4.234,-3.945L-2.745,-3.945L-2.745,-2.056C-2.745,-1.586 -2.579,-1.311 -2.166,-1.311C-1.738,-1.311 -1.572,-1.586 -1.572,-2.069L-1.572,-9.463L0,-9.463Z" style="fill:white;fill-rule:nonzero;"/>
        </g>
        <g transform="matrix(1,0,0,1,477.611,431.758)">
            <path d="M0,-9.463L0,-2.387C0,-0.939 -0.62,0 -2.221,0C-3.876,0 -4.565,-0.939 -4.565,-2.387L-4.565,-9.463L-2.993,-9.463L-2.993,-2.234C-2.993,-1.683 -2.772,-1.311 -2.221,-1.311C-1.669,-1.311 -1.448,-1.683 -1.448,-2.234L-1.448,-9.463L0,-9.463Z" style="fill:white;fill-rule:nonzero;"/>
        </g>
        <g transform="matrix(1,0,0,1,478.423,424.309)">
            <path d="M0,5.325L0,4.069L1.463,4.069L1.463,5.352C1.463,5.877 1.697,6.18 2.235,6.18C2.731,6.18 2.952,5.848 2.952,5.352L2.952,4.994C2.952,4.456 2.731,4.125 2.249,3.67L1.324,2.745C0.428,1.862 0.015,1.325 0.015,0.249L0.015,-0.069C0.015,-1.228 0.69,-2.124 2.222,-2.124C3.794,-2.124 4.414,-1.352 4.414,0.001L4.414,0.759L2.979,0.759L2.979,-0.055C2.979,-0.593 2.731,-0.855 2.235,-0.855C1.794,-0.855 1.49,-0.607 1.49,-0.082L1.49,0.11C1.49,0.635 1.78,0.938 2.235,1.38L3.242,2.373C4.097,3.242 4.511,3.766 4.511,4.801L4.511,5.256C4.511,6.539 3.821,7.449 2.222,7.449C0.621,7.449 0,6.553 0,5.325" style="fill:white;fill-rule:nonzero;"/>
        </g>
        <g transform="matrix(1,0,0,1,483.373,431.648)">
            <path d="M0,-9.353L4.18,-9.353L4.18,-8.07L2.884,-8.07L2.884,0L1.297,0L1.297,-8.07L0,-8.07L0,-9.353Z" style="fill:white;fill-rule:nonzero;"/>
        </g>
        <g transform="matrix(1,0,0,1,0,241.943)">
            <rect x="488.283" y="180.352" width="1.572" height="9.353" style="fill:white;"/>
        </g>
        <g transform="matrix(1,0,0,1,490.766,424.708)">
            <path d="M0,4.525L0,0.001C0,-1.461 0.689,-2.524 2.345,-2.524C4.083,-2.524 4.566,-1.558 4.566,-0.178L4.566,0.925L3.131,0.925L3.131,-0.303C3.131,-0.882 2.938,-1.213 2.373,-1.213C1.807,-1.213 1.572,-0.813 1.572,-0.247L1.572,4.773C1.572,5.339 1.807,5.739 2.373,5.739C2.938,5.739 3.131,5.38 3.131,4.829L3.131,3.104L4.566,3.104L4.566,4.718C4.566,6.056 4.014,7.049 2.345,7.049C0.689,7.049 0,5.973 0,4.525" style="fill:white;fill-rule:nonzero;"/>
        </g>
        <g transform="matrix(1,0,0,1,496.185,431.648)">
            <path d="M0,-9.353L3.752,-9.353L3.752,-8.07L1.572,-8.07L1.572,-5.394L3.131,-5.394L3.131,-4.124L1.572,-4.124L1.572,-1.284L3.752,-1.284L3.752,0L0,0L0,-9.353Z" style="fill:white;fill-rule:nonzero;"/>
        </g>
        <g transform="matrix(1,0,0,1,440.307,438.362)">
            <path d="M0,3.421L1.255,3.421L0.635,-0.331L0.62,-0.331L0,3.421ZM-1.973,6.387L-0.207,-2.966L1.586,-2.966L3.365,6.387L1.752,6.387L1.462,4.676L-0.207,4.676L-0.483,6.387L-1.973,6.387Z" style="fill:white;fill-rule:nonzero;"/>
        </g>
        <g transform="matrix(1,0,0,1,445.644,441.272)">
            <path d="M0,-2.399L0,3.477L-1.324,3.477L-1.324,-5.876L0.221,-5.876L1.917,-0.509L1.917,-5.876L3.228,-5.876L3.228,3.477L1.849,3.477L0,-2.399Z" style="fill:white;fill-rule:nonzero;"/>
        </g>
        <g transform="matrix(1,0,0,1,452.001,436.68)">
            <path d="M0,6.786C0.648,6.786 0.897,6.4 0.897,5.835L0.897,0.937C0.897,0.386 0.648,0 0,0L-0.662,0L-0.662,6.786L0,6.786ZM2.47,1.227L2.47,5.558C2.47,6.993 1.876,8.069 0.193,8.069L-2.234,8.069L-2.234,-1.283L0.193,-1.283C1.876,-1.283 2.47,-0.221 2.47,1.227" style="fill:white;fill-rule:nonzero;"/>
        </g>
        <g transform="matrix(1,0,0,1,456.729,437.41)">
            <path d="M0,5.325L0,4.069L1.463,4.069L1.463,5.352C1.463,5.877 1.697,6.18 2.235,6.18C2.731,6.18 2.952,5.848 2.952,5.352L2.952,4.994C2.952,4.456 2.731,4.125 2.249,3.67L1.324,2.745C0.428,1.862 0.015,1.325 0.015,0.249L0.015,-0.069C0.015,-1.228 0.69,-2.124 2.222,-2.124C3.794,-2.124 4.414,-1.352 4.414,0.001L4.414,0.759L2.979,0.759L2.979,-0.055C2.979,-0.593 2.731,-0.855 2.235,-0.855C1.794,-0.855 1.49,-0.607 1.49,-0.082L1.49,0.11C1.49,0.635 1.78,0.938 2.235,1.38L3.242,2.373C4.097,3.242 4.511,3.766 4.511,4.801L4.511,5.256C4.511,6.539 3.821,7.449 2.222,7.449C0.621,7.449 0,6.553 0,5.325" style="fill:white;fill-rule:nonzero;"/>
        </g>
        <g transform="matrix(1,0,0,1,461.68,444.75)">
            <path d="M0,-9.353L4.18,-9.353L4.18,-8.07L2.884,-8.07L2.884,0L1.297,0L1.297,-8.07L0,-8.07L0,-9.353Z" style="fill:white;fill-rule:nonzero;"/>
        </g>
        <g transform="matrix(1,0,0,1,468.162,443.466)">
            <path d="M0,-6.786L0,-3.876L0.524,-3.876C1.062,-3.876 1.297,-4.151 1.297,-4.648L1.297,-6.027C1.297,-6.538 1.062,-6.786 0.524,-6.786L0,-6.786ZM0,-3.007L0,1.283L-1.572,1.283L-1.572,-8.069L0.718,-8.069C2.304,-8.069 2.883,-7.283 2.883,-5.973L2.883,-4.772C2.883,-3.765 2.524,-3.172 1.628,-2.965L3.132,1.283L1.477,1.283L0,-3.007Z" style="fill:white;fill-rule:nonzero;"/>
        </g>
        <g transform="matrix(1,0,0,1,475.086,437.562)">
            <path d="M0,5.021L0,0C0,-0.565 -0.248,-0.965 -0.813,-0.965C-1.365,-0.965 -1.614,-0.565 -1.614,0L-1.614,5.021C-1.614,5.587 -1.365,5.987 -0.813,5.987C-0.248,5.987 0,5.587 0,5.021M-3.187,4.773L-3.187,0.249C-3.187,-1.213 -2.469,-2.276 -0.813,-2.276C0.855,-2.276 1.572,-1.213 1.572,0.249L1.572,4.773C1.572,6.221 0.855,7.297 -0.813,7.297C-2.469,7.297 -3.187,6.221 -3.187,4.773" style="fill:white;fill-rule:nonzero;"/>
        </g>
        <g transform="matrix(1,0,0,1,478.878,441.272)">
            <path d="M0,-2.399L0,3.477L-1.324,3.477L-1.324,-5.876L0.221,-5.876L1.917,-0.509L1.917,-5.876L3.228,-5.876L3.228,3.477L1.849,3.477L0,-2.399Z" style="fill:white;fill-rule:nonzero;"/>
        </g>
        <g transform="matrix(1,0,0,1,485.373,440.39)">
            <path d="M0,-0.634L2.234,-0.634L2.234,4.359L1.104,4.359L1.104,3.339C0.896,4.042 0.455,4.47 -0.4,4.47C-1.752,4.47 -2.373,3.393 -2.373,1.945L-2.373,-2.579C-2.373,-4.041 -1.67,-5.104 -0.014,-5.104C1.724,-5.104 2.234,-4.138 2.234,-2.758L2.234,-1.931L0.8,-1.931L0.8,-2.883C0.8,-3.462 0.579,-3.793 0.014,-3.793C-0.552,-3.793 -0.801,-3.393 -0.801,-2.827L-0.801,2.193C-0.801,2.76 -0.566,3.159 -0.028,3.159C0.482,3.159 0.744,2.869 0.744,2.262L0.744,0.607L0,0.607L0,-0.634Z" style="fill:white;fill-rule:nonzero;"/>
        </g>
        <g transform="matrix(1,0,0,1,0,294.347)">
            <rect x="438.582" y="154.15" width="1.572" height="9.353" style="fill:white;"/>
        </g>
        <g transform="matrix(1,0,0,1,442.389,454.373)">
            <path d="M0,-2.399L0,3.477L-1.324,3.477L-1.324,-5.876L0.221,-5.876L1.918,-0.509L1.918,-5.876L3.228,-5.876L3.228,3.477L1.849,3.477L0,-2.399Z" style="fill:white;fill-rule:nonzero;"/>
        </g>
        <g transform="matrix(1,0,0,1,446.429,450.511)">
            <path d="M0,5.325L0,4.069L1.463,4.069L1.463,5.352C1.463,5.877 1.697,6.179 2.235,6.179C2.731,6.179 2.952,5.849 2.952,5.352L2.952,4.994C2.952,4.456 2.731,4.125 2.249,3.67L1.324,2.745C0.428,1.862 0.015,1.324 0.015,0.249L0.015,-0.069C0.015,-1.228 0.69,-2.124 2.222,-2.124C3.794,-2.124 4.414,-1.352 4.414,0L4.414,0.759L2.979,0.759L2.979,-0.055C2.979,-0.593 2.731,-0.855 2.235,-0.855C1.794,-0.855 1.49,-0.607 1.49,-0.082L1.49,0.111C1.49,0.635 1.78,0.938 2.235,1.38L3.242,2.373C4.097,3.242 4.511,3.766 4.511,4.801L4.511,5.256C4.511,6.539 3.821,7.449 2.222,7.449C0.621,7.449 0,6.553 0,5.325" style="fill:white;fill-rule:nonzero;"/>
        </g>
        <g transform="matrix(1,0,0,1,451.379,457.85)">
            <path d="M0,-9.353L4.179,-9.353L4.179,-8.07L2.883,-8.07L2.883,0L1.296,0L1.296,-8.07L0,-8.07L0,-9.353Z" style="fill:white;fill-rule:nonzero;"/>
        </g>
        <g transform="matrix(1,0,0,1,0,294.347)">
            <rect x="456.288" y="154.15" width="1.572" height="9.353" style="fill:white;"/>
        </g>
        <g transform="matrix(1,0,0,1,458.592,457.85)">
            <path d="M0,-9.353L4.179,-9.353L4.179,-8.07L2.883,-8.07L2.883,0L1.296,0L1.296,-8.07L0,-8.07L0,-9.353Z" style="fill:white;fill-rule:nonzero;"/>
        </g>
        <g transform="matrix(1,0,0,1,468.066,457.96)">
            <path d="M0,-9.463L0,-2.387C0,-0.938 -0.62,0 -2.221,0C-3.876,0 -4.565,-0.938 -4.565,-2.387L-4.565,-9.463L-2.993,-9.463L-2.993,-2.234C-2.993,-1.683 -2.772,-1.311 -2.221,-1.311C-1.669,-1.311 -1.448,-1.683 -1.448,-2.234L-1.448,-9.463L0,-9.463Z" style="fill:white;fill-rule:nonzero;"/>
        </g>
        <g transform="matrix(1,0,0,1,468.783,457.85)">
            <path d="M0,-9.353L4.179,-9.353L4.179,-8.07L2.883,-8.07L2.883,0L1.296,0L1.296,-8.07L0,-8.07L0,-9.353Z" style="fill:white;fill-rule:nonzero;"/>
        </g>
        <g transform="matrix(1,0,0,1,0,294.347)">
            <rect x="473.692" y="154.15" width="1.572" height="9.353" style="fill:white;"/>
        </g>
        <g transform="matrix(1,0,0,1,479.36,450.663)">
            <path d="M0,5.021L0,0C0,-0.565 -0.248,-0.965 -0.813,-0.965C-1.365,-0.965 -1.614,-0.565 -1.614,0L-1.614,5.021C-1.614,5.586 -1.365,5.987 -0.813,5.987C-0.248,5.987 0,5.586 0,5.021M-3.187,4.773L-3.187,0.249C-3.187,-1.213 -2.469,-2.276 -0.813,-2.276C0.855,-2.276 1.572,-1.213 1.572,0.249L1.572,4.773C1.572,6.221 0.855,7.297 -0.813,7.297C-2.469,7.297 -3.187,6.221 -3.187,4.773" style="fill:white;fill-rule:nonzero;"/>
        </g>
        <g transform="matrix(1,0,0,1,483.152,454.373)">
            <path d="M0,-2.399L0,3.477L-1.324,3.477L-1.324,-5.876L0.221,-5.876L1.918,-0.509L1.918,-5.876L3.228,-5.876L3.228,3.477L1.849,3.477L0,-2.399Z" style="fill:white;fill-rule:nonzero;"/>
        </g>
        <g transform="matrix(1,0,0,1,487.192,450.511)">
            <path d="M0,5.325L0,4.069L1.463,4.069L1.463,5.352C1.463,5.877 1.697,6.179 2.235,6.179C2.731,6.179 2.952,5.849 2.952,5.352L2.952,4.994C2.952,4.456 2.731,4.125 2.249,3.67L1.324,2.745C0.428,1.862 0.015,1.324 0.015,0.249L0.015,-0.069C0.015,-1.228 0.69,-2.124 2.222,-2.124C3.794,-2.124 4.414,-1.352 4.414,0L4.414,0.759L2.979,0.759L2.979,-0.055C2.979,-0.593 2.731,-0.855 2.235,-0.855C1.794,-0.855 1.49,-0.607 1.49,-0.082L1.49,0.111C1.49,0.635 1.78,0.938 2.235,1.38L3.242,2.373C4.097,3.242 4.511,3.766 4.511,4.801L4.511,5.256C4.511,6.539 3.821,7.449 2.222,7.449C0.621,7.449 0,6.553 0,5.325" style="fill:white;fill-rule:nonzero;"/>
        </g>
    </g>
</svg>
