<?xml version="1.0" encoding="UTF-8" standalone="no"?>
<!DOCTYPE svg PUBLIC "-//W3C//DTD SVG 1.1//EN" "http://www.w3.org/Graphics/SVG/1.1/DTD/svg11.dtd">
<svg width="100%" height="100%" viewBox="0 0 463 463" version="1.1" xmlns="http://www.w3.org/2000/svg" xmlns:xlink="http://www.w3.org/1999/xlink" xml:space="preserve" xmlns:serif="http://www.serif.com/" style="fill-rule:evenodd;clip-rule:evenodd;stroke-linejoin:round;stroke-miterlimit:2;">
    <g transform="matrix(4.16667,0,0,4.16667,-2706.03,-716.583)">
        <g transform="matrix(-1,0,0,1,1409.85,-157.076)">
            <rect x="649.447" y="329.056" width="110.957" height="110.964" style="fill:rgb(0,173,216);"/>
        </g>
        <g transform="matrix(1,0,0,1,722.573,264.558)">
            <path d="M0,-39.102C-1.091,-39.582 -2.475,-39.41 -3.802,-38.872C-8.797,-36.847 -12.196,-36.119 -17.45,-37.764C-20.758,-38.799 -23.854,-40.968 -27.513,-39.648C-29.94,-38.774 -32.203,-37.941 -34.948,-37.962L-36.534,-46.092L1.14,-46.092L0,-39.102ZM-12.77,-14.961C-12.77,-14.961 -14.599,-13.082 -17.573,-13.286C-20.556,-13.082 -22.382,-14.961 -22.382,-14.961C-25.398,-17.975 -24.322,-21.723 -23.272,-23.66C-22.624,-24.873 -17.99,-31.832 -17.592,-32.424L-17.592,-32.471C-17.592,-32.471 -17.585,-32.461 -17.573,-32.448L-17.558,-32.471L-17.558,-32.424C-17.17,-31.832 -12.529,-24.873 -11.881,-23.66C-10.829,-21.723 -9.757,-17.975 -12.77,-14.961M2.788,-47.708C2.694,-47.81 2.567,-47.867 2.424,-47.867L-37.831,-47.867C-37.971,-47.867 -38.099,-47.81 -38.193,-47.708C-38.281,-47.596 -38.316,-47.457 -38.294,-47.328L-31.53,-6.423C-31.493,-6.197 -31.296,-6.029 -31.066,-6.029L-22.766,-6.029L-22.198,0.633L-25.691,0.637L-17.563,8.765L-9.417,0.619L-12.908,0.623L-12.342,-6.029L-3.896,-6.029C-3.662,-6.029 -3.468,-6.197 -3.433,-6.43L2.895,-47.328C2.916,-47.468 2.875,-47.602 2.788,-47.708" style="fill:white;fill-rule:nonzero;"/>
        </g>
        <g transform="matrix(1,0,0,1,664.485,190.452)">
            <path d="M0,4.089C0.066,2.836 0.595,2.044 1.782,2.044C3.068,2.044 3.563,2.836 3.563,4.289L3.563,8.183C3.563,9.601 3.037,10.426 1.75,10.426C0.495,10.426 0,9.568 0,8.183L0,4.089ZM1.75,13.495C5.741,13.495 7.293,11.317 7.293,7.851L7.293,4.551C7.293,0.889 5.841,-0.959 3.134,-0.959C1.551,-0.959 0.595,-0.232 0.033,0.857L0,0.857L0,-3.962C0,-5.316 0.43,-6.272 1.782,-6.272C3.134,-6.272 3.531,-5.479 3.531,-4.094L3.531,-2.609L6.963,-2.609L6.963,-3.797C6.963,-7.098 5.874,-9.406 1.716,-9.406C-2.243,-9.406 -3.729,-6.866 -3.729,-3.369L-3.729,7.521C-3.729,10.987 -2.211,13.495 1.75,13.495" style="fill:white;fill-rule:nonzero;"/>
        </g>
        <g transform="matrix(1,0,0,1,681.641,183.951)">
            <path d="M0,4.524L0,0C0,-1.462 0.689,-2.524 2.345,-2.524C4.083,-2.524 4.566,-1.559 4.566,-0.18L4.566,0.924L3.131,0.924L3.131,-0.303C3.131,-0.883 2.938,-1.214 2.373,-1.214C1.807,-1.214 1.572,-0.814 1.572,-0.248L1.572,4.773C1.572,5.338 1.807,5.738 2.373,5.738C2.938,5.738 3.131,5.38 3.131,4.828L3.131,3.103L4.566,3.103L4.566,4.718C4.566,6.055 4.014,7.048 2.345,7.048C0.689,7.048 0,5.972 0,4.524" style="fill:white;fill-rule:nonzero;"/>
        </g>
        <g transform="matrix(1,0,0,1,687.06,190.89)">
            <path d="M0,-9.353L1.572,-9.353L1.572,-1.283L3.448,-1.283L3.448,0L0,0L0,-9.353Z" style="fill:white;fill-rule:nonzero;"/>
        </g>
        <g transform="matrix(1,0,0,1,691.226,190.89)">
            <path d="M0,-9.353L3.752,-9.353L3.752,-8.07L1.572,-8.07L1.572,-5.394L3.132,-5.394L3.132,-4.125L1.572,-4.125L1.572,-1.283L3.752,-1.283L3.752,0L0,0L0,-9.353Z" style="fill:white;fill-rule:nonzero;"/>
        </g>
        <g transform="matrix(1,0,0,1,697.542,184.502)">
            <path d="M0,3.421L1.255,3.421L0.634,-0.331L0.62,-0.331L0,3.421ZM-1.973,6.387L-0.207,-2.966L1.586,-2.966L3.365,6.387L1.752,6.387L1.462,4.676L-0.207,4.676L-0.483,6.387L-1.973,6.387Z" style="fill:white;fill-rule:nonzero;"/>
        </g>
        <g transform="matrix(1,0,0,1,702.879,187.412)">
            <path d="M0,-2.399L0,3.477L-1.324,3.477L-1.324,-5.876L0.221,-5.876L1.918,-0.509L1.918,-5.876L3.228,-5.876L3.228,3.477L1.849,3.477L0,-2.399Z" style="fill:white;fill-rule:nonzero;"/>
        </g>
        <g transform="matrix(1,0,0,1,711.844,187.316)">
            <path d="M0,-2.207L-0.883,3.573L-2.359,3.573L-3.614,-5.78L-2.097,-5.78L-1.365,0.152L-1.352,0.152L-0.565,-5.78L0.717,-5.78L1.586,0.152L1.6,0.152L2.317,-5.78L3.642,-5.78L2.428,3.573L0.937,3.573L0.014,-2.207L0,-2.207Z" style="fill:white;fill-rule:nonzero;"/>
        </g>
        <g transform="matrix(1,0,0,1,717.332,184.502)">
            <path d="M0,3.421L1.255,3.421L0.635,-0.331L0.62,-0.331L0,3.421ZM-1.973,6.387L-0.207,-2.966L1.586,-2.966L3.365,6.387L1.752,6.387L1.462,4.676L-0.207,4.676L-0.483,6.387L-1.973,6.387Z" style="fill:white;fill-rule:nonzero;"/>
        </g>
        <g transform="matrix(1,0,0,1,720.477,190.89)">
            <path d="M0,-9.353L4.179,-9.353L4.179,-8.07L2.883,-8.07L2.883,0L1.296,0L1.296,-8.07L0,-8.07L0,-9.353Z" style="fill:white;fill-rule:nonzero;"/>
        </g>
        <g transform="matrix(1,0,0,1,725.385,190.89)">
            <path d="M0,-9.353L3.752,-9.353L3.752,-8.07L1.572,-8.07L1.572,-5.394L3.131,-5.394L3.131,-4.125L1.572,-4.125L1.572,-1.283L3.752,-1.283L3.752,0L0,0L0,-9.353Z" style="fill:white;fill-rule:nonzero;"/>
        </g>
        <g transform="matrix(1,0,0,1,731.55,189.607)">
            <path d="M0,-6.787L0,-3.877L0.524,-3.877C1.062,-3.877 1.297,-4.152 1.297,-4.649L1.297,-6.028C1.297,-6.538 1.062,-6.787 0.524,-6.787L0,-6.787ZM0,-3.008L0,1.283L-1.572,1.283L-1.572,-8.07L0.718,-8.07C2.304,-8.07 2.884,-7.284 2.884,-5.974L2.884,-4.773C2.884,-3.766 2.524,-3.173 1.628,-2.966L3.132,1.283L1.477,1.283L0,-3.008Z" style="fill:white;fill-rule:nonzero;"/>
        </g>
        <g transform="matrix(1,0,0,1,683.365,197.603)">
            <path d="M0,3.421L1.255,3.421L0.635,-0.331L0.62,-0.331L0,3.421ZM-1.973,6.387L-0.207,-2.966L1.586,-2.966L3.365,6.387L1.752,6.387L1.462,4.676L-0.207,4.676L-0.483,6.387L-1.973,6.387Z" style="fill:white;fill-rule:nonzero;"/>
        </g>
        <g transform="matrix(1,0,0,1,688.702,200.512)">
            <path d="M0,-2.398L0,3.477L-1.324,3.477L-1.324,-5.875L0.221,-5.875L1.917,-0.509L1.917,-5.875L3.228,-5.875L3.228,3.477L1.849,3.477L0,-2.398Z" style="fill:white;fill-rule:nonzero;"/>
        </g>
        <g transform="matrix(1,0,0,1,695.06,195.92)">
            <path d="M0,6.787C0.648,6.787 0.897,6.401 0.897,5.836L0.897,0.938C0.897,0.387 0.648,0 0,0L-0.662,0L-0.662,6.787L0,6.787ZM2.47,1.228L2.47,5.559C2.47,6.994 1.876,8.07 0.193,8.07L-2.234,8.07L-2.234,-1.283L0.193,-1.283C1.876,-1.283 2.47,-0.22 2.47,1.228" style="fill:white;fill-rule:nonzero;"/>
        </g>
        <g transform="matrix(1,0,0,1,699.788,196.651)">
            <path d="M0,5.325L0,4.07L1.463,4.07L1.463,5.352C1.463,5.877 1.697,6.18 2.235,6.18C2.731,6.18 2.952,5.849 2.952,5.352L2.952,4.994C2.952,4.456 2.731,4.125 2.249,3.67L1.324,2.745C0.428,1.863 0.015,1.325 0.015,0.249L0.015,-0.069C0.015,-1.227 0.69,-2.124 2.222,-2.124C3.794,-2.124 4.414,-1.352 4.414,0.001L4.414,0.76L2.979,0.76L2.979,-0.055C2.979,-0.593 2.731,-0.855 2.235,-0.855C1.794,-0.855 1.49,-0.607 1.49,-0.082L1.49,0.111C1.49,0.635 1.78,0.939 2.235,1.38L3.242,2.373C4.097,3.242 4.511,3.766 4.511,4.801L4.511,5.256C4.511,6.539 3.821,7.449 2.222,7.449C0.621,7.449 0,6.553 0,5.325" style="fill:white;fill-rule:nonzero;"/>
        </g>
        <g transform="matrix(1,0,0,1,706.712,197.603)">
            <path d="M0,3.421L1.255,3.421L0.634,-0.331L0.62,-0.331L0,3.421ZM-1.973,6.387L-0.207,-2.966L1.586,-2.966L3.365,6.387L1.752,6.387L1.462,4.676L-0.207,4.676L-0.483,6.387L-1.973,6.387Z" style="fill:white;fill-rule:nonzero;"/>
        </g>
        <g transform="matrix(1,0,0,1,712.049,200.512)">
            <path d="M0,-2.398L0,3.477L-1.324,3.477L-1.324,-5.875L0.221,-5.875L1.918,-0.509L1.918,-5.875L3.228,-5.875L3.228,3.477L1.849,3.477L0,-2.398Z" style="fill:white;fill-rule:nonzero;"/>
        </g>
        <g transform="matrix(1,0,0,1,0,-213.373)">
            <rect x="716.172" y="408.01" width="1.572" height="9.353" style="fill:white;"/>
        </g>
        <g transform="matrix(1,0,0,1,718.475,203.99)">
            <path d="M0,-9.353L4.18,-9.353L4.18,-8.07L2.884,-8.07L2.884,0L1.297,0L1.297,-8.07L0,-8.07L0,-9.353Z" style="fill:white;fill-rule:nonzero;"/>
        </g>
        <g transform="matrix(1,0,0,1,724.419,197.603)">
            <path d="M0,3.421L1.255,3.421L0.634,-0.331L0.62,-0.331L0,3.421ZM-1.973,6.387L-0.207,-2.966L1.586,-2.966L3.365,6.387L1.752,6.387L1.462,4.676L-0.207,4.676L-0.483,6.387L-1.973,6.387Z" style="fill:white;fill-rule:nonzero;"/>
        </g>
        <g transform="matrix(1,0,0,1,727.562,203.99)">
            <path d="M0,-9.353L4.18,-9.353L4.18,-8.07L2.884,-8.07L2.884,0L1.297,0L1.297,-8.07L0,-8.07L0,-9.353Z" style="fill:white;fill-rule:nonzero;"/>
        </g>
        <g transform="matrix(1,0,0,1,0,-213.373)">
            <rect x="732.473" y="408.01" width="1.572" height="9.353" style="fill:white;"/>
        </g>
        <g transform="matrix(1,0,0,1,738.142,196.803)">
            <path d="M0,5.021L0,0C0,-0.565 -0.248,-0.966 -0.813,-0.966C-1.365,-0.966 -1.614,-0.565 -1.614,0L-1.614,5.021C-1.614,5.586 -1.365,5.986 -0.813,5.986C-0.248,5.986 0,5.586 0,5.021M-3.187,4.772L-3.187,0.249C-3.187,-1.213 -2.469,-2.276 -0.813,-2.276C0.855,-2.276 1.572,-1.213 1.572,0.249L1.572,4.772C1.572,6.221 0.855,7.297 -0.813,7.297C-2.469,7.297 -3.187,6.221 -3.187,4.772" style="fill:white;fill-rule:nonzero;"/>
        </g>
        <g transform="matrix(1,0,0,1,741.934,200.512)">
            <path d="M0,-2.398L0,3.477L-1.324,3.477L-1.324,-5.875L0.221,-5.875L1.918,-0.509L1.918,-5.875L3.228,-5.875L3.228,3.477L1.849,3.477L0,-2.398Z" style="fill:white;fill-rule:nonzero;"/>
        </g>
    </g>
</svg>
