<?xml version="1.0" encoding="UTF-8" standalone="no"?>
<!DOCTYPE svg PUBLIC "-//W3C//DTD SVG 1.1//EN" "http://www.w3.org/Graphics/SVG/1.1/DTD/svg11.dtd">
<svg width="100%" height="100%" viewBox="0 0 463 463" version="1.1" xmlns="http://www.w3.org/2000/svg" xmlns:xlink="http://www.w3.org/1999/xlink" xml:space="preserve" xmlns:serif="http://www.serif.com/" style="fill-rule:evenodd;clip-rule:evenodd;stroke-linejoin:round;stroke-miterlimit:2;">
    <g transform="matrix(4.16667,0,0,4.16667,-2193.64,-716.583)">
        <g transform="matrix(-1,0,0,1,1163.91,-157.076)">
            <rect x="526.474" y="329.056" width="110.958" height="110.964" style="fill:rgb(239,64,42);"/>
        </g>
        <g transform="matrix(1,0,0,1,581.769,234.492)">
            <path d="M0,18.009C-7.331,18.009 -13.294,12.044 -13.294,4.714C-13.294,-2.617 -7.331,-8.581 0,-8.581C7.332,-8.581 13.296,-2.617 13.296,4.714C13.296,12.044 7.332,18.009 0,18.009M25.532,-20.525L11.742,-20.525C11.647,-20.525 11.567,-20.447 11.567,-20.349L11.567,-15.766C11.567,-15.668 11.647,-15.59 11.742,-15.59L17.233,-15.59L11.136,-9.491C8.064,-11.904 4.2,-13.348 0,-13.348C-9.958,-13.348 -18.062,-5.246 -18.062,4.714C-18.062,13.884 -11.192,21.472 -2.331,22.62L-2.331,27.901L-7.771,27.901C-7.872,27.901 -7.948,27.979 -7.948,28.075L-7.948,32.987C-7.948,33.085 -7.872,33.163 -7.771,33.163L-2.331,33.163L-2.331,38.359C-2.331,38.456 -2.253,38.534 -2.156,38.534L2.753,38.534C2.851,38.534 2.932,38.456 2.932,38.359L2.932,33.163L8.37,33.163C8.467,33.163 8.545,33.085 8.545,32.987L8.545,28.075C8.545,27.979 8.467,27.901 8.37,27.901L2.932,27.901L2.932,22.534C11.501,21.129 18.062,13.676 18.062,4.714C18.062,0.848 16.838,-2.734 14.763,-5.675L20.773,-11.686L20.773,-6.557C20.773,-6.461 20.854,-6.383 20.951,-6.383L25.532,-6.383C25.631,-6.383 25.712,-6.461 25.712,-6.557L25.712,-20.349C25.712,-20.447 25.631,-20.525 25.532,-20.525" style="fill:white;fill-rule:nonzero;"/>
        </g>
        <g transform="matrix(1,0,0,1,589.891,237.97)">
            <path d="M0,-4.222L-16.126,-4.222C-16.223,-4.222 -16.301,-4.15 -16.301,-4.065L-16.301,-0.161C-16.301,-0.069 -16.223,0 -16.126,0L0,0C0.1,0 0.178,-0.069 0.178,-0.161L0.178,-4.065C0.178,-4.15 0.1,-4.222 0,-4.222" style="fill:white;fill-rule:nonzero;"/>
        </g>
        <g transform="matrix(1,0,0,1,589.891,244.943)">
            <path d="M0,-4.224L-16.126,-4.224C-16.223,-4.224 -16.301,-4.15 -16.301,-4.061L-16.301,-0.158C-16.301,-0.07 -16.223,0 -16.126,0L0,0C0.1,0 0.178,-0.07 0.178,-0.158L0.178,-4.061C0.178,-4.15 0.1,-4.224 0,-4.224" style="fill:white;fill-rule:nonzero;"/>
        </g>
        <g transform="matrix(1,0,0,1,544.9,196.81)">
            <path d="M0,-8.447C-1.483,-8.447 -2.573,-7.92 -3.167,-6.896L-3.201,-6.896L-3.201,-12.473L3.268,-12.473L3.268,-15.542L-6.631,-15.542L-6.631,-2.936L-3.201,-2.936L-3.201,-3.432C-3.201,-4.752 -2.605,-5.478 -1.551,-5.478C-0.396,-5.478 0.067,-4.685 0.067,-3.464L0.067,1.948C0.067,3.136 -0.362,3.96 -1.518,3.96C-2.805,3.96 -3.266,3.102 -3.266,1.783L-3.266,-1.022L-6.699,-1.022L-6.699,1.519C-6.699,4.917 -5.346,7.095 -1.518,7.095C2.277,7.095 3.828,5.083 3.828,1.981L3.828,-3.497C3.828,-7.028 2.014,-8.447 0,-8.447" style="fill:white;fill-rule:nonzero;"/>
        </g>
        <g transform="matrix(1,0,0,1,561.791,186.679)">
            <path d="M0,-0.634L2.234,-0.634L2.234,4.359L1.104,4.359L1.104,3.339C0.896,4.042 0.455,4.47 -0.4,4.47C-1.752,4.47 -2.373,3.393 -2.373,1.945L-2.373,-2.579C-2.373,-4.041 -1.67,-5.104 -0.014,-5.104C1.724,-5.104 2.234,-4.138 2.234,-2.759L2.234,-1.931L0.8,-1.931L0.8,-2.883C0.8,-3.462 0.579,-3.793 0.014,-3.793C-0.552,-3.793 -0.801,-3.393 -0.801,-2.827L-0.801,2.194C-0.801,2.759 -0.566,3.159 -0.028,3.159C0.482,3.159 0.744,2.869 0.744,2.262L0.744,0.607L0,0.607L0,-0.634Z" style="fill:white;fill-rule:nonzero;"/>
        </g>
        <g transform="matrix(1,0,0,1,564.92,191.039)">
            <path d="M0,-9.353L3.752,-9.353L3.752,-8.07L1.572,-8.07L1.572,-5.394L3.131,-5.394L3.131,-4.125L1.572,-4.125L1.572,-1.283L3.752,-1.283L3.752,0L0,0L0,-9.353Z" style="fill:white;fill-rule:nonzero;"/>
        </g>
        <g transform="matrix(1,0,0,1,570.837,187.562)">
            <path d="M0,-2.399L0,3.477L-1.324,3.477L-1.324,-5.876L0.221,-5.876L1.917,-0.509L1.917,-5.876L3.228,-5.876L3.228,3.477L1.849,3.477L0,-2.399Z" style="fill:white;fill-rule:nonzero;"/>
        </g>
        <g transform="matrix(1,0,0,1,577.193,182.969)">
            <path d="M0,6.787C0.648,6.787 0.896,6.401 0.896,5.835L0.896,0.938C0.896,0.387 0.648,0 0,0L-0.662,0L-0.662,6.787L0,6.787ZM2.47,1.228L2.47,5.559C2.47,6.994 1.876,8.07 0.193,8.07L-2.234,8.07L-2.234,-1.283L0.193,-1.283C1.876,-1.283 2.47,-0.22 2.47,1.228" style="fill:white;fill-rule:nonzero;"/>
        </g>
        <g transform="matrix(1,0,0,1,580.558,191.039)">
            <path d="M0,-9.353L3.752,-9.353L3.752,-8.07L1.572,-8.07L1.572,-5.394L3.132,-5.394L3.132,-4.125L1.572,-4.125L1.572,-1.283L3.752,-1.283L3.752,0L0,0L0,-9.353Z" style="fill:white;fill-rule:nonzero;"/>
        </g>
        <g transform="matrix(1,0,0,1,586.723,189.755)">
            <path d="M0,-6.786L0,-3.876L0.524,-3.876C1.062,-3.876 1.297,-4.151 1.297,-4.648L1.297,-6.027C1.297,-6.538 1.062,-6.786 0.524,-6.786L0,-6.786ZM0,-3.007L0,1.283L-1.572,1.283L-1.572,-8.069L0.718,-8.069C2.304,-8.069 2.883,-7.283 2.883,-5.973L2.883,-4.772C2.883,-3.765 2.524,-3.172 1.628,-2.965L3.132,1.283L1.477,1.283L0,-3.007Z" style="fill:white;fill-rule:nonzero;"/>
        </g>
        <g transform="matrix(1,0,0,1,559.418,204.14)">
            <path d="M0,-9.353L3.752,-9.353L3.752,-8.07L1.572,-8.07L1.572,-5.394L3.131,-5.394L3.131,-4.125L1.572,-4.125L1.572,-1.283L3.752,-1.283L3.752,0L0,0L0,-9.353Z" style="fill:white;fill-rule:nonzero;"/>
        </g>
        <g transform="matrix(1,0,0,1,567.06,197.947)">
            <path d="M0,4.109L0,-0.995C0,-1.56 -0.248,-1.96 -0.813,-1.96C-1.365,-1.96 -1.614,-1.56 -1.614,-0.995L-1.614,4.109C-1.614,4.661 -1.365,5.075 -0.813,5.075C-0.248,5.075 0,4.661 0,4.109M-1.394,6.827L-1.394,6.192C-2.648,5.971 -3.187,5.047 -3.187,3.778L-3.187,-0.746C-3.187,-2.208 -2.469,-3.27 -0.813,-3.27C0.855,-3.27 1.572,-2.208 1.572,-0.746L1.572,3.778C1.572,4.799 1.214,5.599 0.414,5.985L1.572,6.206L1.572,7.379L-1.394,6.827Z" style="fill:white;fill-rule:nonzero;"/>
        </g>
        <g transform="matrix(1,0,0,1,574.094,204.25)">
            <path d="M0,-9.463L0,-2.386C0,-0.938 -0.621,0 -2.222,0C-3.877,0 -4.566,-0.938 -4.566,-2.386L-4.566,-9.463L-2.994,-9.463L-2.994,-2.234C-2.994,-1.683 -2.773,-1.311 -2.222,-1.311C-1.67,-1.311 -1.449,-1.683 -1.449,-2.234L-1.449,-9.463L0,-9.463Z" style="fill:white;fill-rule:nonzero;"/>
        </g>
        <g transform="matrix(1,0,0,1,576.505,197.752)">
            <path d="M0,3.421L1.255,3.421L0.634,-0.331L0.62,-0.331L0,3.421ZM-1.973,6.387L-0.207,-2.966L1.586,-2.966L3.365,6.387L1.752,6.387L1.462,4.676L-0.207,4.676L-0.483,6.387L-1.973,6.387Z" style="fill:white;fill-rule:nonzero;"/>
        </g>
        <g transform="matrix(1,0,0,1,580.518,204.14)">
            <path d="M0,-9.353L1.572,-9.353L1.572,-1.283L3.448,-1.283L3.448,0L0,0L0,-9.353Z" style="fill:white;fill-rule:nonzero;"/>
        </g>
        <g transform="matrix(1,0,0,1,0,-213.073)">
            <rect x="584.683" y="407.86" width="1.572" height="9.353" style="fill:white;"/>
        </g>
        <g transform="matrix(1,0,0,1,586.986,204.14)">
            <path d="M0,-9.353L4.179,-9.353L4.179,-8.07L2.883,-8.07L2.883,0L1.296,0L1.296,-8.07L0,-8.07L0,-9.353Z" style="fill:white;fill-rule:nonzero;"/>
        </g>
        <g transform="matrix(1,0,0,1,594.958,198.345)">
            <path d="M0,2.236L0,5.794L-1.572,5.794L-1.572,2.236L-3.324,-3.558L-1.683,-3.558L-0.731,-0.013L-0.718,-0.013L0.234,-3.558L1.738,-3.558L0,2.236Z" style="fill:white;fill-rule:nonzero;"/>
        </g>
    </g>
</svg>
