<?xml version="1.0" encoding="UTF-8" standalone="no"?>
<!DOCTYPE svg PUBLIC "-//W3C//DTD SVG 1.1//EN" "http://www.w3.org/Graphics/SVG/1.1/DTD/svg11.dtd">
<svg width="100%" height="100%" viewBox="0 0 463 463" version="1.1" xmlns="http://www.w3.org/2000/svg" xmlns:xlink="http://www.w3.org/1999/xlink" xml:space="preserve" xmlns:serif="http://www.serif.com/" style="fill-rule:evenodd;clip-rule:evenodd;stroke-linejoin:round;stroke-miterlimit:2;">
    <g transform="matrix(4.16667,0,0,4.16667,-1168.87,-716.596)">
        <g transform="matrix(-1,0,0,1,672.014,-157.076)">
            <rect x="280.53" y="329.059" width="110.954" height="110.958" style="fill:rgb(44,155,72);"/>
        </g>
        <g transform="matrix(1,0,0,1,374.083,247.458)">
            <path d="M0,-6.133C0,-9.255 -2.003,-11.786 -5.038,-11.786C-6.555,-11.786 -8.385,-10.125 -9.379,-9.103C-10.373,-10.126 -12.082,-11.789 -13.6,-11.789C-16.634,-11.789 -18.76,-9.258 -18.76,-6.134C-18.76,-4.573 -18.145,-3.16 -17.15,-2.136L-9.372,5.656L-1.605,-2.128L-1.611,-2.133C-0.616,-3.157 0,-4.571 0,-6.133" style="fill:white;fill-rule:nonzero;"/>
        </g>
        <g transform="matrix(1,0,0,1,340.969,213.757)">
            <path d="M0,52.078C-0.026,52.078 -0.053,52.078 -0.08,52.076C-0.671,52.039 -1.159,51.601 -1.259,51.017L-5.21,28.007L-11.195,39.103C-11.457,39.589 -12.004,39.85 -12.542,39.754C-13.085,39.658 -13.504,39.224 -13.583,38.678L-16.124,20.92L-20.772,31.361C-20.978,31.822 -21.435,32.119 -21.939,32.119L-40.005,32.119C-40.711,32.119 -41.283,31.546 -41.283,30.841C-41.283,30.136 -40.711,29.564 -40.005,29.564L-22.769,29.564L-16.654,15.831C-16.423,15.311 -15.875,15.008 -15.311,15.085C-14.748,15.164 -14.304,15.606 -14.223,16.169L-11.604,34.48L-5.702,23.537C-5.443,23.056 -4.909,22.794 -4.37,22.883C-3.833,22.971 -3.411,23.39 -3.318,23.927L0.34,45.238L13.675,0.944C13.827,0.439 14.272,0.08 14.797,0.039C15.324,0 15.82,0.283 16.048,0.757L23.064,15.303C23.371,15.938 23.104,16.702 22.469,17.008C21.834,17.314 21.07,17.048 20.764,16.412L15.174,4.825L1.222,51.169C1.059,51.711 0.56,52.078 0,52.078" style="fill:white;fill-rule:nonzero;"/>
        </g>
        <g transform="matrix(1,0,0,1,297.171,181.053)">
            <path d="M0,22.899C3.796,22.899 5.445,20.885 5.445,17.784L5.445,14.485C5.445,12.44 4.554,11.119 2.673,10.691C4.224,10.196 5.247,8.941 5.247,7.061L5.247,5.114C5.247,1.946 3.729,0 0.265,0C-3.63,0 -4.982,2.309 -4.982,5.608L-4.982,7.588L-1.551,7.588L-1.551,5.312C-1.551,3.926 -1.121,3.135 0.067,3.135C1.255,3.135 1.682,3.926 1.682,5.147L1.682,7.556C1.682,8.744 0.891,9.37 -0.329,9.37L-1.749,9.37L-1.749,12.242L-0.164,12.242C1.155,12.242 1.682,12.868 1.682,14.056L1.682,17.752C1.682,18.939 1.155,19.765 0,19.765C-1.287,19.765 -1.749,18.906 -1.749,17.587L-1.749,14.386L-5.179,14.386L-5.179,17.322C-5.179,20.722 -3.827,22.899 0,22.899" style="fill:white;fill-rule:nonzero;"/>
        </g>
        <g transform="matrix(1,0,0,1,315.63,186.531)">
            <path d="M0,-0.635L2.235,-0.635L2.235,4.359L1.104,4.359L1.104,3.338C0.897,4.041 0.456,4.469 -0.4,4.469C-1.751,4.469 -2.373,3.392 -2.373,1.944L-2.373,-2.58C-2.373,-4.042 -1.669,-5.104 -0.014,-5.104C1.724,-5.104 2.235,-4.139 2.235,-2.76L2.235,-1.932L0.8,-1.932L0.8,-2.883C0.8,-3.463 0.58,-3.794 0.014,-3.794C-0.552,-3.794 -0.8,-3.394 -0.8,-2.828L-0.8,2.193C-0.8,2.759 -0.565,3.158 -0.027,3.158C0.483,3.158 0.745,2.868 0.745,2.261L0.745,0.606L0,0.606L0,-0.635Z" style="fill:white;fill-rule:nonzero;"/>
        </g>
        <g transform="matrix(1,0,0,1,321.947,183.703)">
            <path d="M0,5.021L0,0C0,-0.565 -0.249,-0.966 -0.814,-0.966C-1.366,-0.966 -1.614,-0.565 -1.614,0L-1.614,5.021C-1.614,5.587 -1.366,5.987 -0.814,5.987C-0.249,5.987 0,5.587 0,5.021M-3.187,4.772L-3.187,0.248C-3.187,-1.213 -2.469,-2.276 -0.814,-2.276C0.855,-2.276 1.573,-1.213 1.573,0.248L1.573,4.772C1.573,6.221 0.855,7.297 -0.814,7.297C-2.469,7.297 -3.187,6.221 -3.187,4.772" style="fill:white;fill-rule:nonzero;"/>
        </g>
        <g transform="matrix(1,0,0,1,327.601,183.703)">
            <path d="M0,5.021L0,0C0,-0.565 -0.248,-0.966 -0.814,-0.966C-1.366,-0.966 -1.614,-0.565 -1.614,0L-1.614,5.021C-1.614,5.587 -1.366,5.987 -0.814,5.987C-0.248,5.987 0,5.587 0,5.021M-3.187,4.772L-3.187,0.248C-3.187,-1.213 -2.469,-2.276 -0.814,-2.276C0.855,-2.276 1.572,-1.213 1.572,0.248L1.572,4.772C1.572,6.221 0.855,7.297 -0.814,7.297C-2.469,7.297 -3.187,6.221 -3.187,4.772" style="fill:white;fill-rule:nonzero;"/>
        </g>
        <g transform="matrix(1,0,0,1,332.303,182.819)">
            <path d="M0,6.787C0.648,6.787 0.896,6.401 0.896,5.835L0.896,0.938C0.896,0.387 0.648,0 0,0L-0.662,0L-0.662,6.787L0,6.787ZM2.469,1.228L2.469,5.559C2.469,6.994 1.876,8.07 0.193,8.07L-2.235,8.07L-2.235,-1.283L0.193,-1.283C1.876,-1.283 2.469,-0.22 2.469,1.228" style="fill:white;fill-rule:nonzero;"/>
        </g>
        <g transform="matrix(1,0,0,1,340.205,185.662)">
            <path d="M0,1.103L-1.517,1.103L-1.517,5.228L-3.09,5.228L-3.09,-4.125L-1.517,-4.125L-1.517,-0.166L0,-0.166L0,-4.125L1.586,-4.125L1.586,5.228L0,5.228L0,1.103Z" style="fill:white;fill-rule:nonzero;"/>
        </g>
        <g transform="matrix(1,0,0,1,342.686,190.89)">
            <path d="M0,-9.353L3.752,-9.353L3.752,-8.07L1.573,-8.07L1.573,-5.394L3.131,-5.394L3.131,-4.125L1.573,-4.125L1.573,-1.283L3.752,-1.283L3.752,0L0,0L0,-9.353Z" style="fill:white;fill-rule:nonzero;"/>
        </g>
        <g transform="matrix(1,0,0,1,349.003,184.502)">
            <path d="M0,3.421L1.255,3.421L0.635,-0.331L0.621,-0.331L0,3.421ZM-1.972,6.387L-0.207,-2.966L1.586,-2.966L3.366,6.387L1.752,6.387L1.462,4.676L-0.207,4.676L-0.482,6.387L-1.972,6.387Z" style="fill:white;fill-rule:nonzero;"/>
        </g>
        <g transform="matrix(1,0,0,1,353.015,190.89)">
            <path d="M0,-9.353L1.573,-9.353L1.573,-1.283L3.449,-1.283L3.449,0L0,0L0,-9.353Z" style="fill:white;fill-rule:nonzero;"/>
        </g>
        <g transform="matrix(1,0,0,1,356.104,190.89)">
            <path d="M0,-9.353L4.18,-9.353L4.18,-8.07L2.883,-8.07L2.883,0L1.297,0L1.297,-8.07L0,-8.07L0,-9.353Z" style="fill:white;fill-rule:nonzero;"/>
        </g>
        <g transform="matrix(1,0,0,1,364.103,185.662)">
            <path d="M0,1.103L-1.517,1.103L-1.517,5.228L-3.09,5.228L-3.09,-4.125L-1.517,-4.125L-1.517,-0.166L0,-0.166L0,-4.125L1.586,-4.125L1.586,5.228L0,5.228L0,1.103Z" style="fill:white;fill-rule:nonzero;"/>
        </g>
        <g transform="matrix(1,0,0,1,314.982,197.603)">
            <path d="M0,3.421L1.255,3.421L0.634,-0.331L0.621,-0.331L0,3.421ZM-1.973,6.387L-0.207,-2.966L1.586,-2.966L3.365,6.387L1.751,6.387L1.462,4.676L-0.207,4.676L-0.483,6.387L-1.973,6.387Z" style="fill:white;fill-rule:nonzero;"/>
        </g>
        <g transform="matrix(1,0,0,1,320.319,200.512)">
            <path d="M0,-2.398L0,3.477L-1.324,3.477L-1.324,-5.875L0.221,-5.875L1.917,-0.509L1.917,-5.875L3.228,-5.875L3.228,3.477L1.849,3.477L0,-2.398Z" style="fill:white;fill-rule:nonzero;"/>
        </g>
        <g transform="matrix(1,0,0,1,326.676,195.92)">
            <path d="M0,6.787C0.648,6.787 0.896,6.401 0.896,5.836L0.896,0.938C0.896,0.387 0.648,0 0,0L-0.662,0L-0.662,6.787L0,6.787ZM2.469,1.228L2.469,5.559C2.469,6.994 1.876,8.07 0.193,8.07L-2.235,8.07L-2.235,-1.283L0.193,-1.283C1.876,-1.283 2.469,-0.22 2.469,1.228" style="fill:white;fill-rule:nonzero;"/>
        </g>
        <g transform="matrix(1,0,0,1,334.882,200.416)">
            <path d="M0,-2.206L-0.883,3.573L-2.359,3.573L-3.614,-5.779L-2.097,-5.779L-1.366,0.152L-1.352,0.152L-0.566,-5.779L0.717,-5.779L1.586,0.152L1.6,0.152L2.317,-5.779L3.642,-5.779L2.428,3.573L0.938,3.573L0.014,-2.206L0,-2.206Z" style="fill:white;fill-rule:nonzero;"/>
        </g>
        <g transform="matrix(1,0,0,1,339.197,203.99)">
            <path d="M0,-9.353L3.752,-9.353L3.752,-8.07L1.573,-8.07L1.573,-5.394L3.131,-5.394L3.131,-4.125L1.573,-4.125L1.573,-1.283L3.752,-1.283L3.752,0L0,0L0,-9.353Z" style="fill:white;fill-rule:nonzero;"/>
        </g>
        <g transform="matrix(1,0,0,1,343.79,203.99)">
            <path d="M0,-9.353L1.573,-9.353L1.573,-1.283L3.449,-1.283L3.449,0L0,0L0,-9.353Z" style="fill:white;fill-rule:nonzero;"/>
        </g>
        <g transform="matrix(1,0,0,1,347.954,203.99)">
            <path d="M0,-9.353L1.573,-9.353L1.573,-1.283L3.449,-1.283L3.449,0L0,0L0,-9.353Z" style="fill:white;fill-rule:nonzero;"/>
        </g>
        <g transform="matrix(1,0,0,1,0,-212.709)">
            <rect x="351.194" y="411.72" width="2.207" height="1.269" style="fill:white;"/>
        </g>
        <g transform="matrix(1,0,0,1,355.773,198.844)">
            <path d="M0,0.939L0,3.863L0.689,3.863C1.214,3.863 1.462,3.601 1.462,3.105L1.462,1.698C1.462,1.201 1.228,0.939 0.676,0.939L0,0.939ZM0,-0.261L0.552,-0.261C1.062,-0.261 1.296,-0.523 1.296,-1.02L1.296,-2.165C1.296,-2.675 1.062,-2.923 0.538,-2.923L0,-2.923L0,-0.261ZM-1.573,-4.207L0.703,-4.207C2.276,-4.207 2.8,-3.475 2.8,-2.15L2.8,-1.199C2.8,-0.413 2.51,0.084 1.862,0.291C2.648,0.47 3.035,0.994 3.035,1.85L3.035,3.091C3.035,4.415 2.441,5.146 0.869,5.146L-1.573,5.146L-1.573,-4.207Z" style="fill:white;fill-rule:nonzero;"/>
        </g>
        <g transform="matrix(1,0,0,1,359.593,203.99)">
            <path d="M0,-9.353L3.752,-9.353L3.752,-8.07L1.573,-8.07L1.573,-5.394L3.131,-5.394L3.131,-4.125L1.573,-4.125L1.573,-1.283L3.752,-1.283L3.752,0L0,0L0,-9.353Z" style="fill:white;fill-rule:nonzero;"/>
        </g>
        <g transform="matrix(1,0,0,1,0,-213.373)">
            <rect x="364.185" y="408.01" width="1.573" height="9.353" style="fill:white;"/>
        </g>
        <g transform="matrix(1,0,0,1,367.991,200.512)">
            <path d="M0,-2.398L0,3.477L-1.324,3.477L-1.324,-5.875L0.221,-5.875L1.917,-0.509L1.917,-5.875L3.228,-5.875L3.228,3.477L1.849,3.477L0,-2.398Z" style="fill:white;fill-rule:nonzero;"/>
        </g>
        <g transform="matrix(1,0,0,1,374.486,199.632)">
            <path d="M0,-0.635L2.235,-0.635L2.235,4.358L1.104,4.358L1.104,3.338C0.896,4.041 0.455,4.469 -0.4,4.469C-1.752,4.469 -2.373,3.392 -2.373,1.944L-2.373,-2.58C-2.373,-4.042 -1.669,-5.104 -0.014,-5.104C1.725,-5.104 2.235,-4.139 2.235,-2.759L2.235,-1.932L0.8,-1.932L0.8,-2.884C0.8,-3.463 0.58,-3.794 0.014,-3.794C-0.552,-3.794 -0.8,-3.394 -0.8,-2.828L-0.8,2.193C-0.8,2.758 -0.565,3.158 -0.027,3.158C0.483,3.158 0.745,2.868 0.745,2.262L0.745,0.606L0,0.606L0,-0.635Z" style="fill:white;fill-rule:nonzero;"/>
        </g>
    </g>
</svg>
