<?xml version="1.0" encoding="UTF-8" standalone="no"?>
<!DOCTYPE svg PUBLIC "-//W3C//DTD SVG 1.1//EN" "http://www.w3.org/Graphics/SVG/1.1/DTD/svg11.dtd">
<svg width="100%" height="100%" viewBox="0 0 463 463" version="1.1" xmlns="http://www.w3.org/2000/svg" xmlns:xlink="http://www.w3.org/1999/xlink" xml:space="preserve" xmlns:serif="http://www.serif.com/" style="fill-rule:evenodd;clip-rule:evenodd;stroke-linejoin:round;stroke-miterlimit:2;">
    <g transform="matrix(4.16667,0,0,4.16667,-1169.18,-1721.19)">
        <g transform="matrix(-1,0,0,1,672.168,325.137)">
            <rect x="280.604" y="87.949" width="110.96" height="110.965" style="fill:rgb(63,175,73);"/>
        </g>
        <g transform="matrix(1,0,0,1,327.287,496.681)">
            <path d="M0,-8.57C0.135,-8.57 0.245,-8.46 0.245,-8.325L0.245,-0.245C0.245,-0.108 0.135,0 0,0L-3.27,0C-3.406,0 -3.516,-0.108 -3.516,-0.245L-3.516,-8.325C-3.516,-8.46 -3.406,-8.57 -3.27,-8.57L0,-8.57Z" style="fill:white;fill-rule:nonzero;"/>
        </g>
        <g transform="matrix(1,0,0,1,363.194,503.94)">
            <path d="M0,-3.789L-53.883,-3.789C-54.017,-3.789 -54.129,-3.673 -54.129,-3.536L-54.129,-0.242C-54.129,-0.108 -54.017,0 -53.883,0L0,0C0.133,0 0.247,-0.108 0.247,-0.242L0.247,-3.536C0.247,-3.673 0.133,-3.789 0,-3.789" style="fill:white;fill-rule:nonzero;"/>
        </g>
        <g transform="matrix(1,0,0,1,363.194,510.486)">
            <path d="M0,-3.789L-53.883,-3.789C-54.017,-3.789 -54.129,-3.681 -54.129,-3.547L-54.129,-0.243C-54.129,-0.111 -54.017,0 -53.883,0L0,0C0.133,0 0.247,-0.111 0.247,-0.243L0.247,-3.547C0.247,-3.681 0.133,-3.789 0,-3.789" style="fill:white;fill-rule:nonzero;"/>
        </g>
        <g transform="matrix(1,0,0,1,352.941,480.5)">
            <path d="M0,-1.333C-0.673,-1.859 -2.47,-3.089 -4.661,-3.089C-6.227,-3.089 -7.684,-2.472 -8.988,-1.25C-9.08,-1.163 -9.132,-1.042 -9.132,-0.912L-9.132,-0.619C-9.132,-0.475 -9.084,-0.339 -8.979,-0.25C-8.861,-0.162 -8.739,-0.129 -8.599,-0.162C-8.568,-0.166 -8.529,-0.176 -8.498,-0.187C-8.398,-0.223 -8.305,-0.282 -8.229,-0.358C-7.946,-0.549 -7.174,-0.808 -6.07,-0.808C-4.929,-0.808 -2.686,-0.502 -0.518,1.52L-0.468,1.563C-0.347,1.689 -0.178,1.759 0,1.759C0.17,1.759 0.346,1.688 0.456,1.568L0.5,1.522C2.68,-0.502 4.918,-0.808 6.06,-0.808C7.171,-0.808 7.94,-0.549 8.223,-0.358C8.301,-0.282 8.396,-0.221 8.521,-0.176C8.569,-0.162 8.706,-0.134 8.837,-0.166C9.036,-0.223 9.176,-0.402 9.176,-0.61L9.176,-0.87C9.176,-0.993 9.123,-1.118 9.031,-1.203C7.716,-2.458 6.243,-3.092 4.652,-3.092C2.481,-3.092 0.692,-1.881 0,-1.333" style="fill:white;fill-rule:nonzero;"/>
        </g>
        <g transform="matrix(1,0,0,1,349.597,461.389)">
            <path d="M0,-3.698C-0.114,-3.644 -0.197,-3.54 -0.235,-3.414L-0.29,-3.234C-0.33,-3.093 -0.304,-2.943 -0.219,-2.829C-0.135,-2.719 -0.017,-2.654 0.114,-2.648C0.139,-2.645 0.164,-2.638 0.182,-2.645C0.275,-2.648 0.359,-2.668 0.442,-2.712C0.49,-2.721 0.59,-2.748 0.769,-2.748C1.01,-2.748 3.182,-2.675 4.619,-0.233L4.637,-0.199C4.715,-0.057 4.837,0.04 4.981,0.077C5.023,0.091 5.104,0.104 5.153,0.104C5.253,0.104 5.353,0.077 5.425,0.036L5.46,0.02C6.246,-0.374 7.06,-0.575 7.864,-0.575C9.225,-0.575 10.114,-0.02 10.321,0.211C10.364,0.29 10.428,0.358 10.502,0.412C10.547,0.439 10.628,0.48 10.677,0.496C10.701,0.502 10.729,0.506 10.756,0.508C10.771,0.511 10.789,0.511 10.805,0.511C10.878,0.511 10.949,0.492 11.018,0.457C11.128,0.402 11.211,0.301 11.247,0.181L11.292,0.023C11.306,-0.018 11.311,-0.062 11.311,-0.108C11.311,-0.193 11.29,-0.274 11.249,-0.34C10.202,-2.157 8.684,-2.537 7.594,-2.537C6.782,-2.537 6.072,-2.326 5.654,-2.173C5.161,-2.837 3.913,-4.209 2.02,-4.209C1.355,-4.209 0.677,-4.038 0,-3.698" style="fill:white;fill-rule:nonzero;"/>
        </g>
        <g transform="matrix(1,0,0,1,338.212,465.199)">
            <path d="M0,0.782L0.016,1.024C0.023,1.177 0.103,1.307 0.231,1.387C0.337,1.455 0.474,1.477 0.593,1.442C0.62,1.436 0.649,1.427 0.672,1.418C0.765,1.38 0.844,1.32 0.905,1.246C1.134,1.081 1.872,0.779 2.96,0.779C4.006,0.779 5.598,1.058 7.221,2.39L7.258,2.429C7.374,2.529 7.522,2.586 7.674,2.586L7.713,2.586C7.883,2.573 8.04,2.495 8.136,2.383L8.173,2.342C9.969,0.441 11.903,0.159 12.896,0.159C13.604,0.159 14.105,0.305 14.301,0.416C14.375,0.479 14.466,0.53 14.581,0.561C14.613,0.569 14.693,0.583 14.778,0.574C14.813,0.57 14.857,0.558 14.892,0.547C15.084,0.479 15.21,0.292 15.197,0.084L15.185,-0.127C15.177,-0.253 15.119,-0.365 15.023,-0.447C13.951,-1.349 12.794,-1.804 11.577,-1.804C9.681,-1.804 8.169,-0.685 7.543,-0.136C6.97,-0.527 5.58,-1.329 3.948,-1.329C2.514,-1.329 1.229,-0.734 0.125,0.437C0.038,0.53 -0.005,0.656 0,0.782" style="fill:white;fill-rule:nonzero;"/>
        </g>
        <g transform="matrix(1,0,0,1,310.945,472.851)">
            <path d="M0,-2.543C0,-5.77 2.616,-8.385 5.841,-8.385C5.968,-8.385 6.091,-8.374 6.216,-8.366C6.523,-12.45 9.926,-15.67 14.088,-15.67C18.454,-15.67 21.993,-12.132 21.993,-7.767C21.993,-6.53 21.7,-5.364 21.194,-4.322C25.15,-3.446 28.111,0.077 28.111,4.295C28.111,9.173 24.156,13.127 19.278,13.127C18.922,13.127 7.491,13.059 7.491,13.059C4.036,13.058 1.236,10.26 1.236,6.805C1.236,5.145 1.887,3.643 2.941,2.522C1.186,1.515 0,-0.373 0,-2.543" style="fill:white;fill-rule:nonzero;"/>
        </g>
        <g transform="matrix(1,0,0,1,288.463,440.687)">
            <path d="M0,-14.253L0,-10.326L0.032,-10.326L2.672,-13.066L2.706,-13.066L2.706,4.06L6.467,4.06L6.467,-18.313L3.464,-18.313L0,-14.253Z" style="fill:white;fill-rule:nonzero;"/>
        </g>
        <g transform="matrix(1,0,0,1,303.872,437.917)">
            <path d="M0,-8.447C-1.484,-8.447 -2.572,-7.921 -3.167,-6.897L-3.201,-6.897L-3.201,-12.473L3.268,-12.473L3.268,-15.542L-6.631,-15.542L-6.631,-2.935L-3.201,-2.935L-3.201,-3.432C-3.201,-4.751 -2.607,-5.477 -1.551,-5.477C-0.396,-5.477 0.067,-4.685 0.067,-3.465L0.067,1.948C0.067,3.134 -0.362,3.96 -1.518,3.96C-2.804,3.96 -3.264,3.102 -3.264,1.782L-3.264,-1.022L-6.699,-1.022L-6.699,1.52C-6.699,4.917 -5.345,7.095 -1.518,7.095C2.277,7.095 3.828,5.081 3.828,1.98L3.828,-3.498C3.828,-7.029 2.014,-8.447 0,-8.447" style="fill:white;fill-rule:nonzero;"/>
        </g>
        <g transform="matrix(1,0,0,1,315.787,431.648)">
            <path d="M0,-9.353L1.573,-9.353L1.573,-1.284L3.449,-1.284L3.449,0L0,0L0,-9.353Z" style="fill:white;fill-rule:nonzero;"/>
        </g>
        <g transform="matrix(1,0,0,1,0,241.943)">
            <rect x="319.951" y="180.352" width="1.573" height="9.353" style="fill:white;"/>
        </g>
        <g transform="matrix(1,0,0,1,322.433,431.648)">
            <path d="M0,-9.353L3.683,-9.353L3.683,-8.07L1.573,-8.07L1.573,-5.394L3.145,-5.394L3.145,-4.124L1.573,-4.124L1.573,0L0,0L0,-9.353Z" style="fill:white;fill-rule:nonzero;"/>
        </g>
        <g transform="matrix(1,0,0,1,326.805,431.648)">
            <path d="M0,-9.353L3.752,-9.353L3.752,-8.07L1.573,-8.07L1.573,-5.394L3.131,-5.394L3.131,-4.124L1.573,-4.124L1.573,-1.284L3.752,-1.284L3.752,0L0,0L0,-9.353Z" style="fill:white;fill-rule:nonzero;"/>
        </g>
        <g transform="matrix(1,0,0,1,318.973,437.562)">
            <path d="M0,5.021L0,0C0,-0.565 -0.249,-0.965 -0.814,-0.965C-1.366,-0.965 -1.614,-0.565 -1.614,0L-1.614,5.021C-1.614,5.587 -1.366,5.987 -0.814,5.987C-0.249,5.987 0,5.587 0,5.021M-3.187,4.773L-3.187,0.249C-3.187,-1.213 -2.469,-2.276 -0.814,-2.276C0.855,-2.276 1.573,-1.213 1.573,0.249L1.573,4.773C1.573,6.221 0.855,7.297 -0.814,7.297C-2.469,7.297 -3.187,6.221 -3.187,4.773" style="fill:white;fill-rule:nonzero;"/>
        </g>
        <g transform="matrix(1,0,0,1,322.765,441.272)">
            <path d="M0,-2.399L0,3.477L-1.324,3.477L-1.324,-5.876L0.221,-5.876L1.917,-0.509L1.917,-5.876L3.228,-5.876L3.228,3.477L1.849,3.477L0,-2.399Z" style="fill:white;fill-rule:nonzero;"/>
        </g>
        <g transform="matrix(1,0,0,1,329.784,444.75)">
            <path d="M0,-9.353L1.573,-9.353L1.573,-1.284L3.449,-1.284L3.449,0L0,0L0,-9.353Z" style="fill:white;fill-rule:nonzero;"/>
        </g>
        <g transform="matrix(1,0,0,1,335.673,438.362)">
            <path d="M0,3.421L1.255,3.421L0.634,-0.331L0.621,-0.331L0,3.421ZM-1.973,6.387L-0.207,-2.966L1.586,-2.966L3.365,6.387L1.751,6.387L1.462,4.676L-0.207,4.676L-0.483,6.387L-1.973,6.387Z" style="fill:white;fill-rule:nonzero;"/>
        </g>
        <g transform="matrix(1,0,0,1,341.009,441.272)">
            <path d="M0,-2.399L0,3.477L-1.324,3.477L-1.324,-5.876L0.221,-5.876L1.917,-0.509L1.917,-5.876L3.228,-5.876L3.228,3.477L1.849,3.477L0,-2.399Z" style="fill:white;fill-rule:nonzero;"/>
        </g>
        <g transform="matrix(1,0,0,1,347.367,436.68)">
            <path d="M0,6.786C0.648,6.786 0.896,6.4 0.896,5.835L0.896,0.937C0.896,0.386 0.648,0 0,0L-0.662,0L-0.662,6.786L0,6.786ZM2.469,1.227L2.469,5.558C2.469,6.993 1.876,8.069 0.193,8.069L-2.235,8.069L-2.235,-1.283L0.193,-1.283C1.876,-1.283 2.469,-0.221 2.469,1.227" style="fill:white;fill-rule:nonzero;"/>
        </g>
    </g>
</svg>
