<?xml version="1.0" encoding="UTF-8" standalone="no"?>
<!DOCTYPE svg PUBLIC "-//W3C//DTD SVG 1.1//EN" "http://www.w3.org/Graphics/SVG/1.1/DTD/svg11.dtd">
<svg width="100%" height="100%" viewBox="0 0 463 463" version="1.1" xmlns="http://www.w3.org/2000/svg" xmlns:xlink="http://www.w3.org/1999/xlink" xml:space="preserve" xmlns:serif="http://www.serif.com/" style="fill-rule:evenodd;clip-rule:evenodd;stroke-linejoin:round;stroke-miterlimit:2;">
    <g transform="matrix(4.16667,0,0,4.16667,-144.688,-1218.4)">
        <g transform="matrix(-1,0,0,1,180.41,83.797)">
            <rect x="34.725" y="208.62" width="110.96" height="110.963" style="fill:rgb(253,183,19);"/>
        </g>
        <g transform="matrix(1,0,0,1,90.2476,354.109)">
            <path d="M0,16.665C-4.671,16.665 -8.458,12.879 -8.458,8.207C-8.458,4.409 -5.958,1.198 -2.514,0.128L-2.514,3.277C-4.307,4.192 -5.537,6.054 -5.537,8.207C-5.537,11.266 -3.059,13.744 0,13.744C3.059,13.744 5.537,11.266 5.537,8.207C5.537,6.048 4.301,4.184 2.5,3.269L2.5,0.124C5.951,1.189 8.459,4.404 8.459,8.207C8.459,12.879 4.673,16.665 0,16.665M-1.207,-1.507C-1.207,-2.048 -0.663,-2.644 0.004,-2.644C0.67,-2.644 1.209,-2.048 1.209,-1.507L1.209,4.077C1.209,4.616 0.67,5.205 0.004,5.205C-0.663,5.205 -1.207,4.616 -1.207,4.077L-1.207,-1.507ZM-0.002,-7.931C-8.983,-7.931 -16.264,-0.65 -16.264,8.331C-16.264,17.316 -8.983,24.596 -0.002,24.596C8.978,24.596 16.259,17.316 16.259,8.331C16.259,-0.65 8.978,-7.931 -0.002,-7.931" style="fill:white;fill-rule:nonzero;"/>
        </g>
        <g transform="matrix(1,0,0,1,71.5771,362.304)">
            <path d="M0,-0.005C0,-0.742 -0.653,-1.34 -1.25,-1.34L-8.371,-1.34C-8.972,-1.34 -9.631,-0.742 -9.631,-0.005C-9.631,0.734 -8.972,1.335 -8.371,1.335L-1.25,1.335C-0.653,1.335 0,0.734 0,-0.005" style="fill:white;fill-rule:nonzero;"/>
        </g>
        <g transform="matrix(1,0,0,1,118.551,362.304)">
            <path d="M0,-0.005C0,-0.742 -0.653,-1.34 -1.25,-1.34L-8.371,-1.34C-8.971,-1.34 -9.63,-0.742 -9.63,-0.005C-9.63,0.734 -8.971,1.335 -8.371,1.335L-1.25,1.335C-0.653,1.335 0,0.734 0,-0.005" style="fill:white;fill-rule:nonzero;"/>
        </g>
        <g transform="matrix(1,0,0,1,90.252,380.972)">
            <path d="M0,9.63C0.736,9.63 1.334,8.977 1.334,8.381L1.334,1.26C1.334,0.659 0.736,0 0,0C-0.739,0 -1.341,0.659 -1.341,1.26L-1.341,8.381C-1.341,8.977 -0.739,9.63 0,9.63" style="fill:white;fill-rule:nonzero;"/>
        </g>
        <g transform="matrix(1,0,0,1,114.814,371.581)">
            <path d="M0,4.776C0.366,4.136 0.096,3.293 -0.421,2.997L-6.602,-0.54C-7.124,-0.838 -7.993,-0.648 -8.358,-0.007C-8.725,0.633 -8.452,1.483 -7.931,1.781L-1.75,5.318C-1.232,5.614 -0.368,5.418 0,4.776" style="fill:white;fill-rule:nonzero;"/>
        </g>
        <g transform="matrix(1,0,0,1,76.1934,378.506)">
            <path d="M0,8.36C0.639,8.726 1.482,8.456 1.778,7.938L5.315,1.757C5.614,1.237 5.422,0.367 4.783,0.001C4.143,-0.366 3.292,-0.092 2.994,0.428L-0.543,6.609C-0.839,7.127 -0.642,7.993 0,8.36" style="fill:white;fill-rule:nonzero;"/>
        </g>
        <g transform="matrix(1,0,0,1,104.359,378.487)">
            <path d="M0,8.348C0.639,7.98 0.832,7.117 0.535,6.6L-3.015,0.426C-3.315,-0.094 -4.161,-0.368 -4.801,-0.001C-5.442,0.367 -5.634,1.239 -5.333,1.759L-1.784,7.933C-1.487,8.45 -0.641,8.716 0,8.348" style="fill:white;fill-rule:nonzero;"/>
        </g>
        <g transform="matrix(1,0,0,1,65.7158,371.609)">
            <path d="M0,4.803C0.367,5.442 1.231,5.634 1.748,5.336L7.921,1.786C8.442,1.488 8.717,0.641 8.348,0.002C7.98,-0.639 7.108,-0.831 6.589,-0.532L0.416,3.018C-0.102,3.315 -0.369,4.162 0,4.803" style="fill:white;fill-rule:nonzero;"/>
        </g>
        <g transform="matrix(1,0,0,1,90.252,333.999)">
            <path d="M0,9.631C0.736,9.631 1.334,8.978 1.334,8.382L1.334,1.259C1.334,0.658 0.736,0 0,0C-0.739,0 -1.341,0.658 -1.341,1.259L-1.341,8.382C-1.341,8.978 -0.739,9.631 0,9.631" style="fill:white;fill-rule:nonzero;"/>
        </g>
        <g transform="matrix(1,0,0,1,74.0444,348.247)">
            <path d="M0,4.777C0.367,4.136 0.097,3.295 -0.421,2.998L-6.602,-0.539C-7.124,-0.838 -7.992,-0.647 -8.358,-0.007C-8.726,0.634 -8.451,1.483 -7.93,1.782L-1.75,5.319C-1.232,5.615 -0.367,5.419 0,4.777" style="fill:white;fill-rule:nonzero;"/>
        </g>
        <g transform="matrix(1,0,0,1,99.5259,337.735)">
            <path d="M0,8.363C0.64,8.728 1.481,8.459 1.778,7.941L5.316,1.76C5.615,1.239 5.423,0.37 4.784,0.004C4.143,-0.365 3.293,-0.089 2.995,0.431L-0.542,6.612C-0.839,7.131 -0.642,7.996 0,8.363" style="fill:white;fill-rule:nonzero;"/>
        </g>
        <g transform="matrix(1,0,0,1,80.9434,337.765)">
            <path d="M0,8.348C0.639,7.981 0.832,7.117 0.534,6.6L-3.016,0.425C-3.316,-0.095 -4.162,-0.368 -4.801,0C-5.443,0.368 -5.634,1.239 -5.334,1.759L-1.785,7.932C-1.486,8.45 -0.642,8.716 0,8.348" style="fill:white;fill-rule:nonzero;"/>
        </g>
        <g transform="matrix(1,0,0,1,106.436,348.192)">
            <path d="M0,4.803C0.367,5.442 1.231,5.634 1.749,5.337L7.921,1.787C8.442,1.488 8.717,0.641 8.349,0.002C7.98,-0.638 7.11,-0.831 6.589,-0.531L0.416,3.019C-0.102,3.316 -0.369,4.163 0,4.803" style="fill:white;fill-rule:nonzero;"/>
        </g>
        <g transform="matrix(1,0,0,1,46.106,321.019)">
            <path d="M0,-16.233L5.809,-16.233L0.791,3.07L4.521,3.07L9.438,-15.837L9.438,-19.303L0,-19.303L0,-16.233Z" style="fill:white;fill-rule:nonzero;"/>
        </g>
        <g transform="matrix(1,0,0,1,68.0498,304.704)">
            <path d="M0,3.42L1.255,3.42L0.635,-0.331L0.621,-0.331L0,3.42ZM-1.972,6.386L-0.207,-2.966L1.586,-2.966L3.366,6.386L1.752,6.386L1.462,4.676L-0.207,4.676L-0.482,6.386L-1.972,6.386Z" style="fill:white;fill-rule:nonzero;"/>
        </g>
        <g transform="matrix(1,0,0,1,72.0625,311.09)">
            <path d="M0,-9.352L3.683,-9.352L3.683,-8.069L1.573,-8.069L1.573,-5.393L3.145,-5.393L3.145,-4.124L1.573,-4.124L1.573,0L0,0L0,-9.352Z" style="fill:white;fill-rule:nonzero;"/>
        </g>
        <g transform="matrix(1,0,0,1,76.4336,311.09)">
            <path d="M0,-9.352L3.683,-9.352L3.683,-8.069L1.573,-8.069L1.573,-5.393L3.145,-5.393L3.145,-4.124L1.573,-4.124L1.573,0L0,0L0,-9.352Z" style="fill:white;fill-rule:nonzero;"/>
        </g>
        <g transform="matrix(1,0,0,1,83.854,303.903)">
            <path d="M0,5.022L0,0.001C0,-0.564 -0.249,-0.965 -0.814,-0.965C-1.366,-0.965 -1.614,-0.564 -1.614,0.001L-1.614,5.022C-1.614,5.587 -1.366,5.987 -0.814,5.987C-0.249,5.987 0,5.587 0,5.022M-3.187,4.773L-3.187,0.249C-3.187,-1.213 -2.469,-2.275 -0.814,-2.275C0.855,-2.275 1.573,-1.213 1.573,0.249L1.573,4.773C1.573,6.221 0.855,7.297 -0.814,7.297C-2.469,7.297 -3.187,6.221 -3.187,4.773" style="fill:white;fill-rule:nonzero;"/>
        </g>
        <g transform="matrix(1,0,0,1,87.8945,309.807)">
            <path d="M0,-6.786L0,-3.876L0.524,-3.876C1.062,-3.876 1.296,-4.151 1.296,-4.648L1.296,-6.027C1.296,-6.538 1.062,-6.786 0.524,-6.786L0,-6.786ZM0,-3.007L0,1.283L-1.573,1.283L-1.573,-8.069L0.717,-8.069C2.304,-8.069 2.883,-7.283 2.883,-5.973L2.883,-4.772C2.883,-3.765 2.524,-3.172 1.627,-2.965L3.131,1.283L1.476,1.283L0,-3.007Z" style="fill:white;fill-rule:nonzero;"/>
        </g>
        <g transform="matrix(1,0,0,1,93.8657,303.02)">
            <path d="M0,6.788C0.648,6.788 0.896,6.401 0.896,5.836L0.896,0.939C0.896,0.388 0.648,0.001 0,0.001L-0.662,0.001L-0.662,6.788L0,6.788ZM2.469,1.229L2.469,5.559C2.469,6.994 1.876,8.07 0.193,8.07L-2.235,8.07L-2.235,-1.282L0.193,-1.282C1.876,-1.282 2.469,-0.219 2.469,1.229" style="fill:white;fill-rule:nonzero;"/>
        </g>
        <g transform="matrix(1,0,0,1,98.7471,304.704)">
            <path d="M0,3.42L1.255,3.42L0.635,-0.331L0.621,-0.331L0,3.42ZM-1.972,6.386L-0.207,-2.966L1.586,-2.966L3.366,6.386L1.752,6.386L1.462,4.676L-0.207,4.676L-0.482,6.386L-1.972,6.386Z" style="fill:white;fill-rule:nonzero;"/>
        </g>
        <g transform="matrix(1,0,0,1,104.332,305.944)">
            <path d="M0,0.939L0,3.863L0.689,3.863C1.214,3.863 1.462,3.601 1.462,3.105L1.462,1.697C1.462,1.2 1.228,0.939 0.676,0.939L0,0.939ZM0,-0.261L0.552,-0.261C1.062,-0.261 1.296,-0.523 1.296,-1.02L1.296,-2.165C1.296,-2.675 1.062,-2.923 0.538,-2.923L0,-2.923L0,-0.261ZM-1.573,-4.207L0.704,-4.207C2.276,-4.207 2.8,-3.475 2.8,-2.151L2.8,-1.199C2.8,-0.413 2.51,0.084 1.862,0.291C2.648,0.47 3.035,0.994 3.035,1.849L3.035,3.091C3.035,4.415 2.441,5.146 0.869,5.146L-1.573,5.146L-1.573,-4.207Z" style="fill:white;fill-rule:nonzero;"/>
        </g>
        <g transform="matrix(1,0,0,1,108.151,311.09)">
            <path d="M0,-9.352L1.573,-9.352L1.573,-1.282L3.449,-1.282L3.449,0L0,0L0,-9.352Z" style="fill:white;fill-rule:nonzero;"/>
        </g>
        <g transform="matrix(1,0,0,1,112.316,311.09)">
            <path d="M0,-9.352L3.752,-9.352L3.752,-8.069L1.573,-8.069L1.573,-5.393L3.131,-5.393L3.131,-4.124L1.573,-4.124L1.573,-1.282L3.752,-1.282L3.752,0L0,0L0,-9.352Z" style="fill:white;fill-rule:nonzero;"/>
        </g>
        <g transform="matrix(1,0,0,1,120.08,304.704)">
            <path d="M0,3.42L1.255,3.42L0.635,-0.331L0.621,-0.331L0,3.42ZM-1.972,6.386L-0.207,-2.966L1.586,-2.966L3.366,6.386L1.752,6.386L1.462,4.676L-0.207,4.676L-0.482,6.386L-1.972,6.386Z" style="fill:white;fill-rule:nonzero;"/>
        </g>
        <g transform="matrix(1,0,0,1,125.417,307.612)">
            <path d="M0,-2.398L0,3.477L-1.324,3.477L-1.324,-5.875L0.221,-5.875L1.917,-0.509L1.917,-5.875L3.228,-5.875L3.228,3.477L1.849,3.477L0,-2.398Z" style="fill:white;fill-rule:nonzero;"/>
        </g>
        <g transform="matrix(1,0,0,1,131.774,303.02)">
            <path d="M0,6.788C0.648,6.788 0.896,6.401 0.896,5.836L0.896,0.939C0.896,0.388 0.648,0.001 0,0.001L-0.662,0.001L-0.662,6.788L0,6.788ZM2.469,1.229L2.469,5.559C2.469,6.994 1.876,8.07 0.193,8.07L-2.235,8.07L-2.235,-1.282L0.193,-1.282C1.876,-1.282 2.469,-0.219 2.469,1.229" style="fill:white;fill-rule:nonzero;"/>
        </g>
        <g transform="matrix(1,0,0,1,66.3257,317.251)">
            <path d="M0,4.525L0,0.001C0,-1.461 0.69,-2.524 2.345,-2.524C4.083,-2.524 4.566,-1.558 4.566,-0.178L4.566,0.925L3.131,0.925L3.131,-0.302C3.131,-0.882 2.938,-1.213 2.373,-1.213C1.807,-1.213 1.573,-0.813 1.573,-0.247L1.573,4.774C1.573,5.339 1.807,5.739 2.373,5.739C2.938,5.739 3.131,5.38 3.131,4.829L3.131,3.104L4.566,3.104L4.566,4.718C4.566,6.056 4.014,7.049 2.345,7.049C0.69,7.049 0,5.973 0,4.525" style="fill:white;fill-rule:nonzero;"/>
        </g>
        <g transform="matrix(1,0,0,1,71.7456,324.191)">
            <path d="M0,-9.353L1.573,-9.353L1.573,-1.283L3.449,-1.283L3.449,0L0,0L0,-9.353Z" style="fill:white;fill-rule:nonzero;"/>
        </g>
        <g transform="matrix(1,0,0,1,75.9097,324.191)">
            <path d="M0,-9.353L3.752,-9.353L3.752,-8.07L1.573,-8.07L1.573,-5.394L3.131,-5.394L3.131,-4.124L1.573,-4.124L1.573,-1.283L3.752,-1.283L3.752,0L0,0L0,-9.353Z" style="fill:white;fill-rule:nonzero;"/>
        </g>
        <g transform="matrix(1,0,0,1,82.2266,317.804)">
            <path d="M0,3.421L1.255,3.421L0.634,-0.331L0.621,-0.331L0,3.421ZM-1.973,6.387L-0.207,-2.966L1.586,-2.966L3.365,6.387L1.751,6.387L1.462,4.677L-0.207,4.677L-0.483,6.387L-1.973,6.387Z" style="fill:white;fill-rule:nonzero;"/>
        </g>
        <g transform="matrix(1,0,0,1,87.563,320.713)">
            <path d="M0,-2.399L0,3.477L-1.324,3.477L-1.324,-5.876L0.221,-5.876L1.917,-0.509L1.917,-5.876L3.228,-5.876L3.228,3.477L1.849,3.477L0,-2.399Z" style="fill:white;fill-rule:nonzero;"/>
        </g>
        <g transform="matrix(1,0,0,1,93.1338,324.191)">
            <path d="M0,-9.353L3.752,-9.353L3.752,-8.07L1.573,-8.07L1.573,-5.394L3.131,-5.394L3.131,-4.124L1.573,-4.124L1.573,-1.283L3.752,-1.283L3.752,0L0,0L0,-9.353Z" style="fill:white;fill-rule:nonzero;"/>
        </g>
        <g transform="matrix(1,0,0,1,99.0503,320.713)">
            <path d="M0,-2.399L0,3.477L-1.324,3.477L-1.324,-5.876L0.221,-5.876L1.917,-0.509L1.917,-5.876L3.228,-5.876L3.228,3.477L1.849,3.477L0,-2.399Z" style="fill:white;fill-rule:nonzero;"/>
        </g>
        <g transform="matrix(1,0,0,1,103.173,324.191)">
            <path d="M0,-9.353L3.752,-9.353L3.752,-8.07L1.573,-8.07L1.573,-5.394L3.131,-5.394L3.131,-4.124L1.573,-4.124L1.573,-1.283L3.752,-1.283L3.752,0L0,0L0,-9.353Z" style="fill:white;fill-rule:nonzero;"/>
        </g>
        <g transform="matrix(1,0,0,1,109.338,322.907)">
            <path d="M0,-6.786L0,-3.876L0.524,-3.876C1.062,-3.876 1.296,-4.151 1.296,-4.648L1.296,-6.027C1.296,-6.538 1.062,-6.786 0.524,-6.786L0,-6.786ZM0,-3.007L0,1.283L-1.573,1.283L-1.573,-8.069L0.717,-8.069C2.304,-8.069 2.883,-7.282 2.883,-5.973L2.883,-4.772C2.883,-3.765 2.524,-3.172 1.627,-2.965L3.131,1.283L1.476,1.283L0,-3.007Z" style="fill:white;fill-rule:nonzero;"/>
        </g>
        <g transform="matrix(1,0,0,1,115.447,319.831)">
            <path d="M0,-0.634L2.235,-0.634L2.235,4.359L1.104,4.359L1.104,3.339C0.897,4.042 0.456,4.47 -0.4,4.47C-1.751,4.47 -2.373,3.393 -2.373,1.945L-2.373,-2.579C-2.373,-4.041 -1.669,-5.104 -0.014,-5.104C1.724,-5.104 2.235,-4.138 2.235,-2.758L2.235,-1.931L0.8,-1.931L0.8,-2.882C0.8,-3.462 0.58,-3.793 0.014,-3.793C-0.552,-3.793 -0.8,-3.393 -0.8,-2.827L-0.8,2.194C-0.8,2.76 -0.565,3.159 -0.027,3.159C0.483,3.159 0.745,2.87 0.745,2.262L0.745,0.607L0,0.607L0,-0.634Z" style="fill:white;fill-rule:nonzero;"/>
        </g>
        <g transform="matrix(1,0,0,1,121.294,318.397)">
            <path d="M0,2.235L0,5.794L-1.573,5.794L-1.573,2.235L-3.325,-3.559L-1.683,-3.559L-0.731,-0.013L-0.717,-0.013L0.234,-3.559L1.738,-3.559L0,2.235Z" style="fill:white;fill-rule:nonzero;"/>
        </g>
    </g>
</svg>
