<?xml version="1.0" encoding="UTF-8" standalone="no"?>
<!DOCTYPE svg PUBLIC "-//W3C//DTD SVG 1.1//EN" "http://www.w3.org/Graphics/SVG/1.1/DTD/svg11.dtd">
<svg width="100%" height="100%" viewBox="0 0 463 463" version="1.1" xmlns="http://www.w3.org/2000/svg" xmlns:xlink="http://www.w3.org/1999/xlink" xml:space="preserve" xmlns:serif="http://www.serif.com/" style="fill-rule:evenodd;clip-rule:evenodd;stroke-linejoin:round;stroke-miterlimit:2;">
    <g transform="matrix(4.16667,0,0,4.16667,-656.95,-1721.19)">
        <g transform="matrix(-1,0,0,1,426.296,325.137)">
            <rect x="157.668" y="87.949" width="110.96" height="110.965" style="fill:rgb(0,125,187);"/>
        </g>
        <g transform="matrix(1,0,0,1,226.751,492.86)">
            <path d="M0,2.909C-2.039,2.909 -3.691,1.255 -3.691,-0.783C-3.691,-2.821 -2.039,-4.472 0,-4.472C2.044,-4.472 3.695,-2.821 3.695,-0.783C3.695,1.255 2.044,2.909 0,2.909M16.032,1.188C14.635,-0.698 5.615,-12.198 -7.032,-12.198C-18.014,-12.198 -29.762,-2.237 -29.762,-2.237C-29.762,-2.237 -34.175,-11.271 -43.203,-12.138C-43.255,-12.138 -43.312,-12.15 -43.372,-12.15L-43.428,-12.15C-43.616,-12.14 -43.793,-11.956 -43.773,-11.793C-43.747,-11.635 -43.631,-11.462 -43.631,-11.462C-42.468,-9.53 -39.498,-4.034 -39.498,1.456C-39.498,6.965 -42.485,12.475 -43.638,14.397L-43.716,14.52C-43.75,14.578 -43.773,14.636 -43.773,14.711C-43.773,14.901 -43.625,15.05 -43.439,15.066L-43.342,15.058C-43.312,15.058 -43.279,15.058 -43.247,15.05C-34.191,14.206 -29.762,5.145 -29.762,5.145C-29.762,5.145 -18.014,15.107 -7.032,15.107C5.615,15.107 14.635,3.606 16.032,1.724C16.07,1.673 16.101,1.628 16.128,1.595C16.145,1.551 16.158,1.509 16.158,1.456C16.158,1.406 16.145,1.356 16.128,1.318C16.101,1.28 16.07,1.236 16.032,1.188" style="fill:white;fill-rule:nonzero;"/>
        </g>
        <g transform="matrix(1,0,0,1,196.16,472.814)">
            <path d="M0,-2.462C0.029,-2.503 0.056,-2.533 0.096,-2.562C0.155,-2.599 0.222,-2.63 0.295,-2.63C0.39,-2.63 0.479,-2.592 0.542,-2.529C0.546,-2.524 0.553,-2.518 0.559,-2.514C7.453,4.059 14.685,-1.269 16.19,-2.514L16.338,-2.654C16.38,-2.671 16.426,-2.677 16.475,-2.677C16.527,-2.677 16.577,-2.671 16.62,-2.654L16.768,-2.514C18.271,-1.269 25.501,4.059 32.397,-2.514C32.399,-2.518 32.405,-2.524 32.41,-2.529C32.475,-2.592 32.559,-2.63 32.655,-2.63C32.731,-2.63 32.799,-2.599 32.855,-2.562C32.898,-2.533 32.926,-2.503 32.957,-2.462C34.293,-1.148 40.067,3.824 46.178,-1.485C46.242,-1.55 46.285,-1.635 46.285,-1.74L46.285,-4.264C46.285,-4.465 46.124,-4.625 45.925,-4.625C45.898,-4.625 45.875,-4.615 45.847,-4.609C45.79,-4.582 45.731,-4.551 45.664,-4.519C43.788,-3.577 37.961,-1.346 32.677,-6.34C32.628,-6.387 32.576,-6.434 32.524,-6.484C32.475,-6.512 32.429,-6.521 32.369,-6.521C32.332,-6.521 32.293,-6.512 32.26,-6.493C32.181,-6.474 32.119,-6.424 32.076,-6.358C30.502,-5.159 23.27,-0.262 16.83,-6.27L16.736,-6.364C16.669,-6.428 16.577,-6.465 16.475,-6.465C16.38,-6.465 16.286,-6.428 16.223,-6.364L16.123,-6.27C9.687,-0.262 2.448,-5.159 0.875,-6.358C0.834,-6.424 0.773,-6.474 0.697,-6.493C0.66,-6.512 0.621,-6.521 0.581,-6.521C0.529,-6.521 0.479,-6.512 0.431,-6.484C0.381,-6.434 0.328,-6.387 0.274,-6.34C-5.011,-1.346 -10.832,-3.577 -12.71,-4.519C-12.776,-4.551 -12.838,-4.582 -12.896,-4.609C-12.924,-4.615 -12.942,-4.625 -12.965,-4.625C-13.166,-4.625 -13.329,-4.465 -13.329,-4.264L-13.329,-1.74C-13.329,-1.635 -13.289,-1.55 -13.224,-1.485C-7.118,3.824 -1.337,-1.148 0,-2.462" style="fill:white;fill-rule:nonzero;"/>
        </g>
        <g transform="matrix(1,0,0,1,183.264,465.812)">
            <path d="M0,-6.768C-0.027,-6.774 -0.046,-6.784 -0.069,-6.784C-0.269,-6.784 -0.432,-6.62 -0.432,-6.416L-0.432,-3.9C-0.432,-3.794 -0.393,-3.702 -0.327,-3.639C5.778,1.666 11.559,-3.304 12.896,-4.618C12.924,-4.658 12.952,-4.696 12.992,-4.72C13.052,-4.758 13.117,-4.786 13.192,-4.786C13.286,-4.786 13.375,-4.749 13.438,-4.689C13.442,-4.682 13.45,-4.676 13.455,-4.673C20.351,1.908 27.582,-3.422 29.086,-4.673L29.234,-4.809C29.277,-4.829 29.322,-4.835 29.372,-4.835C29.423,-4.835 29.474,-4.829 29.515,-4.809L29.664,-4.673C31.167,-3.422 38.398,1.908 45.293,-4.673C45.294,-4.676 45.303,-4.682 45.307,-4.689C45.372,-4.749 45.457,-4.786 45.552,-4.786C45.626,-4.786 45.696,-4.758 45.752,-4.72C45.793,-4.696 45.823,-4.658 45.854,-4.618C47.19,-3.304 52.964,1.666 59.074,-3.639C59.138,-3.702 59.18,-3.794 59.18,-3.9L59.18,-6.416C59.18,-6.62 59.021,-6.784 58.821,-6.784C58.795,-6.784 58.771,-6.774 58.743,-6.768C58.687,-6.736 58.628,-6.706 58.56,-6.672C56.683,-5.732 50.859,-3.496 45.573,-8.497C45.523,-8.542 45.472,-8.589 45.42,-8.643C45.372,-8.663 45.325,-8.676 45.266,-8.676C45.229,-8.676 45.189,-8.665 45.157,-8.66C45.078,-8.627 45.015,-8.578 44.973,-8.516C43.397,-7.316 36.167,-2.42 29.727,-8.427L29.633,-8.519C29.565,-8.579 29.474,-8.627 29.372,-8.627C29.277,-8.627 29.182,-8.579 29.12,-8.519L29.02,-8.427C22.583,-2.42 15.345,-7.316 13.772,-8.516C13.73,-8.578 13.67,-8.627 13.593,-8.66C13.556,-8.665 13.519,-8.676 13.478,-8.676C13.426,-8.676 13.375,-8.663 13.326,-8.643C13.279,-8.589 13.223,-8.542 13.171,-8.497C7.886,-3.496 2.064,-5.732 0.186,-6.672C0.12,-6.706 0.057,-6.736 0,-6.768" style="fill:white;fill-rule:nonzero;"/>
        </g>
        <g transform="matrix(1,0,0,1,172.045,444.785)">
            <path d="M0,-22.363L0,0L-3.761,0L-3.761,-17.118L-3.794,-17.118L-6.431,-14.381L-6.466,-14.381L-6.466,-18.305L-3.002,-22.363L0,-22.363Z" style="fill:white;fill-rule:nonzero;"/>
        </g>
        <g transform="matrix(1,0,0,1,176.599,428.983)">
            <path d="M0,9.241L3.366,0.034L3.399,0.034L3.399,9.241L0,9.241ZM6.897,15.807L6.897,12.179L8.415,12.179L8.415,9.241L6.897,9.241L6.897,-6.566L3.201,-6.566L-3.299,9.868L-3.299,12.179L3.333,12.179L3.333,15.807L6.897,15.807Z" style="fill:white;fill-rule:nonzero;"/>
        </g>
        <g transform="matrix(1,0,0,1,193.827,431.648)">
            <path d="M0,-9.353L1.573,-9.353L1.573,-1.284L3.449,-1.284L3.449,0L0,0L0,-9.353Z" style="fill:white;fill-rule:nonzero;"/>
        </g>
        <g transform="matrix(1,0,0,1,0,241.943)">
            <rect x="197.992" y="180.352" width="1.573" height="9.353" style="fill:white;"/>
        </g>
        <g transform="matrix(1,0,0,1,200.474,431.648)">
            <path d="M0,-9.353L3.683,-9.353L3.683,-8.07L1.573,-8.07L1.573,-5.394L3.145,-5.394L3.145,-4.124L1.573,-4.124L1.573,0L0,0L0,-9.353Z" style="fill:white;fill-rule:nonzero;"/>
        </g>
        <g transform="matrix(1,0,0,1,204.845,431.648)">
            <path d="M0,-9.353L3.752,-9.353L3.752,-8.07L1.573,-8.07L1.573,-5.394L3.131,-5.394L3.131,-4.124L1.573,-4.124L1.573,-1.284L3.752,-1.284L3.752,0L0,0L0,-9.353Z" style="fill:white;fill-rule:nonzero;"/>
        </g>
        <g transform="matrix(1,0,0,1,195.4,439.603)">
            <path d="M0,0.939L0,3.863L0.689,3.863C1.214,3.863 1.462,3.601 1.462,3.105L1.462,1.698C1.462,1.201 1.228,0.939 0.676,0.939L0,0.939ZM0,-0.261L0.552,-0.261C1.062,-0.261 1.296,-0.523 1.296,-1.02L1.296,-2.165C1.296,-2.675 1.062,-2.923 0.538,-2.923L0,-2.923L0,-0.261ZM-1.573,-4.207L0.704,-4.207C2.276,-4.207 2.8,-3.475 2.8,-2.151L2.8,-1.2C2.8,-0.413 2.51,0.084 1.862,0.291C2.648,0.47 3.035,0.994 3.035,1.849L3.035,3.09C3.035,4.415 2.441,5.146 0.869,5.146L-1.573,5.146L-1.573,-4.207Z" style="fill:white;fill-rule:nonzero;"/>
        </g>
        <g transform="matrix(1,0,0,1,199.219,444.75)">
            <path d="M0,-9.353L3.752,-9.353L3.752,-8.07L1.573,-8.07L1.573,-5.394L3.131,-5.394L3.131,-4.124L1.573,-4.124L1.573,-1.284L3.752,-1.284L3.752,0L0,0L0,-9.353Z" style="fill:white;fill-rule:nonzero;"/>
        </g>
        <g transform="matrix(1,0,0,1,203.811,444.75)">
            <path d="M0,-9.353L1.573,-9.353L1.573,-1.284L3.449,-1.284L3.449,0L0,0L0,-9.353Z" style="fill:white;fill-rule:nonzero;"/>
        </g>
        <g transform="matrix(1,0,0,1,211.093,437.562)">
            <path d="M0,5.021L0,0C0,-0.565 -0.249,-0.965 -0.814,-0.965C-1.366,-0.965 -1.614,-0.565 -1.614,0L-1.614,5.021C-1.614,5.587 -1.366,5.987 -0.814,5.987C-0.249,5.987 0,5.587 0,5.021M-3.187,4.773L-3.187,0.249C-3.187,-1.213 -2.469,-2.276 -0.814,-2.276C0.855,-2.276 1.573,-1.213 1.573,0.249L1.573,4.773C1.573,6.221 0.855,7.297 -0.814,7.297C-2.469,7.297 -3.187,6.221 -3.187,4.773" style="fill:white;fill-rule:nonzero;"/>
        </g>
        <g transform="matrix(1,0,0,1,216.817,441.176)">
            <path d="M0,-2.206L-0.883,3.573L-2.359,3.573L-3.614,-5.779L-2.097,-5.779L-1.366,0.152L-1.352,0.152L-0.566,-5.779L0.717,-5.779L1.586,0.152L1.6,0.152L2.317,-5.779L3.642,-5.779L2.428,3.573L0.938,3.573L0.014,-2.206L0,-2.206Z" style="fill:white;fill-rule:nonzero;"/>
        </g>
        <g transform="matrix(1,0,0,1,225.974,441.176)">
            <path d="M0,-2.206L-0.883,3.573L-2.359,3.573L-3.614,-5.779L-2.097,-5.779L-1.366,0.152L-1.352,0.152L-0.565,-5.779L0.717,-5.779L1.586,0.152L1.6,0.152L2.317,-5.779L3.642,-5.779L2.428,3.573L0.938,3.573L0.014,-2.206L0,-2.206Z" style="fill:white;fill-rule:nonzero;"/>
        </g>
        <g transform="matrix(1,0,0,1,231.462,438.362)">
            <path d="M0,3.421L1.255,3.421L0.634,-0.331L0.621,-0.331L0,3.421ZM-1.973,6.387L-0.207,-2.966L1.586,-2.966L3.365,6.387L1.751,6.387L1.462,4.676L-0.207,4.676L-0.483,6.387L-1.973,6.387Z" style="fill:white;fill-rule:nonzero;"/>
        </g>
        <g transform="matrix(1,0,0,1,234.605,444.75)">
            <path d="M0,-9.353L4.18,-9.353L4.18,-8.07L2.883,-8.07L2.883,0L1.297,0L1.297,-8.07L0,-8.07L0,-9.353Z" style="fill:white;fill-rule:nonzero;"/>
        </g>
        <g transform="matrix(1,0,0,1,239.515,444.75)">
            <path d="M0,-9.353L3.752,-9.353L3.752,-8.07L1.573,-8.07L1.573,-5.394L3.131,-5.394L3.131,-4.124L1.573,-4.124L1.573,-1.284L3.752,-1.284L3.752,0L0,0L0,-9.353Z" style="fill:white;fill-rule:nonzero;"/>
        </g>
        <g transform="matrix(1,0,0,1,245.679,443.466)">
            <path d="M0,-6.786L0,-3.876L0.524,-3.876C1.062,-3.876 1.296,-4.151 1.296,-4.648L1.296,-6.027C1.296,-6.538 1.062,-6.786 0.524,-6.786L0,-6.786ZM0,-3.007L0,1.283L-1.573,1.283L-1.573,-8.069L0.717,-8.069C2.303,-8.069 2.883,-7.283 2.883,-5.973L2.883,-4.772C2.883,-3.765 2.524,-3.172 1.627,-2.965L3.131,1.283L1.476,1.283L0,-3.007Z" style="fill:white;fill-rule:nonzero;"/>
        </g>
    </g>
</svg>
