<?xml version="1.0" encoding="UTF-8" standalone="no"?>
<!DOCTYPE svg PUBLIC "-//W3C//DTD SVG 1.1//EN" "http://www.w3.org/Graphics/SVG/1.1/DTD/svg11.dtd">
<svg width="100%" height="100%" viewBox="0 0 463 463" version="1.1" xmlns="http://www.w3.org/2000/svg" xmlns:xlink="http://www.w3.org/1999/xlink" xml:space="preserve" xmlns:serif="http://www.serif.com/" style="fill-rule:evenodd;clip-rule:evenodd;stroke-linejoin:round;stroke-miterlimit:2;">
    <g transform="matrix(4.16667,0,0,4.16667,-2193.65,-1721.19)">
        <g transform="matrix(-1,0,0,1,1163.91,325.137)">
            <rect x="526.476" y="87.949" width="110.959" height="110.965" style="fill:rgb(25,54,103);"/>
        </g>
        <g transform="matrix(1,0,0,1,592.435,485.194)">
            <path d="M0,-3.848C2.847,-6.49 4.633,-10.258 4.633,-14.439C4.633,-15.065 4.589,-15.681 4.512,-16.286C10.296,-15.666 14.817,-10.758 14.817,-4.811C14.817,-1.432 13.349,1.603 11.025,3.716C8.851,-0.359 4.781,-3.274 0,-3.848M9.812,10.498C9.812,16.86 4.633,22.038 -1.731,22.038C-3.803,22.038 -5.741,21.482 -7.423,20.524C-4.968,17.932 -3.454,14.436 -3.454,10.593C-3.454,9.647 -3.55,8.723 -3.724,7.828C-1.648,8.981 0.736,9.64 3.275,9.64C5.533,9.64 7.673,9.119 9.577,8.19C9.73,8.937 9.812,9.708 9.812,10.498M-29.449,10.593C-29.449,9.772 -29.361,8.973 -29.196,8.202C-27.295,9.124 -25.163,9.64 -22.913,9.64C-20.383,9.64 -18.006,8.986 -15.935,7.839C-16.096,8.701 -16.185,9.59 -16.185,10.498C-16.185,14.401 -14.624,17.946 -12.1,20.549C-13.808,21.549 -15.789,22.133 -17.906,22.133C-24.272,22.133 -29.449,16.956 -29.449,10.593M-34.455,-4.811C-34.455,-10.758 -29.935,-15.665 -24.15,-16.286C-24.228,-15.681 -24.272,-15.065 -24.272,-14.439C-24.272,-10.214 -22.448,-6.408 -19.551,-3.763C-24.344,-3.217 -28.434,-0.321 -30.631,3.747C-32.972,1.633 -34.455,-1.415 -34.455,-4.811M-9.82,-25.981C-5.091,-25.981 -1.022,-23.121 0.761,-19.04C-3.935,-18.213 -7.854,-15.114 -9.82,-10.919C-11.783,-15.115 -15.704,-18.213 -20.399,-19.04C-18.617,-23.121 -14.549,-25.981 -9.82,-25.981M-7.071,0.274C-5.473,-0.564 -3.659,-1.045 -1.731,-1.045C2.806,-1.045 6.729,1.594 8.615,5.412C7.016,6.251 5.2,6.731 3.275,6.731C-1.264,6.731 -5.187,4.092 -7.071,0.274M-12.605,0.352C-14.504,4.129 -18.405,6.731 -22.913,6.731C-24.825,6.731 -26.626,6.256 -28.215,5.429C-26.316,1.654 -22.413,-0.95 -17.906,-0.95C-15.993,-0.95 -14.194,-0.475 -12.605,0.352M-21.211,-16.214C-15.653,-15.387 -11.37,-10.596 -11.37,-4.811C-11.37,-4.206 -11.432,-3.617 -11.521,-3.037C-17.08,-3.865 -21.361,-8.654 -21.361,-14.439C-21.361,-15.044 -21.301,-15.634 -21.211,-16.214M-9.767,18.764C-11.927,16.667 -13.274,13.737 -13.274,10.498C-13.274,7.306 -11.971,4.415 -9.873,2.323C-7.713,4.422 -6.364,7.351 -6.364,10.593C-6.364,13.783 -7.667,16.673 -9.767,18.764M1.723,-14.439C1.723,-8.654 -2.559,-3.865 -8.117,-3.037C-8.208,-3.617 -8.268,-4.206 -8.268,-4.811C-8.268,-10.596 -3.986,-15.387 1.571,-16.213C1.662,-15.634 1.723,-15.044 1.723,-14.439M17.728,-4.811C17.728,-12.603 11.528,-18.97 3.806,-19.251C1.819,-24.861 -3.538,-28.891 -9.82,-28.891C-16.102,-28.891 -21.458,-24.861 -23.446,-19.251C-31.169,-18.969 -37.365,-12.603 -37.365,-4.811C-37.365,-0.187 -35.179,3.934 -31.788,6.582C-32.156,7.857 -32.359,9.202 -32.359,10.593C-32.359,18.559 -25.876,25.043 -17.906,25.043C-14.882,25.043 -12.073,24.107 -9.75,22.512C-7.453,24.049 -4.696,24.947 -1.731,24.947C6.236,24.947 12.72,18.464 12.72,10.498C12.72,9.133 12.526,7.815 12.173,6.565C15.55,3.917 17.728,-0.197 17.728,-4.811" style="fill:white;fill-rule:nonzero;"/>
        </g>
        <g transform="matrix(1,0,0,1,543.085,444.758)">
            <path d="M0,-22.372L0,0L-3.761,0L-3.761,-17.126L-3.795,-17.126L-6.435,-14.387L-6.467,-14.387L-6.467,-18.313L-3.001,-22.372L0,-22.372Z" style="fill:white;fill-rule:nonzero;"/>
        </g>
        <g transform="matrix(1,0,0,1,544.801,444.758)">
            <path d="M0,-22.372L9.438,-22.372L9.438,-18.907L4.521,0L0.791,0L5.808,-19.304L0,-19.304L0,-22.372Z" style="fill:white;fill-rule:nonzero;"/>
        </g>
        <g transform="matrix(1,0,0,1,564.103,430.364)">
            <path d="M0,-6.786L0,-3.103L0.58,-3.103C1.117,-3.103 1.353,-3.365 1.353,-3.876L1.353,-6.027C1.353,-6.538 1.117,-6.786 0.58,-6.786L0,-6.786ZM-1.572,-8.069L0.759,-8.069C2.346,-8.069 2.925,-7.283 2.925,-5.973L2.925,-4C2.925,-2.689 2.346,-1.89 0.759,-1.89L0,-1.89L0,1.283L-1.572,1.283L-1.572,-8.069Z" style="fill:white;fill-rule:nonzero;"/>
        </g>
        <g transform="matrix(1,0,0,1,569.014,425.261)">
            <path d="M0,3.421L1.255,3.421L0.635,-0.331L0.62,-0.331L0,3.421ZM-1.973,6.387L-0.207,-2.966L1.586,-2.966L3.365,6.387L1.752,6.387L1.462,4.676L-0.207,4.676L-0.483,6.387L-1.973,6.387Z" style="fill:white;fill-rule:nonzero;"/>
        </g>
        <g transform="matrix(1,0,0,1,574.599,430.364)">
            <path d="M0,-6.786L0,-3.876L0.524,-3.876C1.062,-3.876 1.297,-4.151 1.297,-4.648L1.297,-6.027C1.297,-6.538 1.062,-6.786 0.524,-6.786L0,-6.786ZM0,-3.007L0,1.283L-1.572,1.283L-1.572,-8.069L0.718,-8.069C2.304,-8.069 2.884,-7.283 2.884,-5.973L2.884,-4.772C2.884,-3.765 2.524,-3.172 1.628,-2.965L3.132,1.283L1.477,1.283L0,-3.007Z" style="fill:white;fill-rule:nonzero;"/>
        </g>
        <g transform="matrix(1,0,0,1,578.018,431.648)">
            <path d="M0,-9.353L4.18,-9.353L4.18,-8.07L2.884,-8.07L2.884,0L1.297,0L1.297,-8.07L0,-8.07L0,-9.353Z" style="fill:white;fill-rule:nonzero;"/>
        </g>
        <g transform="matrix(1,0,0,1,584.252,428.17)">
            <path d="M0,-2.399L0,3.477L-1.324,3.477L-1.324,-5.876L0.221,-5.876L1.918,-0.509L1.918,-5.876L3.228,-5.876L3.228,3.477L1.849,3.477L0,-2.399Z" style="fill:white;fill-rule:nonzero;"/>
        </g>
        <g transform="matrix(1,0,0,1,588.375,431.648)">
            <path d="M0,-9.353L3.752,-9.353L3.752,-8.07L1.572,-8.07L1.572,-5.394L3.131,-5.394L3.131,-4.124L1.572,-4.124L1.572,-1.284L3.752,-1.284L3.752,0L0,0L0,-9.353Z" style="fill:white;fill-rule:nonzero;"/>
        </g>
        <g transform="matrix(1,0,0,1,594.54,430.364)">
            <path d="M0,-6.786L0,-3.876L0.524,-3.876C1.062,-3.876 1.297,-4.151 1.297,-4.648L1.297,-6.027C1.297,-6.538 1.062,-6.786 0.524,-6.786L0,-6.786ZM0,-3.007L0,1.283L-1.572,1.283L-1.572,-8.069L0.718,-8.069C2.304,-8.069 2.884,-7.283 2.884,-5.973L2.884,-4.772C2.884,-3.765 2.524,-3.172 1.628,-2.965L3.132,1.283L1.477,1.283L0,-3.007Z" style="fill:white;fill-rule:nonzero;"/>
        </g>
        <g transform="matrix(1,0,0,1,598.126,424.309)">
            <path d="M0,5.325L0,4.069L1.463,4.069L1.463,5.352C1.463,5.877 1.697,6.18 2.235,6.18C2.731,6.18 2.952,5.848 2.952,5.352L2.952,4.994C2.952,4.456 2.731,4.125 2.249,3.67L1.324,2.745C0.428,1.862 0.015,1.325 0.015,0.249L0.015,-0.069C0.015,-1.228 0.69,-2.124 2.222,-2.124C3.794,-2.124 4.414,-1.352 4.414,0.001L4.414,0.759L2.979,0.759L2.979,-0.055C2.979,-0.593 2.731,-0.855 2.235,-0.855C1.794,-0.855 1.49,-0.607 1.49,-0.082L1.49,0.11C1.49,0.635 1.78,0.938 2.235,1.38L3.242,2.373C4.097,3.242 4.511,3.766 4.511,4.801L4.511,5.256C4.511,6.539 3.821,7.449 2.222,7.449C0.621,7.449 0,6.553 0,5.325" style="fill:white;fill-rule:nonzero;"/>
        </g>
        <g transform="matrix(1,0,0,1,606.553,426.418)">
            <path d="M0,1.105L-1.518,1.105L-1.518,5.229L-3.09,5.229L-3.09,-4.124L-1.518,-4.124L-1.518,-0.165L0,-0.165L0,-4.124L1.586,-4.124L1.586,5.229L0,5.229L0,1.105Z" style="fill:white;fill-rule:nonzero;"/>
        </g>
        <g transform="matrix(1,0,0,1,0,241.943)">
            <rect x="609.033" y="180.352" width="1.572" height="9.353" style="fill:white;"/>
        </g>
        <g transform="matrix(1,0,0,1,613.088,430.364)">
            <path d="M0,-6.786L0,-3.103L0.58,-3.103C1.117,-3.103 1.353,-3.365 1.353,-3.876L1.353,-6.027C1.353,-6.538 1.117,-6.786 0.58,-6.786L0,-6.786ZM-1.572,-8.069L0.759,-8.069C2.346,-8.069 2.925,-7.283 2.925,-5.973L2.925,-4C2.925,-2.689 2.346,-1.89 0.759,-1.89L0,-1.89L0,1.283L-1.572,1.283L-1.572,-8.069Z" style="fill:white;fill-rule:nonzero;"/>
        </g>
        <g transform="matrix(1,0,0,1,616.742,424.309)">
            <path d="M0,5.325L0,4.069L1.463,4.069L1.463,5.352C1.463,5.877 1.697,6.18 2.235,6.18C2.731,6.18 2.952,5.848 2.952,5.352L2.952,4.994C2.952,4.456 2.731,4.125 2.249,3.67L1.324,2.745C0.428,1.862 0.014,1.325 0.014,0.249L0.014,-0.069C0.014,-1.228 0.69,-2.124 2.221,-2.124C3.794,-2.124 4.414,-1.352 4.414,0.001L4.414,0.759L2.979,0.759L2.979,-0.055C2.979,-0.593 2.731,-0.855 2.235,-0.855C1.794,-0.855 1.49,-0.607 1.49,-0.082L1.49,0.11C1.49,0.635 1.779,0.938 2.235,1.38L3.242,2.373C4.098,3.242 4.511,3.766 4.511,4.801L4.511,5.256C4.511,6.539 3.821,7.449 2.221,7.449C0.621,7.449 0,6.553 0,5.325" style="fill:white;fill-rule:nonzero;"/>
        </g>
        <g transform="matrix(1,0,0,1,562.531,444.75)">
            <path d="M0,-9.353L3.684,-9.353L3.684,-8.07L1.572,-8.07L1.572,-5.394L3.146,-5.394L3.146,-4.124L1.572,-4.124L1.572,0L0,0L0,-9.353Z" style="fill:white;fill-rule:nonzero;"/>
        </g>
        <g transform="matrix(1,0,0,1,569.952,437.562)">
            <path d="M0,5.021L0,0C0,-0.565 -0.248,-0.965 -0.813,-0.965C-1.365,-0.965 -1.614,-0.565 -1.614,0L-1.614,5.021C-1.614,5.587 -1.365,5.987 -0.813,5.987C-0.248,5.987 0,5.587 0,5.021M-3.187,4.773L-3.187,0.249C-3.187,-1.213 -2.469,-2.276 -0.813,-2.276C0.855,-2.276 1.572,-1.213 1.572,0.249L1.572,4.773C1.572,6.221 0.855,7.297 -0.813,7.297C-2.469,7.297 -3.187,6.221 -3.187,4.773" style="fill:white;fill-rule:nonzero;"/>
        </g>
        <g transform="matrix(1,0,0,1,573.992,443.466)">
            <path d="M0,-6.786L0,-3.876L0.524,-3.876C1.062,-3.876 1.297,-4.151 1.297,-4.648L1.297,-6.027C1.297,-6.538 1.062,-6.786 0.524,-6.786L0,-6.786ZM0,-3.007L0,1.283L-1.572,1.283L-1.572,-8.069L0.718,-8.069C2.304,-8.069 2.883,-7.283 2.883,-5.973L2.883,-4.772C2.883,-3.765 2.524,-3.172 1.628,-2.965L3.132,1.283L1.477,1.283L0,-3.007Z" style="fill:white;fill-rule:nonzero;"/>
        </g>
        <g transform="matrix(1,0,0,1,578.998,444.75)">
            <path d="M0,-9.353L4.179,-9.353L4.179,-8.07L2.883,-8.07L2.883,0L1.296,0L1.296,-8.07L0,-8.07L0,-9.353Z" style="fill:white;fill-rule:nonzero;"/>
        </g>
        <g transform="matrix(1,0,0,1,586.997,439.52)">
            <path d="M0,1.105L-1.518,1.105L-1.518,5.229L-3.09,5.229L-3.09,-4.124L-1.518,-4.124L-1.518,-0.165L0,-0.165L0,-4.124L1.587,-4.124L1.587,5.229L0,5.229L0,1.105Z" style="fill:white;fill-rule:nonzero;"/>
        </g>
        <g transform="matrix(1,0,0,1,589.478,444.75)">
            <path d="M0,-9.353L3.752,-9.353L3.752,-8.07L1.572,-8.07L1.572,-5.394L3.131,-5.394L3.131,-4.124L1.572,-4.124L1.572,-1.284L3.752,-1.284L3.752,0L0,0L0,-9.353Z" style="fill:white;fill-rule:nonzero;"/>
        </g>
        <g transform="matrix(1,0,0,1,597.893,440.39)">
            <path d="M0,-0.634L2.234,-0.634L2.234,4.359L1.104,4.359L1.104,3.339C0.896,4.042 0.455,4.47 -0.4,4.47C-1.752,4.47 -2.373,3.393 -2.373,1.945L-2.373,-2.579C-2.373,-4.041 -1.67,-5.104 -0.014,-5.104C1.724,-5.104 2.234,-4.138 2.234,-2.758L2.234,-1.931L0.8,-1.931L0.8,-2.883C0.8,-3.462 0.579,-3.793 0.014,-3.793C-0.552,-3.793 -0.801,-3.393 -0.801,-2.827L-0.801,2.193C-0.801,2.76 -0.566,3.159 -0.028,3.159C0.482,3.159 0.744,2.869 0.744,2.262L0.744,0.607L0,0.607L0,-0.634Z" style="fill:white;fill-rule:nonzero;"/>
        </g>
        <g transform="matrix(1,0,0,1,604.207,437.562)">
            <path d="M0,5.021L0,0C0,-0.565 -0.248,-0.965 -0.813,-0.965C-1.365,-0.965 -1.614,-0.565 -1.614,0L-1.614,5.021C-1.614,5.587 -1.365,5.987 -0.813,5.987C-0.248,5.987 0,5.587 0,5.021M-3.187,4.773L-3.187,0.249C-3.187,-1.213 -2.469,-2.276 -0.813,-2.276C0.855,-2.276 1.572,-1.213 1.572,0.249L1.572,4.773C1.572,6.221 0.855,7.297 -0.813,7.297C-2.469,7.297 -3.187,6.221 -3.187,4.773" style="fill:white;fill-rule:nonzero;"/>
        </g>
        <g transform="matrix(1,0,0,1,608.192,438.362)">
            <path d="M0,3.421L1.255,3.421L0.634,-0.331L0.62,-0.331L0,3.421ZM-1.973,6.387L-0.207,-2.966L1.586,-2.966L3.365,6.387L1.752,6.387L1.462,4.676L-0.207,4.676L-0.483,6.387L-1.973,6.387Z" style="fill:white;fill-rule:nonzero;"/>
        </g>
        <g transform="matrix(1,0,0,1,612.205,444.75)">
            <path d="M0,-9.353L1.572,-9.353L1.572,-1.284L3.448,-1.284L3.448,0L0,0L0,-9.353Z" style="fill:white;fill-rule:nonzero;"/>
        </g>
        <g transform="matrix(1,0,0,1,616.219,437.41)">
            <path d="M0,5.325L0,4.069L1.463,4.069L1.463,5.352C1.463,5.877 1.697,6.18 2.235,6.18C2.731,6.18 2.952,5.848 2.952,5.352L2.952,4.994C2.952,4.456 2.731,4.125 2.249,3.67L1.324,2.745C0.428,1.862 0.014,1.325 0.014,0.249L0.014,-0.069C0.014,-1.228 0.69,-2.124 2.221,-2.124C3.794,-2.124 4.414,-1.352 4.414,0.001L4.414,0.759L2.979,0.759L2.979,-0.055C2.979,-0.593 2.731,-0.855 2.235,-0.855C1.794,-0.855 1.49,-0.607 1.49,-0.082L1.49,0.11C1.49,0.635 1.779,0.938 2.235,1.38L3.242,2.373C4.098,3.242 4.511,3.766 4.511,4.801L4.511,5.256C4.511,6.539 3.821,7.449 2.221,7.449C0.621,7.449 0,6.553 0,5.325" style="fill:white;fill-rule:nonzero;"/>
        </g>
    </g>
</svg>
