<?xml version="1.0" encoding="UTF-8" standalone="no"?>
<!DOCTYPE svg PUBLIC "-//W3C//DTD SVG 1.1//EN" "http://www.w3.org/Graphics/SVG/1.1/DTD/svg11.dtd">
<svg width="100%" height="100%" viewBox="0 0 463 463" version="1.1" xmlns="http://www.w3.org/2000/svg" xmlns:xlink="http://www.w3.org/1999/xlink" xml:space="preserve" xmlns:serif="http://www.serif.com/" style="fill-rule:evenodd;clip-rule:evenodd;stroke-linejoin:round;stroke-miterlimit:2;">
    <g transform="matrix(4.16667,0,0,4.16667,-1681.25,-716.583)">
        <g transform="matrix(-1,0,0,1,917.96,-157.076)">
            <rect x="403.5" y="329.056" width="110.96" height="110.964" style="fill:rgb(194,31,51);"/>
        </g>
        <g transform="matrix(-0.865993,-0.500056,-0.500056,0.865993,429.103,245.344)">
            <path d="M-13.517,-23.817L9.462,-23.817L-9.127,8.374L-29.362,3.622L-13.517,-23.817Z" style="fill:white;fill-rule:nonzero;"/>
        </g>
        <g transform="matrix(0,1,1,0,474.952,231.568)">
            <path d="M-0.014,-20.045L31.61,-20.045L25.588,-0.014L-11.58,-0.014L-0.014,-20.045Z" style="fill:white;fill-rule:nonzero;"/>
        </g>
        <g transform="matrix(1,0,0,1,486.435,231.656)">
            <path d="M0,24.844L-0.584,24.844L1.771,33.073L4.123,24.844L3.538,24.844L4.123,24.844L4.123,-8.229L3.538,-8.229L2.954,-8.229L2.334,-8.229L1.162,-8.229L0.585,-8.229L0,-8.229L-0.586,-8.229L-0.586,24.844L0,24.844Z" style="fill:white;fill-rule:nonzero;"/>
        </g>
        <g transform="matrix(1,0,0,1,479.212,265.63)">
            <path d="M0,-44.047L-2.133,-45.733L-2.133,-7.463L-24.245,-0.318L-25.269,-0.318L-25.471,-0.318L-26.493,-0.318L-48.507,-6.467L-48.507,-45.733L-50.641,-44.047L-50.641,-4.97L-26.594,1.686L-24.146,1.686L-1.96,-5.358L0,-5.934L0,-44.047Z" style="fill:white;fill-rule:nonzero;"/>
        </g>
        <g transform="matrix(1,0,0,1,490.56,219.228)">
            <path d="M0,-0.183C0,-1.484 -1.055,-2.538 -2.353,-2.538C-3.655,-2.538 -4.708,-1.484 -4.708,-0.183L-4.708,2.355L0,2.355L0,-0.183Z" style="fill:white;fill-rule:nonzero;"/>
        </g>
        <g transform="matrix(1,0,0,1,417.565,187.844)">
            <path d="M0,9.243L3.365,0.036L3.399,0.036L3.399,9.243L0,9.243ZM3.333,15.808L6.896,15.808L6.896,12.179L8.416,12.179L8.416,9.243L6.896,9.243L6.896,-6.565L3.2,-6.565L-3.3,9.869L-3.3,12.179L3.333,12.179L3.333,15.808Z" style="fill:white;fill-rule:nonzero;"/>
        </g>
        <g transform="matrix(1,0,0,1,439.394,184.696)">
            <path d="M0,4.111L0,-0.993C0,-1.558 -0.248,-1.959 -0.813,-1.959C-1.365,-1.959 -1.614,-1.558 -1.614,-0.993L-1.614,4.111C-1.614,4.662 -1.365,5.076 -0.813,5.076C-0.248,5.076 0,4.662 0,4.111M-1.394,6.828L-1.394,6.194C-2.648,5.973 -3.187,5.048 -3.187,3.779L-3.187,-0.745C-3.187,-2.206 -2.469,-3.269 -0.813,-3.269C0.855,-3.269 1.572,-2.206 1.572,-0.745L1.572,3.779C1.572,4.8 1.214,5.6 0.414,5.986L1.572,6.207L1.572,7.38L-1.394,6.828Z" style="fill:white;fill-rule:nonzero;"/>
        </g>
        <g transform="matrix(1,0,0,1,446.428,191)">
            <path d="M0,-9.463L0,-2.386C0,-0.938 -0.62,0 -2.221,0C-3.876,0 -4.565,-0.938 -4.565,-2.386L-4.565,-9.463L-2.993,-9.463L-2.993,-2.234C-2.993,-1.683 -2.772,-1.31 -2.221,-1.31C-1.669,-1.31 -1.448,-1.683 -1.448,-2.234L-1.448,-9.463L0,-9.463Z" style="fill:white;fill-rule:nonzero;"/>
        </g>
        <g transform="matrix(1,0,0,1,448.841,184.502)">
            <path d="M0,3.421L1.255,3.421L0.634,-0.331L0.62,-0.331L0,3.421ZM-1.973,6.387L-0.207,-2.966L1.586,-2.966L3.365,6.387L1.752,6.387L1.462,4.676L-0.207,4.676L-0.483,6.387L-1.973,6.387Z" style="fill:white;fill-rule:nonzero;"/>
        </g>
        <g transform="matrix(1,0,0,1,452.852,190.89)">
            <path d="M0,-9.353L1.572,-9.353L1.572,-1.283L3.448,-1.283L3.448,0L0,0L0,-9.353Z" style="fill:white;fill-rule:nonzero;"/>
        </g>
        <g transform="matrix(1,0,0,1,0,-239.573)">
            <rect x="457.018" y="421.11" width="1.572" height="9.353" style="fill:white;"/>
        </g>
        <g transform="matrix(1,0,0,1,459.32,190.89)">
            <path d="M0,-9.353L4.18,-9.353L4.18,-8.07L2.884,-8.07L2.884,0L1.297,0L1.297,-8.07L0,-8.07L0,-9.353Z" style="fill:white;fill-rule:nonzero;"/>
        </g>
        <g transform="matrix(1,0,0,1,467.293,185.096)">
            <path d="M0,2.235L0,5.794L-1.572,5.794L-1.572,2.235L-3.324,-3.559L-1.683,-3.559L-0.731,-0.014L-0.718,-0.014L0.234,-3.559L1.738,-3.559L0,2.235Z" style="fill:white;fill-rule:nonzero;"/>
        </g>
        <g transform="matrix(1,0,0,1,436.208,203.99)">
            <path d="M0,-9.353L3.752,-9.353L3.752,-8.07L1.572,-8.07L1.572,-5.394L3.132,-5.394L3.132,-4.125L1.572,-4.125L1.572,-1.283L3.752,-1.283L3.752,0L0,0L0,-9.353Z" style="fill:white;fill-rule:nonzero;"/>
        </g>
        <g transform="matrix(1,0,0,1,443.035,195.92)">
            <path d="M0,6.787C0.648,6.787 0.896,6.401 0.896,5.836L0.896,0.938C0.896,0.387 0.648,0 0,0L-0.662,0L-0.662,6.787L0,6.787ZM2.47,1.228L2.47,5.559C2.47,6.994 1.876,8.07 0.193,8.07L-2.234,8.07L-2.234,-1.283L0.193,-1.283C1.876,-1.283 2.47,-0.22 2.47,1.228" style="fill:white;fill-rule:nonzero;"/>
        </g>
        <g transform="matrix(1,0,0,1,450.965,204.1)">
            <path d="M0,-9.463L0,-2.386C0,-0.938 -0.62,0 -2.221,0C-3.876,0 -4.565,-0.938 -4.565,-2.386L-4.565,-9.463L-2.993,-9.463L-2.993,-2.234C-2.993,-1.683 -2.772,-1.311 -2.221,-1.311C-1.669,-1.311 -1.448,-1.683 -1.448,-2.234L-1.448,-9.463L0,-9.463Z" style="fill:white;fill-rule:nonzero;"/>
        </g>
        <g transform="matrix(1,0,0,1,451.859,197.052)">
            <path d="M0,4.524L0,0C0,-1.462 0.689,-2.524 2.345,-2.524C4.083,-2.524 4.566,-1.559 4.566,-0.179L4.566,0.924L3.131,0.924L3.131,-0.304C3.131,-0.883 2.938,-1.214 2.373,-1.214C1.807,-1.214 1.572,-0.814 1.572,-0.248L1.572,4.773C1.572,5.338 1.807,5.738 2.373,5.738C2.938,5.738 3.131,5.38 3.131,4.828L3.131,3.103L4.566,3.103L4.566,4.717C4.566,6.055 4.014,7.048 2.345,7.048C0.689,7.048 0,5.972 0,4.524" style="fill:white;fill-rule:nonzero;"/>
        </g>
        <g transform="matrix(1,0,0,1,458.866,197.603)">
            <path d="M0,3.421L1.255,3.421L0.634,-0.331L0.62,-0.331L0,3.421ZM-1.973,6.387L-0.207,-2.966L1.586,-2.966L3.365,6.387L1.752,6.387L1.462,4.676L-0.207,4.676L-0.483,6.387L-1.973,6.387Z" style="fill:white;fill-rule:nonzero;"/>
        </g>
        <g transform="matrix(1,0,0,1,462.01,203.99)">
            <path d="M0,-9.353L4.18,-9.353L4.18,-8.07L2.884,-8.07L2.884,0L1.297,0L1.297,-8.07L0,-8.07L0,-9.353Z" style="fill:white;fill-rule:nonzero;"/>
        </g>
        <g transform="matrix(1,0,0,1,0,-213.373)">
            <rect x="466.92" y="408.01" width="1.572" height="9.353" style="fill:white;"/>
        </g>
        <g transform="matrix(1,0,0,1,472.589,196.803)">
            <path d="M0,5.021L0,0C0,-0.565 -0.248,-0.966 -0.813,-0.966C-1.365,-0.966 -1.614,-0.565 -1.614,0L-1.614,5.021C-1.614,5.586 -1.365,5.986 -0.813,5.986C-0.248,5.986 0,5.586 0,5.021M-3.187,4.772L-3.187,0.249C-3.187,-1.213 -2.469,-2.276 -0.813,-2.276C0.855,-2.276 1.572,-1.213 1.572,0.249L1.572,4.772C1.572,6.221 0.855,7.297 -0.813,7.297C-2.469,7.297 -3.187,6.221 -3.187,4.772" style="fill:white;fill-rule:nonzero;"/>
        </g>
        <g transform="matrix(1,0,0,1,476.381,200.512)">
            <path d="M0,-2.398L0,3.477L-1.324,3.477L-1.324,-5.875L0.221,-5.875L1.918,-0.509L1.918,-5.875L3.228,-5.875L3.228,3.477L1.849,3.477L0,-2.398Z" style="fill:white;fill-rule:nonzero;"/>
        </g>
    </g>
</svg>
