<?xml version="1.0" encoding="UTF-8" standalone="no"?>
<!DOCTYPE svg PUBLIC "-//W3C//DTD SVG 1.1//EN" "http://www.w3.org/Graphics/SVG/1.1/DTD/svg11.dtd">
<svg width="100%" height="100%" viewBox="0 0 463 463" version="1.1" xmlns="http://www.w3.org/2000/svg" xmlns:xlink="http://www.w3.org/1999/xlink" xml:space="preserve" xmlns:serif="http://www.serif.com/" style="fill-rule:evenodd;clip-rule:evenodd;stroke-linejoin:round;stroke-miterlimit:2;">
    <g transform="matrix(4.16667,0,0,4.16667,-656.954,-1218.4)">
        <g transform="matrix(-1,0,0,1,426.298,83.797)">
            <rect x="157.669" y="208.62" width="110.96" height="110.963" style="fill:rgb(143,23,55);"/>
        </g>
        <g transform="matrix(1,0,0,1,234.123,389.328)">
            <path d="M0,-42.319L-11.278,-31.59C-11.704,-31.167 -11.922,-30.855 -11.922,-29.979L-11.922,0.09C-11.922,0.443 -11.634,0.732 -11.278,0.732L0.372,0.732C0.727,0.732 1.013,0.443 1.013,0.09L1.013,-42.048C1.013,-42.404 0.736,-43.051 0,-42.319" style="fill:white;fill-rule:nonzero;"/>
        </g>
        <g transform="matrix(1,0,0,1,201.631,389.322)">
            <path d="M0,-28.336L-11.28,-17.608C-11.704,-17.185 -11.923,-16.873 -11.923,-15.999L-11.923,0.096C-11.923,0.447 -11.634,0.735 -11.28,0.735L0.371,0.735C0.727,0.735 1.013,0.447 1.013,0.096L1.013,-28.066C1.013,-28.422 0.733,-29.071 0,-28.336" style="fill:white;fill-rule:nonzero;"/>
        </g>
        <g transform="matrix(1,0,0,1,239.248,368.317)">
            <path d="M0,-34.319C0.004,-34.405 -0.026,-34.497 -0.096,-34.564C-0.155,-34.622 -0.23,-34.648 -0.304,-34.655L-0.366,-34.651L-0.458,-34.646L-9.094,-32.698L-9.251,-32.681C-9.313,-32.67 -9.372,-32.638 -9.419,-32.593C-9.547,-32.465 -9.547,-32.257 -9.419,-32.129L-9.322,-32.031L-7.35,-30.059L-26.918,-10.491L-35.956,-19.53C-36.059,-19.632 -36.221,-19.632 -36.324,-19.53L-38.776,-17.077C-38.778,-17.077 -38.778,-17.074 -38.778,-17.074L-53.267,-2.589C-53.367,-2.486 -53.367,-2.32 -53.267,-2.22L-50.811,0.235C-50.71,0.336 -50.547,0.336 -50.446,0.235L-36.138,-14.07L-29.58,-7.51C-29.573,-7.501 -29.569,-7.49 -29.559,-7.48L-27.105,-5.029C-27.004,-4.926 -26.84,-4.926 -26.738,-5.029L-4.529,-27.238L-2.458,-25.169C-2.331,-25.04 -2.123,-25.04 -1.997,-25.169C-1.937,-25.229 -1.907,-25.303 -1.903,-25.381L-1.901,-25.409L-0.004,-34.224L0,-34.319Z" style="fill:white;fill-rule:nonzero;"/>
        </g>
        <g transform="matrix(1,0,0,1,217.941,389.255)">
            <path d="M0,-26.386L-5.457,-20.884C-5.561,-20.799 -5.712,-20.801 -5.809,-20.898L-10.752,-25.937C-11.658,-26.839 -11.853,-26.108 -11.853,-25.753L-11.853,0.161C-11.853,0.514 -11.568,0.802 -11.214,0.802L0.439,0.802C0.792,0.802 1.08,0.514 1.08,0.161L1.08,-26.183C1.08,-26.537 0.8,-27.188 0,-26.386" style="fill:white;fill-rule:nonzero;"/>
        </g>
        <g transform="matrix(1,0,0,1,175.386,306.868)">
            <path d="M0,12.143C0,13.497 -0.495,14.454 -1.847,14.454C-3.168,14.454 -3.663,13.497 -3.663,12.143L-3.663,8.513C-3.663,7.161 -3.168,6.204 -1.847,6.204C-0.495,6.204 0,7.161 0,8.513L0,12.143ZM-3.531,-0.23C-3.531,-1.585 -3.068,-2.377 -1.847,-2.377C-0.595,-2.377 -0.131,-1.585 -0.131,-0.23L-0.131,1.287C-0.131,2.639 -0.595,3.433 -1.847,3.433C-3.068,3.433 -3.531,2.639 -3.531,1.287L-3.531,-0.23ZM3.762,11.747L3.762,9.305C3.762,7.161 3.004,5.609 1.254,4.817C2.738,4.092 3.432,2.772 3.432,0.924L3.432,-0.001C3.432,-3.499 1.617,-5.379 -1.847,-5.379C-5.279,-5.379 -7.062,-3.499 -7.062,-0.001L-7.062,0.924C-7.062,2.74 -6.4,4.092 -4.95,4.817C-6.699,5.609 -7.425,7.161 -7.425,9.305L-7.425,11.747C-7.425,15.146 -5.807,17.522 -1.847,17.522C2.145,17.522 3.762,15.146 3.762,11.747" style="fill:white;fill-rule:nonzero;"/>
        </g>
        <g transform="matrix(1,0,0,1,189.441,303.02)">
            <path d="M0,6.788C0.648,6.788 0.896,6.401 0.896,5.836L0.896,0.939C0.896,0.388 0.648,0.001 0,0.001L-0.662,0.001L-0.662,6.788L0,6.788ZM2.469,1.229L2.469,5.559C2.469,6.994 1.876,8.07 0.193,8.07L-2.235,8.07L-2.235,-1.282L0.193,-1.282C1.876,-1.282 2.469,-0.219 2.469,1.229" style="fill:white;fill-rule:nonzero;"/>
        </g>
        <g transform="matrix(1,0,0,1,192.806,311.09)">
            <path d="M0,-9.352L3.752,-9.352L3.752,-8.069L1.573,-8.069L1.573,-5.393L3.131,-5.393L3.131,-4.124L1.573,-4.124L1.573,-1.282L3.752,-1.282L3.752,0L0,0L0,-9.352Z" style="fill:white;fill-rule:nonzero;"/>
        </g>
        <g transform="matrix(1,0,0,1,197.26,304.152)">
            <path d="M0,4.524L0,0C0,-1.462 0.69,-2.524 2.345,-2.524C4.083,-2.524 4.566,-1.559 4.566,-0.179L4.566,0.924L3.131,0.924L3.131,-0.303C3.131,-0.883 2.938,-1.214 2.373,-1.214C1.807,-1.214 1.573,-0.813 1.573,-0.248L1.573,4.773C1.573,5.338 1.807,5.738 2.373,5.738C2.938,5.738 3.131,5.379 3.131,4.828L3.131,3.103L4.566,3.103L4.566,4.717C4.566,6.055 4.014,7.048 2.345,7.048C0.69,7.048 0,5.972 0,4.524" style="fill:white;fill-rule:nonzero;"/>
        </g>
        <g transform="matrix(1,0,0,1,202.68,311.09)">
            <path d="M0,-9.352L3.752,-9.352L3.752,-8.069L1.573,-8.069L1.573,-5.393L3.131,-5.393L3.131,-4.124L1.573,-4.124L1.573,-1.282L3.752,-1.282L3.752,0L0,0L0,-9.352Z" style="fill:white;fill-rule:nonzero;"/>
        </g>
        <g transform="matrix(1,0,0,1,208.596,307.612)">
            <path d="M0,-2.398L0,3.477L-1.324,3.477L-1.324,-5.875L0.221,-5.875L1.917,-0.509L1.917,-5.875L3.228,-5.875L3.228,3.477L1.849,3.477L0,-2.398Z" style="fill:white;fill-rule:nonzero;"/>
        </g>
        <g transform="matrix(1,0,0,1,212.54,311.09)">
            <path d="M0,-9.352L4.18,-9.352L4.18,-8.069L2.883,-8.069L2.883,0L1.296,0L1.296,-8.069L0,-8.069L0,-9.352Z" style="fill:white;fill-rule:nonzero;"/>
        </g>
        <g transform="matrix(1,0,0,1,222.29,307.516)">
            <path d="M0,-2.206L-0.883,3.573L-2.359,3.573L-3.614,-5.779L-2.097,-5.779L-1.366,0.152L-1.352,0.152L-0.566,-5.779L0.717,-5.779L1.586,0.152L1.6,0.152L2.317,-5.779L3.642,-5.779L2.428,3.573L0.938,3.573L0.014,-2.206L0,-2.206Z" style="fill:white;fill-rule:nonzero;"/>
        </g>
        <g transform="matrix(1,0,0,1,229.654,303.903)">
            <path d="M0,5.022L0,0.001C0,-0.564 -0.249,-0.965 -0.814,-0.965C-1.366,-0.965 -1.614,-0.564 -1.614,0.001L-1.614,5.022C-1.614,5.587 -1.366,5.987 -0.814,5.987C-0.249,5.987 0,5.587 0,5.022M-3.187,4.773L-3.187,0.249C-3.187,-1.213 -2.469,-2.275 -0.814,-2.275C0.855,-2.275 1.573,-1.213 1.573,0.249L1.573,4.773C1.573,6.221 0.855,7.297 -0.814,7.297C-2.469,7.297 -3.187,6.221 -3.187,4.773" style="fill:white;fill-rule:nonzero;"/>
        </g>
        <g transform="matrix(1,0,0,1,233.694,309.807)">
            <path d="M0,-6.786L0,-3.876L0.524,-3.876C1.062,-3.876 1.296,-4.151 1.296,-4.648L1.296,-6.027C1.296,-6.538 1.062,-6.786 0.524,-6.786L0,-6.786ZM0,-3.007L0,1.283L-1.573,1.283L-1.573,-8.069L0.717,-8.069C2.304,-8.069 2.883,-7.283 2.883,-5.973L2.883,-4.772C2.883,-3.765 2.524,-3.172 1.627,-2.965L3.131,1.283L1.476,1.283L0,-3.007Z" style="fill:white;fill-rule:nonzero;"/>
        </g>
        <g transform="matrix(1,0,0,1,239.003,306.289)">
            <path d="M0,0.25L0,4.801L-1.573,4.801L-1.573,-4.551L0,-4.551L0,-0.44L1.71,-4.551L3.255,-4.551L1.435,-0.343L3.296,4.801L1.641,4.801L0,0.25Z" style="fill:white;fill-rule:nonzero;"/>
        </g>
        <g transform="matrix(1,0,0,1,246.064,304.704)">
            <path d="M0,3.42L1.255,3.42L0.634,-0.331L0.621,-0.331L0,3.42ZM-1.973,6.386L-0.207,-2.966L1.586,-2.966L3.365,6.386L1.751,6.386L1.462,4.676L-0.207,4.676L-0.483,6.386L-1.973,6.386Z" style="fill:white;fill-rule:nonzero;"/>
        </g>
        <g transform="matrix(1,0,0,1,251.401,307.612)">
            <path d="M0,-2.398L0,3.477L-1.324,3.477L-1.324,-5.875L0.221,-5.875L1.917,-0.509L1.917,-5.875L3.228,-5.875L3.228,3.477L1.849,3.477L0,-2.398Z" style="fill:white;fill-rule:nonzero;"/>
        </g>
        <g transform="matrix(1,0,0,1,257.759,303.02)">
            <path d="M0,6.788C0.648,6.788 0.896,6.401 0.896,5.836L0.896,0.939C0.896,0.388 0.648,0.001 0,0.001L-0.662,0.001L-0.662,6.788L0,6.788ZM2.469,1.229L2.469,5.559C2.469,6.994 1.876,8.07 0.193,8.07L-2.235,8.07L-2.235,-1.282L0.193,-1.282C1.876,-1.282 2.469,-0.219 2.469,1.229" style="fill:white;fill-rule:nonzero;"/>
        </g>
        <g transform="matrix(1,0,0,1,187.206,324.191)">
            <path d="M0,-9.353L3.752,-9.353L3.752,-8.07L1.573,-8.07L1.573,-5.394L3.131,-5.394L3.131,-4.124L1.573,-4.124L1.573,-1.283L3.752,-1.283L3.752,0L0,0L0,-9.353Z" style="fill:white;fill-rule:nonzero;"/>
        </g>
        <g transform="matrix(1,0,0,1,191.661,317.251)">
            <path d="M0,4.525L0,0.001C0,-1.461 0.69,-2.524 2.345,-2.524C4.083,-2.524 4.566,-1.558 4.566,-0.178L4.566,0.925L3.131,0.925L3.131,-0.302C3.131,-0.882 2.938,-1.213 2.373,-1.213C1.807,-1.213 1.573,-0.813 1.573,-0.247L1.573,4.774C1.573,5.339 1.807,5.739 2.373,5.739C2.938,5.739 3.131,5.38 3.131,4.829L3.131,3.104L4.566,3.104L4.566,4.718C4.566,6.056 4.014,7.049 2.345,7.049C0.69,7.049 0,5.973 0,4.525" style="fill:white;fill-rule:nonzero;"/>
        </g>
        <g transform="matrix(1,0,0,1,200.267,317.002)">
            <path d="M0,5.023L0,0.002C0,-0.564 -0.249,-0.964 -0.814,-0.964C-1.366,-0.964 -1.614,-0.564 -1.614,0.002L-1.614,5.023C-1.614,5.588 -1.366,5.988 -0.814,5.988C-0.249,5.988 0,5.588 0,5.023M-3.187,4.774L-3.187,0.25C-3.187,-1.212 -2.469,-2.275 -0.814,-2.275C0.855,-2.275 1.573,-1.212 1.573,0.25L1.573,4.774C1.573,6.222 0.855,7.298 -0.814,7.298C-2.469,7.298 -3.187,6.222 -3.187,4.774" style="fill:white;fill-rule:nonzero;"/>
        </g>
        <g transform="matrix(1,0,0,1,204.059,320.713)">
            <path d="M0,-2.399L0,3.477L-1.324,3.477L-1.324,-5.876L0.221,-5.876L1.917,-0.509L1.917,-5.876L3.228,-5.876L3.228,3.477L1.849,3.477L0,-2.399Z" style="fill:white;fill-rule:nonzero;"/>
        </g>
        <g transform="matrix(1,0,0,1,211.369,317.002)">
            <path d="M0,5.023L0,0.002C0,-0.564 -0.249,-0.964 -0.814,-0.964C-1.366,-0.964 -1.614,-0.564 -1.614,0.002L-1.614,5.023C-1.614,5.588 -1.366,5.988 -0.814,5.988C-0.249,5.988 0,5.588 0,5.023M-3.187,4.774L-3.187,0.25C-3.187,-1.212 -2.469,-2.275 -0.814,-2.275C0.855,-2.275 1.573,-1.212 1.573,0.25L1.573,4.774C1.573,6.222 0.855,7.298 -0.814,7.298C-2.469,7.298 -3.187,6.222 -3.187,4.774" style="fill:white;fill-rule:nonzero;"/>
        </g>
        <g transform="matrix(1,0,0,1,218.167,320.907)">
            <path d="M0,-2.786L-0.042,-2.786L-1.104,3.283L-1.834,3.283L-3.007,-2.786L-3.035,-2.786L-3.035,3.283L-4.332,3.283L-4.332,-6.069L-2.497,-6.069L-1.476,-0.8L-1.462,-0.8L-0.552,-6.069L1.435,-6.069L1.435,3.283L0,3.283L0,-2.786Z" style="fill:white;fill-rule:nonzero;"/>
        </g>
        <g transform="matrix(1,0,0,1,0,27.029)">
            <rect x="220.497" y="287.809" width="1.573" height="9.353" style="fill:white;"/>
        </g>
        <g transform="matrix(1,0,0,1,222.979,317.251)">
            <path d="M0,4.525L0,0.001C0,-1.461 0.69,-2.524 2.345,-2.524C4.083,-2.524 4.566,-1.558 4.566,-0.178L4.566,0.925L3.131,0.925L3.131,-0.302C3.131,-0.882 2.938,-1.213 2.373,-1.213C1.807,-1.213 1.573,-0.813 1.573,-0.247L1.573,4.774C1.573,5.339 1.807,5.739 2.373,5.739C2.938,5.739 3.131,5.38 3.131,4.829L3.131,3.104L4.566,3.104L4.566,4.718C4.566,6.056 4.014,7.049 2.345,7.049C0.69,7.049 0,5.973 0,4.525" style="fill:white;fill-rule:nonzero;"/>
        </g>
        <g transform="matrix(1,0,0,1,232.219,319.831)">
            <path d="M0,-0.634L2.235,-0.634L2.235,4.359L1.104,4.359L1.104,3.339C0.897,4.042 0.456,4.47 -0.4,4.47C-1.751,4.47 -2.373,3.393 -2.373,1.945L-2.373,-2.579C-2.373,-4.041 -1.669,-5.104 -0.014,-5.104C1.724,-5.104 2.235,-4.138 2.235,-2.758L2.235,-1.931L0.8,-1.931L0.8,-2.882C0.8,-3.462 0.58,-3.793 0.014,-3.793C-0.552,-3.793 -0.8,-3.393 -0.8,-2.827L-0.8,2.194C-0.8,2.76 -0.565,3.159 -0.027,3.159C0.483,3.159 0.745,2.87 0.745,2.262L0.745,0.607L0,0.607L0,-0.634Z" style="fill:white;fill-rule:nonzero;"/>
        </g>
        <g transform="matrix(1,0,0,1,236.921,322.907)">
            <path d="M0,-6.786L0,-3.876L0.524,-3.876C1.062,-3.876 1.296,-4.151 1.296,-4.648L1.296,-6.027C1.296,-6.538 1.062,-6.786 0.524,-6.786L0,-6.786ZM0,-3.007L0,1.283L-1.573,1.283L-1.573,-8.069L0.717,-8.069C2.303,-8.069 2.883,-7.282 2.883,-5.973L2.883,-4.772C2.883,-3.765 2.524,-3.172 1.627,-2.965L3.131,1.283L1.476,1.283L0,-3.007Z" style="fill:white;fill-rule:nonzero;"/>
        </g>
        <g transform="matrix(1,0,0,1,243.845,317.002)">
            <path d="M0,5.023L0,0.002C0,-0.564 -0.248,-0.964 -0.814,-0.964C-1.366,-0.964 -1.614,-0.564 -1.614,0.002L-1.614,5.023C-1.614,5.588 -1.366,5.988 -0.814,5.988C-0.248,5.988 0,5.588 0,5.023M-3.187,4.774L-3.187,0.25C-3.187,-1.212 -2.469,-2.275 -0.814,-2.275C0.855,-2.275 1.572,-1.212 1.572,0.25L1.572,4.774C1.572,6.222 0.855,7.298 -0.814,7.298C-2.469,7.298 -3.187,6.222 -3.187,4.774" style="fill:white;fill-rule:nonzero;"/>
        </g>
        <g transform="matrix(1,0,0,1,249.568,320.617)">
            <path d="M0,-2.206L-0.883,3.573L-2.359,3.573L-3.614,-5.779L-2.097,-5.779L-1.366,0.152L-1.352,0.152L-0.565,-5.779L0.717,-5.779L1.586,0.152L1.6,0.152L2.317,-5.779L3.642,-5.779L2.428,3.573L0.938,3.573L0.014,-2.206L0,-2.206Z" style="fill:white;fill-rule:nonzero;"/>
        </g>
        <g transform="matrix(1,0,0,1,253.704,324.191)">
            <path d="M0,-9.353L4.18,-9.353L4.18,-8.07L2.883,-8.07L2.883,0L1.297,0L1.297,-8.07L0,-8.07L0,-9.353Z" style="fill:white;fill-rule:nonzero;"/>
        </g>
        <g transform="matrix(1,0,0,1,261.703,318.961)">
            <path d="M0,1.105L-1.517,1.105L-1.517,5.229L-3.09,5.229L-3.09,-4.124L-1.517,-4.124L-1.517,-0.165L0,-0.165L0,-4.124L1.586,-4.124L1.586,5.229L0,5.229L0,1.105Z" style="fill:white;fill-rule:nonzero;"/>
        </g>
    </g>
</svg>
