<?xml version="1.0" encoding="UTF-8" standalone="no"?>
<!DOCTYPE svg PUBLIC "-//W3C//DTD SVG 1.1//EN" "http://www.w3.org/Graphics/SVG/1.1/DTD/svg11.dtd">
<svg width="100%" height="100%" viewBox="0 0 463 463" version="1.1" xmlns="http://www.w3.org/2000/svg" xmlns:xlink="http://www.w3.org/1999/xlink" xml:space="preserve" xmlns:serif="http://www.serif.com/" style="fill-rule:evenodd;clip-rule:evenodd;stroke-linejoin:round;stroke-miterlimit:2;">
    <g transform="matrix(4.16667,0,0,4.16667,-1169.22,-1218.4)">
        <g transform="matrix(-1,0,0,1,672.186,83.797)">
            <rect x="280.613" y="208.62" width="110.96" height="110.963" style="fill:rgb(243,109,36);"/>
        </g>
        <g transform="matrix(1,0,0,1,363.848,342.985)">
            <path d="M0,38.375L-11.841,45.208L-11.841,31.539L0,24.702L0,38.375ZM-39.116,45.208L-39.116,32.577L-28.178,38.895L-39.116,45.208ZM-40.916,45.208L-52.755,38.375L-52.755,24.702L-40.916,31.539L-40.916,45.208ZM-28.178,7.396L-39.116,13.713L-39.116,1.081L-28.178,7.396ZM-13.64,13.713L-24.578,7.396L-13.64,1.081L-13.64,13.713ZM-24.578,23.145L-12.741,16.311L-0.9,23.144L-12.741,29.98L-24.578,23.145ZM-27.277,21.586L-38.216,15.271L-27.277,8.955L-27.277,21.586ZM-14.541,15.271L-25.478,21.585L-25.478,8.955L-14.541,15.271ZM-27.277,37.336L-38.217,31.02L-27.277,24.702L-27.277,37.336ZM1.35,22.364L-11.841,14.752L-11.841,-0.478C-11.841,-0.799 -12.012,-1.096 -12.291,-1.257L-25.928,-9.13C-26.207,-9.291 -26.549,-9.291 -26.828,-9.13L-40.466,-1.257C-40.745,-1.096 -40.916,-0.799 -40.916,-0.478L-40.916,14.752L-54.104,22.364C-54.383,22.525 -54.554,22.822 -54.554,23.144L-54.554,38.895C-54.554,39.216 -54.383,39.513 -54.104,39.674L-40.466,47.546C-40.326,47.626 -40.171,47.666 -40.016,47.666C-39.86,47.666 -39.706,47.626 -39.566,47.546L-26.377,39.933L-13.19,47.546C-13.051,47.626 -12.896,47.666 -12.741,47.666C-12.585,47.666 -12.43,47.626 -12.291,47.546L1.35,39.674C1.628,39.513 1.799,39.216 1.799,38.895L1.799,23.144C1.799,22.822 1.628,22.524 1.35,22.364" style="fill:white;fill-rule:nonzero;"/>
        </g>
        <g transform="matrix(1,0,0,1,297.967,314.864)">
            <path d="M0,-4.088C-0.066,-2.836 -0.593,-2.044 -1.78,-2.044C-3.065,-2.044 -3.561,-2.836 -3.561,-4.287L-3.561,-8.179C-3.561,-9.597 -3.035,-10.421 -1.747,-10.421C-0.494,-10.421 0,-9.564 0,-8.179L0,-4.088ZM3.729,-7.519C3.729,-10.983 2.21,-13.488 -1.747,-13.488C-5.739,-13.488 -7.288,-11.313 -7.288,-7.849L-7.288,-4.551C-7.288,-0.889 -5.838,0.957 -3.131,0.957C-1.548,0.957 -0.593,0.23 -0.032,-0.856L0,-0.856L0,3.958C0,5.31 -0.528,6.267 -1.879,6.267C-3.232,6.267 -3.726,5.475 -3.726,4.09L-3.726,2.606L-7.157,2.606L-7.157,3.795C-7.157,7.092 -5.968,9.4 -1.812,9.4C2.144,9.4 3.729,6.861 3.729,3.364L3.729,-7.519Z" style="fill:white;fill-rule:nonzero;"/>
        </g>
        <g transform="matrix(1,0,0,1,0,0.828)">
            <rect x="307.121" y="300.91" width="1.573" height="9.352" style="fill:white;"/>
        </g>
        <g transform="matrix(1,0,0,1,310.527,307.612)">
            <path d="M0,-2.398L0,3.477L-1.324,3.477L-1.324,-5.875L0.221,-5.875L1.917,-0.509L1.917,-5.875L3.228,-5.875L3.228,3.477L1.849,3.477L0,-2.398Z" style="fill:white;fill-rule:nonzero;"/>
        </g>
        <g transform="matrix(1,0,0,1,316.485,303.02)">
            <path d="M0,6.788C0.648,6.788 0.896,6.401 0.896,5.836L0.896,0.939C0.896,0.388 0.648,0.001 0,0.001L-0.662,0.001L-0.662,6.788L0,6.788ZM2.469,1.229L2.469,5.559C2.469,6.994 1.876,8.07 0.193,8.07L-2.235,8.07L-2.235,-1.282L0.193,-1.282C1.876,-1.282 2.469,-0.219 2.469,1.229" style="fill:white;fill-rule:nonzero;"/>
        </g>
        <g transform="matrix(1,0,0,1,324.015,311.2)">
            <path d="M0,-9.462L0,-2.385C0,-0.937 -0.621,0 -2.221,0C-3.876,0 -4.566,-0.937 -4.566,-2.385L-4.566,-9.462L-2.993,-9.462L-2.993,-2.234C-2.993,-1.682 -2.772,-1.31 -2.221,-1.31C-1.669,-1.31 -1.448,-1.682 -1.448,-2.234L-1.448,-9.462L0,-9.462Z" style="fill:white;fill-rule:nonzero;"/>
        </g>
        <g transform="matrix(1,0,0,1,324.427,303.751)">
            <path d="M0,5.325L0,4.07L1.462,4.07L1.462,5.352C1.462,5.877 1.697,6.18 2.234,6.18C2.731,6.18 2.952,5.849 2.952,5.352L2.952,4.994C2.952,4.456 2.731,4.125 2.249,3.67L1.324,2.746C0.427,1.863 0.014,1.325 0.014,0.249L0.014,-0.068C0.014,-1.227 0.689,-2.124 2.221,-2.124C3.793,-2.124 4.414,-1.351 4.414,0.001L4.414,0.76L2.979,0.76L2.979,-0.054C2.979,-0.592 2.731,-0.854 2.234,-0.854C1.793,-0.854 1.49,-0.606 1.49,-0.082L1.49,0.111C1.49,0.635 1.779,0.939 2.234,1.38L3.242,2.373C4.097,3.242 4.51,3.766 4.51,4.801L4.51,5.256C4.51,6.539 3.821,7.449 2.221,7.449C0.621,7.449 0,6.553 0,5.325" style="fill:white;fill-rule:nonzero;"/>
        </g>
        <g transform="matrix(1,0,0,1,328.978,311.09)">
            <path d="M0,-9.352L4.18,-9.352L4.18,-8.069L2.883,-8.069L2.883,0L1.296,0L1.296,-8.069L0,-8.069L0,-9.352Z" style="fill:white;fill-rule:nonzero;"/>
        </g>
        <g transform="matrix(1,0,0,1,335.06,309.807)">
            <path d="M0,-6.786L0,-3.876L0.524,-3.876C1.062,-3.876 1.296,-4.151 1.296,-4.648L1.296,-6.027C1.296,-6.538 1.062,-6.786 0.524,-6.786L0,-6.786ZM0,-3.007L0,1.283L-1.573,1.283L-1.573,-8.069L0.717,-8.069C2.303,-8.069 2.883,-7.283 2.883,-5.973L2.883,-4.772C2.883,-3.765 2.524,-3.172 1.627,-2.965L3.131,1.283L1.476,1.283L0,-3.007Z" style="fill:white;fill-rule:nonzero;"/>
        </g>
        <g transform="matrix(1,0,0,1,341.252,305.297)">
            <path d="M0,2.234L0,5.793L-1.573,5.793L-1.573,2.234L-3.325,-3.559L-1.683,-3.559L-0.731,-0.014L-0.717,-0.014L0.234,-3.559L1.738,-3.559L0,2.234Z" style="fill:white;fill-rule:nonzero;"/>
        </g>
        <g transform="matrix(1,0,0,1,343.941,311.697)">
            <path d="M0,-1.986L-0.8,0.124L-1.683,0.124L-1.49,-2.11L0,-2.11L0,-1.986Z" style="fill:white;fill-rule:nonzero;"/>
        </g>
        <g transform="matrix(1,0,0,1,0,0.828)">
            <rect x="345.485" y="300.91" width="1.573" height="9.352" style="fill:white;"/>
        </g>
        <g transform="matrix(1,0,0,1,348.892,307.612)">
            <path d="M0,-2.398L0,3.477L-1.324,3.477L-1.324,-5.875L0.221,-5.875L1.917,-0.509L1.917,-5.875L3.228,-5.875L3.228,3.477L1.849,3.477L0,-2.398Z" style="fill:white;fill-rule:nonzero;"/>
        </g>
        <g transform="matrix(1,0,0,1,353.938,307.612)">
            <path d="M0,-2.398L0,3.477L-1.324,3.477L-1.324,-5.875L0.221,-5.875L1.917,-0.509L1.917,-5.875L3.228,-5.875L3.228,3.477L1.849,3.477L0,-2.398Z" style="fill:white;fill-rule:nonzero;"/>
        </g>
        <g transform="matrix(1,0,0,1,360.848,303.903)">
            <path d="M0,5.022L0,0.001C0,-0.564 -0.249,-0.965 -0.814,-0.965C-1.366,-0.965 -1.614,-0.564 -1.614,0.001L-1.614,5.022C-1.614,5.587 -1.366,5.987 -0.814,5.987C-0.249,5.987 0,5.587 0,5.022M-3.187,4.773L-3.187,0.249C-3.187,-1.213 -2.469,-2.275 -0.814,-2.275C0.855,-2.275 1.573,-1.213 1.573,0.249L1.573,4.773C1.573,6.221 0.855,7.297 -0.814,7.297C-2.469,7.297 -3.187,6.221 -3.187,4.773" style="fill:white;fill-rule:nonzero;"/>
        </g>
        <g transform="matrix(1,0,0,1,367.675,311.09)">
            <path d="M0,-9.352L-1.779,0L-3.49,0L-5.269,-9.352L-3.669,-9.352L-2.593,-2.827L-2.579,-2.827L-1.476,-9.352L0,-9.352Z" style="fill:white;fill-rule:nonzero;"/>
        </g>
        <g transform="matrix(1,0,0,1,368.818,304.704)">
            <path d="M0,3.42L1.255,3.42L0.635,-0.331L0.621,-0.331L0,3.42ZM-1.972,6.386L-0.207,-2.966L1.586,-2.966L3.366,6.386L1.752,6.386L1.462,4.676L-0.207,4.676L-0.482,6.386L-1.972,6.386Z" style="fill:white;fill-rule:nonzero;"/>
        </g>
        <g transform="matrix(1,0,0,1,371.562,311.09)">
            <path d="M0,-9.352L4.18,-9.352L4.18,-8.069L2.883,-8.069L2.883,0L1.297,0L1.297,-8.069L0,-8.069L0,-9.352Z" style="fill:white;fill-rule:nonzero;"/>
        </g>
        <g transform="matrix(1,0,0,1,0,0.828)">
            <rect x="376.072" y="300.91" width="1.573" height="9.352" style="fill:white;"/>
        </g>
        <g transform="matrix(1,0,0,1,381.341,303.903)">
            <path d="M0,5.022L0,0.001C0,-0.564 -0.248,-0.965 -0.814,-0.965C-1.366,-0.965 -1.614,-0.564 -1.614,0.001L-1.614,5.022C-1.614,5.587 -1.366,5.987 -0.814,5.987C-0.248,5.987 0,5.587 0,5.022M-3.187,4.773L-3.187,0.249C-3.187,-1.213 -2.469,-2.275 -0.814,-2.275C0.855,-2.275 1.572,-1.213 1.572,0.249L1.572,4.773C1.572,6.221 0.855,7.297 -0.814,7.297C-2.469,7.297 -3.187,6.221 -3.187,4.773" style="fill:white;fill-rule:nonzero;"/>
        </g>
        <g transform="matrix(1,0,0,1,384.732,307.612)">
            <path d="M0,-2.398L0,3.477L-1.324,3.477L-1.324,-5.875L0.221,-5.875L1.917,-0.509L1.917,-5.875L3.228,-5.875L3.228,3.477L1.849,3.477L0,-2.398Z" style="fill:white;fill-rule:nonzero;"/>
        </g>
        <g transform="matrix(1,0,0,1,308.845,317.804)">
            <path d="M0,3.421L1.255,3.421L0.635,-0.331L0.621,-0.331L0,3.421ZM-1.972,6.387L-0.207,-2.966L1.586,-2.966L3.366,6.387L1.752,6.387L1.462,4.677L-0.207,4.677L-0.482,6.387L-1.972,6.387Z" style="fill:white;fill-rule:nonzero;"/>
        </g>
        <g transform="matrix(1,0,0,1,313.782,320.713)">
            <path d="M0,-2.399L0,3.477L-1.324,3.477L-1.324,-5.876L0.221,-5.876L1.917,-0.509L1.917,-5.876L3.228,-5.876L3.228,3.477L1.849,3.477L0,-2.399Z" style="fill:white;fill-rule:nonzero;"/>
        </g>
        <g transform="matrix(1,0,0,1,319.739,316.12)">
            <path d="M0,6.788C0.648,6.788 0.896,6.401 0.896,5.836L0.896,0.939C0.896,0.388 0.648,0.001 0,0.001L-0.662,0.001L-0.662,6.788L0,6.788ZM2.469,1.228L2.469,5.559C2.469,6.994 1.876,8.07 0.193,8.07L-2.235,8.07L-2.235,-1.282L0.193,-1.282C1.876,-1.282 2.469,-0.22 2.469,1.228" style="fill:white;fill-rule:nonzero;"/>
        </g>
        <g transform="matrix(1,0,0,1,0,27.029)">
            <rect x="323.751" y="287.809" width="1.573" height="9.353" style="fill:white;"/>
        </g>
        <g transform="matrix(1,0,0,1,327.158,320.713)">
            <path d="M0,-2.399L0,3.477L-1.324,3.477L-1.324,-5.876L0.221,-5.876L1.917,-0.509L1.917,-5.876L3.228,-5.876L3.228,3.477L1.849,3.477L0,-2.399Z" style="fill:white;fill-rule:nonzero;"/>
        </g>
        <g transform="matrix(1,0,0,1,330.881,324.191)">
            <path d="M0,-9.353L3.683,-9.353L3.683,-8.07L1.573,-8.07L1.573,-5.394L3.145,-5.394L3.145,-4.124L1.573,-4.124L1.573,0L0,0L0,-9.353Z" style="fill:white;fill-rule:nonzero;"/>
        </g>
        <g transform="matrix(1,0,0,1,336.425,322.907)">
            <path d="M0,-6.786L0,-3.876L0.524,-3.876C1.062,-3.876 1.296,-4.151 1.296,-4.648L1.296,-6.027C1.296,-6.538 1.062,-6.786 0.524,-6.786L0,-6.786ZM0,-3.007L0,1.283L-1.573,1.283L-1.573,-8.069L0.717,-8.069C2.303,-8.069 2.883,-7.282 2.883,-5.973L2.883,-4.772C2.883,-3.765 2.524,-3.172 1.627,-2.965L3.131,1.283L1.476,1.283L0,-3.007Z" style="fill:white;fill-rule:nonzero;"/>
        </g>
        <g transform="matrix(1,0,0,1,341.486,317.804)">
            <path d="M0,3.421L1.255,3.421L0.635,-0.331L0.621,-0.331L0,3.421ZM-1.972,6.387L-0.207,-2.966L1.586,-2.966L3.366,6.387L1.752,6.387L1.462,4.677L-0.207,4.677L-0.482,6.387L-1.972,6.387Z" style="fill:white;fill-rule:nonzero;"/>
        </g>
        <g transform="matrix(1,0,0,1,344.878,316.852)">
            <path d="M0,5.325L0,4.07L1.462,4.07L1.462,5.352C1.462,5.877 1.697,6.18 2.234,6.18C2.731,6.18 2.952,5.849 2.952,5.352L2.952,4.994C2.952,4.456 2.731,4.125 2.249,3.67L1.324,2.746C0.427,1.863 0.014,1.325 0.014,0.249L0.014,-0.069C0.014,-1.227 0.689,-2.124 2.221,-2.124C3.793,-2.124 4.414,-1.352 4.414,0.001L4.414,0.76L2.979,0.76L2.979,-0.055C2.979,-0.593 2.731,-0.855 2.234,-0.855C1.793,-0.855 1.49,-0.607 1.49,-0.082L1.49,0.111C1.49,0.635 1.779,0.938 2.234,1.38L3.242,2.373C4.097,3.242 4.51,3.766 4.51,4.801L4.51,5.256C4.51,6.539 3.821,7.449 2.221,7.449C0.621,7.449 0,6.553 0,5.325" style="fill:white;fill-rule:nonzero;"/>
        </g>
        <g transform="matrix(1,0,0,1,349.429,324.191)">
            <path d="M0,-9.353L4.18,-9.353L4.18,-8.07L2.883,-8.07L2.883,0L1.296,0L1.296,-8.07L0,-8.07L0,-9.353Z" style="fill:white;fill-rule:nonzero;"/>
        </g>
        <g transform="matrix(1,0,0,1,355.511,322.907)">
            <path d="M0,-6.786L0,-3.876L0.524,-3.876C1.062,-3.876 1.296,-4.151 1.296,-4.648L1.296,-6.027C1.296,-6.538 1.062,-6.786 0.524,-6.786L0,-6.786ZM0,-3.007L0,1.283L-1.573,1.283L-1.573,-8.069L0.717,-8.069C2.303,-8.069 2.883,-7.282 2.883,-5.973L2.883,-4.772C2.883,-3.765 2.524,-3.172 1.627,-2.965L3.131,1.283L1.476,1.283L0,-3.007Z" style="fill:white;fill-rule:nonzero;"/>
        </g>
        <g transform="matrix(1,0,0,1,363.414,324.301)">
            <path d="M0,-9.463L0,-2.386C0,-0.938 -0.621,0 -2.221,0C-3.876,0 -4.566,-0.938 -4.566,-2.386L-4.566,-9.463L-2.993,-9.463L-2.993,-2.234C-2.993,-1.683 -2.772,-1.311 -2.221,-1.311C-1.669,-1.311 -1.448,-1.683 -1.448,-2.234L-1.448,-9.463L0,-9.463Z" style="fill:white;fill-rule:nonzero;"/>
        </g>
        <g transform="matrix(1,0,0,1,363.909,317.251)">
            <path d="M0,4.525L0,0.001C0,-1.461 0.69,-2.524 2.345,-2.524C4.083,-2.524 4.566,-1.558 4.566,-0.178L4.566,0.925L3.131,0.925L3.131,-0.302C3.131,-0.882 2.938,-1.213 2.373,-1.213C1.807,-1.213 1.573,-0.813 1.573,-0.247L1.573,4.774C1.573,5.339 1.807,5.739 2.373,5.739C2.938,5.739 3.131,5.38 3.131,4.829L3.131,3.104L4.566,3.104L4.566,4.718C4.566,6.056 4.014,7.049 2.345,7.049C0.69,7.049 0,5.973 0,4.525" style="fill:white;fill-rule:nonzero;"/>
        </g>
        <g transform="matrix(1,0,0,1,368.611,324.191)">
            <path d="M0,-9.353L4.18,-9.353L4.18,-8.07L2.883,-8.07L2.883,0L1.297,0L1.297,-8.07L0,-8.07L0,-9.353Z" style="fill:white;fill-rule:nonzero;"/>
        </g>
        <g transform="matrix(1,0,0,1,377.686,324.301)">
            <path d="M0,-9.463L0,-2.386C0,-0.938 -0.621,0 -2.221,0C-3.876,0 -4.566,-0.938 -4.566,-2.386L-4.566,-9.463L-2.993,-9.463L-2.993,-2.234C-2.993,-1.683 -2.772,-1.311 -2.221,-1.311C-1.669,-1.311 -1.448,-1.683 -1.448,-2.234L-1.448,-9.463L0,-9.463Z" style="fill:white;fill-rule:nonzero;"/>
        </g>
        <g transform="matrix(1,0,0,1,379.754,322.907)">
            <path d="M0,-6.786L0,-3.876L0.524,-3.876C1.062,-3.876 1.296,-4.151 1.296,-4.648L1.296,-6.027C1.296,-6.538 1.062,-6.786 0.524,-6.786L0,-6.786ZM0,-3.007L0,1.283L-1.573,1.283L-1.573,-8.069L0.717,-8.069C2.304,-8.069 2.883,-7.282 2.883,-5.973L2.883,-4.772C2.883,-3.765 2.524,-3.172 1.627,-2.965L3.131,1.283L1.476,1.283L0,-3.007Z" style="fill:white;fill-rule:nonzero;"/>
        </g>
        <g transform="matrix(1,0,0,1,383.091,324.191)">
            <path d="M0,-9.353L3.752,-9.353L3.752,-8.07L1.573,-8.07L1.573,-5.394L3.131,-5.394L3.131,-4.124L1.573,-4.124L1.573,-1.283L3.752,-1.283L3.752,0L0,0L0,-9.353Z" style="fill:white;fill-rule:nonzero;"/>
        </g>
    </g>
</svg>
