<?xml version="1.0" encoding="UTF-8" standalone="no"?>
<!DOCTYPE svg PUBLIC "-//W3C//DTD SVG 1.1//EN" "http://www.w3.org/Graphics/SVG/1.1/DTD/svg11.dtd">
<svg width="100%" height="100%" viewBox="0 0 463 463" version="1.1" xmlns="http://www.w3.org/2000/svg" xmlns:xlink="http://www.w3.org/1999/xlink" xml:space="preserve" xmlns:serif="http://www.serif.com/" style="fill-rule:evenodd;clip-rule:evenodd;stroke-linejoin:round;stroke-miterlimit:2;">
    <g transform="matrix(4.16667,0,0,4.16667,-2193.76,-1218.4)">
        <g transform="matrix(-1,0,0,1,1163.96,83.797)">
            <rect x="526.502" y="208.62" width="110.959" height="110.963" style="fill:rgb(249,157,37);"/>
        </g>
        <g transform="matrix(1,0,0,1,545.567,365.22)">
            <path d="M0,11.674L16.69,11.674C16.916,11.674 17.101,11.489 17.101,11.263C17.101,11.158 17.058,11.064 16.992,10.991L16.97,10.967L8.666,0.223L8.585,0.134C8.51,0.052 8.402,0 8.282,0C8.18,0 8.087,0.043 8.014,0.106L7.964,0.163L7.886,0.251L-0.216,10.882L-0.34,11.034C-0.385,11.099 -0.41,11.178 -0.41,11.263C-0.41,11.489 -0.227,11.674 0,11.674" style="fill:white;fill-rule:nonzero;"/>
        </g>
        <g transform="matrix(1,0,0,1,562.208,392.316)">
            <path d="M0,-13.908L-16.724,-13.908C-16.95,-13.908 -17.134,-13.724 -17.134,-13.498L-17.134,-0.411C-17.134,-0.184 -16.95,0 -16.724,0L-11.341,0L-11.341,-8.234C-11.341,-8.462 -11.159,-8.643 -10.932,-8.643L-5.936,-8.643C-5.709,-8.643 -5.526,-8.462 -5.526,-8.234L-5.526,0L0,0C0.226,0 0.409,-0.184 0.409,-0.411L0.409,-13.498C0.409,-13.724 0.226,-13.908 0,-13.908" style="fill:white;fill-rule:nonzero;"/>
        </g>
        <g transform="matrix(1,0,0,1,618.509,387.127)">
            <path d="M0,-6.787C0,-6.569 -0.181,-6.392 -0.406,-6.392L-5.35,-6.392C-5.574,-6.392 -5.755,-6.569 -5.755,-6.787L-5.755,-9.795C-5.755,-10.012 -5.574,-10.187 -5.35,-10.187L-0.406,-10.187C-0.181,-10.187 0,-10.012 0,-9.795L0,-6.787ZM0,-1.233C0,-1.014 -0.181,-0.837 -0.406,-0.837L-5.35,-0.837C-5.574,-0.837 -5.755,-1.014 -5.755,-1.233L-5.755,-4.238C-5.755,-4.457 -5.574,-4.633 -5.35,-4.633L-0.406,-4.633C-0.181,-4.633 0,-4.457 0,-4.238L0,-1.233ZM-7.559,-6.787C-7.559,-6.569 -7.738,-6.392 -7.962,-6.392L-12.907,-6.392C-13.133,-6.392 -13.314,-6.569 -13.314,-6.787L-13.314,-9.795C-13.314,-10.012 -13.133,-10.187 -12.907,-10.187L-7.962,-10.187C-7.738,-10.187 -7.559,-10.012 -7.559,-9.795L-7.559,-6.787ZM-7.559,-1.233C-7.559,-1.014 -7.738,-0.837 -7.962,-0.837L-12.907,-0.837C-13.133,-0.837 -13.314,-1.014 -13.314,-1.233L-13.314,-4.238C-13.314,-4.457 -13.133,-4.633 -12.907,-4.633L-7.962,-4.633C-7.738,-4.633 -7.559,-4.457 -7.559,-4.238L-7.559,-1.233ZM1.498,-12.144L-15.054,-12.144C-15.277,-12.144 -15.458,-11.971 -15.458,-11.751L-15.458,4.963C-15.458,5.18 -15.277,5.357 -15.054,5.357L1.498,5.357C1.724,5.357 1.904,5.18 1.904,4.963L1.904,-11.751C1.904,-11.971 1.724,-12.144 1.498,-12.144" style="fill:white;fill-rule:nonzero;"/>
        </g>
        <g transform="matrix(1,0,0,1,579.168,380.459)">
            <path d="M0,-32.394C0,-32.279 -0.096,-32.183 -0.215,-32.183L-3.922,-32.183C-4.041,-32.183 -4.135,-32.279 -4.135,-32.394L-4.135,-36.529C-4.135,-36.647 -4.041,-36.742 -3.922,-36.742L-0.215,-36.742C-0.096,-36.742 0,-36.647 0,-36.529L0,-32.394ZM0,-22.904C0,-22.787 -0.096,-22.691 -0.215,-22.691L-3.922,-22.691C-4.041,-22.691 -4.135,-22.787 -4.135,-22.904L-4.135,-27.039C-4.135,-27.156 -4.041,-27.248 -3.922,-27.248L-0.215,-27.248C-0.096,-27.248 0,-27.156 0,-27.039L0,-22.904ZM0,-13.411C0,-13.293 -0.096,-13.198 -0.215,-13.198L-3.922,-13.198C-4.041,-13.198 -4.135,-13.293 -4.135,-13.411L-4.135,-17.545C-4.135,-17.663 -4.041,-17.758 -3.922,-17.758L-0.215,-17.758C-0.096,-17.758 0,-17.663 0,-17.545L0,-13.411ZM0,-3.92C0,-3.8 -0.096,-3.707 -0.215,-3.707L-3.922,-3.707C-4.041,-3.707 -4.135,-3.8 -4.135,-3.92L-4.135,-8.052C-4.135,-8.172 -4.041,-8.265 -3.922,-8.265L-0.215,-8.265C-0.096,-8.265 0,-8.172 0,-8.052L0,-3.92ZM0,5.573C0,5.69 -0.096,5.786 -0.215,5.786L-3.922,5.786C-4.041,5.786 -4.135,5.69 -4.135,5.573L-4.135,1.439C-4.135,1.323 -4.041,1.228 -3.922,1.228L-0.215,1.228C-0.096,1.228 0,1.323 0,1.439L0,5.573ZM-7.274,-32.394C-7.274,-32.279 -7.37,-32.183 -7.486,-32.183L-11.195,-32.183C-11.313,-32.183 -11.408,-32.279 -11.408,-32.394L-11.408,-36.529C-11.408,-36.647 -11.313,-36.742 -11.195,-36.742L-7.486,-36.742C-7.37,-36.742 -7.274,-36.647 -7.274,-36.529L-7.274,-32.394ZM-7.274,-22.904C-7.274,-22.787 -7.37,-22.691 -7.486,-22.691L-11.195,-22.691C-11.313,-22.691 -11.408,-22.787 -11.408,-22.904L-11.408,-27.039C-11.408,-27.156 -11.313,-27.248 -11.195,-27.248L-7.486,-27.248C-7.37,-27.248 -7.274,-27.156 -7.274,-27.039L-7.274,-22.904ZM-7.274,-13.411C-7.274,-13.293 -7.37,-13.198 -7.486,-13.198L-11.195,-13.198C-11.313,-13.198 -11.408,-13.293 -11.408,-13.411L-11.408,-17.545C-11.408,-17.663 -11.313,-17.758 -11.195,-17.758L-7.486,-17.758C-7.37,-17.758 -7.274,-17.663 -7.274,-17.545L-7.274,-13.411ZM-7.274,-3.92C-7.274,-3.8 -7.37,-3.707 -7.486,-3.707L-11.195,-3.707C-11.313,-3.707 -11.408,-3.8 -11.408,-3.92L-11.408,-8.052C-11.408,-8.172 -11.313,-8.265 -11.195,-8.265L-7.486,-8.265C-7.37,-8.265 -7.274,-8.172 -7.274,-8.052L-7.274,-3.92ZM-7.274,5.573C-7.274,5.69 -7.37,5.786 -7.486,5.786L-11.195,5.786C-11.313,5.786 -11.408,5.69 -11.408,5.573L-11.408,1.439C-11.408,1.323 -11.313,1.228 -11.195,1.228L-7.486,1.228C-7.37,1.228 -7.274,1.323 -7.274,1.439L-7.274,5.573ZM2.362,-44.273L-13.837,-44.273C-14.054,-44.273 -14.232,-44.097 -14.232,-43.876L-14.232,11.484C-14.232,11.702 -14.054,11.879 -13.837,11.879L2.362,11.879C2.579,11.879 2.761,11.702 2.761,11.484L2.761,-43.876C2.761,-44.097 2.579,-44.273 2.362,-44.273" style="fill:white;fill-rule:nonzero;"/>
        </g>
        <g transform="matrix(1,0,0,1,620.394,369.97)">
            <path d="M0,3.331C0,3.517 -0.147,3.665 -0.332,3.665L-16.993,3.665C-17.176,3.665 -17.325,3.517 -17.325,3.331L-17.325,-0.001C-17.325,-0.185 -17.176,-0.334 -16.993,-0.334L-0.332,-0.334C-0.147,-0.334 0,-0.185 0,-0.001L0,3.331Z" style="fill:white;fill-rule:nonzero;"/>
        </g>
        <g transform="matrix(1,0,0,1,599.254,375.195)">
            <path d="M0,-11.641C0,-11.421 -0.179,-11.245 -0.396,-11.245L-5.223,-11.245C-5.443,-11.245 -5.621,-11.421 -5.621,-11.641L-5.621,-14.662C-5.621,-14.883 -5.443,-15.06 -5.223,-15.06L-0.396,-15.06C-0.179,-15.06 0,-14.883 0,-14.662L0,-11.641ZM0,-6.056C0,-5.837 -0.179,-5.662 -0.396,-5.662L-5.223,-5.662C-5.443,-5.662 -5.621,-5.837 -5.621,-6.056L-5.621,-9.078C-5.621,-9.297 -5.443,-9.474 -5.223,-9.474L-0.396,-9.474C-0.179,-9.474 0,-9.297 0,-9.078L0,-6.056ZM0,-0.471C0,-0.254 -0.179,-0.077 -0.396,-0.077L-5.223,-0.077C-5.443,-0.077 -5.621,-0.254 -5.621,-0.471L-5.621,-3.495C-5.621,-3.713 -5.443,-3.89 -5.223,-3.89L-0.396,-3.89C-0.179,-3.89 0,-3.713 0,-3.495L0,-0.471ZM0,5.113C0,5.333 -0.179,5.508 -0.396,5.508L-5.223,5.508C-5.443,5.508 -5.621,5.333 -5.621,5.113L-5.621,2.09C-5.621,1.87 -5.443,1.695 -5.223,1.695L-0.396,1.695C-0.179,1.695 0,1.87 0,2.09L0,5.113ZM0,10.696C0,10.916 -0.179,11.092 -0.396,11.092L-5.223,11.092C-5.443,11.092 -5.621,10.916 -5.621,10.696L-5.621,7.674C-5.621,7.456 -5.443,7.28 -5.223,7.28L-0.396,7.28C-0.179,7.28 0,7.456 0,7.674L0,10.696ZM-7.366,-12.707L-7.366,-6.05C-7.366,-5.83 -7.546,-5.655 -7.763,-5.655L-12.589,-5.655C-12.81,-5.655 -12.987,-5.83 -12.987,-6.05L-12.987,-6.854L-12.987,-6.888C-12.985,-6.941 -12.976,-6.991 -12.957,-7.037C-12.949,-7.052 -12.948,-7.059 -12.933,-7.081C-12.924,-7.101 -12.91,-7.119 -12.898,-7.134C-12.886,-7.154 -12.868,-7.177 -12.853,-7.2C-12.236,-8.082 -9.451,-11.513 -8.281,-12.947L-8.164,-13.088C-8.079,-13.191 -7.951,-13.256 -7.808,-13.256C-7.587,-13.256 -7.409,-13.095 -7.366,-12.886L-7.366,-12.707ZM-7.38,-0.471C-7.38,-0.254 -7.557,-0.077 -7.775,-0.077L-12.604,-0.077C-12.823,-0.077 -13,-0.254 -13,-0.471L-13,-3.495C-13,-3.713 -12.823,-3.89 -12.604,-3.89L-7.775,-3.89C-7.557,-3.89 -7.38,-3.713 -7.38,-3.495L-7.38,-0.471ZM-7.38,5.113C-7.38,5.333 -7.557,5.508 -7.775,5.508L-12.604,5.508C-12.823,5.508 -13,5.333 -13,5.113L-13,2.09C-13,1.87 -12.823,1.695 -12.604,1.695L-7.775,1.695C-7.557,1.695 -7.38,1.87 -7.38,2.09L-7.38,5.113ZM-7.38,10.696C-7.38,10.916 -7.557,11.092 -7.775,11.092L-12.604,11.092C-12.823,11.092 -13,10.916 -13,10.696L-13,7.674C-13,7.456 -12.823,7.28 -12.604,7.28L-7.775,7.28C-7.557,7.28 -7.38,7.456 -7.38,7.674L-7.38,10.696ZM-4.86,-17.587L-4.747,-17.731C-3.657,-19.128 -1.822,-21.388 -0.927,-22.486L-0.81,-22.626C-0.725,-22.728 -0.597,-22.794 -0.453,-22.794C-0.232,-22.794 -0.055,-22.634 -0.012,-22.424L-0.012,-17.314C-0.012,-17.068 -0.208,-16.87 -0.451,-16.859C-0.459,-16.859 -0.465,-16.855 -0.472,-16.855C-0.479,-16.855 -0.484,-16.859 -0.492,-16.859L-4.272,-16.859L-4.47,-16.859C-4.478,-16.859 -4.483,-16.855 -4.49,-16.855C-4.497,-16.855 -4.503,-16.859 -4.511,-16.859C-4.754,-16.87 -4.95,-17.068 -4.95,-17.314C-4.95,-17.416 -4.917,-17.511 -4.86,-17.587M1.842,-28.555C1.788,-28.734 1.631,-28.866 1.436,-28.866C1.348,-28.866 1.271,-28.833 1.204,-28.788C1.193,-28.782 1.184,-28.777 1.173,-28.768L1.036,-28.596L-14.884,-8.401L-14.957,-8.302C-15.039,-8.221 -15.092,-8.111 -15.096,-7.987L-15.096,16.831C-15.096,17.048 -14.918,17.225 -14.698,17.225L1.484,17.225C1.704,17.225 1.88,17.048 1.88,16.831L1.88,-28.39C1.88,-28.45 1.865,-28.505 1.842,-28.555" style="fill:white;fill-rule:nonzero;"/>
        </g>
        <g transform="matrix(1,0,0,1,534.43,320.027)">
            <path d="M0,-14.251L0,-10.325L0.032,-10.325L2.672,-13.064L2.705,-13.064L2.705,4.061L6.467,4.061L6.467,-18.312L3.463,-18.312L0,-14.251Z" style="fill:white;fill-rule:nonzero;"/>
        </g>
        <g transform="matrix(1,0,0,1,543.008,320.027)">
            <path d="M0,-14.251L0,-10.325L0.034,-10.325L2.674,-13.064L2.706,-13.064L2.706,4.061L6.469,4.061L6.469,-18.312L3.467,-18.312L0,-14.251Z" style="fill:white;fill-rule:nonzero;"/>
        </g>
        <g transform="matrix(1,0,0,1,557.228,303.751)">
            <path d="M0,5.325L0,4.07L1.463,4.07L1.463,5.352C1.463,5.877 1.697,6.18 2.235,6.18C2.731,6.18 2.952,5.849 2.952,5.352L2.952,4.994C2.952,4.456 2.731,4.125 2.249,3.67L1.324,2.746C0.428,1.863 0.014,1.325 0.014,0.249L0.014,-0.068C0.014,-1.227 0.69,-2.124 2.221,-2.124C3.794,-2.124 4.414,-1.351 4.414,0.001L4.414,0.76L2.979,0.76L2.979,-0.054C2.979,-0.592 2.731,-0.854 2.235,-0.854C1.794,-0.854 1.49,-0.606 1.49,-0.082L1.49,0.111C1.49,0.635 1.779,0.939 2.235,1.38L3.242,2.373C4.098,3.242 4.511,3.766 4.511,4.801L4.511,5.256C4.511,6.539 3.821,7.449 2.221,7.449C0.621,7.449 0,6.553 0,5.325" style="fill:white;fill-rule:nonzero;"/>
        </g>
        <g transform="matrix(1,0,0,1,566.978,311.2)">
            <path d="M0,-9.462L0,-2.385C0,-0.937 -0.62,0 -2.221,0C-3.876,0 -4.565,-0.937 -4.565,-2.385L-4.565,-9.462L-2.993,-9.462L-2.993,-2.234C-2.993,-1.682 -2.772,-1.31 -2.221,-1.31C-1.669,-1.31 -1.448,-1.682 -1.448,-2.234L-1.448,-9.462L0,-9.462Z" style="fill:white;fill-rule:nonzero;"/>
        </g>
        <g transform="matrix(1,0,0,1,567.64,303.751)">
            <path d="M0,5.325L0,4.07L1.463,4.07L1.463,5.352C1.463,5.877 1.697,6.18 2.235,6.18C2.731,6.18 2.952,5.849 2.952,5.352L2.952,4.994C2.952,4.456 2.731,4.125 2.249,3.67L1.324,2.746C0.428,1.863 0.015,1.325 0.015,0.249L0.015,-0.068C0.015,-1.227 0.69,-2.124 2.222,-2.124C3.794,-2.124 4.414,-1.351 4.414,0.001L4.414,0.76L2.979,0.76L2.979,-0.054C2.979,-0.592 2.731,-0.854 2.235,-0.854C1.794,-0.854 1.49,-0.606 1.49,-0.082L1.49,0.111C1.49,0.635 1.78,0.939 2.235,1.38L3.242,2.373C4.097,3.242 4.511,3.766 4.511,4.801L4.511,5.256C4.511,6.539 3.821,7.449 2.222,7.449C0.621,7.449 0,6.553 0,5.325" style="fill:white;fill-rule:nonzero;"/>
        </g>
        <g transform="matrix(1,0,0,1,572.437,311.09)">
            <path d="M0,-9.352L4.18,-9.352L4.18,-8.069L2.884,-8.069L2.884,0L1.297,0L1.297,-8.069L0,-8.069L0,-9.352Z" style="fill:white;fill-rule:nonzero;"/>
        </g>
        <g transform="matrix(1,0,0,1,578.231,304.704)">
            <path d="M0,3.42L1.255,3.42L0.634,-0.331L0.62,-0.331L0,3.42ZM-1.973,6.386L-0.207,-2.966L1.586,-2.966L3.365,6.386L1.752,6.386L1.462,4.676L-0.207,4.676L-0.483,6.386L-1.973,6.386Z" style="fill:white;fill-rule:nonzero;"/>
        </g>
        <g transform="matrix(1,0,0,1,0,0.828)">
            <rect x="582.092" y="300.91" width="1.572" height="9.352" style="fill:white;"/>
        </g>
        <g transform="matrix(1,0,0,1,585.747,307.612)">
            <path d="M0,-2.398L0,3.477L-1.324,3.477L-1.324,-5.875L0.221,-5.875L1.917,-0.509L1.917,-5.875L3.228,-5.875L3.228,3.477L1.849,3.477L0,-2.398Z" style="fill:white;fill-rule:nonzero;"/>
        </g>
        <g transform="matrix(1,0,0,1,591.442,304.704)">
            <path d="M0,3.42L1.255,3.42L0.634,-0.331L0.62,-0.331L0,3.42ZM-1.973,6.386L-0.207,-2.966L1.586,-2.966L3.365,6.386L1.752,6.386L1.462,4.676L-0.207,4.676L-0.483,6.386L-1.973,6.386Z" style="fill:white;fill-rule:nonzero;"/>
        </g>
        <g transform="matrix(1,0,0,1,596.876,305.944)">
            <path d="M0,0.939L0,3.863L0.69,3.863C1.214,3.863 1.463,3.601 1.463,3.105L1.463,1.697C1.463,1.2 1.228,0.939 0.677,0.939L0,0.939ZM0,-0.261L0.552,-0.261C1.062,-0.261 1.297,-0.523 1.297,-1.02L1.297,-2.165C1.297,-2.675 1.062,-2.923 0.538,-2.923L0,-2.923L0,-0.261ZM-1.572,-4.207L0.704,-4.207C2.276,-4.207 2.801,-3.475 2.801,-2.151L2.801,-1.199C2.801,-0.413 2.511,0.084 1.862,0.291C2.648,0.47 3.035,0.994 3.035,1.849L3.035,3.091C3.035,4.415 2.442,5.146 0.869,5.146L-1.572,5.146L-1.572,-4.207Z" style="fill:white;fill-rule:nonzero;"/>
        </g>
        <g transform="matrix(1,0,0,1,600.544,311.09)">
            <path d="M0,-9.352L1.572,-9.352L1.572,-1.282L3.448,-1.282L3.448,0L0,0L0,-9.352Z" style="fill:white;fill-rule:nonzero;"/>
        </g>
        <g transform="matrix(1,0,0,1,604.558,311.09)">
            <path d="M0,-9.352L3.752,-9.352L3.752,-8.069L1.572,-8.069L1.572,-5.393L3.132,-5.393L3.132,-4.124L1.572,-4.124L1.572,-1.282L3.752,-1.282L3.752,0L0,0L0,-9.352Z" style="fill:white;fill-rule:nonzero;"/>
        </g>
        <g transform="matrix(1,0,0,1,610.295,304.152)">
            <path d="M0,4.524L0,0C0,-1.462 0.689,-2.524 2.345,-2.524C4.083,-2.524 4.566,-1.559 4.566,-0.179L4.566,0.924L3.131,0.924L3.131,-0.303C3.131,-0.883 2.938,-1.214 2.373,-1.214C1.807,-1.214 1.572,-0.813 1.572,-0.248L1.572,4.773C1.572,5.338 1.807,5.738 2.373,5.738C2.938,5.738 3.131,5.379 3.131,4.828L3.131,3.103L4.566,3.103L4.566,4.717C4.566,6.055 4.014,7.048 2.345,7.048C0.689,7.048 0,5.972 0,4.524" style="fill:white;fill-rule:nonzero;"/>
        </g>
        <g transform="matrix(1,0,0,1,0,0.828)">
            <rect x="615.562" y="300.91" width="1.572" height="9.352" style="fill:white;"/>
        </g>
        <g transform="matrix(1,0,0,1,617.715,311.09)">
            <path d="M0,-9.352L4.179,-9.352L4.179,-8.069L2.883,-8.069L2.883,0L1.296,0L1.296,-8.069L0,-8.069L0,-9.352Z" style="fill:white;fill-rule:nonzero;"/>
        </g>
        <g transform="matrix(1,0,0,1,0,0.828)">
            <rect x="622.472" y="300.91" width="1.572" height="9.352" style="fill:white;"/>
        </g>
        <g transform="matrix(1,0,0,1,624.803,311.09)">
            <path d="M0,-9.352L3.752,-9.352L3.752,-8.069L1.572,-8.069L1.572,-5.393L3.131,-5.393L3.131,-4.124L1.572,-4.124L1.572,-1.282L3.752,-1.282L3.752,0L0,0L0,-9.352Z" style="fill:white;fill-rule:nonzero;"/>
        </g>
        <g transform="matrix(1,0,0,1,629.092,303.751)">
            <path d="M0,5.325L0,4.07L1.463,4.07L1.463,5.352C1.463,5.877 1.697,6.18 2.235,6.18C2.731,6.18 2.952,5.849 2.952,5.352L2.952,4.994C2.952,4.456 2.731,4.125 2.249,3.67L1.324,2.746C0.428,1.863 0.014,1.325 0.014,0.249L0.014,-0.068C0.014,-1.227 0.69,-2.124 2.221,-2.124C3.794,-2.124 4.414,-1.351 4.414,0.001L4.414,0.76L2.979,0.76L2.979,-0.054C2.979,-0.592 2.731,-0.854 2.235,-0.854C1.794,-0.854 1.49,-0.606 1.49,-0.082L1.49,0.111C1.49,0.635 1.779,0.939 2.235,1.38L3.242,2.373C4.098,3.242 4.511,3.766 4.511,4.801L4.511,5.256C4.511,6.539 3.821,7.449 2.221,7.449C0.621,7.449 0,6.553 0,5.325" style="fill:white;fill-rule:nonzero;"/>
        </g>
        <g transform="matrix(1,0,0,1,559.036,317.804)">
            <path d="M0,3.421L1.255,3.421L0.634,-0.331L0.62,-0.331L0,3.421ZM-1.973,6.387L-0.207,-2.966L1.586,-2.966L3.365,6.387L1.752,6.387L1.462,4.677L-0.207,4.677L-0.483,6.387L-1.973,6.387Z" style="fill:white;fill-rule:nonzero;"/>
        </g>
        <g transform="matrix(1,0,0,1,564.221,320.713)">
            <path d="M0,-2.399L0,3.477L-1.324,3.477L-1.324,-5.876L0.221,-5.876L1.918,-0.509L1.918,-5.876L3.228,-5.876L3.228,3.477L1.849,3.477L0,-2.399Z" style="fill:white;fill-rule:nonzero;"/>
        </g>
        <g transform="matrix(1,0,0,1,570.427,316.12)">
            <path d="M0,6.788C0.648,6.788 0.897,6.401 0.897,5.836L0.897,0.939C0.897,0.388 0.648,0.001 0,0.001L-0.662,0.001L-0.662,6.788L0,6.788ZM2.47,1.228L2.47,5.559C2.47,6.994 1.876,8.07 0.193,8.07L-2.234,8.07L-2.234,-1.282L0.193,-1.282C1.876,-1.282 2.47,-0.22 2.47,1.228" style="fill:white;fill-rule:nonzero;"/>
        </g>
        <g transform="matrix(1,0,0,1,574.935,317.251)">
            <path d="M0,4.525L0,0.001C0,-1.461 0.689,-2.524 2.345,-2.524C4.083,-2.524 4.566,-1.558 4.566,-0.178L4.566,0.925L3.131,0.925L3.131,-0.302C3.131,-0.882 2.938,-1.213 2.373,-1.213C1.807,-1.213 1.572,-0.813 1.572,-0.247L1.572,4.774C1.572,5.339 1.807,5.739 2.373,5.739C2.938,5.739 3.131,5.38 3.131,4.829L3.131,3.104L4.566,3.104L4.566,4.718C4.566,6.056 4.014,7.049 2.345,7.049C0.689,7.049 0,5.973 0,4.525" style="fill:white;fill-rule:nonzero;"/>
        </g>
        <g transform="matrix(1,0,0,1,583.39,317.002)">
            <path d="M0,5.023L0,0.002C0,-0.564 -0.248,-0.964 -0.813,-0.964C-1.365,-0.964 -1.614,-0.564 -1.614,0.002L-1.614,5.023C-1.614,5.588 -1.365,5.988 -0.813,5.988C-0.248,5.988 0,5.588 0,5.023M-3.187,4.774L-3.187,0.25C-3.187,-1.212 -2.469,-2.275 -0.813,-2.275C0.855,-2.275 1.572,-1.212 1.572,0.25L1.572,4.774C1.572,6.222 0.855,7.298 -0.813,7.298C-2.469,7.298 -3.187,6.222 -3.187,4.774" style="fill:white;fill-rule:nonzero;"/>
        </g>
        <g transform="matrix(1,0,0,1,590.037,320.907)">
            <path d="M0,-2.786L-0.041,-2.786L-1.104,3.283L-1.834,3.283L-3.007,-2.786L-3.034,-2.786L-3.034,3.283L-4.331,3.283L-4.331,-6.069L-2.496,-6.069L-1.476,-0.8L-1.462,-0.8L-0.552,-6.069L1.435,-6.069L1.435,3.283L0,3.283L0,-2.786Z" style="fill:white;fill-rule:nonzero;"/>
        </g>
        <g transform="matrix(1,0,0,1,596.546,320.907)">
            <path d="M0,-2.786L-0.041,-2.786L-1.104,3.283L-1.834,3.283L-3.007,-2.786L-3.034,-2.786L-3.034,3.283L-4.331,3.283L-4.331,-6.069L-2.496,-6.069L-1.476,-0.8L-1.462,-0.8L-0.552,-6.069L1.435,-6.069L1.435,3.283L0,3.283L0,-2.786Z" style="fill:white;fill-rule:nonzero;"/>
        </g>
        <g transform="matrix(1,0,0,1,603.291,324.301)">
            <path d="M0,-9.463L0,-2.386C0,-0.938 -0.621,0 -2.222,0C-3.877,0 -4.566,-0.938 -4.566,-2.386L-4.566,-9.463L-2.994,-9.463L-2.994,-2.234C-2.994,-1.683 -2.773,-1.311 -2.222,-1.311C-1.67,-1.311 -1.449,-1.683 -1.449,-2.234L-1.449,-9.463L0,-9.463Z" style="fill:white;fill-rule:nonzero;"/>
        </g>
        <g transform="matrix(1,0,0,1,605.357,320.713)">
            <path d="M0,-2.399L0,3.477L-1.324,3.477L-1.324,-5.876L0.221,-5.876L1.918,-0.509L1.918,-5.876L3.228,-5.876L3.228,3.477L1.849,3.477L0,-2.399Z" style="fill:white;fill-rule:nonzero;"/>
        </g>
        <g transform="matrix(1,0,0,1,0,27.029)">
            <rect x="609.329" y="287.809" width="1.572" height="9.353" style="fill:white;"/>
        </g>
        <g transform="matrix(1,0,0,1,611.48,324.191)">
            <path d="M0,-9.353L4.179,-9.353L4.179,-8.07L2.883,-8.07L2.883,0L1.296,0L1.296,-8.07L0,-8.07L0,-9.353Z" style="fill:white;fill-rule:nonzero;"/>
        </g>
        <g transform="matrix(1,0,0,1,0,27.029)">
            <rect x="616.238" y="287.809" width="1.572" height="9.353" style="fill:white;"/>
        </g>
        <g transform="matrix(1,0,0,1,618.568,324.191)">
            <path d="M0,-9.353L3.752,-9.353L3.752,-8.07L1.572,-8.07L1.572,-5.394L3.131,-5.394L3.131,-4.124L1.572,-4.124L1.572,-1.283L3.752,-1.283L3.752,0L0,0L0,-9.353Z" style="fill:white;fill-rule:nonzero;"/>
        </g>
        <g transform="matrix(1,0,0,1,622.858,316.852)">
            <path d="M0,5.325L0,4.07L1.463,4.07L1.463,5.352C1.463,5.877 1.697,6.18 2.235,6.18C2.731,6.18 2.952,5.849 2.952,5.352L2.952,4.994C2.952,4.456 2.731,4.125 2.249,3.67L1.324,2.746C0.428,1.863 0.015,1.325 0.015,0.249L0.015,-0.069C0.015,-1.227 0.69,-2.124 2.222,-2.124C3.794,-2.124 4.414,-1.352 4.414,0.001L4.414,0.76L2.979,0.76L2.979,-0.055C2.979,-0.593 2.731,-0.855 2.235,-0.855C1.794,-0.855 1.49,-0.607 1.49,-0.082L1.49,0.111C1.49,0.635 1.78,0.938 2.235,1.38L3.242,2.373C4.097,3.242 4.511,3.766 4.511,4.801L4.511,5.256C4.511,6.539 3.821,7.449 2.222,7.449C0.621,7.449 0,6.553 0,5.325" style="fill:white;fill-rule:nonzero;"/>
        </g>
    </g>
</svg>
