<?xml version="1.0" encoding="UTF-8" standalone="no"?>
<!DOCTYPE svg PUBLIC "-//W3C//DTD SVG 1.1//EN" "http://www.w3.org/Graphics/SVG/1.1/DTD/svg11.dtd">
<svg width="100%" height="100%" viewBox="0 0 463 463" version="1.1" xmlns="http://www.w3.org/2000/svg" xmlns:xlink="http://www.w3.org/1999/xlink" xml:space="preserve" xmlns:serif="http://www.serif.com/" style="fill-rule:evenodd;clip-rule:evenodd;stroke-linecap:round;stroke-miterlimit:10;">
    <g transform="matrix(4.16667,0,0,4.16667,-144.092,-716.583)">
        <g transform="matrix(-1,0,0,1,180.124,-157.076)">
            <rect x="34.582" y="329.056" width="110.96" height="110.964" style="fill:rgb(235,28,44);"/>
        </g>
        <g transform="matrix(0,1,1,0,123.106,221.849)">
            <path d="M3.071,-3.07C1.373,-3.07 -0.002,-1.693 -0.002,0.004C-0.002,1.698 1.373,3.071 3.071,3.071C4.767,3.071 6.143,1.698 6.143,0.004C6.143,-1.693 4.767,-3.07 3.071,-3.07" style="fill:white;fill-rule:nonzero;"/>
        </g>
        <g transform="matrix(1,0,0,1,126.695,258.026)">
            <path d="M0,-28.85C2.084,-28.662 3.718,-26.908 3.718,-24.77L3.718,-16.255C3.718,-15.6 3.185,-15.065 2.529,-15.065C1.868,-15.065 1.337,-15.6 1.337,-16.255L1.337,-23.568C1.337,-23.843 1.257,-24.214 0.756,-24.214C0.409,-24.214 0.337,-23.847 0.324,-23.613L0.324,-1.692C0.324,-0.75 -0.439,0.019 -1.386,0.019C-2.333,0.019 -3.1,-0.75 -3.1,-1.692L-3.1,-14.324C-3.104,-14.463 -3.151,-14.826 -3.585,-14.826L-3.587,-14.826C-4.024,-14.826 -4.077,-14.463 -4.082,-14.324L-4.082,-1.692C-4.082,-0.75 -4.844,0.019 -5.791,0.019C-6.74,0.019 -7.502,-0.75 -7.502,-1.692L-7.502,-23.613C-7.514,-23.847 -7.588,-24.214 -7.933,-24.214C-8.437,-24.214 -8.513,-23.843 -8.513,-23.568L-8.513,-16.255C-8.513,-15.6 -9.047,-15.065 -9.705,-15.065C-10.364,-15.065 -10.894,-15.6 -10.894,-16.255L-10.894,-23.303L-10.894,-23.749L-10.894,-24.77C-10.894,-26.908 -9.259,-28.662 -7.172,-28.85C-7.104,-28.859 -7.029,-28.869 -6.947,-28.869L-0.233,-28.869C-0.146,-28.869 -0.073,-28.859 0,-28.85" style="fill:white;fill-rule:nonzero;"/>
        </g>
        <g transform="matrix(0,-1,-1,0,98.8616,223.623)">
            <path d="M-2.91,-2.907C-1.303,-2.907 0.002,-1.608 0.002,-0.001C0.002,1.608 -1.303,2.91 -2.91,2.91C-4.517,2.91 -5.819,1.608 -5.819,-0.001C-5.819,-1.608 -4.517,-2.907 -2.91,-2.907" style="fill:white;fill-rule:nonzero;"/>
        </g>
        <g transform="matrix(1,0,0,1,93.0005,255.802)">
            <path d="M0,-22.68L-2.418,-14.808C-2.418,-14.808 -2.849,-13.365 -1.625,-13.005C-0.407,-12.644 -0.037,-14.053 -0.037,-14.053L1.913,-20.622C1.913,-20.622 2.019,-21.128 2.398,-21.018C2.779,-20.91 2.636,-20.369 2.636,-20.369L-0.757,-8.057L2.398,-8.057L2.398,0.761C2.398,1.595 3.078,2.275 3.916,2.275C4.752,2.275 5.429,1.595 5.429,0.761L5.429,-8.057L6.29,-8.057L6.29,0.761C6.29,1.595 6.965,2.275 7.804,2.275C8.644,2.275 9.322,1.595 9.322,0.761L9.322,-8.057L12.477,-8.057L9.086,-20.369C9.086,-20.369 8.943,-20.91 9.322,-21.018C9.703,-21.128 9.808,-20.622 9.808,-20.622L11.758,-14.053C11.758,-14.053 12.128,-12.644 13.345,-13.005C14.572,-13.365 14.139,-14.808 14.139,-14.808L11.721,-22.68C11.721,-22.68 10.856,-24.955 8.943,-24.955L5.862,-24.955L2.779,-24.955C0.866,-24.955 0,-22.68 0,-22.68" style="fill:white;fill-rule:nonzero;"/>
        </g>
        <g transform="matrix(0,-1,-1,0,81.4397,223.624)">
            <path d="M-2.91,-2.907C-1.303,-2.907 0.002,-1.606 0.002,0.001C0.002,1.61 -1.303,2.91 -2.91,2.91C-4.517,2.91 -5.819,1.61 -5.819,0.001C-5.819,-1.606 -4.517,-2.907 -2.91,-2.907" style="fill:white;fill-rule:nonzero;"/>
        </g>
        <g transform="matrix(1,0,0,1,75.5771,255.802)">
            <path d="M0,-22.68L-2.417,-14.808C-2.417,-14.808 -2.849,-13.365 -1.624,-13.005C-0.407,-12.644 -0.037,-14.053 -0.037,-14.053L1.913,-20.622C1.913,-20.622 2.019,-21.128 2.398,-21.018C2.78,-20.91 2.635,-20.369 2.635,-20.369L-0.757,-8.057L2.398,-8.057L2.398,0.761C2.398,1.595 3.08,2.275 3.916,2.275C4.753,2.275 5.43,1.595 5.43,0.761L5.43,-8.057L6.292,-8.057L6.292,0.761C6.292,1.595 6.965,2.275 7.806,2.275C8.646,2.275 9.322,1.595 9.322,0.761L9.322,-8.057L12.478,-8.057L9.088,-20.369C9.088,-20.369 8.944,-20.91 9.322,-21.018C9.702,-21.128 9.809,-20.622 9.809,-20.622L11.757,-14.053C11.757,-14.053 12.128,-12.644 13.345,-13.005C14.571,-13.365 14.138,-14.808 14.138,-14.808L11.72,-22.68C11.72,-22.68 10.858,-24.955 8.944,-24.955L5.864,-24.955L2.78,-24.955C0.867,-24.955 0,-22.68 0,-22.68" style="fill:white;fill-rule:nonzero;"/>
        </g>
        <g transform="matrix(1,0,0,1,111.538,237.971)">
            <path d="M0,4.843C1.339,4.843 2.42,3.759 2.42,2.42C2.42,1.081 1.339,0 0,0C-1.339,0 -2.421,1.081 -2.421,2.42C-2.421,3.759 -1.339,4.843 0,4.843" style="fill:white;fill-rule:nonzero;"/>
        </g>
        <g transform="matrix(1,0,0,1,105.732,251.487)">
            <path d="M0,-1.152C-0.119,-0.869 -0.215,-0.268 0.353,-0.006C1.02,0.3 1.391,-0.344 1.391,-0.344L2.707,-4.542C2.707,-4.542 2.935,-4.823 2.935,-4.532L2.935,5.349L2.941,5.349C2.941,6.037 3.495,6.591 4.184,6.591C4.871,6.591 5.425,6.037 5.425,5.349L5.425,1.45C5.425,1.45 5.354,0.898 5.798,0.898C6.242,0.898 6.173,1.45 6.173,1.45L6.173,5.349C6.173,6.037 6.731,6.591 7.418,6.591C8.104,6.591 8.663,6.037 8.663,5.349L8.663,-4.532C8.663,-4.823 8.816,-4.615 8.816,-4.615L9.848,-1.741C9.848,-1.741 10.296,-0.457 10.434,-0.4C10.899,-0.205 11.437,-0.427 11.634,-0.897C11.762,-1.203 11.713,-1.532 11.536,-1.78L11.544,-1.789C11.515,-1.882 10.002,-5.59 9.824,-6.111C9.278,-7.705 8.284,-7.692 7.328,-7.718C6.37,-7.74 5.798,-7.718 5.798,-7.718C5.798,-7.718 5.187,-7.743 3.922,-7.705C2.661,-7.666 2.263,-7.019 0.871,-3.438C0.672,-2.923 0,-1.254 -0.009,-1.154L0,-1.152Z" style="fill:white;fill-rule:nonzero;"/>
        </g>
        <g transform="matrix(0,-1,-1,0,55.2972,221.848)">
            <path d="M-3.072,-3.071C-1.374,-3.071 0.001,-1.693 0.001,0.004C0.001,1.699 -1.374,3.072 -3.072,3.072C-4.768,3.072 -6.144,1.699 -6.144,0.004C-6.144,-1.693 -4.768,-3.071 -3.072,-3.071" style="fill:white;fill-rule:nonzero;"/>
        </g>
        <g transform="matrix(1,0,0,1,51.707,258.026)">
            <path d="M0,-28.85C-2.083,-28.662 -3.719,-26.908 -3.719,-24.77L-3.719,-16.255C-3.719,-15.6 -3.185,-15.065 -2.527,-15.065C-1.869,-15.065 -1.336,-15.6 -1.336,-16.255L-1.336,-23.568C-1.336,-23.843 -1.257,-24.214 -0.755,-24.214C-0.409,-24.214 -0.337,-23.847 -0.322,-23.613L-0.322,-1.692C-0.322,-0.75 0.44,0.019 1.387,0.019C2.333,0.019 3.098,-0.75 3.098,-1.692L3.098,-14.324C3.105,-14.463 3.151,-14.826 3.586,-14.826L3.587,-14.826C4.024,-14.826 4.077,-14.463 4.081,-14.324L4.081,-1.692C4.081,-0.75 4.845,0.019 5.791,0.019C6.739,0.019 7.502,-0.75 7.502,-1.692L7.502,-23.613C7.512,-23.847 7.59,-24.214 7.934,-24.214C8.438,-24.214 8.513,-23.843 8.513,-23.568L8.513,-16.255C8.513,-15.6 9.047,-15.065 9.705,-15.065C10.363,-15.065 10.895,-15.6 10.895,-16.255L10.895,-23.303L10.895,-23.749L10.895,-24.77C10.895,-26.908 9.261,-28.662 7.173,-28.85C7.104,-28.859 7.031,-28.869 6.948,-28.869L3.586,-28.869L0.234,-28.869C0.146,-28.869 0.073,-28.859 0,-28.85" style="fill:white;fill-rule:nonzero;"/>
        </g>
        <g transform="matrix(-0.1854,0.982663,0.982663,0.1854,54.5156,252.919)">
            <path d="M-8.721,-7.23L5.993,-7.23" style="fill:none;fill-rule:nonzero;stroke:white;stroke-width:1.31px;"/>
        </g>
        <g transform="matrix(1,0,0,1,64.0605,257.663)">
            <path d="M0,-16.118C-0.159,-16.367 -0.432,-16.532 -0.748,-16.532C-1.233,-16.532 -1.629,-16.136 -1.629,-15.652C-1.629,-15.511 -1.543,-15.264 -1.543,-15.264L0.897,-10.847C0.897,-10.847 1.047,-10.543 1.047,-10.265L1.047,-0.78L1.052,-0.78C1.052,-0.118 1.586,0.414 2.246,0.414C2.904,0.414 3.436,-0.118 3.436,-0.78L3.436,-4.523C3.436,-4.523 3.368,-5.053 3.796,-5.053C4.222,-5.053 4.155,-4.523 4.155,-4.523L4.155,-0.78C4.155,-0.118 4.691,0.414 5.35,0.414C6.008,0.414 6.545,-0.118 6.545,-0.78L6.545,-10.265C6.545,-10.543 6.692,-10.847 6.692,-10.847L8.949,-14.925C8.949,-14.925 9.225,-15.511 9.225,-15.652C9.225,-16.136 8.831,-16.532 8.342,-16.532C8.023,-16.532 7.75,-16.367 7.596,-16.118L7.585,-16.123C7.515,-16.062 6.385,-14.05 6.012,-13.677C5.617,-13.28 5.264,-13.324 5.264,-13.324L3.796,-13.324L2.331,-13.324C2.331,-13.324 1.975,-13.28 1.583,-13.677C1.205,-14.05 0.08,-16.062 0.007,-16.123L0,-16.118Z" style="fill:white;fill-rule:nonzero;"/>
        </g>
        <g transform="matrix(1,0,0,1,67.8564,237.971)">
            <path d="M0,4.843C1.339,4.843 2.42,3.759 2.42,2.42C2.42,1.081 1.339,0 0,0C-1.339,0 -2.42,1.081 -2.42,2.42C-2.42,3.759 -1.339,4.843 0,4.843" style="fill:white;fill-rule:nonzero;"/>
        </g>
        <g transform="matrix(1,0,0,1,67.8604,252.996)">
            <path d="M0,-6.784L2.737,-4.788L4.037,0L0,0L-4.04,0L-2.736,-4.788L0,-6.784Z" style="fill:white;fill-rule:nonzero;"/>
        </g>
        <g transform="matrix(1,0,0,1,50.0742,198.453)">
            <path d="M0,-11.879L0.033,-11.879L0.033,5.247L3.793,5.247L3.793,-17.126L0.791,-17.126L-2.673,-13.067L-2.673,-9.141L-2.641,-9.141L0,-11.879Z" style="fill:white;fill-rule:nonzero;"/>
        </g>
        <g transform="matrix(1,0,0,1,67.6499,187.412)">
            <path d="M0,-2.399L0,3.477L-1.324,3.477L-1.324,-5.876L0.221,-5.876L1.917,-0.509L1.917,-5.876L3.228,-5.876L3.228,3.477L1.849,3.477L0,-2.399Z" style="fill:white;fill-rule:nonzero;"/>
        </g>
        <g transform="matrix(1,0,0,1,74.9595,183.703)">
            <path d="M0,5.021L0,0C0,-0.565 -0.249,-0.966 -0.814,-0.966C-1.366,-0.966 -1.614,-0.565 -1.614,0L-1.614,5.021C-1.614,5.587 -1.366,5.987 -0.814,5.987C-0.249,5.987 0,5.587 0,5.021M-3.187,4.772L-3.187,0.248C-3.187,-1.213 -2.469,-2.276 -0.814,-2.276C0.855,-2.276 1.573,-1.213 1.573,0.248L1.573,4.772C1.573,6.221 0.855,7.297 -0.814,7.297C-2.469,7.297 -3.187,6.221 -3.187,4.772" style="fill:white;fill-rule:nonzero;"/>
        </g>
        <g transform="matrix(1,0,0,1,67.8984,202.706)">
            <path d="M0,-6.786L0,-3.103L0.579,-3.103C1.117,-3.103 1.352,-3.365 1.352,-3.875L1.352,-6.027C1.352,-6.537 1.117,-6.786 0.579,-6.786L0,-6.786ZM-1.573,-8.069L0.759,-8.069C2.345,-8.069 2.924,-7.283 2.924,-5.973L2.924,-4C2.924,-2.689 2.345,-1.89 0.759,-1.89L0,-1.89L0,1.283L-1.573,1.283L-1.573,-8.069Z" style="fill:white;fill-rule:nonzero;"/>
        </g>
        <g transform="matrix(1,0,0,1,74.8218,196.803)">
            <path d="M0,5.021L0,0C0,-0.565 -0.249,-0.966 -0.814,-0.966C-1.366,-0.966 -1.614,-0.565 -1.614,0L-1.614,5.021C-1.614,5.586 -1.366,5.986 -0.814,5.986C-0.249,5.986 0,5.586 0,5.021M-3.187,4.772L-3.187,0.249C-3.187,-1.213 -2.469,-2.276 -0.814,-2.276C0.855,-2.276 1.573,-1.213 1.573,0.249L1.573,4.772C1.573,6.221 0.855,7.297 -0.814,7.297C-2.469,7.297 -3.187,6.221 -3.187,4.772" style="fill:white;fill-rule:nonzero;"/>
        </g>
        <g transform="matrix(1,0,0,1,82.0479,203.99)">
            <path d="M0,-9.353L-1.779,0L-3.49,0L-5.269,-9.353L-3.669,-9.353L-2.593,-2.828L-2.579,-2.828L-1.476,-9.353L0,-9.353Z" style="fill:white;fill-rule:nonzero;"/>
        </g>
        <g transform="matrix(1,0,0,1,82.6948,203.99)">
            <path d="M0,-9.353L3.752,-9.353L3.752,-8.07L1.573,-8.07L1.573,-5.394L3.131,-5.394L3.131,-4.125L1.573,-4.125L1.573,-1.283L3.752,-1.283L3.752,0L0,0L0,-9.353Z" style="fill:white;fill-rule:nonzero;"/>
        </g>
        <g transform="matrix(1,0,0,1,88.8599,202.706)">
            <path d="M0,-6.786L0,-3.875L0.524,-3.875C1.062,-3.875 1.296,-4.151 1.296,-4.648L1.296,-6.027C1.296,-6.537 1.062,-6.786 0.524,-6.786L0,-6.786ZM0,-3.007L0,1.283L-1.573,1.283L-1.573,-8.069L0.717,-8.069C2.303,-8.069 2.883,-7.283 2.883,-5.973L2.883,-4.772C2.883,-3.765 2.524,-3.172 1.627,-2.965L3.131,1.283L1.476,1.283L0,-3.007Z" style="fill:white;fill-rule:nonzero;"/>
        </g>
        <g transform="matrix(1,0,0,1,92.2793,203.99)">
            <path d="M0,-9.353L4.18,-9.353L4.18,-8.07L2.883,-8.07L2.883,0L1.297,0L1.297,-8.07L0,-8.07L0,-9.353Z" style="fill:white;fill-rule:nonzero;"/>
        </g>
        <g transform="matrix(1,0,0,1,100.251,198.196)">
            <path d="M0,2.236L0,5.794L-1.573,5.794L-1.573,2.236L-3.324,-3.558L-1.683,-3.558L-0.731,-0.013L-0.717,-0.013L0.234,-3.558L1.738,-3.558L0,2.236Z" style="fill:white;fill-rule:nonzero;"/>
        </g>
    </g>
</svg>
