<?xml version="1.0" encoding="UTF-8" standalone="no"?>
<!DOCTYPE svg PUBLIC "-//W3C//DTD SVG 1.1//EN" "http://www.w3.org/Graphics/SVG/1.1/DTD/svg11.dtd">
<svg width="100%" height="100%" viewBox="0 0 463 463" version="1.1" xmlns="http://www.w3.org/2000/svg" xmlns:xlink="http://www.w3.org/1999/xlink" xml:space="preserve" xmlns:serif="http://www.serif.com/" style="fill-rule:evenodd;clip-rule:evenodd;stroke-linejoin:round;stroke-miterlimit:2;">
    <g transform="matrix(4.16667,0,0,4.16667,-656.479,-716.583)">
        <g transform="matrix(-1,0,0,1,426.07,-157.076)">
            <rect x="157.555" y="329.056" width="110.96" height="110.964" style="fill:rgb(210,160,42);"/>
        </g>
        <g transform="matrix(1,0,0,1,201.847,245.619)">
            <path d="M0,20.649L0,22.209C-0.001,22.22 -0.005,22.232 -0.005,22.244C-0.005,22.257 -0.001,22.27 0,22.281C0.017,22.667 0.332,22.975 0.72,22.982C0.725,22.982 0.729,22.985 0.734,22.985C0.739,22.985 0.746,22.982 0.752,22.982L19.056,22.982C19.061,22.982 19.066,22.985 19.071,22.985C19.077,22.985 19.082,22.982 19.087,22.982C19.487,22.975 19.807,22.649 19.809,22.25C19.809,22.248 19.812,22.247 19.812,22.244C19.812,22.244 19.809,22.241 19.809,22.239L19.809,20.473C30.113,17.095 37.832,8.744 39.529,-1.433C39.534,-1.455 39.536,-1.475 39.54,-1.494C39.545,-1.529 39.55,-1.561 39.55,-1.596C39.55,-2.005 39.22,-2.336 38.81,-2.336L-19.177,-2.336L-19.526,-2.336C-19.937,-2.336 -20.268,-2.005 -20.268,-1.596L-20.229,-1.263C-18.447,9.011 -10.516,17.409 0,20.649" style="fill:white;fill-rule:nonzero;"/>
        </g>
        <g transform="matrix(1,0,0,1,221.64,239.886)">
            <path d="M0,-21.501C-0.241,-21.159 -5.876,-13.044 0.126,-6.483C2.878,-3.472 2.64,-0.815 1.854,0.979L5.704,0.979C6.484,-1.67 6.162,-4.993 3.036,-8.408C-1.387,-13.243 3.093,-19.778 3.16,-19.879C3.688,-20.625 3.405,-21.585 2.535,-22.034C1.662,-22.48 0.53,-22.241 0,-21.501" style="fill:white;fill-rule:nonzero;"/>
        </g>
        <g transform="matrix(1,0,0,1,211.889,217.407)">
            <path d="M0,23.458L3.852,23.458C4.63,20.808 4.307,17.486 1.181,14.07C-3.243,9.234 1.233,2.703 1.304,2.596C1.829,1.854 1.551,0.894 0.677,0.444C-0.193,0 -1.327,0.236 -1.854,0.978C-2.096,1.318 -7.737,9.434 -1.729,15.995C1.023,19.007 0.784,21.665 0,23.458" style="fill:white;fill-rule:nonzero;"/>
        </g>
        <g transform="matrix(1,0,0,1,198.427,239.884)">
            <path d="M0,-21.499C-0.244,-21.157 -5.88,-13.042 0.124,-6.481C2.878,-3.469 2.64,-0.812 1.855,0.981L5.706,0.981C6.484,-1.667 6.163,-4.99 3.034,-8.406C-1.39,-13.241 3.089,-19.776 3.16,-19.88C3.683,-20.623 3.404,-21.583 2.531,-22.032C1.661,-22.48 0.528,-22.241 0,-21.499" style="fill:white;fill-rule:nonzero;"/>
        </g>
        <g transform="matrix(1,0,0,1,178.894,184.084)">
            <path d="M0,16.499L-6.17,16.499L-6.17,15.443C-6.17,13.695 -5.543,13.034 -4.587,12.012L-2.179,9.471C-0.232,7.392 0.197,6.073 0.197,3.828L0.197,1.65C0.197,-1.55 -1.354,-3.069 -4.719,-3.069C-8.019,-3.069 -9.702,-1.32 -9.702,1.815L-9.702,4.52L-6.27,4.52L-6.27,1.715C-6.27,0.364 -5.61,-0.034 -4.817,-0.034C-4.092,-0.034 -3.465,0.264 -3.465,1.65L-3.465,3.498C-3.465,5.347 -3.631,6.073 -4.851,7.359L-6.964,9.603C-9.008,11.781 -9.768,13.233 -9.768,15.443L-9.768,19.568L0,19.568L0,16.499Z" style="fill:white;fill-rule:nonzero;"/>
        </g>
        <g transform="matrix(1,0,0,1,191.36,182.819)">
            <path d="M0,6.787L2.386,6.787L2.386,8.07L-1.642,8.07L-1.642,6.787L0.827,0L-1.394,0L-1.394,-1.283L2.483,-1.283L2.483,0L0,6.787Z" style="fill:white;fill-rule:nonzero;"/>
        </g>
        <g transform="matrix(1,0,0,1,194.669,190.89)">
            <path d="M0,-9.353L3.752,-9.353L3.752,-8.07L1.573,-8.07L1.573,-5.394L3.132,-5.394L3.132,-4.125L1.573,-4.125L1.573,-1.283L3.752,-1.283L3.752,0L0,0L0,-9.353Z" style="fill:white;fill-rule:nonzero;"/>
        </g>
        <g transform="matrix(1,0,0,1,200.834,189.607)">
            <path d="M0,-6.787L0,-3.877L0.523,-3.877C1.062,-3.877 1.296,-4.152 1.296,-4.649L1.296,-6.028C1.296,-6.538 1.062,-6.787 0.523,-6.787L0,-6.787ZM0,-3.008L0,1.283L-1.573,1.283L-1.573,-8.07L0.717,-8.07C2.303,-8.07 2.882,-7.284 2.882,-5.974L2.882,-4.773C2.882,-3.766 2.523,-3.173 1.627,-2.966L3.131,1.283L1.476,1.283L0,-3.008Z" style="fill:white;fill-rule:nonzero;"/>
        </g>
        <g transform="matrix(1,0,0,1,207.757,183.703)">
            <path d="M0,5.021L0,0C0,-0.565 -0.248,-0.966 -0.813,-0.966C-1.366,-0.966 -1.613,-0.565 -1.613,0L-1.613,5.021C-1.613,5.587 -1.366,5.987 -0.813,5.987C-0.248,5.987 0,5.587 0,5.021M-3.187,4.772L-3.187,0.248C-3.187,-1.213 -2.469,-2.276 -0.813,-2.276C0.855,-2.276 1.572,-1.213 1.572,0.248L1.572,4.772C1.572,6.221 0.855,7.297 -0.813,7.297C-2.469,7.297 -3.187,6.221 -3.187,4.772" style="fill:white;fill-rule:nonzero;"/>
        </g>
        <g transform="matrix(1,0,0,1,192.919,198.762)">
            <path d="M0,1.103L-1.517,1.103L-1.517,5.228L-3.09,5.228L-3.09,-4.125L-1.517,-4.125L-1.517,-0.166L0,-0.166L0,-4.125L1.586,-4.125L1.586,5.228L0,5.228L0,1.103Z" style="fill:white;fill-rule:nonzero;"/>
        </g>
        <g transform="matrix(1,0,0,1,199.966,204.1)">
            <path d="M0,-9.463L0,-2.386C0,-0.938 -0.621,0 -2.221,0C-3.876,0 -4.566,-0.938 -4.566,-2.386L-4.566,-9.463L-2.993,-9.463L-2.993,-2.234C-2.993,-1.683 -2.772,-1.311 -2.221,-1.311C-1.668,-1.311 -1.448,-1.683 -1.448,-2.234L-1.448,-9.463L0,-9.463Z" style="fill:white;fill-rule:nonzero;"/>
        </g>
        <g transform="matrix(1,0,0,1,202.185,200.512)">
            <path d="M0,-2.398L0,3.477L-1.324,3.477L-1.324,-5.875L0.221,-5.875L1.917,-0.509L1.917,-5.875L3.228,-5.875L3.228,3.477L1.848,3.477L0,-2.398Z" style="fill:white;fill-rule:nonzero;"/>
        </g>
        <g transform="matrix(1,0,0,1,208.681,199.632)">
            <path d="M0,-0.635L2.234,-0.635L2.234,4.358L1.103,4.358L1.103,3.338C0.896,4.041 0.455,4.469 -0.4,4.469C-1.752,4.469 -2.373,3.392 -2.373,1.944L-2.373,-2.58C-2.373,-4.042 -1.669,-5.104 -0.014,-5.104C1.725,-5.104 2.234,-4.139 2.234,-2.759L2.234,-1.932L0.8,-1.932L0.8,-2.884C0.8,-3.463 0.58,-3.794 0.014,-3.794C-0.552,-3.794 -0.8,-3.394 -0.8,-2.828L-0.8,2.193C-0.8,2.758 -0.566,3.158 -0.028,3.158C0.483,3.158 0.745,2.868 0.745,2.262L0.745,0.606L0,0.606L0,-0.635Z" style="fill:white;fill-rule:nonzero;"/>
        </g>
        <g transform="matrix(1,0,0,1,211.81,203.99)">
            <path d="M0,-9.353L3.751,-9.353L3.751,-8.07L1.572,-8.07L1.572,-5.394L3.131,-5.394L3.131,-4.125L1.572,-4.125L1.572,-1.283L3.751,-1.283L3.751,0L0,0L0,-9.353Z" style="fill:white;fill-rule:nonzero;"/>
        </g>
        <g transform="matrix(1,0,0,1,217.975,202.706)">
            <path d="M0,-6.786L0,-3.875L0.524,-3.875C1.062,-3.875 1.296,-4.151 1.296,-4.648L1.296,-6.027C1.296,-6.537 1.062,-6.786 0.524,-6.786L0,-6.786ZM0,-3.007L0,1.283L-1.572,1.283L-1.572,-8.069L0.717,-8.069C2.303,-8.069 2.883,-7.283 2.883,-5.973L2.883,-4.772C2.883,-3.765 2.524,-3.172 1.628,-2.965L3.132,1.283L1.477,1.283L0,-3.007Z" style="fill:white;fill-rule:nonzero;"/>
        </g>
    </g>
</svg>
