<?xml version="1.0" encoding="UTF-8" standalone="no"?>
<!DOCTYPE svg PUBLIC "-//W3C//DTD SVG 1.1//EN" "http://www.w3.org/Graphics/SVG/1.1/DTD/svg11.dtd">
<svg width="100%" height="100%" viewBox="0 0 463 463" version="1.1" xmlns="http://www.w3.org/2000/svg" xmlns:xlink="http://www.w3.org/1999/xlink" xml:space="preserve" xmlns:serif="http://www.serif.com/" style="fill-rule:evenodd;clip-rule:evenodd;stroke-linejoin:round;stroke-miterlimit:2;">
    <g transform="matrix(4.16667,0,0,4.16667,-1681.49,-1218.4)">
        <g transform="matrix(-1,0,0,1,918.075,83.797)">
            <rect x="403.558" y="208.62" width="110.959" height="110.963" style="fill:rgb(224,21,131);"/>
        </g>
        <g transform="matrix(1,0,0,1,414.222,318.848)">
            <path d="M0,-11.892L0,5.252L3.766,5.252L3.766,-17.144L0.759,-17.144L-2.709,-13.081L-2.709,-9.15L-2.677,-9.15L-0.034,-11.892L0,-11.892Z" style="fill:white;fill-rule:nonzero;"/>
        </g>
        <g transform="matrix(1,0,0,1,424.361,306.89)">
            <path d="M0,12.024L0,0C0,-1.354 0.495,-2.312 1.784,-2.312C3.105,-2.312 3.6,-1.354 3.6,0L3.6,12.024C3.6,13.379 3.105,14.335 1.784,14.335C0.495,14.335 0,13.379 0,12.024M7.366,11.429L7.366,0.594C7.366,-2.908 5.616,-5.45 1.784,-5.45C-2.014,-5.45 -3.767,-2.908 -3.767,0.594L-3.767,11.429C-3.767,14.897 -2.014,17.474 1.784,17.474C5.616,17.474 7.366,14.897 7.366,11.429" style="fill:white;fill-rule:nonzero;"/>
        </g>
        <g transform="matrix(1,0,0,1,440.917,309.807)">
            <path d="M0,-6.786L0,-3.876L0.524,-3.876C1.062,-3.876 1.297,-4.151 1.297,-4.648L1.297,-6.027C1.297,-6.538 1.062,-6.786 0.524,-6.786L0,-6.786ZM0,-3.007L0,1.283L-1.572,1.283L-1.572,-8.069L0.718,-8.069C2.304,-8.069 2.884,-7.283 2.884,-5.973L2.884,-4.772C2.884,-3.765 2.524,-3.172 1.628,-2.965L3.132,1.283L1.477,1.283L0,-3.007Z" style="fill:white;fill-rule:nonzero;"/>
        </g>
        <g transform="matrix(1,0,0,1,444.654,311.09)">
            <path d="M0,-9.352L3.752,-9.352L3.752,-8.069L1.572,-8.069L1.572,-5.393L3.131,-5.393L3.131,-4.124L1.572,-4.124L1.572,-1.282L3.752,-1.282L3.752,0L0,0L0,-9.352Z" style="fill:white;fill-rule:nonzero;"/>
        </g>
        <g transform="matrix(1,0,0,1,451.481,303.02)">
            <path d="M0,6.788C0.648,6.788 0.897,6.401 0.897,5.836L0.897,0.939C0.897,0.388 0.648,0.001 0,0.001L-0.662,0.001L-0.662,6.788L0,6.788ZM2.47,1.229L2.47,5.559C2.47,6.994 1.876,8.07 0.193,8.07L-2.234,8.07L-2.234,-1.282L0.193,-1.282C1.876,-1.282 2.47,-0.219 2.47,1.229" style="fill:white;fill-rule:nonzero;"/>
        </g>
        <g transform="matrix(1,0,0,1,459.41,311.2)">
            <path d="M0,-9.462L0,-2.385C0,-0.937 -0.62,0 -2.221,0C-3.876,0 -4.565,-0.937 -4.565,-2.385L-4.565,-9.462L-2.993,-9.462L-2.993,-2.234C-2.993,-1.682 -2.772,-1.31 -2.221,-1.31C-1.669,-1.31 -1.448,-1.682 -1.448,-2.234L-1.448,-9.462L0,-9.462Z" style="fill:white;fill-rule:nonzero;"/>
        </g>
        <g transform="matrix(1,0,0,1,460.306,304.152)">
            <path d="M0,4.524L0,0C0,-1.462 0.689,-2.524 2.345,-2.524C4.083,-2.524 4.565,-1.559 4.565,-0.179L4.565,0.924L3.132,0.924L3.132,-0.303C3.132,-0.883 2.938,-1.214 2.373,-1.214C1.808,-1.214 1.572,-0.813 1.572,-0.248L1.572,4.773C1.572,5.338 1.808,5.738 2.373,5.738C2.938,5.738 3.132,5.379 3.132,4.828L3.132,3.103L4.565,3.103L4.565,4.717C4.565,6.055 4.015,7.048 2.345,7.048C0.689,7.048 0,5.972 0,4.524" style="fill:white;fill-rule:nonzero;"/>
        </g>
        <g transform="matrix(1,0,0,1,465.726,311.09)">
            <path d="M0,-9.352L3.752,-9.352L3.752,-8.069L1.572,-8.069L1.572,-5.393L3.132,-5.393L3.132,-4.124L1.572,-4.124L1.572,-1.282L3.752,-1.282L3.752,0L0,0L0,-9.352Z" style="fill:white;fill-rule:nonzero;"/>
        </g>
        <g transform="matrix(1,0,0,1,472.553,303.02)">
            <path d="M0,6.788C0.648,6.788 0.896,6.401 0.896,5.836L0.896,0.939C0.896,0.388 0.648,0.001 0,0.001L-0.662,0.001L-0.662,6.788L0,6.788ZM2.47,1.229L2.47,5.559C2.47,6.994 1.876,8.07 0.193,8.07L-2.234,8.07L-2.234,-1.282L0.193,-1.282C1.876,-1.282 2.47,-0.219 2.47,1.229" style="fill:white;fill-rule:nonzero;"/>
        </g>
        <g transform="matrix(1,0,0,1,0,27.029)">
            <rect x="439.345" y="287.809" width="1.572" height="9.353" style="fill:white;"/>
        </g>
        <g transform="matrix(1,0,0,1,443.151,320.713)">
            <path d="M0,-2.399L0,3.477L-1.324,3.477L-1.324,-5.876L0.221,-5.876L1.917,-0.509L1.917,-5.876L3.228,-5.876L3.228,3.477L1.849,3.477L0,-2.399Z" style="fill:white;fill-rule:nonzero;"/>
        </g>
        <g transform="matrix(1,0,0,1,447.274,324.191)">
            <path d="M0,-9.353L3.752,-9.353L3.752,-8.07L1.572,-8.07L1.572,-5.394L3.132,-5.394L3.132,-4.124L1.572,-4.124L1.572,-1.283L3.752,-1.283L3.752,0L0,0L0,-9.353Z" style="fill:white;fill-rule:nonzero;"/>
        </g>
        <g transform="matrix(1,0,0,1,454.915,317.997)">
            <path d="M0,4.11L0,-0.994C0,-1.559 -0.248,-1.959 -0.813,-1.959C-1.365,-1.959 -1.614,-1.559 -1.614,-0.994L-1.614,4.11C-1.614,4.662 -1.365,5.076 -0.813,5.076C-0.248,5.076 0,4.662 0,4.11M-1.394,6.828L-1.394,6.193C-2.648,5.972 -3.187,5.048 -3.187,3.779L-3.187,-0.745C-3.187,-2.207 -2.469,-3.27 -0.813,-3.27C0.855,-3.27 1.572,-2.207 1.572,-0.745L1.572,3.779C1.572,4.8 1.214,5.6 0.414,5.986L1.572,6.207L1.572,7.38L-1.394,6.828Z" style="fill:white;fill-rule:nonzero;"/>
        </g>
        <g transform="matrix(1,0,0,1,461.949,324.301)">
            <path d="M0,-9.463L0,-2.386C0,-0.938 -0.621,0 -2.222,0C-3.877,0 -4.566,-0.938 -4.566,-2.386L-4.566,-9.463L-2.994,-9.463L-2.994,-2.234C-2.994,-1.683 -2.773,-1.311 -2.222,-1.311C-1.67,-1.311 -1.449,-1.683 -1.449,-2.234L-1.449,-9.463L0,-9.463Z" style="fill:white;fill-rule:nonzero;"/>
        </g>
        <g transform="matrix(1,0,0,1,464.361,317.804)">
            <path d="M0,3.421L1.255,3.421L0.635,-0.331L0.62,-0.331L0,3.421ZM-1.973,6.387L-0.207,-2.966L1.586,-2.966L3.365,6.387L1.752,6.387L1.462,4.677L-0.207,4.677L-0.483,6.387L-1.973,6.387Z" style="fill:white;fill-rule:nonzero;"/>
        </g>
        <g transform="matrix(1,0,0,1,468.374,324.191)">
            <path d="M0,-9.353L1.572,-9.353L1.572,-1.283L3.448,-1.283L3.448,0L0,0L0,-9.353Z" style="fill:white;fill-rule:nonzero;"/>
        </g>
        <g transform="matrix(1,0,0,1,0,27.029)">
            <rect x="472.539" y="287.809" width="1.572" height="9.353" style="fill:white;"/>
        </g>
        <g transform="matrix(1,0,0,1,474.842,324.191)">
            <path d="M0,-9.353L4.18,-9.353L4.18,-8.07L2.884,-8.07L2.884,0L1.297,0L1.297,-8.07L0,-8.07L0,-9.353Z" style="fill:white;fill-rule:nonzero;"/>
        </g>
        <g transform="matrix(1,0,0,1,0,27.029)">
            <rect x="479.751" y="287.809" width="1.572" height="9.353" style="fill:white;"/>
        </g>
        <g transform="matrix(1,0,0,1,482.233,324.191)">
            <path d="M0,-9.353L3.752,-9.353L3.752,-8.07L1.572,-8.07L1.572,-5.394L3.132,-5.394L3.132,-4.124L1.572,-4.124L1.572,-1.283L3.752,-1.283L3.752,0L0,0L0,-9.353Z" style="fill:white;fill-rule:nonzero;"/>
        </g>
        <g transform="matrix(1,0,0,1,486.675,316.852)">
            <path d="M0,5.325L0,4.07L1.463,4.07L1.463,5.352C1.463,5.877 1.697,6.18 2.235,6.18C2.731,6.18 2.952,5.849 2.952,5.352L2.952,4.994C2.952,4.456 2.731,4.125 2.249,3.67L1.324,2.746C0.428,1.863 0.015,1.325 0.015,0.249L0.015,-0.069C0.015,-1.227 0.69,-2.124 2.222,-2.124C3.794,-2.124 4.414,-1.352 4.414,0.001L4.414,0.76L2.979,0.76L2.979,-0.055C2.979,-0.593 2.731,-0.855 2.235,-0.855C1.794,-0.855 1.49,-0.607 1.49,-0.082L1.49,0.111C1.49,0.635 1.78,0.938 2.235,1.38L3.242,2.373C4.097,3.242 4.511,3.766 4.511,4.801L4.511,5.256C4.511,6.539 3.821,7.449 2.222,7.449C0.621,7.449 0,6.553 0,5.325" style="fill:white;fill-rule:nonzero;"/>
        </g>
        <g transform="matrix(1,0,0,1,469.486,372.062)">
            <path d="M0,-6.641L-20.44,-6.641C-20.563,-6.641 -20.663,-6.53 -20.663,-6.393L-20.663,-0.25C-20.663,-0.111 -20.563,0 -20.44,0L0,0C0.125,0 0.225,-0.111 0.225,-0.25L0.225,-6.393C0.225,-6.53 0.125,-6.641 0,-6.641" style="fill:white;fill-rule:nonzero;"/>
        </g>
        <g transform="matrix(1,0,0,1,469.486,358.991)">
            <path d="M0,-6.642L-20.44,-6.642C-20.563,-6.642 -20.663,-6.53 -20.663,-6.394L-20.663,-0.25C-20.663,-0.111 -20.563,0 -20.44,0L0,0C0.125,0 0.225,-0.111 0.225,-0.25L0.225,-6.394C0.225,-6.53 0.125,-6.642 0,-6.642" style="fill:white;fill-rule:nonzero;"/>
        </g>
        <g transform="matrix(1,0,0,1,469.198,333.476)">
            <path d="M0,9.587L-9.812,-0.225C-9.877,-0.29 -9.984,-0.29 -10.051,-0.225L-19.862,9.587C-19.969,9.694 -19.894,9.877 -19.742,9.877L-0.119,9.877C0.031,9.877 0.107,9.694 0,9.587" style="fill:white;fill-rule:nonzero;"/>
        </g>
        <g transform="matrix(1,0,0,1,478.409,352.273)">
            <path d="M0,19.864L9.812,10.052C9.878,9.986 9.878,9.879 9.812,9.812L0,0.001C-0.106,-0.106 -0.289,-0.031 -0.289,0.121L-0.289,19.744C-0.289,19.895 -0.106,19.97 0,19.864" style="fill:white;fill-rule:nonzero;"/>
        </g>
        <g transform="matrix(1,0,0,1,449.336,390.936)">
            <path d="M0,-9.588L9.812,0.224C9.878,0.29 9.985,0.29 10.051,0.224L19.862,-9.588C19.97,-9.695 19.894,-9.878 19.743,-9.878L0.12,-9.878C-0.031,-9.878 -0.106,-9.695 0,-9.588" style="fill:white;fill-rule:nonzero;"/>
        </g>
        <g transform="matrix(1,0,0,1,440.125,372.137)">
            <path d="M0,-19.864L-9.812,-10.052C-9.878,-9.986 -9.878,-9.879 -9.812,-9.812L0,-0.001C0.106,0.106 0.289,0.031 0.289,-0.121L0.289,-19.744C0.289,-19.895 0.106,-19.97 0,-19.864" style="fill:white;fill-rule:nonzero;"/>
        </g>
    </g>
</svg>
