<svg xmlns="http://www.w3.org/2000/svg" xmlns:xlink="http://www.w3.org/1999/xlink" viewBox="0 0 1080 1080"><linearGradient id="A" gradientUnits="userSpaceOnUse" x1="11.75" y1="11.75" x2="1068.25" y2="1068.25"><stop offset="0" stop-color="#5433ff"/><stop offset=".105" stop-color="#4852ff"/><stop offset=".375" stop-color="#2b9fff"/><stop offset=".5" stop-color="#20bdff"/><stop offset=".508" stop-color="#23befe"/><stop offset=".675" stop-color="#5adae8"/><stop offset=".818" stop-color="#83edd8"/><stop offset=".931" stop-color="#9cfacf"/><stop offset="1" stop-color="#a5fecb"/></linearGradient><path d="M1080,1040c0,22-18,40-40,40H40c-22,0-40-18-40-40V40C0,18,18,0,40,0h1000c22,0,40,18,40,40V1040z" fill="url(#A)"/><g opacity=".5" fill="#89216b"><path d="M856.764 1046.357c-1.2 0-3.22-.42-3.922-1.58-.08-.12-.08-.22-.08-.3 0-.32.28-.602.58-.602.12 0 .32.102.44.28.72.88 2 1.06 2.98 1.06 1.94 0 2.92-.64 2.92-1.94 0-3.02-6.56-1.42-6.56-5.422 0-2.02 2.02-2.8 3.84-2.8 1.04 0 2.64.36 3.44 1.16a.56.56 0 0 1 .18.38.65.65 0 0 1-.621.6.53.53 0 0 1-.38-.16c-.62-.6-1.74-.84-2.62-.84-1.76 0-2.7.682-2.7 1.66 0 2.8 6.563 1.32 6.563 5.422 0 2.28-2 3.08-4.06 3.08zm10.72-.04c-3.22 0-5.02-2.64-5.02-5.662 0-3 1.8-5.64 5.02-5.64s5.02 2.64 5.02 5.64c0 3.02-1.8 5.662-5.02 5.662zm0-10.162c-2.36 0-3.88 1.9-3.88 4.5s1.52 4.52 3.88 4.52c2.38 0 3.88-1.92 3.88-4.52s-1.5-4.5-3.88-4.5zm15.78 9.824c-.28 0-.58-.2-.58-.56v-.64c-.84.98-2.06 1.54-3.42 1.54-2.48 0-4.56-2.08-4.56-4.56v-5.842c0-.36.3-.56.58-.56.26 0 .56.2.56.56v5.842c0 1.9 1.52 3.42 3.422 3.42s3.42-1.52 3.42-3.42v-5.842c0-.36.3-.56.58-.56.26 0 .56.2.56.56v9.502a.56.56 0 0 1-.561.561zm7.96-9.644a3.42 3.42 0 0 0-3.42 3.42v5.662c0 .36-.3.56-.56.56-.28 0-.58-.2-.58-.56v-9.502c0-.36.3-.56.58-.56.26 0 .56.2.56.56v.82c.898-.98 2.08-1.54 3.42-1.54.36 0 .58.3.58.56a.58.58 0 0 1-.58.58zm10.18 8.46c-.88.98-2.1 1.52-3.58 1.52-3.22 0-5.02-2.64-5.02-5.662 0-3 1.8-5.64 5.02-5.64 1.48 0 2.7.54 3.58 1.52a.53.53 0 0 1 .16.381.63.63 0 0 1-.58.6c-.14 0-.28-.06-.42-.2-.66-.74-1.58-1.16-2.74-1.16-2.36 0-3.88 1.9-3.88 4.5s1.52 4.52 3.88 4.52c1.16 0 2.08-.44 2.74-1.16.14-.14.28-.2.42-.2.3 0 .58.26.58.58 0 .14-.04.26-.16.398z"/><use xlink:href="#G"/><path d="M916.962 1039.416c-.64 0-1.16-.5-1.16-1.14s.52-1.14 1.16-1.14c.62 0 1.12.5 1.12 1.14s-.5 1.14-1.12 1.14zm0 6.563c-.64 0-1.16-.5-1.16-1.14s.52-1.14 1.16-1.14c.62 0 1.12.5 1.12 1.14s-.5 1.14-1.12 1.14zm19.043.001a.58.58 0 0 1-.52-.34l-1.28-3.082h-7.2l-1.28 3.082c-.08.22-.32.34-.5.34-.3 0-.58-.22-.58-.54 0-.1 0-.16.04-.26l5.402-13.104a.63.63 0 0 1 .58-.379c.2 0 .38.12.48.38l5.4 13.104c.04.1.04.16.04.26 0 .32-.28.54-.58.54zm-5.402-12.184l-3.14 7.623h6.3l-3.16-7.623zm14.957 2.34l-3.94 9.38c-.12.26-.3.46-.56.46s-.46-.2-.58-.46l-3.94-9.36c-.04-.1-.04-.18-.04-.26 0-.32.28-.54.58-.54.18 0 .4.08.5.34l3.48 8.223 3.46-8.223c.12-.26.32-.36.52-.36.3 0 .58.22.58.54 0 .06 0 .16-.06.262zm5.66-3.282h-.62c-.48 0-.88.4-.88.86v1.64h1.5c.38 0 .56.3.56.56 0 .28-.2.58-.56.58h-1.5v8.922c0 .36-.28.56-.56.56s-.56-.18-.56-.56v-8.922h-1.38c-.36 0-.56-.3-.56-.58 0-.26.2-.56.56-.56h1.38v-1.64c0-1.1.9-1.98 1.98-1.98h.64c.36 0 .58.28.58.58 0 .28-.2.54-.58.54zm12.94 13.125h-.02c-.66 0-1.6-.36-1.98-1.56-.84 1.18-2.14 1.9-3.88 1.9-3.26 0-5.02-2.682-5.02-5.662 0-3.02 1.8-5.64 5.02-5.64 1.74 0 3.04.72 3.88 1.88v-.98c0-.32.26-.56.58-.56.28 0 .56.2.56.56v8.063c0 1.28 1.44.48 1.44 1.44a.55.55 0 0 1-.58.561zm-5.88-9.822c-2.36 0-3.88 1.9-3.88 4.5s1.52 4.52 3.88 4.52c2.38 0 3.88-1.92 3.88-4.52s-1.5-4.5-3.88-4.5z"/><use xlink:href="#H"/><use xlink:href="#H" x="4.38"/><path d="M984.358 1046.318c-1.54 0-3.64-.62-4.78-1.76-.14-.14-.182-.262-.182-.4a.61.61 0 0 1 .58-.58c.24 0 .22.06.64.38 1.06.78 2.38 1.22 3.74 1.22 2.52 0 3.982-.94 3.982-2.74 0-4.742-8.463-2.102-8.463-7.562 0-2.4 2.102-3.5 4.682-3.5 1.44 0 3.46.62 4.36 1.88a.58.58 0 0 1 .119.34c0 .32-.28.56-.6.56-.28 0-.28-.08-.62-.42-.84-.842-2.08-1.22-3.26-1.22-2.38 0-3.54.92-3.54 2.36 0 4.3 8.46 1.8 8.46 7.563 0 2.78-2.44 3.88-5.12 3.88zm15.282-10.18l-3.94 9.38c-.12.26-.3.46-.56.46s-.46-.2-.58-.46l-3.94-9.36c-.04-.1-.04-.18-.04-.26 0-.32.28-.54.58-.54a.51.51 0 0 1 .5.34l3.482 8.223 3.46-8.223c.12-.26.318-.36.52-.36.3 0 .58.22.58.54 0 .06 0 .16-.06.262z"/><use xlink:href="#G" x="97.675"/><path d="M1018.16 1036.336a3.42 3.42 0 0 0-3.422 3.42v5.662c0 .36-.3.56-.56.56-.28 0-.58-.2-.58-.56v-9.502c0-.36.3-.56.58-.56.26 0 .56.2.56.56v.82c.9-.98 2.08-1.54 3.422-1.54.36 0 .58.3.58.56a.58.58 0 0 1-.58.58zm2.616-2.9c-.64 0-1.14-.5-1.14-1.14s.5-1.14 1.14-1.14 1.14.5 1.14 1.14-.5 1.14-1.14 1.14zm0 12.543c-.28 0-.58-.18-.58-.56v-9.502c0-.36.28-.56.58-.56.26 0 .56.18.56.56v9.502c0 .36-.26.56-.56.56zm7.964 4.56c-1.7 0-4.102-.64-4.102-1.36 0-.32.26-.64.58-.64.22 0 .68.34 1.06.48.52.18 1.34.38 2.46.38 2.56 0 3.88-1.26 3.88-3.72v-1.4c-.88 1.06-2.14 1.7-3.88 1.7-3.162 0-5.02-2.24-5.02-5.322 0-3 1.8-5.64 5.02-5.64 1.74 0 3.04.72 3.88 1.88v-.96c0-.36.3-.56.582-.56.26 0 .56.2.56.56v9.742c0 3.182-1.9 4.86-5.02 4.86zm0-14.383c-2.36 0-3.88 1.9-3.88 4.5 0 2.582 1.42 4.182 3.88 4.182s3.88-1.6 3.88-4.182c0-2.6-1.5-4.5-3.88-4.5z"/><use xlink:href="#G" x="132.635"/></g><g opacity=".5" fill="#89216b"><path d="M42.328 1046.045c-3.568 0-5.47-1.97-5.503-2.002 0 .935-.7 1.4-1.468 1.4-.7 0-1.4-.467-1.4-1.4v-20.88a1.35 1.35 0 0 1 1.401-1.434c.767 0 1.468.467 1.468 1.4v6.238c1.334-1.368 3.168-2.17 5.503-2.17 5.37 0 8.373 4.403 8.373 9.406 0 5.037-3.002 9.44-8.373 9.44zm0-16c-3.335 0-5.503 2.602-5.503 6.57 0 4.003 2.168 6.604 5.503 6.604s5.504-2.602 5.504-6.604c0-3.97-2.168-6.57-5.504-6.57zm25.555 8.037h-12.34c.467 3.136 2.468 5.137 5.403 5.137 1.5 0 3.002-.533 3.97-1.734.3-.333.634-.533 1.034-.533.734 0 1.5.667 1.5 1.468 0 .4-.1.7-.8 1.4-1.5 1.468-3.57 2.235-5.704 2.235-5.37 0-8.372-4.437-8.372-9.44 0-4.97 3.002-9.406 8.372-9.406 5.437 0 8.34 4.437 8.34 9.406 0 .734-.534 1.468-1.4 1.468zm-6.937-8.038c-3.136 0-4.97 2.3-5.403 5.17H66.35c-.467-3.202-2.468-5.17-5.403-5.17zM88 1045.478c-1.834 0-2.668-1.3-2.97-1.9-1.334 1.468-3.27 2.47-5.87 2.47-5.437 0-8.372-4.47-8.372-9.44s3.002-9.406 8.372-9.406c2.335 0 4.203.834 5.504 2.202v-.134c0-.367.133-1.5 1.4-1.5.7 0 1.468.367 1.468 1.4v12.875c0 .434.3.6.467.6.935 0 1.435.667 1.435 1.434a1.37 1.37 0 0 1-1.435 1.401zm-8.84-15.443c-3.336 0-5.504 2.602-5.504 6.57 0 4.003 2.168 6.604 5.504 6.604 3.37 0 5.504-2.602 5.504-6.604 0-3.97-2.135-6.57-5.504-6.57z"/><use xlink:href="#I"/><path d="M115.158 1045.478h-.567c-3.17 0-4.37-1.668-4.37-4.403V1030.6h-1c-.8 0-1.435-.634-1.435-1.4 0-.8.634-1.435 1.4-1.435h1v-4.637c0-.934.7-1.4 1.435-1.4s1.4.467 1.4 1.4v4.637h2.135c.934 0 1.4.768 1.4 1.4 0 .8-.533 1.434-1.4 1.434h-2.135v10.774c0 .934.333 1.268 1.268 1.268h.833c.868 0 1.435.634 1.435 1.4 0 .8-.533 1.435-1.4 1.435zm4.604-20.415a2.402 2.402 0 1 1 0-4.803 2.402 2.402 0 1 1 0 4.803zm0 20.414c-.733 0-1.467-.5-1.467-1.4V1029.2c0-.935.733-1.435 1.467-1.435a1.37 1.37 0 0 1 1.401 1.435v14.876c0 .935-.7 1.4-1.4 1.4zm10.376-14.877h-1.5v13.442c0 .935-.7 1.4-1.468 1.4-.7 0-1.4-.467-1.4-1.4V1030.6h-1.37c-.9 0-1.4-.667-1.4-1.4 0-.768.5-1.435 1.4-1.435h1.367v-2.27c0-2.135 1.77-3.77 3.836-3.77.968 0 1.468.667 1.468 1.434 0 .7-.5 1.4-1.468 1.4-.566 0-.967.434-.967.9v2.302h1.5c.967 0 1.468.667 1.468 1.435 0 .733-.5 1.4-1.468 1.4z"/><use xlink:href="#I" x="42.068"/><path d="M154.725 1045.544c-1.802 0-3.336-1.534-3.336-3.402v-18.98c0-.967.7-1.434 1.435-1.434s1.435.467 1.435 1.4v19.013c0 .4.3.567.467.567.934 0 1.435.667 1.435 1.435 0 .733-.5 1.4-1.435 1.4zm15.37-.066v-1.264c1.886-.237 2.046-.437 2.046-3.157v-6.7c0-2.8-1.248-4.017-3.064-4.017-1.237 0-2.345.6-3.47 1.493v9.476c0 2.527.187 2.658 2.06 2.896v1.264h-8.968v-1.264c2.254-.33 2.5-.4 2.5-3v-8.2c0-2.446-.303-2.565-2.185-2.922v-1.184c2.173-.292 4.63-.807 6.653-1.533l-.052 2.95 2.6-1.745c1.16-.713 2-1.086 3.16-1.086 3.194 0 5.2 2.338 5.2 6.3v7.5c0 2.54.237 2.657 2.277 2.92v1.264h-8.74zm23.9-3.703c-2.458 3.427-5.488 4.178-7.014 4.178-5.142 0-8.124-3.936-8.124-8.594 0-2.745 1.183-5.396 2.832-7.062 1.74-1.8 3.945-2.814 6.082-2.814 3.73 0 6.396 3.126 6.37 6.347-.014.715-.08 1.277-.612 1.4-.767.184-6.17.5-10.318.647.062 4.587 2.717 6.74 5.556 6.74 1.572 0 3.104-.597 4.543-1.866l.686 1.014zm-7.07-12.7c-1.667 0-3.167 1.807-3.516 4.963l5.486-.118c.6-.026.848-.146.848-.792.04-2.022-1.037-4.053-2.818-4.053zm34.284.145c-1.943.343-2.248.624-3.105 2.765-1.33 3.462-3.102 8.53-4.934 13.94h-1.512l-4.65-11.46-4.55 11.46h-1.472l-4.685-14.192c-.687-1.985-.94-2.274-2.855-2.512v-1.25h9.397v1.25c-2.325.345-2.535.672-2.058 2.133l2.52 8.214c1.507-3.68 2.988-7.62 4.327-11.424h1.456c1.4 3.76 2.986 7.702 4.573 11.568.742-2.107 2.062-5.964 2.557-8.108.412-1.674-.008-2.078-2.753-2.383v-1.25h7.742v1.25zm9.4 3.746c-.92-2.606-2.155-3.984-4.2-3.984-1.206 0-2.225.86-2.225 2.266 0 1.497 1.046 2.264 3.16 3.216 3.278 1.496 5.3 2.787 5.3 5.736 0 3.85-3.6 5.764-6.945 5.764-2.06 0-4.088-.737-4.92-1.16l-.662-4.892 1.252-.224c.8 2.5 2.33 4.75 4.976 4.75 1.505 0 2.438-.952 2.438-2.28 0-1.423-.76-2.333-3.092-3.467-2.67-1.295-5.107-2.64-5.107-5.775 0-3.046 2.533-5.42 6.565-5.42 1.818 0 3.242.396 4.112.567l.62 4.577-1.25.328z"/></g><linearGradient id="B" gradientUnits="userSpaceOnUse" x1="59.279" y1="469.937" x2="1046.231" y2="469.937"><stop offset="0" stop-color="#4699a0"/><stop offset=".147" stop-color="#4e9aa0"/><stop offset=".677" stop-color="#679ca0"/><stop offset="1" stop-color="#709da0"/></linearGradient><path d="M1017.844 352.037l-13.722-5.62c-2.69-1.1-6.5-.255-8.47 1.88l-16.333 17.694c-1.97 2.135-5.8 4.743-8.507 5.795L957.16 377.1c-2.708 1.052-7.295 2.073-10.194 2.268l-12.958.873c-2.9.195-7.618.73-10.487 1.188l-13.066 2.085c-2.87.458-7.13 2.242-9.47 3.966l-14.993 11.046a4.82 4.82 0 0 1-7.047-1.35l-17.91-28.74c-1.537-2.466-4.743-5.844-7.125-7.508l-14.836-10.36c-2.382-1.663-6.698-3.243-9.592-3.51l-12.978-1.197c-2.893-.267-7.614-.815-10.492-1.218l-13.036-1.827c-2.878-.403-7.114.72-9.415 2.493l-15.133 11.67c-2.3 1.774-5.9 4.88-7.976 6.902l-15.912 15.422c-2.087 2.022-6.075 3-8.864 2.195l-13.357-3.9a252.08 252.08 0 0 0-10.21-2.703l-13.22-3.143c-2.826-.672-6.344.827-7.818 3.33l-18.142 30.842c-1.473 2.504-4.685 5.828-7.137 7.387l-14.582 9.267c-2.452 1.558-6.814 3.154-9.693 3.546l-13.03 1.775c-2.88.392-7.33-.4-9.9-1.783l-14.188-7.61c-2.56-1.373-6.798-1.466-9.416-.208l-13.977 6.72c-2.618 1.26-6.328 4.076-8.244 6.26l-16.533 18.853c-1.915 2.184-5.836 4.305-8.713 4.713l-13.038 1.848c-2.876.408-7.13-.687-9.452-2.433l-15.055-11.32c-2.322-1.746-6.026-1.627-8.23.266l-85.978 73.8c-2.205 1.892-6.34 3.9-9.19 4.463L299.45 542.6a177.48 177.48 0 0 1-10.426 1.669l-107.01 13.192c-2.883.355-7.617.53-10.52.386L59.28 552.303v21.727l112.244 12.454c2.888.32 7.623.436 10.523.258l106.95-6.592c2.9-.18 7.645-.18 10.545 0l106.95 6.592c2.9.18 7.324-.876 9.83-2.344l84.88-49.703c2.507-1.468 6.2-.95 8.205 1.152l16.205 16.98c2.006 2.102 5.66 5.087 8.12 6.633l14.555 9.15c2.46 1.546 6.645 1.847 9.3.67l13.842-6.143c2.655-1.18 7.2-1.997 10.1-1.818l12.954.798c2.9.18 7.24 1.66 9.645 3.3l14.754 10.004c2.405 1.63 6.696 3.466 9.536 4.08l13.172 2.842c2.84.613 7.398.302 10.128-.69l13.57-4.935c2.73-.993 6.897-3.2 9.26-4.88l14.91-10.677c2.362-1.692 6.535-2.28 9.273-1.31l13.54 4.8c2.74.97 6.9 3.166 9.246 4.88l14.964 10.92c2.347 1.713 6.46 2.198 9.142 1.08l13.75-5.738c2.682-1.12 7.113-1.233 9.848-.253l13.553 4.857c2.735.98 7.27 1.165 10.074.41l13.296-3.574c2.806-.754 7.35-2.144 10.098-3.088l13.507-4.642c2.748-.944 6.506.12 8.35 2.363l16.788 20.408c1.846 2.244 5.537 5.025 8.202 6.18l13.805 5.984c2.666 1.155 6.824.78 9.24-.83l14.7-9.815c2.417-1.612 6.734-3.355 9.593-3.872l13.102-2.37c2.86-.517 7.525-.452 10.37.144l13.16 2.76c2.844.596 7.26 2.215 9.817 3.596l14.205 7.678c2.556 1.382 6.442.953 8.635-.953l15.524-13.49c2.193-1.906 6.328-3.048 9.188-2.538l13.098 2.333c2.86.5 7.053-.563 9.317-2.384l19.382-15.59v-234.3l-19.413 15.91c-2.247 1.842-6.286 2.447-8.974 1.346z" fill="url(#B)"/><linearGradient id="C" gradientUnits="userSpaceOnUse" x1="59.279" y1="392.648" x2="1046.231" y2="392.648"><stop offset="0" stop-color="#4997a4"/><stop offset=".311" stop-color="#49ada5"/><stop offset=".739" stop-color="#49c6a7"/><stop offset="1" stop-color="#49cfa7"/></linearGradient><path d="M1022.732 244.32l-18.353-4.246c-2.83-.655-6.684.622-8.564 2.838l-20.08 23.668-23.498 9.372-23.5 7.126-18.416 5.196c-2.796.79-6.83 3.045-8.965 5.014L881.74 311.38l-20.663-32.45c-1.56-2.45-4.9-5.636-7.42-7.08l-14.33-8.206c-2.522-1.444-6.94-2.32-9.823-1.946l-13.023 1.687c-2.882.374-7.427 1.606-10.102 2.738l-13.77 5.83c-2.675 1.133-6.66 3.616-8.857 5.518l-15.516 13.44c-2.194 1.9-5.587 5.208-7.545 7.354l-19.944 21.863-18.243-1.836c-2.9-.29-7.626-.38-10.526-.197l-12.957.815c-2.9.183-6.596 2.306-8.215 4.72l-20.556 30.637-23.5 19-23.5 8.995-18.715-8.768c-2.63-1.232-6.74-.9-9.13.76L580.6 384.467c-2.4 1.65-5.755 4.912-7.48 7.25l-20.365 27.616-23.5 7.677-19.027-11.963c-2.46-1.546-6.29-1.28-8.5.592l-89.957 75.827-117.494 30.418-112.222 6.917a209.49 209.49 0 0 0-10.515.971L59.28 543.612v8.69l112.218 5.534c2.902.143 7.635-.03 10.52-.386l107.01-13.192c2.883-.355 7.575-1.106 10.426-1.67l107.13-21.13c2.85-.562 6.986-2.57 9.19-4.463l85.978-73.8c2.205-1.892 5.908-2.012 8.23-.266l15.055 11.32c2.322 1.746 6.576 2.84 9.452 2.433l13.038-1.848c2.877-.408 6.798-2.53 8.713-4.713l16.533-18.853c1.915-2.184 5.625-5.002 8.244-6.26l13.977-6.72c2.618-1.26 6.856-1.166 9.416.208l14.188 7.61c2.56 1.373 7.01 2.176 9.9 1.783l13.03-1.775c2.88-.392 7.24-1.988 9.693-3.546l14.582-9.267c2.452-1.558 5.664-4.882 7.137-7.387l18.142-30.842c1.473-2.504 4.99-4.003 7.818-3.33l13.22 3.143c2.827.672 7.42 1.888 10.2 2.703l13.357 3.9c2.79.814 6.778-.173 8.864-2.195l15.912-15.422c2.086-2.022 5.676-5.128 7.976-6.902l15.133-11.67c2.3-1.774 6.537-2.896 9.415-2.493l13.036 1.827c2.877.403 7.6.95 10.492 1.218l12.978 1.197c2.894.267 7.21 1.846 9.592 3.51l14.836 10.36c2.382 1.664 5.588 5.042 7.125 7.508l17.91 28.74a4.82 4.82 0 0 0 7.047 1.35l14.993-11.046c2.34-1.723 6.6-3.508 9.47-3.966l13.066-2.085a140.58 140.58 0 0 1 10.487-1.188l12.958-.873c2.9-.195 7.486-1.216 10.194-2.268l13.652-5.305c2.708-1.052 6.536-3.66 8.507-5.795l16.333-17.694c1.97-2.135 5.782-2.98 8.47-1.88l13.722 5.62c2.688 1.1 6.727.495 8.974-1.346l19.413-15.91V227.4l-23.498 16.91z" fill="url(#C)"/><linearGradient id="D" gradientUnits="userSpaceOnUse" x1="59.279" y1="802.888" x2="1046.231" y2="802.888"><stop offset="0" stop-color="#472193"/><stop offset=".147" stop-color="#4f2293"/><stop offset=".677" stop-color="#682393"/><stop offset="1" stop-color="#712493"/></linearGradient><path d="M1017.455 915.487l-12.944-.582c-2.903-.13-7.653-.158-10.557-.062l-12.94.43a358.27 358.27 0 0 1-10.562.163l-12.933-.032a1887.72 1887.72 0 0 0-10.565.01l-12.934.056a329.75 329.75 0 0 1-10.562-.159l-12.94-.447-10.56-.306-12.937-.303c-2.905-.068-7.64-.43-10.52-.802l-13.02-1.685c-2.88-.373-7.385-1.7-10.008-2.95l-13.96-6.647a76.41 76.41 0 0 0-9.85-3.719l-13.338-3.802c-2.794-.796-7.4-2-10.213-2.698l-13.234-3.223c-2.823-.687-7.498-1.018-10.4-.735l-12.984 1.272c-2.89.283-6.9-1.204-8.906-3.306l-16.203-16.967c-2.006-2.1-5.17-5.648-7.027-7.88l-16.742-20.123c-1.858-2.234-4.673-6.055-6.254-8.492l-17.748-27.35c-1.582-2.437-5.127-5.194-7.878-6.127l-13.493-4.574c-2.752-.933-7.37-1.477-10.263-1.2l-12.98 1.2c-2.893.268-7.51-.277-10.263-1.2l-13.493-4.574c-2.752-.933-7.027-2.943-9.5-4.468l-14.505-8.94a103.76 103.76 0 0 1-8.619-6.075l-15.254-12.224c-2.267-1.817-6.43-2.734-9.25-2.04l-13.24 3.265c-2.82.696-7.208.11-9.748-1.298l-14.26-7.91c-2.54-1.4-6.21-4.328-8.156-6.487l-16.426-18.225c-1.945-2.158-5.448-2.5-7.783-.783L416.01 786.71c-2.336 1.728-6.584 2.71-9.44 2.18l-107.105-19.806c-2.857-.528-7.327-2.012-9.932-3.297l-108.02-53.266c-2.606-1.285-7.064-2.824-9.908-3.42L59.28 685.562v234.652h986.95v-3.426l-28.776-1.302z" fill="url(#D)"/><linearGradient id="E" gradientUnits="userSpaceOnUse" x1="59.279" y1="725.324" x2="1046.231" y2="725.324"><stop offset="0" stop-color="#4b6299"/><stop offset=".216" stop-color="#586299"/><stop offset=".703" stop-color="#716399"/><stop offset="1" stop-color="#7a6399"/></linearGradient><path d="M1017.532 587.065l-13.098-2.333c-2.86-.5-6.995.633-9.188 2.538l-15.524 13.49c-2.193 1.906-6.08 2.335-8.635.953l-14.205-7.678c-2.556-1.38-6.974-3-9.817-3.596l-13.16-2.76c-2.844-.596-7.51-.66-10.37-.144l-13.102 2.37c-2.86.517-7.176 2.26-9.593 3.872l-14.7 9.815c-2.417 1.612-6.575 1.986-9.24.83l-13.805-5.984c-2.665-1.155-6.357-3.937-8.202-6.18l-16.788-20.408c-1.846-2.244-5.604-3.307-8.35-2.363l-13.507 4.642c-2.748.944-7.292 2.334-10.098 3.088l-13.296 3.574c-2.806.754-7.34.57-10.074-.41l-13.553-4.857c-2.735-.98-7.167-.866-9.848.253l-13.75 5.738c-2.68 1.12-6.795.633-9.142-1.08l-14.964-10.92c-2.347-1.713-6.508-3.908-9.246-4.88l-13.54-4.8c-2.738-.97-6.912-.38-9.273 1.31l-14.91 10.677c-2.362 1.692-6.53 3.888-9.26 4.88l-13.57 4.935c-2.73.993-7.288 1.304-10.128.69l-13.172-2.842c-2.84-.613-7.13-2.448-9.536-4.08l-14.754-10.004c-2.405-1.63-6.745-3.11-9.645-3.3l-12.954-.798c-2.9-.18-7.445.64-10.1 1.818l-13.842 6.143c-2.656 1.18-6.84.878-9.3-.67l-14.555-9.15c-2.46-1.546-6.113-4.53-8.12-6.633l-16.205-16.98c-2.006-2.102-5.698-2.62-8.205-1.152l-84.88 49.703c-2.507 1.468-6.93 2.523-9.83 2.344l-106.95-6.592c-2.9-.18-7.645-.18-10.545 0l-106.95 6.592c-2.9.18-7.635.063-10.523-.258L59.28 574.03v111.532l112.324 23.54c2.844.596 7.302 2.135 9.908 3.42l108.02 53.266c2.606 1.285 7.075 2.77 9.932 3.297l107.105 19.806c2.857.528 7.106-.453 9.44-2.18l85.502-63.244c2.336-1.728 5.838-1.376 7.783.783l16.426 18.225c1.945 2.158 5.615 5.077 8.156 6.487l14.26 7.91c2.54 1.41 6.927 1.994 9.748 1.298l13.24-3.265c2.82-.696 6.984.222 9.25 2.04l15.254 12.224c2.267 1.817 6.146 4.55 8.62 6.075l14.505 8.94c2.473 1.524 6.748 3.535 9.5 4.468l13.493 4.574c2.75.933 7.37 1.477 10.263 1.2l12.98-1.2c2.893-.268 7.51.277 10.263 1.2l13.493 4.574c2.752.933 6.297 3.7 7.878 6.127l17.748 27.35c1.582 2.437 4.396 6.26 6.254 8.492l16.742 20.123a187.26 187.26 0 0 0 7.027 7.881l16.203 16.967c2.007 2.1 6.014 3.59 8.906 3.306l12.984-1.272c2.892-.283 7.567.048 10.4.735l13.234 3.223a330.06 330.06 0 0 1 10.213 2.698l13.338 3.802c2.794.796 7.227 2.47 9.85 3.72l13.96 6.647c2.623 1.25 7.127 2.576 10.008 2.95l13.02 1.685c2.882.373 7.615.734 10.52.802l12.937.303 10.56.306 12.94.447a329.72 329.72 0 0 0 10.562.159l12.934-.056 10.565-.01 12.933.032a358.27 358.27 0 0 0 10.563-.163l12.94-.43c2.904-.097 7.654-.07 10.557.062l41.72 1.885V569.092l-19.382 15.59c-2.264 1.82-6.457 2.894-9.317 2.384z" fill="url(#E)"/><g fill="none" stroke="#fff" stroke-width="2" stroke-miterlimit="10"><path d="M59.86 776.424h1"/><path d="M66.863 776.424h973.575" stroke-dasharray="2.00118,6.00354"/><path d="M1043.44 776.424h1M59.86 631.577h1"/><path d="M66.863 631.577h973.575" stroke-dasharray="2.00118,6.00354"/><path d="M1043.44 631.577h1M59.86 486.73h1"/><path d="M66.874 486.73h975.35" stroke-dasharray="2.00483,6.01449"/><path d="M1045.23 486.73h1M59.86 341.883h1"/><path d="M66.874 341.883h975.35" stroke-dasharray="2.00483,6.01449"/><path d="M1045.23 341.883h1m-797.2-144.847h1"/><path d="M255.998 197.036h786.014" stroke-dasharray="1.99243,5.97729"/><path d="M1045 197.036h1"/></g><g fill="#fff"><path d="M36.97 786.34v-1.68h2.464v-16.24l-2.52.224v-1.23c1.147-.28 2.268-.784 3.2-1.568h1.345v18.816h2.35v1.68h-6.83zm-1.625-145.742v-1.68c1.792-5.992 7.393-9.353 7.393-13.944 0-2.128-1.064-3.192-2.437-3.192-1.596 0-2.77 1.232-2.94 4.257h-1.85c.225-4.593 2.296-5.937 4.732-5.937 2.66 0 4.508 1.792 4.508 5.152 0 5.04-4.536 6.607-7.56 13.664h7.672v1.68h-9.52zm.335-160.925c.225-2.38 1.513-4.312 4.116-4.312 2.27 0 4.508 1.568 4.508 4.928 0 2.856-1.176 4.48-2.632 4.76v.056c2.27.756 2.968 2.884 2.968 5.04 0 4.144-2.407 5.992-4.928 5.992-2.687 0-4.508-2.156-4.536-5.096h1.85c.168 2.184 1.12 3.416 2.9 3.416 1.345 0 2.688-1.456 2.688-4.228 0-3.332-1.4-4.284-4.592-4.284v-1.68c3.023 0 4.256-.728 4.256-3.864 0-2.408-.952-3.36-2.353-3.36-1.735 0-2.352 1.456-2.407 2.856l-1.85-.224zM43.157 330.9v13.944h2.1v1.68h-2.1v4.592H41.14v-4.592h-6.468v-.952l5.544-14.672h2.94zm-6.58 13.944h4.563v-12.096h-.056l-4.508 12.096zm-.28-144.174c.168 1.456.784 3.304 2.576 3.304 1.735 0 3.023-1.792 3.023-5.292 0-3.78-1.288-4.956-2.77-4.956-1.148 0-2.212.868-2.548 1.96l-1.568-.28.672-10.248h7.112l-.168 1.68h-5.32l-.392 6.16c.7-.588 1.65-.952 2.688-.952 2.353 0 4.313 2.184 4.313 6.58 0 4.62-2.24 7.028-4.93 7.028-2.9 0-4.367-2.184-4.535-4.816l1.848-.168zm35.533 4.705c-.393 0-.784-.28-.784-.784v-9.408a3.6 3.6 0 0 0-3.557-3.556c-1.932 0-3.584 1.624-3.584 3.528v9.436c0 .504-.392.784-.783.784s-.812-.28-.812-.784v-9.408c0-1.932-1.624-3.556-3.528-3.556-1.96 0-3.584 1.624-3.584 3.528v9.436c0 .504-.42.784-.783.784-.393 0-.812-.28-.812-.784v-13.3c0-.504.42-.784.813-.784.363 0 .783.28.783.784v.168a5.09 5.09 0 0 1 3.557-1.428c1.792 0 3.388.896 4.368 2.38.924-1.428 2.52-2.38 4.34-2.38 2.912 0 5.18 2.296 5.18 5.124v9.436c0 .504-.42.784-.812.784z"/><use xlink:href="#J"/><use xlink:href="#K"/><use xlink:href="#K" x="6.69"/><use xlink:href="#J" x="19.517"/><use xlink:href="#L"/><use xlink:href="#M"/><path d="M149.47 205.375h-.868c-2.212 0-3.304-1.092-3.304-3.276v-9.996h-1.428c-.504 0-.784-.42-.784-.812 0-.364.28-.784.784-.784h1.428v-4.284c0-.504.42-.784.812-.784s.784.28.784.784v4.284h2.576c.504 0 .784.42.784.784 0 .392-.28.812-.784.812h-2.576v9.996c0 1.372.393 1.68 1.708 1.68h.868c.504 0 .784.42.784.812 0 .364-.28.784-.784.784z"/><use xlink:href="#L" x="50.792"/><use xlink:href="#M" x="50.79"/><use xlink:href="#M" x="67.844"/><path d="M217.4 198.74h-11.62c.252 3.192 2.324 5.516 5.376 5.516 1.513 0 3.305-.672 4.116-1.932.196-.308.42-.392.672-.392.42 0 .868.336.868.756 0 .252 0 .308-.532.924-1.288 1.512-3.164 2.24-5.124 2.24-4.508 0-7.027-3.696-7.027-7.924 0-4.2 2.52-7.896 7.027-7.896s7.028 3.724 7.028 7.896c0 .42-.392.812-.784.812zm-6.244-7.112c-3.36 0-5.124 2.576-5.376 5.516h10.78c-.252-3.192-2.324-5.516-5.404-5.516zm15.594 14.28c-1.68 0-4.508-.588-5.487-2.212-.112-.168-.112-.308-.112-.42 0-.448.392-.84.812-.84.168 0 .448.14.616.392 1.008 1.232 2.8 1.484 4.172 1.484 2.717 0 4.088-.896 4.088-2.716 0-4.228-9.184-1.988-9.184-7.588 0-2.828 2.828-3.92 5.376-3.92 1.456 0 3.696.504 4.816 1.624.168.168.252.364.252.532 0 .42-.42.84-.868.84a.74.74 0 0 1-.532-.224c-.868-.84-2.436-1.176-3.668-1.176-2.464 0-3.78.952-3.78 2.324 0 3.92 9.185 1.848 9.185 7.588 0 3.192-2.8 4.312-5.685 4.312zm-176.335-34.6c-.937 0-2.053-.684-2.053-2.052v-9.647H38.5v9.647c0 1.368-1.115 2.052-2.05 2.052s-2.053-.684-2.053-2.052v-21.56c0-1.332 1.117-2.016 2.053-2.016s2.05.684 2.05 2.016v7.8h9.863v-7.8c0-1.332 1.115-2.016 2.053-2.016s2.05.684 2.05 2.016v21.56c0 1.368-1.115 2.052-2.05 2.052zm14.652.613c-5.795 0-9.035-4.715-9.035-10.187 0-5.436 3.24-10.15 9.035-10.15s9.035 4.715 9.035 10.15c0 5.47-3.24 10.187-9.035 10.187zm0-16.234c-2.8 0-4.932 2.124-4.932 6.047 0 3.96 2.123 6.083 4.932 6.083 2.844 0 4.932-2.124 4.932-6.083 0-3.924-2.088-6.047-4.932-6.047zm26.64 15.62c-.6 0-1.225-.252-1.656-.756-1.332.936-2.844 1.368-4.5 1.368-4.463 0-8.207-3.744-8.207-8.207v-9.395c0-1.368 1.045-2.052 2.053-2.052 1.043 0 2.05.684 2.05 2.052v9.395c0 2.304 1.8 4.104 4.104 4.104s4.104-1.8 4.104-4.104v-9.395c0-1.44 1.045-2.16 2.053-2.16 1.043 0 2.05.72 2.05 2.16v14.938c0 1.404-1.008 2.052-2.05 2.052zm12.457.613c-1.836 0-4.896-.504-6.875-2.592-.396-.396-.47-.936-.54-1.332 0-1.116 1.008-2.088 2.123-2.088.504 0 1.045.18 1.512.72.686.792 2.232 1.188 3.78 1.188 2.986 0 3.348-.972 3.348-1.908 0-3.887-10.223-.864-10.223-8.64 0-4.355 3.852-5.687 7.307-5.687 2.123 0 6.623.936 6.623 3.276 0 1.08-.973 2.087-2.088 2.087-.396 0-.793-.072-1.187-.36-.828-.612-2.053-.9-3.348-.9-2.95 0-3.203.936-3.203 1.584 0 3.456 10.223.756 10.223 8.64 0 4.392-3.564 6-7.45 6zm25.557-8.136h-11.66c.6 2.627 2.375 4.03 4.715 4.03 1.295 0 2.375-.36 3.203-1.152.47-.432.936-.648 1.44-.648 1.152 0 2.268.972 2.268 2.088 0 1.944-4.14 3.815-6.9 3.815-5.867 0-9.035-4.787-9.035-10.187 0-5.328 3.168-10.15 9.035-10.15 5.004 0 8.998 3.78 8.998 10.15 0 1.044-.72 2.052-2.05 2.052zm-6.947-8.1c-2.484 0-4.068 1.548-4.68 3.996h9.395c-.6-2.628-2.375-3.996-4.715-3.996zm26.317 15.623c-1.008 0-2.05-.684-2.05-2.052v-9.467c0-2.304-1.8-4.104-4.104-4.104s-4.104 1.8-4.104 4.104v9.395c0 1.44-1.008 2.16-2.053 2.16-1.008 0-2.05-.72-2.05-2.16v-21.5c0-1.332 1.043-2.016 2.05-2.016 1.045 0 2.053.684 2.053 2.016v4.967a8.3 8.3 0 0 1 4.104-1.08c4.463 0 8.207 3.708 8.207 8.207v9.467c0 1.368-1.008 2.052-2.053 2.052zm14.327.613c-5.795 0-9.035-4.715-9.035-10.187 0-5.436 3.24-10.15 9.035-10.15s9.035 4.715 9.035 10.15c0 5.47-3.24 10.187-9.035 10.187zm0-16.234c-2.807 0-4.932 2.124-4.932 6.047 0 3.96 2.125 6.083 4.932 6.083 2.844 0 4.932-2.124 4.932-6.083 0-3.924-2.088-6.047-4.932-6.047zm16.02 15.62c-1.98 0-3.637-1.656-3.637-3.6v-20.013c0-1.332 1.045-2.016 2.088-2.016 1.008 0 2.016.684 2.016 2.016v19.545c1.045.216 1.584 1.116 1.584 2.016 0 1.044-.72 2.052-2.05 2.052zm20.05 0c-.72 0-1.404-.324-1.764-.972-1.62 1.008-3.168 1.583-5.184 1.583-5.795 0-9.035-4.715-9.035-10.187 0-5.436 3.24-10.15 9.035-10.15 1.945 0 3.564.468 4.932 1.44v-5.327c0-1.332 1.008-2.016 2.053-2.016s2.05.684 2.05 2.016v21.56c0 1.368-1.08 2.052-2.088 2.052zm-6.947-15.622c-2.807 0-4.932 2.124-4.932 6.047 0 3.96 2.125 6.083 4.932 6.083 2.844 0 4.932-2.124 4.932-6.083 0-3.924-2.088-6.047-4.932-6.047zm45.683-.755l-5.328 14.686c-.36 1.008-.9 1.692-2.123 1.692-.936 0-1.55-.612-2.016-1.764-.072-.072-.072-.36-3.637-9.6l-3.742 9.72c-.36.972-.937 1.656-2.088 1.656-.973 0-1.55-.504-2.053-1.8l-5.22-14.578c-.107-.36-.145-.576-.145-.828 0-1.152 1.08-1.943 2.16-1.943.828 0 1.477.396 1.836 1.368l3.527 9.827 3.672-9.467c.36-1.008.936-1.692 2.05-1.692.973 0 1.62.612 2.088 1.8 0 0 .217.324 3.6 9.36l3.527-9.827c.396-.972 1.117-1.368 1.908-1.368 1.043 0 2.123.792 2.123 1.943a2.36 2.36 0 0 1-.143.828zm20.087 16.377c-1.44 0-2.63-.684-3.492-1.728-1.477 1.44-3.527 2.34-6.047 2.34-5.867 0-9.035-4.823-9.035-10.187 0-5.328 3.168-10.15 9.035-10.15 2.088 0 3.814.612 5.184 1.62.432-.684 1.15-1.008 1.8-1.008 1.152 0 2.053.864 2.053 2.052v12.203c0 .396.18.54.54.54 1.188 0 2.123.972 2.123 2.16s-.97 2.16-2.158 2.16zm-9.54-15.622c-2.8 0-4.932 2.124-4.932 6.047 0 3.96 2.123 6.083 4.932 6.083 2.844 0 4.932-2.124 4.932-6.083 0-3.924-2.088-6.047-4.932-6.047zm19.946 16.235c-1.836 0-4.895-.504-6.875-2.592-.396-.396-.47-.936-.54-1.332 0-1.116 1.008-2.088 2.123-2.088.504 0 1.043.18 1.512.72.684.792 2.232 1.188 3.78 1.188 2.988 0 3.348-.972 3.348-1.908 0-3.887-10.223-.864-10.223-8.64 0-4.355 3.852-5.687 7.307-5.687 2.125 0 6.623.936 6.623 3.276 0 1.08-.97 2.087-2.088 2.087-.395 0-.8-.072-1.187-.36-.828-.612-2.05-.9-3.348-.9-2.95 0-3.203.936-3.203 1.584 0 3.456 10.223.756 10.223 8.64 0 4.392-3.563 6-7.45 6zm15.984-15.623h-1.26v10.367c0 .288.215.54.504.54h.72c1.15 0 2.05.864 2.05 2.052s-.9 2.052-2.05 2.052h-.072c-3.816 0-5.256-2.304-5.256-5.255v-9.755h-.037c-1.367 0-2.05-1.116-2.05-2.052s.684-2.052 2.05-2.052h.037v-4.5c0-1.332 1.115-2.016 2.05-2.016s2.053.684 2.053 2.016v4.5h1.26c1.367 0 2.05 1.116 2.05 2.052 0 1.152-.863 2.052-2.05 2.052zm19.8 7.487h-11.662c.6 2.627 2.375 4.03 4.715 4.03 1.295 0 2.375-.36 3.203-1.152.47-.432.936-.648 1.44-.648 1.152 0 2.268.972 2.268 2.088 0 1.944-4.14 3.815-6.9 3.815-5.867 0-9.035-4.787-9.035-10.187 0-5.328 3.168-10.15 9.035-10.15 5.004 0 8.998 3.78 8.998 10.15 0 1.044-.72 2.052-2.05 2.052zm-6.947-8.1c-2.484 0-4.068 1.548-4.68 3.996h9.395c-.6-2.628-2.375-3.996-4.715-3.996z"/></g><g fill="#89216b"><use xlink:href="#N"/><use xlink:href="#O"/><path d="M82.604 932.926h10.664v1.063l-6.912 19.152h-2.5l6.912-18.536h-8.163v-1.68z"/><use xlink:href="#P"/><use xlink:href="#N" x="235"/><use xlink:href="#O" x="235"/><path d="M322.936 953.422c-3.687 0-5.858-2.464-5.858-5.376 0-2.492 1.547-4.284 3.818-5.656-2.107-1.428-3.292-2.828-3.292-5.208 0-2.66 2.37-4.536 5.332-4.536s5.332 1.876 5.332 4.536c0 2.38-1.185 3.78-3.29 5.208 2.27 1.372 3.817 3.164 3.817 5.656 0 2.912-2.172 5.376-5.858 5.376zm0-9.968c-1.91 1.203-3.488 2.49-3.488 4.676 0 1.65 1.053 3.61 3.488 3.61s3.49-1.96 3.49-3.61c0-2.185-1.58-3.473-3.49-4.676zm0-9.128c-2.04 0-2.962 1.344-2.962 2.632 0 2.044 1.185 3.556 2.962 4.48 1.777-.924 2.962-2.436 2.962-4.48 0-1.288-.92-2.632-2.962-2.632z"/><use xlink:href="#P" x="235"/><use xlink:href="#Q"/><path d="M542.405 949.4c.328 2.016 1.645 2.352 2.566 2.352 2.107 0 3.424-2.464 3.5-8.092-.955.868-2.238 1.54-3.654 1.54-2.666 0-5.102-1.624-5.102-6.216 0-3.92 1.975-6.328 5.102-6.328 4.113 0 6.1 2.017 6.1 9.296 0 8.12-2.238 11.48-6 11.48-3.062 0-4.213-1.568-4.674-3.92l2.172-.112zm6.12-9.52c0-4.1-1.25-5.544-3.357-5.544-1.842 0-3.094 1.176-3.094 4.676 0 3.6 1.45 4.508 2.963 4.508s2.7-.84 3.488-1.736v-1.903zm6.515 9.52c.33 2.016 1.646 2.352 2.568 2.352 2.105 0 3.422-2.464 3.488-8.092-.955.868-2.238 1.54-3.652 1.54-2.666 0-5.102-1.624-5.102-6.216 0-3.92 1.975-6.328 5.102-6.328 4.113 0 6.088 2.017 6.088 9.296 0 8.12-2.238 11.48-6 11.48-3.06 0-4.213-1.568-4.674-3.92l2.172-.112zm6.123-9.52c0-4.1-1.252-5.544-3.357-5.544-1.844 0-3.094 1.176-3.094 4.676 0 3.6 1.447 4.508 2.96 4.508s2.7-.84 3.5-1.736v-1.903zm6.117 8.558c.197 1.456.922 3.304 3.027 3.304 2.04 0 3.555-1.792 3.555-5.292 0-3.78-1.514-4.955-3.258-4.955-1.35 0-2.6.867-2.994 1.96l-1.844-.28.8-10.248h8.36l-.197 1.68h-6.254l-.46 6.16c.822-.588 1.94-.952 3.16-.952 2.764 0 5.068 2.185 5.068 6.58 0 4.62-2.633 7.028-5.793 7.028-3.424 0-5.135-2.185-5.332-4.816l2.172-.168zm194.66 4.704v-1.68c2.106-5.992 8.688-9.353 8.688-13.944 0-2.128-1.25-3.2-2.863-3.2-1.876 0-3.258 1.23-3.456 4.256h-2.172c.264-4.593 2.7-5.937 5.563-5.937 3.127 0 5.3 1.792 5.3 5.152 0 5.04-5.332 6.607-8.887 13.664h9.02v1.68h-11.2zm18.362.28c-3.884 0-5.727-3.08-5.727-10.4s1.843-10.388 5.727-10.388 5.727 3.08 5.727 10.388-1.843 10.4-5.727 10.4zm0-19.096c-2.172 0-3.357 2.07-3.357 8.707s1.186 8.708 3.357 8.708 3.357-2.07 3.357-8.708-1.186-8.707-3.357-8.707zm12.635 19.096c-3.884 0-5.727-3.08-5.727-10.4s1.843-10.388 5.727-10.388 5.727 3.08 5.727 10.388-1.843 10.4-5.727 10.4zm0-19.096c-2.172 0-3.357 2.07-3.357 8.707s1.186 8.708 3.357 8.708 3.357-2.07 3.357-8.708-1.185-8.707-3.357-8.707z"/><use xlink:href="#P" x="705"/><path d="M996.94 953.142v-1.68c2.107-5.992 8.7-9.353 8.7-13.944 0-2.128-1.25-3.2-2.863-3.2-1.877 0-3.258 1.23-3.457 4.256h-2.172c.264-4.593 2.7-5.937 5.563-5.937 3.127 0 5.3 1.792 5.3 5.152 0 5.04-5.332 6.607-8.887 13.664h9.02v1.68h-11.2zm18.362.28c-3.883 0-5.727-3.08-5.727-10.4s1.844-10.388 5.727-10.388 5.727 3.08 5.727 10.388-1.842 10.4-5.727 10.4zm0-19.096c-2.172 0-3.357 2.07-3.357 8.707s1.186 8.708 3.357 8.708 3.357-2.07 3.357-8.708-1.184-8.707-3.357-8.707z"/><use xlink:href="#Q" x="495.272"/><path d="M1037.282 948.438c.197 1.456.92 3.304 3.027 3.304 2.04 0 3.555-1.792 3.555-5.292 0-3.78-1.514-4.955-3.258-4.955-1.35 0-2.602.867-2.996 1.96l-1.844-.28.79-10.248h8.36l-.197 1.68h-6.254l-.46 6.16c.824-.588 1.943-.952 3.16-.952 2.766 0 5.068 2.185 5.068 6.58 0 4.62-2.633 7.028-5.793 7.028-3.422 0-5.133-2.185-5.332-4.816l2.174-.168z"/></g><g opacity=".6" fill="#fff"><path d="M261.993 686.28c0 3.56 2.547 6.52 5.917 7.17l9.626-20.455h7.373c1.283 0 2.325-1.04 2.325-2.325s-1.04-2.325-2.325-2.325h-8.967l-12.104 13.092a7.27 7.27 0 0 0-1.845 4.841zm8.057 7.306h9.213a5.65 5.65 0 0 1 5.646-5.646 5.65 5.65 0 0 1 5.646 5.646h17.27v-25.24h-19.28a4.3 4.3 0 0 1 .683 2.325 4.32 4.32 0 0 1-4.317 4.317h-6.11l-8.75 18.598z"/><use xlink:href="#R"/><use xlink:href="#R" x="32.547"/><path d="M309.815 674.324v19.262h1.994c0-3.118 2.527-5.646 5.646-5.646s5.646 2.527 5.646 5.646h5.313v-3.32h-1.328v-7.97l-4.65-7.97h-12.62zm7.64 1.993h4.15l3.035 5.313h-7.185v-5.313z"/></g><path d="M283.314 408.5h-12.586a5.19 5.19 0 0 1-3.735-1.586 4.85 4.85 0 0 0 .327.677l4.1 7.083a5.2 5.2 0 0 0 4.502 2.599l7.404.002c.427 0 .774-.346.774-.774l-.001-7.227c0-.427-.346-.774-.774-.774zm5.833-25.123c.704-1.22 1.874-2.1 3.24-2.44a4.95 4.95 0 0 0-.749-.055h-8.18a5.2 5.2 0 0 0-4.502 2.599l-3.703 6.4c-.214.37-.087.843.283 1.057l6.26 3.613c.37.214.843.087 1.057-.283l6.293-10.9zm-21.403 21.643a3.45 3.45 0 0 0 2.986 1.724l4.207.001 3.547-6.143.42.24 1.65.954-3.707-7.133-5.308.2-2.723.145 2.06 1.197-3.04 5.263-.53.92a1.94 1.94 0 0 0 .029 1.929l.4.7zm30.702 3.48h-7.094l-.001-.484.001-1.907-4.324 6.777 2.837 4.5 1.488 2.286.001-.532-.001-1.86h7.14a1.94 1.94 0 0 0 1.656-.99l.4-.7a3.45 3.45 0 0 0 .001-3.448l-2.103-3.644zm-2.67-8.13l6.293 10.9c.705 1.22.883 2.674.494 4.027a4.96 4.96 0 0 0 .423-.621l4.1-7.083a5.2 5.2 0 0 0 0-5.198l-3.7-6.413c-.213-.37-.687-.497-1.057-.284l-6.26 3.615c-.37.214-.497.687-.283 1.057zm-5.11-16.114l-2.105 3.643 2.2 3.832 1.336 2.3-.42.243-1.652.952 6.117.27a3.02 3.02 0 0 0 2.805-1.611l1.58-3.007 1.236-2.43-.46.266-1.6.93-3.57-6.184a1.89 1.89 0 0 0-1.634-.94h-.85a3.45 3.45 0 0 0-2.986 1.724z" opacity=".6" fill="#fff"/><g opacity=".6" fill="#fff"><path d="M573.582 258.487h17.016v4.254h-17.016zm-5.955-10.2c0-6.108-4.952-11.06-11.06-11.06s-11.06 4.952-11.06 11.06v.85h22.12v-.85z"/><use xlink:href="#S"/><path d="M545.507 254.233v8.508h22.12v-11.9h-22.12v3.403zm13.613-18.463v-1.106a.85.85 0 0 0-.851-.851h-3.403a.85.85 0 0 0-.851.851v1.106a12.79 12.79 0 0 1 5.105 0zm9.358 28.672h-24.673v1.702h47.644v-1.702h-18.717zm10.21-35.732v1.702h6.806V228.7a.85.85 0 0 0-.851-.851h-5.105a.85.85 0 0 0-.851.851zm11.91 10.2v-4.73a.85.85 0 0 0-.582-.807l-3.8-1.27h-8.23l-3.8 1.27a.85.85 0 0 0-.582.807v4.73a.85.85 0 0 1-.851.851v1.702h18.717v-1.702a.85.85 0 0 1-.851-.851z"/><use xlink:href="#S" y="-7.657"/><path d="M580.4 224.455h3.403v1.702H580.4zm-22.972-2.552a1.7 1.7 0 0 1 1.702-1.702h20.42a1.7 1.7 0 0 1 1.702 1.702v.85h1.702v-3.403a.85.85 0 0 0-.851-.851H556.57a.85.85 0 0 0-.851.851v12.762h1.702v-10.2z"/></g><g fill="#fff"><use xlink:href="#T"/><path d="M370.333 692.415c-.28 0-.588-.168-.728-.476l-1.792-4.312h-10.08l-1.792 4.313a.78.78 0 0 1-.7.476c-.42 0-.812-.308-.812-.756 0-.14 0-.225.056-.364l7.56-18.34c.14-.336.477-.532.813-.532.28 0 .532.168.672.532l7.56 18.34c.057.14.057.225.057.364 0 .448-.393.756-.812.756zm-7.56-17.052l-4.396 10.668h8.82l-4.424-10.668zm24.583 17.08c-.252 0-.476-.168-.672-.448l-10.948-16.156v15.792c0 .504-.42.784-.783.784-.393 0-.812-.28-.812-.784v-18.368c0-.476.42-.84.84-.84.252 0 .477.168.672.448l10.948 16.156v-15.765a.78.78 0 0 1 .784-.783c.392 0 .812.28.812.783v18.368c0 .477-.42.813-.84.813zm12.404-.028h-6.216c-.42 0-.812-.392-.812-.784v-18.368c0-.42.393-.783.813-.783h6.216c5.768 0 7.672 4.815 7.672 9.94 0 5.208-1.904 9.996-7.672 9.996zm0-18.368h-5.433v16.772h5.433c4.788 0 6.076-4.145 6.076-8.372 0-4.984-1.736-8.4-6.076-8.4zm24.975 0h-11.648v6.9h8.54a.77.77 0 0 1 .813.783c0 .393-.28.813-.784.813h-8.568v9.1c0 .504-.42.784-.783.784-.393 0-.812-.28-.812-.784v-18.368c0-.42.393-.783.813-.783h12.432a.77.77 0 0 1 .812.783.77.77 0 0 1-.812.784zm7.28 18.368h-3.192c-.504 0-.812-.42-.812-.784 0-.392.308-.812.812-.812h.784v-16.772h-.784c-.504 0-.812-.392-.812-.784s.308-.783.812-.783h3.192c.504 0 .784.392.784.783s-.28.784-.784.784h-.812v16.772h.813c.504 0 .784.42.784.812 0 .364-.28.784-.784.784z"/><use xlink:href="#T" x="94.834"/><use xlink:href="#T" x="108.863"/><use xlink:href="#U"/><use xlink:href="#V"/><use xlink:href="#W"/><path d="M669.545 499.834L663.33 518.2c-.14.364-.448.532-.73.532-.364 0-.644-.196-.784-.532l-6.216-18.368a1.22 1.22 0 0 1-.056-.308c0-.448.448-.728.812-.728.28 0 .616.14.73.532l5.46 16.128 5.488-16.128c.14-.392.447-.532.756-.532.42 0 .812.28.812.728a1.18 1.18 0 0 1-.056.308zm16.547 18.9H673.66c-.42 0-.812-.392-.812-.784V499.58c0-.42.393-.784.813-.784h12.432a.77.77 0 0 1 .812.784.77.77 0 0 1-.812.784h-11.648v6.888h8.54a.77.77 0 0 1 .813.784c0 .392-.28.812-.784.812h-8.568v8.288h11.648c.532 0 .812.42.812.812a.77.77 0 0 1-.812.784z"/><use xlink:href="#X"/><path d="M720.726 500.366h-5.432v17.583c0 .504-.392.784-.812.784-.363 0-.783-.252-.783-.784v-17.583h-5.433a.77.77 0 0 1-.812-.784.77.77 0 0 1 .812-.784h12.46c.504 0 .784.392.784.784s-.28.784-.784.784z"/><use xlink:href="#Y"/><path d="M749.286 518.733h-6.216c-.42 0-.812-.392-.812-.784v-18.368c0-.42.393-.784.813-.784h6.216c5.768 0 7.672 4.816 7.672 9.94 0 5.208-1.904 9.996-7.672 9.996zm0-18.368h-5.433v16.77h5.433c4.788 0 6.076-4.144 6.076-8.372 0-4.984-1.736-8.4-6.076-8.4z"/><use xlink:href="#Z"/><path d="M622.78 546.452c-6.02 0-8.147-4.983-8.147-10.444 0-5.488 2.128-10.472 8.147-10.472 5.992 0 8.148 4.984 8.148 10.472 0 5.46-2.156 10.444-8.148 10.444zm0-19.32c-4.647 0-6.552 3.64-6.552 8.876 0 5.2 1.904 8.848 6.552 8.848 4.62 0 6.552-3.64 6.552-8.848 0-5.236-1.932-8.876-6.552-8.876zm32.87 18.845h-12.43c-.42 0-.812-.392-.812-.784v-18.37c0-.42.393-.784.813-.784h12.432a.77.77 0 0 1 .812.784.77.77 0 0 1-.812.784h-11.648v6.9h8.54a.77.77 0 0 1 .813.783c0 .393-.28.813-.784.813h-8.568v8.3h11.648c.532 0 .812.42.812.812a.77.77 0 0 1-.812.784zm17.92.028c-.252 0-.476-.168-.672-.448L661.95 529.4v15.792c0 .504-.42.784-.783.784-.393 0-.812-.28-.812-.784v-18.37c0-.476.42-.84.84-.84.252 0 .477.168.672.448l10.948 16.157v-15.765c0-.504.42-.784.784-.784.392 0 .812.28.812.784v18.37c0 .477-.42.813-.84.813zm18.63-.028h-12.44c-.42 0-.812-.392-.812-.784v-18.37c0-.42.393-.784.813-.784h12.44a.77.77 0 0 1 .812.784.77.77 0 0 1-.812.784h-11.648v6.9h8.54a.77.77 0 0 1 .813.783c0 .393-.28.813-.784.813h-8.568v8.3H692.2c.532 0 .812.42.812.812a.77.77 0 0 1-.812.784zm17.9.028a.69.69 0 0 1-.588-.336l-6.02-8.317h-5.013v7.84c0 .504-.42.784-.783.784-.393 0-.812-.28-.812-.784v-18.37c0-.42.393-.784.813-.784h7.56c3.164 0 5.684 2.52 5.684 5.628 0 3.08-2.407 5.516-5.46 5.684l5.292 7.336c.14.168.196.336.196.504 0 .42-.42.812-.868.812zm-4.815-18.397H698.5v8.148h6.776c2.268 0 4.088-1.82 4.088-4.088 0-2.548-2.156-4.06-4.06-4.06zM723 546.452c-6.16 0-8.147-5.18-8.147-10.444 0-5.236 1.987-10.472 8.147-10.472 2.52 0 4.732.896 6.216 3.052.14.14.168.28.168.448 0 .447-.42.783-.867.783-.393 0-.616-.336-.925-.728-.98-1.26-2.464-1.96-4.592-1.96-4.228 0-6.552 3.248-6.552 8.876 0 4.256 1.344 8.848 6.552 8.848 4.424 0 6.356-3.388 6.552-8.037h-3.416a.8.8 0 0 1-.84-.812c0-.393.28-.812.784-.812h4.256c.477 0 .813.336.813.813 0 5.46-2.156 10.444-8.148 10.444zm24.498-19.236l-6.076 11.144v6.833c0 .504-.42.784-.812.784-.364 0-.784-.28-.784-.784v-6.833l-6.048-11.144a1.25 1.25 0 0 1-.084-.42c0-.448.42-.756.84-.756a.76.76 0 0 1 .672.392l5.404 10.052 5.46-10.052a.76.76 0 0 1 .672-.392c.42 0 .868.308.868.756 0 .1-.056.28-.112.42z"/><use xlink:href="#X" x="-372.232" y="-108.787"/><path d="M350.232 409.945H337.8c-.42 0-.812-.392-.812-.784v-18.368c0-.42.393-.784.813-.784h12.432a.77.77 0 0 1 .812.784.77.77 0 0 1-.812.784h-11.648v6.888h8.54a.77.77 0 0 1 .813.784c0 .392-.28.812-.784.812h-8.568v8.288h11.648c.532 0 .812.42.812.812 0 .364-.252.784-.812.784z"/><use xlink:href="#U" x="-246.688" y="-108.787"/><path d="M384.274 391.185l-6.076 11.144v6.832c0 .504-.42.784-.812.784-.364 0-.784-.28-.784-.784v-6.832l-6.048-11.144a1.25 1.25 0 0 1-.084-.42c0-.448.42-.756.84-.756a.76.76 0 0 1 .672.392l5.404 10.052 5.46-10.052a.76.76 0 0 1 .672-.392c.42 0 .868.308.868.756 0 .112-.056.28-.112.42z"/><use xlink:href="#U" x="-212.948" y="-108.787"/><path d="M415.52 409.945h-9.323c-.42 0-.812-.392-.812-.784v-18.368c0-.504.393-.784.813-.784.363 0 .783.252.783.784v17.556h8.54c.504 0 .784.42.784.812 0 .364-.28.784-.784.784z"/><use xlink:href="#a"/><use xlink:href="#W" x="-210.737" y="-108.787"/><use xlink:href="#b"/><path d="M612.288 238.48h-8.12c-.42 0-.812-.392-.812-.784V219.33c0-.476.252-.784.73-.784h7.588c2.77 0 5.04 2.296 5.04 4.984 0 1.652-.73 3.08-1.988 4.004 2.016.924 3.332 2.912 3.332 5.208 0 3.192-2.576 5.74-5.77 5.74zm-.615-18.368h-6.72V227h6.72c2.268 0 3.443-2.016 3.443-3.416 0-1.932-1.567-3.472-3.443-3.472zm.615 8.484h-7.336v8.288h7.336c2.297 0 4.173-1.848 4.173-4.144s-1.876-4.144-4.173-4.144z"/><use xlink:href="#a" x="202.535" y="-171.465"/><use xlink:href="#V" x="11.677" y="-280.253"/><use xlink:href="#c"/><use xlink:href="#V" x="45.584" y="-280.253"/><use xlink:href="#b" x="237.73" y="-171.463"/><path d="M706.702 238.48H703.5c-.504 0-.812-.42-.812-.784 0-.392.308-.812.812-.812h.784v-16.77h-.784c-.504 0-.812-.392-.812-.784s.308-.784.812-.784h3.192c.504 0 .784.392.784.784s-.28.784-.784.784h-.812v16.77h.813c.504 0 .784.42.784.812 0 .364-.28.784-.784.784z"/><use xlink:href="#U" x="110.74" y="-280.252"/><use xlink:href="#d"/><use xlink:href="#c" x="97.41"/><use xlink:href="#Z" x="2.69" y="-280.252"/><use xlink:href="#X" x="-72.348" y="-253.008"/><use xlink:href="#Y" x="-87.44" y="-253.009"/><use xlink:href="#d" x="-75.04" y="27.244"/><use xlink:href="#Z" x="69.046" y="-280.252"/><path d="M701.883 265.724c-.392 0-.784-.28-.784-.784v-15.204l-6.664 12.376c-.168.364-.42.504-.644.504-.31 0-.56-.168-.756-.504l-6.637-12.376v15.204c0 .504-.42.784-.783.784-.393 0-.812-.28-.812-.784v-18.368c0-.476.42-.784.84-.784a.73.73 0 0 1 .672.392l7.42 13.86 7.448-13.86a.76.76 0 0 1 .672-.392c.42 0 .84.308.84.784v18.368c0 .504-.42.784-.812.784z"/><use xlink:href="#Y" x="-17.081" y="-253.009"/><use xlink:href="#W" x="86.964" y="-253.008"/><use xlink:href="#Z" x="143.103" y="-280.252"/></g><path d="M768.235 237.655l31.347 31.347m-326.616 141.08l31.855 31.855m253.47 95.796l42.42 40.307M471.966 692.63l30.2 30.2" fill="none" stroke="#fff" stroke-miterlimit="10"/><g fill="#fff"><path d="M566.046 540.555c.99-2.506 2.856-4.313 5.188-5.304.29-.117.583.117.525.466-1.166 4.197.7 8.627 4.488 10.783 7.403-2.215 12.882-9.15 12.882-17.37 0-2.798-1.924-6.528-4.547-10.842-.117-.233-.466-.117-.466.117-.175 2.68-1.7 9.5-4.08 7.694-.175-.117-.233-.35-.233-.583l.117-.525c1.166-5.83-2.914-9.91-5.83-15.155-2.332-4.255-.525-9.618.233-11.54.058-.175-.175-.408-.35-.233-9.793 7.17-11.483 12.066-11.017 15.33.466 3.09 2.914 5.13 2.332 8.743-.29 1.982-1.457 3.672-2.74 4.955-.117.117-.408.175-.583.175-2.157-.525-3.79-5.07-4.43-7.46-.117-.525-.816-.583-1.05-.117-2.04 3.614-3.497 7.053-3.497 9.443 0 8.102 5.363 14.98 12.707 17.254-.466-1.865-.408-3.905.35-5.83z" opacity=".6"/><path d="M995.6 716.498c-2.144 0-4.575-1.152-5.76-3.04a1.42 1.42 0 0 1-.224-.768c0-.736.64-1.312 1.376-1.312.607 0 .832.225 1.312.864.8.992 2.048 1.536 3.296 1.536 2.208 0 4.448-2.017 4.448-4.896 0-2.91-2.24-4.927-4.448-4.927-1.695 0-2.848.863-3.392 1.79-.256.48-.704.736-1.248.736-.832 0-1.376-.544-1.376-1.6V694.74c0-.736.64-1.344 1.376-1.344h9.728c.928 0 1.408.64 1.408 1.376 0 .672-.448 1.344-1.345 1.344h-8.447v5.983c.77-.544 1.984-.864 3.296-.864 3.936 0 7.168 3.328 7.168 7.647 0 4.256-3.232 7.616-7.168 7.616z"/><use xlink:href="#e"/><use xlink:href="#f"/><path d="M997.85 476.772c-2.464 0-4.64-1.28-5.824-3.264-.16-.256-.224-.512-.224-.736 0-.768.672-1.344 1.408-1.344.416 0 .863.16 1.15.64a3.95 3.95 0 0 0 3.456 1.984c2.4 0 4.384-1.984 4.384-4.32 0-2.4-1.952-4.384-4.352-4.384h-.032c-.832 0-1.344-.64-1.344-1.344s.544-1.376 1.376-1.376c1.95 0 3.52-1.504 3.52-3.52 0-1.92-1.568-3.488-3.52-3.488-3.104 0-3.136 3.136-4.8 3.136-.736 0-1.44-.576-1.44-1.344a1.41 1.41 0 0 1 .225-.768c.768-1.184 2.688-3.776 6.016-3.776a6.25 6.25 0 0 1 6.239 6.24c0 1.952-.832 3.647-2.27 4.8 1.855 1.28 3.104 3.36 3.104 5.792 0 3.903-3.168 7.07-7.07 7.07zm21.28-4.384h-1.376v2.496c0 .864-.735 1.344-1.376 1.344-.672 0-1.376-.48-1.376-1.344v-2.496h-7.647c-.896 0-1.44-.544-1.44-1.28 0-.192.032-.448.192-.704l8.83-16.8c.256-.512.736-.736 1.152-.736.735 0 1.44.576 1.44 1.312 0 .224-.032.448-.192.704l-7.743 14.783H1015v-3.647c0-.928.673-1.408 1.345-1.408.703 0 1.407.448 1.407 1.376v3.68h1.376c.896 0 1.376.64 1.376 1.376 0 .704-.48 1.344-1.376 1.344z"/><use xlink:href="#g"/><path d="M1001.402 315.212c-.672 0-1.344-.512-1.344-1.344v-17.15l-2.56 2.496c-.288.288-.608.384-.896.384-.768 0-1.44-.704-1.44-1.408 0-.352.128-.672.416-.96l4.768-4.607c.384-.352.8-.512 1.184-.512.896 0 1.28.896 1.28 1.632v20.094c0 .864-.672 1.376-1.408 1.376zm10.72.32c-2.144 0-4.575-1.152-5.76-3.04a1.42 1.42 0 0 1-.224-.768c0-.736.64-1.312 1.376-1.312.607 0 .832.224 1.312.864.8.992 2.048 1.536 3.296 1.536 2.208 0 4.448-2.016 4.448-4.896 0-2.912-2.24-4.928-4.448-4.928-1.695 0-2.848.864-3.392 1.792-.256.48-.704.736-1.248.736-.832 0-1.376-.544-1.376-1.6v-10.143c0-.736.64-1.344 1.376-1.344h9.728c.928 0 1.408.64 1.408 1.376 0 .672-.448 1.344-1.345 1.344h-8.447v5.983c.77-.544 1.984-.864 3.296-.864 3.936 0 7.168 3.328 7.168 7.647 0 4.256-3.232 7.615-7.168 7.615z"/><use xlink:href="#g" y="-161.015"/><use xlink:href="#e" x="-21.792" y="151.49"/><path d="M1002.52 867.7c-1.28 0-2.304-1.024-2.304-2.304s1.024-2.24 2.304-2.24 2.304.96 2.304 2.24-1.023 2.304-2.304 2.304zm11.393.288c-2.144 0-4.575-1.152-5.76-3.04a1.42 1.42 0 0 1-.224-.768c0-.736.64-1.312 1.376-1.312.607 0 .832.225 1.312.864.8.992 2.048 1.536 3.296 1.536 2.208 0 4.448-2.017 4.448-4.896 0-2.9-2.24-4.927-4.448-4.927-1.695 0-2.848.863-3.392 1.8-.256.48-.704.736-1.248.736-.832 0-1.376-.544-1.376-1.6v-10.14c0-.736.64-1.344 1.376-1.344H1019c.928 0 1.408.64 1.408 1.376 0 .672-.448 1.344-1.345 1.344h-8.447v5.983c.77-.544 1.984-.864 3.296-.864 3.936 0 7.168 3.328 7.168 7.647 0 4.256-3.232 7.616-7.168 7.616z"/><use xlink:href="#f" x="1.791" y="151.49"/></g><g opacity=".6" fill="#fff"><path d="M852.832 899.28H840.4c-.42 0-.812-.392-.812-.784v-18.368c0-.42.393-.783.813-.783h12.432a.77.77 0 0 1 .812.783.77.77 0 0 1-.812.784h-11.648v6.9h8.54a.77.77 0 0 1 .813.783c0 .393-.28.813-.784.813h-8.568v8.288h11.648c.532 0 .812.42.812.812a.77.77 0 0 1-.812.784zm10.444.503c-3.836 0-7.028-3.08-7.028-7.028v-12.628c0-.504.42-.783.813-.783s.812.28.812.783v12.628c0 2.97 2.437 5.433 5.404 5.433s5.432-2.464 5.432-5.433v-12.628c0-.504.42-.783.813-.783.363 0 .783.28.783.783v12.628c0 3.837-3.08 7.028-7.027 7.028z"/><use xlink:href="#h"/><path d="M908.72 885.503l-5.516 13.133c-.168.363-.42.644-.784.644s-.644-.28-.812-.644l-5.517-13.104c-.056-.14-.056-.252-.056-.364 0-.447.392-.756.812-.756.252 0 .56.112.7.477l4.872 11.508 4.844-11.508c.168-.364.448-.504.73-.504.42 0 .812.308.812.756 0 .084 0 .224-.084.363z"/><use xlink:href="#i"/><path d="M933.526 885.783c-2.632 0-4.788 2.128-4.788 4.788v7.924c0 .504-.42.784-.783.784-.393 0-.812-.28-.812-.784v-13.3c0-.504.42-.784.813-.784.363 0 .783.28.783.784v1.148c1.26-1.372 2.912-2.156 4.788-2.156.504 0 .813.42.813.784 0 .392-.31.812-.812.812z"/><use xlink:href="#h" x="55.295"/><path d="M958.972 905.663c-2.38 0-5.74-.896-5.74-1.903 0-.448.363-.896.812-.896.308 0 .952.476 1.484.672.728.252 1.876.532 3.443.532 3.584 0 5.433-1.764 5.433-5.208v-1.96c-1.232 1.483-2.996 2.38-5.433 2.38-4.424 0-7.027-3.136-7.027-7.448 0-4.2 2.52-7.896 7.027-7.896 2.437 0 4.256 1.008 5.433 2.632v-1.344c0-.504.42-.784.812-.784.364 0 .784.28.784.784v13.636c0 4.452-2.66 6.804-7.028 6.804zm0-20.132c-3.304 0-5.432 2.66-5.432 6.3 0 3.612 1.988 5.853 5.432 5.853s5.433-2.24 5.433-5.853c0-3.64-2.1-6.3-5.433-6.3z"/><use xlink:href="#i" x="58.457"/><path d="M987.055 890.096c-.896 0-1.624-.7-1.624-1.597s.73-1.596 1.624-1.596c.868 0 1.568.7 1.568 1.596s-.7 1.597-1.568 1.597zm0 9.184c-.896 0-1.624-.7-1.624-1.596s.73-1.597 1.624-1.597c.868 0 1.568.7 1.568 1.597s-.7 1.596-1.568 1.596zm18.845 0h-9.155c-.477 0-.812-.392-.812-.784 0-.168.084-.336.168-.448l8.345-11.787c.392-.6.644-1.372.644-2.1 0-2.044-1.624-3.724-3.668-3.724-2.66 0-3.724 2.912-4.48 2.912-.42 0-.867-.336-.867-.784 0-.645 2.128-3.724 5.348-3.724 2.912 0 5.264 2.38 5.264 5.235 0 1.064-.336 2.185-.98 3.08l-7.42 10.528h7.615c.505 0 .784.42.784.812 0 .364-.28.784-.784.784zm9.66.28c-1.876 0-4.004-1.008-5.04-2.66-.112-.168-.14-.308-.14-.448 0-.448.42-.812.84-.812s.448.224.868.672c.896 1.063 2.07 1.65 3.472 1.65 2.464 0 4.676-2.128 4.676-5.067 0-2.968-2.212-5.096-4.676-5.096-1.932 0-3.192 1.23-3.696 1.987-.168.28-.42.393-.756.393-.476 0-.812-.3-.812-.84v-9.212c0-.476.363-.783.784-.783h9.352c.56 0 .84.392.84.783s-.28.784-.84.784h-8.54v6.552c.896-.728 2.1-1.26 3.668-1.26 3.444 0 6.272 2.912 6.272 6.692 0 3.724-2.828 6.664-6.272 6.664zm10.996-15.498c-1.42 0-2.58-1.3-2.58-2.874s1.16-2.857 2.58-2.857c1.404 0 2.563 1.273 2.563 2.857s-1.16 2.874-2.563 2.874zm0-4.817c-.815 0-1.648.768-1.648 1.943s.833 1.943 1.648 1.943 1.633-.768 1.633-1.943-.816-1.943-1.633-1.943zm6.172-.604l-3.118 11.266c-.082.23-.213.343-.408.343-.245 0-.506-.196-.506-.474 0-.05 0-.098.016-.13l3.12-11.266c.08-.244.23-.358.424-.358.23 0 .5.212.5.5 0 .033 0 .065-.017.13zm2.024 11.314c-1.404 0-2.563-1.3-2.563-2.873s1.16-2.857 2.563-2.857c1.42 0 2.58 1.3 2.58 2.857 0 1.583-1.16 2.873-2.58 2.873zm0-4.8c-.816 0-1.633.767-1.633 1.927 0 1.175.816 1.942 1.633 1.942.833 0 1.65-.768 1.65-1.942 0-1.16-.816-1.927-1.65-1.927z"/></g><g fill="#fff"><path d="M49.24 81.02c-4.38 0-10.5-1.8-13.92-4.98-.66-.6-.84-1.26-.84-1.86a2.6 2.6 0 0 1 2.58-2.58c.9 0 1.2.3 2.28 1.14 2.94 2.22 6.42 3.18 9.9 3.18 7.14 0 10.26-2.58 10.26-7.02 0-12.48-23.938-5.4-23.938-21.72 0-7.32 6.18-10.98 14.1-10.98 4.14 0 10.08 1.62 13.02 5.1.48.54.66 1.08.66 1.62 0 1.44-1.32 2.7-2.58 2.7-.9 0-1.38-.42-2.4-1.32-2.4-2.04-5.46-2.94-8.7-2.94-6.48 0-8.94 2.58-8.94 5.82 0 11.22 23.94 4.56 23.94 21.72 0 8.94-7.5 12.12-15.42 12.12zm60.418-29.458l-9.3 26.34c-.48 1.32-1.32 2.1-2.64 2.1-1.26 0-1.98-.54-2.52-2.1l-7.02-19.8-7.08 19.8c-.48 1.44-1.32 2.1-2.58 2.1-1.2 0-2.04-.66-2.52-2.1l-9.24-26.34c-.12-.36-.12-.6-.12-.96 0-1.5 1.38-2.46 2.64-2.46.96 0 1.92.48 2.34 1.68l6.96 20.04 7.08-19.62c.48-1.38 1.08-2.1 2.52-2.1 1.32 0 2.04.66 2.52 2.1l7.02 19.62 7.02-20.04c.42-1.2 1.38-1.68 2.28-1.68 1.38 0 2.76 1.02 2.76 2.52 0 .3 0 .54-.12.9z"/><use xlink:href="#j"/><use xlink:href="#k"/><use xlink:href="#j" x="67.14"/><use xlink:href="#l"/><path d="M266.677 81.02c-4.38 0-10.5-1.8-13.92-4.98a2.4 2.4 0 0 1-.84-1.86c0-1.38 1.14-2.58 2.58-2.58.9 0 1.2.3 2.28 1.14 2.94 2.22 6.42 3.18 9.9 3.18 7.14 0 10.26-2.58 10.26-7.02 0-12.48-23.94-5.4-23.94-21.72 0-7.32 6.18-10.98 14.1-10.98 4.14 0 10.08 1.62 13.02 5.1.48.54.66 1.08.66 1.62 0 1.44-1.32 2.7-2.58 2.7-.9 0-1.38-.42-2.4-1.32-2.4-2.04-5.46-2.94-8.7-2.94-6.48 0-8.94 2.58-8.94 5.82 0 11.22 23.938 4.56 23.938 21.72 0 8.94-7.5 12.12-15.42 12.12z"/><use xlink:href="#j" x="174.118"/><use xlink:href="#l" x="105.778"/><use xlink:href="#k" x="205.017"/><use xlink:href="#m"/><path d="M450.933 80c-.9 0-1.8-.48-2.28-1.56l-3.18-7.8h-19.98l-3.24 7.8c-.48 1.08-1.38 1.56-2.22 1.56-1.32 0-2.7-1.02-2.7-2.52 0-.36.06-.72.24-1.02l15.42-37.498c.72-1.56 1.68-1.86 2.46-1.86.54 0 1.86.3 2.46 1.86l15.48 37.498c.12.3.18.66.18 1.02 0 1.5-1.26 2.52-2.64 2.52zm-15.48-33.6l-7.86 19.08h15.72l-7.86-19.08z"/><use xlink:href="#n"/><path d="M506.372 80c-1.26 0-2.52-.9-2.52-2.52v-18.9c0-3.48-2.88-6.36-6.3-6.36-3.54 0-6.36 2.88-6.36 6.3v18.9c0 1.68-1.2 2.58-2.58 2.58-1.32 0-2.52-.9-2.52-2.52v-18.9c0-3.48-2.88-6.36-6.36-6.36s-6.36 2.88-6.36 6.3v18.9c0 1.68-1.26 2.58-2.64 2.58-1.26 0-2.52-.9-2.52-2.52v-26.82c0-1.74 1.32-2.58 2.64-2.58.84 0 1.68.36 2.16 1.14 1.86-1.32 4.2-2.1 6.66-2.1 3.6 0 6.84 1.62 8.94 4.26a11.24 11.24 0 0 1 8.88-4.26c6.36 0 11.52 5.1 11.52 11.4v18.9c0 1.68-1.26 2.58-2.64 2.58z"/><use xlink:href="#o"/><use xlink:href="#m" x="162.354"/><use xlink:href="#p"/><path d="M626.61 80c-.78 0-1.62-.42-2.16-1.32l-20.16-30.3v29.04c0 1.68-1.26 2.58-2.64 2.58-1.26 0-2.52-.9-2.52-2.52V39.862c0-1.68 1.32-2.58 2.64-2.58.84 0 1.56.36 2.16 1.26l20.16 30.3v-28.98c0-1.74 1.26-2.58 2.52-2.58 1.38 0 2.64.84 2.64 2.52V77.42c0 1.62-1.32 2.58-2.64 2.58z"/><use xlink:href="#o" x="121.968"/><path d="M699.988 42.382h-9.96v35.1c0 1.62-1.2 2.52-2.52 2.52-1.26 0-2.58-.9-2.58-2.52v-35.1h-9.84c-1.74 0-2.64-1.32-2.64-2.58 0-1.2.9-2.52 2.58-2.52h24.96c1.68 0 2.58 1.32 2.58 2.52 0 1.26-.9 2.58-2.58 2.58zm15.42 9.84c-4.62 0-8.52 3.9-8.52 8.58v16.62c0 1.68-1.26 2.58-2.64 2.58-1.26 0-2.52-.9-2.52-2.52v-26.76c0-1.68 1.38-2.58 2.52-2.58 1.2 0 2.34.66 2.58 2.04a13.88 13.88 0 0 1 8.58-3.06c1.74 0 2.64 1.2 2.64 2.58 0 1.32-.9 2.52-2.64 2.52z"/><use xlink:href="#q"/><use xlink:href="#m" x="369.771"/><path d="M806.248 80c-1.32 0-2.52-.9-2.52-2.52V60.8c0-4.68-3.9-8.58-8.58-8.58-4.62 0-8.52 3.9-8.52 8.58v16.62c0 1.68-1.26 2.64-2.64 2.64-1.26 0-2.52-.9-2.52-2.58V39.862c0-1.74 1.26-2.58 2.52-2.58 1.38 0 2.64.84 2.64 2.52v10.38c2.22-2.1 5.22-3.06 8.52-3.06 7.44 0 13.68 6.18 13.68 13.68v16.62c0 1.68-1.2 2.58-2.58 2.58z"/><use xlink:href="#p" x="247.376"/><use xlink:href="#o" x="322.495"/><path d="M897.625 80h-18.24c-1.44 0-2.64-1.14-2.64-2.52V39.862c0-1.74 1.38-2.58 2.52-2.58 1.32 0 2.64.84 2.64 2.52v35.1h15.72c1.38 0 2.52 1.14 2.52 2.52 0 1.44-1.14 2.58-2.52 2.58z"/><use xlink:href="#q" x="184.258"/><use xlink:href="#l" x="724.727"/><use xlink:href="#k" x="823.967"/><path d="M1012.765 53.242h-2.7v24.18c0 1.68-1.26 2.52-2.64 2.52-1.26 0-2.52-.84-2.52-2.52v-24.18h-2.46c-1.62 0-2.52-1.2-2.52-2.52 0-1.38.9-2.58 2.52-2.58h2.46v-4.08c0-3.84 3.18-6.78 6.9-6.78 1.74 0 2.64 1.2 2.64 2.58 0 1.26-.9 2.52-2.64 2.52-1.02 0-1.74.78-1.74 1.62v4.14h2.7c1.74 0 2.64 1.2 2.64 2.58 0 1.32-.9 2.52-2.64 2.52zm7.56-9.96a4.32 4.32 0 1 1 0-8.64 4.32 4.32 0 1 1 0 8.64zm0 36.72c-1.32 0-2.64-.9-2.64-2.52v-26.76c0-1.68 1.32-2.58 2.64-2.58 1.26 0 2.52.9 2.52 2.58v26.76c0 1.68-1.26 2.52-2.52 2.52z"/><use xlink:href="#n" x="571.791"/><use xlink:href="#n" x="582.23"/></g><defs ><path id="G" d="M912.985 1041.236h-8.303c.18 2.28 1.66 3.94 3.842 3.94 1.08 0 2.36-.48 2.94-1.38.14-.22.3-.28.48-.28.3 0 .62.24.62.54 0 .18 0 .22-.38.658-.92 1.082-2.262 1.602-3.66 1.602-3.22 0-5.02-2.64-5.02-5.662 0-3 1.8-5.64 5.02-5.64s5.02 2.66 5.02 5.64c0 .3-.28.58-.56.58zm-4.46-5.08c-2.402 0-3.662 1.84-3.842 3.94h7.7c-.18-2.28-1.66-3.94-3.86-3.94z"/><path id="H" d="M968.54 1046.098c-1.08 0-1.98-1-1.98-2.12v-11.684c0-.36.3-.56.58-.56.26 0 .56.2.56.56v11.684c0 1.28 1.42.54 1.42 1.44 0 .34-.24.68-.58.68z"/><path id="I" d="M104.714 1045.51c-.633 0-1.267-.367-1.4-1.1-1.334 1.034-2.97 1.668-4.804 1.668-4.136 0-7.604-3.436-7.604-7.605v-9.24a1.37 1.37 0 0 1 1.4-1.435c.768 0 1.468.5 1.468 1.4v9.272c0 2.602 2.168 4.77 4.736 4.77 2.603 0 4.77-2.17 4.77-4.77v-9.24c0-1.034.667-1.468 1.4-1.468.768 0 1.435.5 1.435 1.435v14.9c0 .934-.667 1.4-1.4 1.4z"/><path id="J" d="M77.736 187.818c-.896 0-1.597-.7-1.597-1.596s.7-1.596 1.597-1.596 1.596.7 1.596 1.596-.7 1.596-1.596 1.596zm0 17.556c-.393 0-.812-.252-.812-.784v-13.3c0-.504.393-.784.813-.784.363 0 .783.252.783.784v13.3c0 .504-.363.784-.783.784z"/><path id="K" d="M85.83 205.542c-1.513 0-2.772-1.4-2.772-2.968v-16.352c0-.504.42-.784.813-.784.363 0 .783.28.783.784v16.352c0 1.792 1.988.756 1.988 2.016 0 .476-.336.952-.812.952z"/><path id="L" d="M108.956 205.85c-4.508 0-7.027-3.696-7.027-7.924 0-4.2 2.52-7.896 7.027-7.896s7.028 3.696 7.028 7.896c0 4.228-2.52 7.924-7.028 7.924zm0-14.224c-3.304 0-5.432 2.66-5.432 6.3s2.128 6.328 5.432 6.328c3.332 0 5.433-2.688 5.433-6.328s-2.1-6.3-5.433-6.3z"/><path id="M" d="M131.86 205.375c-.393 0-.812-.28-.812-.784v-8.176a4.77 4.77 0 0 0-4.788-4.788c-2.632 0-4.788 2.128-4.788 4.788v8.176c0 .504-.42.784-.783.784-.393 0-.812-.28-.812-.784v-13.3c0-.504.42-.784.813-.784.363 0 .783.28.783.784v.896c1.26-1.372 2.912-2.156 4.788-2.156a6.44 6.44 0 0 1 6.385 6.384v8.176c0 .504-.42.784-.784.784z"/><path id="N" d="M58.848 953.142v-1.68h2.896v-16.24l-2.962.224v-1.23c1.35-.28 2.666-.784 3.752-1.568h1.58v18.816h2.765v1.68h-8.03z"/><path id="O" d="M72.404 949.4c.33 2.016 1.646 2.352 2.567 2.352 2.106 0 3.423-2.464 3.49-8.092-.955.868-2.238 1.54-3.653 1.54-2.666 0-5.102-1.624-5.102-6.216 0-3.92 1.975-6.328 5.102-6.328 4.113 0 6.09 2.017 6.09 9.296 0 8.12-2.238 11.48-6 11.48-3.062 0-4.213-1.568-4.674-3.92l2.172-.112zm6.122-9.52c0-4.09-1.25-5.544-3.357-5.544-1.843 0-3.094 1.176-3.094 4.676 0 3.61 1.448 4.508 2.962 4.508s2.7-.84 3.49-1.736v-1.903z"/><path id="P" d="M97.28 948.438c.197 1.456.92 3.304 3.027 3.304 2.04 0 3.555-1.792 3.555-5.292 0-3.78-1.514-4.955-3.258-4.955-1.35 0-2.6.867-2.995 1.96l-1.844-.28.8-10.248h8.36l-.197 1.68h-6.254l-.46 6.16c.823-.588 1.942-.952 3.16-.952 2.765 0 5.068 2.185 5.068 6.58 0 4.62-2.633 7.028-5.793 7.028-3.423 0-5.134-2.185-5.332-4.816l2.173-.168z"/><path id="Q" d="M528.848 953.142v-1.68h2.896v-16.24l-2.963.224v-1.23c1.35-.28 2.666-.784 3.752-1.568h1.58v18.816h2.766v1.68h-8.03z"/><path id="R" d="M280.59 693.586a4.32 4.32 0 0 0 4.317 4.317 4.32 4.32 0 0 0 4.317-4.317 4.32 4.32 0 0 0-4.317-4.317 4.32 4.32 0 0 0-4.317 4.317zm1.993 0c0-1.284 1.04-2.325 2.325-2.325s2.325 1.04 2.325 2.325-1.04 2.325-2.325 2.325-2.325-1.04-2.325-2.325z"/><path id="S" d="M590.598 254.233v-3.403h-17.016v3.403a.85.85 0 0 1-.851.851v1.702h18.717v-1.702a.85.85 0 0 1-.851-.851z"/><path id="T" d="M352.02 692.415h-9.323c-.42 0-.812-.392-.812-.784v-18.368c0-.504.393-.783.813-.783.363 0 .783.252.783.783v17.557h8.54c.504 0 .784.42.784.812 0 .364-.28.784-.784.784z"/><path id="U" d="M614.582 516.157c-1.372 1.904-3.332 3.052-6.244 3.052-6.02 0-8.147-4.984-8.147-10.444 0-5.488 2.128-10.472 8.147-10.472 2.828 0 4.9 1.12 6.216 3.052.14.14.168.28.168.448 0 .448-.42.784-.867.784a.74.74 0 0 1-.616-.308c-1.008-1.456-2.52-2.38-4.9-2.38-4.647 0-6.552 3.64-6.552 8.876 0 5.208 1.904 8.848 6.552 8.848 2.38 0 3.92-.896 4.956-2.38.14-.28.393-.364.616-.364.42 0 .84.364.84.812 0 .14-.056.308-.168.476z"/><path id="V" d="M626.006 519.21c-6.02 0-8.147-4.984-8.147-10.444 0-5.488 2.128-10.472 8.147-10.472 5.992 0 8.148 4.984 8.148 10.472 0 5.46-2.156 10.444-8.148 10.444zm0-19.32c-4.647 0-6.552 3.64-6.552 8.876 0 5.208 1.904 8.848 6.552 8.848 4.62 0 6.552-3.64 6.552-8.848 0-5.236-1.932-8.876-6.552-8.876z"/><path id="W" d="M651.43 518.76c-.252 0-.476-.168-.672-.448l-10.948-16.156v15.79c0 .504-.42.784-.783.784-.393 0-.812-.28-.812-.784v-18.368c0-.476.42-.84.84-.84.252 0 .477.168.672.448l10.948 16.156v-15.764c0-.504.42-.784.784-.784.392 0 .812.28.812.784v18.368c0 .476-.42.812-.84.812z"/><path id="X" d="M704.012 518.76a.69.69 0 0 1-.588-.336l-6.02-8.316h-5.013v7.84c0 .504-.42.784-.783.784-.393 0-.812-.28-.812-.784v-18.368c0-.42.393-.784.813-.784h7.56c3.164 0 5.684 2.52 5.684 5.628 0 3.08-2.407 5.516-5.46 5.684l5.292 7.336c.14.168.196.336.196.504 0 .42-.42.812-.868.812zm-4.815-18.396h-6.805v8.148h6.776c2.268 0 4.088-1.82 4.088-4.088 0-2.548-2.156-4.06-4.06-4.06z"/><path id="Y" d="M737.555 518.733h-12.432c-.42 0-.812-.392-.812-.784v-18.368c0-.42.393-.784.813-.784h12.432a.77.77 0 0 1 .812.784.77.77 0 0 1-.812.784h-11.648v6.888h8.54a.77.77 0 0 1 .813.784c0 .392-.28.812-.784.812h-8.568v8.288h11.648c.532 0 .812.42.812.812 0 .364-.252.784-.812.784z"/><path id="Z" d="M612.174 527.608h-5.432v17.584c0 .504-.392.784-.812.784-.363 0-.783-.252-.783-.784v-17.584h-5.433a.77.77 0 0 1-.812-.784.77.77 0 0 1 .812-.784h12.46c.504 0 .784.392.784.784s-.28.784-.784.784z"/><path id="a" d="M422.773 409.945h-3.192c-.504 0-.812-.42-.812-.784 0-.392.308-.812.812-.812h.784v-16.77h-.784c-.504 0-.812-.392-.812-.784s.308-.784.812-.784h3.192c.504 0 .784.392.784.784s-.28.784-.784.784h-.812v16.77h.813c.504 0 .784.42.784.812 0 .364-.28.784-.784.784z"/><path id="b" d="M453.74 410.42c-6.16 0-8.147-5.18-8.147-10.444 0-5.236 1.987-10.472 8.147-10.472 2.52 0 4.732.896 6.216 3.052.14.14.168.28.168.448 0 .448-.42.784-.867.784-.393 0-.616-.336-.925-.728-.98-1.26-2.464-1.96-4.592-1.96-4.228 0-6.552 3.248-6.552 8.876 0 4.256 1.344 8.848 6.552 8.848 4.424 0 6.356-3.388 6.552-8.036h-3.416a.8.8 0 0 1-.84-.812c0-.392.28-.812.784-.812h4.256c.477 0 .813.336.813.812 0 5.46-2.156 10.444-8.148 10.444z"/><path id="c" d="M660.027 238.48h-9.323c-.42 0-.812-.392-.812-.784V219.33c0-.504.393-.784.813-.784.363 0 .783.252.783.784v17.556h8.54c.504 0 .784.42.784.812 0 .364-.28.784-.784.784z"/><path id="d" d="M743.493 238.48c-.28 0-.588-.168-.728-.476l-1.792-4.312h-10.08l-1.792 4.312c-.112.308-.448.476-.7.476-.42 0-.812-.308-.812-.756 0-.14 0-.224.056-.364l7.56-18.34c.14-.336.477-.532.813-.532.28 0 .532.168.672.532l7.56 18.34c.057.14.057.224.057.364 0 .448-.393.756-.812.756zm-7.56-17.052l-4.396 10.668h8.82l-4.424-10.668z"/><path id="e" d="M1012.282 716.722c-6.847 0-6.847-8.127-6.847-12.8 0-4.512.704-11.104 6.815-11.104s6.88 6.432 6.88 11.104c0 4.863-.128 12.8-6.848 12.8zm4.096-12.8c0-2.816-.063-8.352-4.096-8.352s-4.096 5.535-4.096 8.352v1.792c0 3.327.448 8.287 4.064 8.287 3.68 0 4.127-4.96 4.127-8.287v-1.792z"/><path id="f" d="M1023.796 698.785c-1.624 0-2.95-1.475-2.95-3.285s1.325-3.266 2.95-3.266c1.604 0 2.93 1.456 2.93 3.266s-1.325 3.285-2.93 3.285zm0-4.965c-.598 0-1.344.598-1.344 1.68s.746 1.68 1.344 1.68 1.344-.597 1.344-1.68-.747-1.68-1.344-1.68zm7.78-.914l-3.434 12.354c-.093.41-.4.598-.728.598-.43 0-.84-.3-.84-.784 0-.056 0-.15.02-.224l3.452-12.372a.76.76 0 0 1 .747-.579c.392 0 .82.28.82.747 0 .093-.02.168-.038.26zm2.65 12.615c-1.605 0-2.93-1.475-2.93-3.284 0-1.792 1.324-3.266 2.93-3.266 1.623 0 2.948 1.474 2.948 3.266 0 1.8-1.325 3.284-2.948 3.284zm0-4.964c-.58 0-1.325.597-1.325 1.68 0 1.1.746 1.698 1.325 1.698.597 0 1.344-.598 1.344-1.698 0-1.083-.747-1.68-1.344-1.68z"/><path id="g" d="M1023.796 458.835c-1.624 0-2.95-1.474-2.95-3.284s1.325-3.266 2.95-3.266c1.604 0 2.93 1.456 2.93 3.266s-1.325 3.284-2.93 3.284zm0-4.964c-.598 0-1.344.597-1.344 1.68s.746 1.68 1.344 1.68 1.344-.597 1.344-1.68-.747-1.68-1.344-1.68zm7.78-.915l-3.434 12.354c-.093.41-.4.597-.728.597-.43 0-.84-.3-.84-.784 0-.056 0-.15.02-.224l3.452-12.373c.112-.392.43-.58.747-.58.392 0 .82.28.82.747 0 .093-.02.168-.038.26zm2.65 12.615c-1.605 0-2.93-1.474-2.93-3.284 0-1.792 1.324-3.266 2.93-3.266 1.623 0 2.948 1.474 2.948 3.266 0 1.8-1.325 3.284-2.948 3.284zm0-4.964c-.58 0-1.325.597-1.325 1.68 0 1.1.746 1.698 1.325 1.698.597 0 1.344-.597 1.344-1.698 0-1.083-.747-1.68-1.344-1.68z"/><path id="h" d="M894.495 899.28h-.028c-.924 0-2.24-.504-2.77-2.184-1.177 1.65-2.996 2.66-5.433 2.66-4.563 0-7.027-3.752-7.027-7.924 0-4.228 2.52-7.896 7.027-7.896 2.437 0 4.256 1.008 5.433 2.632v-1.372c0-.448.363-.784.812-.784.393 0 .784.28.784.784v11.284c0 1.792 2.016.672 2.016 2.016 0 .364-.252.784-.812.784zm-8.232-13.748c-3.304 0-5.432 2.66-5.432 6.3s2.128 6.328 5.432 6.328c3.332 0 5.433-2.687 5.433-6.328s-2.1-6.3-5.433-6.3z"/><path id="i" d="M923.587 892.644h-11.62c.252 3.19 2.324 5.516 5.376 5.516 1.513 0 3.305-.672 4.116-1.932.196-.31.42-.393.672-.393.42 0 .868.336.868.757 0 .252 0 .308-.532.924-1.288 1.512-3.164 2.24-5.124 2.24-4.508 0-7.027-3.695-7.027-7.924 0-4.2 2.52-7.896 7.027-7.896s7.028 3.724 7.028 7.896c0 .42-.392.813-.784.813zm-6.244-7.112c-3.36 0-5.124 2.576-5.376 5.516h10.78c-.252-3.19-2.324-5.516-5.404-5.516z"/><path id="j" d="M138.038 66.68h-22.2c.84 5.64 4.44 9.24 9.72 9.24 2.7 0 5.4-.96 7.14-3.12.54-.6 1.14-.96 1.86-.96 1.32 0 2.7 1.2 2.7 2.64 0 .72-.18 1.26-1.44 2.52-2.7 2.64-6.42 4.02-10.26 4.02-9.66 0-15.06-7.98-15.06-16.98 0-8.94 5.4-16.92 15.06-16.92 9.78 0 15 7.98 15 16.92 0 1.32-.96 2.64-2.52 2.64zm-12.48-14.46c-5.64 0-8.94 4.14-9.72 9.3h19.44c-.84-5.76-4.44-9.3-9.72-9.3z"/><path id="k" d="M171.158 79.94c-1.32 0-2.58-.84-2.58-2.52 0 0-3.54 3.6-9.9 3.6-9.66 0-15.06-7.92-15.06-16.98 0-9 5.4-16.92 15.06-16.92 4.2 0 7.56 1.44 9.9 3.9v-11.16c0-1.74 1.26-2.58 2.58-2.58s2.58.84 2.58 2.52V77.42c0 1.68-1.26 2.52-2.58 2.52zm-12.48-27.72c-6 0-9.9 4.68-9.9 11.82 0 7.2 3.9 11.88 9.9 11.88 6.06 0 9.9-4.68 9.9-11.88 0-7.14-3.84-11.82-9.9-11.82z"/><path id="l" d="M236.917 80c-1.32 0-2.52-.9-2.52-2.52V60.8c0-4.68-3.9-8.58-8.58-8.58-4.62 0-8.52 3.9-8.52 8.58v16.62c0 1.68-1.26 2.64-2.64 2.64-1.26 0-2.52-.9-2.52-2.58v-26.82c0-1.74 1.26-2.52 2.52-2.52 1.2 0 2.28.66 2.58 1.98 2.34-1.86 5.28-3 8.58-3 7.44 0 13.68 6.18 13.68 13.68v16.62c0 1.68-1.2 2.58-2.58 2.58z"/><path id="m" d="M395.256 81.02c-3.3 0-8.82-1.02-11.64-4.5-.36-.54-.54-1.08-.54-1.56 0-1.5 1.44-2.7 2.7-2.7.72 0 1.26.36 1.86 1.02 1.86 2.04 4.92 2.64 7.62 2.64 5.4 0 7.14-1.86 7.14-4.56 0-7.68-18.3-2.94-18.3-15.3 0-6.54 6.12-8.94 11.82-8.94 3.24 0 10.86 1.62 10.86 4.98 0 1.32-1.08 2.7-2.52 2.7-.54 0-1.38-.3-1.98-.78-1.62-1.38-3.96-1.8-6.36-1.8-4.98 0-6.72 1.86-6.72 3.84 0 7.14 18.36 2.52 18.36 15.3 0 7.08-5.94 9.66-12.3 9.66z"/><path id="n" d="M462.214 80.12c-3.24 0-6-2.76-6-6.12V39.862c0-1.74 1.26-2.58 2.58-2.58s2.58.84 2.58 2.52V74c0 .72.54 1.02.84 1.02 1.68 0 2.58 1.2 2.58 2.58 0 1.32-.9 2.52-2.58 2.52z"/><path id="o" d="M527.432 81.02c-9.66 0-15.06-7.92-15.06-16.98 0-9 5.4-16.92 15.06-16.92s15.06 7.92 15.06 16.92c0 9.06-5.4 16.98-15.06 16.98zm0-28.8c-6 0-9.9 4.68-9.9 11.82 0 7.2 3.9 11.88 9.9 11.88 6.06 0 9.9-4.68 9.9-11.88 0-7.14-3.84-11.82-9.9-11.82z"/><path id="p" d="M584.192 80h-1.02c-5.7 0-7.86-3-7.86-7.92v-18.84h-1.8c-1.44 0-2.58-1.14-2.58-2.52 0-1.44 1.14-2.58 2.52-2.58h1.8v-8.34c0-1.68 1.26-2.52 2.58-2.52s2.52.84 2.52 2.52v8.34h3.84c1.68 0 2.52 1.38 2.52 2.52 0 1.44-.96 2.58-2.52 2.58h-3.84v19.38c0 1.68.6 2.28 2.28 2.28h1.5c1.56 0 2.58 1.14 2.58 2.52 0 1.44-.96 2.58-2.52 2.58z"/><path id="q" d="M747.687 80c-3.3 0-4.8-2.34-5.34-3.42-2.4 2.64-5.88 4.44-10.56 4.44-9.78 0-15.06-8.04-15.06-16.98s5.4-16.92 15.06-16.92c4.2 0 7.56 1.5 9.9 3.96v-.24c0-.66.24-2.7 2.52-2.7 1.26 0 2.64.66 2.64 2.52v23.16c0 .78.54 1.08.84 1.08 1.68 0 2.58 1.2 2.58 2.58 0 1.26-.9 2.52-2.58 2.52zm-15.9-27.78c-6 0-9.9 4.68-9.9 11.82 0 7.2 3.9 11.88 9.9 11.88 6.06 0 9.9-4.68 9.9-11.88 0-7.14-3.84-11.82-9.9-11.82z"/></defs></svg>