<svg viewBox="-420,-420,840,840" xmlns="http://www.w3.org/2000/svg" xmlns:xlink="http://www.w3.org/1999/xlink"><path id="O-text-1" fill="none" d="M2.486033002269127e-14,-406A406,406,0,1,1,-2.486033002269127e-14,406A406,406,0,1,1,2.486033002269127e-14,-406Z"/><g fill-opacity="0.75"><path d="M280.9926352248833,283.9777965781403A399.5,399.5,0,0,1,68.59950593783942,393.5662050850966Q0,0,-370.65937975486816,-119.67403310550061L-326.0529677675069,-230.84564585454302L-236.01400708123865,-309.8509939655786Q0,0,280.9926352248833,283.9777965781403Z" fill="#bcbd22" style="mix-blend-mode: multiply;"><title>United States owes Japan 796B</title></path><path d="M392.64317810743063,73.69928551686596A399.5,399.5,0,0,1,357.34288620442305,178.62337943027708Q0,0,176.87692697863295,-347.0227697177742L228.9834475216435,-327.3634536124989L265.32000862977173,-285.15880316184854Q0,0,392.64317810743063,73.69928551686596Z" fill="#1f77b4" style="mix-blend-mode: multiply;"><title>Italy owes France 366B</title></path><path d="M67.61537707669397,393.7364737775464A399.5,399.5,0,0,1,-36.63678750589416,397.8165353542358Q0,0,380.95307741085,-81.14803023612416L398.25639653398684,-31.497501801949976L388.97294923117136,20.255734161086178Q0,0,67.61537707669397,393.7364737775464Z" fill="#ff7f0e" style="mix-blend-mode: multiply;"><title>United States owes Britain 345B</title></path><path d="M281.4920370908357,-283.4827738231224A399.5,399.5,0,0,1,342.3299000459665,-205.93807208604875Q0,0,-107.11369201310347,-374.48218513478315L-61.64384209420727,-394.7154503333565L-12.169893997283543,-389.30982992996064Q0,0,281.4920370908357,-283.4827738231224Z" fill="#17becf" style="mix-blend-mode: multiply;"><title>Britain owes Spain 326B</title></path><path d="M-37.63121331839816,397.7237003048539A399.5,399.5,0,0,1,-133.28298263387225,376.61106800015705Q0,0,-377.26656807357017,96.85136351125999L-396.2119976577045,51.149808524481685L-389.49414748367417,2.1351992801329707Q0,0,-37.63121331839816,397.7237003048539Z" fill="#e377c2" style="mix-blend-mode: multiply;"><title>United States owes Germany 324B</title></path><path d="M-134.22409281401113,376.2766839816888A399.5,399.5,0,0,1,-221.2437580428178,332.64312637884325Q0,0,86.74759638415844,-379.7171375136644L135.7625885826297,-375.7243265232418L176.00881821793448,-347.4638771290133Q0,0,-134.22409281401113,376.2766839816888Z" fill="#1f77b4" style="mix-blend-mode: multiply;"><title>United States owes France 322B</title></path><path d="M342.8436749095042,-205.08160467127757A399.5,399.5,0,0,1,382.17643128102543,-116.36763026417465Q0,0,-342.3207969622884,185.81367540389417L-371.6576254999565,146.5293806979818L-377.02326095959785,97.79422628862602Q0,0,342.8436749095042,-205.08160467127757Z" fill="#e377c2" style="mix-blend-mode: multiply;"><title>Britain owes Germany 321B</title></path><path d="M-222.07467360612338,332.08897805066306A399.5,399.5,0,0,1,-260.96597214767877,302.4847291699483Q0,0,-152.93828178196716,-358.21799503316356L-134.09534762613458,-376.3225846863647L-108.04956177061332,-374.21323092747326Q0,0,-222.07467360612338,332.08897805066306Z" fill="#17becf" style="mix-blend-mode: multiply;"><title>United States owes Spain 163B</title></path><path d="M-231.61870324911627,-325.50426464978585A399.5,399.5,0,0,1,-202.13780304304757,-344.5875194793481Q0,0,52.100589150440406,-385.99971322551136L70.78792067188762,-393.17848400815444L85.79803344312317,-379.932819663283Q0,0,-231.61870324911627,-325.50426464978585Z" fill="#1f77b4" style="mix-blend-mode: multiply;"><title>Spain owes France 118B</title></path><path d="M-274.65821891414873,290.1087947355398A399.5,399.5,0,0,1,-297.6493285705557,266.46787273796696Q0,0,335.8800520713484,197.21774925332724L335.86114662222246,216.32739121434898L318.47012672860086,224.24769426120952Q0,0,-274.65821891414873,290.1087947355398Z" fill="#d62728" style="mix-blend-mode: multiply;"><title>Germany owes Italy 111B</title></path><path d="M-298.3145674048069,265.72291748000004A399.5,399.5,0,0,1,-315.02440261054636,245.68246937839987Q0,0,-377.9178587243485,-94.27800410065636L-384.25587627097497,-109.30540494973327L-370.95740621602243,-118.74701164021313Q0,0,-298.3145674048069,265.72291748000004Z" fill="#bcbd22" style="mix-blend-mode: multiply;"><title>Germany owes Japan 89B</title></path><path d="M319.00016779263734,240.49769842613716A399.5,399.5,0,0,1,307.8543831677664,254.60936503670496Q0,0,-169.78039266676342,-350.54938063833407L-166.0031382196709,-363.3775008186677L-153.8333479048092,-357.8345302963339Q0,0,319.00016779263734,240.49769842613716Z" fill="#17becf" style="mix-blend-mode: multiply;"><title>Portugal owes Spain 62B</title></path><path d="M-201.27570346140695,-345.0917866251177A399.5,399.5,0,0,1,-186.73434454160144,-353.172103327285Q0,0,-333.78741317497554,200.73916609859214L-346.5696335055302,198.72025345153546L-341.8551935057348,186.6688958374067Q0,0,-201.27570346140695,-345.0917866251177Z" fill="#e377c2" style="mix-blend-mode: multiply;"><title>Spain owes Germany 58B</title></path><path d="M398.0736419158113,33.72870605111381A399.5,399.5,0,0,1,396.4652842548187,49.14802519680555Q0,0,36.11565562626373,-387.8220073934499L44.75400660986453,-396.98530059986376L51.135428058327626,-386.1287583142333Q0,0,398.0736419158113,33.72870605111381Z" fill="#1f77b4" style="mix-blend-mode: multiply;"><title>Greece owes France 54B</title></path><path d="M-315.6376236934491,244.89414143493227A399.5,399.5,0,0,1,-324.88370662720234,232.48833770357152Q0,0,20.098914904007426,-388.9810838841414L28.336942561142607,-398.4937486163196L35.145988756367906,-387.91108449532254Q0,0,-315.6376236934491,244.89414143493227Z" fill="#1f77b4" style="mix-blend-mode: multiply;"><title>Germany owes France 54B</title></path><path d="M-399.35419609370905,-10.792407625148796A399.5,399.5,0,0,1,-398.7325428873748,-24.750944276285956Q0,0,-326.03181421915417,213.1044488436761L-338.173504596614,212.69445406226245L-333.28452269736414,201.5730064527246Q0,0,-399.35419609370905,-10.792407625148796Z" fill="#e377c2" style="mix-blend-mode: multiply;"><title>Ireland owes Germany 49B</title></path><path d="M356.89521152507456,179.51617751743802A399.5,399.5,0,0,1,351.8741677689516,189.16876078493422Q0,0,-380.5538173798752,-83.00025347915846L-389.1286650193917,-90.438554058687L-378.1523724963912,-93.33291581939675Q0,0,356.89521152507456,179.51617751743802Z" fill="#bcbd22" style="mix-blend-mode: multiply;"><title>Italy owes Japan 39B</title></path><path d="M307.2168983737733,255.37820453906915A399.5,399.5,0,0,1,301.41782790690553,262.19752672342867Q0,0,-320.62330371370547,221.15819477403272L-331.3757076688923,223.13760410773622L-325.4980348031154,213.9188615791274Q0,0,307.2168983737733,255.37820453906915Z" fill="#e377c2" style="mix-blend-mode: multiply;"><title>Portugal owes Germany 33B</title></path><path d="M382.4661557529195,-115.41182653256773A399.5,399.5,0,0,1,384.60194202102133,-108.08143315879427Q0,0,-382.2586215740638,-74.75691427752129L-391.32209163753396,-80.41934217851728L-380.76012856736685,-82.04861055107685Q0,0,382.4661557529195,-115.41182653256773Z" fill="#bcbd22" style="mix-blend-mode: multiply;"><title>Britain owes Japan 28B</title></path><path d="M351.4001467534146,190.0478541359483A399.5,399.5,0,0,1,348.0351642818133,196.14223008656552Q0,0,379.2605927931718,-88.72233514832627L389.7758211456856,-87.60741549781339L380.74901706883577,-82.10015835012388Q0,0,351.4001467534146,190.0478541359483Z" fill="#ff7f0e" style="mix-blend-mode: multiply;"><title>Italy owes Britain 26B</title></path><path d="M-185.8508316584794,-353.63783504010365A399.5,399.5,0,0,1,-179.6877363655415,-356.8088667617828Q0,0,-383.6671072301116,-67.15505066395274L-392.9050461090864,-72.290211937832L-382.444319107508,-73.8010351038154Q0,0,-185.8508316584794,-353.63783504010365Z" fill="#bcbd22" style="mix-blend-mode: multiply;"><title>Spain owes Japan 26B</title></path><path d="M0.4993748699544511,-399.4996878906656A399.5,399.5,0,0,1,6.358620339923849,-399.4493934747839Q0,0,377.6816761981863,-95.21975353952739L388.08405787525396,-94.82095772073015L379.0376019976134,-89.67020838549878Q0,0,0.4993748699544511,-399.4996878906656Z" fill="#ff7f0e" style="mix-blend-mode: multiply;"><title>France owes Britain 22B</title></path><path d="M300.7613928426812,262.95025114140964A399.5,399.5,0,0,1,297.48631709878816,266.6498474385449Q0,0,376.22426211636525,-100.82437500424449L386.51554220601497,-101.02467833747474L377.44244680768213,-96.1636591849023Q0,0,300.7613928426812,262.95025114140964Z" fill="#ff7f0e" style="mix-blend-mode: multiply;"><title>Portugal owes Britain 19B</title></path><path d="M396.3411753664482,50.13903378748249A399.5,399.5,0,0,1,395.6949778675365,55.006676780276436Q0,0,-317.31713033826117,225.87626877096L-326.8815537454614,229.67085104765255L-320.06940685540064,221.95906107936213Q0,0,396.3411753664482,50.13903378748249Z" fill="#e377c2" style="mix-blend-mode: multiply;"><title>Greece owes Germany 19B</title></path><path d="M-398.6694195525921,-25.747697248478296A399.5,399.5,0,0,1,-398.33221608907627,-30.523689579824403Q0,0,-384.59955021378613,-61.59087574757625L-394.08810469607386,-65.53484368682322L-383.83379572280296,-66.19567403558607Q0,0,-398.6694195525921,-25.747697248478296Z" fill="#bcbd22" style="mix-blend-mode: multiply;"><title>Ireland owes Japan 19B</title></path><path d="M296.8187635303355,267.39272917624885A399.5,399.5,0,0,1,293.7174391259201,270.79570889013615Q0,0,14.641687429372954,-389.2247050088426L17.317811386709213,-399.12447107233896L19.126400398191986,-389.0301155538065Q0,0,296.8187635303355,267.39272917624885Z" fill="#1f77b4" style="mix-blend-mode: multiply;"><title>Portugal owes France 18B</title></path><path d="M-398.2546621570885,-31.519423696243837A399.5,399.5,0,0,1,-397.89251794484665,-35.80215305690298Q0,0,9.48000293167654,-389.3846164711896L11.871621377185464,-399.3235713126346L13.668580925207168,-389.26009286271704Q0,0,-398.2546621570885,-31.519423696243837Z" fill="#1f77b4" style="mix-blend-mode: multiply;"><title>Ireland owes France 17B</title></path><path d="M384.8709434420135,-107.11959155100628A399.5,399.5,0,0,1,385.5796528902345,-104.53985496951034Q0,0,-387.1049744230327,-43.12758719130067L-396.89314617530005,-45.56402658975496L-386.80748542932486,-45.71891529599774Q0,0,384.8709434420135,-107.11959155100628Z" fill="#7f7f7f" style="mix-blend-mode: multiply;"><title>Britain owes Ireland 12B</title></path><path d="M-397.80176924196815,-36.796771433917115A399.5,399.5,0,0,1,-397.5735583593656,-39.1856567314123Q0,0,-256.69578664044116,292.9462802649064L-264.187431994999,299.6752421804107L-258.45084985067064,291.3990532096254Q0,0,-397.80176924196815,-36.796771433917115Z" fill="#8c564b" style="mix-blend-mode: multiply;"><title>Ireland owes United States 11B</title></path><path d="M395.55622477267053,55.99574129871452A399.5,399.5,0,0,1,395.25734709049004,58.06788760569699Q0,0,284.2106643711539,266.3354055654398L290.7906857404386,273.93617338096374L282.81102912643115,267.82115637949306Q0,0,395.55622477267053,55.99574129871452Z" fill="#9467bd" style="mix-blend-mode: multiply;"><title>Greece owes Portugal 10B</title></path><path d="M347.5437216080619,197.01170414677898A399.5,399.5,0,0,1,346.5537365084554,198.74797536585896Q0,0,-172.40574381648588,-349.26567180168774L-175.93541616475073,-358.67391784033583L-170.6562346420196,-350.12383463255964Q0,0,347.5437216080619,197.01170414677898Z" fill="#17becf" style="mix-blend-mode: multiply;"><title>Italy owes Spain 10B</title></path><path d="M-395.0051044907379,-59.75966387339551A399.5,399.5,0,0,1,-394.79816079835837,-61.11188288895674Q0,0,7.17306213891537,-389.43394456512294L8.041077484778937,-399.41906698714797L8.506512779526975,-389.40709962753857Q0,0,-395.0051044907379,-59.75966387339551Z" fill="#1f77b4" style="mix-blend-mode: multiply;"><title>Japan owes France 8B</title></path><path d="M-178.79515360394296,-357.256970607632A399.5,399.5,0,0,1,-177.94095583863285,-357.68319255345745Q0,0,-387.31122123638403,-41.23430494601303L-397.2042122889912,-42.76755475687182L-387.2115835762845,-42.15969098968871Q0,0,-178.79515360394296,-357.256970607632Z" fill="#7f7f7f" style="mix-blend-mode: multiply;"><title>Spain owes Ireland 6B</title></path><path d="M-397.47435190286023,-40.17946713684988A399.5,399.5,0,0,1,-397.45868042714517,-40.334195828261166Q0,0,284.9789965285935,265.5131287480074L292.242517627893,272.3867854550045L284.8756140336223,265.6240473469348Q0,0,-397.47435190286023,-40.17946713684988Z" fill="#9467bd" style="mix-blend-mode: multiply;"><title>Ireland owes Portugal 4B</title></path><path d="M395.11189388080106,59.049481910738116Q0,0,336.36888196292426,196.38285375004696L345.0047967758363,201.42477554080554L336.36888196292426,196.38285375004696Q0,0,395.11189388080106,59.049481910738116Z" fill="#d62728" style="mix-blend-mode: multiply;"><title>Greece owes Italy 3B</title></path><path d="M346.0635897450602,199.60020504188535Q0,0,-255.97410006656173,293.57709395508675L-262.5459639963836,301.11437492954343L-255.97410006656173,293.57709395508675Q0,0,346.0635897450602,199.60020504188535Z" fill="#8c564b" style="mix-blend-mode: multiply;"><title>Italy owes United States 3B</title></path><path d="M394.9677299015577,60.00618581788228Q0,0,-255.2691320538963,294.19027893601526L-261.8228966765894,301.74330278546364L-255.2691320538963,294.19027893601526Q0,0,394.9677299015577,60.00618581788228Z" fill="#8c564b" style="mix-blend-mode: multiply;"><title>Greece owes United States 3B</title></path><path d="M-397.3634397248738,-41.26192882084684Q0,0,336.8232573728107,195.60251351342433L345.4708377931653,200.624400895027L336.8232573728107,195.60251351342433Q0,0,-397.3634397248738,-41.26192882084684Z" fill="#d62728" style="mix-blend-mode: multiply;"><title>Ireland owes Italy 3B</title></path><path d="M293.1520931943554,271.407627482663Q0,0,-384.72715326884446,-60.788712255245706L-394.6046154837057,-62.34939806410952L-384.72715326884446,-60.788712255245706Q0,0,293.1520931943554,271.407627482663Z" fill="#bcbd22" style="mix-blend-mode: multiply;"><title>Portugal owes Japan 2B</title></path><path d="M394.86436715280985,60.682629746995616Q0,0,-384.80949063871617,-60.265296102913524L-394.6890667783494,-61.81254375639013L-384.80949063871617,-60.265296102913524Q0,0,394.86436715280985,60.682629746995616Z" fill="#bcbd22" style="mix-blend-mode: multiply;"><title>Greece owes Japan 1B</title></path><path d="M292.83468713276045,271.75006165934593Q0,0,337.1002479031878,195.12476230250567L345.7549397620629,200.13438392773048L337.1002479031878,195.12476230250567Q0,0,292.83468713276045,271.75006165934593Z" fill="#d62728" style="mix-blend-mode: multiply;"><title>Portugal owes Italy 1B</title></path><path d="M394.81423864784176,61.0079253943705Q0,0,-172.94651152737086,-348.99821511078386L-177.38673005182198,-357.95837467717115L-172.94651152737086,-348.99821511078386Q0,0,394.81423864784176,61.0079253943705Z" fill="#17becf" style="mix-blend-mode: multiply;"><title>Greece owes Spain 1B</title></path><path d="M394.78309475643425,61.20913407762174Q0,0,376.0765808579406,-101.37383947646872L385.7319487875411,-103.97650544505585L376.0765808579406,-101.37383947646872Q0,0,394.78309475643425,61.20913407762174Z" fill="#ff7f0e" style="mix-blend-mode: multiply;"><title>Greece owes Britain 1B</title></path><path d="M-261.40407731395743,302.1062037821113Q0,0,285.3634949897759,265.0998410546867L292.6899005094107,271.90599871976207L285.3634949897759,265.0998410546867Q0,0,-261.40407731395743,302.1062037821113Z" fill="#9467bd" style="mix-blend-mode: multiply;"><title>United States owes Portugal 1B</title></path><path d="M394.76219683902315,61.3437686063414Q0,0,-387.3677674083905,-40.69966551507656L-397.31302459474193,-41.744586324192774L-387.3677674083905,-40.69966551507656Q0,0,394.76219683902315,61.3437686063414Z" fill="#7f7f7f" style="mix-blend-mode: multiply;"><title>Greece owes Ireland 0B</title></path></g><g font-family="sans-serif" font-size="10"><g><path d="M2.486033002269127e-14,-406A406,406,0,0,1,276.9308277340839,-296.89276961643094L272.8382539252058,-292.5051917403261A400,400,0,0,0,2.4492935982947064e-14,-400Z" fill="#1f77b4" stroke="#fff"/><text dy="-3"><textPath xlink:href="#O-text-1" startOffset="0">France</textPath></text><title>France
owes 22B
is owed 957B</title></g><g><path d="M285.71166533888777,-288.4524991905589A406,406,0,0,1,405.4239132942351,21.62060427436133L399.432426890872,21.301087955035793A400,400,0,0,0,281.4893254570323,-284.1896543749349Z" fill="#ff7f0e" stroke="#fff"/><text dy="-3"><textPath xlink:href="#O-text-1" startOffset="316.9335847762933">Britain</textPath></text><title>Britain
owes 687B
is owed 413B</title></g><g><path d="M404.5929653760096,33.7717688054252A406,406,0,0,1,401.1769854946349,62.39412079224693L395.24826157106884,61.47204018940584A400,400,0,0,0,398.6137589911425,33.272678626034676Z" fill="#2ca02c" stroke="#fff"/><text dy="-3"><textPath xlink:href="#O-text-1" startOffset="671.5541448219828">Greece</textPath></text><title>Greece
owes 93B
is owed 0B</title></g><g><path d="M399.12492652762097,74.39954989326975A406,406,0,0,1,331.6687156916075,234.16204438695786L326.76720757793845,230.70152156350528A400,400,0,0,0,393.2265285986414,73.3000491559308Z" fill="#d62728" stroke="#fff"/><text dy="-3"><textPath xlink:href="#O-text-1" startOffset="712.5656765959446">Italy</textPath></text><title>Italy
owes 444B
is owed 118B</title></g><g><path d="M324.4956683132039,244.00524839840466A406,406,0,0,1,294.44228220732344,279.5348680371429L290.09091843086054,275.40381087403244A400,400,0,0,0,319.7001658258166,240.39925950581738Z" fill="#9467bd" stroke="#fff"/><text dy="-3"><textPath xlink:href="#O-text-1" startOffset="899.5115567112165">Portugal</textPath></text><title>Portugal
owes 135B
is owed 14B</title></g><g><path d="M285.9250049266464,288.241030316118A406,406,0,0,1,-269.7788139743164,303.4063142563306L-265.7919349500654,298.9224770998331A400,400,0,0,0,281.6995122430014,283.9813106562739Z" fill="#8c564b" stroke="#fff"/><text dy="-3"><textPath xlink:href="#O-text-1" startOffset="958.2526447174289">United States</textPath></text><title>United States
owes 1951B
is owed 17B</title></g><g><path d="M-278.7582467735039,295.17764118537553A406,406,0,0,1,-405.9963644391922,1.7181566164407387L-399.9964181666918,1.6927651393504815A400,400,0,0,0,-274.63866677192505,290.81541003485273Z" fill="#e377c2" stroke="#fff"/><text dy="-3"><textPath xlink:href="#O-text-1" startOffset="1582.7464235577463">Germany</textPath></text><title>Germany
owes 253B
is owed 803B</title></g><g><path d="M-405.8652167442972,-10.460680527799006A406,406,0,0,1,-403.1335405657308,-48.1596145223181L-397.17590203520274,-47.447896081101575A400,400,0,0,0,-399.8672086150711,-10.30608918994976Z" fill="#7f7f7f" stroke="#fff"/><text dy="-3"><textPath xlink:href="#O-text-1" startOffset="1923.6917642912663">Ireland</textPath></text><title>Ireland
owes 103B
is owed 19B</title></g><g><path d="M-401.50757235066874,-60.23013651879356A406,406,0,0,1,-245.60811983520574,-323.28416520302267L-241.97844318739482,-318.5065667024854A400,400,0,0,0,-395.57396290706276,-59.34003597910695Z" fill="#bcbd22" stroke="#fff"/><text dy="-3"><textPath xlink:href="#O-text-1" startOffset="1973.683201169874">Japan</textPath></text><title>Japan
owes 8B
is owed 1000B</title></g><g><path d="M-235.80053422749427,-330.5058366474461A406,406,0,0,1,-12.178173082212332,-405.81731370208894L-11.998200080997371,-399.820013499595A400,400,0,0,0,-232.31579726846724,-325.6215139383705Z" fill="#17becf" stroke="#fff"/><text dy="-3"><textPath xlink:href="#O-text-1" startOffset="2299.3757716944638">Spain</textPath></text><title>Spain
owes 208B
is owed 562B</title></g></g></svg>