<svg id="Layer_1" data-name="Layer 1" xmlns="http://www.w3.org/2000/svg" xmlns:xlink="http://www.w3.org/1999/xlink" viewBox="0 0 1005.42 1080"><defs><style>.cls-1,.cls-59{fill:#fff;}.cls-2,.cls-52,.cls-53,.cls-58,.cls-6{fill:none;}.cls-2,.cls-53,.cls-55,.cls-58{stroke:#424143;}.cls-2,.cls-58,.cls-60{stroke-width:1.53px;}.cls-10,.cls-11,.cls-12,.cls-13,.cls-14,.cls-15,.cls-16,.cls-17,.cls-18,.cls-19,.cls-20,.cls-21,.cls-22,.cls-23,.cls-24,.cls-25,.cls-26,.cls-27,.cls-28,.cls-29,.cls-3,.cls-30,.cls-31,.cls-32,.cls-33,.cls-34,.cls-35,.cls-36,.cls-37,.cls-38,.cls-39,.cls-4,.cls-40,.cls-41,.cls-42,.cls-43,.cls-44,.cls-45,.cls-46,.cls-47,.cls-48,.cls-49,.cls-5,.cls-51,.cls-59,.cls-6,.cls-7,.cls-8,.cls-9{stroke:#010101;}.cls-10,.cls-11,.cls-12,.cls-14,.cls-17,.cls-18,.cls-20,.cls-22,.cls-23,.cls-24,.cls-25,.cls-26,.cls-27,.cls-28,.cls-29,.cls-3,.cls-30,.cls-31,.cls-32,.cls-33,.cls-34,.cls-35,.cls-36,.cls-37,.cls-38,.cls-39,.cls-4,.cls-40,.cls-41,.cls-42,.cls-43,.cls-44,.cls-45,.cls-46,.cls-5,.cls-52,.cls-6,.cls-7,.cls-8,.cls-9{stroke-linejoin:round;}.cls-3,.cls-4,.cls-5{stroke-width:2.29px;}.cls-3{fill:url(#radial-gradient);}.cls-4{fill:url(#radial-gradient-2);}.cls-5{fill:url(#radial-gradient-3);}.cls-10,.cls-11,.cls-12,.cls-14,.cls-23,.cls-24,.cls-25,.cls-26,.cls-27,.cls-28,.cls-29,.cls-30,.cls-31,.cls-32,.cls-33,.cls-34,.cls-35,.cls-36,.cls-37,.cls-38,.cls-39,.cls-40,.cls-41,.cls-42,.cls-43,.cls-44,.cls-45,.cls-46,.cls-6,.cls-7,.cls-8,.cls-9{stroke-width:0.82px;}.cls-7{fill:url(#radial-gradient-4);}.cls-8{fill:url(#radial-gradient-5);}.cls-9{fill:url(#radial-gradient-6);}.cls-10{fill:url(#radial-gradient-7);}.cls-11{fill:url(#radial-gradient-8);}.cls-12{fill:url(#radial-gradient-9);}.cls-13,.cls-15,.cls-16,.cls-17,.cls-18,.cls-19,.cls-20,.cls-21,.cls-22,.cls-47,.cls-48,.cls-49,.cls-51,.cls-52{stroke-width:0.76px;}.cls-13{fill:url(#linear-gradient);}.cls-14{fill:url(#radial-gradient-10);}.cls-15{fill:url(#radial-gradient-11);}.cls-16{fill:url(#linear-gradient-2);}.cls-17{fill:#7b6557;}.cls-18{fill:#424143;}.cls-19{fill:#818285;}.cls-20{fill:#e9c58c;}.cls-21{fill:url(#New_Gradient_Swatch_1);}.cls-22{fill:url(#radial-gradient-12);}.cls-23{fill:url(#radial-gradient-13);}.cls-24{fill:url(#radial-gradient-14);}.cls-25{fill:url(#radial-gradient-15);}.cls-26{fill:url(#radial-gradient-16);}.cls-27{fill:url(#radial-gradient-17);}.cls-28{fill:url(#radial-gradient-18);}.cls-29{fill:url(#radial-gradient-19);}.cls-30{fill:url(#radial-gradient-20);}.cls-31{fill:url(#radial-gradient-21);}.cls-32{fill:url(#radial-gradient-22);}.cls-33{fill:url(#radial-gradient-23);}.cls-34{fill:url(#radial-gradient-24);}.cls-35{fill:url(#radial-gradient-25);}.cls-36{fill:url(#radial-gradient-26);}.cls-37{fill:url(#radial-gradient-27);}.cls-38{fill:url(#radial-gradient-28);}.cls-39{fill:url(#radial-gradient-29);}.cls-40{fill:url(#radial-gradient-30);}.cls-41{fill:url(#radial-gradient-31);}.cls-42{fill:url(#radial-gradient-32);}.cls-43{fill:url(#radial-gradient-33);}.cls-44{fill:url(#radial-gradient-34);}.cls-45{fill:url(#radial-gradient-35);}.cls-46{fill:url(#radial-gradient-36);}.cls-47{fill:url(#New_Gradient_Swatch_1-2);}.cls-48{fill:url(#New_Gradient_Swatch_1-3);}.cls-49{fill:#ededee;}.cls-50{fill:#231f20;}.cls-51{fill:#333232;}.cls-52{stroke:#231f20;}.cls-53{stroke-width:3.05px;}.cls-54{fill:#010101;}.cls-55{fill:#d2d3d4;}.cls-55,.cls-57{fill-opacity:0.25;}.cls-55,.cls-56,.cls-57{stroke-width:1.37px;}.cls-56{fill:#bdbec0;}.cls-56,.cls-57{stroke:#6e6f72;}.cls-57,.cls-60{fill:#a8aaad;}.cls-58,.cls-59,.cls-60{stroke-miterlimit:1.45;}.cls-59{stroke-width:0.41px;}.cls-60{stroke:#818285;}</style><radialGradient id="radial-gradient" cx="440.12" cy="949.56" r="116.95" gradientTransform="translate(-66.09 19.9) rotate(-7.66)" gradientUnits="userSpaceOnUse"><stop offset="0" stop-color="#ccc"/><stop offset="0.35" stop-color="#c9c9c9"/><stop offset="0.57" stop-color="#c1c1c1"/><stop offset="0.76" stop-color="#b2b2b2"/><stop offset="0.92" stop-color="#9e9e9e"/><stop offset="0.96" stop-color="#989898"/></radialGradient><radialGradient id="radial-gradient-2" cx="445.97" cy="708.11" r="27.61" xlink:href="#radial-gradient"/><radialGradient id="radial-gradient-3" cx="439.69" cy="754.73" r="139.59" xlink:href="#radial-gradient"/><radialGradient id="radial-gradient-4" cx="495.11" cy="688.69" r="25.76" gradientTransform="matrix(0.96, -0.13, 0.15, 1.14, -67.46, -59.09)" gradientUnits="userSpaceOnUse"><stop offset="0" stop-color="#fff"/><stop offset="0.36" stop-color="#fcfcfc"/><stop offset="0.58" stop-color="#f4f4f4"/><stop offset="0.76" stop-color="#e5e5e5"/><stop offset="0.93" stop-color="#d1d1d1"/><stop offset="0.96" stop-color="#ccc"/></radialGradient><radialGradient id="radial-gradient-5" cx="486.68" cy="717.11" r="25.76" gradientTransform="matrix(0.96, -0.13, 0.15, 1.14, -67.46, -59.09)" xlink:href="#radial-gradient"/><radialGradient id="radial-gradient-6" cx="520.39" cy="702.99" r="25.76" gradientTransform="matrix(0.96, -0.13, 0.15, 1.14, -67.46, -59.09)" gradientUnits="userSpaceOnUse"><stop offset="0" stop-color="#eb8c86"/><stop offset="0.33" stop-color="#ea8a84"/><stop offset="0.51" stop-color="#e8817e"/><stop offset="0.66" stop-color="#e57472"/><stop offset="0.79" stop-color="#e06063"/><stop offset="0.91" stop-color="#da474e"/><stop offset="1" stop-color="#d32c39"/></radialGradient><radialGradient id="radial-gradient-7" cx="562.53" cy="688.87" r="25.76" xlink:href="#radial-gradient-4"/><radialGradient id="radial-gradient-8" cx="518.43" cy="737.4" r="25.76" gradientTransform="matrix(0.94, -0.24, 0.29, 1.12, -132.03, -17.65)" xlink:href="#radial-gradient"/><radialGradient id="radial-gradient-9" cx="351.04" cy="984.88" r="164.63" gradientTransform="matrix(0.97, -0.25, 0.25, 0.97, -136.49, 41.68)" gradientUnits="userSpaceOnUse"><stop offset="0.01" stop-color="#fbfcfe"/><stop offset="0.23" stop-color="#f7f8fa"/><stop offset="0.45" stop-color="#ebecee"/><stop offset="0.67" stop-color="#d7d7d9"/><stop offset="0.89" stop-color="#bcbbbd"/><stop offset="1" stop-color="#abaaac"/></radialGradient><linearGradient id="linear-gradient" x1="383.95" y1="1083.7" x2="395.21" y2="1083.7" gradientTransform="matrix(0.97, -0.25, 0.25, 0.97, -136.49, 41.68)" gradientUnits="userSpaceOnUse"><stop offset="0.31" stop-color="#c4c8ce"/><stop offset="1" stop-color="#666f72"/></linearGradient><radialGradient id="radial-gradient-10" cx="550.45" cy="660.79" r="25.76" gradientTransform="matrix(0.97, 0.01, -0.01, 1.15, 13.06, -78.33)" xlink:href="#radial-gradient"/><radialGradient id="radial-gradient-11" cx="389.59" cy="1077.87" r="4.63" gradientTransform="matrix(0.97, -0.25, 0.25, 0.97, -136.49, 41.68)" gradientUnits="userSpaceOnUse"><stop offset="0.07" stop-color="#dddee1"/><stop offset="0.98" stop-color="#c1c4ca"/></radialGradient><linearGradient id="linear-gradient-2" x1="387.07" y1="1057.06" x2="392.08" y2="1057.06" xlink:href="#linear-gradient"/><linearGradient id="New_Gradient_Swatch_1" x1="385.59" y1="992.36" x2="446.04" y2="992.36" gradientTransform="matrix(0.97, -0.25, 0.25, 0.97, -136.49, 41.68)" gradientUnits="userSpaceOnUse"><stop offset="0.01" stop-color="#9c9ea1"/><stop offset="0.01" stop-color="#a7a8ab"/><stop offset="0.04" stop-color="#c2c3c5"/><stop offset="0.07" stop-color="#d5d7d8"/><stop offset="0.1" stop-color="#e1e2e3"/><stop offset="0.13" stop-color="#e5e6e7"/><stop offset="0.48" stop-color="#e3e4e5"/><stop offset="0.63" stop-color="#dcddde"/><stop offset="0.75" stop-color="#d0d0d2"/><stop offset="0.81" stop-color="#c5c5c7"/><stop offset="0.89" stop-color="#c1c1c4"/><stop offset="0.97" stop-color="#b6b6b9"/><stop offset="1" stop-color="#b0b1b4"/></linearGradient><radialGradient id="radial-gradient-12" cx="527.18" cy="837.06" r="17.58" gradientTransform="translate(15.86 -1.39) rotate(2.6)" gradientUnits="userSpaceOnUse"><stop offset="0.01" stop-color="#c7986d"/><stop offset="0.91" stop-color="#dba980"/></radialGradient><radialGradient id="radial-gradient-13" cx="397.12" cy="1013.9" r="115.54" xlink:href="#radial-gradient-9"/><radialGradient id="radial-gradient-14" cx="393.21" cy="687.98" r="25.76" gradientTransform="matrix(0.96, -0.13, 0.15, 1.14, -67.46, -59.09)" xlink:href="#radial-gradient"/><radialGradient id="radial-gradient-15" cx="376.35" cy="709.17" r="25.76" gradientTransform="matrix(0.96, -0.13, 0.15, 1.14, -67.46, -59.09)" xlink:href="#radial-gradient"/><radialGradient id="radial-gradient-16" cx="450.74" cy="670.06" r="25.77" gradientTransform="matrix(0.97, 0.01, -0.02, 1.15, 10.33, -89.4)" xlink:href="#radial-gradient-4"/><radialGradient id="radial-gradient-17" cx="393.21" cy="716.23" r="25.77" xlink:href="#radial-gradient-6"/><radialGradient id="radial-gradient-18" cx="311.74" cy="762.93" r="25.76" gradientTransform="matrix(0.93, -0.26, 0.31, 1.11, -143.6, -28.54)" xlink:href="#radial-gradient-4"/><radialGradient id="radial-gradient-19" cx="384.78" cy="751.54" r="25.76" gradientTransform="matrix(0.96, -0.13, 0.15, 1.14, -67.46, -59.09)" xlink:href="#radial-gradient"/><radialGradient id="radial-gradient-20" cx="418.49" cy="737.41" r="25.77" gradientTransform="matrix(0.96, -0.13, 0.15, 1.14, -67.46, -59.09)" xlink:href="#radial-gradient"/><radialGradient id="radial-gradient-21" cx="402.48" cy="765.66" r="25.76" xlink:href="#radial-gradient-6"/><radialGradient id="radial-gradient-22" cx="291.69" cy="836.39" r="25.77" gradientTransform="matrix(0.88, -0.4, 0.48, 1.05, -244.77, 33.71)" xlink:href="#radial-gradient"/><radialGradient id="radial-gradient-23" cx="460.63" cy="723.29" r="25.76" gradientTransform="matrix(0.96, -0.13, 0.15, 1.14, -67.46, -59.09)" xlink:href="#radial-gradient"/><radialGradient id="radial-gradient-24" cx="469.06" cy="737.41" r="25.77" gradientTransform="matrix(0.96, -0.13, 0.15, 1.14, -67.46, -59.09)" xlink:href="#radial-gradient"/><radialGradient id="radial-gradient-25" cx="412.45" cy="761.72" r="25.77" gradientTransform="matrix(0.94, -0.24, 0.29, 1.12, -132.03, -17.65)" xlink:href="#radial-gradient"/><radialGradient id="radial-gradient-26" cx="451.83" cy="681.8" r="25.76" xlink:href="#radial-gradient-6"/><radialGradient id="radial-gradient-27" cx="504.38" cy="731.23" r="25.76" xlink:href="#radial-gradient-4"/><radialGradient id="radial-gradient-28" cx="513.28" cy="731.95" r="25.76" gradientTransform="matrix(0.97, -0.02, 0.03, 1.15, -0.61, -96.12)" xlink:href="#radial-gradient-6"/><radialGradient id="radial-gradient-29" cx="460.63" cy="765.66" r="25.77" xlink:href="#radial-gradient-4"/><radialGradient id="radial-gradient-30" cx="571.94" cy="684.26" r="25.77" gradientTransform="matrix(0.97, 0.01, -0.01, 1.15, 13.06, -78.33)" xlink:href="#radial-gradient"/><radialGradient id="radial-gradient-31" cx="623.45" cy="617.72" r="25.76" gradientTransform="matrix(0.95, 0.15, -0.18, 1.14, 95.11, -98.56)" xlink:href="#radial-gradient"/><radialGradient id="radial-gradient-32" cx="526.95" cy="761.43" r="25.76" gradientTransform="matrix(0.96, -0.12, 0.14, 1.14, -67.53, -59.03)" xlink:href="#radial-gradient-4"/><radialGradient id="radial-gradient-33" cx="596.81" cy="695.42" r="25.77" gradientTransform="matrix(0.97, 0.01, -0.01, 1.15, 13.06, -78.33)" xlink:href="#radial-gradient"/><radialGradient id="radial-gradient-34" cx="630.52" cy="681.29" r="25.77" gradientTransform="matrix(0.97, 0.01, -0.01, 1.15, 13.06, -78.33)" xlink:href="#radial-gradient"/><radialGradient id="radial-gradient-35" cx="614.51" cy="709.54" r="25.77" gradientTransform="matrix(0.97, 0.01, -0.01, 1.15, 13.06, -78.33)" xlink:href="#radial-gradient-6"/><radialGradient id="radial-gradient-36" cx="513.96" cy="834.46" r="25.77" gradientTransform="matrix(0.93, -0.27, 0.32, 1.11, -175.74, -12.19)" xlink:href="#radial-gradient"/><linearGradient id="New_Gradient_Swatch_1-2" x1="517.92" y1="848.71" x2="527.76" y2="848.71" gradientTransform="translate(15.86 -1.38) rotate(2.6)" xlink:href="#New_Gradient_Swatch_1"/><linearGradient id="New_Gradient_Swatch_1-3" x1="532.91" y1="843.69" x2="543.53" y2="843.69" gradientTransform="translate(15.86 -1.39) rotate(2.6)" xlink:href="#New_Gradient_Swatch_1"/></defs><rect class="cls-1" width="1005.42" height="1080"/><line class="cls-2" x1="193.76" y1="205.6" x2="387.38" y2="745.51"/><line class="cls-2" x1="347.5" y1="492.18" x2="420.02" y2="798.66"/><line class="cls-2" x1="501.12" y1="198.42" x2="501.12" y2="718.68"/><line class="cls-2" x1="813.23" y1="205.6" x2="591.98" y2="725.74"/><line class="cls-2" x1="657.23" y1="492.18" x2="587.77" y2="741.63"/><path class="cls-3" d="M548.9,928.89c2.41-2.47,4.74-4.89,6.8-7.12,11-11.85-5.06-56.72-5.06-56.72s0,0,0,.11c-.16-.63-.34-1.24-.53-1.82-.09-.32-.2-.63-.31-.93s-.11-.32-.17-.46c-.19-.47-.37-.92-.58-1.33-3.22-6.35-15.13-16.47-25.51-19.88a20.39,20.39,0,0,0-2.39-.61l-.18,0a24.08,24.08,0,0,0-2.43-.33l-.1,0a31,31,0,0,0-5.77.1l-.41-5.47-1.75-2.73.1-2.79L508,830.68s-1.21-1.17-1.12-2.12a13.87,13.87,0,0,1,1-2.87L504,829.76s-4.9-.14-4.18-.84a6.23,6.23,0,0,0,1.6-2.07s-5.15,3.88-6.69,4-1.52-.66-1.52-.66-2.48,3.68-3.15,3.64-1.57-1.05-1.57-1.05l-.59,4.28-1.83-.77s.29,4.48,1.49,6.25a1.27,1.27,0,0,0,.37.36,31.82,31.82,0,0,0,1.36,5.36l1.22,2.24-.44-.08,1.15,2,.3,0,4,7.38a16.83,16.83,0,0,0-3.41,1.31,17.26,17.26,0,0,0-5.37,5.66c-.65,1.07-2.59,12-3.42,14.18a3.82,3.82,0,0,0,.24,3.3L482.25,900a37.08,37.08,0,0,0-3.62,4.45,25.74,25.74,0,0,0-3.17,6.13c-8.48,6.65-15.24,11-16.92,12.93-2.44,2.73-5.53,7.12-4.63,17.18s4.15,67.14,4.15,67.14l7.6,2.45c.13-11.84.42-22.69.47-31.62,2.56,7.55,5,17.42,4.22,25.81a3.94,3.94,0,0,0,2.45,1.84l-.15.36s-12.57,15.75-12.36,17.17a2.88,2.88,0,0,0,.54,1c.44,1.59,6.72,8.31,10,5.29s21.07-21.34,21.17-23.21a1.5,1.5,0,0,0-.52-1,.9.9,0,0,0,0-.16l1.35-.25L487,994.05l-5.08-18.44-1.74-7.4L498,974.44c.07.25.11.41.11.41s11.47,26.67,13.15,43c.51.42,1.84.6,3.59.63-2.39,6.64-7,20.18-5.95,23.07a2,2,0,0,0,.48.7c0,.06,0,.14.05.21,1.41,3.85,12.56-1.52,13.8-2.53.63-.51,3.38-6,5.89-11.64l4.33,1.28,4.6-5s-7.62-34.31-11.6-52.13c9.73-10,24.2-24.81,24.7-25.49.73-1,2.72-1.65,4.2.38s26.47,34.63,26.47,34.63l5.94-6.37s-26.14-36.15-28.57-39.27C558.12,934.9,553.59,931.91,548.9,928.89Zm-2.83-10.78c.08-4.38-.42-11.41-.46-11.84a42.94,42.94,0,0,0,5-4.31c-.08.09-1.87-4.29-3.92-9.46l.88-2.25c.09-.23.18-.46.26-.69l.89-2.29C550.74,893.9,553.86,907.44,546.07,918.11Zm-80.85,12a7.69,7.69,0,0,1,.93-.81c.29,1.67.72,3.63.72,3.63s1,4.37,1.47,4.45c1.19.22,1.33.32,1.75,0,.68-.59.46-3.28.59-3.55.34-.72,2.06-3.55,3-3.16s-2.06,4.6-1.63,5.39a1.93,1.93,0,0,0,1.49.84c1.12-2.28,2.41-2.3,2.87-3.4.53-1.31,2.89-3.69,1.08-7.33-.26-.37.27-2.49.94-4.76a10.43,10.43,0,0,1,.76-1.59c7.95-5.85,16.82-12.71,19.41-16.42.16-.22.29-.49.44-.75,1.69,3.54,3.11,6.58,3.26,7.14.38,1.47-.36,3.63-.16,4.89s.59.65,1.07,2a2.15,2.15,0,0,1-.31,2.37c-.36.62.21,1.78.21,1.78a10.57,10.57,0,0,0,.41,1.05c-4.84,3.34-10.87,7.34-16.69,11.23L463.74,946.3c-.5-2.73-.9-4.26-1-5.14C461.91,934.81,464,931.67,465.22,930.09Z"/><path class="cls-4" d="M478.47,692c10.66-1.43,17.93-12.92,16.21-25.66s-11.75-21.89-22.42-20.46-17.93,12.92-16.21,25.66S467.8,693.43,478.47,692Z"/><path class="cls-5" d="M617.91,698.7c-10.52-.13-19.19,9.73-19.71,22.18a23.26,23.26,0,0,0-1.72-1.72,27.35,27.35,0,0,0,2.22-7.2c1.62-10.08-2.45-19.5-9.51-23.81a27.68,27.68,0,0,0-.52-3.09c9-3,14.71-13.44,13.15-24.92-1.7-12.73-11.74-21.89-22.41-20.46s-17.93,12.92-16.21,25.66c.06.47.16.93.24,1.39a16.59,16.59,0,0,0-5,2.36c-4.3-5.55-10.65-8.72-17.24-7.83a16.42,16.42,0,0,0-5.4,1.72c-3.48-9.67-12-16-21-14.82-10.66,1.44-17.93,12.93-16.22,25.66a26.53,26.53,0,0,0,4.34,11.45,20.91,20.91,0,0,0-6.31,8.43,16.9,16.9,0,0,0-9.52-1.52c-10.67,1.43-17.93,12.92-16.22,25.66.06.47.16.93.25,1.39a16.53,16.53,0,0,0-5,2.36,19.58,19.58,0,0,0-13.7-7.91A25.72,25.72,0,0,0,458,697.82c.19-12.85-8.38-23.39-19.15-23.56-.37,0-.74,0-1.1.06-3.69-9.12-12-15-20.67-13.83-10.67,1.44-17.93,12.93-16.21,25.66.06.5.16,1,.26,1.48-9,3-14.7,13.45-13.15,24.92a26.43,26.43,0,0,0,4.19,11.23,17.2,17.2,0,0,0-10.95-.7c-10.38,2.87-16,15.24-12.6,27.62s14.61,20.1,25,17.23a17.15,17.15,0,0,0,9.22-6.46,24.88,24.88,0,0,0,9.26,15.36c-.58.2-1.16.42-1.73.68-9.8,4.48-13.4,17.58-8,29.26s17.62,17.53,27.41,13.05c8.8-4,12.58-15,9.37-25.7a16.46,16.46,0,0,0,5,.12c10.67-1.44,17.93-12.92,16.22-25.66a27.13,27.13,0,0,0-3-9.18,17.2,17.2,0,0,0,5.91-3,20.78,20.78,0,0,0,14,8.23c0,.56.08,1.12.16,1.69,1.71,12.73,11.75,21.89,22.42,20.45,8.9-1.19,15.4-9.39,16.33-19.46a16.37,16.37,0,0,0,3.14.26A18,18,0,0,0,533,760.26c2.22,11.87,11.75,20.27,22,19a18.08,18.08,0,0,0,2.43-.51,27.32,27.32,0,0,0,1,5.25c3.61,12.33,14.91,19.88,25.23,16.87,9.3-2.72,14.63-13.06,13-24.08a17,17,0,0,0,4.95.85c10.76.12,19.61-10.2,19.75-23a26.92,26.92,0,0,0-1.6-9.52c9.69-1.25,17.32-11,17.46-22.89C637.28,709.33,628.67,698.82,617.91,698.7ZM571.5,754.84c.29.32.57.64.87.94-.26.05-.52.12-.77.18C571.58,755.59,571.54,755.22,571.5,754.84Zm-139.83-17c.27-.11.54-.25.81-.37,0,.37.07.74.1,1.11C432.28,738.31,432,738,431.67,737.81ZM406.57,742c-.12-.57-.24-1.14-.4-1.72a27.2,27.2,0,0,0-3.81-8.2,16.79,16.79,0,0,0,8,.9c.48-.07.95-.17,1.41-.28a21.67,21.67,0,0,0,2.91,2.62A18.59,18.59,0,0,0,406.57,742Z"/><polygon class="cls-6" points="514.67 666.4 536.11 915.21 584 663.49 551.43 683.5 514.67 666.4"/><polygon class="cls-6" points="540.46 700.21 571.78 682.77 536.17 913.48 540.46 700.21"/><path class="cls-7" d="M537.21,668.63c1.71,12.74-5.55,24.22-16.22,25.66s-20.7-7.73-22.42-20.47,5.56-24.22,16.22-25.66S535.49,655.89,537.21,668.63Z"/><path class="cls-8" d="M533.51,702.21c1.71,12.74-5.55,24.23-16.22,25.66s-20.71-7.72-22.42-20.46,5.54-24.22,16.21-25.66S531.79,689.48,533.51,702.21Z"/><path class="cls-9" d="M563.63,681.72c1.72,12.74-5.54,24.22-16.21,25.66s-20.71-7.73-22.42-20.46,5.55-24.23,16.21-25.66S561.92,669,563.63,681.72Z"/><path class="cls-10" d="M601.82,660.14c1.73,12.74-5.54,24.22-16.2,25.66s-20.71-7.73-22.42-20.46,5.54-24.22,16.21-25.66S600.12,647.41,601.82,660.14Z"/><path class="cls-11" d="M588.51,684.32c3.17,12.45-2.7,24.7-13.13,27.36S553.91,706.4,550.74,694s2.7-24.7,13.14-27.36S585.34,671.87,588.51,684.32Z"/><polygon class="cls-6" points="427.5 816 458.59 925.91 445.95 790.27 432.72 783.24 427.5 816"/><polygon class="cls-6" points="452.54 740.89 458.54 923.51 420.54 759.22 452.54 740.89"/><polygon class="cls-6" points="425.82 718.03 389.73 747.73 460.32 929.81 425.82 718.03"/><polygon class="cls-6" points="442.62 696.93 404.79 713.64 458.59 925.91 442.62 696.93"/><polygon class="cls-6" points="477.93 679.36 504.14 895.06 419.72 687.59 486.59 746.73 477.93 679.36"/><polygon class="cls-6" points="451.98 736.82 489.29 713.1 504.33 899.45 451.98 736.82"/><polygon class="cls-6" points="477.29 741.63 500.42 730.3 510.04 888.26 477.29 741.63"/><polygon class="cls-6" points="496.72 765.41 522.1 745.56 510.95 886.13 496.72 765.41"/><polygon class="cls-6" points="547.92 755.71 576.53 780.72 552.38 890.18 547.92 755.71"/><polygon class="cls-6" points="582.49 738.64 602.41 755.6 554.84 946.13 582.49 738.64"/><polygon class="cls-6" points="577.42 706.86 591.98 725.74 617.64 721.96 552.08 885.01 577.42 706.86"/><polygon class="cls-6" points="540.51 697.41 557.83 725.12 550.64 883.2 540.51 697.41"/><path class="cls-12" d="M559.2,936.3c-2.44-3.15-22.37-14.39-22.22-15.81.81-8.48,16.11-41.51,15.49-45.42-.73-4.57-1.56-10.73-3.44-14.45-3.22-6.35-15.13-16.47-25.51-19.88-10.77-3.53-27.28,2-27.67,9.7,0,.07,0,11.9.07,12.18,0,.83,2.8,27.35-7.9,37.26-13.7,12.75-27,20.89-29.48,23.63s-5.53,7.12-4.63,17.18,4.15,67.14,4.15,67.14l7.6,2.45c.22-20,.88-37.3.13-47l52,18.07S550.4,948,551.16,946.93s2.72-1.65,4.2.38,26.47,34.63,26.47,34.63l5.94-6.37S561.63,939.42,559.2,936.3Zm-46-22.2c-.28,2.64-39,26.52-46.41,32.93a12.46,12.46,0,0,0-2.43,3.22c-.79-5.38-1.5-7.85-1.67-9.09-.81-6.35,1.26-9.49,2.5-11.07s28.48-19.73,33.35-26.75,3.89-25.28,4.76-29.85C506.35,883.26,513.82,908.65,513.23,914.1Z"/><path class="cls-13" d="M521.62,991.76l-2.09-8-10.89,2.86,2.12,8.05h0a2.92,2.92,0,0,0,2.2,1.91,8.54,8.54,0,0,0,7.69-2A2.88,2.88,0,0,0,521.62,991.76Z"/><path class="cls-14" d="M560,697.63c-.15,12.86-9,23.17-19.75,23S520.87,710,521,697.19s9-23.17,19.76-23S560.15,684.79,560,697.63Z"/><path class="cls-15" d="M517.33,981.92c2.46.71,3,2.78,1.21,4.61a8.47,8.47,0,0,1-7.68,2c-2.46-.72-3-2.78-1.22-4.61A8.49,8.49,0,0,1,517.33,981.92Z"/><path class="cls-16" d="M516.09,983,506,944.44l-4.84,1.27,10.14,38.62h0a1.29,1.29,0,0,0,1,.85,3.76,3.76,0,0,0,3.42-.9A1.26,1.26,0,0,0,516.09,983Z"/><path class="cls-17" d="M526.86,1012s5.81,2.7,6.67,4.17-9,22.81-10.29,23.83-12.39,6.38-13.8,2.53,7.31-26.76,7.31-26.76Z"/><path class="cls-17" d="M485,1002.43l-10,.85-1.82,4.32s-12.57,15.76-12.36,17.17,6.7,8.45,10,5.38,21.07-21.34,21.17-23.21S485,1002.43,485,1002.43Z"/><path class="cls-18" d="M526.33,1011.05s5.81,2.68,6.67,4.17S524,1038,522.71,1039s-12.39,6.38-13.8,2.54,7.31-26.75,7.31-26.75Z"/><path class="cls-18" d="M484.45,1001.5l-10,.85-1.82,4.32s-12.57,15.75-12.36,17.17,6.69,8.45,10,5.38,21.07-21.35,21.17-23.21S484.45,1001.5,484.45,1001.5Z"/><path class="cls-19" d="M527.81,1003.29l6,13.31s-20,3.26-22.49,1.28c-1.68-16.36-13.15-43-13.15-43s-2.67-10.15-2.87-12.89,4.75-8.6,4.75-8.6l10.19-12.62-1,1.1-7.06,8.72s-9.49,3.34-22,7.68c-1.44-.15,1.33,1,.75,1.54a28.75,28.75,0,0,0-2.1,2.66l3.11,13.17L487,994.05l5.85,11.48s-20,4.08-22.45-1.06c1.54-16.15-9-37.8-9-37.8s-3.33-7.35-3.67-11.29,4.5-8.18,4.5-8.18l41.67-23.88.76-5.1,34.6,3.85,6.93,10.42s.82,6.44-2.74,10.87S518,962.63,518,962.63l-.44,3.63,0,3.85,8,26.57Z"/><path class="cls-20" d="M491.45,904.37l5.92-13.75L483.9,880.39,482.25,900a37.08,37.08,0,0,0-3.62,4.45c-2.26,3.13-3.34,6.39-5,11.24l-1.28,2.91s-4.33,4.19-5.24,6c-1.69,3.43-.68,1-1.22,2.4-.22.55.95,5.9.95,5.9s1,4.37,1.47,4.45c1.19.22,1.33.32,1.75,0,.68-.59.46-3.28.59-3.55.34-.72,2.06-3.55,3-3.16s-2.06,4.6-1.63,5.39a1.93,1.93,0,0,0,1.49.84c1.12-2.28,2.41-2.3,2.87-3.4.53-1.31,2.89-3.69,1.08-7.33-.26-.37.27-2.49.94-4.76a11,11,0,0,1,1.7-3c2.35-2.57,7.53-8.25,8.54-9.65C490,906.89,491.45,904.37,491.45,904.37Z"/><path class="cls-21" d="M542.72,908.05c.45-.22.88-.45,1.28-.69a39,39,0,0,0,6.59-5.4c-.12.15-5.11-12.29-8-20-1.87-4.89-2.4-6-5-8.72s-10-6.91-11.36-7.94-5.88-4.47-5.88-4.47L516.74,857c-1.08-1.14-2.13-2.36-6.59-2.05a7.31,7.31,0,0,0-2.69.78l-.66-2.51c-3.77,1.26-6.64,5.36-6.64,5.36s-6,1.31-8,2.51a17.26,17.26,0,0,0-5.37,5.66c-.65,1.07-2.59,12-3.42,14.18-2.19,5.8,9.48,9,9.48,9s9.06,18.41,9.45,19.88-.36,3.63-.16,4.89.59.65,1.07,2a2.15,2.15,0,0,1-.31,2.37c-.36.62.21,1.78.21,1.78s3,9.41,10.43,9.19c14.34,2.09,23.27,3.42,28.41,4.18,4.18.62,5.23-.42,4.41-2.39-1.58-3.71-4-9.77-4.62-13.78a14.49,14.49,0,0,1,2-10.24Zm-7.9,2.17-5.75-15.41s5.59,14.3,6.23,16Z"/><path class="cls-22" d="M512.16,846.94s1.52,11.44,4.75,15.16c.13.14-1.5,14.46-9.35,14.07s-6.59-4.86-6.75-5.8c-.46-2.78-.92-8.08-.92-8.08Z"/><path class="cls-23" d="M550.64,865.05s0,0,0,.11a22.89,22.89,0,0,0-1.59-4.54c-3.22-6.35-15.13-16.47-25.51-19.88a25.94,25.94,0,0,0-10.43-.94l0,.22-.36,3.52-.25.05c0,1.67,0,3.55,0,5.29.27,1.57.72,3.89,1.36,6.22a5.31,5.31,0,0,1,2.91,1.85l3.65,3.89s4.56,3.43,5.88,4.47,8.81,5.16,11.36,7.94,3.08,3.83,5,8.72c1.17,3.12,2.69,7,4.09,10.53.71-1.81,1.38-3.57,2-5.24,2.14,6.94,5.49,21.48-3.76,32.34-12.28,14.42-24.61,24.19-26.76,27.23s-4.76,7.79-2.87,17.76,12,63.19,12,63.19l6.15,1.82,4.6-5s-12.38-55.78-13.82-62,.11-8.14,1.19-9.9,19.29-19,30.27-30.83S550.64,865.05,550.64,865.05Z"/><path class="cls-20" d="M528.57,939l4.95-20.17,2.65-5.36-.8-2.82c.81-.43,3.58-1.24,6.1-2.25a20.85,20.85,0,0,0,4.14-2.19s.94,12.92.17,15S533.9,943,533.9,943s-1.89,8.34-3,10.07-6.15,3.71-7.65,3.37-6.23,1.21-7.06-1.13,6.74-6.43,5.48-8.21-5.71,3-6.76,1.29,5.76-5.29,5.76-5.29Z"/><path class="cls-24" d="M439.47,681c1.71,12.73-5.55,24.22-16.21,25.65s-20.71-7.72-22.42-20.46,5.54-24.22,16.21-25.66S437.76,668.22,439.47,681Z"/><path class="cls-25" d="M426.58,707.35c1.71,12.74-5.54,24.22-16.22,25.66s-20.7-7.72-22.41-20.46,5.55-24.22,16.21-25.66S424.87,694.62,426.58,707.35Z"/><path class="cls-26" d="M458,697.82c-.19,12.85-9.08,23.14-19.84,23s-19.34-10.7-19.14-23.55,9.07-23.13,19.83-23S458.16,685,458,697.82Z"/><path class="cls-27" d="M443.82,713.25c1.71,12.74-5.55,24.22-16.22,25.66s-20.71-7.72-22.42-20.46,5.55-24.22,16.21-25.66S442.1,700.52,443.82,713.25Z"/><path class="cls-28" d="M406.17,740.31c3.43,12.39-2.21,24.75-12.58,27.62s-21.57-4.84-25-17.23,2.22-24.75,12.6-27.62S402.75,727.93,406.17,740.31Z"/><path class="cls-29" d="M441.17,754.71c1.71,12.74-5.55,24.23-16.22,25.66s-20.7-7.73-22.41-20.46,5.55-24.23,16.21-25.66S439.46,742,441.17,754.71Z"/><path class="cls-30" d="M471.3,734.22c1.72,12.73-5.55,24.22-16.22,25.66s-20.71-7.73-22.42-20.47,5.55-24.22,16.22-25.65S469.58,721.48,471.3,734.22Z"/><path class="cls-31" d="M460.3,768.58c1.71,12.74-5.55,24.22-16.22,25.66s-20.7-7.73-22.42-20.46,5.55-24.22,16.22-25.66S458.59,755.85,460.3,768.58Z"/><path class="cls-32" d="M437.74,790.54c5.35,11.7,1.75,24.79-8,29.28s-22.06-1.36-27.41-13.05-1.75-24.78,8-29.26S432.39,778.86,437.74,790.54Z"/><path class="cls-33" d="M509.5,712.64c1.72,12.73-5.55,24.22-16.22,25.66s-20.7-7.73-22.42-20.46,5.55-24.23,16.22-25.66S507.79,699.91,509.5,712.64Z"/><path class="cls-34" d="M519.74,727.7c1.71,12.74-5.54,24.23-16.22,25.66s-20.7-7.73-22.41-20.46,5.55-24.23,16.21-25.66S518,715,519.74,727.7Z"/><path class="cls-35" d="M496.18,736.82c3.17,12.45-2.71,24.7-13.14,27.36s-21.46-5.28-24.64-17.73,2.71-24.7,13.14-27.36S493,724.37,496.18,736.82Z"/><path class="cls-36" d="M494.68,666.33c1.72,12.74-5.55,24.23-16.21,25.66s-20.71-7.72-22.42-20.46,5.55-24.22,16.21-25.66S493,653.6,494.68,666.33Z"/><polygon class="cls-6" points="558.61 890.82 550.37 895.13 557.12 885.67 549.68 892.01 554.04 876.73 548.7 887.26 550.14 863.63 550.9 899.07 555.53 881.88 547.2 889.41 558.61 890.82"/><polygon class="cls-6" points="458.54 923.51 464.35 931.01 455.04 929.33 462.52 935.26 453.92 932.95 462 939.35 454.73 930.97 463.51 932.73 456.79 926.42 465.22 930.09 458.54 923.51"/><path class="cls-37" d="M552.63,716.08c1.71,12.74-5.54,24.22-16.21,25.66S515.71,734,514,721.28s5.55-24.22,16.23-25.66S550.92,703.35,552.63,716.08Z"/><path class="cls-38" d="M538.24,743.84c.28,12.85-8.2,23.46-19,23.7s-19.72-10-20-22.83,8.2-23.45,19-23.69S538,731,538.24,743.84Z"/><path class="cls-39" d="M516,761.09c1.71,12.73-5.55,24.22-16.22,25.65s-20.71-7.72-22.42-20.45,5.55-24.23,16.22-25.66S514.31,748.35,516,761.09Z"/><path class="cls-40" d="M580.47,725c-.14,12.85-9,23.17-19.75,23s-19.37-10.63-19.23-23.48,9-23.17,19.76-23S580.62,712.11,580.47,725Z"/><path class="cls-41" d="M598.7,712c-2.05,12.69-12.32,21.58-22.94,19.87s-17.59-13.39-15.55-26.08,12.32-21.58,22.95-19.86S600.75,699.28,598.7,712Z"/><path class="cls-42" d="M571.41,753.75c1.6,12.75-5.76,24.17-16.45,25.51s-20.63-7.92-22.23-20.67,5.76-24.17,16.45-25.51S569.82,741,571.41,753.75Z"/><path class="cls-43" d="M604.37,738.1c-.16,12.85-9,23.17-19.76,23s-19.38-10.64-19.23-23.49,9-23.17,19.76-23S604.51,725.25,604.37,738.1Z"/><path class="cls-44" d="M637.14,722.18c-.15,12.85-9,23.17-19.76,23S598,734.59,598.15,721.73s9-23.16,19.76-23S637.28,709.33,637.14,722.18Z"/><path class="cls-45" d="M621.28,754.59c-.14,12.85-9,23.17-19.75,23S582.15,767,582.3,754.15s9-23.17,19.75-23S621.43,741.74,621.28,754.59Z"/><path class="cls-46" d="M595.78,773.06c3.61,12.34-1.85,24.78-12.19,27.81S562,796.33,558.36,784s1.86-24.79,12.19-27.8S592.19,760.73,595.78,773.06Z"/><path class="cls-47" d="M498.86,872.88c-1.44-.17-4.37,2.31-4.37,2.31l3.57-12.55,2.19-.25a24.06,24.06,0,0,0,.21,5.87,40.91,40.91,0,0,1,.68,4.14l3.06,5.88S500.3,873.05,498.86,872.88Z"/><path class="cls-20" d="M512.15,846.94s1.59,11.64,4.88,15.41c.13.14-1.68,11.27-1.68,11.27s-.33-2.68-2.8-1.6c-.5.21-2.4,1.86-3.33,6.32-.69,3.29-1.44,10.27-1.44,10.27s-1.24-3.82-2.56-7c-1.75-4.24-3.68-8.88-4.06-9.11-.59-.34-1.43-9.92-1.43-9.92Z"/><path class="cls-48" d="M509.37,877.88l2.28-6.08s4.23-9,4.12-12.3a13.57,13.57,0,0,0-2.38-6.45s4.8,3.43,5.6,6.22,1,19.6,1,19.6-5.93-6-7-5.72S509.37,877.88,509.37,877.88Z"/><path class="cls-49" d="M504.66,880.21a9.15,9.15,0,0,0,2.23.68c.88.08,2-1.21,2-1.21l-1.05,8.49Z"/><path class="cls-49" d="M502.32,881.51c.14.53.58.87,1,.76a.87.87,0,0,0,.46-1.14c-.14-.53-.57-.87-1-.76A.89.89,0,0,0,502.32,881.51Z"/><path class="cls-49" d="M504.19,886.13c.14.52.57.87,1,.76a.9.9,0,0,0,.47-1.14c-.15-.53-.59-.87-1-.77A.89.89,0,0,0,504.19,886.13Z"/><path class="cls-20" d="M489.27,848.25l7.58,13.86a5,5,0,0,0,3.81,3.52c3.08.53,5.76-2,5.76-2s5.13-7.16,5.6-9,.8-12.73.09-15.32-3-6.46-4.36-7.37-3.91-2.05-8.41-1.52-6.39,1.76-8.09,3.45a14.58,14.58,0,0,0-3.34,6.75C487.34,842.84,489.27,848.25,489.27,848.25Z"/><polygon class="cls-50" points="493.87 850.34 490.05 850.41 491.2 852.37 494.8 852.19 493.87 850.34"/><polygon class="cls-50" points="502.27 849.64 497.93 849.96 498.72 852.09 503.19 851.21 502.27 849.64"/><path class="cls-51" d="M512.72,840.72l-.48-6.35-1.75-2.73.1-2.79L508,830.68s-1.21-1.17-1.12-2.12a13.87,13.87,0,0,1,1-2.87L504,829.76s-4.9-.14-4.18-.84a6.23,6.23,0,0,0,1.6-2.07s-5.15,3.88-6.69,4-1.52-.66-1.52-.66-2.48,3.68-3.15,3.64-1.57-1.05-1.57-1.05l-.59,4.28-1.83-.77s.29,4.48,1.49,6.25,5.78,0,5.78,0l1.22-1.32a4.78,4.78,0,0,0,1.59,1.26c1.1.46,2.69-.45,2.69-.45s-1.51.07-2-.5a4.37,4.37,0,0,1-.57-1.57l3.33-1.26,5.39.86,3.82,7.58,1.38-2.93,2.32,1.62Z"/><path class="cls-52" d="M499.91,861.52c-1,.23-2.46-1-2.62-1.37s-.27-1.65,1.38-1.89a2.49,2.49,0,0,1,2.72,1.38C501.55,860.1,500.9,861.28,499.91,861.52Z"/><circle class="cls-1" cx="193.76" cy="205.6" r="128.8" transform="translate(-68.01 311.86) rotate(-68.79)"/><circle class="cls-53" cx="193.76" cy="205.6" r="128.8" transform="translate(-68.01 311.86) rotate(-68.79)"/><circle class="cls-1" cx="503.5" cy="205.6" r="128.8" transform="translate(2.09 416.25) rotate(-45)"/><circle class="cls-53" cx="503.5" cy="205.6" r="128.8" transform="translate(2.09 416.25) rotate(-45)"/><circle class="cls-1" cx="813.23" cy="205.6" r="128.8" transform="translate(92.81 635.26) rotate(-45)"/><circle class="cls-53" cx="813.23" cy="205.6" r="128.8" transform="translate(92.81 635.26) rotate(-45)"/><circle class="cls-1" cx="347.5" cy="492.18" r="128.8" transform="translate(-163.15 811.93) rotate(-86.83)"/><circle class="cls-53" cx="347.5" cy="492.18" r="128.8" transform="translate(-163.15 811.93) rotate(-86.83)"/><circle class="cls-1" cx="657.23" cy="492.18" r="128.8" transform="translate(135.11 1125.89) rotate(-87.34)"/><circle class="cls-53" cx="657.23" cy="492.18" r="128.8" transform="translate(135.11 1125.89) rotate(-87.34)"/><path class="cls-54" d="M154.78,50.49a3.64,3.64,0,0,0,1.78.49,1.93,1.93,0,0,0,2.05-2.09A3.16,3.16,0,0,0,157,46.33c-1-.68-2.33-1.83-2.33-3.43a3.11,3.11,0,0,1,3.26-3.24,3.19,3.19,0,0,1,1.74.46l-.34,1.21a2.62,2.62,0,0,0-1.47-.43,1.71,1.71,0,0,0-1.78,1.76c0,1.23.64,1.71,1.82,2.55A4.23,4.23,0,0,1,160,48.77a3.31,3.31,0,0,1-3.46,3.46,4.22,4.22,0,0,1-2.09-.53Z"/><path class="cls-54" d="M163.08,39.77V52.12h-1.41V39.77Z"/><path class="cls-54" d="M165.31,52.12V39.77h1.34l2.27,5.79c.52,1.32,1.16,3,1.58,4.31h0c-.11-1.95-.17-3.54-.17-5.69V39.77h1.27V52.12H170.3L168,46.18c-.49-1.24-1-2.66-1.46-4.2h0c.11,1.65.15,3.23.15,5.87v4.27Z"/><path class="cls-54" d="M179.92,51.81a6.33,6.33,0,0,1-2.2.42A3.7,3.7,0,0,1,174.8,51a7.13,7.13,0,0,1-1.48-4.91c0-4.8,2.47-6.45,4.65-6.45a3.78,3.78,0,0,1,1.76.35l-.31,1.21a3,3,0,0,0-1.43-.3c-1.54,0-3.2,1.23-3.2,5.06s1.44,5,2.93,5a1.94,1.94,0,0,0,.86-.15v-4H177V45.67h2.94Z"/><path class="cls-54" d="M181.82,39.77h1.41V50.93h3.48v1.19h-4.89Z"/><path class="cls-54" d="M192.63,46.25h-3.1v4.64h3.52v1.23h-4.93V39.77h4.71V41h-3.3v4.06h3.1Z"/><path class="cls-54" d="M198.07,46.79v1.1h-4v-1.1Z"/><path class="cls-54" d="M205.22,51.9a4,4,0,0,1-1.76.33c-2.42,0-4.14-1.94-4.14-6.14,0-4.87,2.42-6.43,4.36-6.43a3,3,0,0,1,1.54.31l-.31,1.19a2.71,2.71,0,0,0-1.25-.26c-1.32,0-2.86,1.29-2.86,5.06s1.39,5,2.9,5a3.19,3.19,0,0,0,1.3-.27Z"/><path class="cls-54" d="M208.79,52.12V46.9l-2.71-7.13h1.48l1.1,3.09c.31.87.64,1.84.92,2.79h0c.26-.95.57-1.89.9-2.84l1.05-3H213l-2.84,7.07v5.28Z"/><path class="cls-54" d="M219.09,51.9a4,4,0,0,1-1.76.33c-2.42,0-4.15-1.94-4.15-6.14,0-4.87,2.42-6.43,4.37-6.43a3,3,0,0,1,1.54.31l-.32,1.19a2.63,2.63,0,0,0-1.24-.26c-1.32,0-2.86,1.29-2.86,5.06s1.39,5,2.89,5a3.21,3.21,0,0,0,1.31-.27Z"/><path class="cls-54" d="M220.53,39.77h1.41V50.93h3.48v1.19h-4.89Z"/><path class="cls-54" d="M231.34,46.25h-3.1v4.64h3.52v1.23h-4.93V39.77h4.71V41h-3.3v4.06h3.1Z"/><path class="cls-54" d="M481.54,40a7.79,7.79,0,0,1,2-.24,3.82,3.82,0,0,1,2.79.88,3.34,3.34,0,0,1,.86,2.42,3.21,3.21,0,0,1-2,3.17v0c.92.27,1.39,1.15,1.67,2.76a16.54,16.54,0,0,0,.7,3.14h-1.43a14.92,14.92,0,0,1-.66-3.06c-.28-1.69-.81-2.33-2-2.33H483v5.39h-1.41Zm1.41,5.7h.59a2.24,2.24,0,0,0,2.25-2.48c0-1.43-.59-2.3-2.11-2.32a3.06,3.06,0,0,0-.73.07Z"/><path class="cls-54" d="M490.63,48.42l-.83,3.7h-1.35l2.82-12.35h1.56l2.75,12.35h-1.4l-.82-3.7Zm2.54-1.14-.64-3.13c-.18-.88-.34-1.91-.49-2.83H492c-.15.94-.33,2-.5,2.83l-.64,3.13Z"/><path class="cls-54" d="M497.11,40a6.52,6.52,0,0,1,1.91-.24,4.08,4.08,0,0,1,2.89.94c1,.82,1.67,2.41,1.67,5,0,2.82-.7,4.36-1.48,5.2a4.33,4.33,0,0,1-3.41,1.34,8.2,8.2,0,0,1-1.58-.13Zm1.41,11a2.75,2.75,0,0,0,.53,0c1.56,0,3.06-1.12,3.06-5.31,0-3.12-.95-4.82-2.93-4.82a2.35,2.35,0,0,0-.66.07Z"/><path class="cls-54" d="M506.68,39.77V52.12h-1.41V39.77Z"/><path class="cls-54" d="M510.4,48.42l-.83,3.7h-1.36L511,39.77h1.55l2.75,12.35H514l-.82-3.7Zm2.54-1.14-.64-3.13c-.18-.88-.35-1.91-.49-2.83h-.08c-.14.94-.33,2-.49,2.83l-.64,3.13Z"/><path class="cls-54" d="M516.88,39.77h1.41V50.93h3.48v1.19h-4.89Z"/><path class="cls-54" d="M762.65,40a8.09,8.09,0,0,1,2.06-.24,3.77,3.77,0,0,1,2.73.92,3.46,3.46,0,0,1,.91,2.54,3.89,3.89,0,0,1-.75,2.53,3.61,3.61,0,0,1-2.91,1.38c-.24,0-.42,0-.63,0v5.06h-1.41Zm1.41,5.92a2.87,2.87,0,0,0,.55.05c1.4,0,2.33-.91,2.33-2.65,0-1.27-.53-2.4-2.09-2.4a2.76,2.76,0,0,0-.79.09Z"/><path class="cls-54" d="M770.4,48.42l-.82,3.7h-1.36L771,39.77h1.56l2.75,12.35H774l-.83-3.7ZM773,47.28l-.64-3.13c-.18-.88-.35-1.91-.5-2.83h-.07c-.15.94-.33,2-.49,2.83l-.65,3.13Z"/><path class="cls-54" d="M776.89,40a7.79,7.79,0,0,1,2-.24,3.82,3.82,0,0,1,2.79.88,3.34,3.34,0,0,1,.86,2.42,3.21,3.21,0,0,1-2,3.17v0c.92.27,1.39,1.15,1.67,2.76a17.79,17.79,0,0,0,.69,3.14h-1.42a15.41,15.41,0,0,1-.67-3.06c-.27-1.69-.8-2.33-2-2.33h-.55v5.39h-1.41Zm1.41,5.7h.59a2.24,2.24,0,0,0,2.25-2.48c0-1.43-.59-2.3-2.11-2.32a3.06,3.06,0,0,0-.73.07Z"/><path class="cls-54" d="M788.89,46.25h-3.1v4.64h3.52v1.23h-4.93V39.77h4.71V41h-3.3v4.07h3.1Z"/><path class="cls-54" d="M790.87,52.12V39.77h1.33l2.28,5.79c.51,1.32,1.15,3,1.57,4.3h0c-.11-1.94-.17-3.53-.17-5.68V39.77h1.27V52.12h-1.34l-2.34-5.94A43.25,43.25,0,0,1,792,42h0c.11,1.65.15,3.23.15,5.87v4.27Z"/><path class="cls-54" d="M800.83,41h-2.25V39.77h5.92V41h-2.26V52.12h-1.41Z"/><path class="cls-54" d="M808.68,46.78v1.1h-4v-1.1Z"/><path class="cls-54" d="M815.82,51.9a4,4,0,0,1-1.76.33c-2.42,0-4.14-1.95-4.14-6.14,0-4.88,2.42-6.43,4.36-6.43a3,3,0,0,1,1.54.31l-.31,1.19a2.65,2.65,0,0,0-1.25-.26c-1.32,0-2.85,1.28-2.85,5.06s1.39,5,2.89,5a3.15,3.15,0,0,0,1.3-.27Z"/><path class="cls-54" d="M821.77,46.25h-3.09v4.64h3.52v1.23h-4.93V39.77H822V41h-3.3v4.07h3.09Z"/><path class="cls-54" d="M823.75,52.12V39.77h1.34l2.27,5.79c.51,1.32,1.16,3,1.58,4.3h0c-.11-1.94-.16-3.53-.16-5.68V39.77h1.26V52.12h-1.33l-2.35-5.94c-.49-1.25-1-2.66-1.47-4.2h0c.11,1.65.14,3.23.14,5.87v4.27Z"/><path class="cls-54" d="M833.72,41h-2.26V39.77h5.92V41h-2.25V52.12h-1.41Z"/><path class="cls-54" d="M843.26,46.25h-3.09v4.64h3.52v1.23h-4.93V39.77h4.71V41h-3.3v4.07h3.09Z"/><path class="cls-54" d="M845.24,40a7.87,7.87,0,0,1,2-.24,3.81,3.81,0,0,1,2.78.88,3.3,3.3,0,0,1,.86,2.42,3.21,3.21,0,0,1-2,3.17v0c.92.27,1.4,1.15,1.67,2.76a17.43,17.43,0,0,0,.7,3.14h-1.43a16.49,16.49,0,0,1-.66-3.06c-.28-1.69-.81-2.33-2-2.33h-.55v5.39h-1.41Zm1.41,5.7h.59a2.24,2.24,0,0,0,2.25-2.48c0-1.43-.58-2.3-2.1-2.32a3.15,3.15,0,0,0-.74.07Z"/><path class="cls-54" d="M857.24,46.25h-3.09v4.64h3.51v1.23h-4.92V39.77h4.71V41h-3.3v4.07h3.09Z"/><path class="cls-54" d="M859.22,40a6.52,6.52,0,0,1,1.91-.24,4.1,4.1,0,0,1,2.89.94c1,.82,1.67,2.41,1.67,5,0,2.82-.7,4.36-1.49,5.2a4.29,4.29,0,0,1-3.4,1.34,8.2,8.2,0,0,1-1.58-.13Zm1.41,11a2.7,2.7,0,0,0,.53,0c1.56,0,3.06-1.12,3.06-5.31,0-3.12-1-4.82-2.93-4.82a2.35,2.35,0,0,0-.66.07Z"/><path class="cls-54" d="M323.32,331.81a8.41,8.41,0,0,1,2.07-.24,3.86,3.86,0,0,1,2.73.86,2.81,2.81,0,0,1,.81,2.11,2.86,2.86,0,0,1-1.91,2.75v0a3,3,0,0,1,2.29,3.15,3.56,3.56,0,0,1-.88,2.46,4.22,4.22,0,0,1-3.26,1.11,9.46,9.46,0,0,1-1.85-.13Zm1.41,5.06h.64a2.12,2.12,0,0,0,2.15-2.18,1.81,1.81,0,0,0-2-2,2.72,2.72,0,0,0-.75.09Zm0,6a3,3,0,0,0,.72.08,2.24,2.24,0,0,0,2.42-2.46,2.4,2.4,0,0,0-2.51-2.53h-.63Z"/><path class="cls-54" d="M332.43,340.28l-.83,3.7h-1.35l2.82-12.35h1.56L337.37,344H336l-.82-3.7Zm2.54-1.14-.64-3.13c-.18-.88-.35-1.91-.49-2.82h-.08c-.14.93-.33,2-.49,2.82l-.64,3.13Z"/><path class="cls-54" d="M338.91,331.63h1.41v11.16h3.48V344h-4.89Z"/><path class="cls-54" d="M345.21,331.63h1.41v11.16h3.49V344h-4.9Z"/><path class="cls-54" d="M357.23,337.71c0,4.64-1.59,6.42-3.57,6.42s-3.43-2.18-3.43-6.34,1.47-6.31,3.63-6.31S357.23,333.77,357.23,337.71Zm-5.53.09c0,2.55.49,5.08,2.05,5.08s2-2.69,2-5.11-.42-5-2-5S351.7,335.29,351.7,337.8Z"/><path class="cls-54" d="M365.41,337.71c0,4.64-1.6,6.42-3.58,6.42s-3.43-2.18-3.43-6.34,1.47-6.31,3.63-6.31S365.41,333.77,365.41,337.71Zm-5.54.09c0,2.55.49,5.08,2.05,5.08s2-2.69,2-5.11-.42-5-2-5S359.87,335.29,359.87,337.8Z"/><path class="cls-54" d="M367.09,344V331.63h1.34l2.27,5.79c.51,1.32,1.15,3,1.58,4.31h0c-.11-2-.16-3.54-.16-5.69v-4.41h1.26V344h-1.34L369.73,338a43,43,0,0,1-1.47-4.19h0c.11,1.64.14,3.22.14,5.86V344Z"/><path class="cls-54" d="M618,343.76a4,4,0,0,1-1.76.33c-2.42,0-4.14-1.94-4.14-6.14,0-4.88,2.42-6.43,4.36-6.43a3,3,0,0,1,1.54.31l-.31,1.19a2.65,2.65,0,0,0-1.25-.26c-1.31,0-2.85,1.29-2.85,5.06s1.39,5,2.89,5a3.15,3.15,0,0,0,1.3-.27Z"/><path class="cls-54" d="M620.88,331.63V344h-1.41V331.63Z"/><path class="cls-54" d="M623.11,331.81a8.33,8.33,0,0,1,2-.24,3.8,3.8,0,0,1,2.78.88,3.3,3.3,0,0,1,.86,2.42,3.22,3.22,0,0,1-2,3.17v0c.91.27,1.39,1.15,1.66,2.76a17.43,17.43,0,0,0,.7,3.14h-1.43a16.49,16.49,0,0,1-.66-3.06c-.27-1.69-.81-2.33-2-2.33h-.54V344h-1.42Zm1.42,5.7h.58a2.24,2.24,0,0,0,2.26-2.47c0-1.43-.59-2.31-2.11-2.33a3,3,0,0,0-.73.07Z"/><path class="cls-54" d="M636,343.76a3.9,3.9,0,0,1-1.75.33c-2.42,0-4.15-1.94-4.15-6.14,0-4.88,2.42-6.43,4.37-6.43a3,3,0,0,1,1.53.31l-.31,1.19a2.63,2.63,0,0,0-1.24-.26c-1.32,0-2.86,1.29-2.86,5.06s1.39,5,2.89,5a3.21,3.21,0,0,0,1.31-.27Z"/><path class="cls-54" d="M637.44,331.63h1.41v11.16h3.48V344h-4.89Z"/><path class="cls-54" d="M648.25,338.11h-3.1v4.64h3.52V344h-4.93V331.63h4.71v1.23h-3.3v4.06h3.1Z"/><path class="cls-54" d="M653.69,338.65v1.1h-4v-1.1Z"/><path class="cls-54" d="M655.34,331.81a8.07,8.07,0,0,1,2-.24,3.74,3.74,0,0,1,2.73.92A3.43,3.43,0,0,1,661,335a3.94,3.94,0,0,1-.75,2.52,3.63,3.63,0,0,1-2.92,1.38,6.12,6.12,0,0,1-.62,0V344h-1.41Zm1.41,5.92a2.19,2.19,0,0,0,.55,0c1.39,0,2.33-.91,2.33-2.65,0-1.27-.53-2.4-2.09-2.4a2.72,2.72,0,0,0-.79.09Z"/><path class="cls-54" d="M663.09,340.28l-.82,3.7h-1.36l2.82-12.35h1.56L668,344h-1.4l-.82-3.7Zm2.55-1.14L665,336c-.19-.88-.35-1.91-.5-2.83h-.07c-.15.94-.33,2-.5,2.83l-.64,3.13Z"/><path class="cls-54" d="M674.6,343.76a4,4,0,0,1-1.76.33c-2.42,0-4.14-1.94-4.14-6.14,0-4.88,2.41-6.43,4.36-6.43a3,3,0,0,1,1.54.31l-.32,1.19a2.63,2.63,0,0,0-1.24-.26c-1.32,0-2.86,1.29-2.86,5.06s1.39,5,2.89,5a3.21,3.21,0,0,0,1.31-.27Z"/><path class="cls-54" d="M676,331.63h1.41v5.86h0l.77-1.48,2.31-4.38h1.56l-3,5.27,3.1,7.08h-1.52l-2.53-6-.7,1.19V344H676Z"/><path class="cls-54" d="M684.85,331.63V344h-1.41V331.63Z"/><path class="cls-54" d="M687.09,344V331.63h1.34l2.27,5.79c.51,1.32,1.15,3,1.58,4.3h0c-.11-1.94-.16-3.53-.16-5.68v-4.41h1.26V344h-1.34L689.73,338a42.33,42.33,0,0,1-1.47-4.2h0c.11,1.65.15,3.23.15,5.87V344Z"/><path class="cls-54" d="M701.69,343.67a6.33,6.33,0,0,1-2.2.42,3.66,3.66,0,0,1-2.91-1.21A7.08,7.08,0,0,1,695.1,338c0-4.8,2.47-6.45,4.65-6.45a3.81,3.81,0,0,1,1.76.35l-.31,1.2a3.16,3.16,0,0,0-1.43-.29c-1.54,0-3.21,1.23-3.21,5.06s1.45,5,2.93,5a1.91,1.91,0,0,0,.86-.15v-4h-1.59v-1.17h2.93Z"/><circle class="cls-55" cx="657.23" cy="492.18" r="116.8"/><path class="cls-56" d="M590.49,434.62A30.51,30.51,0,1,1,560,465.13,30.51,30.51,0,0,1,590.49,434.62Z"/><path class="cls-56" d="M685.26,420a17.88,17.88,0,1,1-17.89,17.88A17.89,17.89,0,0,1,685.26,420Z"/><path class="cls-57" d="M704.23,488.7A50.26,50.26,0,1,1,654,539,50.26,50.26,0,0,1,704.23,488.7Z"/><path class="cls-56" d="M669.62,539.63a10.42,10.42,0,1,1-10.42,10.42A10.43,10.43,0,0,1,669.62,539.63Z"/><path class="cls-56" d="M704.82,555.68a10.59,10.59,0,1,1-10.59,10.58A10.57,10.57,0,0,1,704.82,555.68Z"/><path class="cls-56" d="M688.47,538.33a8.68,8.68,0,1,1-8.68,8.68A8.67,8.67,0,0,1,688.47,538.33Z"/><path class="cls-56" d="M727.37,501.06a21.88,21.88,0,1,1-21.87,21.88A21.88,21.88,0,0,1,727.37,501.06Z"/><path class="cls-56" d="M723.55,544.6a11,11,0,1,1-11,11A11,11,0,0,1,723.55,544.6Z"/><path class="cls-56" d="M705.84,538.31a8.7,8.7,0,1,1-8.7,8.7A8.7,8.7,0,0,1,705.84,538.31Z"/><path class="cls-56" d="M697.13,521.65a9.45,9.45,0,1,1-9.44,9.44A9.44,9.44,0,0,1,697.13,521.65Z"/><path class="cls-56" d="M678.13,522.39a9.58,9.58,0,1,1-9.57,9.57A9.58,9.58,0,0,1,678.13,522.39Z"/><path class="cls-56" d="M683.67,555.07a10.58,10.58,0,1,1-10.57,10.57A10.57,10.57,0,0,1,683.67,555.07Z"/><path class="cls-56" d="M668.67,449.64a7.55,7.55,0,1,1-7.55,7.55A7.55,7.55,0,0,1,668.67,449.64Z"/><path class="cls-56" d="M635.47,433.52a16.83,16.83,0,1,1-16.83,16.83A16.83,16.83,0,0,1,635.47,433.52Z"/><path class="cls-56" d="M656.16,452.23a5,5,0,1,1-5,5A5,5,0,0,1,656.16,452.23Z"/><path class="cls-56" d="M687.93,455.69a17.5,17.5,0,1,1-17.49,17.5A17.5,17.5,0,0,1,687.93,455.69Z"/><path class="cls-56" d="M653.59,462a17.4,17.4,0,1,1-17.4,17.4A17.4,17.4,0,0,1,653.59,462Z"/><circle class="cls-56" cx="613.82" cy="417.59" r="22.44" transform="translate(-91.09 650.54) rotate(-52.51)"/><path class="cls-56" d="M623.17,486.6a33.07,33.07,0,1,1-33.07,33.07A33.07,33.07,0,0,1,623.17,486.6Z"/><path class="cls-56" d="M659.5,437a7.82,7.82,0,1,1-7.81,7.82A7.82,7.82,0,0,1,659.5,437Z"/><path class="cls-56" d="M654.35,401.3a18.13,18.13,0,1,1-18.13,18.13A18.13,18.13,0,0,1,654.35,401.3Z"/><line class="cls-58" x1="810.27" y1="209.21" x2="750.61" y2="253.24"/><line class="cls-58" x1="817.14" y1="211.44" x2="840.29" y2="282.11"/><line class="cls-58" x1="821.38" y1="205.6" x2="896.29" y2="205.6"/><line class="cls-58" x1="810.27" y1="202" x2="750.61" y2="157.96"/><line class="cls-58" x1="817.14" y1="199.77" x2="840.29" y2="129.09"/><line class="cls-58" x1="834.18" y1="282.11" x2="806.74" y2="279.56"/><line class="cls-58" x1="844.89" y1="278.63" x2="865.58" y2="261"/><line class="cls-58" x1="842.19" y1="288.53" x2="850.7" y2="314.73"/><line class="cls-58" x1="748.32" y1="247.25" x2="742.28" y2="220.37"/><line class="cls-58" x1="754.95" y1="256.37" x2="778.65" y2="270.43"/><line class="cls-58" x1="744.7" y1="256.85" x2="722.41" y2="273.05"/><line class="cls-58" x1="893.86" y1="211.24" x2="882.95" y2="236.54"/><line class="cls-58" x1="893.86" y1="199.97" x2="882.95" y2="174.67"/><line class="cls-58" x1="902.43" y1="205.6" x2="929.98" y2="205.6"/><line class="cls-58" x1="754.95" y1="154.83" x2="778.65" y2="140.78"/><line class="cls-58" x1="748.32" y1="163.96" x2="742.28" y2="190.84"/><line class="cls-58" x1="744.7" y1="154.36" x2="722.41" y2="138.56"/><line class="cls-58" x1="842.19" y1="122.68" x2="850.7" y2="96.48"/><line class="cls-58" x1="834.18" y1="129.09" x2="806.74" y2="132.02"/><line class="cls-58" x1="844.89" y1="132.58" x2="865.58" y2="150.77"/><path class="cls-59" d="M821.38,205.6a6.14,6.14,0,1,1-6.14-6.14,6.13,6.13,0,0,1,6.14,6.14Z"/><path class="cls-59" d="M755.81,253.24a6.14,6.14,0,1,1-6.14-6.13,6.13,6.13,0,0,1,6.14,6.13Z"/><path class="cls-59" d="M846.43,282.69a6.14,6.14,0,1,1-6.15-6.14,6.15,6.15,0,0,1,6.15,6.14Z"/><path class="cls-59" d="M902.43,205.6a6.14,6.14,0,1,1-6.14-6.14,6.13,6.13,0,0,1,6.14,6.14Z"/><path class="cls-59" d="M755.81,158a6.14,6.14,0,1,1-6.14-6.13,6.13,6.13,0,0,1,6.14,6.13Z"/><path class="cls-59" d="M846.43,128.52a6.14,6.14,0,1,1-6.15-6.14,6.15,6.15,0,0,1,6.15,6.14Z"/><path class="cls-59" d="M812.88,279.56a6.14,6.14,0,1,1-6.14-6.14,6.14,6.14,0,0,1,6.14,6.14Z"/><path class="cls-59" d="M871.73,260.43a6.15,6.15,0,1,1-6.14-6.13,6.14,6.14,0,0,1,6.14,6.13Z"/><path class="cls-59" d="M856.84,314.73a6.15,6.15,0,1,1-6.14-6.14,6.14,6.14,0,0,1,6.14,6.14Z"/><path class="cls-59" d="M748.42,220.37a6.14,6.14,0,1,1-6.14-6.14,6.14,6.14,0,0,1,6.14,6.14Z"/><path class="cls-59" d="M784.79,270.43a6.14,6.14,0,1,1-6.14-6.14,6.14,6.14,0,0,1,6.14,6.14Z"/><path class="cls-59" d="M728.55,273.05a6.14,6.14,0,1,1-6.13-6.14,6.14,6.14,0,0,1,6.13,6.14Z"/><path class="cls-59" d="M889.09,236.54a6.14,6.14,0,1,1-6.15-6.14,6.14,6.14,0,0,1,6.15,6.14Z"/><path class="cls-59" d="M889.09,174.67a6.14,6.14,0,1,1-6.15-6.14,6.14,6.14,0,0,1,6.15,6.14Z"/><path class="cls-59" d="M936.12,205.6a6.14,6.14,0,1,1-6.14-6.14,6.13,6.13,0,0,1,6.14,6.14Z"/><path class="cls-59" d="M784.79,140.78a6.14,6.14,0,1,1-6.14-6.14,6.14,6.14,0,0,1,6.14,6.14Z"/><path class="cls-59" d="M748.42,190.84a6.14,6.14,0,1,1-6.14-6.14,6.13,6.13,0,0,1,6.14,6.14Z"/><path class="cls-59" d="M728.55,138.16a6.14,6.14,0,1,1-6.13-6.14,6.14,6.14,0,0,1,6.13,6.14Z"/><path class="cls-59" d="M856.84,96.48a6.15,6.15,0,1,1-6.14-6.14,6.14,6.14,0,0,1,6.14,6.14Z"/><path class="cls-59" d="M812.88,131.65a6.14,6.14,0,1,1-6.14-6.14,6.13,6.13,0,0,1,6.14,6.14Z"/><path class="cls-59" d="M871.73,150.77a6.15,6.15,0,1,1-6.14-6.14,6.13,6.13,0,0,1,6.14,6.14Z"/><line class="cls-58" x1="495.33" y1="204.15" x2="442.9" y2="191.66"/><line class="cls-58" x1="499.16" y1="213.65" x2="471.36" y2="257.99"/><line class="cls-58" x1="509.42" y1="212.98" x2="544.08" y2="253.34"/><line class="cls-58" x1="511.95" y1="203" x2="562.15" y2="182.91"/><line class="cls-58" x1="503.17" y1="197.52" x2="499.74" y2="151.99"/><line class="cls-58" x1="461.32" y1="261.18" x2="411.62" y2="268.37"/><line class="cls-58" x1="465.35" y1="267.35" x2="444.72" y2="300.4"/><line class="cls-58" x1="472.65" y1="268.26" x2="488.15" y2="316.21"/><line class="cls-58" x1="435.45" y1="196.18" x2="394.42" y2="225.64"/><line class="cls-58" x1="434.07" y1="188.98" x2="396.09" y2="179.61"/><line class="cls-58" x1="438.67" y1="183.24" x2="416.33" y2="138.16"/><line class="cls-58" x1="549.67" y1="261.41" x2="574.63" y2="290.94"/><line class="cls-58" x1="542.58" y1="263.3" x2="533.93" y2="313.06"/><line class="cls-58" x1="552.84" y1="254.76" x2="603.03" y2="254.68"/><line class="cls-58" x1="564.91" y1="174.6" x2="580.58" y2="127.4"/><line class="cls-58" x1="569.9" y1="187.02" x2="613.22" y2="210.55"/><line class="cls-58" x1="570.29" y1="179.65" x2="606.29" y2="165.37"/><line class="cls-58" x1="493.24" y1="146.13" x2="451.82" y2="108.67"/><line class="cls-58" x1="505.39" y1="145.3" x2="542.58" y2="102.5"/><line class="cls-58" x1="499.15" y1="143.26" x2="496.73" y2="96.03"/><path class="cls-60" d="M512.58,206.25a8.76,8.76,0,1,1-8.76-8.75,8.76,8.76,0,0,1,8.76,8.75Z"/><path class="cls-60" d="M451.31,191.08a8.75,8.75,0,1,1-8.75-8.75,8.75,8.75,0,0,1,8.75,8.75Z"/><path class="cls-60" d="M478.74,259.93a8.76,8.76,0,1,1-8.76-8.75,8.76,8.76,0,0,1,8.76,8.75Z"/><path class="cls-60" d="M552.84,254.68a8.76,8.76,0,1,1-8.76-8.76,8.76,8.76,0,0,1,8.76,8.76Z"/><path class="cls-60" d="M570.92,182.91a8.75,8.75,0,1,1-8.75-8.75,8.75,8.75,0,0,1,8.75,8.75Z"/><path class="cls-60" d="M508.49,152a8.75,8.75,0,1,1-8.75-8.75,8.75,8.75,0,0,1,8.75,8.75Z"/><path class="cls-60" d="M420.38,268.37a8.76,8.76,0,1,1-8.76-8.76,8.76,8.76,0,0,1,8.76,8.76Z"/><path class="cls-60" d="M453.47,300.4a8.76,8.76,0,1,1-8.75-8.75,8.75,8.75,0,0,1,8.75,8.75Z"/><path class="cls-60" d="M496.73,316.21a8.75,8.75,0,1,1-8.75-8.75,8.75,8.75,0,0,1,8.75,8.75Z"/><path class="cls-60" d="M403.18,225.64a8.76,8.76,0,1,1-8.76-8.75,8.76,8.76,0,0,1,8.76,8.75Z"/><path class="cls-60" d="M404.84,179.61a8.75,8.75,0,1,1-8.75-8.76,8.75,8.75,0,0,1,8.75,8.76Z"/><path class="cls-60" d="M425.09,138.23a8.76,8.76,0,1,1-8.75-8.75,8.76,8.76,0,0,1,8.75,8.75Z"/><path class="cls-60" d="M583.38,291.49a8.76,8.76,0,1,1-8.75-8.75,8.75,8.75,0,0,1,8.75,8.75Z"/><path class="cls-60" d="M542.68,313.06a8.75,8.75,0,1,1-8.75-8.75,8.75,8.75,0,0,1,8.75,8.75Z"/><path class="cls-60" d="M611.78,255.23a8.75,8.75,0,1,1-8.75-8.76,8.75,8.75,0,0,1,8.75,8.76Z"/><path class="cls-60" d="M589.33,127a8.75,8.75,0,1,1-8.75-8.75,8.75,8.75,0,0,1,8.75,8.75Z"/><path class="cls-60" d="M623,210.55a8.75,8.75,0,1,1-8.75-8.75,8.75,8.75,0,0,1,8.75,8.75Z"/><path class="cls-60" d="M615,165.18a8.75,8.75,0,1,1-8.75-8.75,8.75,8.75,0,0,1,8.75,8.75Z"/><path class="cls-60" d="M460.41,108.67a8.76,8.76,0,1,1-8.75-8.75,8.75,8.75,0,0,1,8.75,8.75Z"/><path class="cls-60" d="M550.3,102.5a8.75,8.75,0,1,1-8.75-8.75,8.75,8.75,0,0,1,8.75,8.75Z"/><path class="cls-60" d="M504.7,96A8.75,8.75,0,1,1,496,87.28,8.76,8.76,0,0,1,504.7,96Z"/><line class="cls-58" x1="284.83" y1="153.29" x2="301.23" y2="207"/><line class="cls-58" x1="276.95" y1="139.64" x2="261.62" y2="121.95"/><line class="cls-58" x1="285.96" y1="152.85" x2="296.43" y2="174.59"/><line class="cls-58" x1="275.45" y1="149.61" x2="95.79" y2="253.34"/><line class="cls-58" x1="274.39" y1="144.96" x2="126.3" y2="133.87"/><line class="cls-58" x1="252.66" y1="120.15" x2="169.11" y2="101.08"/><line class="cls-58" x1="253.02" y1="119" x2="200.35" y2="98.68"/><line class="cls-58" x1="253.54" y1="117.91" x2="232.89" y2="105.85"/><line class="cls-58" x1="300.03" y1="214.44" x2="296.43" y2="238.3"/><line class="cls-58" x1="298.85" y1="214.17" x2="282.45" y2="267.32"/><line class="cls-58" x1="297.72" y1="213.73" x2="260.54" y2="290.94"/><line class="cls-58" x1="292.92" y1="181.87" x2="232.89" y2="307.05"/><line class="cls-58" x1="291.88" y1="181.27" x2="202.24" y2="314.21"/><line class="cls-58" x1="290.93" y1="180.52" x2="169.11" y2="311.81"/><line class="cls-58" x1="101.29" y1="259.26" x2="139.12" y2="300.04"/><line class="cls-58" x1="100.35" y1="260.01" x2="113.94" y2="279.95"/><line class="cls-58" x1="93.41" y1="245.61" x2="86.3" y2="222.55"/><line class="cls-58" x1="120.26" y1="127.9" x2="136.41" y2="114.98"/><line class="cls-58" x1="109.38" y1="139.62" x2="97.99" y2="156.82"/><line class="cls-58" x1="110.43" y1="140.22" x2="87.71" y2="188.36"/><path class="cls-60" d="M290.54,145.57a8.09,8.09,0,1,1-8.09-8.09,8.09,8.09,0,0,1,8.09,8.09Z"/><path class="cls-60" d="M309.31,206.45a8.08,8.08,0,1,1-8.08-8.09,8.08,8.08,0,0,1,8.08,8.09Z"/><path class="cls-60" d="M268.62,122a8.08,8.08,0,1,1-8.08-8.08,8.08,8.08,0,0,1,8.08,8.08Z"/><path class="cls-60" d="M304.51,174.59a8.08,8.08,0,1,1-8.08-8.08,8.09,8.09,0,0,1,8.08,8.08Z"/><path class="cls-60" d="M103.87,253.34a8.08,8.08,0,1,1-8.08-8.09,8.08,8.08,0,0,1,8.08,8.09Z"/><path class="cls-60" d="M122,132.94a8.09,8.09,0,1,1-8.08-8.08,8.08,8.08,0,0,1,8.08,8.08Z"/><path class="cls-60" d="M177.2,101.08A8.09,8.09,0,1,1,169.11,93a8.09,8.09,0,0,1,8.09,8.08Z"/><path class="cls-60" d="M209.32,98.68a8.09,8.09,0,1,1-8.08-8.09,8.08,8.08,0,0,1,8.08,8.09Z"/><path class="cls-60" d="M240.73,105.85a8.09,8.09,0,1,1-8.09-8.09,8.09,8.09,0,0,1,8.09,8.09Z"/><path class="cls-60" d="M304.51,238.3a8.08,8.08,0,1,1-8.08-8.08,8.08,8.08,0,0,1,8.08,8.08Z"/><path class="cls-60" d="M290.54,267.32a8.09,8.09,0,1,1-8.09-8.08,8.09,8.09,0,0,1,8.09,8.08Z"/><path class="cls-60" d="M268.62,290.94a8.08,8.08,0,1,1-8.08-8.08,8.08,8.08,0,0,1,8.08,8.08Z"/><path class="cls-60" d="M240.73,307.05a8.09,8.09,0,1,1-8.09-8.09,8.09,8.09,0,0,1,8.09,8.09Z"/><path class="cls-60" d="M209.32,314.21a8.09,8.09,0,1,1-8.08-8.08,8.09,8.09,0,0,1,8.08,8.08Z"/><path class="cls-60" d="M177.2,311.81a8.09,8.09,0,1,1-8.09-8.09,8.09,8.09,0,0,1,8.09,8.09Z"/><path class="cls-60" d="M147.21,300a8.09,8.09,0,1,1-8.09-8.09,8.09,8.09,0,0,1,8.09,8.09Z"/><path class="cls-60" d="M122,280a8.09,8.09,0,1,1-8.08-8.08A8.09,8.09,0,0,1,122,280Z"/><path class="cls-60" d="M94.38,222.55a8.09,8.09,0,1,1-8.08-8.08,8.09,8.09,0,0,1,8.08,8.08Z"/><path class="cls-60" d="M147.21,112.85a8.09,8.09,0,1,1-8.09-8.08,8.09,8.09,0,0,1,8.09,8.08Z"/><path class="cls-60" d="M103.87,159.56a8.08,8.08,0,1,1-8.08-8.09,8.08,8.08,0,0,1,8.08,8.09Z"/><path class="cls-60" d="M94.38,190.34a8.09,8.09,0,1,1-8.08-8.09,8.08,8.08,0,0,1,8.08,8.09Z"/><path class="cls-60" d="M729.64,138.56a8.76,8.76,0,1,1-8.75-8.75,8.76,8.76,0,0,1,8.75,8.75Z"/><path class="cls-60" d="M756.89,158a8.75,8.75,0,1,1-8.75-8.75,8.75,8.75,0,0,1,8.75,8.75Z"/><path class="cls-60" d="M785.88,140.78a8.75,8.75,0,1,1-8.75-8.75,8.75,8.75,0,0,1,8.75,8.75Z"/><path class="cls-60" d="M749.5,190.83a8.75,8.75,0,1,1-8.74-8.75,8.75,8.75,0,0,1,8.74,8.75Z"/><path class="cls-60" d="M822.47,205.6a8.76,8.76,0,1,1-8.75-8.75,8.76,8.76,0,0,1,8.75,8.75Z"/><path class="cls-60" d="M749.5,220.37a8.75,8.75,0,1,1-8.74-8.75,8.74,8.74,0,0,1,8.74,8.75Z"/><path class="cls-60" d="M757.4,252.94a8.75,8.75,0,1,1-8.74-8.75,8.74,8.74,0,0,1,8.74,8.75Z"/><path class="cls-60" d="M729.64,273.05a8.76,8.76,0,1,1-8.75-8.75,8.75,8.75,0,0,1,8.75,8.75Z"/><path class="cls-60" d="M785.88,270.43a8.75,8.75,0,1,1-8.75-8.75,8.75,8.75,0,0,1,8.75,8.75Z"/><path class="cls-60" d="M814.06,279.51a8.75,8.75,0,1,1-8.75-8.75,8.76,8.76,0,0,1,8.75,8.75Z"/><path class="cls-60" d="M847.51,282.69a8.75,8.75,0,1,1-8.75-8.75,8.75,8.75,0,0,1,8.75,8.75Z"/><path class="cls-60" d="M872.81,260.43a8.75,8.75,0,1,1-8.75-8.75,8.76,8.76,0,0,1,8.75,8.75Z"/><path class="cls-60" d="M857.92,314.73a8.75,8.75,0,1,1-8.75-8.75,8.75,8.75,0,0,1,8.75,8.75Z"/><path class="cls-60" d="M890,237a8.75,8.75,0,1,1-8.75-8.75A8.76,8.76,0,0,1,890,237Z"/><path class="cls-60" d="M903.51,205.6a8.75,8.75,0,1,1-8.75-8.75,8.75,8.75,0,0,1,8.75,8.75Z"/><path class="cls-60" d="M937.57,205.3a8.75,8.75,0,1,1-8.75-8.75,8.75,8.75,0,0,1,8.75,8.75Z"/><path class="cls-60" d="M889.74,174.89a8.75,8.75,0,1,1-8.75-8.75,8.75,8.75,0,0,1,8.75,8.75Z"/><path class="cls-60" d="M872.81,150.77a8.75,8.75,0,1,1-8.75-8.75,8.75,8.75,0,0,1,8.75,8.75Z"/><path class="cls-60" d="M813.62,131.48a8.76,8.76,0,1,1-8.75-8.75,8.76,8.76,0,0,1,8.75,8.75Z"/><path class="cls-60" d="M847.61,128.53a8.75,8.75,0,1,1-8.75-8.75,8.75,8.75,0,0,1,8.75,8.75Z"/><path class="cls-60" d="M857.92,96.48a8.75,8.75,0,1,1-8.75-8.75,8.75,8.75,0,0,1,8.75,8.75Z"/><line class="cls-58" x1="347.5" y1="492.18" x2="377.1" y2="598.96"/><line class="cls-58" x1="347.5" y1="492.18" x2="418.98" y2="576.22"/><line class="cls-58" x1="347.5" y1="492.18" x2="448.65" y2="540.54"/><line class="cls-58" x1="347.5" y1="492.18" x2="457.4" y2="496.8"/><line class="cls-58" x1="347.5" y1="492.18" x2="448.65" y2="452.23"/><line class="cls-58" x1="347.5" y1="492.18" x2="424.5" y2="412.87"/><line class="cls-58" x1="347.5" y1="492.18" x2="384.72" y2="388.41"/><line class="cls-58" x1="347.5" y1="492.18" x2="338.24" y2="381.94"/><line class="cls-58" x1="347.5" y1="492.18" x2="293.15" y2="394.58"/><line class="cls-58" x1="347.5" y1="492.18" x2="259.51" y2="424.14"/><line class="cls-58" x1="347.5" y1="492.18" x2="239.26" y2="465.67"/><line class="cls-58" x1="347.5" y1="492.18" x2="237.6" y2="511.54"/><line class="cls-58" x1="347.5" y1="492.18" x2="254.8" y2="552.73"/><line class="cls-58" x1="347.5" y1="492.18" x2="288.35" y2="586.15"/><line class="cls-58" x1="347.5" y1="492.18" x2="330.37" y2="602.12"/><path class="cls-60" d="M355.75,492.16A8.76,8.76,0,1,1,347,483.4a8.75,8.75,0,0,1,8.75,8.76Z"/><path class="cls-60" d="M263.55,554.27a8.76,8.76,0,1,1-8.75-8.75,8.75,8.75,0,0,1,8.75,8.75Z"/><path class="cls-60" d="M296.64,586.31a8.75,8.75,0,1,1-8.75-8.75,8.75,8.75,0,0,1,8.75,8.75Z"/><path class="cls-60" d="M339.9,602.12a8.75,8.75,0,1,1-8.75-8.75,8.75,8.75,0,0,1,8.75,8.75Z"/><path class="cls-60" d="M246.35,511.54a8.76,8.76,0,1,1-8.75-8.75,8.75,8.75,0,0,1,8.75,8.75Z"/><path class="cls-60" d="M248,465.51a8.75,8.75,0,1,1-8.75-8.75,8.75,8.75,0,0,1,8.75,8.75Z"/><path class="cls-60" d="M268.26,424.14a8.75,8.75,0,1,1-8.75-8.75,8.75,8.75,0,0,1,8.75,8.75Z"/><path class="cls-60" d="M426.55,577.39a8.75,8.75,0,1,1-8.75-8.75,8.75,8.75,0,0,1,8.75,8.75Z"/><path class="cls-60" d="M385.85,599a8.75,8.75,0,1,1-8.75-8.75,8.76,8.76,0,0,1,8.75,8.75Z"/><path class="cls-60" d="M455,541.13a8.75,8.75,0,1,1-8.75-8.75,8.75,8.75,0,0,1,8.75,8.75Z"/><path class="cls-60" d="M432.5,412.87a8.75,8.75,0,1,1-8.75-8.75,8.75,8.75,0,0,1,8.75,8.75Z"/><path class="cls-60" d="M466.15,496.46a8.75,8.75,0,1,1-8.75-8.76,8.75,8.75,0,0,1,8.75,8.76Z"/><path class="cls-60" d="M458.21,451.09a8.75,8.75,0,1,1-8.75-8.76,8.75,8.75,0,0,1,8.75,8.76Z"/><path class="cls-60" d="M303.58,394.58a8.75,8.75,0,1,1-8.75-8.75,8.75,8.75,0,0,1,8.75,8.75Z"/><path class="cls-60" d="M393.48,388.41a8.76,8.76,0,1,1-8.76-8.75,8.76,8.76,0,0,1,8.76,8.75Z"/><path class="cls-60" d="M347.87,381.94a8.75,8.75,0,1,1-8.75-8.75,8.75,8.75,0,0,1,8.75,8.75Z"/></svg>