<svg xmlns="http://www.w3.org/2000/svg" xmlns:xlink="http://www.w3.org/1999/xlink" viewBox="0 0 1080 1080"><style><![CDATA[.O{opacity:.2}.P{fill:#fff}.Q{opacity:.6}]]></style><linearGradient id="A" gradientUnits="userSpaceOnUse" x1="11.716" y1="11.716" x2="1068.284" y2="1068.284"><stop offset="0" stop-color="#4b6cb7"/><stop offset=".258" stop-color="#3a5592"/><stop offset=".584" stop-color="#283d6a"/><stop offset=".843" stop-color="#1c2e51"/><stop offset="1" stop-color="#182848"/></linearGradient><path d="M1040 1080H40c-22.09 0-40-17.91-40-40V40C0 17.91 17.91 0 40 0h1000c22.09 0 40 17.91 40 40v1000c0 22.09-17.91 40-40 40z" fill="url(#A)"/><g class="P"><circle transform="matrix(.71744 -.69662 .69662 .71744 -425.53751 595.55347)" cx="521.365" cy="822.333" r="17.456" class="O"/><circle transform="matrix(.71744 -.69662 .69662 .71744 -469.06931 650.71002)" cx="567.59" cy="903.573" r="15.37" class="O"/><circle transform="matrix(.71744 -.69662 .69662 .71744 -403.29144 535.6571)" cx="458.655" cy="764.963" r="7.355" class="O"/></g><linearGradient id="B" gradientUnits="userSpaceOnUse" x1="520.826" y1="470.934" x2="945.501" y2="895.61"><stop offset="0" stop-color="#0ff"/><stop offset=".115" stop-color="#04f6ff"/><stop offset=".305" stop-color="#10ddff"/><stop offset=".5" stop-color="#20bdff"/><stop offset=".625" stop-color="#2b9fff"/><stop offset=".895" stop-color="#4852ff"/><stop offset="1" stop-color="#5433ff"/></linearGradient><path d="M736.756 520.78c43.66 44.965 42.602 116.81-2.362 160.47s-116.81 42.602-160.47-2.362-42.602-116.81 2.362-160.47 116.81-42.602 160.47 2.362zM895.178 686.3c43.027 44.313 41.984 115.115-2.328 158.14s-115.115 41.984-158.14-2.328-41.984-115.115 2.328-158.14 115.115-41.984 158.14 2.328zM683.94 733.453c21.16 21.793 20.648 56.615-1.145 77.776s-56.615 20.648-77.776-1.145-20.648-56.615 1.145-77.776 56.615-20.648 77.776 1.145zM858.055 564.34c19.14 19.712 18.676 51.208-1.036 70.348s-51.208 18.676-70.348-1.036-18.676-51.208 1.036-70.348 51.208-18.676 70.348 1.036zm-38.39-87.766c17.043 17.552 16.63 45.597-.922 62.64s-45.596 16.63-62.64-.922-16.63-45.597.922-62.64 45.597-16.63 62.64.922zm123.92 130.237c16.932 17.438 16.522 45.3-.916 62.233s-45.3 16.522-62.233-.916-16.522-45.3.916-62.233 45.3-16.522 62.233.916zm-358.08 87.767c16.373 16.863 15.977 43.806-.886 60.18s-43.806 15.977-60.18-.886-15.977-43.806.886-60.18 43.806-15.977 60.18.886zm133.913 135.496c14.86 15.305 14.5 39.76-.804 54.62s-39.76 14.5-54.62-.804-14.5-39.76.804-54.62 39.76-14.5 54.62.804zm177.852-332.347c14.062 14.482 13.72 37.622-.76 51.684s-37.622 13.72-51.684-.76-13.72-37.622.76-51.684 37.622-13.72 51.684.76zm-153.72-59.17c13.16 13.553 12.84 35.208-.712 48.367s-35.208 12.84-48.367-.712-12.84-35.208.712-48.367 35.208-12.84 48.367.712zm217.236 96.827c13.142 13.535 12.824 35.16-.71 48.303s-35.16 12.824-48.303-.71-12.824-35.16.71-48.303 35.16-12.824 48.303.71zm12.8 149.444c12.227 12.592 11.93 32.712-.662 44.938s-32.712 11.93-44.938-.662-11.93-32.712.662-44.938 32.712-11.93 44.938.662zM775.82 875.813c12.082 12.443 11.79 32.324-.654 44.406s-32.324 11.79-44.406-.654-11.79-32.324.654-44.406 32.324-11.79 44.406.654zM540.887 635.54c11.606 11.953 11.325 31.052-.628 42.66s-31.052 11.325-42.66-.628-11.325-31.052.628-42.66 31.052-11.325 42.66.628zm99.998 200.462c11.435 11.777 11.158 30.594-.62 42.03s-30.594 11.158-42.03-.62-11.158-30.594.62-42.03 30.594-11.158 42.03.62zm-58.975-57.365c10.654 10.972 10.396 28.503-.576 39.157s-28.503 10.396-39.157-.576-10.396-28.503.576-39.157 28.503-10.396 39.157.576zm-3.66 59.037c10.615 10.932 10.357 28.4-.574 39.013s-28.4 10.357-39.013-.574-10.357-28.4.574-39.013 28.398-10.357 39.013.574zm95.4-401.77c10.58 10.897 10.325 28.31-.573 38.9s-28.31 10.325-38.9-.573-10.325-28.31.573-38.9 28.31-10.325 38.9.573zm157.89 451.6c9.748 10.04 9.512 26.08-.527 35.828s-26.08 9.512-35.828-.527-9.512-26.08.527-35.828 26.08-9.512 35.828.527zm141.744-137.602c9.575 9.86 9.343 25.618-.518 35.193s-25.618 9.343-35.193-.518-9.343-25.618.518-35.193 25.618-9.343 35.193.518zM531.07 580.83a24.8 24.8 0 0 1-35.578 34.546 24.8 24.8 0 0 1 35.578-34.546zm331.29-132.728c9.095 9.366 8.874 24.332-.492 33.426s-24.332 8.874-33.426-.492-8.874-24.332.492-33.426 24.332-8.874 33.426.492zM664.492 889.63c8.893 9.16 8.677 23.792-.48 32.685s-23.792 8.677-32.685-.48-8.677-23.792.48-32.685 23.792-8.677 32.685.48zm-136.608-127.49c8.78 9.042 8.567 23.49-.475 32.27s-23.49 8.567-32.27-.475-8.567-23.49.475-32.27 23.49-8.567 32.27.475zm188.872 143.382c8.574 8.83 8.366 22.938-.464 31.512s-22.938 8.366-31.512-.464-8.366-22.938.464-31.512 22.938-8.366 31.512.464zm72.968-481.875c8.407 8.658 8.203 22.49-.455 30.898s-22.49 8.203-30.898-.455-8.203-22.49.455-30.898 22.49-8.203 30.898.455zM994.48 641.734c8.387 8.638 8.184 22.44-.454 30.826s-22.44 8.184-30.826-.454-8.184-22.44.454-30.826 22.44-8.184 30.826.454zm-488.767 47.144a21.43 21.43 0 0 1-30.744 29.852 21.43 21.43 0 0 1 30.744-29.852zm481.807-98.022a20.79 20.79 0 0 1-29.825 28.959 20.79 20.79 0 0 1 29.825-28.959zm-446.264-53.935c7.815 8.05 7.626 20.908-.423 28.723s-20.908 7.626-28.723-.423-7.626-20.908.423-28.723 20.908-7.626 28.723.423zm334.307 341.023c7.804 8.037 7.615 20.878-.422 28.682s-20.878 7.615-28.682-.422-7.615-20.878.422-28.682 20.878-7.615 28.682.422zm79.804-78.143a19.88 19.88 0 0 1-28.519 27.692 19.88 19.88 0 0 1 28.519-27.692zM619.956 458.31c7.602 7.83 7.418 20.34-.41 27.942s-20.34 7.418-27.942-.41-7.418-20.34.41-27.942 20.34-7.418 27.942.41zM678.8 935.475c7.564 7.8 7.38 20.237-.41 27.8s-20.237 7.38-27.8-.41-7.38-20.237.41-27.8 20.237-7.38 27.8.41zm261.482-445.43c7.253 7.47 7.077 19.404-.392 26.657s-19.404 7.077-26.657-.392-7.077-19.404.392-26.657 19.404-7.077 26.657.392zM830.545 415.03c7.2 7.425 7.035 19.29-.4 26.5s-19.29 7.035-26.5-.4-7.035-19.29.4-26.5 19.29-7.035 26.5.4zm-337.75 318.254c7.133 7.346 6.96 19.083-.386 26.216s-19.083 6.96-26.216-.386-6.96-19.083.386-26.216 19.083-6.96 26.216.386zm69.822-231.206c7.122 7.335 6.95 19.054-.385 26.176s-19.054 6.95-26.176-.385-6.95-19.054.385-26.176 19.054-6.95 26.176.385zm460.532 111.335c7.022 7.232 6.852 18.788-.38 25.8s-18.788 6.852-25.8-.38-6.852-18.788.38-25.8 18.788-6.852 25.8.38zm-92.05 222.484c6.792 6.994 6.627 18.17-.367 24.962s-18.17 6.627-24.962-.367-6.627-18.17.367-24.962 18.17-6.627 24.962.367zm-353.144-368.9c6.617 6.815 6.457 17.703-.358 24.32s-17.703 6.457-24.32-.358-6.457-17.703.358-24.32 17.703-6.457 24.32.358zm38.23 425.932c6.57 6.765 6.4 17.575-.355 24.144s-17.575 6.4-24.144-.355-6.4-17.575.355-24.144 17.575-6.4 24.144.355zm-126.06-277.884c6.494 6.688 6.336 17.374-.35 23.867s-17.373 6.336-23.867-.35-6.336-17.373.35-23.867 17.374-6.336 23.867.35zm422.64 255.046c6.383 6.574 6.228 17.077-.345 23.46s-17.077 6.228-23.46-.345-6.228-17.077.345-23.46 17.077-6.228 23.46.345zM795.33 928.168c6.354 6.544 6.2 17-.344 23.353s-17 6.2-23.353-.344-6.2-17 .344-23.353 17-6.2 23.353.344zm207.448-199.824c6.286 6.474 6.134 16.818-.34 23.104s-16.818 6.134-23.104-.34-6.134-16.818.34-23.104 16.818-6.134 23.104.34zM697.633 410.428c6.245 6.432 6.094 16.71-.338 22.955s-16.71 6.094-22.955-.338-6.094-16.71.338-22.955 16.71-6.094 22.955.338zm202.6 47.9a16.12 16.12 0 0 1-23.124 22.453 16.12 16.12 0 0 1 23.124-22.453zm-379.222 388.7c5.995 6.175 5.85 16.04-.324 22.036s-16.04 5.85-22.036-.324-5.85-16.04.324-22.036 16.04-5.85 22.036.324zm224.792 86.598c5.875 6.05 5.732 15.718-.318 21.592s-15.718 5.732-21.592-.318-5.732-15.718.318-21.592 15.718-5.732 21.592.318zM482.344 657.45a15.23 15.23 0 0 1-.317 21.529 15.23 15.23 0 0 1-21.529-.317 15.23 15.23 0 0 1 .317-21.529 15.23 15.23 0 0 1 21.529.317zm527.923 24.138c5.85 6.023 5.707 15.648-.316 21.496s-15.648 5.707-21.496-.316-5.707-15.648.316-21.496 15.648-5.707 21.496.316zM752.094 405.14a14.41 14.41 0 0 1-.3 20.37 14.41 14.41 0 0 1-20.37-.3 14.41 14.41 0 0 1 .3-20.37 14.41 14.41 0 0 1 20.37.3zM500.23 552.343a14.16 14.16 0 0 1-.295 20.016 14.16 14.16 0 0 1-20.016-.295 14.16 14.16 0 0 1 .295-20.016 14.16 14.16 0 0 1 20.017.295zM986.596 794.16c5.2 5.355 5.073 13.91-.28 19.1s-13.91 5.073-19.1-.28-5.073-13.91.28-19.1 13.91-5.073 19.1.28zm-127.54 124.23a13.42 13.42 0 0 1-19.255 18.696 13.42 13.42 0 0 1 19.255-18.696zM623.115 426.823c5.1 5.263 4.986 13.67-.276 18.78s-13.67 4.986-18.78-.276-4.986-13.67.276-18.78 13.67-4.986 18.78.276zm372.53 134.14c5.063 5.214 4.94 13.546-.274 18.61s-13.546 4.94-18.61-.274-4.94-13.546.274-18.61 13.546-4.94 18.61.274zm-64.788-102.102c5 5.15 4.88 13.38-.27 18.383s-13.38 4.88-18.383-.27-4.88-13.38.27-18.383 13.38-4.88 18.383.27zM458.856 635.7c4.983 5.132 4.862 13.332-.27 18.315s-13.332 4.862-18.315-.27-4.862-13.332.27-18.315 13.332-4.862 18.315.27zm502.78 203.613a12.67 12.67 0 0 1-18.175 17.648 12.67 12.67 0 0 1 18.175-17.648zM769.48 954.394a12.63 12.63 0 0 1-18.121 17.595 12.63 12.63 0 0 1 18.121-17.595zM523.495 507.65c4.856 5 4.74 12.993-.263 17.85s-12.993 4.74-17.85-.263-4.74-12.993.263-17.85 12.993-4.74 17.85.263zM1025.25 710.1a12.57 12.57 0 0 1-18.035 17.511 12.57 12.57 0 0 1 18.035-17.511zM497.49 800.977c4.8 4.954 4.694 12.87-.26 17.68s-12.87 4.694-17.68-.26-4.694-12.87.26-17.68 12.87-4.694 17.68.26zm131.676 124.07a12.26 12.26 0 0 1-17.589 17.078 12.26 12.26 0 0 1 17.589-17.078zm92.492-527.8a12.11 12.11 0 0 1-17.373 16.869 12.11 12.11 0 0 1 17.373-16.869zM481.464 586.242c4.603 4.74 4.49 12.314-.25 16.917s-12.314 4.49-16.917-.25-4.49-12.314.25-16.917 12.314-4.49 16.917.25zm486.082-79.46c4.532 4.668 4.422 12.126-.245 16.658s-12.126 4.422-16.658-.245-4.422-12.126.245-16.658 12.126-4.422 16.658.245zm-144.51 430.996c4.446 4.578 4.338 11.894-.24 16.34s-11.894 4.338-16.34-.24-4.338-11.894.24-16.34 11.894-4.338 16.34.24zm179.353-174.885c4.122 4.245 4.022 11.028-.223 15.15s-11.028 4.022-15.15-.223-4.022-11.028.223-15.15 11.028-4.022 15.15.223zm-520.497 8.454a10.67 10.67 0 0 1-.222 15.081 10.67 10.67 0 0 1-15.082-.222 10.67 10.67 0 0 1 .222-15.081 10.67 10.67 0 0 1 15.082.222zm401.336-336.39c3.98 4.097 3.882 10.644-.215 14.623s-10.644 3.882-14.623-.215-3.882-10.644.215-14.623 10.644-3.882 14.623.215zM896.3 904.983a10.31 10.31 0 0 1-.215 14.572 10.31 10.31 0 0 1-14.572-.215 10.31 10.31 0 0 1 .215-14.572 10.31 10.31 0 0 1 14.572.215zM715.36 949.52a10.28 10.28 0 0 1-.214 14.532 10.28 10.28 0 0 1-14.532-.214 10.28 10.28 0 0 1 .214-14.532 10.28 10.28 0 0 1 14.532.214zM466.526 713.594a10.25 10.25 0 0 1-.213 14.488 10.25 10.25 0 0 1-14.488-.213 10.25 10.25 0 0 1 .213-14.488 10.25 10.25 0 0 1 14.488.213zM939.732 869.5a10.24 10.24 0 0 1-14.692 14.266 10.24 10.24 0 0 1 14.692-14.266zm-353.02-425.546a10.17 10.17 0 0 1-.212 14.374 10.17 10.17 0 0 1-14.374-.212 10.17 10.17 0 0 1 .212-14.374 10.17 10.17 0 0 1 14.374.212zM463.89 686.114c3.902 4.018 3.807 10.44-.21 14.34s-10.44 3.807-14.34-.21-3.807-10.44.21-14.34 10.44-3.807 14.34.21zm200.52-279.3c3.876 3.992 3.782 10.37-.2 14.246s-10.37 3.782-14.246-.2-3.782-10.37.2-14.246 10.37-3.782 14.246.2zm192.323 13.67a9.96 9.96 0 0 1-14.291 13.876 9.96 9.96 0 0 1 14.291-13.876zm-314.13 58.503c3.814 3.928 3.72 10.204-.206 14.017s-10.204 3.72-14.017-.206-3.72-10.204.206-14.017 10.204-3.72 14.017.206zm256.15-77.91c3.814 3.928 3.72 10.203-.206 14.016s-10.203 3.72-14.016-.206-3.72-10.203.206-14.016 10.203-3.72 14.016.206zm221.216 258.784a9.85 9.85 0 0 1-14.131 13.721 9.85 9.85 0 0 1 14.131-13.721zM774.417 397.31c3.75 3.863 3.66 10.036-.203 13.788s-10.036 3.66-13.788-.203-3.66-10.036.203-13.788 10.036-3.66 13.788.203zM470.75 564.033c3.733 3.845 3.643 9.988-.202 13.72s-9.988 3.643-13.72-.202-3.643-9.988.202-13.72 9.988-3.643 13.72.202zm537.935 222.674c3.69 3.802 3.602 9.876-.2 13.567s-9.876 3.602-13.567-.2-3.602-9.876.2-13.568 9.876-3.602 13.568.2zM845.694 945.67a9.59 9.59 0 0 1-13.758 13.359 9.59 9.59 0 0 1 13.758-13.359zm-206.403 3.807c3.657 3.766 3.568 9.783-.198 13.44s-9.783 3.568-13.44-.198-3.568-9.783.198-13.44 9.783-3.568 13.44.198zm56.803 14.922a9.44 9.44 0 0 1-.196 13.344 9.44 9.44 0 0 1-13.344-.196 9.44 9.44 0 0 1 .196-13.344 9.44 9.44 0 0 1 13.344.196zm281.188-141.43a9.42 9.42 0 0 1-.196 13.314 9.42 9.42 0 0 1-13.314-.196 9.42 9.42 0 0 1 .196-13.314 9.42 9.42 0 0 1 13.314.196zM503.637 529.236a9.37 9.37 0 0 1-.195 13.243 9.37 9.37 0 0 1-13.243-.195 9.37 9.37 0 0 1 .195-13.243 9.37 9.37 0 0 1 13.243.195zm378.53 395.61c3.53 3.635 3.444 9.442-.19 12.972s-9.442 3.444-12.972-.19-3.444-9.442.19-12.972 9.442-3.444 12.972.19zm-287.444-501.4c3.487 3.59 3.403 9.33-.19 12.816s-9.33 3.403-12.816-.19-3.403-9.33.19-12.816 9.33-3.403 12.816.19zm45.88-9.838c3.48 3.584 3.395 9.3-.188 12.8s-9.3 3.395-12.8-.188-3.395-9.3.188-12.8 9.3-3.395 12.8.188zm320.908 453.556c3.432 3.535 3.35 9.182-.186 12.614s-9.182 3.35-12.614-.186-3.35-9.182.186-12.614 9.182-3.35 12.614.186zM495.55 508.947c3.414 3.516 3.33 9.134-.185 12.548s-9.134 3.33-12.548-.185-3.33-9.134.185-12.548 9.134-3.33 12.548.185zM986.765 539.3c3.286 3.384 3.206 8.79-.178 12.077s-8.79 3.206-12.077-.178-3.206-8.79.178-12.077 8.79-3.206 12.077.178zM520.163 485.76c3.236 3.333 3.157 8.657-.175 11.893s-8.657 3.157-11.893-.175-3.157-8.657.175-11.893 8.657-3.157 11.893.175zm513.176 159.274c3.11 3.202 3.033 8.317-.168 11.426s-8.318 3.034-11.426-.168-3.034-8.317.168-11.426 8.317-3.034 11.426.168zm-586.213 58.65a8.06 8.06 0 0 1-11.564 11.228 8.06 8.06 0 0 1 11.564-11.228zm560.022-119.297c3.09 3.184 3.016 8.27-.167 11.362s-8.27 3.016-11.362-.167-3.016-8.27.167-11.362 8.27-3.016 11.362.167zm18.3 7.676a8.02 8.02 0 0 1-11.508 11.174 8.02 8.02 0 0 1 11.508-11.174zM547.902 887.173a7.96 7.96 0 0 1-11.419 11.087 7.96 7.96 0 0 1 11.419-11.087zm327.93-471.752a7.86 7.86 0 0 1-11.276 10.949 7.86 7.86 0 0 1 11.276-10.949zM502.067 827.517c2.975 3.064 2.903 7.96-.16 10.933s-7.96 2.903-10.934-.16-2.903-7.96.16-10.933 7.96-2.903 10.933.16zm483.466-307.664c2.964 3.053 2.893 7.93-.16 10.896s-7.93 2.893-10.896-.16-2.893-7.93.16-10.896 7.93-2.893 10.896.16zm-339.7-124.76c2.94 3.028 2.87 7.866-.16 10.806s-7.866 2.87-10.806-.16-2.87-7.866.16-10.806 7.866-2.87 10.806.16zm-57.02 524.127c2.817 2.9 2.75 7.536-.152 10.353s-7.536 2.75-10.353-.152-2.75-7.536.152-10.353 7.536-2.75 10.353.152zm198.41-534.88c2.778 2.86 2.71 7.432-.15 10.2s-7.433 2.71-10.21-.15-2.71-7.432.15-10.21 7.432-2.71 10.2.15zm-184.772 547c2.748 2.83 2.682 7.353-.15 10.1s-7.353 2.682-10.1-.15-2.682-7.353.15-10.1 7.352-2.682 10.1.15zM461.05 604.992a7.1 7.1 0 0 1-.148 10.035 7.1 7.1 0 0 1-10.035-.148 7.1 7.1 0 0 1 .148-10.035 7.1 7.1 0 0 1 10.035.148zm555.755 147.385a7.01 7.01 0 0 1-10.058 9.767 7.01 7.01 0 0 1 10.058-9.767zM490.168 843.15a6.8 6.8 0 0 1-9.756 9.473 6.8 6.8 0 0 1 9.756-9.473zm41.19 29.875c2.586 2.663 2.523 6.918-.14 9.504s-6.918 2.523-9.504-.14-2.523-6.918.14-9.504 6.918-2.523 9.504.14zm272.75 83.873a6.7 6.7 0 0 1-9.612 9.333 6.7 6.7 0 0 1 9.612-9.333zm-74.253 6.93c2.57 2.648 2.51 6.88-.14 9.45s-6.878 2.51-9.45-.14-2.51-6.88.14-9.45 6.878-2.51 9.45.14zM697.41 391.268c2.568 2.645 2.506 6.87-.14 9.44s-6.87 2.506-9.44-.14-2.506-6.87.14-9.44 6.87-2.506 9.44.14zm203.713 48.38a6.57 6.57 0 0 1-9.425 9.152 6.57 6.57 0 0 1 9.425-9.152zm12.933 465.725a6.5 6.5 0 0 1-9.327 9.056 6.5 6.5 0 0 1 9.327-9.056zm16.614-13.756c2.455 2.528 2.396 6.568-.133 9.023a6.38 6.38 0 0 1-9.023-.133c-2.455-2.528-2.395-6.568.133-9.023s6.568-2.395 9.023.133zM735.657 388.833c2.39 2.462 2.333 6.397-.13 8.788s-6.397 2.333-8.788-.13-2.333-6.397.13-8.788 6.397-2.333 8.788.13zM451.73 671.037c2.38 2.45 2.322 6.367-.13 8.746s-6.367 2.322-8.746-.13-2.322-6.367.13-8.746 6.367-2.322 8.746.13zm22.86 122.567a6.15 6.15 0 0 1-8.823 8.567 6.15 6.15 0 0 1 8.823-8.567zm89.287-344.916c2.26 2.327 2.205 6.046-.122 8.306s-6.046 2.205-8.306-.122-2.205-6.046.122-8.306 6.046-2.205 8.306.122zm393.96 41.697c2.203 2.27 2.15 5.894-.12 8.097s-5.894 2.15-8.097-.12a5.73 5.73 0 0 1 .119-8.097c2.27-2.203 5.894-2.15 8.097.12zM456.45 735.283a5.65 5.65 0 0 1-.118 7.986 5.65 5.65 0 0 1-7.986-.118 5.65 5.65 0 0 1 .118-7.986 5.65 5.65 0 0 1 7.986.118zm218.896-338.575c2.133 2.197 2.08 5.706-.115 7.84s-5.707 2.08-7.84-.115-2.08-5.706.115-7.84 5.707-2.08 7.84.115zm350.743 282.896c2.097 2.16 2.047 5.61-.114 7.71s-5.61 2.047-7.71-.113-2.047-5.61.113-7.71 5.61-2.047 7.71.113zm-480.51-215.58c2.083 2.145 2.033 5.573-.113 7.656s-5.573 2.033-7.656-.113-2.033-5.573.113-7.656 5.573-2.033 7.656.113zM744.205 967.92c2 2.07 1.96 5.378-.11 7.388s-5.378 1.96-7.388-.11-1.96-5.378.11-7.388 5.378-1.96 7.388.11zm11.18-577.593a5.21 5.21 0 0 1-7.475 7.258 5.21 5.21 0 0 1 7.475-7.258zm159.63 54.58a5.15 5.15 0 0 1-.107 7.28 5.15 5.15 0 0 1-7.28-.107 5.15 5.15 0 0 1 .107-7.28 5.15 5.15 0 0 1 7.28.107zM785.5 961.47a5.08 5.08 0 0 1-7.287 7.076 5.08 5.08 0 0 1 7.287-7.076zm57.434-553.348c1.95 2 1.904 5.22-.106 7.172s-5.22 1.904-7.172-.106-1.904-5.22.106-7.172 5.22-1.904 7.172.106zm-30.402-9.448a4.76 4.76 0 0 1-.099 6.728 4.76 4.76 0 0 1-6.728-.099 4.76 4.76 0 0 1 .099-6.728 4.76 4.76 0 0 1 6.728.099zM942.988 476c1.767 1.82 1.724 4.726-.096 6.493s-4.726 1.724-6.493-.096-1.724-4.726.096-6.493 4.726-1.724 6.493.096zm76.04 260.59c1.756 1.81 1.714 4.7-.095 6.456s-4.7 1.714-6.456-.095-1.714-4.7.095-6.456 4.7-1.714 6.456.095zm5.965-40.852a4.43 4.43 0 0 1-.092 6.26 4.43 4.43 0 0 1-6.26-.092 4.43 4.43 0 0 1 .092-6.26 4.43 4.43 0 0 1 6.26.092zM990.02 819.81c1.7 1.75 1.658 4.545-.092 6.243s-4.545 1.657-6.243-.092-1.657-4.545.092-6.243 4.545-1.657 6.243.092zM483.67 538.955a4.39 4.39 0 0 1-.091 6.206 4.39 4.39 0 0 1-6.206-.091 4.39 4.39 0 0 1 .091-6.206 4.39 4.39 0 0 1 6.206.091zm-41.03 121.29c1.682 1.732 1.64 4.5-.09 6.183s-4.5 1.64-6.183-.09-1.64-4.5.09-6.183 4.5-1.64 6.183.09zm10.235-39.43a4.22 4.22 0 1 1-6.056 5.88 4.22 4.22 0 1 1 6.056-5.88zm76.392 268.665c1.602 1.65 1.563 4.285-.087 5.887s-4.285 1.563-5.887-.087-1.563-4.285.087-5.887 4.285-1.563 5.887.087zm446.21-45.735a3.81 3.81 0 0 1-5.466 5.307 3.81 3.81 0 0 1 5.466-5.307zM620.75 413.434c1.38 1.42 1.346 3.7-.075 5.07s-3.7 1.346-5.07-.075-1.346-3.7.075-5.07 3.7-1.346 5.07.075zm376.844 135.844c1.345 1.385 1.312 3.597-.073 4.942s-3.597 1.312-4.942-.073-1.312-3.597.073-4.942 3.597-1.312 4.942.073zm10.854 23.67a3.48 3.48 0 0 1-4.992 4.847 3.48 3.48 0 0 1 4.992-4.847zm17.268 173.528c1.317 1.357 1.285 3.524-.07 4.842s-3.525 1.285-4.842-.07-1.285-3.524.07-4.842 3.524-1.285 4.842.07zM793.712 970.534a3.42 3.42 0 1 1-4.908 4.766 3.42 3.42 0 1 1 4.908-4.766zm131.65-63.653c1.276 1.314 1.245 3.413-.07 4.69s-3.413 1.245-4.69-.07-1.245-3.413.07-4.69 3.413-1.245 4.69.07zm-59.272 33.19a3.24 3.24 0 1 1-4.651 4.516 3.24 3.24 0 1 1 4.651-4.516zM682.003 389.58a2.98 2.98 0 0 1-.062 4.211 2.98 2.98 0 0 1-4.211-.062 2.98 2.98 0 0 1 .062-4.211 2.98 2.98 0 0 1 4.211.062zm350.656 300.514a2.86 2.86 0 0 1-.059 4.042 2.86 2.86 0 0 1-4.042-.06 2.86 2.86 0 0 1 .059-4.042 2.86 2.86 0 0 1 4.042.059zm-482.4-234.25c1.067 1.1 1.04 2.856-.058 3.923s-2.856 1.04-3.923-.058-1.04-2.856.058-3.923 2.856-1.04 3.923.058zM744.204 385.1c1.033 1.063 1.008 2.763-.056 3.795s-2.763 1.008-3.795-.056-1.008-2.763.056-3.795 2.763-1.008 3.795.056zM483.706 825.557a2.64 2.64 0 1 1-3.79 3.68 2.64 2.64 0 1 1 3.79-3.68zm467.89-344.22a2.46 2.46 0 0 1-.051 3.474 2.46 2.46 0 0 1-3.474-.051 2.46 2.46 0 0 1 .051-3.474 2.46 2.46 0 0 1 3.474.051zM456.9 749.055a2.4 2.4 0 0 1-.05 3.392 2.4 2.4 0 0 1-3.392-.05 2.4 2.4 0 0 1 .05-3.392 2.4 2.4 0 0 1 3.392.05zm-5.735 6.398a2.37 2.37 0 1 1-3.401 3.303 2.37 2.37 0 1 1 3.401-3.303zm546.506 50.92a2.31 2.31 0 0 1-.048 3.263 2.31 2.31 0 0 1-3.263-.048 2.31 2.31 0 0 1 .048-3.263 2.31 2.31 0 0 1 3.263.048zm15.39-37.633c.863.888.842 2.308-.047 3.17s-2.308.842-3.17-.047-.842-2.308.047-3.17 2.308-.842 3.17.047zm-158.16 176.476c.84.865.82 2.248-.045 3.088s-2.248.82-3.088-.045-.82-2.248.045-3.088 2.248-.82 3.088.045zm36.995-18.38c.813.838.794 2.177-.044 3s-2.177.794-3-.044-.794-2.176.044-3 2.176-.794 3 .044zM547.78 904.43a1.99 1.99 0 1 1-2.858 2.775 1.99 1.99 0 1 1 2.858-2.775zm461.852-126.192a1.89 1.89 0 0 1-.039 2.67 1.89 1.89 0 0 1-2.67-.039 1.89 1.89 0 0 1 .039-2.67 1.89 1.89 0 0 1 2.67.039zM714.5 970.465c.724.746.707 1.937-.04 2.66s-1.937.707-2.66-.04a1.88 1.88 0 0 1 .039-2.661c.746-.724 1.937-.707 2.66.04zm-257.682-374.48a1.81 1.81 0 0 1-.038 2.557 1.81 1.81 0 0 1-2.557-.038 1.81 1.81 0 0 1 .038-2.557 1.81 1.81 0 0 1 2.557.038zm115.188 326.61c.633.652.618 1.693-.034 2.326s-1.693.618-2.326-.034-.618-1.693.034-2.326 1.693-.618 2.326.034zm240.552 38.743a1.63 1.63 0 0 1-.034 2.302 1.63 1.63 0 0 1-2.302-.034 1.63 1.63 0 0 1 .034-2.302 1.63 1.63 0 0 1 2.302.034zm77.9-527.567c.537.553.524 1.438-.03 1.975s-1.438.524-1.975-.03-.524-1.438.03-1.975 1.438-.524 1.975.03zm13.1 484.642c.518.534.506 1.386-.028 1.904s-1.386.506-1.904-.028-.506-1.386.028-1.904 1.386-.506 1.904.028zm-72.797-511.378c.5.514.487 1.335-.027 1.834s-1.335.487-1.834-.027-.487-1.335.027-1.834 1.335-.487 1.834.027zm-386.4 277.98c.398.4.39 1.065-.022 1.463s-1.065.39-1.464-.022-.39-1.065.022-1.464 1.065-.39 1.464.022zM936.913 890.5a1.02 1.02 0 1 1-1.464 1.422 1.02 1.02 0 1 1 1.464-1.422zM819.05 403.86c.39.402.38 1.045-.02 1.436s-1.045.38-1.435-.02-.38-1.045.02-1.435 1.045-.38 1.436.02zm-217.74 18.938a1.01 1.01 0 0 1-.021 1.427 1.01 1.01 0 0 1-1.427-.021 1.01 1.01 0 0 1 .021-1.427 1.01 1.01 0 0 1 1.427.021zm225.006 534.53c.376.387.367 1.005-.02 1.38s-1.005.367-1.38-.02-.367-1.005.02-1.38 1.005-.367 1.38.02zm-354.112-399.39c.364.375.355.974-.02 1.338s-.974.355-1.338-.02-.355-.974.02-1.338.974-.355 1.338.02zm94.577-114.246c.363.374.354.97-.02 1.334s-.97.354-1.334-.02-.354-.97.02-1.334.97-.354 1.334.02zm154.43-53.492c.325.334.317.87-.018 1.193s-.87.317-1.193-.018-.317-.87.018-1.193.87-.317 1.193.018zm-17.39 1.335c.313.322.305.838-.017 1.15s-.838.306-1.15-.017-.306-.838.017-1.15.838-.306 1.15.017zM991.456 814.41c.283.29.276.756-.015 1.04s-.756.276-1.04-.015-.276-.756.015-1.04.756-.276 1.04.015zm34.32-140.942c.268.276.26.717-.015.985s-.717.26-.985-.015-.26-.717.014-.985.717-.26.985.015zM448.43 729.774a.6.6 0 0 1-.012.846.6.6 0 0 1-.846-.012.6.6 0 0 1 .012-.846.6.6 0 0 1 .846.012zm58.12-228.582a.59.59 0 1 1-.85.825.59.59 0 1 1 .85-.825zm155.334-101.53a.56.56 0 0 1-.012.79.56.56 0 0 1-.79-.012.56.56 0 0 1 .012-.79.56.56 0 0 1 .79.012zm-201.908 375.8c.157.16.153.42-.008.575s-.42.153-.575-.008-.153-.42.008-.575.42-.153.575.008zm73.4-303.667c.132.136.13.353-.007.485s-.353.13-.485-.007-.13-.353.007-.485.353-.13.485.007zm73.547 470.57c.125.13.122.336-.007.46s-.336.122-.46-.007-.123-.336.007-.46.336-.123.46.007z" fill="url(#B)"/><g fill="none" stroke="#999" stroke-width="2" stroke-dasharray="2,6"><circle cx="732.914" cy="683.836" r="312.022"/><circle transform="matrix(.36487 -.93106 .93106 .36487 -215.42287 464.84927)" cx="233.006" cy="390.322" r="198.006"/></g><g class="P"><circle transform="matrix(.96291 -.26983 .26983 .96291 -114.90559 84.7481)" cx="250.798" cy="460.316" r="71.63" class="O"/><circle transform="matrix(.96291 -.26983 .26983 .96291 -78.77822 69.05334)" cx="211.776" cy="321.064" r="70.591" class="O"/><circle transform="matrix(.96291 -.26983 .26983 .96291 -87.9091 96.93141)" cx="308.61" cy="368.214" r="34.717" class="O"/><circle transform="matrix(.96291 -.26983 .26983 .96291 -104.90225 57.83156)" cx="157.897" cy="410.473" r="31.402" class="O"/><circle transform="matrix(.96291 -.26983 .26983 .96291 -121.7233 57.81973)" cx="149.444" cy="471.649" r="27.961" class="O"/><circle transform="matrix(.96291 -.26983 .26983 .96291 -93.27239 45.74715)" cx="119.758" cy="362.13" r="27.779" class="O"/><circle transform="matrix(.96291 -.26983 .26983 .96291 -100.9901 108.44306)" cx="343.941" cy="421.549" r="26.863" class="O"/><circle transform="matrix(.96291 -.26983 .26983 .96291 -71.3363 94.50779)" cx="308.082" cy="306.723" r="24.381" class="O"/><circle transform="matrix(.96291 -.26983 .26983 .96291 -114.14098 45.39936)" cx="108.059" cy="437.86" r="23.071" class="O"/><circle transform="matrix(.96291 -.26983 .26983 .96291 -133.14969 66.16363)" cx="174.08" cy="517.382" r="21.59" class="O"/><circle transform="matrix(.96291 -.26983 .26983 .96291 -104.3919 37.09141)" cx="82.715" cy="398.246" r="21.561" class="O"/><circle transform="matrix(.96291 -.26983 .26983 .96291 -79.73981 43.72866)" cx="119.183" cy="311.899" r="20.06" class="O"/><circle transform="matrix(.96291 -.26983 .26983 .96291 -61.05005 87.07277)" cx="286.182" cy="265.591" r="19.822" class="O"/><circle transform="matrix(.96291 -.26983 .26983 .96291 -114.04304 110.0822)" cx="343.376" cy="469.846" r="19.042" class="O"/><circle transform="matrix(.96291 -.26983 .26983 .96291 -75.75926 106.09538)" cx="348.017" cy="328.604" r="18.761" class="O"/><circle transform="matrix(.96291 -.26983 .26983 .96291 -88.7053 111.77916)" cx="362.218" cy="378.534" r="17.479" class="O"/><circle transform="matrix(.96291 -.26983 .26983 .96291 -79.43844 115.93559)" cx="381.969" cy="346.906" r="17.415" class="O"/><circle transform="matrix(.96291 -.26983 .26983 .96291 -138.27829 76.18913)" cx="207.981" cy="541.049" r="17.36" class="O"/><circle transform="matrix(.96291 -.26983 .26983 .96291 -56.20119 77.86405)" cx="255.111" cy="243.351" r="15.993" class="O"/><circle transform="matrix(.96291 -.26983 .26983 .96291 -69.7614 46.64111)" cx="134.765" cy="277.061" r="15.709" class="O"/><circle transform="matrix(.96291 -.26983 .26983 .96291 -123.80732 107.49335)" cx="329.078" cy="504.066" r="15.651" class="O"/><circle transform="matrix(.96291 -.26983 .26983 .96291 -125.1265 45.96655)" cx="104.629" cy="478.101" r="14.921" class="O"/><circle transform="matrix(.96291 -.26983 .26983 .96291 -66.15283 104.51154)" cx="347.06" cy="292.871" r="14.59" class="O"/><circle transform="matrix(.96291 -.26983 .26983 .96291 -94.97177 118.70004)" cx="384.257" cy="404.787" r="14.404" class="O"/><circle transform="matrix(.96291 -.26983 .26983 .96291 -60.48085 96.93891)" cx="322.352" cy="268.454" r="14.066" class="O"/><circle transform="matrix(.96291 -.26983 .26983 .96291 -133.59106 55.88359)" cx="136.468" cy="513.848" r="13.792" class="O"/><circle transform="matrix(.96291 -.26983 .26983 .96291 -86.0869 36.17825)" cx="88.546" cy="331.21" r="13.76" class="O"/><circle transform="matrix(.96291 -.26983 .26983 .96291 -108.19751 117.59931)" cx="373.641" cy="452.342" r="13.524" class="O"/><circle transform="matrix(.96291 -.26983 .26983 .96291 -94.76241 34.04955)" cx="76.466" cy="361.701" r="13.12" class="O"/><circle transform="matrix(.96291 -.26983 .26983 .96291 -130.55853 102.48285)" cx="307.478" cy="526.117" r="12.822" class="O"/><circle transform="matrix(.96291 -.26983 .26983 .96291 -55.41439 69.40498)" cx="224.737" cy="236.259" r="12.803" class="O"/><circle transform="matrix(.96291 -.26983 .26983 .96291 -63.16751 51.76097)" cx="156.684" cy="255.637" r="12.546" class="O"/><circle transform="matrix(.96291 -.26983 .26983 .96291 -138.46413 84.96499)" cx="239.808" cy="546.113" r="12.473" class="O"/><circle transform="matrix(.96291 -.26983 .26983 .96291 -58.14688 104.4482)" cx="350.832" cy="263.72" r="12.41" class="O"/><circle transform="matrix(.96291 -.26983 .26983 .96291 -113.97762 35.22351)" cx="71.128" cy="432.178" r="11.899" class="O"/><circle transform="matrix(.96291 -.26983 .26983 .96291 -132.71277 48.3036)" cx="109.337" cy="506.863" r="11.829" class="O"/><circle transform="matrix(.96291 -.26983 .26983 .96291 -102.03669 121.9173)" cx="392.427" cy="432.093" r="11.702" class="O"/><circle transform="matrix(.96291 -.26983 .26983 .96291 -134.9899 96.64772)" cx="284.038" cy="539.318" r="11.684" class="O"/><circle transform="matrix(.96291 -.26983 .26983 .96291 -89.14493 29.28829)" cx="61.957" cy="338.888" r="11.521" class="O"/><circle transform="matrix(.96291 -.26983 .26983 .96291 -58.98698 57.50498)" cx="179.667" cy="243.304" r="11.142" class="O"/><circle transform="matrix(.96291 -.26983 .26983 .96291 -54.36725 62.3415)" cx="199.569" cy="228.919" r="11.019" class="O"/><circle transform="matrix(.96291 -.26983 .26983 .96291 -139.79153 91.84449)" cx="264.167" cy="554.381" r="10.856" class="O"/><circle transform="matrix(.96291 -.26983 .26983 .96291 -68.96806 111.52956)" cx="371.178" cy="306.62" r="10.777" class="O"/><circle transform="matrix(.96291 -.26983 .26983 .96291 -121.33092 114.90768)" cx="357.284" cy="498.766" r="10.654" class="O"/><circle transform="matrix(.96291 -.26983 .26983 .96291 -87.65455 119.97744)" cx="392.562" cy="378.811" r="10.472" class="O"/><circle transform="matrix(.96291 -.26983 .26983 .96291 -52.46431 84.76485)" cx="282.08" cy="233.209" r="10.424" class="O"/><circle transform="matrix(.96291 -.26983 .26983 .96291 -72.02591 39.23969)" cx="106.712" cy="281.597" r="10.313" class="O"/><circle transform="matrix(.96291 -.26983 .26983 .96291 -82.46535 123.54186)" cx="408.122" cy="361.719" r="10.246" class="O"/><circle transform="matrix(.96291 -.26983 .26983 .96291 -121.69995 39.30968)" cx="82.13" cy="462.31" r="10.172" class="O"/><circle transform="matrix(.96291 -.26983 .26983 .96291 -71.4753 117.27307)" cx="390.815" cy="318.611" r="9.836" class="O"/><circle transform="matrix(.96291 -.26983 .26983 .96291 -141.87073 69.01524)" cx="180.091" cy="550.529" r="9.702" class="O"/><circle transform="matrix(.96291 -.26983 .26983 .96291 -54.62687 92.90577)" cx="310.609" cy="245.145" r="9.638" class="O"/><circle transform="matrix(.96291 -.26983 .26983 .96291 -115.09595 118.47276)" cx="373.369" cy="477.871" r="9.61" class="O"/><circle transform="matrix(.96291 -.26983 .26983 .96291 -79.16991 35.01776)" cx="87.784" cy="305.471" r="9.595" class="O"/><circle transform="matrix(.96291 -.26983 .26983 .96291 -139.3625 59.63885)" cx="147.241" cy="536.717" r="9.093" class="O"/><circle transform="matrix(.96291 -.26983 .26983 .96291 -130.99002 109.04684)" cx="331.137" cy="530.969" r="8.935" class="O"/><circle transform="matrix(.96291 -.26983 .26983 .96291 -62.61523 45.39206)" cx="133.795" cy="250.444" r="8.53" class="O"/><circle transform="matrix(.96291 -.26983 .26983 .96291 -50.38082 73.43254)" cx="241.903" cy="219.965" r="8.47" class="O"/><circle transform="matrix(.96291 -.26983 .26983 .96291 -143.78072 81.52396)" cx="224.634" cy="563.73" r="8.384" class="O"/><circle transform="matrix(.96291 -.26983 .26983 .96291 -99.59984 29.72552)" cx="58.32" cy="377.134" r="8.307" class="O"/><circle transform="matrix(.96291 -.26983 .26983 .96291 -119.96651 33.92381)" cx="63.407" cy="453.312" r="8.206" class="O"/><circle transform="matrix(.96291 -.26983 .26983 .96291 -120.17595 120.57207)" cx="378.464" cy="497.398" r="8.176" class="O"/><circle transform="matrix(.96291 -.26983 .26983 .96291 -56.92555 52.01433)" cx="160.727" cy="233.06" r="7.995" class="O"/><circle transform="matrix(.96291 -.26983 .26983 .96291 -50.08111 89.90169)" cx="301.956" cy="227.109" r="7.971" class="O"/><circle transform="matrix(.96291 -.26983 .26983 .96291 -136.87178 102.35016)" cx="303.839" cy="549.014" r="7.967" class="O"/><circle transform="matrix(.96291 -.26983 .26983 .96291 -73.85471 33.92329)" cx="86.461" cy="285.591" r="7.933" class="O"/><circle transform="matrix(.96291 -.26983 .26983 .96291 -91.27665 124.3191)" cx="406.543" cy="394.157" r="7.892" class="O"/><circle transform="matrix(.96291 -.26983 .26983 .96291 -63.34415 110.63137)" cx="370.723" cy="285.715" r="7.737" class="O"/><circle transform="matrix(.96291 -.26983 .26983 .96291 -142.63521 63.69342)" cx="160.352" cy="550.648" r="7.643" class="O"/><circle transform="matrix(.96291 -.26983 .26983 .96291 -126.82677 113.77747)" cx="350.425" cy="518.191" r="7.551" class="O"/><circle transform="matrix(.96291 -.26983 .26983 .96291 -110.11507 30.739)" cx="56.748" cy="415.887" r="7.436" class="O"/><circle transform="matrix(.96291 -.26983 .26983 .96291 -49.57656 80.10968)" cx="266.592" cy="220.378" r="7.293" class="O"/><circle transform="matrix(.96291 -.26983 .26983 .96291 -66.87764 40.51259)" cx="113.916" cy="263.508" r="6.763" class="O"/><circle transform="matrix(.96291 -.26983 .26983 .96291 -97.11547 124.74014)" cx="405.155" cy="415.605" r="6.732" class="O"/><circle transform="matrix(.96291 -.26983 .26983 .96291 -126.885 39.71495)" cx="81.011" cy="481.372" r="6.527" class="O"/><circle transform="matrix(.96291 -.26983 .26983 .96291 -50.48952 66.13568)" cx="215.308" cy="216.711" r="6.505" class="O"/><circle transform="matrix(.96291 -.26983 .26983 .96291 -54.31112 97.94026)" cx="329.079" cy="246.514" r="6.487" class="O"/><circle transform="matrix(.96291 -.26983 .26983 .96291 -107.36645 123.63988)" cx="396.028" cy="452.34" r="6.467" class="O"/><circle transform="matrix(.96291 -.26983 .26983 .96291 -53.56408 56.9876)" cx="180.497" cy="223.32" r="6.463" class="O"/><circle transform="matrix(.96291 -.26983 .26983 .96291 -143.44667 87.92844)" cx="248.096" cy="565.717" r="6.416" class="O"/><circle transform="matrix(.96291 -.26983 .26983 .96291 -111.95395 122.37947)" cx="389.149" cy="468.396" r="6.401" class="O"/><circle transform="matrix(.96291 -.26983 .26983 .96291 -144.71394 73.16074)" cx="193.748" cy="562.943" r="6.359" class="O"/><circle transform="matrix(.96291 -.26983 .26983 .96291 -130.84898 43.03731)" cx="91.114" cy="497.451" r="6.287" class="O"/><circle transform="matrix(.96291 -.26983 .26983 .96291 -140.50974 97.10913)" cx="282.957" cy="559.625" r="6.257" class="O"/><circle transform="matrix(.96291 -.26983 .26983 .96291 -137.49335 51.17808)" cx="117.401" cy="525.688" r="6.257" class="O"/><circle transform="matrix(.96291 -.26983 .26983 .96291 -82.44438 31.29362)" cx="72.601" cy="315.519" r="6.216" class="O"/><circle transform="matrix(.96291 -.26983 .26983 .96291 -139.58597 54.83875)" cx="129.67" cy="535.13" r="6.155" class="O"/><circle transform="matrix(.96291 -.26983 .26983 .96291 -131.20407 113.79625)" cx="348.305" cy="534.122" r="6.125" class="O"/><circle transform="matrix(.96291 -.26983 .26983 .96291 -62.74168 40.76849)" cx="116.915" cy="248.592" r="6.056" class="O"/><circle transform="matrix(.96291 -.26983 .26983 .96291 -47.06673 76.63384)" cx="255.204" cy="209.511" r="6.052" class="O"/><circle transform="matrix(.96291 -.26983 .26983 .96291 -58.98885 110.05162)" cx="370.792" cy="269.584" r="5.999" class="O"/><circle transform="matrix(.96291 -.26983 .26983 .96291 -53.14524 101.81002)" cx="343.737" cy="244.208" r="5.957" class="O"/><circle transform="matrix(.96291 -.26983 .26983 .96291 -58.82761 47.99268)" cx="145.148" cy="237.968" r="5.943" class="O"/><circle transform="matrix(.96291 -.26983 .26983 .96291 -134.8282 106.34106)" cx="319.376" cy="543.576" r="5.911" class="O"/><circle transform="matrix(.96291 -.26983 .26983 .96291 -48.23047 69.4381)" cx="228.449" cy="210.146" r="5.79" class="O"/><circle transform="matrix(.96291 -.26983 .26983 .96291 -146.33467 85.22166)" cx="236.806" cy="574.868" r="5.721" class="O"/><circle transform="matrix(.96291 -.26983 .26983 .96291 -145.1335 77.24183)" cx="208.382" cy="566.51" r="5.709" class="O"/><circle transform="matrix(.96291 -.26983 .26983 .96291 -52.70826 53.13518)" cx="166.912" cy="218.281" r="5.631" class="O"/><circle transform="matrix(.96291 -.26983 .26983 .96291 -138.61627 106.33294)" cx="317.453" cy="557.35" r="5.601" class="O"/><circle transform="matrix(.96291 -.26983 .26983 .96291 -103.9397 29.11081)" cx="53.914" cy="392.611" r="5.391" class="O"/><circle transform="matrix(.96291 -.26983 .26983 .96291 -140.88383 100.89324)" cx="296.533" cy="562.878" r="5.309" class="O"/><circle transform="matrix(.96291 -.26983 .26983 .96291 -84.13735 27.96471)" cx="59.646" cy="320.012" r="5.1" class="O"/><circle transform="matrix(.96291 -.26983 .26983 .96291 -94.21407 127.30343)" cx="415.929" cy="406.333" r="5.087" class="O"/><circle transform="matrix(.96291 -.26983 .26983 .96291 -95.4854 28.48914)" cx="55.88" cy="361.55" r="5.072" class="O"/><circle transform="matrix(.96291 -.26983 .26983 .96291 -93.141 26.00937)" cx="48.032" cy="351.783" r="5.062" class="O"/><circle transform="matrix(.96291 -.26983 .26983 .96291 -74.66341 120.72591)" cx="401.78" cy="331.933" r="5.023" class="O"/><circle transform="matrix(.96291 -.26983 .26983 .96291 -130.6463 39.32719)" cx="77.72" cy="494.859" r="4.96" class="O"/><circle transform="matrix(.96291 -.26983 .26983 .96291 -110.43636 125.78155)" cx="402.282" cy="464.577" r="4.881" class="O"/><circle transform="matrix(.96291 -.26983 .26983 .96291 -107.19997 27.99659)" cx="48.231" cy="403.913" r="4.864" class="O"/><circle transform="matrix(.96291 -.26983 .26983 .96291 -147.89146 75.05275)" cx="199.041" cy="575.446" r="4.824" class="O"/><circle transform="matrix(.96291 -.26983 .26983 .96291 -87.2308 124.72774)" cx="410.052" cy="379.645" r="4.643" class="O"/><circle transform="matrix(.96291 -.26983 .26983 .96291 -67.06854 115.98835)" cx="388.346" cy="301.94" r="4.621" class="O"/><circle transform="matrix(.96291 -.26983 .26983 .96291 -141.06749 51.59061)" cx="117.115" cy="538.895" r="4.558" class="O"/><circle transform="matrix(.96291 -.26983 .26983 .96291 -64.30357 114.50202)" cx="384.322" cy="291.14" r="4.509" class="O"/><circle transform="matrix(.96291 -.26983 .26983 .96291 -125.38329 117.43191)" cx="364.439" cy="514.768" r="4.48" class="O"/><circle transform="matrix(.96291 -.26983 .26983 .96291 -67.94788 36.97129)" cx="100.5" cy="265.63" r="4.425" class="O"/><circle transform="matrix(.96291 -.26983 .26983 .96291 -85.32862 127.15754)" cx="419.841" cy="373.941" r="4.292" class="O"/><circle transform="matrix(.96291 -.26983 .26983 .96291 -78.02834 122.33312)" cx="405.944" cy="344.976" r="4.242" class="O"/><circle transform="matrix(.96291 -.26983 .26983 .96291 -47.98298 83.54903)" cx="279.898" cy="216.301" r="4.229" class="O"/><circle transform="matrix(.96291 -.26983 .26983 .96291 -51.3766 95.9106)" cx="323.164" cy="234.825" r="4.218" class="O"/><circle transform="matrix(.96291 -.26983 .26983 .96291 -145.44266 66.37386)" cx="168.698" cy="562.2" r="4.213" class="O"/><circle transform="matrix(.96291 -.26983 .26983 .96291 -125.30244 36.52659)" cx="70.206" cy="474.021" r="4.146" class="O"/><circle transform="matrix(.96291 -.26983 .26983 .96291 -49.61017 62.70507)" cx="203.27" cy="211.798" r="4.103" class="O"/><circle transform="matrix(.96291 -.26983 .26983 .96291 -50.82252 59.17889)" cx="189.838" cy="214.444" r="4.028" class="O"/><circle transform="matrix(.96291 -.26983 .26983 .96291 -143.54424 60.0013)" cx="146.468" cy="552.109" r="3.923" class="O"/><circle transform="matrix(.96291 -.26983 .26983 .96291 -115.38803 122.79614)" cx="388.948" cy="481.095" r="3.904" class="O"/><circle transform="matrix(.96291 -.26983 .26983 .96291 -100.21228 126.46167)" cx="409.868" cy="427.729" r="3.881" class="O"/><circle transform="matrix(.96291 -.26983 .26983 .96291 -144.36694 91.2117)" cx="259.577" cy="570.706" r="3.707" class="O"/><circle transform="matrix(.96291 -.26983 .26983 .96291 -113.75649 30.35076)" cx="53.515" cy="428.938" r="3.614" class="O"/><circle transform="matrix(.96291 -.26983 .26983 .96291 -104.80453 125.85194)" cx="405.354" cy="444.128" r="3.565" class="O"/><circle transform="matrix(.96291 -.26983 .26983 .96291 -145.9845 70.0746)" cx="181.888" cy="566.021" r="3.499" class="O"/><circle transform="matrix(.96291 -.26983 .26983 .96291 -79.19682 30.81475)" cx="72.483" cy="303.467" r="3.441" class="O"/><circle transform="matrix(.96291 -.26983 .26983 .96291 -143.04256 95.01346)" cx="274.068" cy="567.79" r="3.417" class="O"/><circle transform="matrix(.96291 -.26983 .26983 .96291 -49.94682 93.62094)" cx="315.551" cy="228.48" r="3.298" class="O"/><circle transform="matrix(.96291 -.26983 .26983 .96291 -48.32774 86.70998)" cx="291.223" cy="219.136" r="3.288" class="O"/><circle transform="matrix(.96291 -.26983 .26983 .96291 -123.71033 34.38726)" cx="63.22" cy="467.161" r="3.25" class="O"/></g><circle transform="matrix(.96291 -.26983 .26983 .96291 -143.35822 55.16442)" cx="128.968" cy="549.014" r="3.206" fill="#20bdff"/><g class="P"><circle transform="matrix(.96291 -.26983 .26983 .96291 -134.00877 43.73797)" cx="92.082" cy="509.294" r="3.201" class="O"/><circle transform="matrix(.96291 -.26983 .26983 .96291 -137.39536 48.00513)" cx="105.91" cy="523.746" r="3.003" class="O"/><circle transform="matrix(.96291 -.26983 .26983 .96291 -117.0479 31.68777)" cx="56.733" cy="441.578" r="2.898" class="O"/><circle transform="matrix(.96291 -.26983 .26983 .96291 -70.51823 35.27015)" cx="93.028" cy="274.128" r="2.882" class="O"/><circle transform="matrix(.96291 -.26983 .26983 .96291 -76.73664 31.80913)" cx="77.33" cy="295.016" r="2.794" class="O"/><circle transform="matrix(.96291 -.26983 .26983 .96291 -58.9051 44.96354)" cx="134.092" cy="236.735" r="2.787" class="O"/><circle transform="matrix(.96291 -.26983 .26983 .96291 -134.81787 109.35798)" cx="330.355" cy="545.047" r="2.77" class="O"/><circle transform="matrix(.96291 -.26983 .26983 .96291 -117.79974 123.31734)" cx="389.638" cy="490.127" r="2.76" class="O"/><circle transform="matrix(.96291 -.26983 .26983 .96291 -123.53099 119.25372)" cx="371.992" cy="508.942" r="2.664" class="O"/><circle transform="matrix(.96291 -.26983 .26983 .96291 -75.68312 123.26502)" cx="410.506" cy="336.912" r="2.628" class="O"/><circle transform="matrix(.96291 -.26983 .26983 .96291 -55.97882 48.66043)" cx="149.001" cy="227.94" r="2.405" class="O"/><circle transform="matrix(.96291 -.26983 .26983 .96291 -146.74211 79.56245)" cx="216.018" cy="573.521" r="2.263" class="O"/><circle transform="matrix(.96291 -.26983 .26983 .96291 -102.02317 27.17852)" cx="47.844" cy="384.674" r="2.206" class="O"/><circle transform="matrix(.96291 -.26983 .26983 .96291 -97.55791 26.867)" cx="48.943" cy="368.277" r="2.196" class="O"/><circle transform="matrix(.96291 -.26983 .26983 .96291 -68.6015 34.61404)" cx="91.6" cy="266.829" r="2.161" class="O"/><circle transform="matrix(.96291 -.26983 .26983 .96291 -46.64495 85.53195)" cx="287.78" cy="212.426" r="2.159" class="O"/><circle transform="matrix(.96291 -.26983 .26983 .96291 -48.89943 60.47569)" cx="195.516" cy="208.098" r="2.093" class="O"/><circle transform="matrix(.96291 -.26983 .26983 .96291 -47.16367 72.01251)" cx="238.347" cy="207.553" r="2.046" class="O"/><circle transform="matrix(.96291 -.26983 .26983 .96291 -146.9025 68.16656)" cx="174.488" cy="568.406" r="1.88" class="O"/><circle transform="matrix(.96291 -.26983 .26983 .96291 -77.28806 29.98591)" cx="70.423" cy="296.11" r="1.804" class="O"/><circle transform="matrix(.96291 -.26983 .26983 .96291 -144.25491 93.34785)" cx="267.403" cy="571.367" r="1.751" class="O"/><circle transform="matrix(.96291 -.26983 .26983 .96291 -143.86768 57.84321)" cx="138.457" cy="552.206" r="1.694" class="O"/><circle transform="matrix(.96291 -.26983 .26983 .96291 -88.83525 126.47336)" cx="415.599" cy="386.354" r="1.667" class="O"/><circle transform="matrix(.96291 -.26983 .26983 .96291 -115.81477 30.28974)" cx="52.264" cy="436.394" r="1.551" class="O"/><circle transform="matrix(.96291 -.26983 .26983 .96291 -102.7844 126.10318)" cx="407.278" cy="436.905" r="1.514" class="O"/><circle transform="matrix(.96291 -.26983 .26983 .96291 -102.10532 127.40954)" cx="412.369" cy="435.089" r="1.496" class="O"/><circle transform="matrix(.96291 -.26983 .26983 .96291 -60.74593 42.58501)" cx="124.52" cy="242.241" r="1.457" class="O"/><circle transform="matrix(.96291 -.26983 .26983 .96291 -65.86957 37.81496)" cx="104.608" cy="258.492" r="1.415" class="O"/><circle transform="matrix(.96291 -.26983 .26983 .96291 -47.08766 73.95775)" cx="245.46" cy="208.249" r="1.378" class="O"/><circle transform="matrix(.96291 -.26983 .26983 .96291 -47.80331 66.88053)" cx="219.36" cy="207.313" r="1.335" class="O"/><circle transform="matrix(.96291 -.26983 .26983 .96291 -72.3039 120.85225)" cx="403.419" cy="323.414" r="1.257" class="O"/><circle transform="matrix(.96291 -.26983 .26983 .96291 -64.57449 38.88713)" cx="109.155" cy="254.318" r="1.192" class="O"/><circle transform="matrix(.96291 -.26983 .26983 .96291 -51.56974 98.02658)" cx="330.764" cy="236.586" r="1.188" class="O"/><circle transform="matrix(.96291 -.26983 .26983 .96291 -127.45142 116.73209)" cx="360.86" cy="521.94" r="1.141" class="O"/><circle transform="matrix(.96291 -.26983 .26983 .96291 -67.93564 118.00366)" cx="395.242" cy="306.102" r="1.038" class="O"/><circle transform="matrix(.96291 -.26983 .26983 .96291 -47.10343 81.65977)" cx="273.466" cy="212.157" r="1.028" class="O"/><circle transform="matrix(.96291 -.26983 .26983 .96291 -127.24995 37.06964)" cx="71.207" cy="481.376" r=".882" class="O"/><circle transform="matrix(.96291 -.26983 .26983 .96291 -48.50361 64.37267)" cx="209.889" cy="208.607" r=".85" class="O"/><circle transform="matrix(.96291 -.26983 .26983 .96291 -135.18108 45.03354)" cx="96.208" cy="514.206" r=".819" class="O"/><circle transform="matrix(.96291 -.26983 .26983 .96291 -113.94009 124.01653)" cx="394.111" cy="476.438" r=".653" class="O"/><circle transform="matrix(.96291 -.26983 .26983 .96291 -50.99048 57.26142)" cx="182.78" cy="214.097" r=".644" class="O"/><circle transform="matrix(.96291 -.26983 .26983 .96291 -136.4214 46.6796)" cx="101.575" cy="519.54" r=".641" class="O"/><circle transform="matrix(.96291 -.26983 .26983 .96291 -146.59238 82.85154)" cx="228.057" cy="574.621" r=".637" class="O"/><circle transform="matrix(.96291 -.26983 .26983 .96291 -46.95761 79.10013)" cx="264.229" cy="210.347" r=".617" class="O"/><circle transform="matrix(.96291 -.26983 .26983 .96291 -132.6962 111.81131)" cx="340.339" cy="538.557" r=".597" class="O"/><circle transform="matrix(.96291 -.26983 .26983 .96291 -145.33202 89.6635)" cx="253.464" cy="573.442" r=".596" class="O"/><circle transform="matrix(.96291 -.26983 .26983 .96291 -144.569 61.56055)" cx="151.627" cy="556.616" r=".533" class="O"/><circle transform="matrix(.96291 -.26983 .26983 .96291 -145.41194 64.43423)" cx="161.658" cy="561.119" r=".514" class="O"/><circle transform="matrix(.96291 -.26983 .26983 .96291 -59.93828 43.82459)" cx="129.432" cy="239.924" r=".464" class="O"/><circle transform="matrix(.96291 -.26983 .26983 .96291 -80.52816 29.74275)" cx="67.918" cy="307.773" r=".44" class="O"/><circle transform="matrix(.96291 -.26983 .26983 .96291 -106.52327 126.01108)" cx="405.074" cy="450.459" r=".378" class="O"/><circle transform="matrix(.96291 -.26983 .26983 .96291 -139.76326 102.78658)" cx="303.98" cy="559.749" r=".374" class="O"/><circle transform="matrix(.96291 -.26983 .26983 .96291 -146.66792 71.63287)" cx="187.214" cy="569.286" r=".353" class="O"/><circle transform="matrix(.96291 -.26983 .26983 .96291 -98.48685 126.897)" cx="412.314" cy="421.671" r=".257" class="O"/><circle transform="matrix(.96291 -.26983 .26983 .96291 -142.88072 96.64755)" cx="280.092" cy="568.018" r=".216" class="O"/><circle transform="matrix(.96291 -.26983 .26983 .96291 -62.7263 113.37857)" cx="381.025" cy="284.841" r=".206" class="O"/><g class="Q"><path d="M204.364 176.236v-2.52h3.696v-24.364l-3.78.336v-1.85c1.722-.42 3.402-1.176 4.788-2.352h2.017v28.23h3.528v2.52h-10.25zm19.32.42c-4.704 0-7.477-3.696-7.477-8.065 0-3.738 1.974-6.427 4.872-8.485-2.687-2.143-4.2-4.243-4.2-7.813 0-4 3.024-6.805 6.805-6.805s6.806 2.814 6.806 6.805c0 3.57-1.513 5.67-4.2 7.813 2.9 2.06 4.873 4.747 4.873 8.485 0 4.37-2.772 8.065-7.478 8.065zm0-14.954c-2.436 1.806-4.452 3.738-4.452 7.015 0 2.48 1.344 5.42 4.452 5.42s4.453-2.94 4.453-5.42c0-3.276-2.017-5.2-4.453-7.015zm0-13.694c-2.604 0-3.78 2.016-3.78 3.948 0 3.066 1.513 5.335 3.78 6.72 2.27-1.386 3.78-3.654 3.78-6.72 0-1.933-1.177-3.948-3.78-3.948z"/><use xlink:href="#E"/><path d="M258.46 176.656c-4.956 0-7.31-4.62-7.31-15.585s2.353-15.584 7.31-15.584 7.3 4.62 7.3 15.584-2.353 15.585-7.3 15.585zm0-28.648c-2.772 0-4.284 3.108-4.284 13.063s1.512 13.064 4.284 13.064 4.285-3.108 4.285-13.064-1.513-13.063-4.285-13.063z"/><path d="M703.095 355v-2.52c2.688-8.99 11.1-14.03 11.1-20.92 0-3.192-1.597-4.788-3.654-4.788-2.395 0-4.16 1.848-4.41 6.385h-2.772c.336-6.9 3.444-8.905 7.1-8.905 3.99 0 6.764 2.688 6.764 7.73 0 7.562-6.806 9.914-11.342 20.5h11.5V355h-14.282z"/><use xlink:href="#E" x="486.722" y="178.764"/><path d="M737.787 355v-2.52h3.696v-24.364l-3.78.336v-1.85c1.722-.42 3.402-1.176 4.788-2.352h2.017v28.23h3.528V355h-10.25zm12.513-30.328h13.6v1.596L755.1 355h-3.192l8.82-27.8H750.3v-2.52z"/></g></g><g fill="#4568b6"><path d="M1002.825 164.324c0-11.717-9.533-21.25-21.25-21.25s-21.25 9.533-21.25 21.25c0 11.373 8.987 20.66 20.23 21.198a10.07 10.07 0 0 0 2.043 0c11.242-.538 20.23-9.826 20.23-21.198zm-29.25 11.25a8.01 8.01 0 0 1 8-8 8.01 8.01 0 0 1 8 8 8.01 8.01 0 0 1-8 8 8.01 8.01 0 0 1-8-8zm8-10c-5.514 0-10 4.486-10 10a9.94 9.94 0 0 0 .818 3.952c-2.052-2.228-3.318-5.192-3.318-8.452 0-6.893 5.607-12.5 12.5-12.5s12.5 5.607 12.5 12.5c0 3.26-1.265 6.224-3.318 8.452a9.94 9.94 0 0 0 .818-3.952c0-5.514-4.486-10-10-10zm11.748 13.965c1.724-2.385 2.752-5.304 2.752-8.465a14.52 14.52 0 0 0-14.5-14.5 14.52 14.52 0 0 0-14.5 14.5c0 3.16 1.028 6.08 2.752 8.465-4.553-3.524-7.502-9.025-7.502-15.215 0-10.614 8.636-19.25 19.25-19.25s19.25 8.636 19.25 19.25c0 6.2-2.95 11.69-7.502 15.215z"/><use xlink:href="#F"/><use xlink:href="#G"/><use xlink:href="#F" x="31.89"/><use xlink:href="#H"/><path d="M986.334 213.76c-1.512 0-2.772-1.4-2.772-2.968V194.44c0-.504.42-.783.812-.783a.78.78 0 0 1 .784.783v16.353c0 1.792 1.988.756 1.988 2.016 0 .477-.336.952-.812.952z"/><use xlink:href="#I"/><use xlink:href="#J"/><use xlink:href="#K"/><use xlink:href="#G" x="80.919"/><use xlink:href="#L"/></g><g fill="#20bdff"><path d="M78.344 638.164H67.688c-.48 0-.928-.448-.928-.896v-20.99c0-.575.448-.896.928-.896.416 0 .896.288.896.896v20.063h9.76c.576 0 .896.48.896.93 0 .416-.32.896-.896.896z"/><use xlink:href="#M"/><path d="M93.096 638.164h-.992c-2.528 0-3.776-1.248-3.776-3.744v-11.423h-1.632c-.576 0-.896-.48-.896-.928 0-.416.32-.896.896-.896h1.632v-4.896c0-.575.48-.896.928-.896s.896.32.896.896v4.896h2.944c.576 0 .896.48.896.896 0 .448-.32.928-.896.928h-2.944v11.423c0 1.568.448 1.92 1.952 1.92h.992c.576 0 .896.48.896.93 0 .416-.32.896-.896.896z"/><use xlink:href="#N"/><use xlink:href="#O"/><use xlink:href="#P"/><use xlink:href="#Q"/><use xlink:href="#M" x="89.28"/><use xlink:href="#P" x="43.84"/></g><g class="P Q"><path d="M216.74 752.228h-6.208v20.095c0 .575-.448.896-.928.896-.416 0-.896-.288-.896-.896v-20.095H202.5a.88.88 0 0 1-.928-.896.88.88 0 0 1 .928-.896h14.24c.576 0 .896.448.896.896s-.32.896-.896.896z"/><use xlink:href="#O" x="103.606" y="135.054"/><use xlink:href="#R"/><use xlink:href="#S"/><path d="M283.037 773.218c-.448 0-.896-.32-.896-.896V761.57c0-2.208-1.856-4.063-4.063-4.063s-4.096 1.855-4.096 4.032v10.783c0 .575-.448.896-.896.896s-.928-.32-.928-.896V761.57c0-2.208-1.856-4.063-4.032-4.063-2.24 0-4.096 1.855-4.096 4.032v10.783c0 .575-.48.896-.896.896-.448 0-.928-.32-.928-.896v-15.2c0-.576.48-.896.928-.896.416 0 .896.32.896.896v.19c1.056-1.023 2.496-1.632 4.063-1.632 2.048 0 3.872 1.024 4.992 2.72 1.056-1.633 2.88-2.72 4.96-2.72 3.328 0 5.92 2.624 5.92 5.856v10.783c0 .575-.48.896-.928.896z"/><use xlink:href="#T"/><use xlink:href="#Q" x="153.493" y="135.054"/><use xlink:href="#M" x="242.774" y="135.053"/><use xlink:href="#U"/><path d="M350.43 773.218h-.992c-2.528 0-3.776-1.248-3.776-3.744V758.05h-1.632c-.576 0-.896-.48-.896-.928 0-.416.32-.896.896-.896h1.632v-4.896c0-.575.48-.896.928-.896s.896.32.896.896v4.896h2.944c.576 0 .896.48.896.896 0 .448-.32.928-.896.928h-2.944v11.423c0 1.568.448 1.92 1.952 1.92h.992c.576 0 .896.48.896.93 0 .416-.32.896-.896.896z"/><use xlink:href="#P" x="220.917" y="135.054"/><use xlink:href="#Q" x="220.917" y="135.054"/></g><g class="P Q"><path d="M244 831.333c-4.383 0-8.03-3.52-8.03-8.03V808.87c0-.575.48-.896.928-.896s.928.32.928.896v14.432c0 3.392 2.784 6.207 6.175 6.207a6.26 6.26 0 0 0 6.208-6.207V808.87c0-.575.48-.896.928-.896.416 0 .896.32.896.896v14.432c0 4.383-3.52 8.03-8.032 8.03zm23.807-.576h-12.575c-.576 0-.896-.448-.896-.864a1.15 1.15 0 0 1 .192-.64l11.36-13.663h-10.655c-.576 0-.896-.48-.896-.928 0-.416.32-.896.896-.896h12.575c.512 0 .928.385.928.864 0 .224-.032.416-.224.64l-11.327 13.663h10.623c.608 0 .928.48.928.93a.9.9 0 0 1-.928.895zm12.063.543c-2.784 0-4.864-1.152-6.208-3.04v1.6c0 .575-.48.896-.896.896-.448 0-.928-.32-.928-.896v-21c0-.575.48-.896.928-.896.416 0 .896.32.896.896v7.36c1.344-1.855 3.423-3.008 6.208-3.008 5.15 0 8.03 4.225 8.03 9.023 0 4.832-2.88 9.056-8.03 9.056zm0-16.255c-3.808 0-6.208 3.04-6.208 7.2s2.4 7.23 6.208 7.23 6.208-3.07 6.208-7.23-2.4-7.2-6.208-7.2z"/><use xlink:href="#T" x="3.488" y="57.539"/><use xlink:href="#S" x="62.08" y="57.539"/><use xlink:href="#M" x="243.415" y="192.592"/><use xlink:href="#U" x="0.641" y="57.539"/><path d="M350.43 830.757h-.992c-2.528 0-3.776-1.248-3.776-3.744V815.6h-1.632c-.576 0-.896-.48-.896-.928 0-.416.32-.896.896-.896h1.632v-4.896c0-.575.48-.896.928-.896s.896.32.896.896v4.896h2.944c.576 0 .896.48.896.896 0 .448-.32.928-.896.928h-2.944v11.423c0 1.568.448 1.92 1.952 1.92h.992c.576 0 .896.48.896.93 0 .416-.32.896-.896.896z"/><use xlink:href="#P" x="220.917" y="192.593"/><use xlink:href="#Q" x="220.917" y="192.593"/></g><g class="P Q"><path d="M241.344 913.028c-.288 0-.544-.192-.768-.512l-12.51-18.463V912.1c0 .575-.48.896-.896.896-.448 0-.928-.32-.928-.896v-20.99c0-.544.48-.96.96-.96.288 0 .544.192.768.513l12.51 18.462V891.11c0-.575.48-.896.896-.896.448 0 .928.32.928.896v20.99c0 .544-.48.928-.96.928z"/><use xlink:href="#V"/><use xlink:href="#R" x="26.498" y="139.778"/><path d="M280.48 912.996h-.992c-2.528 0-3.776-1.248-3.776-3.744V897.83h-1.632c-.576 0-.896-.48-.896-.928 0-.416.32-.896.896-.896h1.632v-4.896c0-.575.48-.896.928-.896s.896.32.896.896v4.896h2.944c.576 0 .896.48.896.896 0 .448-.32.928-.896.928h-2.944v11.423c0 1.568.448 1.92 1.952 1.92h.992c.576 0 .896.48.896.93 0 .416-.32.896-.896.896z"/><use xlink:href="#N" x="188.023" y="274.832"/><path d="M323.358 913.028c-.32 0-.608-.192-.768-.544l-5.76-11.936-5.312 6.527v5.024c0 .575-.416.896-.896.896-.448 0-.928-.288-.928-.896v-20.99c0-.575.448-.896.928-.896.416 0 .896.288.896.896v13.087l11.007-13.662c.192-.257.416-.385.64-.385.512 0 1.024.416 1.024.93 0 .19-.064.384-.256.607l-5.855 7.264 6.144 12.735c.064.16.064.256.064.416 0 .48-.48.928-.928.928z"/><use xlink:href="#V" x="80.702"/><use xlink:href="#R" x="107.84" y="139.778"/><use xlink:href="#T" x="65.726" y="139.778"/><path d="M387.87 912.996h-.032c-1.056 0-2.56-.576-3.167-2.496-1.344 1.888-3.424 3.04-6.208 3.04-5.215 0-8.03-4.288-8.03-9.056 0-4.83 2.88-9.023 8.03-9.023 2.784 0 4.864 1.152 6.208 3.008V896.9c0-.512.416-.896.928-.896.448 0 .896.32.896.896v12.895c0 2.048 2.304.77 2.304 2.305 0 .416-.288.895-.928.895zm-9.408-15.71c-3.775 0-6.208 3.04-6.208 7.2s2.432 7.23 6.208 7.23c3.808 0 6.208-3.07 6.208-7.23s-2.4-7.2-6.208-7.2z"/></g><g fill="none" stroke-width="2" stroke-miterlimit="10"><path d="M448.355 774.963c-5.514-5.68-5.38-14.785.3-20.3s14.785-5.38 20.3.3 5.38 14.785-.3 20.3-14.785 5.38-20.3-.3z" opacity=".7" stroke="#fff"/><path d="M132.688 539.5a10.26 10.26 0 0 1 6.106 6.75 10.14 10.14 0 0 1-.931 7.755c-1.337 2.377-3.518 4.09-6.144 4.826-2.153.603-4.392.49-6.473-.325a10.26 10.26 0 0 1-6.106-6.75c-1.518-5.417 1.654-11.06 7.07-12.58 2.158-.604 4.397-.492 6.478.323z" stroke="#20bdff"/><g stroke="#fff"><path d="M503.82 839.37c-9.394-9.675-9.165-25.2.5-34.583s25.2-9.165 34.583.5 9.166 25.188-.5 34.583-25.2 9.166-34.583-.5zm47.72 79.787c-8.593-8.85-8.384-23.04.465-31.633s23.04-8.384 31.633.466 8.384 23.04-.466 31.633-23.04 8.384-31.633-.466z" opacity=".7"/><path d="M443.162 764.963h-48.406m101.124 57.37H394.756m149.346 81.24H396.665" class="Q"/></g><path d="M128.968 559.625V609" stroke="#20bdff"/></g><g opacity=".5" class="P"><path d="M876.8 1046.357c-1.2 0-3.22-.42-3.92-1.58-.08-.12-.08-.22-.08-.3 0-.32.28-.602.58-.602.12 0 .32.102.44.28.72.88 2 1.06 2.98 1.06 1.94 0 2.92-.64 2.92-1.94 0-3.02-6.562-1.42-6.562-5.422 0-2.02 2.02-2.8 3.84-2.8 1.04 0 2.64.36 3.44 1.16a.56.56 0 0 1 .18.38.65.65 0 0 1-.62.6.53.53 0 0 1-.38-.16c-.62-.6-1.74-.84-2.62-.84-1.76 0-2.7.682-2.7 1.66 0 2.8 6.562 1.32 6.562 5.422 0 2.28-2 3.08-4.06 3.08zm10.72-.04c-3.22 0-5.02-2.64-5.02-5.662 0-3 1.8-5.64 5.02-5.64s5.02 2.64 5.02 5.64c0 3.02-1.8 5.662-5.02 5.662zm0-10.162c-2.36 0-3.88 1.9-3.88 4.5s1.52 4.52 3.88 4.52c2.38 0 3.88-1.92 3.88-4.52s-1.5-4.5-3.88-4.5zm15.78 9.824c-.28 0-.58-.2-.58-.56v-.64c-.84.98-2.06 1.54-3.42 1.54-2.48 0-4.56-2.08-4.56-4.56v-5.842c0-.36.3-.56.58-.56.26 0 .56.2.56.56v5.842c0 1.9 1.52 3.42 3.42 3.42s3.42-1.52 3.42-3.42v-5.842c0-.36.3-.56.58-.56.26 0 .56.2.56.56v9.502c0 .36-.3.56-.56.56z"/><use xlink:href="#W"/><path d="M921.44 1044.797c-.88.98-2.1 1.52-3.58 1.52-3.22 0-5.02-2.64-5.02-5.662 0-3 1.8-5.64 5.02-5.64 1.48 0 2.7.54 3.58 1.52.12.12.16.262.16.38 0 .3-.28.6-.58.6-.14 0-.28-.06-.42-.2-.66-.74-1.58-1.16-2.74-1.16-2.36 0-3.88 1.9-3.88 4.5s1.52 4.52 3.88 4.52c1.16 0 2.08-.44 2.74-1.16.14-.14.28-.2.42-.2.3 0 .58.26.58.58 0 .14-.04.26-.16.398z"/><use xlink:href="#X"/><path d="M936.998 1039.416c-.64 0-1.16-.5-1.16-1.14s.52-1.14 1.16-1.14c.62 0 1.12.5 1.12 1.14s-.5 1.14-1.12 1.14zm0 6.563c-.64 0-1.16-.5-1.16-1.14s.52-1.14 1.16-1.14c.62 0 1.12.5 1.12 1.14s-.5 1.14-1.12 1.14zm14.22.34c-4.4 0-5.82-3.7-5.82-7.46 0-3.742 1.42-7.482 5.82-7.482 1.8 0 3.38.64 4.44 2.18.1.102.12.2.12.32 0 .32-.3.56-.62.56-.28 0-.44-.24-.66-.52-.7-.9-1.76-1.4-3.28-1.4-3.02 0-4.682 2.32-4.682 6.342 0 3.04.96 6.32 4.682 6.32 3.16 0 4.54-2.42 4.68-5.74h-2.44a.57.57 0 0 1-.6-.58c0-.28.2-.58.56-.58h3.04c.34 0 .58.238.58.58 0 3.9-1.54 7.46-5.82 7.46zm18.522-.338h-.02c-.66 0-1.6-.36-1.98-1.56-.84 1.18-2.14 1.9-3.88 1.9-3.26 0-5.02-2.682-5.02-5.662 0-3.02 1.8-5.64 5.02-5.64 1.74 0 3.04.72 3.88 1.88v-.98c0-.32.26-.56.58-.56.28 0 .56.2.56.56v8.063c0 1.28 1.44.48 1.44 1.44a.55.55 0 0 1-.58.561zm-5.88-9.822c-2.36 0-3.88 1.9-3.88 4.5s1.52 4.52 3.88 4.52c2.38 0 3.88-1.92 3.88-4.52s-1.5-4.5-3.88-4.5zm13.298 10.16c-1.74 0-3.04-.72-3.88-1.9v5.182c0 .36-.3.58-.56.58a.58.58 0 0 1-.58-.58v-13.684c0-.36.3-.56.58-.56.26 0 .56.2.56.56v.98c.84-1.16 2.14-1.88 3.88-1.88 3.22 0 5.02 2.64 5.02 5.64 0 3.02-1.8 5.662-5.02 5.662zm0-10.162c-2.38 0-3.88 1.9-3.88 4.5s1.5 4.52 3.88 4.52 3.88-1.92 3.88-4.52-1.5-4.5-3.88-4.5zm20.422 9.824c-.28 0-.56-.2-.56-.56v-6.72c0-1.38-1.16-2.54-2.54-2.54s-2.56 1.16-2.56 2.52v6.742c0 .36-.28.56-.56.56s-.58-.2-.58-.56v-6.72a2.57 2.57 0 0 0-2.521-2.541c-1.4 0-2.56 1.16-2.56 2.52v6.742c0 .36-.3.56-.56.56-.28 0-.58-.2-.58-.56v-9.502c0-.36.3-.56.58-.56.26 0 .56.2.56.56v.12a3.64 3.64 0 0 1 2.54-1.02 3.71 3.71 0 0 1 3.121 1.701 3.69 3.69 0 0 1 3.1-1.7c2.08 0 3.7 1.64 3.7 3.66v6.742c0 .36-.3.56-.58.56zm3.816-12.544c-.64 0-1.14-.5-1.14-1.14s.5-1.14 1.14-1.14 1.14.5 1.14 1.14-.5 1.14-1.14 1.14zm0 12.543c-.28 0-.58-.18-.58-.56v-9.502c0-.36.28-.56.58-.56.26 0 .56.18.56.56v9.502c0 .36-.26.56-.56.56zm11.96.001c-.28 0-.58-.2-.58-.56v-5.842c0-1.9-1.52-3.42-3.42-3.42a3.42 3.42 0 0 0-3.421 3.42v5.842c0 .36-.3.56-.56.56-.28 0-.58-.2-.58-.56v-9.502c0-.36.3-.56.58-.56.26 0 .56.2.56.56v.64c.9-.98 2.08-1.54 3.42-1.54a4.6 4.6 0 0 1 4.561 4.561v5.842c0 .36-.3.56-.56.56zm12.24 0c-.28 0-.58-.2-.58-.56v-1c-.84 1.18-2.14 1.9-3.88 1.9-3.22 0-5.02-2.64-5.02-5.662 0-3 1.8-5.64 5.02-5.64 1.74 0 3.04.72 3.88 1.88v-4.602c0-.36.3-.56.58-.56.26 0 .56.2.56.56v13.123c0 .36-.3.56-.56.56zm-4.46-9.822c-2.36 0-3.88 1.9-3.88 4.5s1.52 4.52 3.88 4.52c2.38 0 3.88-1.92 3.88-4.52s-1.5-4.5-3.88-4.5z"/><use xlink:href="#X" x="104.998"/><use xlink:href="#W" x="134.257"/></g><g opacity=".5" class="P"><path d="M42.328 1046.045c-3.568 0-5.47-1.97-5.503-2.002 0 .935-.7 1.4-1.468 1.4-.7 0-1.4-.467-1.4-1.4v-20.88a1.35 1.35 0 0 1 1.401-1.434c.767 0 1.468.467 1.468 1.4v6.238c1.334-1.368 3.168-2.17 5.503-2.17 5.37 0 8.373 4.403 8.373 9.406 0 5.037-3.002 9.44-8.373 9.44zm0-16c-3.335 0-5.503 2.602-5.503 6.57 0 4.003 2.168 6.604 5.503 6.604s5.504-2.602 5.504-6.604c0-3.97-2.168-6.57-5.504-6.57zm25.555 8.037h-12.34c.467 3.136 2.468 5.137 5.403 5.137 1.5 0 3.002-.533 3.97-1.734.3-.333.634-.533 1.034-.533.734 0 1.5.667 1.5 1.468 0 .4-.1.7-.8 1.4-1.5 1.468-3.57 2.235-5.704 2.235-5.37 0-8.372-4.437-8.372-9.44 0-4.97 3.002-9.406 8.372-9.406 5.437 0 8.34 4.437 8.34 9.406 0 .734-.534 1.468-1.4 1.468zm-6.937-8.038c-3.136 0-4.97 2.3-5.403 5.17H66.35c-.467-3.202-2.468-5.17-5.403-5.17zM88 1045.478c-1.834 0-2.668-1.3-2.97-1.9-1.334 1.468-3.27 2.47-5.87 2.47-5.437 0-8.372-4.47-8.372-9.44s3.002-9.406 8.372-9.406c2.335 0 4.203.834 5.504 2.202v-.134c0-.367.133-1.5 1.4-1.5.7 0 1.468.367 1.468 1.4v12.875c0 .434.3.6.467.6.935 0 1.435.667 1.435 1.434a1.37 1.37 0 0 1-1.435 1.401zm-8.84-15.443c-3.336 0-5.504 2.602-5.504 6.57 0 4.003 2.168 6.604 5.504 6.604 3.37 0 5.504-2.602 5.504-6.604 0-3.97-2.135-6.57-5.504-6.57z"/><use xlink:href="#Y"/><path d="M115.158 1045.478h-.567c-3.17 0-4.37-1.668-4.37-4.403V1030.6h-1c-.8 0-1.435-.634-1.435-1.4 0-.8.634-1.435 1.4-1.435h1v-4.637c0-.934.7-1.4 1.435-1.4s1.4.467 1.4 1.4v4.637h2.135c.934 0 1.4.768 1.4 1.4 0 .8-.533 1.434-1.4 1.434h-2.135v10.774c0 .934.333 1.268 1.268 1.268h.833c.868 0 1.435.634 1.435 1.4 0 .8-.533 1.435-1.4 1.435zm4.604-20.415a2.402 2.402 0 1 1 0-4.803 2.402 2.402 0 1 1 0 4.803zm0 20.414c-.733 0-1.467-.5-1.467-1.4V1029.2c0-.935.733-1.435 1.467-1.435a1.37 1.37 0 0 1 1.401 1.435v14.876c0 .935-.7 1.4-1.4 1.4zm10.376-14.877h-1.5v13.442c0 .935-.7 1.4-1.468 1.4-.7 0-1.4-.467-1.4-1.4V1030.6h-1.37c-.9 0-1.4-.667-1.4-1.4 0-.768.5-1.435 1.4-1.435h1.367v-2.27c0-2.135 1.77-3.77 3.836-3.77.968 0 1.468.667 1.468 1.434 0 .7-.5 1.4-1.468 1.4-.566 0-.967.434-.967.9v2.302h1.5c.967 0 1.468.667 1.468 1.435 0 .733-.5 1.4-1.468 1.4z"/><use xlink:href="#Y" x="42.068"/><path d="M154.725 1045.544c-1.802 0-3.336-1.534-3.336-3.402v-18.98c0-.967.7-1.434 1.435-1.434s1.435.467 1.435 1.4v19.013c0 .4.3.567.467.567.934 0 1.435.667 1.435 1.435 0 .733-.5 1.4-1.435 1.4zm15.37-.066v-1.264c1.886-.237 2.046-.437 2.046-3.157v-6.7c0-2.8-1.248-4.017-3.064-4.017-1.237 0-2.345.6-3.47 1.493v9.476c0 2.527.187 2.658 2.06 2.896v1.264h-8.968v-1.264c2.254-.33 2.5-.4 2.5-3v-8.2c0-2.446-.303-2.565-2.185-2.922v-1.184c2.173-.292 4.63-.807 6.653-1.533l-.052 2.95 2.6-1.745c1.16-.713 2-1.086 3.16-1.086 3.194 0 5.2 2.338 5.2 6.3v7.5c0 2.54.237 2.657 2.277 2.92v1.264h-8.74zm23.9-3.703c-2.458 3.427-5.488 4.178-7.014 4.178-5.142 0-8.124-3.936-8.124-8.594 0-2.745 1.183-5.396 2.832-7.062 1.74-1.8 3.945-2.814 6.082-2.814 3.73 0 6.396 3.126 6.37 6.347-.014.715-.08 1.277-.612 1.4-.767.184-6.17.5-10.318.647.062 4.587 2.717 6.74 5.556 6.74 1.572 0 3.104-.597 4.543-1.866l.686 1.014zm-7.07-12.7c-1.667 0-3.167 1.807-3.516 4.963l5.486-.118c.6-.026.848-.146.848-.792.04-2.022-1.037-4.053-2.818-4.053zm34.284.145c-1.943.343-2.248.624-3.105 2.765-1.33 3.462-3.102 8.53-4.934 13.94h-1.512l-4.65-11.46-4.55 11.46h-1.472l-4.685-14.192c-.687-1.985-.94-2.274-2.855-2.512v-1.25h9.397v1.25c-2.325.345-2.535.672-2.058 2.133l2.52 8.214c1.507-3.68 2.988-7.62 4.327-11.424h1.456c1.4 3.76 2.986 7.702 4.573 11.568.742-2.107 2.062-5.964 2.557-8.108.412-1.674-.008-2.078-2.753-2.383v-1.25h7.742v1.25zm9.4 3.746c-.92-2.606-2.155-3.984-4.2-3.984-1.206 0-2.225.86-2.225 2.266 0 1.497 1.046 2.264 3.16 3.216 3.278 1.496 5.3 2.787 5.3 5.736 0 3.85-3.6 5.764-6.945 5.764-2.06 0-4.088-.737-4.92-1.16l-.662-4.892 1.252-.224c.8 2.5 2.33 4.75 4.976 4.75 1.505 0 2.438-.952 2.438-2.28 0-1.423-.76-2.333-3.092-3.467-2.67-1.295-5.107-2.64-5.107-5.775 0-3.046 2.533-5.42 6.565-5.42 1.818 0 3.242.396 4.112.567l.62 4.577-1.25.328z"/></g><linearGradient id="C" gradientUnits="userSpaceOnUse" x1="355.671" y1="5.719" x2="471.585" y2="121.633"><stop offset="0" stop-color="#5433ff"/><stop offset=".105" stop-color="#4852ff"/><stop offset=".375" stop-color="#2b9fff"/><stop offset=".5" stop-color="#20bdff"/><stop offset=".695" stop-color="#10ddff"/><stop offset=".885" stop-color="#04f6ff"/><stop offset="1" stop-color="#0ff"/></linearGradient><path d="M489.936 99.14H337.32c-5.523 0-10-4.477-10-10V38.21c0-5.523 4.477-10 10-10h152.615c5.523 0 10 4.477 10 10v50.93c0 5.523-4.477 10-10 10z" fill="url(#C)"/><g class="P"><path d="M70.964 81.02c-4.38 0-10.5-1.8-13.92-4.98-.66-.6-.84-1.26-.84-1.86a2.6 2.6 0 0 1 2.58-2.58c.9 0 1.2.3 2.28 1.14 2.94 2.22 6.42 3.18 9.9 3.18 7.14 0 10.26-2.58 10.26-7.02 0-12.48-23.94-5.4-23.94-21.72 0-7.32 6.18-10.98 14.1-10.98 4.14 0 10.08 1.62 13.02 5.1.48.54.66 1.08.66 1.62 0 1.44-1.32 2.7-2.58 2.7-.9 0-1.38-.42-2.4-1.32-2.4-2.04-5.46-2.94-8.7-2.94-6.48 0-8.94 2.58-8.94 5.82 0 11.22 23.94 4.56 23.94 21.72 0 8.94-7.5 12.12-15.42 12.12z"/><use xlink:href="#Z"/><use xlink:href="#a"/><path d="M165.823 51.682l-10.92 26.28c-.54 1.38-1.44 2.04-2.58 2.04-1.02 0-1.98-.66-2.58-2.04l-10.92-26.28c-.12-.42-.18-.72-.18-1.08 0-1.44 1.32-2.46 2.64-2.46.9 0 1.8.48 2.28 1.56l8.76 21 8.76-21c.42-1.14 1.5-1.62 2.34-1.62 1.38 0 2.64.96 2.64 2.46a2.99 2.99 0 0 1-.24 1.14z"/><use xlink:href="#b"/><use xlink:href="#c"/><use xlink:href="#d"/><path d="M270.1 43.282a4.3 4.3 0 1 1 0-8.64 4.3 4.3 0 1 1 0 8.64zm0 36.72c-1.32 0-2.64-.9-2.64-2.52v-26.76c0-1.68 1.32-2.58 2.64-2.58 1.26 0 2.52.9 2.52 2.58v26.76c0 1.68-1.26 2.52-2.52 2.52z"/><use xlink:href="#e"/><path d="M345.16 80h-6.9c-1.62 0-2.52-1.26-2.52-2.52 0-1.38.9-2.58 2.52-2.58h.9v-32.52h-.9c-1.62 0-2.52-1.26-2.52-2.52 0-1.38.9-2.58 2.52-2.58h6.9c1.74 0 2.64 1.2 2.64 2.58 0 1.26-.9 2.52-2.64 2.52h-.9V74.9h.9c1.74 0 2.64 1.2 2.64 2.58 0 1.26-.9 2.52-2.64 2.52z"/><use xlink:href="#Z" x="260.696"/><use xlink:href="#Z" x="273.176"/><use xlink:href="#b" x="209.755"/><path d="M425.617 93.68c-3.66 0-12.72-1.32-12.72-4.92 0-1.38 1.26-2.7 2.58-2.7 1.38 0 .18.18 3.36 1.38 1.44.54 3.6 1.14 6.78 1.14 6.66 0 9.9-3.18 9.9-9.48v-2.7c-2.34 2.22-5.7 3.6-9.9 3.6-9.48 0-15.06-6.72-15.06-15.96 0-9 5.4-16.92 15.06-16.92 4.2 0 7.44 1.26 9.9 3.84v-.24c0-1.68 1.38-2.58 2.58-2.58 1.26 0 2.58.9 2.58 2.58V79.1c0 9.54-5.7 14.58-15.06 14.58zm0-41.458c-6 0-9.9 4.68-9.9 11.82 0 6.84 3.6 10.86 9.9 10.86s9.9-4.02 9.9-10.86c0-7.14-3.84-11.82-9.9-11.82z"/><use xlink:href="#a" x="341.993"/><use xlink:href="#Z" x="391.013"/><path d="M557.495 80c-.9 0-1.8-.48-2.28-1.56l-3.18-7.8h-19.98l-3.24 7.8c-.48 1.08-1.38 1.56-2.22 1.56-1.32 0-2.7-1.02-2.7-2.52 0-.36.06-.72.24-1.02l15.42-37.498c.72-1.56 1.68-1.86 2.46-1.86.54 0 1.86.3 2.46 1.86l15.48 37.498c.12.3.18.66.18 1.02 0 1.5-1.26 2.52-2.64 2.52zm-15.48-33.6l-7.86 19.08h15.72l-7.86-19.08z"/><use xlink:href="#Z" x="471.651"/><path d="M615.813 80c-1.26 0-2.52-.9-2.52-2.52v-18.9c0-3.48-2.88-6.36-6.3-6.36-3.54 0-6.36 2.88-6.36 6.3v18.9c0 1.68-1.2 2.58-2.58 2.58-1.32 0-2.52-.9-2.52-2.52v-18.9c0-3.48-2.88-6.36-6.36-6.36s-6.36 2.88-6.36 6.3v18.9c0 1.68-1.26 2.58-2.64 2.58-1.26 0-2.52-.9-2.52-2.52V50.66c0-1.74 1.32-2.58 2.64-2.58.84 0 1.68.36 2.16 1.14a11.56 11.56 0 0 1 6.66-2.1c3.6 0 6.84 1.62 8.94 4.26 2.1-2.64 5.28-4.26 8.88-4.26 6.36 0 11.52 5.1 11.52 11.4v18.9c0 1.68-1.26 2.58-2.64 2.58zm23.1 1.02c-9.66 0-15.06-7.92-15.06-16.98 0-9 5.4-16.92 15.06-16.92s15.06 7.92 15.06 16.92c0 9.06-5.4 16.98-15.06 16.98zm0-28.8c-6 0-9.9 4.68-9.9 11.82 0 7.2 3.9 11.88 9.9 11.88 6.06 0 9.9-4.68 9.9-11.88 0-7.14-3.84-11.82-9.9-11.82z"/><use xlink:href="#e" x="380.934"/><path d="M697.353 80h-1.02c-5.7 0-7.86-3-7.86-7.92V53.24h-1.8c-1.44 0-2.58-1.14-2.58-2.52 0-1.44 1.14-2.58 2.52-2.58h1.8V39.8c0-1.68 1.26-2.52 2.58-2.52s2.52.84 2.52 2.52v8.34h3.84c1.68 0 2.52 1.38 2.52 2.52 0 1.44-.96 2.58-2.52 2.58h-3.84v19.38c0 1.68.6 2.28 2.28 2.28h1.5c1.56 0 2.58 1.14 2.58 2.52 0 1.44-.96 2.58-2.52 2.58zm47.817 0H720.2c-1.44 0-2.64-1.14-2.64-2.52V39.862c0-1.44 1.2-2.58 2.64-2.58h24.96c1.56 0 2.52 1.14 2.52 2.52 0 1.26-.9 2.58-2.52 2.58h-22.44V54.5h15.72a2.56 2.56 0 0 1 2.58 2.58c0 1.38-1.02 2.58-2.58 2.58h-15.72V74.9h22.44c1.62 0 2.52 1.26 2.52 2.58 0 1.38-.96 2.52-2.52 2.52zm30.538-28.318l-10.92 26.28c-.54 1.38-1.44 2.04-2.58 2.04-1.02 0-1.98-.66-2.58-2.04l-10.92-26.28c-.12-.42-.18-.72-.18-1.08 0-1.44 1.32-2.46 2.64-2.46.9 0 1.8.48 2.28 1.56l8.76 21 8.76-21c.42-1.14 1.5-1.62 2.34-1.62 1.38 0 2.64.96 2.64 2.46 0 .3-.06.72-.24 1.14z"/><use xlink:href="#b" x="612.286"/><use xlink:href="#c" x="612.286"/><use xlink:href="#d" x="612.285"/><path d="M908.426 51.562l-9.3 26.34c-.48 1.32-1.32 2.1-2.64 2.1-1.26 0-1.98-.54-2.52-2.1l-7.02-19.8-7.08 19.8c-.48 1.44-1.32 2.1-2.58 2.1-1.2 0-2.04-.66-2.52-2.1l-9.24-26.34c-.12-.36-.12-.6-.12-.96 0-1.5 1.38-2.46 2.64-2.46.96 0 1.92.48 2.34 1.68l6.96 20.04 7.08-19.62c.48-1.38 1.08-2.1 2.52-2.1 1.32 0 2.04.66 2.52 2.1l7.02 19.62 7.02-20.04c.42-1.2 1.38-1.68 2.28-1.68 1.38 0 2.76 1.02 2.76 2.52 0 .3 0 .54-.12.9zM937.466 80c-1.32 0-2.52-.9-2.52-2.52V60.8c0-4.68-3.9-8.58-8.58-8.58-4.62 0-8.52 3.9-8.52 8.58v16.62c0 1.68-1.26 2.64-2.64 2.64-1.26 0-2.52-.9-2.52-2.58V39.862c0-1.74 1.26-2.58 2.52-2.58 1.38 0 2.64.84 2.64 2.52v10.38c2.22-2.1 5.22-3.06 8.52-3.06 7.44 0 13.68 6.18 13.68 13.68v16.62c0 1.68-1.2 2.58-2.58 2.58z"/><use xlink:href="#b" x="778.604"/><use xlink:href="#c" x="778.604"/><use xlink:href="#b" x="829.773"/></g><g opacity=".4" class="P"><use xlink:href="#f"/><use xlink:href="#g"/><path d="M209.28 704.71c-2.38 0-5.74-.896-5.74-1.904 0-.448.364-.896.812-.896.308 0 .952.476 1.484.672.728.252 1.876.53 3.444.53 3.584 0 5.432-1.764 5.432-5.208v-1.96c-1.232 1.484-2.996 2.38-5.432 2.38-4.424 0-7.028-3.136-7.028-7.447 0-4.2 2.52-7.896 7.028-7.896 2.436 0 4.256 1.008 5.432 2.632v-1.344c0-.504.42-.784.812-.784.364 0 .784.28.784.784v13.636c0 4.452-2.66 6.805-7.028 6.805zm0-20.133c-3.304 0-5.432 2.66-5.432 6.3 0 3.61 1.988 5.852 5.432 5.852s5.432-2.24 5.432-5.852c0-3.64-2.1-6.3-5.432-6.3z"/><use xlink:href="#h"/><use xlink:href="#f" x="55.998"/><use xlink:href="#f" x="61.57"/><path d="M260.35 684.578l-7.588 17.948c-.56 1.316-1.708 1.68-2.996 1.68h-1.232c-.504 0-.784-.42-.784-.812 0-.364.28-.784.784-.784h1.232c.616 0 1.26-.027 1.512-.672l1.596-3.808-5.796-13.553c-.056-.14-.056-.252-.056-.363 0-.448.392-.757.812-.757.252 0 .56.112.7.477l5.208 12.152 5.152-12.152c.14-.364.448-.477.728-.477.42 0 .784.31.784.757 0 .11 0 .224-.056.363z"/><use xlink:href="#h" x="49.167"/><path d="M293.334 698.803c-2.436 0-4.256-1-5.432-2.66v1.4a.78.78 0 0 1-.784.784c-.392 0-.812-.28-.812-.784v-18.367c0-.504.42-.784.812-.784.364 0 .784.28.784.784v6.44c1.176-1.624 2.996-2.632 5.432-2.632 4.508 0 7.028 3.696 7.028 7.896 0 4.228-2.52 7.924-7.028 7.924zm0-14.225c-3.332 0-5.432 2.66-5.432 6.3s2.1 6.327 5.432 6.327 5.432-2.687 5.432-6.327-2.1-6.3-5.432-6.3zm16.184 14.225c-4.508 0-7.028-3.696-7.028-7.924 0-4.2 2.52-7.896 7.028-7.896s7.028 3.696 7.028 7.896c0 4.228-2.52 7.924-7.028 7.924zm0-14.225c-3.304 0-5.432 2.66-5.432 6.3s2.128 6.327 5.432 6.327c3.332 0 5.432-2.687 5.432-6.327s-2.1-6.3-5.432-6.3z"/><use xlink:href="#f" x="138.186"/><path d="M325.7 680.77c-.896 0-1.596-.7-1.596-1.596s.7-1.597 1.596-1.597 1.596.7 1.596 1.597-.7 1.596-1.596 1.596zm0 17.556c-.392 0-.812-.252-.812-.784v-13.3c0-.504.392-.784.812-.784.364 0 .784.253.784.784v13.3c0 .505-.364.784-.784.784zm8.878.532c-1.68 0-4.508-.588-5.488-2.212-.112-.168-.112-.308-.112-.42 0-.448.392-.84.812-.84.168 0 .448.14.616.392 1.008 1.232 2.8 1.484 4.172 1.484 2.716 0 4.088-.896 4.088-2.716 0-4.23-9.184-1.988-9.184-7.6 0-2.827 2.828-3.92 5.376-3.92 1.456 0 3.696.505 4.816 1.624.168.168.252.364.252.532 0 .42-.42.84-.868.84a.74.74 0 0 1-.532-.224c-.868-.84-2.436-1.176-3.668-1.176-2.464 0-3.78.952-3.78 2.323 0 3.92 9.184 1.85 9.184 7.6 0 3.2-2.8 4.312-5.684 4.312zm20.047-.532c-.392 0-.812-.28-.812-.784v-8.176a4.77 4.77 0 0 0-4.788-4.788c-2.632 0-4.788 2.128-4.788 4.788v8.176a.78.78 0 0 1-.784.784c-.392 0-.812-.28-.812-.784v-18.367c0-.504.42-.784.812-.784.364 0 .784.28.784.784v5.964c1.176-1.372 2.884-2.156 4.788-2.156a6.44 6.44 0 0 1 6.384 6.384v8.176a.78.78 0 0 1-.784.784z"/><use xlink:href="#g" x="171.86"/><path d="M387.384 698.326c-.392 0-.812-.28-.812-.784v-1.4c-1.176 1.65-2.996 2.66-5.432 2.66-4.508 0-7.028-3.696-7.028-7.924 0-4.2 2.52-7.896 7.028-7.896 2.436 0 4.256 1.008 5.432 2.632v-6.44c0-.504.42-.784.812-.784.364 0 .784.28.784.784v18.367a.78.78 0 0 1-.784.784zm-6.244-13.748c-3.304 0-5.432 2.66-5.432 6.3s2.128 6.327 5.432 6.327c3.332 0 5.432-2.687 5.432-6.327s-2.1-6.3-5.432-6.3zM159.7 726.402c-2.436 0-4.256-1.008-5.432-2.66v1.4c0 .504-.42.784-.784.784-.392 0-.812-.28-.812-.784v-18.368c0-.504.42-.783.812-.783a.78.78 0 0 1 .784.783v6.44c1.176-1.624 2.996-2.632 5.432-2.632 4.508 0 7.028 3.695 7.028 7.896 0 4.23-2.52 7.924-7.028 7.924zm0-14.224c-3.332 0-5.432 2.66-5.432 6.3s2.1 6.328 5.432 6.328 5.432-2.687 5.432-6.328-2.1-6.3-5.432-6.3z"/><use xlink:href="#H" x="-798.692" y="512.335"/><use xlink:href="#J" x="-819.999" y="512.335"/><use xlink:href="#i"/><path d="M217.5 725.927h-.868c-2.212 0-3.304-1.092-3.304-3.276v-9.995H211.9c-.504 0-.784-.42-.784-.812 0-.364.28-.784.784-.784h1.428v-4.284c0-.504.42-.783.812-.783s.784.28.784.783v4.284h2.576c.504 0 .784.42.784.784 0 .392-.28.813-.784.813h-2.576v9.995c0 1.372.392 1.68 1.708 1.68h.868c.504 0 .784.42.784.812 0 .364-.28.784-.784.784z"/><use xlink:href="#K" x="-792.504" y="512.333"/><use xlink:href="#j"/><use xlink:href="#j" x="5.572"/><use xlink:href="#F" x="-677.316" y="512.334"/><path d="M265.928 712.43c-2.632 0-4.788 2.128-4.788 4.788v7.924c0 .504-.42.784-.784.784-.392 0-.812-.28-.812-.784v-13.3c0-.504.42-.784.812-.784.364 0 .784.28.784.784v1.148c1.26-1.372 2.912-2.156 4.788-2.156.504 0 .812.42.812.784 0 .392-.308.812-.812.812z"/><use xlink:href="#I" x="-721" y="512.335"/><path d="M296.386 724.274c-1.232 1.372-2.94 2.128-5.012 2.128-4.508 0-7.028-3.695-7.028-7.924 0-4.2 2.52-7.896 7.028-7.896 2.072 0 3.78.756 5.012 2.128a.74.74 0 0 1 .224.532c0 .42-.392.84-.812.84-.196 0-.392-.084-.588-.28-.924-1.036-2.212-1.624-3.836-1.624-3.304 0-5.432 2.66-5.432 6.3s2.128 6.328 5.432 6.328c1.624 0 2.912-.616 3.836-1.624.196-.196.392-.28.588-.28.42 0 .812.364.812.813 0 .196-.056.364-.224.56z"/><use xlink:href="#J" x="-706.02" y="512.335"/><use xlink:href="#K" x="-705.46" y="512.333"/><use xlink:href="#i" x="112.692"/><path d="M337.685 719.3h-11.62c.252 3.2 2.324 5.516 5.376 5.516 1.512 0 3.304-.672 4.116-1.932.196-.3.42-.393.672-.393.42 0 .868.336.868.757 0 .252 0 .308-.532.924-1.288 1.512-3.164 2.24-5.124 2.24-4.508 0-7.028-3.695-7.028-7.924 0-4.2 2.52-7.896 7.028-7.896s7.028 3.724 7.028 7.896c0 .42-.392.813-.784.813zm-6.244-7.112c-3.36 0-5.124 2.576-5.376 5.516h10.78c-.252-3.2-2.324-5.516-5.404-5.516zm22.43 13.75c-.392 0-.812-.28-.812-.784v-1.4c-1.176 1.65-2.996 2.66-5.432 2.66-4.508 0-7.028-3.695-7.028-7.924 0-4.2 2.52-7.896 7.028-7.896 2.436 0 4.256 1.008 5.432 2.632v-6.44c0-.504.42-.783.812-.783a.78.78 0 0 1 .784.783v18.368c0 .504-.42.784-.784.784zm-6.244-13.748c-3.304 0-5.432 2.66-5.432 6.3s2.128 6.328 5.432 6.328c3.332 0 5.432-2.687 5.432-6.328s-2.1-6.3-5.432-6.3z"/><use xlink:href="#K" x="-648.397" y="512.333"/><use xlink:href="#L" x="-663.46" y="512.335"/><path d="M386.77 716.743c-.896 0-1.624-.7-1.624-1.597s.728-1.596 1.624-1.596c.868 0 1.568.7 1.568 1.596s-.7 1.597-1.568 1.597zm0 9.184c-.896 0-1.624-.7-1.624-1.596s.728-1.597 1.624-1.597c.868 0 1.568.7 1.568 1.597s-.7 1.596-1.568 1.596z"/></g><defs ><path id="E" d="M240.65 176.656c-4.956 0-7.31-4.62-7.31-15.585s2.353-15.584 7.31-15.584 7.3 4.62 7.3 15.584-2.353 15.585-7.3 15.585zm0-28.648c-2.772 0-4.284 3.108-4.284 13.063s1.512 13.064 4.284 13.064 4.285-3.108 4.285-13.064-1.512-13.063-4.285-13.063z"/><path id="F" d="M927.06 214.068c-2.436 0-4.256-1.008-5.432-2.66v7.252c0 .504-.42.812-.784.812-.392 0-.812-.308-.812-.812v-19.152c0-.504.42-.784.812-.784.364 0 .784.28.784.784v1.372c1.176-1.624 2.996-2.632 5.432-2.632 4.508 0 7.028 3.695 7.028 7.896 0 4.23-2.52 7.924-7.028 7.924zm0-14.224c-3.332 0-5.432 2.66-5.432 6.3s2.1 6.328 5.432 6.328 5.432-2.687 5.432-6.328-2.1-6.3-5.432-6.3z"/><path id="G" d="M942.683 214.068c-4.508 0-7.028-3.695-7.028-7.924 0-4.2 2.52-7.896 7.028-7.896s7.028 3.695 7.028 7.896c0 4.23-2.52 7.924-7.028 7.924zm0-14.224c-3.304 0-5.432 2.66-5.432 6.3s2.128 6.328 5.432 6.328c3.332 0 5.432-2.687 5.432-6.328s-2.1-6.3-5.432-6.3z"/><path id="H" d="M979.922 213.592c-.392 0-.812-.28-.812-.784v-.896c-1.176 1.372-2.884 2.155-4.788 2.155-3.472 0-6.384-2.91-6.384-6.384v-8.176c0-.504.42-.784.812-.784.364 0 .784.28.784.784v8.176a4.77 4.77 0 1 0 9.576 0v-8.176c0-.504.42-.784.812-.784.364 0 .784.28.784.784v13.3c0 .504-.42.784-.784.784z"/><path id="I" d="M1003.2 213.592h-.028c-.924 0-2.24-.504-2.772-2.184-1.176 1.65-2.996 2.66-5.432 2.66-4.564 0-7.028-3.752-7.028-7.924 0-4.228 2.52-7.896 7.028-7.896 2.436 0 4.256 1.008 5.432 2.632v-1.372c0-.448.364-.784.812-.784.392 0 .784.28.784.784v11.284c0 1.792 2.016.672 2.016 2.016a.77.77 0 0 1-.812.784zm-8.232-13.748c-3.304 0-5.432 2.66-5.432 6.3s2.128 6.328 5.432 6.328c3.332 0 5.432-2.687 5.432-6.328s-2.1-6.3-5.432-6.3z"/><path id="J" d="M1010.554 213.592h-.868c-2.212 0-3.304-1.092-3.304-3.276v-9.995h-1.428c-.504 0-.784-.42-.784-.812 0-.364.28-.784.784-.784h1.428v-4.284c0-.504.42-.783.812-.783s.784.28.784.783v4.284h2.576c.504 0 .784.42.784.784 0 .392-.28.813-.784.813h-2.576v9.995c0 1.372.392 1.68 1.708 1.68h.868c.504 0 .784.42.784.812 0 .364-.28.784-.784.784z"/><path id="K" d="M1013.577 196.037c-.896 0-1.596-.7-1.596-1.597s.7-1.596 1.596-1.596 1.596.7 1.596 1.596-.7 1.597-1.596 1.597zm0 17.556c-.392 0-.812-.252-.812-.784v-13.3c0-.504.392-.784.812-.784.364 0 .784.252.784.784v13.3c0 .504-.364.784-.784.784z"/><path id="L" d="M1044.825 213.592c-.392 0-.812-.28-.812-.784v-8.176a4.77 4.77 0 0 0-4.788-4.788c-2.632 0-4.788 2.128-4.788 4.788v8.176c0 .504-.42.784-.784.784-.392 0-.812-.28-.812-.784v-13.3c0-.504.42-.784.812-.784.364 0 .784.28.784.784v.896c1.26-1.372 2.912-2.156 4.788-2.156a6.44 6.44 0 0 1 6.384 6.384v8.176c0 .504-.42.784-.784.784z"/><path id="M" d="M82.44 618.102a1.8 1.8 0 1 1 0-3.647 1.8 1.8 0 1 1 0 3.647zm0 20.063c-.448 0-.928-.288-.928-.896v-15.2c0-.576.448-.896.928-.896.416 0 .896.288.896.896v15.2c0 .575-.416.896-.896.896z"/><path id="N" d="M109.96 638.164c-.448 0-.928-.32-.928-.896v-9.344a5.45 5.45 0 0 0-5.472-5.472 5.47 5.47 0 0 0-5.471 5.472v9.344c0 .575-.48.896-.896.896-.448 0-.928-.32-.928-.896v-20.99c0-.575.48-.896.928-.896.416 0 .896.32.896.896v6.815c1.344-1.567 3.295-2.464 5.47-2.464 3.968 0 7.296 3.296 7.296 7.296v9.344c0 .575-.48.896-.896.896z"/><path id="O" d="M127.88 638.164c-.448 0-.928-.32-.928-.896v-1.024c-1.344 1.568-3.296 2.464-5.472 2.464-3.968 0-7.295-3.328-7.295-7.296v-9.343c0-.576.48-.896.928-.896.416 0 .896.32.896.896v9.343a5.45 5.45 0 1 0 10.943 0v-9.343c0-.576.48-.896.928-.896.416 0 .896.32.896.896v15.2c0 .575-.48.895-.896.895z"/><path id="P" d="M149.383 638.164h-.032c-1.056 0-2.56-.576-3.167-2.496-1.344 1.888-3.424 3.04-6.208 3.04-5.215 0-8.03-4.288-8.03-9.056 0-4.83 2.88-9.023 8.03-9.023 2.784 0 4.864 1.152 6.208 3.008v-1.567c0-.512.416-.896.928-.896.448 0 .896.32.896.896v12.895c0 2.048 2.304.77 2.304 2.305 0 .416-.288.895-.928.895zm-9.408-15.71c-3.775 0-6.208 3.04-6.208 7.2s2.432 7.23 6.208 7.23c3.808 0 6.208-3.07 6.208-7.23s-2.4-7.2-6.208-7.2z"/><path id="Q" d="M166.28 638.164c-.448 0-.928-.32-.928-.896v-9.344a5.45 5.45 0 0 0-5.472-5.472 5.47 5.47 0 0 0-5.471 5.472v9.344c0 .575-.48.896-.896.896-.448 0-.928-.32-.928-.896v-15.2c0-.576.48-.896.928-.896.416 0 .896.32.896.896v1.023c1.44-1.567 3.328-2.464 5.47-2.464 3.968 0 7.296 3.296 7.296 7.296v9.344c0 .575-.48.896-.896.896z"/><path id="R" d="M244.222 757.795a5.47 5.47 0 0 0-5.471 5.472v9.056c0 .575-.48.896-.896.896-.448 0-.928-.32-.928-.896v-15.2c0-.576.48-.896.928-.896.416 0 .896.32.896.896v1.312c1.44-1.567 3.328-2.464 5.47-2.464.576 0 .928.48.928.896 0 .447-.352.928-.928.928z"/><path id="S" d="M259.454 757.795l-5.503 5.504 5.44 8.51c.096.128.192.32.192.513 0 .447-.48.863-.96.863-.288 0-.576-.128-.768-.416l-5.248-8.16-3.295 3.328v4.384c0 .575-.48.896-.896.896-.448 0-.928-.32-.928-.896v-20.99c0-.575.48-.896.928-.896.416 0 .896.32.896.896v14.016l8.83-8.832c.224-.224.448-.288.672-.288.512 0 .928.416.928.896 0 .224-.064.448-.288.672z"/><path id="T" d="M302.014 765.635h-13.28c.288 3.647 2.656 6.303 6.144 6.303 1.728 0 3.776-.768 4.704-2.207.224-.353.48-.448.768-.448.48 0 .992.384.992.863 0 .288 0 .353-.608 1.057-1.472 1.728-3.616 2.56-5.856 2.56-5.15 0-8.03-4.224-8.03-9.056 0-4.8 2.88-9.023 8.03-9.023s8.032 4.256 8.032 9.023c0 .48-.448.93-.896.93zm-7.136-8.128c-3.84 0-5.855 2.944-6.144 6.304h12.32c-.288-3.647-2.656-6.304-6.176-6.304z"/><path id="U" d="M335.357 773.826c-1.92 0-5.15-.673-6.27-2.528-.128-.192-.128-.352-.128-.48 0-.513.448-.96.928-.96.192 0 .512.16.704.447 1.152 1.408 3.2 1.696 4.768 1.696 3.104 0 4.672-1.024 4.672-3.104 0-4.832-10.496-2.272-10.496-8.672 0-3.23 3.232-4.48 6.144-4.48 1.664 0 4.224.576 5.504 1.855.192.192.288.416.288.608 0 .48-.48.96-.992.96a.85.85 0 0 1-.608-.256c-.992-.96-2.784-1.344-4.192-1.344-2.815 0-4.32 1.088-4.32 2.655 0 4.48 10.495 2.112 10.495 8.672 0 3.647-3.2 4.928-6.496 4.928z"/><path id="V" d="M253.504 913.54c-5.15 0-8.03-4.224-8.03-9.056 0-4.8 2.88-9.023 8.03-9.023s8.032 4.225 8.032 9.023c0 4.832-2.88 9.056-8.032 9.056zm0-16.255c-3.775 0-6.208 3.04-6.208 7.2s2.432 7.23 6.208 7.23c3.808 0 6.208-3.07 6.208-7.23s-2.4-7.2-6.208-7.2z"/><path id="W" d="M911.26 1036.336a3.42 3.42 0 0 0-3.421 3.42v5.662c0 .36-.3.56-.56.56-.28 0-.58-.2-.58-.56v-9.502c0-.36.3-.56.58-.56.26 0 .56.2.56.56v.82c.9-.98 2.08-1.54 3.42-1.54.36 0 .58.3.58.56a.58.58 0 0 1-.58.58z"/><path id="X" d="M933.02 1041.236h-8.302c.18 2.28 1.66 3.94 3.84 3.94 1.08 0 2.36-.48 2.94-1.38.14-.22.3-.28.48-.28.3 0 .62.24.62.54 0 .18 0 .22-.38.658-.92 1.082-2.26 1.602-3.66 1.602-3.22 0-5.02-2.64-5.02-5.662 0-3 1.8-5.64 5.02-5.64s5.02 2.66 5.02 5.64c0 .3-.28.58-.56.58zm-4.46-5.08c-2.4 0-3.66 1.84-3.84 3.94h7.7c-.18-2.28-1.66-3.94-3.86-3.94z"/><path id="Y" d="M104.714 1045.51c-.633 0-1.267-.367-1.4-1.1-1.334 1.034-2.97 1.668-4.804 1.668-4.136 0-7.604-3.436-7.604-7.605v-9.24a1.37 1.37 0 0 1 1.4-1.435c.768 0 1.468.5 1.468 1.4v9.272c0 2.602 2.168 4.77 4.736 4.77 2.603 0 4.77-2.17 4.77-4.77v-9.24c0-1.034.667-1.468 1.4-1.468.768 0 1.435.5 1.435 1.435v14.9c0 .934-.667 1.4-1.4 1.4z"/><path id="Z" d="M97.964 80.12c-3.24 0-6-2.76-6-6.12V39.862c0-1.74 1.26-2.58 2.58-2.58s2.58.84 2.58 2.52V74c0 .72.54 1.02.84 1.02 1.68 0 2.58 1.2 2.58 2.58 0 1.32-.9 2.52-2.58 2.52z"/><path id="a" d="M134.383 80c-3.3 0-4.8-2.34-5.34-3.42-2.4 2.64-5.88 4.44-10.56 4.44-9.78 0-15.06-8.04-15.06-16.98s5.4-16.92 15.06-16.92c4.2 0 7.56 1.5 9.9 3.96v-.24c0-.66.24-2.7 2.52-2.7 1.26 0 2.64.66 2.64 2.52v23.16c0 .78.54 1.08.84 1.08 1.68 0 2.58 1.2 2.58 2.58 0 1.26-.9 2.52-2.58 2.52zm-15.9-27.78c-6 0-9.9 4.68-9.9 11.82 0 7.2 3.9 11.88 9.9 11.88 6.06 0 9.9-4.68 9.9-11.88 0-7.14-3.84-11.82-9.9-11.82z"/><path id="b" d="M194.382 66.68h-22.2c.84 5.64 4.44 9.24 9.72 9.24 2.7 0 5.4-.96 7.14-3.12.54-.6 1.14-.96 1.86-.96 1.32 0 2.7 1.2 2.7 2.64 0 .72-.18 1.26-1.44 2.52-2.7 2.64-6.42 4.02-10.26 4.02-9.66 0-15.06-7.98-15.06-16.98 0-8.94 5.4-16.92 15.06-16.92 9.78 0 15 7.98 15 16.92 0 1.32-.96 2.64-2.52 2.64zm-12.48-14.46c-5.64 0-8.94 4.14-9.72 9.3h19.44c-.84-5.76-4.44-9.3-9.72-9.3z"/><path id="c" d="M215.862 52.222c-4.62 0-8.52 3.9-8.52 8.58v16.62c0 1.68-1.26 2.58-2.64 2.58-1.26 0-2.52-.9-2.52-2.52v-26.76c0-1.68 1.38-2.58 2.52-2.58 1.2 0 2.34.66 2.58 2.04a13.88 13.88 0 0 1 8.58-3.06c1.74 0 2.64 1.2 2.64 2.58 0 1.32-.9 2.52-2.64 2.52z"/><path id="d" d="M249.162 51.742l-16.2 36.838c-1.2 2.76-3.84 4.02-6.6 4.02h-1.92c-1.74 0-2.52-1.26-2.52-2.64 0-1.26.78-2.52 2.52-2.52h1.86c.78 0 1.62-.12 1.98-.96l3.96-8.88-11.7-25.86c-.24-.42-.3-.78-.3-1.14 0-1.5 1.44-2.52 2.76-2.52.9 0 1.68.48 2.16 1.56l9.78 21.72 9.54-21.72c.48-1.08 1.38-1.5 2.22-1.5 1.38 0 2.76 1.02 2.76 2.46 0 .42-.06.72-.3 1.14z"/><path id="e" d="M289 81.02c-3.3 0-8.82-1.02-11.64-4.5-.36-.54-.54-1.08-.54-1.56 0-1.5 1.44-2.7 2.7-2.7.72 0 1.26.36 1.86 1.02 1.86 2.04 4.92 2.64 7.62 2.64 5.4 0 7.14-1.86 7.14-4.56 0-7.68-18.3-2.94-18.3-15.3 0-6.54 6.12-8.94 11.82-8.94 3.24 0 10.86 1.62 10.86 4.98 0 1.32-1.08 2.7-2.52 2.7-.54 0-1.38-.3-1.98-.78-1.62-1.38-3.96-1.8-6.36-1.8-4.98 0-6.72 1.86-6.72 3.84 0 7.14 18.36 2.52 18.36 15.3 0 7.08-5.94 9.66-12.3 9.66z"/><path id="f" d="M183.914 698.494c-1.512 0-2.772-1.4-2.772-2.968v-16.352c0-.504.42-.784.812-.784.364 0 .784.28.784.784v16.352c0 1.792 1.988.756 1.988 2.016 0 .477-.336.952-.812.952z"/><path id="g" d="M199.34 691.7h-11.62c.252 3.192 2.324 5.516 5.376 5.516 1.512 0 3.304-.672 4.116-1.932.196-.308.42-.392.672-.392.42 0 .868.336.868.756 0 .252 0 .308-.532.924-1.288 1.512-3.164 2.24-5.124 2.24-4.508 0-7.028-3.696-7.028-7.924 0-4.2 2.52-7.896 7.028-7.896s7.028 3.724 7.028 7.896a.85.85 0 0 1-.784.812zm-6.244-7.112c-3.36 0-5.124 2.576-5.376 5.517h10.78c-.252-3.192-2.324-5.517-5.404-5.517z"/><path id="h" d="M234.34 698.326h-.028c-.924 0-2.24-.504-2.772-2.184-1.176 1.65-2.996 2.66-5.432 2.66-4.564 0-7.028-3.752-7.028-7.924 0-4.23 2.52-7.896 7.028-7.896 2.436 0 4.256 1.008 5.432 2.632v-1.372c0-.447.364-.784.812-.784.392 0 .784.28.784.784v11.284c0 1.792 2.016.672 2.016 2.016a.77.77 0 0 1-.812.784zm-8.232-13.748c-3.304 0-5.432 2.66-5.432 6.3s2.128 6.327 5.432 6.327c3.332 0 5.432-2.687 5.432-6.327s-2.1-6.3-5.432-6.3z"/><path id="i" d="M204.302 726.46c-1.68 0-4.508-.588-5.488-2.212-.112-.168-.112-.31-.112-.42a.86.86 0 0 1 .812-.841c.168 0 .448.14.616.393 1.008 1.23 2.8 1.483 4.172 1.483 2.716 0 4.088-.896 4.088-2.716 0-4.228-9.184-1.987-9.184-7.588 0-2.828 2.828-3.92 5.376-3.92 1.456 0 3.696.504 4.816 1.624.168.168.252.364.252.532 0 .42-.42.84-.868.84a.74.74 0 0 1-.532-.224c-.868-.84-2.436-1.177-3.668-1.177-2.464 0-3.78.952-3.78 2.324 0 3.92 9.184 1.85 9.184 7.588 0 3.192-2.8 4.312-5.684 4.312z"/><path id="j" d="M228.045 726.095c-1.512 0-2.772-1.4-2.772-2.968v-16.353c0-.504.42-.783.812-.783a.78.78 0 0 1 .784.783v16.353c0 1.792 1.988.756 1.988 2.016 0 .477-.336.952-.812.952z"/></defs></svg>