<svg xmlns="http://www.w3.org/2000/svg" xmlns:xlink="http://www.w3.org/1999/xlink" viewBox="0 0 1080 1080"><style><![CDATA[.O{fill:#3913b2}.P{opacity:.7}.Q{opacity:.5}.R{opacity:.1}.S{stroke-miterlimit:10}.T{stroke-linejoin:round}.U{stroke-linecap:round}.V{stroke-dasharray:0 7.96881}]]></style><defs><linearGradient id="A" x1="540" x2="540" y2="1080" gradientUnits="userSpaceOnUse"><stop offset="0" stop-color="#f7d5c8"/><stop offset="1" stop-color="#c9dea7"/></linearGradient><linearGradient id="B" x1="530.623" y1="1022.112" x2="530.623" y2="165.909" gradientUnits="userSpaceOnUse"><stop offset="0" stop-color="#3914b2"/><stop offset=".5" stop-color="#2db3a5"/><stop offset="1" stop-color="#deff9c"/></linearGradient><path id="C" d="M104.714 1045.51a1.36 1.36 0 0 1-1.4-1.101 7.763 7.763 0 0 1-4.804 1.668 7.666 7.666 0 0 1-7.604-7.605v-9.24a1.434 1.434 0 0 1 2.868-.033v9.272a4.753 4.753 0 1 0 9.507 0v-9.24a1.33 1.33 0 0 1 1.4-1.468 1.364 1.364 0 0 1 1.435 1.435v14.9a1.328 1.328 0 0 1-1.401 1.4z"/><path id="D" d="M878.295 1046.337c-3.38 0-5.27-2.77-5.27-5.942 0-3.15 1.9-5.92 5.27-5.92s5.27 2.77 5.27 5.92c0 3.17-1.9 5.942-5.27 5.942zm0-10.666c-2.48 0-4.074 1.994-4.074 4.724s1.596 4.745 4.074 4.745c2.498 0 4.072-2.016 4.072-4.745s-1.574-4.724-4.072-4.724z"/><path id="E" d="M903.22 1035.86a3.589 3.589 0 0 0-3.59 3.591v5.94a.599.599 0 0 1-1.197 0v-9.973a.599.599 0 0 1 1.197 0v.86a4.796 4.796 0 0 1 3.59-1.616.598.598 0 1 1 0 1.196z"/><path id="F" d="M48.064 794.455c-2.833 0-4.177-2.64-4.177-8.906s1.344-8.904 4.177-8.904 4.176 2.64 4.176 8.904-1.344 8.906-4.176 8.906zm0-16.37c-1.585 0-2.448 1.775-2.448 7.463s.863 7.465 2.448 7.465 2.448-1.775 2.448-7.465-.864-7.463-2.448-7.463z"/><path id="G" d="M177.112 850.83a1.584 1.584 0 1 1 1.584-1.584 1.578 1.578 0 0 1-1.584 1.584zm0 13.466a.924.924 0 0 1-.968-.924v-9.813a.929.929 0 0 1 .968-.946.906.906 0 0 1 .924.946v9.813a.887.887 0 0 1-.924.924z"/><path id="H" d="M185.385 869.313c-1.342 0-4.664-.484-4.664-1.804a1.024 1.024 0 0 1 .945-.99c.507 0 .066.065 1.232.506a6.873 6.873 0 0 0 2.486.418c2.442 0 3.63-1.166 3.63-3.477v-1a5.148 5.148 0 0 1-3.631 1.32c-3.477 0-5.522-2.465-5.522-5.853 0-3.3 1.98-6.205 5.522-6.205a4.742 4.742 0 0 1 3.631 1.408v-.088a.936.936 0 0 1 .946-.946.924.924 0 0 1 .946.946v10.407c0 3.498-2.09 5.347-5.523 5.347zm0-15.204c-2.2 0-3.63 1.716-3.63 4.335 0 2.508 1.32 3.982 3.63 3.982s3.63-1.475 3.63-3.982c0-2.62-1.408-4.335-3.63-4.335z"/><path id="I" d="M210.18 854.11a3.171 3.171 0 0 0-3.125 3.146v6.095a.917.917 0 0 1-.968.946.901.901 0 0 1-.924-.924v-9.813a.932.932 0 0 1 .924-.946.903.903 0 0 1 .946.748 5.087 5.087 0 0 1 3.146-1.122.936.936 0 1 1 0 1.87z"/><path id="J" d="M226.657 864.297a2.142 2.142 0 0 1-1.959-1.254 5.042 5.042 0 0 1-3.872 1.628c-3.587 0-5.523-2.948-5.523-6.227s1.98-6.205 5.523-6.205a4.859 4.859 0 0 1 3.63 1.452v-.088a.909.909 0 0 1 .925-.99.884.884 0 0 1 .968.924v8.493a.357.357 0 0 0 .309.396.935.935 0 1 1 0 1.87zm-5.83-10.187c-2.2 0-3.63 1.716-3.63 4.335 0 2.64 1.43 4.356 3.63 4.356 2.222 0 3.63-1.717 3.63-4.356 0-2.62-1.408-4.335-3.63-4.335z"/><path id="K" d="M486.202 697.608a1.584 1.584 0 1 1 1.584-1.584 1.578 1.578 0 0 1-1.584 1.584zm0 13.466a.925.925 0 0 1-.969-.924v-9.813a.929.929 0 0 1 .969-.946.906.906 0 0 1 .924.946v9.813a.887.887 0 0 1-.924.924z"/><path id="L" d="M519.268 700.887a3.17 3.17 0 0 0-3.124 3.146v6.095a.917.917 0 0 1-.969.946.901.901 0 0 1-.924-.924v-9.813a.932.932 0 0 1 .924-.946.903.903 0 0 1 .946.748 5.089 5.089 0 0 1 3.146-1.122.936.936 0 1 1 0 1.87z"/><path id="M" d="M535.746 711.074a2.141 2.141 0 0 1-1.958-1.254 5.044 5.044 0 0 1-3.873 1.628c-3.586 0-5.522-2.948-5.522-6.227s1.98-6.205 5.522-6.205a4.863 4.863 0 0 1 3.631 1.452v-.088a.908.908 0 0 1 .924-.99.885.885 0 0 1 .969.924v8.493a.356.356 0 0 0 .308.396.935.935 0 1 1 0 1.87zm-5.83-10.187c-2.2 0-3.63 1.716-3.63 4.335 0 2.64 1.43 4.356 3.63 4.356 2.223 0 3.63-1.717 3.63-4.356 0-2.62-1.408-4.335-3.63-4.335z"/><path id="N" d="M819.466 574.404a1.585 1.585 0 1 1 1.584-1.584 1.579 1.579 0 0 1-1.584 1.584zm0 13.465a.924.924 0 0 1-.968-.924v-9.812a.929.929 0 0 1 .968-.947.907.907 0 0 1 .924.947v9.813a.887.887 0 0 1-.924.924z"/><path id="O" d="M922.117 954.63a6.355 6.355 0 0 1-5.433-2.659v7.252a.798.798 0 1 1-1.596 0V940.07a.798.798 0 0 1 1.596 0v1.372a6.403 6.403 0 0 1 5.433-2.632c4.508 0 7.027 3.695 7.027 7.895 0 4.23-2.52 7.924-7.027 7.924zm0-14.224c-3.332 0-5.433 2.66-5.433 6.3s2.1 6.328 5.433 6.328 5.432-2.687 5.432-6.328-2.1-6.3-5.432-6.3z"/><path id="P" d="M938.3 954.63c-4.508 0-7.027-3.695-7.027-7.924 0-4.2 2.52-7.895 7.027-7.895s7.028 3.695 7.028 7.895c0 4.23-2.52 7.924-7.028 7.924zm0-14.224c-3.304 0-5.432 2.66-5.432 6.3s2.128 6.328 5.432 6.328c3.332 0 5.433-2.687 5.433-6.328s-2.1-6.3-5.433-6.3z"/><path id="Q" d="M292.1 1018.25a2.145 2.145 0 0 1-1.959-1.254 5.045 5.045 0 0 1-3.872 1.627c-3.587 0-5.522-2.947-5.522-6.227s1.98-6.205 5.522-6.205a4.86 4.86 0 0 1 3.63 1.453v-.088a.908.908 0 0 1 .925-.99.884.884 0 0 1 .968.924v8.492a.356.356 0 0 0 .309.396.936.936 0 1 1 0 1.871zm-5.83-10.187c-2.2 0-3.63 1.715-3.63 4.334 0 2.64 1.43 4.357 3.63 4.357 2.222 0 3.63-1.717 3.63-4.357 0-2.62-1.408-4.334-3.63-4.334z"/><path id="R" d="M752.206 510.84a2.141 2.141 0 0 1-1.958-1.254 5.044 5.044 0 0 1-3.873 1.628c-3.586 0-5.523-2.948-5.523-6.227s1.98-6.205 5.523-6.205a4.863 4.863 0 0 1 3.631 1.452v-.088a.908.908 0 0 1 .924-.99.885.885 0 0 1 .969.924v8.493a.356.356 0 0 0 .308.396.935.935 0 1 1 0 1.87zm-5.83-10.187c-2.2 0-3.63 1.716-3.63 4.335 0 2.64 1.43 4.356 3.63 4.356 2.223 0 3.63-1.717 3.63-4.356 0-2.62-1.408-4.335-3.63-4.335z"/><path id="S" d="M756.385 510.883a2.245 2.245 0 0 1-2.201-2.244v-12.52a.946.946 0 0 1 1.893-.022v12.542a.348.348 0 0 0 .309.374.935.935 0 1 1 0 1.87z"/><path id="T" d="M379.28 837.19c-3.543 0-5.523-2.904-5.523-6.227 0-3.3 1.98-6.205 5.523-6.205s5.522 2.904 5.522 6.205c0 3.322-1.98 6.227-5.522 6.227zm0-10.562c-2.2 0-3.63 1.716-3.63 4.335 0 2.64 1.43 4.356 3.63 4.356 2.222 0 3.63-1.717 3.63-4.356 0-2.62-1.408-4.335-3.63-4.335z"/><path id="U" d="M400.332 823.35a1.584 1.584 0 1 1 1.584-1.584 1.577 1.577 0 0 1-1.584 1.584zm0 13.466a.925.925 0 0 1-.969-.924v-9.813a.929.929 0 0 1 .969-.946.906.906 0 0 1 .924.946v9.813a.887.887 0 0 1-.924.924z"/><path id="V" d="M414.436 836.817a2.142 2.142 0 0 1-1.959-1.254 5.042 5.042 0 0 1-3.872 1.628c-3.587 0-5.522-2.948-5.522-6.227s1.98-6.205 5.522-6.205a4.859 4.859 0 0 1 3.63 1.452v-.088a.909.909 0 0 1 .925-.99.884.884 0 0 1 .968.924v8.493a.357.357 0 0 0 .309.396.935.935 0 1 1 0 1.87zm-5.83-10.187c-2.2 0-3.63 1.716-3.63 4.335 0 2.64 1.43 4.356 3.63 4.356 2.222 0 3.63-1.717 3.63-4.356 0-2.62-1.408-4.335-3.63-4.335z"/><path id="W" d="M614.334 913.348a.888.888 0 0 1-.924-.924v-6.117a3.136 3.136 0 1 0-6.271 0v6.095a.935.935 0 0 1-.968.969.906.906 0 0 1-.924-.946v-9.836a.875.875 0 0 1 .924-.924.92.92 0 0 1 .946.726 5.026 5.026 0 0 1 8.163 3.917v6.095a.9.9 0 0 1-.946.946z"/><path id="X" d="M640.954 913.348a2.142 2.142 0 0 1-1.958-1.254 5.044 5.044 0 0 1-3.873 1.628c-3.586 0-5.522-2.948-5.522-6.227s1.98-6.205 5.522-6.205a4.86 4.86 0 0 1 3.631 1.452v-.088a.908.908 0 0 1 .924-.99.885.885 0 0 1 .969.924v8.493a.356.356 0 0 0 .308.396.935.935 0 1 1 0 1.87zm-5.83-10.187c-2.2 0-3.63 1.716-3.63 4.335 0 2.64 1.43 4.356 3.63 4.356 2.223 0 3.63-1.717 3.63-4.356 0-2.62-1.408-4.335-3.63-4.335z"/><path id="Y" d="M829.71 311.9a2.142 2.142 0 0 1-1.958-1.254 5.044 5.044 0 0 1-3.873 1.628c-3.586 0-5.522-2.948-5.522-6.227s1.98-6.205 5.522-6.205a4.863 4.863 0 0 1 3.631 1.452v-.088a.908.908 0 0 1 .924-.99.885.885 0 0 1 .969.924v8.493a.356.356 0 0 0 .308.396.935.935 0 1 1 0 1.87zm-5.83-10.187c-2.2 0-3.63 1.716-3.63 4.335 0 2.64 1.43 4.356 3.63 4.356 2.223 0 3.63-1.717 3.63-4.356 0-2.62-1.408-4.335-3.63-4.335z"/><path id="Z" d="M291.13 489.706a.897.897 0 0 1-.924-.727 5.124 5.124 0 0 1-3.169 1.101 5.058 5.058 0 0 1-5.017-5.018v-6.095a.946.946 0 0 1 1.893-.021v6.116a3.135 3.135 0 1 0 6.271 0v-6.095a.878.878 0 0 1 .925-.968.9.9 0 0 1 .946.946v9.835a.877.877 0 0 1-.925.925z"/><path id="a" d="M323.865 489.706a.898.898 0 0 1-.925-.727 5.123 5.123 0 0 1-3.168 1.101 5.057 5.057 0 0 1-5.017-5.018v-6.095a.946.946 0 0 1 1.893-.021v6.116a3.135 3.135 0 1 0 6.271 0v-6.095a.877.877 0 0 1 .924-.968.9.9 0 0 1 .946.946v9.835a.877.877 0 0 1-.924.925z"/><path id="b" d="M330.706 490.057a5.791 5.791 0 0 1-4.269-1.65.974.974 0 0 1 .792-1.562.906.906 0 0 1 .683.374 3.755 3.755 0 0 0 2.794.969c1.98 0 2.62-.683 2.62-1.672 0-2.816-6.71-1.08-6.71-5.61 0-2.398 2.244-3.278 4.334-3.278 1.188 0 3.982.594 3.982 1.826a.987.987 0 0 1-.924.99 1.329 1.329 0 0 1-.727-.286 3.568 3.568 0 0 0-2.332-.66c-1.826 0-2.464.682-2.464 1.408 0 2.618 6.732.924 6.732 5.61 0 2.596-2.178 3.542-4.51 3.542z"/><path id="c" d="M338.063 670.36c-3.542 0-5.522-2.904-5.522-6.227 0-3.3 1.98-6.205 5.522-6.205s5.523 2.904 5.523 6.205c0 3.322-1.98 6.227-5.523 6.227zm0-10.562c-2.2 0-3.63 1.716-3.63 4.335 0 2.64 1.43 4.356 3.63 4.356 2.223 0 3.63-1.717 3.63-4.356 0-2.62-1.408-4.335-3.63-4.335z"/><path id="d" d="M354.277 668.688a5.112 5.112 0 0 1-3.938 1.672c-3.543 0-5.523-2.904-5.523-6.227 0-3.3 1.98-6.205 5.523-6.205a5.112 5.112 0 0 1 3.938 1.672.96.96 0 0 1 .264.639 1.026 1.026 0 0 1-.99.946 1.043 1.043 0 0 1-.682-.309 3.235 3.235 0 0 0-2.53-1.078c-2.2 0-3.63 1.716-3.63 4.335 0 2.64 1.43 4.356 3.63 4.356a3.273 3.273 0 0 0 2.53-1.078.878.878 0 0 1 .682-.33.95.95 0 0 1 .727 1.606z"/><path id="e" d="M600.9 268.5a3.171 3.171 0 0 0-3.125 3.146v6.096a.917.917 0 0 1-.969.945.901.901 0 0 1-.924-.924v-9.812a.932.932 0 0 1 .924-.947.903.903 0 0 1 .947.748 5.09 5.09 0 0 1 3.146-1.121.935.935 0 1 1 0 1.869z"/><path id="f" d="M603.276 265.213a1.585 1.585 0 1 1 1.584-1.584 1.578 1.578 0 0 1-1.584 1.584zm0 13.465a.925.925 0 0 1-.969-.924v-9.812a.93.93 0 0 1 .969-.947.907.907 0 0 1 .924.947v9.813a.887.887 0 0 1-.924.924z"/><path id="g" d="M524.432 345.502a2.14 2.14 0 0 1-1.958-1.254 5.039 5.039 0 0 1-3.872 1.629c-3.587 0-5.523-2.95-5.523-6.227s1.98-6.205 5.523-6.205a4.862 4.862 0 0 1 3.63 1.451v-.088a.908.908 0 0 1 .925-.99.885.885 0 0 1 .968.924v8.494a.357.357 0 0 0 .308.396.935.935 0 1 1 0 1.869zm-5.83-10.187c-2.2 0-3.63 1.717-3.63 4.336 0 2.64 1.43 4.355 3.63 4.355 2.222 0 3.63-1.717 3.63-4.355 0-2.62-1.408-4.336-3.63-4.336z"/><path id="h" d="M122.584 664.826h-9.153a.954.954 0 0 1-.968-.924v-13.796a.958.958 0 0 1 .968-.946h9.153a.89.89 0 0 1 .925.924.919.919 0 0 1-.925.946h-8.23v4.444h5.765a.94.94 0 0 1 .946.946.926.926 0 0 1-.946.946h-5.765v5.59h8.23a.906.906 0 0 1 .925.946.89.89 0 0 1-.925.924z"/><path id="i" d="M164.71 664.826h-.374c-2.1 0-2.882-1.1-2.882-2.904v-6.91h-.66a.935.935 0 1 1-.022-1.87h.66v-3.06a.893.893 0 0 1 .946-.924.876.876 0 0 1 .924.924v3.06h1.408a.913.913 0 0 1 .925.924.895.895 0 0 1-.925.946h-1.408v7.107c0 .616.22.836.837.836h.55a.908.908 0 0 1 .946.924.895.895 0 0 1-.925.946z"/><path id="j" d="M981.17 444.78c-3.542 0-5.522-2.904-5.522-6.227 0-3.3 1.98-6.205 5.522-6.205s5.522 2.904 5.522 6.205c0 3.322-1.98 6.227-5.522 6.227zm0-10.562c-2.2 0-3.63 1.716-3.63 4.335 0 2.64 1.43 4.356 3.63 4.356 2.222 0 3.63-1.717 3.63-4.356 0-2.62-1.408-4.335-3.63-4.335z"/><path id="k" d="M474.815 375.242l-5.94 13.5a2.523 2.523 0 0 1-2.421 1.475h-.704a.888.888 0 0 1-.924-.969.875.875 0 0 1 .924-.924h.683c.286 0 .594-.044.726-.353l1.452-3.256-4.3-9.483a.796.796 0 0 1-.11-.418.992.992 0 0 1 1.012-.925.849.849 0 0 1 .793.572l3.586 7.966 3.5-7.966a.871.871 0 0 1 .813-.55.975.975 0 0 1 1.013.902.75.75 0 0 1-.11.418z"/><path id="l" d="M177.464 588.645a3.17 3.17 0 0 0-3.124 3.146v6.095a.918.918 0 0 1-.969.946.901.901 0 0 1-.924-.924v-9.813a.932.932 0 0 1 .924-.946.903.903 0 0 1 .946.748 5.089 5.089 0 0 1 3.146-1.122.936.936 0 1 1 0 1.87z"/><path id="m" d="M423.178 432.348a8.283 8.283 0 0 1-5.105-1.826.879.879 0 0 1-.308-.683.953.953 0 0 1 .946-.945c.33 0 .44.11.836.418a5.96 5.96 0 0 0 3.631 1.166c2.618 0 3.762-.946 3.762-2.574 0-4.577-8.78-1.98-8.78-7.966 0-2.684 2.268-4.026 5.172-4.026a6.752 6.752 0 0 1 4.773 1.87.866.866 0 0 1 .242.595 1.025 1.025 0 0 1-.945.99c-.33 0-.506-.154-.88-.484a4.832 4.832 0 0 0-3.189-1.078c-2.377 0-3.28.946-3.28 2.134 0 4.115 8.78 1.673 8.78 7.966 0 3.278-2.75 4.444-5.654 4.444z"/><path id="n" d="M450.458 431.974a.9.9 0 0 1-.836-.572l-1.167-2.86h-7.326l-1.188 2.86a.893.893 0 0 1-.813.572.972.972 0 0 1-.99-.924.716.716 0 0 1 .088-.374l5.654-13.752a.961.961 0 0 1 .902-.683 1 1 0 0 1 .902.683l5.677 13.752a1.023 1.023 0 0 1 .065.374.938.938 0 0 1-.968.924zm-5.677-12.322l-2.883 6.997h5.766z"/><path id="o" d="M455.227 422.16h-1v8.867a.899.899 0 0 1-.969.924.888.888 0 0 1-.924-.924v-8.867h-.902a.935.935 0 0 1 0-1.87h.902v-1.496a2.507 2.507 0 0 1 2.531-2.486.936.936 0 1 1 0 1.87.616.616 0 0 0-.639.594v1.52h1a.936.936 0 1 1 0 1.87z"/><path id="p" d="M476.897 430.677a5.108 5.108 0 0 1-3.937 1.672c-3.543 0-5.523-2.904-5.523-6.227 0-3.3 1.98-6.205 5.523-6.205a5.108 5.108 0 0 1 3.938 1.672.957.957 0 0 1 .265.639 1.025 1.025 0 0 1-.99.946 1.045 1.045 0 0 1-.683-.309 3.231 3.231 0 0 0-2.529-1.078c-2.2 0-3.63 1.716-3.63 4.335 0 2.64 1.43 4.356 3.63 4.356a3.27 3.27 0 0 0 2.529-1.078.881.881 0 0 1 .683-.33.949.949 0 0 1 .726 1.606z"/><path id="q" d="M489.502 431.974a2.14 2.14 0 0 1-1.957-1.254 5.044 5.044 0 0 1-3.873 1.628c-3.586 0-5.523-2.948-5.523-6.227s1.98-6.205 5.523-6.205a4.863 4.863 0 0 1 3.631 1.452v-.088a.908.908 0 0 1 .924-.99.885.885 0 0 1 .969.924v8.493a.356.356 0 0 0 .307.396.935.935 0 1 1 0 1.87zm-5.83-10.187c-2.2 0-3.63 1.716-3.63 4.335 0 2.64 1.43 4.356 3.63 4.356 2.223 0 3.63-1.717 3.63-4.356 0-2.62-1.408-4.335-3.63-4.335z"/><path id="r" d="M179.432 988.528h-8.14a3.565 3.565 0 0 0 3.564 3.389 3.302 3.302 0 0 0 2.618-1.145.913.913 0 0 1 .683-.352 1.026 1.026 0 0 1 .99.968c0 .265-.066.462-.528.924a5.36 5.36 0 0 1-3.763 1.475c-3.543 0-5.523-2.927-5.523-6.227 0-3.278 1.98-6.205 5.523-6.205 3.586 0 5.5 2.927 5.5 6.205a.939.939 0 0 1-.925.968zm-4.576-5.303a3.608 3.608 0 0 0-3.564 3.41h7.13c-.31-2.112-1.63-3.4-3.564-3.4z"/><path id="s" d="M640.465 852.757h-8.142a3.564 3.564 0 0 0 3.564 3.389 3.302 3.302 0 0 0 2.618-1.145.911.911 0 0 1 .682-.352 1.026 1.026 0 0 1 .99.968c0 .265-.065.462-.527.924a5.36 5.36 0 0 1-3.763 1.475c-3.542 0-5.522-2.927-5.522-6.227 0-3.278 1.98-6.205 5.522-6.205 3.587 0 5.5 2.927 5.5 6.205a.938.938 0 0 1-.924.968zm-4.577-5.303a3.608 3.608 0 0 0-3.564 3.41h7.13c-.308-2.112-1.628-3.4-3.564-3.4z"/><path id="t" d="M757.86 254.972a5.207 5.207 0 0 1-3.631-1.32.899.899 0 0 1-.968.924.887.887 0 0 1-.924-.924v-13.773a.946.946 0 0 1 1.892-.022v4.114a4.889 4.889 0 0 1 3.631-1.43c3.542 0 5.522 2.904 5.522 6.205 0 3.322-1.98 6.227-5.522 6.227zm0-10.562c-2.2 0-3.63 1.716-3.63 4.335 0 2.64 1.43 4.356 3.63 4.356s3.63-1.717 3.63-4.356c0-2.62-1.43-4.335-3.63-4.335z"/><path id="u" d="M189.28 66.68h-22.2c.84 5.64 4.44 9.24 9.72 9.24a9.004 9.004 0 0 0 7.139-3.119 2.486 2.486 0 0 1 1.86-.961 2.8 2.8 0 0 1 2.7 2.641c0 .72-.18 1.26-1.44 2.52a14.621 14.621 0 0 1-10.26 4.02c-9.66 0-15.06-7.98-15.06-16.98 0-8.94 5.4-16.92 15.06-16.92 9.78 0 15 7.98 15 16.92a2.558 2.558 0 0 1-2.52 2.64zm-12.48-14.46c-5.64 0-8.94 4.14-9.72 9.3h19.44c-.84-5.76-4.44-9.3-9.72-9.3z"/><path id="v" d="M642.263 52.22a8.645 8.645 0 0 0-8.521 8.58v16.62a2.501 2.501 0 0 1-2.64 2.58 2.457 2.457 0 0 1-2.52-2.52V50.72a2.542 2.542 0 0 1 2.52-2.58 2.463 2.463 0 0 1 2.58 2.041 13.875 13.875 0 0 1 8.58-3.061 2.551 2.551 0 1 1 0 5.1z"/><path id="w" d="M648.742 43.28a4.32 4.32 0 1 1 4.319-4.319 4.302 4.302 0 0 1-4.319 4.319zm0 36.72a2.52 2.52 0 0 1-2.64-2.52V50.72a2.533 2.533 0 0 1 2.64-2.58 2.472 2.472 0 0 1 2.52 2.58v26.76a2.42 2.42 0 0 1-2.52 2.52z"/></defs><rect width="1080" height="1080" rx="40" fill="url(#A)"/><g class="O Q"><path d="M42.328 1046.045a7.892 7.892 0 0 1-5.503-2.002 1.364 1.364 0 0 1-1.468 1.401 1.346 1.346 0 0 1-1.401-1.401v-20.88a1.435 1.435 0 0 1 2.869-.033v6.238a7.4 7.4 0 0 1 5.503-2.169c5.37 0 8.373 4.403 8.373 9.406 0 5.037-3.002 9.44-8.373 9.44zm0-16c-3.335 0-5.503 2.602-5.503 6.57 0 4.003 2.168 6.604 5.503 6.604s5.504-2.602 5.504-6.604c0-3.97-2.168-6.57-5.504-6.57zm25.555 8.037h-12.34c.467 3.136 2.468 5.137 5.403 5.137a5.003 5.003 0 0 0 3.969-1.734 1.383 1.383 0 0 1 1.034-.533 1.556 1.556 0 0 1 1.501 1.468c0 .4-.1.7-.8 1.4a8.129 8.129 0 0 1-5.704 2.235c-5.37 0-8.372-4.437-8.372-9.44 0-4.97 3.002-9.406 8.372-9.406 5.437 0 8.34 4.437 8.34 9.406a1.422 1.422 0 0 1-1.401 1.468zm-6.937-8.038c-3.136 0-4.97 2.3-5.403 5.17H66.35c-.467-3.202-2.468-5.17-5.403-5.17zM88 1045.478a3.247 3.247 0 0 1-2.969-1.901 7.642 7.642 0 0 1-5.87 2.469c-5.437 0-8.372-4.47-8.372-9.44s3.002-9.406 8.372-9.406a7.369 7.369 0 0 1 5.504 2.202v-.134a1.376 1.376 0 0 1 1.4-1.501 1.341 1.341 0 0 1 1.468 1.401v12.875a.54.54 0 0 0 .467.601 1.418 1.418 0 1 1 0 2.835zm-8.84-15.443c-3.336 0-5.504 2.602-5.504 6.57 0 4.003 2.168 6.604 5.504 6.604 3.37 0 5.504-2.602 5.504-6.604 0-3.97-2.135-6.57-5.504-6.57z"/><use xlink:href="#C"/><path d="M115.158 1045.478h-.567c-3.17 0-4.37-1.668-4.37-4.403V1030.6h-1a1.418 1.418 0 1 1-.033-2.835h1v-4.637a1.355 1.355 0 0 1 1.435-1.4 1.328 1.328 0 0 1 1.401 1.4v4.637h2.135a1.383 1.383 0 0 1 1.4 1.401 1.356 1.356 0 0 1-1.4 1.434h-2.135v10.774c0 .934.333 1.268 1.268 1.268h.833a1.376 1.376 0 0 1 1.435 1.4 1.357 1.357 0 0 1-1.4 1.435zm4.604-20.415a2.401 2.401 0 1 1 2.402-2.401 2.392 2.392 0 0 1-2.402 2.401zm0 20.414a1.4 1.4 0 0 1-1.467-1.401V1029.2a1.408 1.408 0 0 1 1.467-1.435 1.374 1.374 0 0 1 1.401 1.435v14.876a1.346 1.346 0 0 1-1.401 1.401zm10.376-14.877h-1.5v13.442a1.364 1.364 0 0 1-1.468 1.401 1.346 1.346 0 0 1-1.401-1.401V1030.6h-1.37a1.418 1.418 0 0 1 0-2.835h1.367v-2.27a3.801 3.801 0 0 1 3.836-3.769 1.418 1.418 0 1 1 0 2.835.934.934 0 0 0-.967.9v2.302h1.5a1.418 1.418 0 1 1 0 2.835z"/><use xlink:href="#C" x="42.068"/><path d="M154.725 1045.544a3.403 3.403 0 0 1-3.336-3.402v-18.98a1.435 1.435 0 0 1 2.869-.033v19.013a.527.527 0 0 0 .467.567 1.418 1.418 0 1 1 0 2.835zm15.37-.066v-1.264c1.886-.237 2.046-.437 2.046-3.157v-6.7c0-2.8-1.248-4.017-3.064-4.017a5.597 5.597 0 0 0-3.47 1.493v9.476c0 2.527.187 2.658 2.06 2.896v1.264h-8.968v-1.264c2.254-.33 2.5-.4 2.5-3v-8.2c0-2.446-.303-2.565-2.185-2.922v-1.184a34.101 34.101 0 0 0 6.653-1.533l-.052 2.95 2.6-1.745a5.659 5.659 0 0 1 3.159-1.086c3.194 0 5.2 2.338 5.2 6.3v7.5c0 2.54.237 2.657 2.277 2.92v1.264zm23.9-3.703c-2.458 3.427-5.488 4.178-7.014 4.178-5.142 0-8.124-3.936-8.124-8.594a10.333 10.333 0 0 1 2.832-7.062 8.602 8.602 0 0 1 6.082-2.814 6.386 6.386 0 0 1 6.37 6.347c-.014.715-.08 1.277-.612 1.4-.767.184-6.17.5-10.318.647.062 4.587 2.717 6.74 5.556 6.74a6.776 6.776 0 0 0 4.543-1.866zm-7.07-12.7c-1.667 0-3.167 1.807-3.516 4.963l5.486-.118c.6-.026.848-.146.848-.792.04-2.022-1.037-4.053-2.818-4.053zm34.284.145c-1.943.343-2.248.624-3.105 2.765-1.33 3.462-3.102 8.53-4.934 13.94h-1.512l-4.65-11.46-4.55 11.46h-1.472l-4.685-14.192c-.687-1.985-.94-2.274-2.855-2.512v-1.25h9.397v1.25c-2.325.345-2.535.672-2.058 2.133l2.52 8.214c1.507-3.68 2.988-7.62 4.327-11.424h1.456c1.4 3.76 2.986 7.702 4.573 11.568.742-2.107 2.062-5.964 2.557-8.108.412-1.674-.008-2.078-2.753-2.383v-1.25h7.742zm9.4 3.746c-.92-2.606-2.155-3.984-4.2-3.984a2.166 2.166 0 0 0-2.225 2.266c0 1.497 1.046 2.264 3.16 3.216 3.278 1.496 5.3 2.787 5.3 5.736 0 3.85-3.6 5.764-6.945 5.764a12.073 12.073 0 0 1-4.92-1.161l-.662-4.892 1.252-.224c.8 2.5 2.33 4.75 4.976 4.75a2.231 2.231 0 0 0 2.438-2.281c0-1.423-.76-2.333-3.092-3.467-2.67-1.295-5.107-2.64-5.107-5.775 0-3.046 2.533-5.42 6.565-5.42a18.751 18.751 0 0 1 4.112.567l.62 4.577z"/></g><g class="O"><path d="M867.04 1046.378c-1.26 0-3.38-.44-4.115-1.658a.506.506 0 0 1-.084-.314.572.572 0 0 1 1.07-.336 4.001 4.001 0 0 0 3.129 1.112c2.037 0 3.065-.672 3.065-2.036 0-3.17-6.887-1.49-6.887-5.7 0-2.12 2.12-2.94 4.03-2.94a5.689 5.689 0 0 1 3.611 1.218.587.587 0 0 1 .188.398.681.681 0 0 1-.65.631.558.558 0 0 1-.398-.168 4.195 4.195 0 0 0-2.751-.883c-1.848 0-2.835.715-2.835 1.743 0 2.94 6.887 1.386 6.887 5.7 0 2.393-2.1 3.232-4.262 3.232z"/><use xlink:href="#D"/><path d="M894.862 1045.98a.59.59 0 0 1-.608-.588v-.672a4.665 4.665 0 0 1-3.591 1.617 4.84 4.84 0 0 1-4.787-4.787v-6.13a.598.598 0 0 1 1.196 0v6.13a3.591 3.591 0 0 0 7.182 0v-6.13a.598.598 0 0 1 1.196 0v9.973a.586.586 0 0 1-.588.588z"/><use xlink:href="#E"/><path d="M913.9 1044.74a4.878 4.878 0 0 1-3.759 1.596c-3.38 0-5.27-2.77-5.27-5.942 0-3.15 1.9-5.92 5.27-5.92a4.875 4.875 0 0 1 3.759 1.596.557.557 0 0 1 .168.398.658.658 0 0 1-.608.631.618.618 0 0 1-.441-.211 3.703 3.703 0 0 0-2.877-1.217c-2.477 0-4.072 1.994-4.072 4.724s1.596 4.745 4.072 4.745a3.773 3.773 0 0 0 2.877-1.218.616.616 0 0 1 .441-.21.624.624 0 0 1 .608.609.603.603 0 0 1-.168.42zm12.158-3.737h-8.713c.188 2.395 1.742 4.137 4.03 4.137a3.795 3.795 0 0 0 3.086-1.449.55.55 0 0 1 .504-.293.642.642 0 0 1 .65.566c0 .2 0 .23-.398.693a4.961 4.961 0 0 1-3.842 1.68c-3.38 0-5.27-2.77-5.27-5.942 0-3.15 1.9-5.92 5.27-5.92s5.27 2.793 5.27 5.92a.635.635 0 0 1-.588.608zm-4.682-5.332c-2.52 0-3.843 1.932-4.03 4.136h8.083c-.188-2.394-1.743-4.136-4.052-4.136zm8.862 3.422a1.197 1.197 0 1 1 0-2.394 1.197 1.197 0 0 1 0 2.394zm0 6.887a1.197 1.197 0 1 1 0-2.394 1.197 1.197 0 0 1 0 2.394zm24.232-14.194l-3.695 13.752a.581.581 0 0 1-.588.441.559.559 0 0 1-.567-.441l-3.148-11.63-3.13 11.63a.557.557 0 0 1-.566.441.581.581 0 0 1-.588-.441l-3.695-13.752a.569.569 0 0 1-.021-.189.609.609 0 0 1 .609-.608.523.523 0 0 1 .545.462l3.15 11.632 3.128-11.632a.556.556 0 0 1 .567-.42.564.564 0 0 1 .588.42l3.128 11.632 3.15-11.632a.552.552 0 0 1 .546-.462.608.608 0 0 1 .608.608.594.594 0 0 1-.021.189z"/><use xlink:href="#D" x="83.033"/><use xlink:href="#E" x="70.665"/><path d="M978.107 1046.105a2.201 2.201 0 0 1-2.079-2.226v-12.262a.599.599 0 0 1 1.197 0v12.262c0 1.344 1.5.566 1.5 1.512a.677.677 0 0 1-.608.714zm11.99-.125a.591.591 0 0 1-.609-.588v-1.05a4.76 4.76 0 0 1-4.072 1.995c-3.38 0-5.27-2.77-5.27-5.942 0-3.15 1.9-5.92 5.27-5.92a4.798 4.798 0 0 1 4.072 1.974v-4.83a.599.599 0 0 1 1.197 0v13.773a.585.585 0 0 1-.588.588zm-4.682-10.3c-2.48 0-4.074 1.994-4.074 4.724s1.596 4.745 4.074 4.745c2.498 0 4.072-2.016 4.072-4.745s-1.574-4.724-4.072-4.724zm20.086 10.3h-6.1a.635.635 0 0 1-.608-.588v-13.773a.519.519 0 0 1 .545-.588h5.7a3.795 3.795 0 0 1 3.779 3.737 3.643 3.643 0 0 1-1.491 3.003 4.303 4.303 0 0 1-1.826 8.209zm-.462-13.773h-5.04v5.165h5.04a2.583 2.583 0 1 0 0-5.165zm.462 6.36h-5.5v6.215h5.5a3.107 3.107 0 1 0 0-6.215zm17.797 7.413h-.02a2.173 2.173 0 0 1-2.078-1.638 4.765 4.765 0 0 1-4.074 1.995c-3.422 0-5.27-2.814-5.27-5.942 0-3.17 1.9-5.92 5.27-5.92a4.803 4.803 0 0 1 4.074 1.974v-1.028a.591.591 0 0 1 .608-.588.573.573 0 0 1 .588.588v8.46c0 1.344 1.512.504 1.512 1.512a.577.577 0 0 1-.608.588zm-6.174-10.3c-2.477 0-4.072 1.994-4.072 4.724s1.596 4.745 4.072 4.745c2.5 0 4.074-2.016 4.074-4.745s-1.575-4.724-4.074-4.724zm17.682 10.3a.59.59 0 0 1-.609-.588v-6.13a3.59 3.59 0 0 0-7.181 0v6.13a.598.598 0 0 1-1.196 0v-9.973a.598.598 0 0 1 1.196 0v.672a4.79 4.79 0 0 1 8.378 3.17v6.13a.586.586 0 0 1-.588.588zm11.235-10.12l-3.6 3.6 3.57 5.585a.598.598 0 0 1 .125.336.637.637 0 0 1-.629.566.593.593 0 0 1-.504-.272l-3.443-5.354-2.163 2.184v2.877a.598.598 0 0 1-1.196 0v-13.774a.598.598 0 0 1 1.196 0v9.196l5.795-5.795a.587.587 0 0 1 .44-.188.605.605 0 0 1 .609.588.588.588 0 0 1-.189.44z"/></g><g fill="none" stroke="#000" stroke-width="2"><path d="M34 976.663h1012" class="R S"/><path d="M34 803.9h1012" class="R T"/><path d="M34 631.138h1012" class="R S"/><path d="M34 458.374h1012" class="R T"/><path d="M34 285.613h1012" class="R S"/></g><g class="Q"><path d="M34.48 953.105c.192-2.04 1.297-3.695 3.528-3.695 1.944 0 3.864 1.344 3.864 4.225 0 2.447-1.008 3.84-2.256 4.08v.047c1.944.648 2.544 2.473 2.544 4.32 0 3.553-2.063 5.137-4.224 5.137-2.305 0-3.864-1.848-3.9-4.367h1.584c.145 1.87.96 2.928 2.496 2.928 1.152 0 2.305-1.248 2.305-3.625 0-2.855-1.2-3.672-3.937-3.672v-1.44c2.592 0 3.648-.625 3.648-3.312 0-2.064-.816-2.88-2.017-2.88-1.488 0-2.016 1.248-2.063 2.447zm13.103 14.115c-2.832 0-4.177-2.64-4.177-8.904s1.345-8.904 4.177-8.904 4.177 2.64 4.177 8.904-1.345 8.904-4.177 8.904zm0-16.37c-1.584 0-2.448 1.775-2.448 7.465s.864 7.465 2.448 7.465 2.448-1.777 2.448-7.465-.864-7.465-2.448-7.465z"/><path d="M41.367 776.885v11.953h1.8v1.44h-1.8v3.938H39.64v-3.937h-5.545v-.814l4.753-12.578zm-5.64 11.953h3.913v-10.37h-.048z"/><use xlink:href="#F"/><path d="M35.487 617.42c.144 1.248.672 2.832 2.208 2.832 1.488 0 2.592-1.535 2.592-4.535 0-3.24-1.104-4.248-2.376-4.248a2.385 2.385 0 0 0-2.184 1.68l-1.345-.24.576-8.785h6.097l-.145 1.44h-4.56l-.337 5.28a3.595 3.595 0 0 1 2.305-.816c2.017 0 3.696 1.873 3.696 5.64 0 3.96-1.92 6.025-4.225 6.025-2.496 0-3.744-1.873-3.888-4.13z"/><use xlink:href="#F" x="-0.96" y="-172.762"/><path d="M40 434.575c-.24-1.728-1.2-2.017-1.872-2.017-1.536 0-2.496 2.113-2.544 6.938a3.764 3.764 0 0 1 2.664-1.32c1.944 0 3.72 1.393 3.72 5.328 0 3.36-1.44 5.425-3.72 5.425-3 0-4.44-1.73-4.44-7.97 0-6.96 1.633-9.84 4.37-9.84 2.23 0 3.072 1.344 3.408 3.36zm-4.464 8.16c0 3.504.912 4.752 2.448 4.752 1.344 0 2.256-1.008 2.256-4.008 0-3.097-1.056-3.865-2.16-3.865a3.291 3.291 0 0 0-2.544 1.488zm11.568 6.195c-2.833 0-4.177-2.64-4.177-8.905s1.344-8.904 4.177-8.904 4.176 2.64 4.176 8.904-1.344 8.905-4.176 8.905zm0-16.37c-1.585 0-2.448 1.777-2.448 7.465s.863 7.465 2.448 7.465 2.448-1.775 2.448-7.465-.864-7.465-2.448-7.465z"/><path d="M34 258.598h7.776v.912l-5.04 16.417H34.9l5.04-15.9H34zm12.623 17.57c-2.832 0-4.177-2.64-4.177-8.905s1.345-8.904 4.177-8.904 4.177 2.64 4.177 8.904-1.345 8.905-4.177 8.905zm0-16.37c-1.584 0-2.448 1.777-2.448 7.465s.864 7.465 2.448 7.465 2.448-1.775 2.448-7.465-.864-7.465-2.448-7.465zm12.48 3.648l2.353 9.553h.048l1.92-9.553H65.2l-2.856 12.217c-.647 2.736-1.848 4.346-3.937 4.346h-.888v-1.44h.528c1.368 0 2.256-.983 2.592-2.736l-3.312-12.385zm8.736 6.53v.695c0 3.05.696 4.057 2.328 4.057 1.32 0 1.872-1.225 2.088-2.352l1.633.2a3.996 3.996 0 0 1-3.961 3.601c-2.616 0-3.816-1.968-3.816-6.48s1.2-6.48 3.816-6.48c2.64 0 3.816 2.354 3.816 5.953v.816zm4.177-1.44c-.048-2.688-.528-3.888-2.1-3.888-1.248 0-2.063.912-2.088 3.888zm4.08-1.68c.336-1.968 1.487-3.648 3.696-3.648a3.253 3.253 0 0 1 3.576 3.553v6.96a5.151 5.151 0 0 0 .312 2.208h-1.8l-.216-1.056a4.569 4.569 0 0 1-2.664 1.296 3.031 3.031 0 0 1-3.241-3.216c0-3.072 3.385-4.633 5.88-5.186v-.888c0-1.368-.696-2.23-1.8-2.23-1.32 0-1.97 1.32-2.16 2.447zm5.544 2.353c-1.584.48-4.152 1.632-4.152 3.6 0 1.176.528 1.92 1.776 1.92a3.537 3.537 0 0 0 2.376-1.296zm5.207-5.76h1.73v1.513h.048a3.199 3.199 0 0 1 3.168-1.753v1.633c-1.296 0-2.28.432-3.216 2.208v8.88h-1.73zm11.655 3.168c-.312-1.08-.77-1.967-2.16-1.967a1.402 1.402 0 0 0-1.393 1.487c0 2.544 5.28 2.688 5.28 6.577a3.343 3.343 0 0 1-3.408 3.456c-2.256 0-3.384-1.224-3.984-3.312l1.584-.336c.36 1.104 1 2.208 2.28 2.208a1.899 1.899 0 0 0 1.801-1.896c0-2.88-5.28-2.928-5.28-6.6a3.097 3.097 0 0 1 3.241-3.025 3.356 3.356 0 0 1 3.479 2.977z"/></g><g opacity=".3" fill="none" stroke="#000" stroke-width="1.5" class="T U"><path d="M371.282 1050.113h0"/><path d="M371.282 1042.144V177.528" class="V"/><path d="M371.282 173.543h0"/></g><g opacity=".3" fill="none" stroke="#000" stroke-width="1.5" class="T U"><path d="M708.61 1050.113h0"/><path d="M708.61 1042.144V177.528" class="V"/><path d="M708.61 173.543h0"/></g><path d="M33.956 129.518h122.836m91.654 0h112.836m684.718 0H923.164m-91.664 0H718.673m-338.428 0H493.08m91.656 0h112.836" class="Q S" fill="none" stroke-width="2" stroke="#3913b2"/><path d="M243.448 695.532a17.715 17.715 0 1 1 17.715 17.715 17.715 17.715 0 0 1-17.715-17.715zM241.6 941.528a15.339 15.339 0 1 0-15.339-15.339 15.339 15.339 0 0 0 15.339 15.339zm-101.206-75.503a13.167 13.167 0 1 0-13.167-13.167 13.167 13.167 0 0 0 13.167 13.167zm73.78-233.18a11.96 11.96 0 1 0-11.96-11.96 11.96 11.96 0 0 0 11.96 11.96zm-3.87 292.178a14.442 14.442 0 1 0-14.442-14.442 14.442 14.442 0 0 0 14.443 14.442zm-30-119.86a13.139 13.139 0 1 0-13.139-13.139 13.139 13.139 0 0 0 13.139 13.139zm48.54-154.014a11.728 11.728 0 1 0-11.728-11.728 11.728 11.728 0 0 0 11.728 11.728zm-30.277 134.406a14.967 14.967 0 1 0-14.967-14.967 14.967 14.967 0 0 0 14.966 14.967zm123.597 90.765a12.237 12.237 0 1 0-12.237-12.237 12.237 12.237 0 0 0 12.237 12.237zm-76.182-21.417a13.322 13.322 0 1 0-13.322-13.322 13.322 13.322 0 0 0 13.322 13.322zm-41.238-46.666a11.776 11.776 0 1 0-11.776-11.776 11.776 11.776 0 0 0 11.776 11.776zm32.372-3.928a24.656 24.656 0 1 0-24.656-24.656 24.656 24.656 0 0 0 24.656 24.656zm20.644-151.786a12.213 12.213 0 1 0-12.213-12.213 12.213 12.213 0 0 0 12.213 12.213zm37.635 231.892a15.08 15.08 0 1 0-15.08-15.08 15.08 15.08 0 0 0 15.08 15.08zm-24.456-145.92a11.785 11.785 0 1 0-11.785-11.785 11.785 11.785 0 0 0 11.785 11.785zm-72.8-50.358a26.312 26.312 0 1 0-26.312-26.312 26.312 26.312 0 0 0 26.312 26.312zm72.254 202.947a11.839 11.839 0 1 0-11.839-11.839 11.839 11.839 0 0 0 11.839 11.839zm-24.437-62.638a12.642 12.642 0 1 0-12.642-12.642 12.642 12.642 0 0 0 12.642 12.642zm-54.887-93.33a11.823 11.823 0 1 0-11.823-11.823 11.823 11.823 0 0 0 11.823 11.823zM305.6 855.54a26.676 26.676 0 1 0-26.676-26.676A26.676 26.676 0 0 0 305.6 855.54zm-83.728-30.946a11.926 11.926 0 1 0-11.926-11.926 11.926 11.926 0 0 0 11.926 11.926zm-.722 131.575a11.938 11.938 0 1 0-11.938-11.938 11.938 11.938 0 0 0 11.938 11.938zm72.742-238.134a15.741 15.741 0 1 0-15.741-15.741 15.741 15.741 0 0 0 15.741 15.741zM182.595 923.788a13.26 13.26 0 1 0-13.26-13.26 13.26 13.26 0 0 0 13.26 13.26zm84.417-84.233a11.885 11.885 0 1 0-11.885-11.885 11.885 11.885 0 0 0 11.885 11.885zm-42.037-123.24a18.536 18.536 0 1 0-18.536-18.536 18.536 18.536 0 0 0 18.536 18.536zm-30.38-4.493a11.94 11.94 0 1 0-11.94-11.94 11.94 11.94 0 0 0 11.94 11.94zm95.493 196.374a12.179 12.179 0 1 0-12.179-12.179 12.179 12.179 0 0 0 12.179 12.179zM185.21 759.233a12.455 12.455 0 1 0-12.455-12.455 12.455 12.455 0 0 0 12.455 12.455zm85.242 56.994a15.045 15.045 0 1 0-15.045-15.045 15.045 15.045 0 0 0 15.045 15.045zm.444 51.355a14.198 14.198 0 1 0-14.198-14.198 14.198 14.198 0 0 0 14.198 14.198zm-25.633 154.53a13.85 13.85 0 1 0-13.85-13.85 13.85 13.85 0 0 0 13.85 13.85zm35.3-252.36a12.216 12.216 0 1 0-12.216-12.216 12.216 12.216 0 0 0 12.216 12.216zm-45.907-276.207a11.845 11.845 0 1 0-11.844-11.845 11.845 11.845 0 0 0 11.844 11.845zm41.63 185.653a16.693 16.693 0 1 0-16.693-16.693 16.693 16.693 0 0 0 16.693 16.693zM236.53 911.35a15.888 15.888 0 1 0-15.888-15.888 15.888 15.888 0 0 0 15.888 15.888zM172.6 702.404a11.999 11.999 0 1 0-11.999-11.999 11.999 11.999 0 0 0 11.999 11.999zm92.557 216.546a14.244 14.244 0 1 0-14.244-14.244 14.244 14.244 0 0 0 14.244 14.244zm-70.96-20.425a40.883 40.883 0 1 0-40.883-40.883 40.883 40.883 0 0 0 40.883 40.883zm62.938-137.66a13.243 13.243 0 1 0-13.243-13.243 13.243 13.243 0 0 0 13.243 13.243zm-13.703-127.92a11.681 11.681 0 1 0-11.681-11.681 11.681 11.681 0 0 0 11.681 11.681zm-94.673 208.063a13.823 13.823 0 1 0-13.823-13.823 13.823 13.823 0 0 0 13.823 13.823zm83.216 144.29a12.613 12.613 0 1 0-12.613-12.613 12.613 12.613 0 0 0 12.613 12.613zm15.586-103.602a13.515 13.515 0 1 0-13.515-13.515 13.515 13.515 0 0 0 13.515 13.515zM229.456 612.83a19.96 19.96 0 1 0-19.96-19.96 19.96 19.96 0 0 0 19.96 19.96zm19.305 353.532a12.902 12.902 0 1 0-12.902-12.902 12.902 12.902 0 0 0 12.902 12.902zm-6.75-282.854a17.735 17.735 0 1 0-17.735-17.735 17.735 17.735 0 0 0 17.735 17.735zm-24.958 76.4a19.369 19.369 0 1 0-19.369-19.369 19.369 19.369 0 0 0 19.369 19.369zm78.992 43.448a12.59 12.59 0 1 0-12.59-12.59 12.59 12.59 0 0 0 12.59 12.59zm-125.94-22.385a13.314 13.314 0 1 0-13.314-13.314 13.314 13.314 0 0 0 13.314 13.314zm128.416-29.438a16.922 16.922 0 1 0-16.922-16.922 16.922 16.922 0 0 0 16.922 16.922zm-53.075-14.52a13.993 13.993 0 1 0-13.993-13.993 13.993 13.993 0 0 0 13.993 13.993zm15.955-119.96a13.628 13.628 0 1 0-13.628-13.628 13.628 13.628 0 0 0 13.628 13.628zm287.753-256.287a17.715 17.715 0 1 0-17.715-17.715 17.715 17.715 0 0 0 17.715 17.715zm-35.5 432.377a15.339 15.339 0 1 0-15.339-15.339 15.339 15.339 0 0 0 15.339 15.339zM536.632 581.2a13.167 13.167 0 1 0-13.167-13.167 13.167 13.167 0 0 0 13.167 13.167zm25.29-149.588a11.96 11.96 0 1 0-11.96-11.96 11.96 11.96 0 0 0 11.96 11.96zM535.3 648.356a14.442 14.442 0 1 0-14.442-14.442 14.442 14.442 0 0 0 14.442 14.442zm.6 26.095a13.139 13.139 0 1 0-13.139-13.139 13.139 13.139 0 0 0 13.139 13.139zm60.943-284.532a11.728 11.728 0 1 0-11.728-11.728 11.728 11.728 0 0 0 11.728 11.728zm-69.18 219.752a14.967 14.967 0 1 0-14.967-14.967 14.967 14.967 0 0 0 14.967 14.967zm-39.08 55.952a12.237 12.237 0 1 0-12.237-12.237 12.237 12.237 0 0 0 12.237 12.237zm88.846 33.897a13.322 13.322 0 1 0-13.322-13.322 13.322 13.322 0 0 0 13.322 13.322zM482.9 529.137a11.776 11.776 0 1 0-11.776-11.776 11.776 11.776 0 0 0 11.776 11.776zm88.59 144.284a24.656 24.656 0 1 0-24.656-24.656 24.656 24.656 0 0 0 24.656 24.656zm-17.585-130.518a12.213 12.213 0 1 0-12.213-12.213 12.213 12.213 0 0 0 12.213 12.213zm2.97 59.882a15.08 15.08 0 1 0-15.08-15.08 15.08 15.08 0 0 0 15.08 15.08zm41.956-73.202a11.785 11.785 0 1 0-11.785-11.785 11.785 11.785 0 0 0 11.785 11.784zM525.51 406.498a26.312 26.312 0 1 0-26.312-26.312 26.312 26.312 0 0 0 26.312 26.312zm-12.847 257.914a11.839 11.839 0 1 0-11.839-11.839 11.839 11.839 0 0 0 11.839 11.839zM554.927 628a12.642 12.642 0 1 0-12.642-12.642 12.642 12.642 0 0 0 12.642 12.642zm-1.2-156.145a11.823 11.823 0 1 0-11.823-11.823 11.823 11.823 0 0 0 11.823 11.823zm62.316 230.957a26.676 26.676 0 1 0-26.676-26.676 26.676 26.676 0 0 0 26.676 26.676zm-46.558-248.56a11.926 11.926 0 1 0-11.926-11.926 11.926 11.926 0 0 0 11.926 11.926zM583.6 595.547a11.938 11.938 0 1 0-11.938-11.938 11.938 11.938 0 0 0 11.938 11.938zm-11.096-69.967a15.741 15.741 0 1 0-15.741-15.741 15.741 15.741 0 0 0 15.741 15.741zM472.61 646.806a13.26 13.26 0 1 0-13.26-13.26 13.26 13.26 0 0 0 13.26 13.26zm134.02 3.845a11.885 11.885 0 1 0-11.885-11.885 11.885 11.885 0 0 0 11.885 11.885zm-67.72-129.073a18.536 18.536 0 1 0-18.536-18.536 18.536 18.536 0 0 0 18.536 18.536zm-5.033-36.664a11.94 11.94 0 1 0-11.94-11.94 11.94 11.94 0 0 0 11.94 11.94zm18.668 207.43a12.179 12.179 0 1 0-12.179-12.179 12.179 12.179 0 0 0 12.179 12.179zm-3.857-367a12.455 12.455 0 1 0-12.455-12.455 12.455 12.455 0 0 0 12.455 12.455zm33.5 300.244a15.045 15.045 0 1 0-15.045-15.045 15.045 15.045 0 0 0 15.045 15.045zm-23.845 94.362a14.198 14.198 0 1 0-14.198-14.198 14.198 14.198 0 0 0 14.198 14.198zm-109.733.4a13.85 13.85 0 1 0-13.85-13.85 13.85 13.85 0 0 0 13.85 13.85zm114.147-224.5a12.216 12.216 0 1 0-12.216-12.216 12.216 12.216 0 0 0 12.216 12.216zm1.82-189.486a11.845 11.845 0 1 0-11.844-11.844 11.845 11.845 0 0 0 11.844 11.844zm3.87 88.115a16.693 16.693 0 1 0-16.693-16.693 16.693 16.693 0 0 0 16.693 16.693zm-28.668 382.172a15.888 15.888 0 1 0-15.888-15.888 15.888 15.888 0 0 0 15.888 15.888zm6.18-327.135a11.999 11.999 0 1 0-11.999-11.999 11.999 11.999 0 0 0 11.999 11.999zm23.137 318.45a14.244 14.244 0 1 0-14.244-14.244 14.244 14.244 0 0 0 14.244 14.244zm-65.8-22.665a40.883 40.883 0 1 0-40.883-40.883 40.883 40.883 0 0 0 40.883 40.883zm40.74 172.617a13.243 13.243 0 1 0-13.243-13.243 13.243 13.243 0 0 0 13.243 13.243zm41.017-481.66a11.681 11.681 0 1 0-11.681-11.681 11.681 11.681 0 0 0 11.681 11.681zm-76.98 90.486a13.823 13.823 0 1 0-13.823-13.823 13.823 13.823 0 0 0 13.823 13.823zm35.983 335.298a12.613 12.613 0 1 0-12.613-12.613 12.613 12.613 0 0 0 12.613 12.613zm32.884-122.237a13.515 13.515 0 1 0-13.515-13.515 13.515 13.515 0 0 0 13.515 13.515zm-60.61-294.312a19.96 19.96 0 1 0-19.96-19.96 19.96 19.96 0 0 0 19.96 19.96zm78.827 313.656a12.902 12.902 0 1 0-12.902-12.902 12.902 12.902 0 0 0 12.902 12.902zm-69.895-202.067a17.735 17.735 0 1 0-17.735-17.735 17.735 17.735 0 0 0 17.735 17.735zm-21.84 85.1a19.369 19.369 0 1 0-19.369-19.369 19.369 19.369 0 0 0 19.369 19.369zm74.265-91.913a12.59 12.59 0 1 0-12.59-12.59 12.59 12.59 0 0 0 12.59 12.59zm-54.04-230.128a13.314 13.314 0 1 0-13.314-13.314 13.314 13.314 0 0 0 13.314 13.314zm82.736 415.4a16.922 16.922 0 1 0-16.922-16.922 16.922 16.922 0 0 0 16.922 16.922zm-56.123 11.233a13.993 13.993 0 1 0-13.993-13.993 13.993 13.993 0 0 0 13.993 13.993zm-38.51-247.405a13.628 13.628 0 1 0-13.628-13.628 13.628 13.628 0 0 0 13.628 13.628zm342.977-298.03a17.715 17.715 0 1 0-17.715-17.715 17.715 17.715 0 0 0 17.715 17.715zm63.96 250.81a15.339 15.339 0 1 0-15.339-15.339 15.339 15.339 0 0 0 15.339 15.339zm-133.596 12.704a13.167 13.167 0 1 0-13.167-13.167 13.167 13.167 0 0 0 13.167 13.167zM812.29 360.83a11.96 11.96 0 1 0-11.96-11.96 11.96 11.96 0 0 0 11.96 11.96zm-17.225 130.848a14.442 14.442 0 1 0-14.442-14.442 14.442 14.442 0 0 0 14.442 14.442zm54.876 50.45a13.139 13.139 0 1 0-13.139-13.139 13.139 13.139 0 0 0 13.139 13.139zm20.144-287.53a11.728 11.728 0 1 0-11.728-11.728 11.728 11.728 0 0 0 11.728 11.728zm-61.467 263.668a14.967 14.967 0 1 0-14.966-14.967 14.967 14.967 0 0 0 14.966 14.967zm63.516 114.616a12.237 12.237 0 1 0-12.237-12.237 12.237 12.237 0 0 0 12.237 12.237zM890.7 596.99a13.322 13.322 0 1 0-13.322-13.322 13.322 13.322 0 0 0 13.322 13.322zm-48.168-193.164a11.776 11.776 0 1 0-11.776-11.776 11.776 11.776 0 0 0 11.776 11.776zm-8.653 93.703a24.656 24.656 0 1 0-24.656-24.656 24.656 24.656 0 0 0 24.656 24.656zm36.915-92.16a12.213 12.213 0 1 0-12.213-12.213 12.213 12.213 0 0 0 12.213 12.213zM780.64 598.833a15.08 15.08 0 1 0-15.08-15.08 15.08 15.08 0 0 0 15.08 15.08zm21.37-154.426a11.785 11.785 0 1 0-11.785-11.785 11.785 11.785 0 0 0 11.785 11.785zm37.03-153.242a26.312 26.312 0 1 0-26.312-26.312 26.312 26.312 0 0 0 26.312 26.312zm-4.25 229.977a11.839 11.839 0 1 0-11.839-11.839 11.839 11.839 0 0 0 11.839 11.839zm27.23-138.4A12.642 12.642 0 1 0 849.38 370.1a12.642 12.642 0 0 0 12.642 12.642zm-69.673 153.632a11.823 11.823 0 1 0-11.823-11.823 11.823 11.823 0 0 0 11.823 11.823zm108.9-140.594a26.676 26.676 0 1 0-26.676-26.676 26.676 26.676 0 0 0 26.676 26.676zm-110.8-25.57a11.926 11.926 0 1 0-11.926-11.926 11.926 11.926 0 0 0 11.926 11.926zm46.094 78.18a11.938 11.938 0 1 0-11.938-11.938 11.938 11.938 0 0 0 11.938 11.938zm19.002-16.404a15.741 15.741 0 1 0-15.741-15.741 15.741 15.741 0 0 0 15.741 15.741zm-88.065 59.34a13.26 13.26 0 1 0-13.26-13.26 13.26 13.26 0 0 0 13.26 13.26zm121.64 27.126a11.885 11.885 0 1 0-11.885-11.885 11.885 11.885 0 0 0 11.885 11.885zm-21.865-160.61a18.536 18.536 0 1 0-18.536-18.536 18.536 18.536 0 0 0 18.536 18.536zM789.07 570a11.94 11.94 0 1 0-11.94-11.94 11.94 11.94 0 0 0 11.94 11.94zM880.7 440.63a12.179 12.179 0 1 0-12.179-12.179 12.179 12.179 0 0 0 12.179 12.179zm-79.03-173.624a12.455 12.455 0 1 0-12.455-12.455 12.455 12.455 0 0 0 12.455 12.455zm36.56 104.063a15.045 15.045 0 1 0-15.045-15.045 15.045 15.045 0 0 0 15.045 15.045zm-12.336 55.495a14.198 14.198 0 1 0-14.198-14.198 14.198 14.198 0 0 0 14.198 14.198zm-46.01 89.403a13.85 13.85 0 1 0-13.85-13.85 13.85 13.85 0 0 0 13.85 13.85zm111.25-97.222a12.216 12.216 0 1 0-12.216-12.216 12.216 12.216 0 0 0 12.216 12.216zm-47.813-195.75a11.845 11.845 0 1 0-11.844-11.845 11.845 11.845 0 0 0 11.844 11.845zm-21.76-13.6a16.693 16.693 0 1 0-16.693-16.693 16.693 16.693 0 0 0 16.693 16.693zm40.07 308.944a15.888 15.888 0 1 0-15.888-15.888 15.888 15.888 0 0 0 15.888 15.888zm-61.614-98.006a11.999 11.999 0 1 0-11.999-11.999 11.999 11.999 0 0 0 11.999 11.999zm106.658 66.84a14.244 14.244 0 1 0-14.244-14.244 14.244 14.244 0 0 0 14.244 14.244zM836.56 622.098a40.883 40.883 0 1 0-40.883-40.883 40.883 40.883 0 0 0 40.883 40.883zm-8.16-279.32a13.243 13.243 0 1 0-13.243-13.243 13.243 13.243 0 0 0 13.243 13.243zm67.9-.015a11.681 11.681 0 1 0-11.681-11.681 11.681 11.681 0 0 0 11.681 11.681zm-104.014 3.74a13.823 13.823 0 1 0-13.823-13.823 13.823 13.823 0 0 0 13.823 13.823zM894.25 621.967a12.613 12.613 0 1 0-12.613-12.613 12.613 12.613 0 0 0 12.613 12.613zm-74.68-78.915a13.515 13.515 0 1 0-13.515-13.515 13.515 13.515 0 0 0 13.515 13.515zm-48.475-101.27a19.96 19.96 0 1 0-19.96-19.96 19.96 19.96 0 0 0 19.96 19.96zm104.802 98.655a12.902 12.902 0 1 0-12.902-12.902 12.902 12.902 0 0 0 12.902 12.902zm-98.96-138.098a17.735 17.735 0 1 0-17.735-17.735 17.735 17.735 0 0 0 17.735 17.735zm36.837-2.807a19.369 19.369 0 1 0-19.369-19.369 19.369 19.369 0 0 0 19.369 19.369zm79.847 62.516a12.59 12.59 0 1 0-12.59-12.59 12.59 12.59 0 0 0 12.59 12.59zM791.58 204.786a13.314 13.314 0 1 0-13.314-13.314 13.314 13.314 0 0 0 13.314 13.314zm83.912 284.897a16.922 16.922 0 1 0-16.922-16.922 16.922 16.922 0 0 0 16.922 16.922zm-14.53-30.217a13.993 13.993 0 1 0-13.993-13.993 13.993 13.993 0 0 0 13.993 13.993zM758.3 466.462a13.628 13.628 0 1 0-13.628-13.628 13.628 13.628 0 0 0 13.628 13.628z" fill="url(#B)"/><g fill="#fff" class="P"><path d="M172.9 864.297a.935.935 0 0 1-.792-.484l-7.393-11.11v10.65a.917.917 0 0 1-.969.946.901.901 0 0 1-.924-.924v-13.796a.929.929 0 0 1 .968-.946.91.91 0 0 1 .793.462l7.393 11.11v-10.627a.946.946 0 0 1 1.893-.022v13.796a.943.943 0 0 1-.969.946z"/><use xlink:href="#G"/><use xlink:href="#H"/><path d="M202.743 859.412h-8.14a3.564 3.564 0 0 0 3.564 3.389 3.302 3.302 0 0 0 2.618-1.145.911.911 0 0 1 .682-.352 1.026 1.026 0 0 1 .99.968c0 .265-.065.462-.527.924a5.36 5.36 0 0 1-3.763 1.475c-3.543 0-5.523-2.927-5.523-6.227 0-3.278 1.98-6.205 5.523-6.205 3.586 0 5.5 2.927 5.5 6.205a.939.939 0 0 1-.925.968zm-4.576-5.303a3.608 3.608 0 0 0-3.564 3.41h7.13c-.31-2.112-1.63-3.4-3.564-3.4z"/><use xlink:href="#I"/><use xlink:href="#G" x="35.442"/><use xlink:href="#J"/></g><g fill="#fff" class="P"><path d="M481.98 711.074a.934.934 0 0 1-.792-.484l-7.394-11.11v10.65a.917.917 0 0 1-.968.946.901.901 0 0 1-.924-.924v-13.796a.929.929 0 0 1 .968-.946.908.908 0 0 1 .792.462l7.394 11.11v-10.627a.946.946 0 0 1 1.892-.022v13.796a.942.942 0 0 1-.968.946z"/><use xlink:href="#K"/><path d="M494.475 716.1c-1.343 0-4.665-.484-4.665-1.804a1.024 1.024 0 0 1 .946-.99c.506 0 .066.065 1.232.506a6.869 6.869 0 0 0 2.486.418c2.442 0 3.63-1.166 3.63-3.477v-1a5.144 5.144 0 0 1-3.63 1.32c-3.477 0-5.523-2.465-5.523-5.853 0-3.3 1.98-6.205 5.523-6.205a4.738 4.738 0 0 1 3.63 1.408v-.088a.937.937 0 0 1 .946-.946.924.924 0 0 1 .946.946v10.407c0 3.498-2.1 5.347-5.522 5.347zm0-15.204c-2.2 0-3.63 1.716-3.63 4.335 0 2.508 1.32 3.982 3.63 3.982s3.63-1.475 3.63-3.982c0-2.62-1.408-4.335-3.63-4.335zm17.358 5.304h-8.142a3.565 3.565 0 0 0 3.564 3.389 3.302 3.302 0 0 0 2.618-1.145.913.913 0 0 1 .683-.352 1.026 1.026 0 0 1 .99.968c0 .265-.066.462-.528.924a5.36 5.36 0 0 1-3.763 1.475c-3.542 0-5.522-2.927-5.522-6.227 0-3.278 1.98-6.205 5.522-6.205 3.587 0 5.5 2.927 5.5 6.205a.938.938 0 0 1-.924.968zm-4.577-5.303a3.608 3.608 0 0 0-3.564 3.41h7.13c-.308-2.112-1.628-3.4-3.564-3.4z"/><use xlink:href="#L"/><path d="M521.644 697.608a1.584 1.584 0 1 1 1.584-1.584 1.578 1.578 0 0 1-1.584 1.584zm0 13.466a.924.924 0 0 1-.969-.924v-9.813a.929.929 0 0 1 .969-.946.906.906 0 0 1 .924.946v9.813a.887.887 0 0 1-.924.924z"/><use xlink:href="#M"/></g><g fill="#fff" class="P"><path d="M815.243 587.87a.934.934 0 0 1-.792-.484l-7.393-11.11v10.65a.918.918 0 0 1-.969.945.901.901 0 0 1-.924-.924V573.15a.929.929 0 0 1 .968-.947.909.909 0 0 1 .792.463l7.394 11.11V573.15a.946.946 0 0 1 1.892-.023v13.797a.942.942 0 0 1-.968.945z"/><use xlink:href="#N"/><path d="M827.738 592.887c-1.342 0-4.664-.484-4.664-1.805a1.024 1.024 0 0 1 .945-.99c.506 0 .066.066 1.232.506a6.847 6.847 0 0 0 2.486.418c2.442 0 3.63-1.166 3.63-3.477v-1a5.148 5.148 0 0 1-3.631 1.32c-3.477 0-5.523-2.465-5.523-5.852 0-3.3 1.98-6.205 5.523-6.205a4.738 4.738 0 0 1 3.631 1.408v-.088a.936.936 0 0 1 .945-.947.924.924 0 0 1 .947.947v10.406c0 3.498-2.1 5.348-5.523 5.348zm0-15.205c-2.2 0-3.63 1.717-3.63 4.336 0 2.508 1.32 3.982 3.63 3.982s3.63-1.475 3.63-3.982c0-2.62-1.408-4.336-3.63-4.336zm17.36 5.302h-8.142a3.565 3.565 0 0 0 3.564 3.389 3.302 3.302 0 0 0 2.619-1.145.913.913 0 0 1 .682-.352 1.026 1.026 0 0 1 .99.969c0 .264-.066.46-.527.924a5.363 5.363 0 0 1-3.764 1.475c-3.542 0-5.522-2.928-5.522-6.227 0-3.28 1.98-6.205 5.522-6.205 3.587 0 5.502 2.926 5.502 6.205a.938.938 0 0 1-.925.967zm-4.577-5.303a3.61 3.61 0 0 0-3.564 3.41h7.13c-.308-2.1-1.628-3.4-3.564-3.4zm12-.001a3.171 3.171 0 0 0-3.124 3.146v6.096a.917.917 0 0 1-.968.945.9.9 0 0 1-.924-.924v-9.812a.932.932 0 0 1 .924-.947.903.903 0 0 1 .945.748 5.096 5.096 0 0 1 3.146-1.121.935.935 0 1 1 0 1.869z"/><use xlink:href="#N" x="35.441"/><path d="M869 587.87a2.14 2.14 0 0 1-1.958-1.254 5.039 5.039 0 0 1-3.872 1.629c-3.587 0-5.523-2.95-5.523-6.227s1.98-6.205 5.523-6.205a4.862 4.862 0 0 1 3.63 1.451v-.088a.909.909 0 0 1 .925-.99.885.885 0 0 1 .968.924v8.494a.357.357 0 0 0 .308.396.935.935 0 1 1 0 1.869zm-5.83-10.187c-2.2 0-3.63 1.717-3.63 4.336 0 2.64 1.43 4.355 3.63 4.355 2.222 0 3.63-1.717 3.63-4.355 0-2.62-1.408-4.336-3.63-4.336z"/></g><g fill="none" stroke="#3913b2"><circle cx="861.152" cy="950.338" r="16.563" class="Q"/><circle cx="861.152" cy="944.382" r="22.519" class="Q"/><circle cx="861.152" cy="956.137" r="10.764" class="Q"/></g><path d="M174.566 144.15v-2.52h3.696v-24.364l-3.78.336v-1.85a11.631 11.631 0 0 0 4.788-2.352h2.017v28.23h3.528v2.52zm17.302-5.63c.42 3.024 2.1 3.528 3.276 3.528 2.688 0 4.37-3.696 4.453-12.14a6.59 6.59 0 0 1-4.663 2.311c-3.402 0-6.5-2.437-6.5-9.326 0-5.88 2.52-9.493 6.5-9.493 5.25 0 7.77 3.024 7.77 13.946 0 12.182-2.856 17.223-7.646 17.223-3.906 0-5.377-2.353-5.965-5.88zm7.813-14.282c0-6.134-1.597-8.318-4.285-8.318-2.352 0-3.948 1.765-3.948 7.016 0 5.42 1.85 6.764 3.78 6.764a5.757 5.757 0 0 0 4.453-2.604zm15.72-4.788c-.42-3.024-2.1-3.53-3.276-3.53-2.688 0-4.37 3.697-4.453 12.14a6.59 6.59 0 0 1 4.663-2.311c3.402 0 6.5 2.437 6.5 9.326 0 5.88-2.52 9.493-6.5 9.493-5.25 0-7.77-3.024-7.77-13.946 0-12.183 2.856-17.223 7.646-17.223 3.906 0 5.377 2.352 5.965 5.88zm-7.813 14.282c0 6.133 1.597 8.317 4.285 8.317 2.352 0 3.948-1.764 3.948-7.015 0-5.42-1.85-6.764-3.78-6.764a5.757 5.757 0 0 0-4.453 2.604zm20.233 10.838c-4.956 0-7.3-4.62-7.3-15.585s2.353-15.584 7.3-15.584 7.3 4.62 7.3 15.584-2.353 15.585-7.3 15.585zm0-28.65c-2.772 0-4.284 3.1-4.284 13.064s1.512 13.064 4.284 13.064 4.285-3.108 4.285-13.064-1.512-13.064-4.285-13.064z" class="O Q"/><path d="M512.18 144.15v-2.52h3.696v-24.363l-3.78.336v-1.85a11.634 11.634 0 0 0 4.789-2.352h2.016v28.23h3.53v2.52zm17.304-5.63c.42 3.023 2.1 3.527 3.276 3.527 2.688 0 4.37-3.695 4.453-12.14a6.595 6.595 0 0 1-4.663 2.311c-3.402 0-6.5-2.437-6.5-9.326 0-5.88 2.52-9.494 6.5-9.494 5.25 0 7.77 3.025 7.77 13.947 0 12.182-2.856 17.223-7.646 17.223-3.906 0-5.377-2.354-5.965-5.88zm7.813-14.283c0-6.133-1.597-8.316-4.285-8.316-2.353 0-3.948 1.764-3.948 7.014 0 5.42 1.848 6.764 3.78 6.764a5.757 5.757 0 0 0 4.453-2.604zm8.303 14.283c.42 3.023 2.1 3.527 3.277 3.527 2.688 0 4.368-3.695 4.452-12.14a6.594 6.594 0 0 1-4.663 2.311c-3.402 0-6.5-2.437-6.5-9.326 0-5.88 2.52-9.494 6.5-9.494 5.25 0 7.77 3.025 7.77 13.947 0 12.182-2.856 17.223-7.645 17.223-3.907 0-5.377-2.354-5.966-5.88zm7.813-14.283c0-6.133-1.596-8.316-4.284-8.316-2.353 0-3.95 1.764-3.95 7.014 0 5.42 1.85 6.764 3.78 6.764a5.755 5.755 0 0 0 4.452-2.604zm12.022 20.333c-4.957 0-7.3-4.62-7.3-15.586s2.352-15.584 7.3-15.584 7.3 4.62 7.3 15.584-2.353 15.586-7.3 15.586zm0-28.648c-2.772 0-4.284 3.107-4.284 13.063s1.512 13.064 4.284 13.064 4.285-3.107 4.285-13.064-1.513-13.062-4.285-13.062z" class="O Q"/><path d="M847.123 144.15v-2.52c2.7-9 11.1-14.03 11.1-20.92 0-3.192-1.596-4.788-3.654-4.788-2.395 0-4.158 1.848-4.4 6.385h-2.773c.336-6.9 3.445-8.905 7.1-8.905 4 0 6.764 2.688 6.764 7.73 0 7.562-6.806 9.914-11.342 20.5h11.5v2.52zm23.437.42c-4.957 0-7.3-4.62-7.3-15.585s2.354-15.584 7.3-15.584 7.3 4.62 7.3 15.584-2.352 15.585-7.3 15.585zm0-28.648c-2.773 0-4.285 3.108-4.285 13.063s1.512 13.064 4.285 13.064 4.284-3.108 4.284-13.064-1.513-13.063-4.284-13.063zm11.255 28.228v-2.52h3.697v-24.364l-3.78.336v-1.85a11.634 11.634 0 0 0 4.789-2.352h2.016v28.23h3.53v2.52zm16.8-7.057c.252 2.185 1.177 4.957 3.864 4.957 2.605 0 4.537-2.688 4.537-7.94 0-5.67-1.932-7.435-4.158-7.435a4.181 4.181 0 0 0-3.823 2.94l-2.353-.42 1.008-15.374h10.67l-.252 2.52h-7.98l-.588 9.24a6.279 6.279 0 0 1 4.031-1.428c3.53 0 6.47 3.276 6.47 9.87 0 6.932-3.36 10.544-7.394 10.544-4.368 0-6.553-3.276-6.805-7.226z" class="O Q"/><g class="O Q"><path d="M905.205 945.445h-8.764a.798.798 0 1 1 0-1.596h8.764a.798.798 0 1 1 0 1.596zm0 3.976h-8.764a.798.798 0 1 1 0-1.596h8.764a.798.798 0 1 1 0 1.596z"/><use xlink:href="#O"/><use xlink:href="#P"/><use xlink:href="#O" x="33.013"/><path d="M976.66 954.153a.787.787 0 0 1-.812-.784v-.896a6.218 6.218 0 0 1-4.788 2.155 6.454 6.454 0 0 1-6.384-6.384v-8.176a.798.798 0 0 1 1.596 0v8.176a4.788 4.788 0 1 0 9.576 0v-8.176a.798.798 0 0 1 1.596 0v13.3a.781.781 0 0 1-.783.784zm6.973.167a2.935 2.935 0 0 1-2.772-2.968V935a.798.798 0 0 1 1.596 0v16.353c0 1.792 1.988.756 1.988 2.016a.903.903 0 0 1-.812.952zm17.415-.167h-.028a2.898 2.898 0 0 1-2.771-2.184 6.355 6.355 0 0 1-5.433 2.659c-4.563 0-7.027-3.752-7.027-7.924 0-4.228 2.52-7.895 7.027-7.895a6.403 6.403 0 0 1 5.433 2.632v-1.372a.789.789 0 0 1 .812-.784.764.764 0 0 1 .784.784v11.284c0 1.792 2.016.672 2.016 2.016a.77.77 0 0 1-.812.784zm-8.232-13.748c-3.304 0-5.432 2.66-5.432 6.3s2.128 6.328 5.432 6.328c3.332 0 5.433-2.687 5.433-6.328s-2.1-6.3-5.433-6.3zm16.156 13.748h-.868c-2.212 0-3.304-1.092-3.304-3.276v-9.995h-1.428a.798.798 0 0 1 0-1.597h1.428V935a.786.786 0 0 1 .812-.783.763.763 0 0 1 .784.783v4.284h2.576a.798.798 0 0 1 0 1.597h-2.576v9.995c0 1.372.393 1.68 1.708 1.68h.868a.798.798 0 0 1 0 1.596zm3.584-17.555a1.596 1.596 0 1 1 1.596-1.597 1.578 1.578 0 0 1-1.596 1.597zm0 17.556a.77.77 0 0 1-.812-.784v-13.3a.772.772 0 0 1 .813-.784.762.762 0 0 1 .783.784v13.3a.749.749 0 0 1-.783.784z"/><use xlink:href="#P" x="84.84"/><path d="M1044.923 954.153a.787.787 0 0 1-.812-.784v-8.176a4.788 4.788 0 1 0-9.576 0v8.176a.798.798 0 0 1-1.596 0v-13.3a.798.798 0 0 1 1.596 0v.896a6.388 6.388 0 0 1 11.173 4.228v8.176a.781.781 0 0 1-.784.784z"/></g><g class="P Q O"><path d="M278.032 1018.27a.907.907 0 0 1-.925-.945v-10.123l-4.268 7.967a.967.967 0 0 1-.881.594 1.05 1.05 0 0 1-.88-.594l-4.247-7.922v10.078a.916.916 0 0 1-.968.945.906.906 0 0 1-.924-.945v-13.752a.926.926 0 0 1 1.013-.99.84.84 0 0 1 .791.549l5.215 9.703 5.236-9.703a.846.846 0 0 1 .859-.549.91.91 0 0 1 .945.99v13.752a.917.917 0 0 1-.968.945z"/><use xlink:href="#Q"/><path d="M296.27 1018.293a2.244 2.244 0 0 1-2.2-2.244v-12.52a.947.947 0 0 1 1.893-.021v12.54a.348.348 0 0 0 .308.375.935.935 0 1 1 0 1.869zm3.078-13.5a1.584 1.584 0 1 1 1.584-1.584 1.577 1.577 0 0 1-1.584 1.584zm0 13.467a.924.924 0 0 1-.968-.924v-9.814a.928.928 0 0 1 .968-.945.906.906 0 0 1 .924.945v9.814a.887.887 0 0 1-.924.924z"/><path d="M738.15 510.86a.906.906 0 0 1-.924-.946v-10.122l-4.27 7.966a.961.961 0 0 1-.879.594 1.048 1.048 0 0 1-.881-.594l-4.246-7.922v10.078a.918.918 0 0 1-.969.946.906.906 0 0 1-.924-.946v-13.752a.926.926 0 0 1 1.012-.99.845.845 0 0 1 .793.55l5.215 9.703 5.236-9.703a.844.844 0 0 1 .857-.55.912.912 0 0 1 .947.99v13.752a.918.918 0 0 1-.969.946z"/><use xlink:href="#R"/><use xlink:href="#S"/><path d="M759.465 497.373a1.584 1.584 0 1 1 1.584-1.584 1.578 1.578 0 0 1-1.584 1.584zm0 13.466a.924.924 0 0 1-.969-.924V500.1a.929.929 0 0 1 .969-.946.907.907 0 0 1 .924.946v9.813a.888.888 0 0 1-.924.924z"/><path d="M405.43 714.268a.906.906 0 0 1-.924-.946V703.2l-4.27 7.966a.961.961 0 0 1-.879.594 1.048 1.048 0 0 1-.881-.594l-4.246-7.922v10.078a.918.918 0 0 1-.969.946.906.906 0 0 1-.924-.946V699.57a.926.926 0 0 1 1.012-.99.845.845 0 0 1 .793.55l5.215 9.703 5.236-9.703a.844.844 0 0 1 .857-.55.912.912 0 0 1 .947.99v13.752a.918.918 0 0 1-.969.946z"/><use xlink:href="#R" x="-332.719" y="203.406"/><use xlink:href="#S" x="-332.719" y="203.417"/><path d="M426.746 700.78a1.584 1.584 0 1 1 1.584-1.584 1.578 1.578 0 0 1-1.584 1.584zm0 13.466a.925.925 0 0 1-.969-.924v-9.813a.929.929 0 0 1 .969-.946.907.907 0 0 1 .924.946v9.813a.888.888 0 0 1-.924.924z"/><path d="M349.514 836.817h-9.152a.954.954 0 0 1-.969-.924v-13.796a.958.958 0 0 1 .969-.946h9.152a.89.89 0 0 1 .925.924.919.919 0 0 1-.925.946h-8.23v4.444h5.765a.94.94 0 0 1 .946.946.926.926 0 0 1-.946.946h-5.765v5.6h8.23a.906.906 0 0 1 .925.946.89.89 0 0 1-.925.924zm6.38 0h-.373c-2.1 0-2.883-1.1-2.883-2.904v-6.9h-.66a.935.935 0 1 1-.021-1.87h.66v-3.06a.892.892 0 0 1 .945-.924.876.876 0 0 1 .924.924v3.06h1.408a.912.912 0 0 1 .925.924.895.895 0 0 1-.925.946h-1.408v7.107c0 .616.22.836.837.836h.55a.908.908 0 0 1 .946.924.895.895 0 0 1-.925.946zm11.11 0a.888.888 0 0 1-.924-.924v-6.117a3.136 3.136 0 1 0-6.271 0v6.095a.936.936 0 0 1-.969.969.907.907 0 0 1-.924-.946v-13.796a.947.947 0 0 1 1.893-.022v3.807a4.436 4.436 0 0 1 3.125-1.122 5.056 5.056 0 0 1 5.016 5.017v6.095a.899.899 0 0 1-.945.946z"/><use xlink:href="#G" x="193.895" y="-27.48"/><use xlink:href="#T"/><path d="M392.06 837.19a4.819 4.819 0 0 1-3.631-1.452v4.774a.917.917 0 0 1-.968.946.906.906 0 0 1-.924-.946V826.08a.906.906 0 0 1 .924-.946.917.917 0 0 1 .968.946 5.282 5.282 0 0 1 3.631-1.343c3.543 0 5.523 2.904 5.523 6.205 0 3.345-1.98 6.25-5.523 6.25zm0-10.583c-2.178 0-3.63 1.737-3.63 4.334 0 2.64 1.43 4.38 3.63 4.38s3.63-1.717 3.63-4.356c0-2.62-1.43-4.356-3.63-4.356z"/><use xlink:href="#U"/><use xlink:href="#V"/><path d="M573.8 913.37a.947.947 0 0 1-.727-.396l-4.576-6.403h-2.84v5.83a.917.917 0 0 1-.968.946.9.9 0 0 1-.924-.924V898.63a.913.913 0 0 1 .924-.946h5.698a4.442 4.442 0 0 1 .374 8.867l3.85 5.303a.863.863 0 0 1 .198.572 1.012 1.012 0 0 1-1.012.946zm-3.434-13.818h-4.708v5.148h4.687a2.574 2.574 0 0 0 .021-5.148zm20.814 3.368l-3.4 9.66a1.001 1.001 0 0 1-.968.771c-.463 0-.727-.198-.925-.77l-2.574-7.26-2.597 7.26a.953.953 0 0 1-1.87 0l-3.388-9.66a.959.959 0 0 1 .924-1.254.872.872 0 0 1 .857.616l2.553 7.35 2.596-7.195c.177-.506.396-.77.925-.77.483 0 .748.242.924.77l2.575 7.195 2.574-7.35a.865.865 0 0 1 .836-.616.978.978 0 0 1 1.012.924.912.912 0 0 1-.044.33z"/><use xlink:href="#V" x="188.701" y="76.531"/><use xlink:href="#W"/><path d="M626.918 913.326a.893.893 0 0 1-.946-.924 5.322 5.322 0 0 1-3.63 1.32c-3.543 0-5.523-2.904-5.523-6.227 0-3.3 1.98-6.205 5.523-6.205a4.852 4.852 0 0 1 3.63 1.43v-4.092a.946.946 0 0 1 1.893-.022v13.796a.893.893 0 0 1-.946.924zm-4.576-10.165c-2.2 0-3.63 1.716-3.63 4.335 0 2.64 1.43 4.356 3.63 4.356 2.222 0 3.63-1.717 3.63-4.356 0-2.62-1.408-4.335-3.63-4.335z"/><use xlink:href="#X"/><path d="M800.36 311.924a.947.947 0 0 1-.727-.396l-4.576-6.403h-2.84v5.83a.917.917 0 0 1-.968.946.901.901 0 0 1-.924-.924V297.18a.913.913 0 0 1 .924-.946h5.7a4.442 4.442 0 0 1 .374 8.867l3.85 5.303a.867.867 0 0 1 .197.572 1.012 1.012 0 0 1-1.012.946zm-3.433-13.818h-4.7v5.148h4.687a2.574 2.574 0 0 0 .022-5.148zm20.813 3.366l-3.4 9.66a1 1 0 0 1-.968.77c-.462 0-.727-.198-.925-.77l-2.574-7.26-2.596 7.26a.953.953 0 0 1-1.871 0l-3.388-9.66a.959.959 0 0 1 .924-1.254.873.873 0 0 1 .858.616l2.552 7.35 2.597-7.195c.176-.506.396-.77.924-.77.484 0 .748.242.925.77l2.574 7.195 2.574-7.35a.865.865 0 0 1 .836-.616.978.978 0 0 1 1.012.924.912.912 0 0 1-.044.33z"/><use xlink:href="#Y"/><path d="M840.907 311.9a.889.889 0 0 1-.925-.924v-6.117a3.135 3.135 0 1 0-6.27 0v6.095a.936.936 0 0 1-.969.969.906.906 0 0 1-.924-.946v-9.836a.875.875 0 0 1 .924-.924.92.92 0 0 1 .946.726 5.026 5.026 0 0 1 8.163 3.917v6.095a.899.899 0 0 1-.945.946zm12.593-.02a.894.894 0 0 1-.946-.924 5.322 5.322 0 0 1-3.63 1.32c-3.543 0-5.523-2.904-5.523-6.227 0-3.3 1.98-6.205 5.523-6.205a4.849 4.849 0 0 1 3.63 1.43v-4.092a.947.947 0 0 1 1.893-.022v13.796a.893.893 0 0 1-.946.924zm-4.576-10.165c-2.2 0-3.63 1.716-3.63 4.335 0 2.64 1.43 4.356 3.63 4.356 2.222 0 3.63-1.717 3.63-4.356 0-2.62-1.408-4.335-3.63-4.335z"/><use xlink:href="#J" x="640.87" y="-552.397"/><path d="M266.05 489.706a.906.906 0 0 1-.924-.946v-10.122l-4.27 7.966a.963.963 0 0 1-.88.594 1.049 1.049 0 0 1-.881-.594l-4.246-7.922v10.078a.917.917 0 0 1-.969.946.906.906 0 0 1-.924-.946v-13.752a.926.926 0 0 1 1.013-.99.843.843 0 0 1 .792.55l5.215 9.703 5.236-9.703a.844.844 0 0 1 .858-.55.912.912 0 0 1 .946.99v13.752a.918.918 0 0 1-.969.946zm14.06-.023a2.142 2.142 0 0 1-1.958-1.254 5.044 5.044 0 0 1-3.873 1.628c-3.586 0-5.522-2.948-5.522-6.227s1.98-6.205 5.522-6.205a4.863 4.863 0 0 1 3.631 1.452V479a.908.908 0 0 1 .924-.99.885.885 0 0 1 .969.924v8.493a.356.356 0 0 0 .308.396.935.935 0 1 1 0 1.87zm-5.83-10.187c-2.2 0-3.63 1.716-3.63 4.335 0 2.64 1.43 4.356 3.63 4.356 2.223 0 3.63-1.717 3.63-4.356 0-2.62-1.408-4.335-3.63-4.335z"/><use xlink:href="#Z"/><use xlink:href="#L" x="-219.954" y="-221.391"/><use xlink:href="#K" x="-184.502" y="-221.39"/><path d="M308.663 489.683h-.374c-2.09 0-2.883-1.1-2.883-2.904v-6.91h-.66a.935.935 0 1 1-.021-1.87h.66v-3.06a.893.893 0 0 1 .946-.924.876.876 0 0 1 .924.924V478h1.408a.912.912 0 0 1 .924.924.895.895 0 0 1-.924.946h-1.408v7.107c0 .616.22.836.836.836h.55a.908.908 0 0 1 .946.924.895.895 0 0 1-.924.946z"/><use xlink:href="#G" x="134.586" y="-374.612"/><use xlink:href="#a"/><use xlink:href="#b"/><path d="M311.18 670.01a.907.907 0 0 1-.925-.946V658.94l-4.27 7.966a.963.963 0 0 1-.88.594 1.047 1.047 0 0 1-.88-.594l-4.247-7.922v10.078a.917.917 0 0 1-.968.946.906.906 0 0 1-.924-.946V655.3a.926.926 0 0 1 1.012-.99.843.843 0 0 1 .792.55l5.215 9.703 5.236-9.703a.845.845 0 0 1 .858-.55.911.911 0 0 1 .946.99v13.752a.917.917 0 0 1-.968.946z"/><use xlink:href="#T" x="-59.873" y="-166.83"/><use xlink:href="#L" x="-187.585" y="-41.087"/><use xlink:href="#c"/><use xlink:href="#d"/><path d="M365 668.688a5.109 5.109 0 0 1-3.938 1.672c-3.542 0-5.522-2.904-5.522-6.227 0-3.3 1.98-6.205 5.522-6.205a5.109 5.109 0 0 1 3.938 1.672.957.957 0 0 1 .265.639 1.026 1.026 0 0 1-.99.946 1.045 1.045 0 0 1-.683-.309 3.233 3.233 0 0 0-2.53-1.078c-2.2 0-3.63 1.716-3.63 4.335 0 2.64 1.43 4.356 3.63 4.356a3.271 3.271 0 0 0 2.53-1.078.879.879 0 0 1 .683-.33.949.949 0 0 1 .726 1.606z"/><use xlink:href="#c" x="33.703"/><path d="M751.968 225.82a.907.907 0 0 1-.925-.946V214.75l-4.27 7.966a.963.963 0 0 1-.88.594 1.047 1.047 0 0 1-.88-.594l-4.247-7.922v10.078a.917.917 0 0 1-.968.946.906.906 0 0 1-.924-.946V211.12a.926.926 0 0 1 1.012-.99.843.843 0 0 1 .792.55l5.215 9.703 5.236-9.703a.845.845 0 0 1 .858-.55.911.911 0 0 1 .946.99v13.752a.917.917 0 0 1-.968.946z"/><use xlink:href="#T" x="380.914" y="-611.02"/><use xlink:href="#L" x="253.202" y="-485.277"/><use xlink:href="#c" x="440.787" y="-444.19"/><use xlink:href="#d" x="440.788" y="-444.188"/><path d="M805.777 224.5a5.109 5.109 0 0 1-3.938 1.672c-3.542 0-5.522-2.904-5.522-6.227 0-3.3 1.98-6.205 5.522-6.205a5.109 5.109 0 0 1 3.938 1.672.957.957 0 0 1 .265.639 1.026 1.026 0 0 1-.99.946 1.045 1.045 0 0 1-.683-.309 3.233 3.233 0 0 0-2.53-1.078c-2.2 0-3.63 1.716-3.63 4.335 0 2.64 1.43 4.356 3.63 4.356a3.27 3.27 0 0 0 2.53-1.078.879.879 0 0 1 .683-.33.949.949 0 0 1 .726 1.606z"/><use xlink:href="#c" x="474.49" y="-444.19"/><path d="M567.637 278.7a.907.907 0 0 1-.924-.947v-10.12l-4.27 7.965a.961.961 0 0 1-.88.594 1.046 1.046 0 0 1-.881-.594l-4.246-7.922v10.078a.918.918 0 0 1-.969.947.907.907 0 0 1-.924-.947v-13.752a.926.926 0 0 1 1.013-.99.844.844 0 0 1 .792.551l5.215 9.703 5.236-9.703a.844.844 0 0 1 .858-.551.912.912 0 0 1 .946.99v13.752a.918.918 0 0 1-.969.947zm14.057-.022a2.14 2.14 0 0 1-1.958-1.254 5.041 5.041 0 0 1-3.873 1.629c-3.586 0-5.522-2.95-5.522-6.227s1.98-6.205 5.522-6.205a4.859 4.859 0 0 1 3.631 1.451v-.088a.908.908 0 0 1 .924-.99.885.885 0 0 1 .969.924v8.494a.357.357 0 0 0 .308.396.935.935 0 1 1 0 1.869zm-5.83-10.187c-2.2 0-3.63 1.717-3.63 4.336 0 2.64 1.43 4.355 3.63 4.355 2.223 0 3.63-1.717 3.63-4.355 0-2.62-1.408-4.336-3.63-4.336zm16.853 10.21a.898.898 0 0 1-.925-.727 5.123 5.123 0 0 1-3.169 1.1 5.057 5.057 0 0 1-5.016-5.018v-6.094a.946.946 0 0 1 1.892-.021v6.115a3.135 3.135 0 1 0 6.27 0v-6.094a.879.879 0 0 1 .925-.969.9.9 0 0 1 .946.947v9.834a.877.877 0 0 1-.924.926z"/><use xlink:href="#e"/><use xlink:href="#f"/><path d="M610.25 278.678h-.374c-2.1 0-2.883-1.1-2.883-2.904v-6.908h-.66a.936.936 0 0 1-.021-1.871h.66v-3.06a.894.894 0 0 1 .946-.924.877.877 0 0 1 .924.924v3.06h1.408a.913.913 0 0 1 .925.924.896.896 0 0 1-.925.947h-1.408v7.107c0 .615.22.836.837.836h.55a.908.908 0 0 1 .947.924.895.895 0 0 1-.925.945z"/><use xlink:href="#f" x="10.009"/><path d="M625.45 278.7a.897.897 0 0 1-.924-.727 5.127 5.127 0 0 1-3.169 1.1 5.057 5.057 0 0 1-5.017-5.018v-6.094a.947.947 0 0 1 1.893-.021v6.115a3.135 3.135 0 1 0 6.27 0v-6.094a.878.878 0 0 1 .925-.969.9.9 0 0 1 .945.947v9.834a.877.877 0 0 1-.924.926zm6.843.353a5.797 5.797 0 0 1-4.27-1.65 1.067 1.067 0 0 1-.197-.572 1.046 1.046 0 0 1 .99-.99.907.907 0 0 1 .682.373 3.754 3.754 0 0 0 2.795.969c1.98 0 2.618-.682 2.618-1.672 0-2.816-6.7-1.078-6.7-5.6 0-2.398 2.244-3.277 4.335-3.277 1.188 0 3.982.594 3.982 1.826a.988.988 0 0 1-.925.99 1.326 1.326 0 0 1-.726-.287 3.569 3.569 0 0 0-2.332-.66c-1.826 0-2.465.682-2.465 1.408 0 2.62 6.732.924 6.732 5.6 0 2.596-2.178 3.543-4.5 3.543z"/><path d="M874.4 220.307a.906.906 0 0 1-.924-.946V209.24l-4.27 7.966a.963.963 0 0 1-.88.594 1.049 1.049 0 0 1-.881-.594l-4.246-7.922v10.078a.917.917 0 0 1-.969.946.906.906 0 0 1-.924-.946V205.61a.926.926 0 0 1 1.013-.99.843.843 0 0 1 .792.55l5.215 9.703 5.236-9.703a.844.844 0 0 1 .858-.55.912.912 0 0 1 .946.99v13.752a.918.918 0 0 1-.969.946z"/><use xlink:href="#Y" x="58.75" y="-91.615"/><use xlink:href="#Z" x="608.35" y="-269.399"/><use xlink:href="#L" x="388.396" y="-490.789"/><use xlink:href="#K" x="423.838" y="-490.788"/><path d="M917.014 220.285h-.374c-2.09 0-2.883-1.1-2.883-2.904v-6.91h-.66a.935.935 0 1 1-.021-1.87h.66v-3.06a.893.893 0 0 1 .946-.924.876.876 0 0 1 .924.924v3.06h1.408a.912.912 0 0 1 .924.924.895.895 0 0 1-.924.946h-1.408v7.107c0 .616.22.836.836.836h.55a.908.908 0 0 1 .946.924.895.895 0 0 1-.924.946z"/><use xlink:href="#G" x="742.938" y="-644.01"/><use xlink:href="#a" x="608.351" y="-269.399"/><use xlink:href="#b" x="608.351" y="-269.397"/><path d="M897.857 248.45a5.637 5.637 0 0 1-4.907 2.398c-4.73 0-6.402-3.916-6.402-8.207 0-4.312 1.672-8.23 6.402-8.23a5.568 5.568 0 0 1 4.885 2.398.843.843 0 0 1 .198.549.954.954 0 0 1-.968.926.92.92 0 0 1-.748-.396 3.722 3.722 0 0 0-3.367-1.584c-3.124 0-4.5 2.31-4.5 6.336s1.386 6.338 4.5 6.338a3.783 3.783 0 0 0 3.367-1.607.89.89 0 0 1 .748-.418.926.926 0 0 1 .792 1.496z"/><use xlink:href="#Q" x="618.23" y="-767.776"/><path d="M917.963 250.848a5.205 5.205 0 0 1-3.631-1.32.898.898 0 0 1-.968.924.887.887 0 0 1-.924-.924v-13.773a.946.946 0 0 1 1.892-.021v4.113a4.892 4.892 0 0 1 3.631-1.43c3.543 0 5.523 2.904 5.523 6.205 0 3.322-1.98 6.227-5.523 6.227zm0-10.56c-2.2 0-3.63 1.715-3.63 4.334 0 2.64 1.43 4.357 3.63 4.357s3.63-1.717 3.63-4.357c0-2.62-1.43-4.334-3.63-4.334zm12.275 10.56c-3.542 0-5.522-2.904-5.522-6.227 0-3.3 1.98-6.205 5.522-6.205s5.523 2.904 5.523 6.205c0 3.322-1.98 6.227-5.523 6.227zm0-10.56c-2.2 0-3.63 1.715-3.63 4.334 0 2.64 1.43 4.357 3.63 4.357 2.223 0 3.63-1.717 3.63-4.357 0-2.62-1.408-4.334-3.63-4.334zm21.847-4.248l-4.62 13.686a1 1 0 0 1-.947.748 1.037 1.037 0 0 1-.924-.748l-4.643-13.686a.937.937 0 1 1 1.783-.596l3.783 11.156 3.807-11.156a.877.877 0 0 1 .859-.637.939.939 0 0 1 .99.902.688.688 0 0 1-.089.33zm9.68 9.56h-8.14a3.565 3.565 0 0 0 3.564 3.389 3.305 3.305 0 0 0 2.618-1.145.91.91 0 0 1 .683-.352 1.026 1.026 0 0 1 .99.967c0 .266-.066.463-.528.924a5.36 5.36 0 0 1-3.763 1.475c-3.543 0-5.523-2.926-5.523-6.227 0-3.277 1.98-6.205 5.523-6.205 3.586 0 5.5 2.928 5.5 6.205a.939.939 0 0 1-.925.969zm-4.576-5.303a3.608 3.608 0 0 0-3.564 3.41h7.13c-.3-2.113-1.63-3.4-3.564-3.4zm12.012-.01a3.17 3.17 0 0 0-3.125 3.146v6.094a.917.917 0 0 1-.968.947.901.901 0 0 1-.924-.924v-9.814a.932.932 0 0 1 .924-.945.903.903 0 0 1 .946.748 5.082 5.082 0 0 1 3.146-1.123.936.936 0 1 1 0 1.871zm10.956 10.163a.893.893 0 0 1-.947-.924 5.319 5.319 0 0 1-3.63 1.32c-3.542 0-5.522-2.904-5.522-6.227 0-3.3 1.98-6.205 5.522-6.205a4.853 4.853 0 0 1 3.63 1.43v-4.092a.947.947 0 0 1 1.893-.021v13.795a.892.892 0 0 1-.945.924zm-4.577-10.164c-2.2 0-3.63 1.715-3.63 4.334 0 2.64 1.43 4.357 3.63 4.357 2.222 0 3.63-1.717 3.63-4.357 0-2.62-1.408-4.334-3.63-4.334zm17.36 5.314h-8.14a3.564 3.564 0 0 0 3.564 3.389 3.302 3.302 0 0 0 2.617-1.145.912.912 0 0 1 .683-.352 1.026 1.026 0 0 1 .99.967c0 .266-.065.463-.528.924a5.358 5.358 0 0 1-3.762 1.475c-3.543 0-5.523-2.926-5.523-6.227 0-3.277 1.98-6.205 5.523-6.205 3.586 0 5.5 2.928 5.5 6.205a.938.938 0 0 1-.924.969zm-4.576-5.303a3.607 3.607 0 0 0-3.564 3.41h7.13c-.3-2.113-1.63-3.4-3.564-3.4z"/><path d="M891.6 190.473a.9.9 0 0 1-.836-.572l-1.167-2.86h-7.326l-1.188 2.86a.893.893 0 0 1-.813.572.973.973 0 0 1-.99-.924.719.719 0 0 1 .088-.375L885 175.422a.96.96 0 0 1 .902-.682.999.999 0 0 1 .902.682l5.677 13.752a1.029 1.029 0 0 1 .065.375.939.939 0 0 1-.968.924zm-5.677-12.322l-2.883 6.996h5.766zm9.68 12.364a2.245 2.245 0 0 1-2.201-2.244v-12.52a.947.947 0 0 1 1.893-.021v12.54a.349.349 0 0 0 .309.375.935.935 0 1 1 0 1.869zm7.084 4.973c-1.342 0-4.664-.484-4.664-1.803a1.022 1.022 0 0 1 .945-.99c.506 0 .066.064 1.232.506a6.891 6.891 0 0 0 2.486.418c2.442 0 3.63-1.166 3.63-3.477v-1a5.148 5.148 0 0 1-3.631 1.32c-3.477 0-5.523-2.465-5.523-5.854 0-3.3 1.98-6.205 5.523-6.205a4.745 4.745 0 0 1 3.631 1.408v-.088a.936.936 0 0 1 .945-.945.924.924 0 0 1 .947.945v10.408c0 3.498-2.1 5.346-5.523 5.346zm0-15.203c-2.2 0-3.63 1.715-3.63 4.334 0 2.508 1.32 3.982 3.63 3.982s3.63-1.475 3.63-3.982c0-2.62-1.408-4.334-3.63-4.334zm17.358 5.303h-8.142a3.565 3.565 0 0 0 3.564 3.389 3.308 3.308 0 0 0 2.619-1.145.906.906 0 0 1 .682-.352 1.026 1.026 0 0 1 .99.967c0 .266-.066.463-.527.924a5.363 5.363 0 0 1-3.764 1.475c-3.542 0-5.522-2.926-5.522-6.227 0-3.277 1.98-6.205 5.522-6.205 3.587 0 5.502 2.928 5.502 6.205a.939.939 0 0 1-.925.969zm-4.577-5.303a3.608 3.608 0 0 0-3.564 3.41h7.13c-.308-2.113-1.628-3.4-3.564-3.4zm12.013 0a3.17 3.17 0 0 0-3.124 3.146v6.094a.917.917 0 0 1-.968.947.9.9 0 0 1-.924-.924v-9.814a.932.932 0 0 1 .924-.945.903.903 0 0 1 .945.748 5.086 5.086 0 0 1 3.146-1.123.936.936 0 1 1 0 1.871zm2.375-3.28a1.584 1.584 0 1 1 1.584-1.584 1.578 1.578 0 0 1-1.584 1.584zm0 13.467a.924.924 0 0 1-.968-.924v-9.814a.928.928 0 0 1 .968-.945.906.906 0 0 1 .924.945v9.814a.888.888 0 0 1-.924.924zm14.102 0a2.142 2.142 0 0 1-1.957-1.254 5.047 5.047 0 0 1-3.873 1.627c-3.586 0-5.523-2.947-5.523-6.227s1.98-6.205 5.523-6.205a4.864 4.864 0 0 1 3.631 1.453v-.088a.908.908 0 0 1 .924-.99.885.885 0 0 1 .969.924v8.492a.355.355 0 0 0 .307.396.936.936 0 1 1 0 1.871zm-5.83-10.187c-2.2 0-3.63 1.715-3.63 4.334 0 2.64 1.43 4.357 3.63 4.357 2.223 0 3.63-1.717 3.63-4.357 0-2.62-1.408-4.334-3.63-4.334z"/><path d="M472.072 345.502a.9.9 0 0 1-.836-.572l-1.166-2.86h-7.326l-1.2 2.86a.893.893 0 0 1-.813.572.972.972 0 0 1-.99-.924.722.722 0 0 1 .088-.373l5.655-13.752a.962.962 0 0 1 .902-.684 1.002 1.002 0 0 1 .902.684l5.676 13.752a.998.998 0 0 1 .066.373.938.938 0 0 1-.969.924zm-5.676-12.322l-2.883 6.998h5.765zm9.68 12.367a2.245 2.245 0 0 1-2.201-2.244v-12.52a.947.947 0 0 1 1.893-.023v12.543a.346.346 0 0 0 .309.373.936.936 0 1 1 0 1.871zm7.084 4.973c-1.343 0-4.665-.484-4.665-1.805a1.025 1.025 0 0 1 .946-.99c.506 0 .066.066 1.232.506a6.848 6.848 0 0 0 2.486.418c2.44 0 3.63-1.166 3.63-3.477v-1a5.147 5.147 0 0 1-3.63 1.32c-3.477 0-5.523-2.465-5.523-5.852 0-3.3 1.98-6.205 5.523-6.205a4.736 4.736 0 0 1 3.63 1.408v-.088a.937.937 0 0 1 .946-.947.924.924 0 0 1 .946.947v10.406c0 3.498-2.1 5.348-5.522 5.348zm0-15.205c-2.2 0-3.63 1.717-3.63 4.336 0 2.508 1.32 3.982 3.63 3.982s3.63-1.475 3.63-3.982c0-2.62-1.408-4.336-3.63-4.336zm17.358 5.302h-8.14a3.565 3.565 0 0 0 3.564 3.389 3.299 3.299 0 0 0 2.618-1.145.916.916 0 0 1 .683-.352 1.026 1.026 0 0 1 .99.969c0 .264-.066.46-.528.924a5.36 5.36 0 0 1-3.763 1.475c-3.543 0-5.523-2.928-5.523-6.227 0-3.28 1.98-6.205 5.523-6.205 3.586 0 5.5 2.926 5.5 6.205a.938.938 0 0 1-.925.967zm-4.576-5.303a3.609 3.609 0 0 0-3.564 3.41h7.13c-.3-2.1-1.63-3.4-3.564-3.4zm12.01 0a3.171 3.171 0 0 0-3.125 3.146v6.096a.916.916 0 0 1-.968.945.901.901 0 0 1-.924-.924v-9.812a.932.932 0 0 1 .924-.947.903.903 0 0 1 .946.748 5.092 5.092 0 0 1 3.146-1.121.935.935 0 1 1 0 1.869zm2.375-3.277a1.585 1.585 0 1 1 1.584-1.584 1.578 1.578 0 0 1-1.584 1.584zm0 13.465a.924.924 0 0 1-.968-.924v-9.812a.929.929 0 0 1 .968-.947.906.906 0 0 1 .924.947v9.813a.886.886 0 0 1-.924.924z"/><use xlink:href="#g"/><path d="M658.394 684.197h-9.153a.954.954 0 0 1-.968-.924v-13.795a.958.958 0 0 1 .968-.947h9.153a.89.89 0 0 1 .925.924.919.919 0 0 1-.925.947h-8.23v4.443h5.765a.94.94 0 0 1 .946.947.925.925 0 0 1-.946.945h-5.765v5.6h8.23a.906.906 0 0 1 .925.945.89.89 0 0 1-.925.924zm6.38 0h-.374c-2.1 0-2.882-1.1-2.882-2.904v-6.908h-.66a.936.936 0 0 1-.022-1.871h.66v-3.06a.894.894 0 0 1 .946-.924.876.876 0 0 1 .924.924v3.06h1.408a.913.913 0 0 1 .925.924.896.896 0 0 1-.925.947h-1.408v7.107c0 .615.22.836.837.836h.55a.908.908 0 0 1 .946.924.895.895 0 0 1-.925.945zm11.11 0a.889.889 0 0 1-.925-.924v-6.117a3.135 3.135 0 1 0-6.271 0v6.096a.936.936 0 0 1-.969.969.907.907 0 0 1-.924-.947V669.48a.947.947 0 0 1 1.893-.023v3.807a4.437 4.437 0 0 1 3.124-1.121 5.056 5.056 0 0 1 5.017 5.016v6.096a.899.899 0 0 1-.945.945z"/><use xlink:href="#f" x="76.611" y="405.519"/><path d="M688.158 684.572c-3.542 0-5.522-2.904-5.522-6.227 0-3.3 1.98-6.205 5.522-6.205s5.523 2.904 5.523 6.205c0 3.322-1.98 6.227-5.523 6.227zm0-10.562c-2.2 0-3.63 1.717-3.63 4.336 0 2.64 1.43 4.355 3.63 4.355 2.223 0 3.63-1.717 3.63-4.355 0-2.62-1.408-4.336-3.63-4.336zm12.782 10.562a4.819 4.819 0 0 1-3.631-1.453v4.775a.917.917 0 0 1-.968.945.906.906 0 0 1-.924-.945V673.46a.907.907 0 0 1 .924-.947.917.917 0 0 1 .968.947 5.281 5.281 0 0 1 3.631-1.344c3.542 0 5.522 2.904 5.522 6.205 0 3.346-1.98 6.25-5.522 6.25zm0-10.584c-2.18 0-3.63 1.738-3.63 4.334 0 2.64 1.43 4.38 3.63 4.38s3.63-1.717 3.63-4.355c0-2.62-1.43-4.357-3.63-4.357z"/><use xlink:href="#f" x="105.936" y="405.519"/><path d="M723.316 684.197a2.141 2.141 0 0 1-1.959-1.254 5.039 5.039 0 0 1-3.872 1.629c-3.587 0-5.523-2.95-5.523-6.227s1.98-6.205 5.523-6.205a4.859 4.859 0 0 1 3.63 1.451v-.088a.909.909 0 0 1 .925-.99.884.884 0 0 1 .968.924v8.494a.357.357 0 0 0 .309.396.935.935 0 1 1 0 1.869zM717.485 674c-2.2 0-3.63 1.717-3.63 4.336 0 2.64 1.43 4.355 3.63 4.355 2.222 0 3.63-1.717 3.63-4.355 0-2.62-1.408-4.336-3.63-4.336z"/><path d="M943.412 377.417h-9.154a.953.953 0 0 1-.967-.924v-13.796a.957.957 0 0 1 .967-.946h9.154a.889.889 0 0 1 .924.924.919.919 0 0 1-.924.946h-8.23v4.444h5.765a.939.939 0 0 1 .946.946.926.926 0 0 1-.946.946h-5.765v5.6h8.23a.906.906 0 0 1 .924.946.889.889 0 0 1-.924.924zm6.378 0h-.375c-2.1 0-2.882-1.1-2.882-2.904v-6.9h-.66a.935.935 0 0 1-.022-1.87h.66v-3.06a.894.894 0 0 1 .947-.924.876.876 0 0 1 .924.924v3.06h1.408a.912.912 0 0 1 .924.924.895.895 0 0 1-.924.946h-1.408v7.107c0 .616.22.836.836.836h.55a.908.908 0 0 1 .946.924.895.895 0 0 1-.924.946zm11.1 0a.889.889 0 0 1-.925-.924v-6.117a3.135 3.135 0 1 0-6.27 0v6.095a.936.936 0 0 1-.968.969.906.906 0 0 1-.924-.946v-13.796a.946.946 0 0 1 1.892-.022v3.807a4.433 4.433 0 0 1 3.124-1.122 5.058 5.058 0 0 1 5.018 5.017v6.095a.9.9 0 0 1-.946.946z"/><use xlink:href="#U" x="564.572" y="-459.4"/><use xlink:href="#c" x="635.113" y="-292.57"/><path d="M985.958 377.79a4.815 4.815 0 0 1-3.63-1.452v4.774a.918.918 0 0 1-.969.946.906.906 0 0 1-.924-.946V366.68a.906.906 0 0 1 .924-.946.918.918 0 0 1 .969.946 5.278 5.278 0 0 1 3.63-1.343c3.542 0 5.522 2.904 5.522 6.205 0 3.345-1.98 6.25-5.522 6.25zm0-10.583c-2.18 0-3.63 1.737-3.63 4.334 0 2.64 1.43 4.38 3.63 4.38s3.63-1.717 3.63-4.356c0-2.62-1.43-4.356-3.63-4.356z"/><use xlink:href="#G" x="817.118" y="-486.88"/><use xlink:href="#R" x="256.127" y="-133.423"/><use xlink:href="#h"/><use xlink:href="#H" x="-55.741" y="-199.47"/><path d="M146.937 654.463l-5.94 13.5a2.523 2.523 0 0 1-2.421 1.475h-.704a.888.888 0 0 1-.924-.969.875.875 0 0 1 .924-.924h.683c.286 0 .594-.044.726-.353l1.452-3.256-4.3-9.483a.797.797 0 0 1-.11-.418.992.992 0 0 1 1.012-.925.849.849 0 0 1 .793.572l3.586 7.966 3.5-7.966a.871.871 0 0 1 .813-.55.975.975 0 0 1 1.013.902.75.75 0 0 1-.11.418zm6.797 10.737a4.815 4.815 0 0 1-3.63-1.452v4.774a.917.917 0 0 1-.969.946.906.906 0 0 1-.924-.946V654.1a.906.906 0 0 1 .924-.946.917.917 0 0 1 .969.946 5.278 5.278 0 0 1 3.63-1.343c3.543 0 5.523 2.904 5.523 6.205 0 3.345-1.98 6.25-5.523 6.25zm0-10.583c-2.178 0-3.63 1.737-3.63 4.334 0 2.64 1.43 4.38 3.63 4.38s3.63-1.717 3.63-4.356c0-2.62-1.43-4.356-3.63-4.356z"/><use xlink:href="#i"/><path d="M439.45 784.686a.9.9 0 0 1-.836-.572l-1.166-2.86h-7.327l-1.188 2.86a.893.893 0 0 1-.813.572.972.972 0 0 1-.99-.924.716.716 0 0 1 .088-.374l5.654-13.752a.962.962 0 0 1 .902-.683.999.999 0 0 1 .902.683l5.677 13.752a1.023 1.023 0 0 1 .066.374.939.939 0 0 1-.969.924zm-5.677-12.322l-2.882 6.997h5.765zm16.697 12.322a.889.889 0 0 1-.924-.924v-6.117a3.136 3.136 0 1 0-6.271 0v6.095a.936.936 0 0 1-.969.969.906.906 0 0 1-.924-.946v-9.836a.875.875 0 0 1 .924-.924.92.92 0 0 1 .946.726 5.026 5.026 0 0 1 8.163 3.917v6.095a.9.9 0 0 1-.946.946zm8 5.017c-1.343 0-4.665-.484-4.665-1.804a1.024 1.024 0 0 1 .946-.99c.506 0 .066.065 1.232.506a6.869 6.869 0 0 0 2.486.418c2.442 0 3.63-1.166 3.63-3.477v-1a5.144 5.144 0 0 1-3.63 1.32c-3.477 0-5.523-2.465-5.523-5.853 0-3.3 1.98-6.205 5.523-6.205a4.738 4.738 0 0 1 3.63 1.408v-.088a.937.937 0 0 1 .946-.946.924.924 0 0 1 .946.946v10.407c0 3.498-2.1 5.347-5.523 5.347zm0-15.204c-2.2 0-3.63 1.716-3.63 4.335 0 2.508 1.32 3.982 3.63 3.982s3.63-1.475 3.63-3.982c0-2.62-1.408-4.335-3.63-4.335z"/><use xlink:href="#T" x="91.98" y="-52.13"/><use xlink:href="#S" x="-275.797" y="273.847"/><path d="M493.502 784.686a2.142 2.142 0 0 1-1.958-1.254 5.042 5.042 0 0 1-3.872 1.628c-3.587 0-5.523-2.948-5.523-6.227s1.98-6.205 5.523-6.205a4.859 4.859 0 0 1 3.63 1.452v-.088a.908.908 0 0 1 .925-.99.884.884 0 0 1 .968.924v8.493a.357.357 0 0 0 .308.396.935.935 0 1 1 0 1.87zm-5.83-10.187c-2.2 0-3.63 1.716-3.63 4.335 0 2.64 1.43 4.356 3.63 4.356 2.222 0 3.63-1.717 3.63-4.356 0-2.62-1.408-4.335-3.63-4.335z"/><path d="M949.358 444.406a.9.9 0 0 1-.836-.572l-1.166-2.86h-7.326l-1.2 2.86a.893.893 0 0 1-.813.572.973.973 0 0 1-.99-.924.725.725 0 0 1 .088-.374l5.655-13.752a.96.96 0 0 1 .902-.683 1.001 1.001 0 0 1 .902.683l5.676 13.752a1.004 1.004 0 0 1 .066.374.939.939 0 0 1-.969.924zm-5.676-12.322l-2.883 6.997h5.765zm16.698 12.322a.889.889 0 0 1-.925-.924v-6.117a3.136 3.136 0 1 0-6.271 0v6.095a.936.936 0 0 1-.968.969.906.906 0 0 1-.924-.946v-9.836a.875.875 0 0 1 .924-.924.919.919 0 0 1 .945.726 5.026 5.026 0 0 1 8.164 3.917v6.095a.9.9 0 0 1-.946.946zm8.007 5.017c-1.342 0-4.664-.484-4.664-1.804a1.023 1.023 0 0 1 .945-.99c.506 0 .066.065 1.232.506a6.869 6.869 0 0 0 2.486.418c2.442 0 3.63-1.166 3.63-3.477v-1a5.148 5.148 0 0 1-3.631 1.32c-3.477 0-5.523-2.465-5.523-5.853 0-3.3 1.98-6.205 5.523-6.205a4.742 4.742 0 0 1 3.631 1.408v-.088a.936.936 0 0 1 .945-.946.924.924 0 0 1 .947.946v10.407c0 3.498-2.1 5.347-5.523 5.347zm0-15.204c-2.2 0-3.63 1.716-3.63 4.335 0 2.508 1.32 3.982 3.63 3.982s3.63-1.475 3.63-3.982c0-2.62-1.408-4.335-3.63-4.335z"/><use xlink:href="#j"/><use xlink:href="#S" x="234.111" y="-66.433"/><use xlink:href="#R" x="251.204" y="-66.434"/><path d="M718.15 183.5h-3.65v12.872a.888.888 0 0 1-.924.924.919.919 0 0 1-.946-.924V183.5h-3.608a.929.929 0 0 1-.968-.946.918.918 0 0 1 .945-.924h9.153a.935.935 0 1 1 0 1.87zm9.722 13.828a.897.897 0 0 1-.924-.727 5.124 5.124 0 0 1-3.169 1.101 5.058 5.058 0 0 1-5.017-5.018V186.6a.947.947 0 0 1 1.893-.021v6.116a3.135 3.135 0 1 0 6.27 0V186.6a.878.878 0 0 1 .925-.968.9.9 0 0 1 .946.946v9.835a.877.877 0 0 1-.925.925zm12.255-.022a.889.889 0 0 1-.925-.924v-6.117a3.135 3.135 0 1 0-6.271 0v6.095a.936.936 0 0 1-.969.969.906.906 0 0 1-.924-.946v-9.836a.875.875 0 0 1 .924-.924.92.92 0 0 1 .946.726 5.026 5.026 0 0 1 8.163 3.917v6.095a.899.899 0 0 1-.945.946z"/><use xlink:href="#K" x="257.928" y="-513.768"/><path d="M751.06 197.68a5.791 5.791 0 0 1-4.269-1.65.974.974 0 0 1 .792-1.562.906.906 0 0 1 .682.374 3.759 3.759 0 0 0 2.795.969c1.98 0 2.618-.683 2.618-1.672 0-2.816-6.71-1.08-6.71-5.61 0-2.398 2.244-3.278 4.335-3.278 1.188 0 3.982.594 3.982 1.826a.988.988 0 0 1-.924.99 1.327 1.327 0 0 1-.727-.286 3.568 3.568 0 0 0-2.332-.66c-1.826 0-2.465.682-2.465 1.408 0 2.618 6.733.924 6.733 5.61 0 2.596-2.18 3.542-4.51 3.542z"/><use xlink:href="#G" x="580.855" y="-666.99"/><use xlink:href="#Y" x="-57.64" y="-114.594"/><use xlink:href="#h" x="327.878" y="-279.221"/><use xlink:href="#H" x="272.137" y="-478.691"/><use xlink:href="#k"/><path d="M481.61 385.98a4.815 4.815 0 0 1-3.63-1.452v4.774a.917.917 0 0 1-.969.946.906.906 0 0 1-.924-.946v-14.434a.906.906 0 0 1 .924-.946.917.917 0 0 1 .969.946 5.278 5.278 0 0 1 3.63-1.343c3.543 0 5.523 2.904 5.523 6.205 0 3.345-1.98 6.25-5.523 6.25zm0-10.583c-2.178 0-3.63 1.737-3.63 4.334 0 2.64 1.43 4.38 3.63 4.38s3.63-1.717 3.63-4.356c0-2.62-1.43-4.356-3.63-4.356z"/><use xlink:href="#i" x="327.88" y="-279.221"/><path d="M138.33 599.207a8.28 8.28 0 0 1-5.104-1.826.88.88 0 0 1-.309-.683.953.953 0 0 1 .946-.945c.33 0 .44.1.836.418a5.96 5.96 0 0 0 3.63 1.166c2.62 0 3.764-.946 3.764-2.574 0-4.577-8.78-1.98-8.78-7.966 0-2.684 2.266-4.026 5.17-4.026a6.755 6.755 0 0 1 4.775 1.87.87.87 0 0 1 .242.595 1.026 1.026 0 0 1-.947.99c-.33 0-.506-.154-.88-.484a4.837 4.837 0 0 0-3.191-1.078c-2.376 0-3.277.946-3.277 2.134 0 4.115 8.778 1.673 8.778 7.966 0 3.278-2.75 4.444-5.655 4.444zm8.206-.352a1.578 1.578 0 0 1-1.584-1.585 1.585 1.585 0 0 1 3.169 0 1.579 1.579 0 0 1-1.585 1.585zm19.074-.022a.9.9 0 0 1-.836-.572l-1.166-2.86h-7.327l-1.188 2.86a.894.894 0 0 1-.814.572.973.973 0 0 1-.99-.924.725.725 0 0 1 .088-.374l5.655-13.752a.962.962 0 0 1 .902-.683.999.999 0 0 1 .902.683l5.677 13.752a1.023 1.023 0 0 1 .066.374.94.94 0 0 1-.969.924zm-5.677-12.322l-2.882 6.997h5.764zm10.447 2.51h-1v8.867a.899.899 0 0 1-.968.924.887.887 0 0 1-.924-.924v-8.867h-.902a.935.935 0 0 1 0-1.87h.902v-1.496a2.507 2.507 0 0 1 2.529-2.486.936.936 0 1 1 0 1.87.617.617 0 0 0-.638.594v1.52h1a.936.936 0 1 1 0 1.87z"/><use xlink:href="#l"/><path d="M179.84 585.367a1.584 1.584 0 1 1 1.584-1.584 1.578 1.578 0 0 1-1.584 1.584zm0 13.466a.924.924 0 0 1-.969-.924v-9.813a.929.929 0 0 1 .969-.946.907.907 0 0 1 .924.946v9.813a.888.888 0 0 1-.924.924zm12.2-1.298a5.112 5.112 0 0 1-3.939 1.672c-3.542 0-5.522-2.904-5.522-6.227 0-3.3 1.98-6.205 5.522-6.205a5.112 5.112 0 0 1 3.939 1.672.96.96 0 0 1 .264.639 1.026 1.026 0 0 1-.99.946 1.045 1.045 0 0 1-.682-.309 3.237 3.237 0 0 0-2.531-1.078c-2.2 0-3.63 1.716-3.63 4.335 0 2.64 1.43 4.356 3.63 4.356a3.274 3.274 0 0 0 2.531-1.078.875.875 0 0 1 .682-.33.95.95 0 0 1 .727 1.606zm12.606 1.298a2.144 2.144 0 0 1-1.959-1.254 5.042 5.042 0 0 1-3.872 1.628c-3.587 0-5.522-2.948-5.522-6.227s1.98-6.205 5.522-6.205a4.859 4.859 0 0 1 3.63 1.452v-.088a.908.908 0 0 1 .925-.99.884.884 0 0 1 .968.924v8.493a.357.357 0 0 0 .309.396.935.935 0 1 1 0 1.87zm-5.83-10.187c-2.2 0-3.63 1.716-3.63 4.335 0 2.64 1.43 4.356 3.63 4.356 2.222 0 3.63-1.717 3.63-4.356 0-2.62-1.408-4.335-3.63-4.335z"/><use xlink:href="#m"/><path d="M431.383 431.997a1.578 1.578 0 0 1-1.584-1.585 1.585 1.585 0 0 1 3.168 0 1.577 1.577 0 0 1-1.584 1.585z"/><use xlink:href="#n"/><use xlink:href="#o"/><use xlink:href="#I" x="252.13" y="-432.323"/><use xlink:href="#G" x="287.574" y="-432.32"/><use xlink:href="#p"/><use xlink:href="#q"/><use xlink:href="#m" x="254.764" y="-5.41"/><path d="M686.147 426.587a1.578 1.578 0 0 1-1.584-1.585 1.585 1.585 0 0 1 3.168 0 1.577 1.577 0 0 1-1.584 1.585z"/><use xlink:href="#n" x="254.764" y="-5.41"/><use xlink:href="#o" x="254.773" y="-5.41"/><use xlink:href="#I" x="506.894" y="-437.733"/><use xlink:href="#G" x="542.338" y="-437.732"/><use xlink:href="#p" x="254.763" y="-5.411"/><use xlink:href="#q" x="254.764" y="-5.41"/><path d="M107.19 993.787a8.28 8.28 0 0 1-5.104-1.826.88.88 0 0 1-.309-.683.953.953 0 0 1 .947-.945c.33 0 .44.11.836.418a5.958 5.958 0 0 0 3.63 1.166c2.618 0 3.763-.946 3.763-2.574 0-4.577-8.78-1.98-8.78-7.966 0-2.684 2.267-4.026 5.17-4.026a6.753 6.753 0 0 1 4.774 1.87.87.87 0 0 1 .242.595 1.026 1.026 0 0 1-.946.99c-.33 0-.506-.154-.88-.484a4.834 4.834 0 0 0-3.19-1.078c-2.376 0-3.278.946-3.278 2.134 0 4.115 8.78 1.673 8.78 7.966 0 3.278-2.75 4.444-5.655 4.444z"/><use xlink:href="#U" x="-285.18" y="156.597"/><path d="M128 988.528h-8.142a3.565 3.565 0 0 0 3.564 3.389 3.305 3.305 0 0 0 2.619-1.145.91.91 0 0 1 .682-.352 1.026 1.026 0 0 1 .99.968c0 .265-.066.462-.527.924a5.363 5.363 0 0 1-3.764 1.475c-3.542 0-5.522-2.927-5.522-6.227 0-3.278 1.98-6.205 5.522-6.205 3.587 0 5.502 2.927 5.502 6.205a.939.939 0 0 1-.925.968zm-4.577-5.303a3.609 3.609 0 0 0-3.564 3.41h7.13c-.308-2.112-1.628-3.4-3.564-3.4zm12.013 0a3.171 3.171 0 0 0-3.124 3.146v6.095a.917.917 0 0 1-.968.946.9.9 0 0 1-.924-.924v-9.813a.932.932 0 0 1 .924-.946.903.903 0 0 1 .945.748 5.091 5.091 0 0 1 3.146-1.122.936.936 0 1 1 0 1.87z"/><use xlink:href="#I" x="-68.363" y="129.115"/><use xlink:href="#X" x="-487.437" y="80.065"/><path d="M167.793 993.413h-6.688a.953.953 0 0 1-.968-.924v-13.796a.946.946 0 0 1 1.893-.022v12.872h5.764a.935.935 0 0 1 0 1.87z"/><use xlink:href="#r"/><path d="M186.867 993.787c-3.543 0-5.523-2.904-5.523-6.227 0-3.3 1.98-6.205 5.523-6.205s5.523 2.904 5.523 6.205c0 3.322-1.98 6.227-5.523 6.227zm0-10.562c-2.2 0-3.63 1.716-3.63 4.335 0 2.64 1.43 4.356 3.63 4.356 2.223 0 3.63-1.717 3.63-4.356 0-2.62-1.408-4.335-3.63-4.335z"/><use xlink:href="#W" x="-411.121" y="80.065"/><use xlink:href="#r" x="36.365"/><path d="M568.22 858.015a8.282 8.282 0 0 1-5.105-1.826.879.879 0 0 1-.308-.683.952.952 0 0 1 .945-.945c.33 0 .44.11.836.418a5.962 5.962 0 0 0 3.631 1.166c2.62 0 3.763-.946 3.763-2.574 0-4.577-8.78-1.98-8.78-7.966 0-2.684 2.267-4.026 5.17-4.026a6.755 6.755 0 0 1 4.774 1.87.866.866 0 0 1 .242.595 1.025 1.025 0 0 1-.946.99c-.33 0-.506-.154-.88-.484a4.834 4.834 0 0 0-3.19-1.078c-2.377 0-3.278.946-3.278 2.134 0 4.115 8.778 1.673 8.778 7.966 0 3.278-2.75 4.444-5.654 4.444z"/><use xlink:href="#G" x="399.073" y="-6.654"/><path d="M589.033 852.757h-8.14a3.564 3.564 0 0 0 3.564 3.389 3.299 3.299 0 0 0 2.617-1.145.915.915 0 0 1 .683-.352 1.026 1.026 0 0 1 .99.968c0 .265-.065.462-.528.924a5.358 5.358 0 0 1-3.762 1.475c-3.543 0-5.523-2.927-5.523-6.227 0-3.278 1.98-6.205 5.523-6.205 3.586 0 5.5 2.927 5.5 6.205a.938.938 0 0 1-.924.968zm-4.576-5.303a3.608 3.608 0 0 0-3.564 3.41h7.13c-.3-2.112-1.63-3.4-3.564-3.4zm12.013 0a3.17 3.17 0 0 0-3.125 3.146v6.095a.917.917 0 0 1-.969.946.901.901 0 0 1-.924-.924v-9.813a.932.932 0 0 1 .924-.946.903.903 0 0 1 .947.748 5.085 5.085 0 0 1 3.146-1.122.936.936 0 1 1 0 1.87z"/><use xlink:href="#l" x="425.386" y="258.809"/><path d="M614.55 857.64a2.142 2.142 0 0 1-1.958-1.254 5.042 5.042 0 0 1-3.872 1.628c-3.587 0-5.523-2.948-5.523-6.227s1.98-6.205 5.523-6.205a4.862 4.862 0 0 1 3.63 1.452v-.088a.908.908 0 0 1 .925-.99.885.885 0 0 1 .968.924v8.493a.357.357 0 0 0 .308.396.935.935 0 1 1 0 1.87zm-5.83-10.187c-2.2 0-3.63 1.716-3.63 4.335 0 2.64 1.43 4.356 3.63 4.356 2.222 0 3.63-1.717 3.63-4.356 0-2.62-1.408-4.335-3.63-4.335zm20.106 10.187h-6.7a.954.954 0 0 1-.968-.924V842.92a.946.946 0 0 1 1.892-.022v12.872h5.766a.935.935 0 0 1 0 1.87z"/><use xlink:href="#s"/><use xlink:href="#j" x="-333.27" y="413.235"/><path d="M664.245 857.64a.889.889 0 0 1-.924-.924V850.6a3.135 3.135 0 1 0-6.271 0v6.095a.936.936 0 0 1-.969.969.906.906 0 0 1-.924-.946v-9.836a.875.875 0 0 1 .924-.924.92.92 0 0 1 .946.726 5.026 5.026 0 0 1 8.163 3.917v6.095a.9.9 0 0 1-.946.946z"/><use xlink:href="#s" x="36.365"/><path d="M918.145 618.846a8.282 8.282 0 0 1-5.104-1.826.882.882 0 0 1-.308-.684.952.952 0 0 1 .945-.945c.33 0 .44.11.836.418a5.956 5.956 0 0 0 3.631 1.166c2.62 0 3.763-.945 3.763-2.574 0-4.576-8.78-1.98-8.78-7.965 0-2.684 2.267-4.027 5.17-4.027a6.756 6.756 0 0 1 4.774 1.871.863.863 0 0 1 .242.594 1.025 1.025 0 0 1-.946.99c-.33 0-.506-.154-.88-.484a4.834 4.834 0 0 0-3.19-1.078c-2.377 0-3.278.947-3.278 2.135 0 4.115 8.778 1.672 8.778 7.965 0 3.28-2.75 4.445-5.654 4.445z"/><use xlink:href="#N" x="106.644" y="30.602"/><path d="M938.957 613.586h-8.14a3.564 3.564 0 0 0 3.564 3.389 3.296 3.296 0 0 0 2.617-1.145.918.918 0 0 1 .683-.352 1.026 1.026 0 0 1 .99.969c0 .264-.065.46-.528.924a5.358 5.358 0 0 1-3.762 1.475c-3.543 0-5.523-2.928-5.523-6.227 0-3.28 1.98-6.205 5.523-6.205 3.586 0 5.5 2.926 5.5 6.205a.938.938 0 0 1-.924.967zm-4.576-5.303a3.608 3.608 0 0 0-3.564 3.41h7.13c-.31-2.11-1.63-3.4-3.564-3.4z"/><use xlink:href="#e" x="345.493" y="339.783"/><path d="M952.773 608.283a3.171 3.171 0 0 0-3.124 3.146v6.096a.918.918 0 0 1-.969.945.901.901 0 0 1-.924-.924v-9.812a.932.932 0 0 1 .924-.947.903.903 0 0 1 .946.748 5.094 5.094 0 0 1 3.146-1.121.935.935 0 1 1 0 1.869z"/><use xlink:href="#g" x="440.041" y="272.968"/><path d="M978.75 618.47h-6.7a.954.954 0 0 1-.968-.924V603.75a.946.946 0 0 1 1.892-.023V616.6h5.766a.935.935 0 0 1 0 1.869zm11.64-4.884h-8.142a3.564 3.564 0 0 0 3.564 3.389 3.299 3.299 0 0 0 2.618-1.145.914.914 0 0 1 .682-.352 1.026 1.026 0 0 1 .99.969c0 .264-.065.46-.527.924a5.36 5.36 0 0 1-3.763 1.475c-3.542 0-5.522-2.928-5.522-6.227 0-3.28 1.98-6.205 5.522-6.205 3.587 0 5.5 2.926 5.5 6.205a.938.938 0 0 1-.924.967zm-4.577-5.303a3.609 3.609 0 0 0-3.564 3.41h7.13c-.308-2.1-1.628-3.4-3.564-3.4zm12 10.563c-3.542 0-5.522-2.904-5.522-6.227 0-3.3 1.98-6.205 5.522-6.205s5.522 2.904 5.522 6.205c0 3.322-1.98 6.227-5.522 6.227zm0-10.562c-2.2 0-3.63 1.717-3.63 4.336 0 2.64 1.43 4.355 3.63 4.355 2.222 0 3.63-1.717 3.63-4.355 0-2.62-1.408-4.336-3.63-4.336zm16.347 10.186a.889.889 0 0 1-.924-.924v-6.117a3.135 3.135 0 1 0-6.271 0v6.096a.937.937 0 0 1-.969.969.907.907 0 0 1-.924-.947v-9.836a.876.876 0 0 1 .924-.924.92.92 0 0 1 .946.727 5.026 5.026 0 0 1 8.163 3.916v6.096a.899.899 0 0 1-.946.945zm12.584-4.884h-8.142a3.564 3.564 0 0 0 3.564 3.389 3.299 3.299 0 0 0 2.618-1.145.915.915 0 0 1 .682-.352 1.026 1.026 0 0 1 .99.969c0 .264-.065.46-.527.924a5.36 5.36 0 0 1-3.763 1.475c-3.542 0-5.522-2.928-5.522-6.227 0-3.28 1.98-6.205 5.522-6.205 3.587 0 5.5 2.926 5.5 6.205a.938.938 0 0 1-.924.967zm-4.577-5.303a3.609 3.609 0 0 0-3.564 3.41h7.13c-.308-2.1-1.628-3.4-3.564-3.4z"/><path d="M758.258 285.613h-9.153a.953.953 0 0 1-.968-.924v-13.797a.957.957 0 0 1 .968-.945h9.153a.889.889 0 0 1 .924.924.919.919 0 0 1-.924.945h-8.23v4.445h5.764a.939.939 0 0 1 .947.945.927.927 0 0 1-.947.947h-5.764v5.588h8.23a.907.907 0 0 1 .924.947.889.889 0 0 1-.924.924zm7.06 5.017c-1.343 0-4.665-.484-4.665-1.803a1.024 1.024 0 0 1 .946-.99c.507 0 .066.064 1.232.506a6.895 6.895 0 0 0 2.486.418c2.442 0 3.63-1.166 3.63-3.477v-1a5.144 5.144 0 0 1-3.63 1.32c-3.477 0-5.522-2.465-5.522-5.854 0-3.3 1.98-6.205 5.522-6.205a4.741 4.741 0 0 1 3.63 1.408v-.088a.937.937 0 0 1 .947-.945.924.924 0 0 1 .945.945v10.408c0 3.498-2.1 5.346-5.523 5.346zm0-15.203c-2.2 0-3.63 1.715-3.63 4.334 0 2.508 1.32 3.982 3.63 3.982s3.63-1.475 3.63-3.982c0-2.62-1.408-4.334-3.63-4.334zm17.282-.177l-5.94 13.5a2.523 2.523 0 0 1-2.421 1.475h-.704a.888.888 0 0 1-.924-.969.874.874 0 0 1 .924-.924h.682a.695.695 0 0 0 .727-.354l1.452-3.256-4.3-9.482a.799.799 0 0 1-.11-.418.993.993 0 0 1 1.013-.926.848.848 0 0 1 .791.572l3.587 7.967 3.5-7.967a.871.871 0 0 1 .813-.549.975.975 0 0 1 1.013.902.752.752 0 0 1-.11.418zm6.807 10.736a4.814 4.814 0 0 1-3.63-1.451v4.773a.918.918 0 0 1-.969.947.907.907 0 0 1-.924-.947v-14.434a.906.906 0 0 1 .924-.945.918.918 0 0 1 .969.945 5.28 5.28 0 0 1 3.63-1.342c3.542 0 5.522 2.904 5.522 6.205 0 3.344-1.98 6.248-5.522 6.248zm0-10.582c-2.18 0-3.63 1.736-3.63 4.334 0 2.64 1.43 4.38 3.63 4.38s3.63-1.717 3.63-4.357c0-2.62-1.43-4.356-3.63-4.356zm10.978 10.21h-.374c-2.1 0-2.882-1.102-2.882-2.904v-6.9h-.66a.935.935 0 1 1-.022-1.869h.66v-3.06a.893.893 0 0 1 .946-.924.875.875 0 0 1 .924.924v3.06h1.408a.912.912 0 0 1 .924.924.894.894 0 0 1-.924.945h-1.408v7.107c0 .617.22.836.836.836h.55a.907.907 0 0 1 .945.924.895.895 0 0 1-.924.947z"/><path d="M746.025 254.598h-6.688a.953.953 0 0 1-.968-.924v-13.796a.946.946 0 0 1 1.892-.022v12.872h5.765a.935.935 0 0 1 0 1.87z"/><use xlink:href="#G" x="571.97" y="-609.698"/><use xlink:href="#t"/><path d="M774.647 244.234l-5.94 13.5a2.523 2.523 0 0 1-2.421 1.475h-.704a.888.888 0 0 1-.924-.969.875.875 0 0 1 .924-.924h.683c.286 0 .594-.044.726-.353l1.452-3.256-4.3-9.483a.796.796 0 0 1-.11-.418.992.992 0 0 1 1.013-.925.849.849 0 0 1 .792.572l3.586 7.966 3.5-7.966a.871.871 0 0 1 .813-.55.975.975 0 0 1 1.013.902.75.75 0 0 1-.11.418z"/><use xlink:href="#Y" x="-43.56" y="-57.302"/><path d="M574 326.767h-6.688a.953.953 0 0 1-.968-.924v-13.796a.946.946 0 0 1 1.892-.022v12.872H574a.935.935 0 0 1 0 1.87z"/><use xlink:href="#G" x="399.946" y="-537.528"/><use xlink:href="#t" x="-172.024" y="72.168"/><use xlink:href="#k" x="127.807" y="-58.838"/><use xlink:href="#M" x="78.381" y="-384.307"/></g><g fill="#2e3192"><path d="M130.484 80h-18.24a2.602 2.602 0 0 1-2.64-2.52V39.86a2.58 2.58 0 0 1 5.159-.06v35.1h15.72a2.55 2.55 0 0 1 0 5.1zm8.34-36.72a4.32 4.32 0 1 1 4.32-4.319 4.302 4.302 0 0 1-4.32 4.319zm0 36.72a2.521 2.521 0 0 1-2.641-2.52V50.72a2.534 2.534 0 0 1 2.641-2.58 2.472 2.472 0 0 1 2.52 2.58v26.76a2.42 2.42 0 0 1-2.52 2.52zm18.66-26.76h-2.7v24.18a2.453 2.453 0 0 1-2.641 2.52 2.42 2.42 0 0 1-2.52-2.52V53.24h-2.46a2.55 2.55 0 0 1 0-5.101h2.46v-4.08a6.837 6.837 0 0 1 6.9-6.78 2.551 2.551 0 1 1 0 5.1 1.682 1.682 0 0 0-1.74 1.621v4.14h2.7a2.552 2.552 0 1 1 0 5.101z"/><use xlink:href="#u"/><path d="M235.78 80h-24.96a2.601 2.601 0 0 1-2.64-2.52V39.86a2.612 2.612 0 0 1 2.64-2.58h24.96a2.426 2.426 0 0 1 2.521 2.52 2.505 2.505 0 0 1-2.521 2.579h-22.438V54.5h15.72a2.561 2.561 0 0 1 2.58 2.58 2.522 2.522 0 0 1-2.58 2.579h-15.72V74.9h22.438a2.471 2.471 0 0 1 2.521 2.58A2.426 2.426 0 0 1 235.78 80zm29.94.06a2.247 2.247 0 0 1-1.92-.961l-9.78-11.94-9.78 11.94a2.729 2.729 0 0 1-1.92.9 2.697 2.697 0 0 1-2.7-2.52 2.732 2.732 0 0 1 .721-1.74l10.32-12.66-8.82-10.738a2.504 2.504 0 0 1-.66-1.681 2.705 2.705 0 0 1 2.699-2.58 2.321 2.321 0 0 1 1.92.96l8.22 10.08 8.28-10.08a2.278 2.278 0 0 1 1.8-.96 2.759 2.759 0 0 1 2.76 2.58 2.685 2.685 0 0 1-.66 1.62l-8.88 10.8 10.44 12.66a2.642 2.642 0 0 1 .66 1.74 2.746 2.746 0 0 1-2.699 2.58zm20.46.96a13.131 13.131 0 0 1-9.899-3.959v13.02a2.501 2.501 0 0 1-2.64 2.58 2.472 2.472 0 0 1-2.52-2.58V50.72a2.472 2.472 0 0 1 2.52-2.58 2.501 2.501 0 0 1 2.64 2.58 14.402 14.402 0 0 1 9.899-3.659c9.66 0 15.06 7.92 15.06 16.92 0 9.12-5.4 17.04-15.06 17.04zm0-28.858c-5.94 0-9.9 4.74-9.9 11.82 0 7.2 3.9 11.94 9.9 11.94s9.9-4.68 9.9-11.88c0-7.14-3.9-11.88-9.9-11.88z"/><use xlink:href="#u" x="142.86"/><path d="M363.16 76.46a13.933 13.933 0 0 1-10.739 4.56c-9.66 0-15.06-7.92-15.06-16.98 0-9 5.4-16.92 15.06-16.92a13.933 13.933 0 0 1 10.739 4.561 2.615 2.615 0 0 1 .72 1.739 2.794 2.794 0 0 1-2.699 2.58 2.838 2.838 0 0 1-1.86-.84 8.813 8.813 0 0 0-6.899-2.94c-6 0-9.9 4.68-9.9 11.82 0 7.2 3.9 11.88 9.9 11.88a8.922 8.922 0 0 0 6.899-2.939 2.396 2.396 0 0 1 1.86-.9 2.59 2.59 0 0 1 1.979 4.38zM378.1 80h-1.02c-5.7 0-7.86-3-7.86-7.92V53.24h-1.8a2.551 2.551 0 0 1-.06-5.101h1.8V39.8a2.437 2.437 0 0 1 2.58-2.52 2.39 2.39 0 0 1 2.521 2.52v8.34h3.84a2.488 2.488 0 0 1 2.52 2.521 2.44 2.44 0 0 1-2.52 2.58h-3.84v19.38c0 1.68.6 2.28 2.28 2.28h1.5a2.475 2.475 0 0 1 2.579 2.52A2.441 2.441 0 0 1 378.1 80zm35.097 0a5.839 5.839 0 0 1-5.34-3.42 13.746 13.746 0 0 1-10.56 4.439c-9.78 0-15.06-8.04-15.06-16.98s5.4-16.92 15.06-16.92a13.257 13.257 0 0 1 9.899 3.96v-.24a2.476 2.476 0 0 1 2.52-2.701 2.412 2.412 0 0 1 2.641 2.521v23.16a.972.972 0 0 0 .84 1.08 2.55 2.55 0 1 1 0 5.1zm-15.9-27.78c-6 0-9.9 4.68-9.9 11.82 0 7.2 3.9 11.88 9.9 11.88 6.06 0 9.9-4.68 9.9-11.88 0-7.14-3.84-11.82-9.9-11.82zM443.736 80a2.424 2.424 0 0 1-2.52-2.52V60.8a8.55 8.55 0 1 0-17.1 0v16.62a2.551 2.551 0 0 1-2.64 2.641 2.472 2.472 0 0 1-2.52-2.58V50.66a2.387 2.387 0 0 1 2.52-2.521 2.509 2.509 0 0 1 2.58 1.98 13.702 13.702 0 0 1 22.259 10.68v16.62a2.454 2.454 0 0 1-2.58 2.58zm32.58-3.54a13.931 13.931 0 0 1-10.739 4.56c-9.66 0-15.06-7.92-15.06-16.98 0-9 5.4-16.92 15.06-16.92a13.932 13.932 0 0 1 10.739 4.561 2.611 2.611 0 0 1 .721 1.739 2.794 2.794 0 0 1-2.7 2.58 2.842 2.842 0 0 1-1.86-.84 8.811 8.811 0 0 0-6.899-2.94c-6 0-9.9 4.68-9.9 11.82 0 7.2 3.9 11.88 9.9 11.88a8.92 8.92 0 0 0 6.899-2.939 2.397 2.397 0 0 1 1.86-.9 2.589 2.589 0 0 1 1.979 4.38zm30.78-24.72l-16.2 36.84a6.875 6.875 0 0 1-6.6 4.02h-1.92a2.42 2.42 0 0 1-2.52-2.641 2.386 2.386 0 0 1 2.52-2.52h1.86c.78 0 1.62-.12 1.98-.96l3.96-8.88-11.7-25.858a2.17 2.17 0 0 1-.299-1.14 2.705 2.705 0 0 1 2.76-2.521 2.309 2.309 0 0 1 2.159 1.56l9.78 21.72 9.54-21.72a2.377 2.377 0 0 1 2.221-1.5 2.66 2.66 0 0 1 2.76 2.461 2.034 2.034 0 0 1-.301 1.14zm18.54-8.46a4.32 4.32 0 1 1 4.319-4.319 4.302 4.302 0 0 1-4.319 4.319zm0 36.72a2.52 2.52 0 0 1-2.64-2.52V50.72a2.534 2.534 0 0 1 2.64-2.58 2.473 2.473 0 0 1 2.521 2.58v26.76a2.421 2.421 0 0 1-2.521 2.52zm33.66 0a2.424 2.424 0 0 1-2.52-2.52V60.8a8.549 8.549 0 1 0-17.099 0v16.62a2.552 2.552 0 0 1-2.641 2.641 2.472 2.472 0 0 1-2.52-2.58V50.66a2.387 2.387 0 0 1 2.52-2.521 2.509 2.509 0 0 1 2.58 1.98 13.703 13.703 0 0 1 22.26 10.68v16.62a2.455 2.455 0 0 1-2.58 2.58zm50.64 0a2.457 2.457 0 0 1-2.28-1.561l-3.18-7.8h-19.98l-3.24 7.8a2.44 2.44 0 0 1-2.22 1.561 2.65 2.65 0 0 1-2.7-2.52 1.966 1.966 0 0 1 .24-1.02l15.42-37.498a2.621 2.621 0 0 1 2.46-1.86 2.725 2.725 0 0 1 2.46 1.86l15.48 37.498a2.801 2.801 0 0 1 .18 1.02 2.56 2.56 0 0 1-2.64 2.52zm-15.48-33.6l-7.86 19.08h15.72zm28.49 6.84h-2.7v24.18a2.452 2.452 0 0 1-2.64 2.52 2.42 2.42 0 0 1-2.52-2.52V53.24h-2.46a2.55 2.55 0 0 1 0-5.101h2.46v-4.08a6.837 6.837 0 0 1 6.899-6.78 2.551 2.551 0 1 1 0 5.1 1.682 1.682 0 0 0-1.74 1.621v4.14h2.7a2.552 2.552 0 1 1 0 5.101z"/><use xlink:href="#v"/><use xlink:href="#w"/><path d="M682.04 76.46a13.933 13.933 0 0 1-10.739 4.56c-9.66 0-15.06-7.92-15.06-16.98 0-9 5.4-16.92 15.06-16.92a13.933 13.933 0 0 1 10.739 4.561 2.615 2.615 0 0 1 .72 1.739 2.794 2.794 0 0 1-2.7 2.58 2.84 2.84 0 0 1-1.859-.84 8.813 8.813 0 0 0-6.899-2.94c-6 0-9.9 4.68-9.9 11.82 0 7.2 3.9 11.88 9.9 11.88a8.923 8.923 0 0 0 6.899-2.939 2.395 2.395 0 0 1 1.859-.9 2.59 2.59 0 0 1 1.98 4.38zM716.42 80a5.836 5.836 0 0 1-5.34-3.42 13.746 13.746 0 0 1-10.56 4.439c-9.78 0-15.06-8.04-15.06-16.98s5.4-16.92 15.06-16.92a13.259 13.259 0 0 1 9.899 3.96v-.24a2.476 2.476 0 0 1 2.52-2.701 2.412 2.412 0 0 1 2.64 2.521v23.16a.971.971 0 0 0 .841 1.08 2.55 2.55 0 1 1 0 5.1zm-15.9-27.78c-6 0-9.9 4.68-9.9 11.82 0 7.2 3.9 11.88 9.9 11.88 6.06 0 9.9-4.68 9.9-11.88 0-7.14-3.84-11.82-9.9-11.82z"/><use xlink:href="#w" x="88.498"/><path d="M756.138 81.02c-3.3 0-8.82-1.02-11.64-4.5a2.655 2.655 0 0 1 2.16-4.26 2.463 2.463 0 0 1 1.859 1.021c1.86 2.04 4.92 2.64 7.62 2.64 5.4 0 7.14-1.86 7.14-4.56 0-7.68-18.3-2.94-18.3-15.3 0-6.54 6.12-8.94 11.82-8.94 3.24 0 10.86 1.62 10.86 4.98a2.694 2.694 0 0 1-2.521 2.699 3.615 3.615 0 0 1-1.979-.779c-1.62-1.38-3.96-1.8-6.36-1.8-4.98 0-6.72 1.86-6.72 3.84 0 7.14 18.36 2.52 18.36 15.3 0 7.08-5.94 9.66-12.3 9.66zm40.56 0c-4.38 0-10.5-1.8-13.92-4.98a2.399 2.399 0 0 1-.84-1.86 2.599 2.599 0 0 1 2.58-2.579c.9 0 1.2.3 2.28 1.14a16.243 16.243 0 0 0 9.9 3.18c7.14 0 10.26-2.58 10.26-7.02 0-12.48-23.938-5.4-23.938-21.72 0-7.32 6.18-10.98 14.1-10.98 4.14 0 10.08 1.62 13.02 5.1a2.365 2.365 0 0 1 .659 1.62 2.794 2.794 0 0 1-2.579 2.699c-.9 0-1.38-.42-2.4-1.32a13.183 13.183 0 0 0-8.699-2.939c-6.48 0-8.94 2.58-8.94 5.82 0 11.22 23.938 4.56 23.938 21.72 0 8.94-7.5 12.12-15.42 12.12zm32.64 0c-9.66 0-15.06-7.92-15.06-16.98 0-9 5.4-16.92 15.06-16.92s15.06 7.92 15.06 16.92c0 9.06-5.4 16.98-15.06 16.98zm0-28.8c-6 0-9.9 4.68-9.9 11.82 0 7.2 3.9 11.88 9.9 11.88 6.06 0 9.9-4.68 9.9-11.88 0-7.14-3.84-11.82-9.9-11.82zM878.715 80a5.837 5.837 0 0 1-5.339-3.42 13.746 13.746 0 0 1-10.56 4.439c-9.78 0-15.06-8.04-15.06-16.98s5.4-16.92 15.06-16.92a13.259 13.259 0 0 1 9.899 3.96v-.24a2.476 2.476 0 0 1 2.52-2.701 2.412 2.412 0 0 1 2.64 2.521v23.16a.972.972 0 0 0 .84 1.08 2.55 2.55 0 1 1 0 5.1zm-15.898-27.78c-6 0-9.9 4.68-9.9 11.82 0 7.2 3.9 11.88 9.9 11.88 6.06 0 9.9-4.68 9.9-11.88 0-7.14-3.84-11.82-9.9-11.82z"/><use xlink:href="#v" x="255.893"/><use xlink:href="#w" x="255.894"/><path d="M938.295 80a2.424 2.424 0 0 1-2.52-2.52V60.8a8.55 8.55 0 1 0-17.1 0v16.62a2.551 2.551 0 0 1-2.64 2.641 2.472 2.472 0 0 1-2.52-2.58V50.66a2.387 2.387 0 0 1 2.52-2.521 2.509 2.509 0 0 1 2.58 1.98 13.702 13.702 0 0 1 22.259 10.68v16.62a2.454 2.454 0 0 1-2.579 2.58zm21.84 13.68c-3.66 0-12.72-1.32-12.72-4.92a2.794 2.794 0 0 1 2.58-2.7c1.38 0 .18.18 3.36 1.38a18.747 18.747 0 0 0 6.78 1.141c6.66 0 9.9-3.18 9.9-9.48v-2.7a14.038 14.038 0 0 1-9.899 3.6c-9.48 0-15.06-6.72-15.06-15.96 0-9 5.4-16.92 15.06-16.92 4.2 0 7.44 1.26 9.9 3.84v-.24a2.554 2.554 0 0 1 2.58-2.58 2.519 2.519 0 0 1 2.579 2.58V79.1c0 9.54-5.7 14.58-15.06 14.58zm0-41.46c-6 0-9.9 4.68-9.9 11.82 0 6.84 3.6 10.86 9.9 10.86s9.9-4.02 9.9-10.86c0-7.14-3.84-11.82-9.9-11.82z"/></g></svg>