<?xml version="1.0" encoding="UTF-8" standalone="no"?>
<!DOCTYPE svg PUBLIC "-//W3C//DTD SVG 1.1//EN" "http://www.w3.org/Graphics/SVG/1.1/DTD/svg11.dtd">
<svg width="100%" height="100%" viewBox="0 0 242 242" version="1.1" xmlns="http://www.w3.org/2000/svg" xmlns:xlink="http://www.w3.org/1999/xlink" xml:space="preserve" xmlns:serif="http://www.serif.com/" style="fill-rule:evenodd;clip-rule:evenodd;stroke-linejoin:round;stroke-miterlimit:2;">
    <g transform="matrix(4.16667,0,0,4.16667,-1792.76,-1388.34)">
        <g transform="matrix(1,0,0,1,469.486,372.062)">
            <path d="M0,-6.641L-20.44,-6.641C-20.563,-6.641 -20.663,-6.53 -20.663,-6.393L-20.663,-0.25C-20.663,-0.111 -20.563,0 -20.44,0L0,0C0.125,0 0.225,-0.111 0.225,-0.25L0.225,-6.393C0.225,-6.53 0.125,-6.641 0,-6.641" style="fill:white;fill-rule:nonzero;"/>
        </g>
        <g transform="matrix(1,0,0,1,469.486,358.991)">
            <path d="M0,-6.642L-20.44,-6.642C-20.563,-6.642 -20.663,-6.53 -20.663,-6.394L-20.663,-0.25C-20.663,-0.111 -20.563,0 -20.44,0L0,0C0.125,0 0.225,-0.111 0.225,-0.25L0.225,-6.394C0.225,-6.53 0.125,-6.642 0,-6.642" style="fill:white;fill-rule:nonzero;"/>
        </g>
        <g transform="matrix(1,0,0,1,469.198,333.475)">
            <path d="M0,9.587L-9.812,-0.225C-9.877,-0.29 -9.984,-0.29 -10.051,-0.225L-19.862,9.587C-19.969,9.694 -19.894,9.877 -19.742,9.877L-0.119,9.877C0.031,9.877 0.107,9.694 0,9.587" style="fill:white;fill-rule:nonzero;"/>
        </g>
        <g transform="matrix(1,0,0,1,478.409,352.273)">
            <path d="M0,19.864L9.812,10.052C9.878,9.986 9.878,9.879 9.812,9.812L0,0.001C-0.106,-0.106 -0.289,-0.031 -0.289,0.121L-0.289,19.744C-0.289,19.895 -0.106,19.97 0,19.864" style="fill:white;fill-rule:nonzero;"/>
        </g>
        <g transform="matrix(1,0,0,1,449.336,390.936)">
            <path d="M0,-9.588L9.812,0.224C9.878,0.29 9.985,0.29 10.051,0.224L19.862,-9.588C19.97,-9.695 19.894,-9.878 19.743,-9.878L0.12,-9.878C-0.031,-9.878 -0.106,-9.695 0,-9.588" style="fill:white;fill-rule:nonzero;"/>
        </g>
        <g transform="matrix(1,0,0,1,440.125,372.137)">
            <path d="M0,-19.864L-9.812,-10.052C-9.878,-9.986 -9.878,-9.879 -9.812,-9.812L0,-0.001C0.106,0.106 0.289,0.031 0.289,-0.121L0.289,-19.744C0.289,-19.895 0.106,-19.97 0,-19.864" style="fill:white;fill-rule:nonzero;"/>
        </g>
    </g>
</svg>
