<?xml version="1.0" encoding="UTF-8" standalone="no"?>
<!DOCTYPE svg PUBLIC "-//W3C//DTD SVG 1.1//EN" "http://www.w3.org/Graphics/SVG/1.1/DTD/svg11.dtd">
<svg width="100%" height="100%" viewBox="0 0 343 175" version="1.1" xmlns="http://www.w3.org/2000/svg" xmlns:xlink="http://www.w3.org/1999/xlink" xml:space="preserve" xmlns:serif="http://www.serif.com/" style="fill-rule:evenodd;clip-rule:evenodd;stroke-linejoin:round;stroke-miterlimit:2;">
    <g transform="matrix(4.16667,0,0,4.16667,241.033,72.25)">
        <path d="M0,7.179C-0.459,7.053 -2.382,4.395 -0.862,2.646C-0.609,2.359 -1.373,1.512 -1.164,1.495C-0.332,1.431 0.11,1.947 0.329,2.691C0.345,3.019 0.358,3.349 0.358,3.683C0.358,4.881 0.233,6.05 0,7.179M-4.691,15.825C-4.862,15.776 -5.038,15.72 -5.229,15.625C-6.164,15.15 -6.052,15.91 -6.511,15.742C-6.974,15.571 -5.993,14.504 -7.374,15.407C-8.748,16.306 -8.377,15.267 -8.977,13.743C-9.583,12.218 -8.287,10.478 -7.205,10.084C-5.717,9.545 -4.793,9.436 -4.096,9.264C-2.039,8.75 -1.604,7.529 -1.23,8.272C-1.16,8.411 -1.092,8.543 -1.03,8.668C-0.91,8.89 -0.772,9.339 -0.765,9.783C-1.639,12.073 -2.986,14.127 -4.691,15.825M-16.768,20.809C-18.441,20.809 -20.055,20.566 -21.582,20.119C-21.801,19.941 -21.926,19.642 -21.789,19.283C-21.259,17.901 -19.681,17.36 -18.436,17.241C-15.659,16.97 -12.009,19.043 -11.429,18.708C-10.846,18.374 -9.672,16.848 -7.95,16.911C-6.774,16.956 -6.783,17.154 -6.388,17.303C-9.269,19.5 -12.864,20.809 -16.768,20.809M-19.097,9.648C-19.333,10.033 -19.976,12.913 -20.408,12.577C-20.843,12.241 -20.233,9.238 -20.108,9.009C-19.432,7.768 -17.969,7.829 -19.097,9.648M-12.103,6.247C-12.441,6.548 -13.307,6.438 -13.74,6.1C-14.17,5.765 -13.467,5.209 -13.209,5.189C-12.633,5.138 -11.768,5.943 -12.103,6.247M-4.545,6.277C-4.73,6.208 -4.893,6.033 -5.033,5.613C-5.172,5.192 -4.819,4.952 -4.473,5.121C-4.122,5.3 -3.666,5.824 -3.666,6.104C-3.666,6.385 -4.357,6.351 -4.545,6.277M-3.817,6.803C-3.242,6.756 -2.377,7.554 -2.715,7.861C-3.052,8.164 -3.915,8.053 -4.348,7.714C-4.779,7.379 -4.076,6.825 -3.817,6.803M-22.187,13.631C-22.52,14.941 -22.909,15.412 -23.24,15.825C-23.571,16.243 -24.797,16.776 -25.575,16.719C-26.354,16.66 -26.462,14.581 -26.462,13.513C-26.462,13.144 -26.984,14.239 -27.257,12.014C-27.432,10.589 -28.346,12.162 -28.41,11.212C-28.475,10.265 -28.932,10.453 -29.413,9.861C-29.89,9.269 -30.486,9.918 -31.154,10.218C-31.818,10.513 -31.544,10.669 -32.489,10.371C-32.514,10.364 -32.526,10.357 -32.549,10.348C-33.416,8.3 -33.895,6.047 -33.895,3.683C-33.895,3.105 -33.864,2.536 -33.81,1.975C-33.777,1.917 -33.744,1.863 -33.704,1.815C-32.798,0.743 -32.819,0.492 -32.819,0.492L-31.816,0.146C-31.816,0.146 -30.217,0.392 -29.011,0.846C-28.019,1.218 -26.456,2.06 -25.546,1.69C-24.889,1.418 -24.375,1.059 -24.437,0.512C-24.511,-0.175 -25.051,-0.338 -25.706,0.125C-25.948,0.295 -26.462,-0.91 -26.865,-0.848C-27.269,-0.789 -26.366,0.568 -26.708,0.625C-27.052,0.684 -27.741,-0.789 -27.859,-1.027C-27.975,-1.264 -28.508,-1.854 -28.986,-1.404C-29.996,-0.444 -31.636,-0.503 -31.965,-0.257C-32.968,0.493 -33.233,-0.503 -33.21,-1.11C-33.17,-1.249 -33.129,-1.389 -33.084,-1.526C-32.757,-1.887 -31.583,-2.007 -31.179,-1.738C-30.736,-1.442 -30.418,-1.814 -30.245,-1.994C-30.069,-2.17 -30.131,-2.454 -30.242,-2.69C-30.354,-2.927 -30.02,-3.102 -29.791,-3.163C-29.56,-3.224 -28.797,-3.759 -28.493,-3.937C-28.185,-4.114 -26.602,-4.305 -25.892,-3.951C-25.183,-3.593 -24.532,-3.885 -24.183,-4.296C-23.746,-4.815 -23.189,-5.211 -22.941,-5.331C-22.693,-5.447 -23.552,-6.249 -24.259,-5.375C-24.967,-4.505 -25.328,-4.425 -25.66,-4.425C-25.993,-4.425 -27.97,-4.918 -28.213,-5.543C-28.455,-6.166 -27.595,-6.634 -26.865,-6.987C-26.136,-7.336 -24.14,-7.331 -23.629,-7.446C-22.591,-7.674 -21.265,-8.195 -20.597,-7.74C-19.932,-7.293 -23.387,-6.506 -22.251,-5.892C-21.848,-5.671 -20.021,-6.944 -19.395,-7.269C-17.922,-8.029 -20.823,-8.28 -20.446,-9.824C-20.021,-11.569 -24.004,-10.894 -25.99,-10.746C-23.327,-12.452 -20.164,-13.444 -16.768,-13.444C-8.689,-13.444 -1.922,-7.847 -0.117,-0.322C-0.105,0.05 -0.163,0.319 -0.201,0.471C-0.355,1.088 -1.527,1.618 -2.206,0.625C-2.379,0.374 -3.114,-0.319 -3.089,0.867C-3.065,2.055 -1.936,2.176 -3.03,2.888C-4.124,3.6 -4.324,3.429 -4.83,3.608C-5.334,3.786 -5.824,5.009 -5.704,5.663C-5.581,6.317 -4.02,8.102 -5.178,8.029C-5.45,8.008 -7.496,6.611 -7.834,5.712C-8.19,4.766 -8.58,3.84 -8.855,3.126C-9.135,2.415 -9.857,2.234 -10.469,2.652C-11.078,3.07 -10.298,3.486 -10.737,4.377C-11.173,5.268 -11.487,6.064 -12.13,5.327C-13.801,3.412 -16.23,4.357 -16.611,2.226C-16.817,1.071 -17.812,1.181 -18.644,0.527C-19.48,-0.124 -19.945,-0.478 -20.086,-0.007C-20.21,0.407 -17.469,2.58 -17.273,3.137C-16.982,3.964 -18.094,4.694 -18.908,4.89C-19.718,5.084 -20.076,4.433 -20.874,3.602C-21.671,2.773 -22.021,2.179 -22.076,2.831C-22.156,3.773 -21.318,5.157 -20.505,5.674C-19.812,6.113 -19.036,6.312 -19.26,7.024C-19.486,7.738 -19.265,7.333 -20.041,8.102C-20.818,8.873 -20.967,9.121 -20.91,10.188C-20.854,11.257 -21.132,11.319 -21.299,12.207C-21.466,13.097 -21.852,12.327 -22.187,13.631M-31.387,-5.242C-31.348,-5.288 -31.313,-5.326 -31.298,-5.345C-30.989,-5.697 -30.374,-5.773 -29.948,-5.84C-29.522,-5.912 -28.954,-5.697 -28.885,-5.414C-28.812,-5.133 -29.954,-4.615 -30.162,-4.422C-30.753,-3.877 -31.679,-2.767 -32.221,-2.647C-32.398,-2.608 -32.543,-2.634 -32.663,-2.694C-32.307,-3.582 -31.881,-4.435 -31.387,-5.242M-30.509,-6.987C-30.288,-7.312 -29.551,-8.241 -29.462,-8.358C-29.272,-8.602 -28.897,-8.652 -28.633,-8.699C-28.373,-8.75 -28.024,-8.602 -27.982,-8.406C-27.937,-8.21 -28.083,-7.449 -28.212,-7.318C-28.572,-6.944 -29.511,-6.416 -30.028,-6.499C-30.428,-6.56 -30.585,-6.87 -30.509,-6.987M23.931,3.132C21.007,-0.968 7.784,-17.34 -16.796,-17.34C-41.381,-17.34 -54.601,-0.968 -57.528,3.132C-57.653,3.307 -57.76,3.459 -57.848,3.588C-57.76,3.72 -57.653,3.871 -57.528,4.048C-54.601,8.147 -41.381,24.519 -16.796,24.519C7.784,24.519 21.007,8.147 23.931,4.048C24.059,3.871 24.164,3.72 24.248,3.588C24.164,3.459 24.059,3.307 23.931,3.132" style="fill:white;fill-rule:nonzero;"/>
    </g>
</svg>
