<?xml version="1.0" encoding="UTF-8" standalone="no"?>
<!DOCTYPE svg PUBLIC "-//W3C//DTD SVG 1.1//EN" "http://www.w3.org/Graphics/SVG/1.1/DTD/svg11.dtd">
<svg width="100%" height="100%" viewBox="0 0 236 236" version="1.1" xmlns="http://www.w3.org/2000/svg" xmlns:xlink="http://www.w3.org/1999/xlink" xml:space="preserve" xmlns:serif="http://www.serif.com/" style="fill-rule:evenodd;clip-rule:evenodd;stroke-linejoin:round;stroke-miterlimit:2;">
    <g transform="matrix(4.16667,0,0,4.16667,-258.109,-1391.66)">
        <g transform="matrix(1,0,0,1,90.2476,354.109)">
            <path d="M0,16.665C-4.671,16.665 -8.458,12.879 -8.458,8.207C-8.458,4.409 -5.958,1.198 -2.514,0.128L-2.514,3.277C-4.307,4.192 -5.537,6.054 -5.537,8.207C-5.537,11.266 -3.059,13.744 0,13.744C3.059,13.744 5.537,11.266 5.537,8.207C5.537,6.048 4.301,4.184 2.5,3.269L2.5,0.124C5.951,1.189 8.459,4.404 8.459,8.207C8.459,12.879 4.673,16.665 0,16.665M-1.207,-1.507C-1.207,-2.048 -0.663,-2.644 0.004,-2.644C0.67,-2.644 1.209,-2.048 1.209,-1.507L1.209,4.077C1.209,4.616 0.67,5.205 0.004,5.205C-0.663,5.205 -1.207,4.616 -1.207,4.077L-1.207,-1.507ZM-0.002,-7.931C-8.983,-7.931 -16.264,-0.65 -16.264,8.331C-16.264,17.316 -8.983,24.596 -0.002,24.596C8.978,24.596 16.259,17.316 16.259,8.331C16.259,-0.65 8.978,-7.931 -0.002,-7.931" style="fill:white;fill-rule:nonzero;"/>
        </g>
        <g transform="matrix(1,0,0,1,71.5771,362.304)">
            <path d="M0,-0.005C0,-0.742 -0.653,-1.34 -1.25,-1.34L-8.371,-1.34C-8.972,-1.34 -9.631,-0.742 -9.631,-0.005C-9.631,0.734 -8.972,1.335 -8.371,1.335L-1.25,1.335C-0.653,1.335 0,0.734 0,-0.005" style="fill:white;fill-rule:nonzero;"/>
        </g>
        <g transform="matrix(1,0,0,1,118.551,362.304)">
            <path d="M0,-0.005C0,-0.742 -0.653,-1.34 -1.25,-1.34L-8.371,-1.34C-8.971,-1.34 -9.63,-0.742 -9.63,-0.005C-9.63,0.734 -8.971,1.335 -8.371,1.335L-1.25,1.335C-0.653,1.335 0,0.734 0,-0.005" style="fill:white;fill-rule:nonzero;"/>
        </g>
        <g transform="matrix(1,0,0,1,90.252,380.972)">
            <path d="M0,9.63C0.736,9.63 1.334,8.977 1.334,8.381L1.334,1.26C1.334,0.659 0.736,0 0,0C-0.739,0 -1.341,0.659 -1.341,1.26L-1.341,8.381C-1.341,8.977 -0.739,9.63 0,9.63" style="fill:white;fill-rule:nonzero;"/>
        </g>
        <g transform="matrix(1,0,0,1,114.814,371.581)">
            <path d="M0,4.776C0.366,4.136 0.096,3.293 -0.421,2.997L-6.602,-0.54C-7.124,-0.838 -7.993,-0.648 -8.358,-0.007C-8.725,0.633 -8.452,1.483 -7.931,1.781L-1.75,5.318C-1.232,5.614 -0.368,5.418 0,4.776" style="fill:white;fill-rule:nonzero;"/>
        </g>
        <g transform="matrix(1,0,0,1,76.1934,378.506)">
            <path d="M0,8.36C0.639,8.726 1.482,8.456 1.778,7.938L5.315,1.757C5.614,1.237 5.422,0.367 4.783,0.001C4.143,-0.366 3.292,-0.092 2.994,0.428L-0.543,6.609C-0.839,7.127 -0.642,7.993 0,8.36" style="fill:white;fill-rule:nonzero;"/>
        </g>
        <g transform="matrix(1,0,0,1,104.359,378.487)">
            <path d="M0,8.348C0.639,7.98 0.832,7.117 0.535,6.6L-3.015,0.426C-3.315,-0.094 -4.161,-0.368 -4.801,-0.001C-5.442,0.367 -5.634,1.239 -5.333,1.759L-1.784,7.933C-1.487,8.45 -0.641,8.716 0,8.348" style="fill:white;fill-rule:nonzero;"/>
        </g>
        <g transform="matrix(1,0,0,1,65.7158,371.609)">
            <path d="M0,4.803C0.367,5.442 1.231,5.634 1.748,5.336L7.921,1.786C8.442,1.488 8.717,0.641 8.348,0.002C7.98,-0.639 7.108,-0.831 6.589,-0.532L0.416,3.018C-0.102,3.315 -0.369,4.162 0,4.803" style="fill:white;fill-rule:nonzero;"/>
        </g>
        <g transform="matrix(1,0,0,1,90.252,333.999)">
            <path d="M0,9.631C0.736,9.631 1.334,8.978 1.334,8.382L1.334,1.259C1.334,0.658 0.736,0 0,0C-0.739,0 -1.341,0.658 -1.341,1.259L-1.341,8.382C-1.341,8.978 -0.739,9.631 0,9.631" style="fill:white;fill-rule:nonzero;"/>
        </g>
        <g transform="matrix(1,0,0,1,74.0444,348.247)">
            <path d="M0,4.777C0.367,4.136 0.097,3.295 -0.421,2.998L-6.602,-0.539C-7.124,-0.838 -7.992,-0.647 -8.358,-0.007C-8.726,0.634 -8.451,1.483 -7.93,1.782L-1.75,5.319C-1.232,5.615 -0.367,5.419 0,4.777" style="fill:white;fill-rule:nonzero;"/>
        </g>
        <g transform="matrix(1,0,0,1,99.5259,337.735)">
            <path d="M0,8.363C0.64,8.728 1.481,8.459 1.778,7.941L5.316,1.76C5.615,1.239 5.423,0.37 4.784,0.004C4.143,-0.365 3.293,-0.089 2.995,0.431L-0.542,6.612C-0.839,7.131 -0.642,7.996 0,8.363" style="fill:white;fill-rule:nonzero;"/>
        </g>
        <g transform="matrix(1,0,0,1,80.9434,337.765)">
            <path d="M0,8.348C0.639,7.981 0.832,7.117 0.534,6.6L-3.016,0.425C-3.316,-0.095 -4.162,-0.368 -4.801,0C-5.443,0.368 -5.634,1.239 -5.334,1.759L-1.785,7.932C-1.486,8.45 -0.642,8.716 0,8.348" style="fill:white;fill-rule:nonzero;"/>
        </g>
        <g transform="matrix(1,0,0,1,106.436,348.192)">
            <path d="M0,4.803C0.367,5.442 1.231,5.634 1.749,5.337L7.921,1.787C8.442,1.488 8.717,0.641 8.349,0.002C7.98,-0.638 7.11,-0.831 6.589,-0.531L0.416,3.019C-0.102,3.316 -0.369,4.163 0,4.803" style="fill:white;fill-rule:nonzero;"/>
        </g>
    </g>
</svg>
