<?xml version="1.0" encoding="UTF-8" standalone="no"?>
<!DOCTYPE svg PUBLIC "-//W3C//DTD SVG 1.1//EN" "http://www.w3.org/Graphics/SVG/1.1/DTD/svg11.dtd">
<svg width="100%" height="100%" viewBox="0 0 223 235" version="1.1" xmlns="http://www.w3.org/2000/svg" xmlns:xlink="http://www.w3.org/1999/xlink" xml:space="preserve" xmlns:serif="http://www.serif.com/" style="fill-rule:evenodd;clip-rule:evenodd;stroke-linejoin:round;stroke-miterlimit:2;">
    <g transform="matrix(4.16667,0,0,4.16667,-774.61,-1390.26)">
        <g transform="matrix(1,0,0,1,234.123,389.328)">
            <path d="M0,-42.319L-11.278,-31.59C-11.704,-31.167 -11.922,-30.855 -11.922,-29.979L-11.922,0.09C-11.922,0.443 -11.634,0.732 -11.278,0.732L0.372,0.732C0.727,0.732 1.013,0.443 1.013,0.09L1.013,-42.048C1.013,-42.404 0.736,-43.051 0,-42.319" style="fill:white;fill-rule:nonzero;"/>
        </g>
        <g transform="matrix(1,0,0,1,201.631,389.322)">
            <path d="M0,-28.336L-11.28,-17.608C-11.704,-17.185 -11.923,-16.873 -11.923,-15.999L-11.923,0.096C-11.923,0.447 -11.634,0.735 -11.28,0.735L0.371,0.735C0.727,0.735 1.013,0.447 1.013,0.096L1.013,-28.066C1.013,-28.422 0.733,-29.071 0,-28.336" style="fill:white;fill-rule:nonzero;"/>
        </g>
        <g transform="matrix(1,0,0,1,239.248,368.317)">
            <path d="M0,-34.319C0.004,-34.405 -0.026,-34.497 -0.096,-34.564C-0.155,-34.622 -0.23,-34.648 -0.304,-34.655L-0.366,-34.651L-0.458,-34.646L-9.094,-32.698L-9.251,-32.681C-9.313,-32.67 -9.372,-32.638 -9.419,-32.593C-9.547,-32.465 -9.547,-32.257 -9.419,-32.129L-9.322,-32.031L-7.35,-30.059L-26.918,-10.491L-35.956,-19.53C-36.059,-19.632 -36.221,-19.632 -36.324,-19.53L-38.776,-17.077C-38.778,-17.077 -38.778,-17.074 -38.778,-17.074L-53.267,-2.589C-53.367,-2.486 -53.367,-2.32 -53.267,-2.22L-50.811,0.235C-50.71,0.336 -50.547,0.336 -50.446,0.235L-36.138,-14.07L-29.58,-7.51C-29.573,-7.501 -29.569,-7.49 -29.559,-7.48L-27.105,-5.029C-27.004,-4.926 -26.84,-4.926 -26.738,-5.029L-4.529,-27.238L-2.458,-25.169C-2.331,-25.04 -2.123,-25.04 -1.997,-25.169C-1.937,-25.229 -1.907,-25.303 -1.903,-25.381L-1.901,-25.409L-0.004,-34.224L0,-34.319Z" style="fill:white;fill-rule:nonzero;"/>
        </g>
        <g transform="matrix(1,0,0,1,217.941,389.255)">
            <path d="M0,-26.386L-5.457,-20.884C-5.561,-20.799 -5.712,-20.801 -5.809,-20.898L-10.752,-25.937C-11.658,-26.839 -11.853,-26.108 -11.853,-25.753L-11.853,0.161C-11.853,0.514 -11.568,0.802 -11.214,0.802L0.439,0.802C0.792,0.802 1.08,0.514 1.08,0.161L1.08,-26.183C1.08,-26.537 0.8,-27.188 0,-26.386" style="fill:white;fill-rule:nonzero;"/>
        </g>
    </g>
</svg>
