<?xml version="1.0" encoding="UTF-8" standalone="no"?>
<!DOCTYPE svg PUBLIC "-//W3C//DTD SVG 1.1//EN" "http://www.w3.org/Graphics/SVG/1.1/DTD/svg11.dtd">
<svg width="100%" height="100%" viewBox="0 0 250 213" version="1.1" xmlns="http://www.w3.org/2000/svg" xmlns:xlink="http://www.w3.org/1999/xlink" xml:space="preserve" xmlns:serif="http://www.serif.com/" style="fill-rule:evenodd;clip-rule:evenodd;stroke-linejoin:round;stroke-miterlimit:2;">
    <g transform="matrix(4.16667,0,0,4.16667,-756.58,-906.774)">
        <g transform="matrix(1,0,0,1,201.847,245.619)">
            <path d="M0,20.649L0,22.209C-0.001,22.22 -0.005,22.232 -0.005,22.244C-0.005,22.257 -0.001,22.27 0,22.281C0.017,22.667 0.332,22.975 0.72,22.982C0.725,22.982 0.729,22.985 0.734,22.985C0.739,22.985 0.746,22.982 0.752,22.982L19.056,22.982C19.061,22.982 19.066,22.985 19.071,22.985C19.077,22.985 19.082,22.982 19.087,22.982C19.487,22.975 19.807,22.649 19.809,22.25C19.809,22.248 19.812,22.247 19.812,22.244C19.812,22.244 19.809,22.241 19.809,22.239L19.809,20.473C30.113,17.095 37.832,8.744 39.529,-1.433C39.534,-1.455 39.536,-1.475 39.54,-1.494C39.545,-1.529 39.55,-1.561 39.55,-1.596C39.55,-2.005 39.22,-2.336 38.81,-2.336L-19.177,-2.336L-19.526,-2.336C-19.937,-2.336 -20.268,-2.005 -20.268,-1.596L-20.229,-1.263C-18.447,9.011 -10.516,17.409 0,20.649" style="fill:white;fill-rule:nonzero;"/>
        </g>
        <g transform="matrix(1,0,0,1,221.64,239.886)">
            <path d="M0,-21.501C-0.241,-21.159 -5.876,-13.044 0.126,-6.483C2.878,-3.472 2.64,-0.815 1.854,0.979L5.704,0.979C6.484,-1.67 6.162,-4.993 3.036,-8.408C-1.387,-13.243 3.093,-19.778 3.16,-19.879C3.688,-20.625 3.405,-21.585 2.535,-22.034C1.662,-22.48 0.53,-22.241 0,-21.501" style="fill:white;fill-rule:nonzero;"/>
        </g>
        <g transform="matrix(1,0,0,1,211.889,217.407)">
            <path d="M0,23.458L3.852,23.458C4.63,20.808 4.307,17.486 1.181,14.07C-3.243,9.234 1.233,2.703 1.304,2.596C1.829,1.854 1.551,0.894 0.677,0.444C-0.193,0 -1.327,0.236 -1.854,0.978C-2.096,1.318 -7.737,9.434 -1.729,15.995C1.023,19.007 0.784,21.665 0,23.458" style="fill:white;fill-rule:nonzero;"/>
        </g>
        <g transform="matrix(1,0,0,1,198.427,239.884)">
            <path d="M0,-21.499C-0.244,-21.157 -5.88,-13.042 0.124,-6.481C2.878,-3.469 2.64,-0.812 1.855,0.981L5.706,0.981C6.484,-1.667 6.163,-4.99 3.034,-8.406C-1.39,-13.241 3.089,-19.776 3.16,-19.88C3.683,-20.623 3.404,-21.583 2.531,-22.032C1.661,-22.48 0.528,-22.241 0,-21.499" style="fill:white;fill-rule:nonzero;"/>
        </g>
    </g>
</svg>
