<?xml version="1.0" encoding="UTF-8" standalone="no"?>
<!DOCTYPE svg PUBLIC "-//W3C//DTD SVG 1.1//EN" "http://www.w3.org/Graphics/SVG/1.1/DTD/svg11.dtd">
<svg width="100%" height="100%" viewBox="0 0 310 217" version="1.1" xmlns="http://www.w3.org/2000/svg" xmlns:xlink="http://www.w3.org/1999/xlink" xml:space="preserve" xmlns:serif="http://www.serif.com/" style="fill-rule:evenodd;clip-rule:evenodd;stroke-linejoin:round;stroke-miterlimit:2;">
    <g transform="matrix(4.16667,0,0,4.16667,-1248.69,-890.803)">
        <g transform="matrix(1,0,0,1,374.083,247.458)">
            <path d="M0,-6.133C0,-9.255 -2.003,-11.786 -5.038,-11.786C-6.555,-11.786 -8.385,-10.125 -9.379,-9.103C-10.373,-10.126 -12.082,-11.789 -13.6,-11.789C-16.634,-11.789 -18.76,-9.258 -18.76,-6.134C-18.76,-4.573 -18.145,-3.16 -17.15,-2.136L-9.372,5.656L-1.605,-2.128L-1.611,-2.133C-0.616,-3.157 0,-4.571 0,-6.133" style="fill:white;fill-rule:nonzero;"/>
        </g>
        <g transform="matrix(1,0,0,1,340.969,213.757)">
            <path d="M0,52.078C-0.026,52.078 -0.053,52.078 -0.08,52.076C-0.671,52.039 -1.159,51.601 -1.259,51.017L-5.21,28.007L-11.195,39.103C-11.457,39.589 -12.004,39.85 -12.542,39.754C-13.085,39.658 -13.504,39.224 -13.583,38.678L-16.124,20.92L-20.772,31.361C-20.978,31.822 -21.435,32.119 -21.939,32.119L-40.005,32.119C-40.711,32.119 -41.283,31.546 -41.283,30.841C-41.283,30.136 -40.711,29.564 -40.005,29.564L-22.769,29.564L-16.654,15.831C-16.423,15.311 -15.875,15.008 -15.311,15.085C-14.748,15.164 -14.304,15.606 -14.223,16.169L-11.604,34.48L-5.702,23.537C-5.443,23.056 -4.909,22.794 -4.37,22.883C-3.833,22.971 -3.411,23.39 -3.318,23.927L0.34,45.238L13.675,0.944C13.827,0.439 14.272,0.08 14.797,0.039C15.324,0 15.82,0.283 16.048,0.757L23.064,15.303C23.371,15.938 23.104,16.702 22.469,17.008C21.834,17.314 21.07,17.048 20.764,16.412L15.174,4.825L1.222,51.169C1.059,51.711 0.56,52.078 0,52.078" style="fill:white;fill-rule:nonzero;"/>
        </g>
    </g>
</svg>
